<?xml version="1.0" encoding="UTF-8" standalone="no"?>
<!DOCTYPE svg PUBLIC "-//W3C//DTD SVG 1.1//EN"
 "http://www.w3.org/Graphics/SVG/1.1/DTD/svg11.dtd">
<!-- Generated by graphviz version 2.38.0 (20140413.2041)
 -->
<!-- Title: TcpServer Pages: 1 -->
<svg width="208pt" height="526pt"
 viewBox="0.00 0.00 208.31 526.00" xmlns="http://www.w3.org/2000/svg" xmlns:xlink="http://www.w3.org/1999/xlink">
<g id="graph0" class="graph" transform="scale(1 1) rotate(0) translate(4 522)">
<title>TcpServer</title>
<polygon fill="white" stroke="none" points="-4,4 -4,-522 204.308,-522 204.308,4 -4,4"/>
<!-- Node1 -->
<g id="node1" class="node"><title>Node1</title>
<polygon fill="#bfbfbf" stroke="black" points="69.9375,-282.5 69.9375,-396.5 146.055,-396.5 146.055,-282.5 69.9375,-282.5"/>
<text text-anchor="middle" x="107.996" y="-384.5" font-family="Helvetica,sans-Serif" font-size="10.00">TcpServer</text>
<polyline fill="none" stroke="black" points="69.9375,-378.5 146.055,-378.5 "/>
<text text-anchor="start" x="77.9375" y="-366.5" font-family="Helvetica,sans-Serif" font-size="10.00">+ socket</text>
<text text-anchor="start" x="77.9375" y="-356.5" font-family="Helvetica,sans-Serif" font-size="10.00">+ handler</text>
<text text-anchor="start" x="77.9375" y="-346.5" font-family="Helvetica,sans-Serif" font-size="10.00">+ stats</text>
<polyline fill="none" stroke="black" points="69.9375,-340.5 146.055,-340.5 "/>
<text text-anchor="start" x="77.9375" y="-328.5" font-family="Helvetica,sans-Serif" font-size="10.00">+ TcpServer()</text>
<text text-anchor="start" x="77.9375" y="-318.5" font-family="Helvetica,sans-Serif" font-size="10.00">+ TcpServer()</text>
<text text-anchor="start" x="77.9375" y="-308.5" font-family="Helvetica,sans-Serif" font-size="10.00">+ run()</text>
<text text-anchor="start" x="77.9375" y="-298.5" font-family="Helvetica,sans-Serif" font-size="10.00">+ asyncRun()</text>
<text text-anchor="start" x="77.9375" y="-288.5" font-family="Helvetica,sans-Serif" font-size="10.00">+ stop()</text>
</g>
<!-- Node3 -->
<g id="node3" class="node"><title>Node3</title>
<g id="a_node3"><a xlink:href="../../d4/d79/interfaceHttpServer.html" target="_top" xlink:title="http 服务器对象 ">
<polygon fill="white" stroke="black" points="0,-131.5 0,-245.5 107.992,-245.5 107.992,-131.5 0,-131.5"/>
<text text-anchor="middle" x="53.9961" y="-233.5" font-family="Helvetica,sans-Serif" font-size="10.00">HttpServer</text>
<polyline fill="none" stroke="black" points="0,-227.5 107.992,-227.5 "/>
<text text-anchor="start" x="8" y="-215.5" font-family="Helvetica,sans-Serif" font-size="10.00">+ crossDomain</text>
<text text-anchor="start" x="8" y="-205.5" font-family="Helvetica,sans-Serif" font-size="10.00">+ forceGZIP</text>
<text text-anchor="start" x="8" y="-195.5" font-family="Helvetica,sans-Serif" font-size="10.00">+ maxHeadersCount</text>
<text text-anchor="start" x="8" y="-185.5" font-family="Helvetica,sans-Serif" font-size="10.00">+ maxUploadSize</text>
<text text-anchor="start" x="8" y="-175.5" font-family="Helvetica,sans-Serif" font-size="10.00">+ httpStats</text>
<polyline fill="none" stroke="black" points="0,-169.5 107.992,-169.5 "/>
<text text-anchor="start" x="8" y="-157.5" font-family="Helvetica,sans-Serif" font-size="10.00">+ HttpServer()</text>
<text text-anchor="start" x="8" y="-147.5" font-family="Helvetica,sans-Serif" font-size="10.00">+ HttpServer()</text>
<text text-anchor="start" x="8" y="-137.5" font-family="Helvetica,sans-Serif" font-size="10.00">+ onerror()</text>
</a>
</g>
</g>
<!-- Node1&#45;&gt;Node3 -->
<g id="edge2" class="edge"><title>Node1&#45;&gt;Node3</title>
<path fill="none" stroke="midnightblue" d="M84.1124,-272.599C80.8859,-263.696 77.5993,-254.627 74.44,-245.91"/>
<polygon fill="none" stroke="midnightblue" points="80.8831,-273.96 87.581,-282.169 87.4642,-271.575 80.8831,-273.96"/>
</g>
<!-- Node5 -->
<g id="node5" class="node"><title>Node5</title>
<g id="a_node5"><a xlink:href="../../d1/d5c/interfaceSslServer.html" target="_top" xlink:title="ssl 服务器对象，可方便创建一个标准多纤程 ssl 服务器 ">
<polygon fill="white" stroke="black" points="125.685,-141.5 125.685,-235.5 200.308,-235.5 200.308,-141.5 125.685,-141.5"/>
<text text-anchor="middle" x="162.996" y="-223.5" font-family="Helvetica,sans-Serif" font-size="10.00">SslServer</text>
<polyline fill="none" stroke="black" points="125.685,-217.5 200.308,-217.5 "/>
<text text-anchor="start" x="133.685" y="-205.5" font-family="Helvetica,sans-Serif" font-size="10.00">+ verification</text>
<text text-anchor="start" x="133.685" y="-195.5" font-family="Helvetica,sans-Serif" font-size="10.00">+ ca</text>
<polyline fill="none" stroke="black" points="125.685,-189.5 200.308,-189.5 "/>
<text text-anchor="start" x="133.685" y="-177.5" font-family="Helvetica,sans-Serif" font-size="10.00">+ SslServer()</text>
<text text-anchor="start" x="133.685" y="-167.5" font-family="Helvetica,sans-Serif" font-size="10.00">+ SslServer()</text>
<text text-anchor="start" x="133.685" y="-157.5" font-family="Helvetica,sans-Serif" font-size="10.00">+ SslServer()</text>
<text text-anchor="start" x="133.685" y="-147.5" font-family="Helvetica,sans-Serif" font-size="10.00">+ SslServer()</text>
</a>
</g>
</g>
<!-- Node1&#45;&gt;Node5 -->
<g id="edge4" class="edge"><title>Node1&#45;&gt;Node5</title>
<path fill="none" stroke="midnightblue" d="M132.278,-272.717C136.884,-260.241 141.611,-247.435 145.934,-235.723"/>
<polygon fill="none" stroke="midnightblue" points="128.969,-271.576 128.789,-282.169 135.536,-274 128.969,-271.576"/>
</g>
<!-- Node2 -->
<g id="node2" class="node"><title>Node2</title>
<g id="a_node2"><a xlink:href="../../db/d38/interfaceobject.html" target="_top" xlink:title="基础对象，所有对象均继承于此 ">
<polygon fill="white" stroke="black" points="74.8521,-433.5 74.8521,-517.5 141.14,-517.5 141.14,-433.5 74.8521,-433.5"/>
<text text-anchor="middle" x="107.996" y="-505.5" font-family="Helvetica,sans-Serif" font-size="10.00">object</text>
<polyline fill="none" stroke="black" points="74.8521,-499.5 141.14,-499.5 "/>
<text text-anchor="middle" x="107.996" y="-487.5" font-family="Helvetica,sans-Serif" font-size="10.00"> </text>
<polyline fill="none" stroke="black" points="74.8521,-481.5 141.14,-481.5 "/>
<text text-anchor="start" x="82.8521" y="-469.5" font-family="Helvetica,sans-Serif" font-size="10.00">+ dispose()</text>
<text text-anchor="start" x="82.8521" y="-459.5" font-family="Helvetica,sans-Serif" font-size="10.00">+ toString()</text>
<text text-anchor="start" x="82.8521" y="-449.5" font-family="Helvetica,sans-Serif" font-size="10.00">+ toJSON()</text>
<text text-anchor="start" x="82.8521" y="-439.5" font-family="Helvetica,sans-Serif" font-size="10.00">+ valueOf()</text>
</a>
</g>
</g>
<!-- Node2&#45;&gt;Node1 -->
<g id="edge1" class="edge"><title>Node2&#45;&gt;Node1</title>
<path fill="none" stroke="midnightblue" d="M107.996,-422.94C107.996,-414.347 107.996,-405.397 107.996,-396.696"/>
<polygon fill="none" stroke="midnightblue" points="104.496,-423.202 107.996,-433.202 111.496,-423.202 104.496,-423.202"/>
</g>
<!-- Node4 -->
<g id="node4" class="node"><title>Node4</title>
<g id="a_node4"><a xlink:href="../../d7/d42/interfaceHttpsServer.html" target="_top" xlink:title="https 服务器对象 ">
<polygon fill="white" stroke="black" points="11.9604,-0.5 11.9604,-94.5 96.0317,-94.5 96.0317,-0.5 11.9604,-0.5"/>
<text text-anchor="middle" x="53.9961" y="-82.5" font-family="Helvetica,sans-Serif" font-size="10.00">HttpsServer</text>
<polyline fill="none" stroke="black" points="11.9604,-76.5 96.0317,-76.5 "/>
<text text-anchor="start" x="19.9604" y="-64.5" font-family="Helvetica,sans-Serif" font-size="10.00">+ verification</text>
<text text-anchor="start" x="19.9604" y="-54.5" font-family="Helvetica,sans-Serif" font-size="10.00">+ ca</text>
<polyline fill="none" stroke="black" points="11.9604,-48.5 96.0317,-48.5 "/>
<text text-anchor="start" x="19.9604" y="-36.5" font-family="Helvetica,sans-Serif" font-size="10.00">+ HttpsServer()</text>
<text text-anchor="start" x="19.9604" y="-26.5" font-family="Helvetica,sans-Serif" font-size="10.00">+ HttpsServer()</text>
<text text-anchor="start" x="19.9604" y="-16.5" font-family="Helvetica,sans-Serif" font-size="10.00">+ HttpsServer()</text>
<text text-anchor="start" x="19.9604" y="-6.5" font-family="Helvetica,sans-Serif" font-size="10.00">+ HttpsServer()</text>
</a>
</g>
</g>
<!-- Node3&#45;&gt;Node4 -->
<g id="edge3" class="edge"><title>Node3&#45;&gt;Node4</title>
<path fill="none" stroke="midnightblue" d="M53.9961,-121.255C53.9961,-112.246 53.9961,-103.163 53.9961,-94.6145"/>
<polygon fill="none" stroke="midnightblue" points="50.4962,-121.364 53.9961,-131.364 57.4962,-121.364 50.4962,-121.364"/>
</g>
</g>
</svg>
