<?xml version="1.0" encoding="UTF-8" standalone="no"?>
<!DOCTYPE svg PUBLIC "-//W3C//DTD SVG 1.1//EN"
 "http://www.w3.org/Graphics/SVG/1.1/DTD/svg11.dtd">
<!-- Generated by graphviz version 2.40.1 (20161225.0304)
 -->
<!-- Title: TcpServer Pages: 1 -->
<svg width="208pt" height="536pt"
 viewBox="0.00 0.00 208.31 536.00" xmlns="http://www.w3.org/2000/svg" xmlns:xlink="http://www.w3.org/1999/xlink">
<g id="graph0" class="graph" transform="scale(1 1) rotate(0) translate(4 532)">
<title>TcpServer</title>
<polygon fill="#ffffff" stroke="transparent" points="-4,4 -4,-532 204.3076,-532 204.3076,4 -4,4"/>
<!-- Node0 -->
<g id="node1" class="node">
<title>Node0</title>
<polygon fill="#bfbfbf" stroke="#000000" points="69.9375,-282.5 69.9375,-396.5 146.0547,-396.5 146.0547,-282.5 69.9375,-282.5"/>
<text text-anchor="middle" x="107.9961" y="-384.5" font-family="Helvetica,sans-Serif" font-size="10.00" fill="#000000">TcpServer</text>
<polyline fill="none" stroke="#000000" points="69.9375,-378.5 146.0547,-378.5 "/>
<text text-anchor="start" x="77.9375" y="-366.5" font-family="Helvetica,sans-Serif" font-size="10.00" fill="#000000">+ socket</text>
<text text-anchor="start" x="77.9375" y="-356.5" font-family="Helvetica,sans-Serif" font-size="10.00" fill="#000000">+ handler</text>
<text text-anchor="start" x="77.9375" y="-346.5" font-family="Helvetica,sans-Serif" font-size="10.00" fill="#000000">+ stats</text>
<polyline fill="none" stroke="#000000" points="69.9375,-340.5 146.0547,-340.5 "/>
<text text-anchor="start" x="77.9375" y="-328.5" font-family="Helvetica,sans-Serif" font-size="10.00" fill="#000000">+ TcpServer()</text>
<text text-anchor="start" x="77.9375" y="-318.5" font-family="Helvetica,sans-Serif" font-size="10.00" fill="#000000">+ TcpServer()</text>
<text text-anchor="start" x="77.9375" y="-308.5" font-family="Helvetica,sans-Serif" font-size="10.00" fill="#000000">+ run()</text>
<text text-anchor="start" x="77.9375" y="-298.5" font-family="Helvetica,sans-Serif" font-size="10.00" fill="#000000">+ asyncRun()</text>
<text text-anchor="start" x="77.9375" y="-288.5" font-family="Helvetica,sans-Serif" font-size="10.00" fill="#000000">+ stop()</text>
</g>
<!-- Node2 -->
<g id="node3" class="node">
<title>Node2</title>
<g id="a_node3"><a xlink:href="../../d4/d79/interfaceHttpServer.html" target="_top" xlink:title="http 服务器对象 ">
<polygon fill="#ffffff" stroke="#000000" points="0,-131.5 0,-245.5 107.9922,-245.5 107.9922,-131.5 0,-131.5"/>
<text text-anchor="middle" x="53.9961" y="-233.5" font-family="Helvetica,sans-Serif" font-size="10.00" fill="#000000">HttpServer</text>
<polyline fill="none" stroke="#000000" points="0,-227.5 107.9922,-227.5 "/>
<text text-anchor="start" x="8" y="-215.5" font-family="Helvetica,sans-Serif" font-size="10.00" fill="#000000">+ crossDomain</text>
<text text-anchor="start" x="8" y="-205.5" font-family="Helvetica,sans-Serif" font-size="10.00" fill="#000000">+ forceGZIP</text>
<text text-anchor="start" x="8" y="-195.5" font-family="Helvetica,sans-Serif" font-size="10.00" fill="#000000">+ maxHeadersCount</text>
<text text-anchor="start" x="8" y="-185.5" font-family="Helvetica,sans-Serif" font-size="10.00" fill="#000000">+ maxUploadSize</text>
<text text-anchor="start" x="8" y="-175.5" font-family="Helvetica,sans-Serif" font-size="10.00" fill="#000000">+ httpStats</text>
<polyline fill="none" stroke="#000000" points="0,-169.5 107.9922,-169.5 "/>
<text text-anchor="start" x="8" y="-157.5" font-family="Helvetica,sans-Serif" font-size="10.00" fill="#000000">+ HttpServer()</text>
<text text-anchor="start" x="8" y="-147.5" font-family="Helvetica,sans-Serif" font-size="10.00" fill="#000000">+ HttpServer()</text>
<text text-anchor="start" x="8" y="-137.5" font-family="Helvetica,sans-Serif" font-size="10.00" fill="#000000">+ onerror()</text>
</a>
</g>
</g>
<!-- Node0&#45;&gt;Node2 -->
<g id="edge2" class="edge">
<title>Node0&#45;&gt;Node2</title>
<path fill="none" stroke="#191970" d="M84.1124,-272.7141C80.8859,-263.6919 77.5993,-254.5014 74.44,-245.6673"/>
<polygon fill="none" stroke="#191970" points="80.918,-274.1759 87.581,-282.4134 87.5092,-271.8188 80.918,-274.1759"/>
</g>
<!-- Node4 -->
<g id="node5" class="node">
<title>Node4</title>
<g id="a_node5"><a xlink:href="../../d1/d5c/interfaceSslServer.html" target="_top" xlink:title="ssl 服务器对象，可方便创建一个标准多纤程 ssl 服务器 ">
<polygon fill="#ffffff" stroke="#000000" points="125.6846,-141.5 125.6846,-235.5 200.3076,-235.5 200.3076,-141.5 125.6846,-141.5"/>
<text text-anchor="middle" x="162.9961" y="-223.5" font-family="Helvetica,sans-Serif" font-size="10.00" fill="#000000">SslServer</text>
<polyline fill="none" stroke="#000000" points="125.6846,-217.5 200.3076,-217.5 "/>
<text text-anchor="start" x="133.6846" y="-205.5" font-family="Helvetica,sans-Serif" font-size="10.00" fill="#000000">+ verification</text>
<text text-anchor="start" x="133.6846" y="-195.5" font-family="Helvetica,sans-Serif" font-size="10.00" fill="#000000">+ ca</text>
<polyline fill="none" stroke="#000000" points="125.6846,-189.5 200.3076,-189.5 "/>
<text text-anchor="start" x="133.6846" y="-177.5" font-family="Helvetica,sans-Serif" font-size="10.00" fill="#000000">+ SslServer()</text>
<text text-anchor="start" x="133.6846" y="-167.5" font-family="Helvetica,sans-Serif" font-size="10.00" fill="#000000">+ SslServer()</text>
<text text-anchor="start" x="133.6846" y="-157.5" font-family="Helvetica,sans-Serif" font-size="10.00" fill="#000000">+ SslServer()</text>
<text text-anchor="start" x="133.6846" y="-147.5" font-family="Helvetica,sans-Serif" font-size="10.00" fill="#000000">+ SslServer()</text>
</a>
</g>
</g>
<!-- Node0&#45;&gt;Node4 -->
<g id="edge4" class="edge">
<title>Node0&#45;&gt;Node4</title>
<path fill="none" stroke="#191970" d="M132.2405,-272.9381C136.7955,-260.4324 141.4714,-247.595 145.7588,-235.8242"/>
<polygon fill="none" stroke="#191970" points="128.9231,-271.8194 128.7892,-282.4134 135.5004,-274.2151 128.9231,-271.8194"/>
</g>
<!-- Node1 -->
<g id="node2" class="node">
<title>Node1</title>
<g id="a_node2"><a xlink:href="../../db/d38/interfaceobject.html" target="_top" xlink:title="基础对象，所有对象均继承于此 ">
<polygon fill="#ffffff" stroke="#000000" points="74.8521,-433.5 74.8521,-527.5 141.1401,-527.5 141.1401,-433.5 74.8521,-433.5"/>
<text text-anchor="middle" x="107.9961" y="-515.5" font-family="Helvetica,sans-Serif" font-size="10.00" fill="#000000">object</text>
<polyline fill="none" stroke="#000000" points="74.8521,-509.5 141.1401,-509.5 "/>
<text text-anchor="middle" x="107.9961" y="-497.5" font-family="Helvetica,sans-Serif" font-size="10.00" fill="#000000"> </text>
<polyline fill="none" stroke="#000000" points="74.8521,-491.5 141.1401,-491.5 "/>
<text text-anchor="start" x="82.8521" y="-479.5" font-family="Helvetica,sans-Serif" font-size="10.00" fill="#000000">+ dispose()</text>
<text text-anchor="start" x="82.8521" y="-469.5" font-family="Helvetica,sans-Serif" font-size="10.00" fill="#000000">+ equals()</text>
<text text-anchor="start" x="82.8521" y="-459.5" font-family="Helvetica,sans-Serif" font-size="10.00" fill="#000000">+ toString()</text>
<text text-anchor="start" x="82.8521" y="-449.5" font-family="Helvetica,sans-Serif" font-size="10.00" fill="#000000">+ toJSON()</text>
<text text-anchor="start" x="82.8521" y="-439.5" font-family="Helvetica,sans-Serif" font-size="10.00" fill="#000000">+ valueOf()</text>
</a>
</g>
</g>
<!-- Node1&#45;&gt;Node0 -->
<g id="edge1" class="edge">
<title>Node1&#45;&gt;Node0</title>
<path fill="none" stroke="#191970" d="M107.9961,-423.1082C107.9961,-414.412 107.9961,-405.44 107.9961,-396.7469"/>
<polygon fill="none" stroke="#191970" points="104.4962,-423.1568 107.9961,-433.1568 111.4962,-423.1568 104.4962,-423.1568"/>
</g>
<!-- Node3 -->
<g id="node4" class="node">
<title>Node3</title>
<g id="a_node4"><a xlink:href="../../d7/d42/interfaceHttpsServer.html" target="_top" xlink:title="https 服务器对象 ">
<polygon fill="#ffffff" stroke="#000000" points="11.9604,-.5 11.9604,-94.5 96.0317,-94.5 96.0317,-.5 11.9604,-.5"/>
<text text-anchor="middle" x="53.9961" y="-82.5" font-family="Helvetica,sans-Serif" font-size="10.00" fill="#000000">HttpsServer</text>
<polyline fill="none" stroke="#000000" points="11.9604,-76.5 96.0317,-76.5 "/>
<text text-anchor="start" x="19.9604" y="-64.5" font-family="Helvetica,sans-Serif" font-size="10.00" fill="#000000">+ verification</text>
<text text-anchor="start" x="19.9604" y="-54.5" font-family="Helvetica,sans-Serif" font-size="10.00" fill="#000000">+ ca</text>
<polyline fill="none" stroke="#000000" points="11.9604,-48.5 96.0317,-48.5 "/>
<text text-anchor="start" x="19.9604" y="-36.5" font-family="Helvetica,sans-Serif" font-size="10.00" fill="#000000">+ HttpsServer()</text>
<text text-anchor="start" x="19.9604" y="-26.5" font-family="Helvetica,sans-Serif" font-size="10.00" fill="#000000">+ HttpsServer()</text>
<text text-anchor="start" x="19.9604" y="-16.5" font-family="Helvetica,sans-Serif" font-size="10.00" fill="#000000">+ HttpsServer()</text>
<text text-anchor="start" x="19.9604" y="-6.5" font-family="Helvetica,sans-Serif" font-size="10.00" fill="#000000">+ HttpsServer()</text>
</a>
</g>
</g>
<!-- Node2&#45;&gt;Node3 -->
<g id="edge3" class="edge">
<title>Node2&#45;&gt;Node3</title>
<path fill="none" stroke="#191970" d="M53.9961,-120.8925C53.9961,-112.1033 53.9961,-103.254 53.9961,-94.8923"/>
<polygon fill="none" stroke="#191970" points="50.4962,-121.1499 53.9961,-131.1499 57.4962,-121.1499 50.4962,-121.1499"/>
</g>
</g>
</svg>
