<?xml version="1.0" encoding="UTF-8" standalone="no"?>
<!DOCTYPE svg PUBLIC "-//W3C//DTD SVG 1.1//EN"
 "http://www.w3.org/Graphics/SVG/1.1/DTD/svg11.dtd">
<!-- Generated by graphviz version 2.38.0 (20140413.2041)
 -->
<!-- Title: TextColor Pages: 1 -->
<svg width="74pt" height="224pt"
 viewBox="0.00 0.00 74.29 224.00" xmlns="http://www.w3.org/2000/svg" xmlns:xlink="http://www.w3.org/1999/xlink">
<g id="graph0" class="graph" transform="scale(1 1) rotate(0) translate(4 220)">
<title>TextColor</title>
<polygon fill="white" stroke="none" points="-4,4 -4,-220 70.2881,-220 70.2881,4 -4,4"/>
<!-- Node1 -->
<g id="node1" class="node"><title>Node1</title>
<polygon fill="#bfbfbf" stroke="black" points="0.539551,-0.5 0.539551,-84.5 65.7485,-84.5 65.7485,-0.5 0.539551,-0.5"/>
<text text-anchor="middle" x="33.144" y="-72.5" font-family="Helvetica,sans-Serif" font-size="10.00">TextColor</text>
<polyline fill="none" stroke="black" points="0.539551,-66.5 65.7485,-66.5 "/>
<text text-anchor="start" x="8.53955" y="-54.5" font-family="Helvetica,sans-Serif" font-size="10.00">+ notice</text>
<text text-anchor="start" x="8.53955" y="-44.5" font-family="Helvetica,sans-Serif" font-size="10.00">+ warn</text>
<text text-anchor="start" x="8.53955" y="-34.5" font-family="Helvetica,sans-Serif" font-size="10.00">+ error</text>
<text text-anchor="start" x="8.53955" y="-24.5" font-family="Helvetica,sans-Serif" font-size="10.00">+ highLight</text>
<polyline fill="none" stroke="black" points="0.539551,-18.5 65.7485,-18.5 "/>
<text text-anchor="middle" x="33.144" y="-6.5" font-family="Helvetica,sans-Serif" font-size="10.00"> </text>
</g>
<!-- Node2 -->
<g id="node2" class="node"><title>Node2</title>
<g id="a_node2"><a xlink:href="../../db/d38/interfaceobject.html" target="_top" xlink:title="基础对象，所有对象均继承于此 ">
<polygon fill="white" stroke="black" points="0,-121.5 0,-215.5 66.2881,-215.5 66.2881,-121.5 0,-121.5"/>
<text text-anchor="middle" x="33.144" y="-203.5" font-family="Helvetica,sans-Serif" font-size="10.00">object</text>
<polyline fill="none" stroke="black" points="0,-197.5 66.2881,-197.5 "/>
<text text-anchor="middle" x="33.144" y="-185.5" font-family="Helvetica,sans-Serif" font-size="10.00"> </text>
<polyline fill="none" stroke="black" points="0,-179.5 66.2881,-179.5 "/>
<text text-anchor="start" x="8" y="-167.5" font-family="Helvetica,sans-Serif" font-size="10.00">+ dispose()</text>
<text text-anchor="start" x="8" y="-157.5" font-family="Helvetica,sans-Serif" font-size="10.00">+ equals()</text>
<text text-anchor="start" x="8" y="-147.5" font-family="Helvetica,sans-Serif" font-size="10.00">+ toString()</text>
<text text-anchor="start" x="8" y="-137.5" font-family="Helvetica,sans-Serif" font-size="10.00">+ toJSON()</text>
<text text-anchor="start" x="8" y="-127.5" font-family="Helvetica,sans-Serif" font-size="10.00">+ valueOf()</text>
</a>
</g>
</g>
<!-- Node2&#45;&gt;Node1 -->
<g id="edge1" class="edge"><title>Node2&#45;&gt;Node1</title>
<path fill="none" stroke="midnightblue" d="M33.144,-111.061C33.144,-102.219 33.144,-93.2252 33.144,-84.8064"/>
<polygon fill="none" stroke="midnightblue" points="29.6441,-111.327 33.144,-121.327 36.6441,-111.327 29.6441,-111.327"/>
</g>
</g>
</svg>
