<?xml version="1.0" encoding="UTF-8" standalone="no"?>
<!DOCTYPE svg PUBLIC "-//W3C//DTD SVG 1.1//EN"
 "http://www.w3.org/Graphics/SVG/1.1/DTD/svg11.dtd">
<!-- Generated by graphviz version 2.38.0 (20140413.2041)
 -->
<!-- Title: HttpHandler Pages: 1 -->
<svg width="116pt" height="416pt"
 viewBox="0.00 0.00 115.99 416.00" xmlns="http://www.w3.org/2000/svg" xmlns:xlink="http://www.w3.org/1999/xlink">
<g id="graph0" class="graph" transform="scale(1 1) rotate(0) translate(4 412)">
<title>HttpHandler</title>
<polygon fill="white" stroke="none" points="-4,4 -4,-412 111.992,-412 111.992,4 -4,4"/>
<!-- Node1 -->
<g id="node1" class="node"><title>Node1</title>
<polygon fill="#bfbfbf" stroke="black" points="0,-0.5 0,-84.5 107.992,-84.5 107.992,-0.5 0,-0.5"/>
<text text-anchor="middle" x="53.9961" y="-72.5" font-family="Helvetica,sans-Serif" font-size="10.00">HttpHandler</text>
<polyline fill="none" stroke="black" points="0,-66.5 107.992,-66.5 "/>
<text text-anchor="start" x="8" y="-54.5" font-family="Helvetica,sans-Serif" font-size="10.00">+ crossDomain</text>
<text text-anchor="start" x="8" y="-44.5" font-family="Helvetica,sans-Serif" font-size="10.00">+ forceGZIP</text>
<text text-anchor="start" x="8" y="-34.5" font-family="Helvetica,sans-Serif" font-size="10.00">+ maxHeadersCount</text>
<text text-anchor="start" x="8" y="-24.5" font-family="Helvetica,sans-Serif" font-size="10.00">+ maxUploadSize</text>
<polyline fill="none" stroke="black" points="0,-18.5 107.992,-18.5 "/>
<text text-anchor="start" x="8" y="-6.5" font-family="Helvetica,sans-Serif" font-size="10.00">+ HttpHandler()</text>
</g>
<!-- Node2 -->
<g id="node2" class="node"><title>Node2</title>
<g id="a_node2"><a xlink:href="../../dc/de5/interfaceHandlerEx.html" target="_top" xlink:title="扩展消息处理器接口 ">
<polygon fill="white" stroke="black" points="22.2388,-121.5 22.2388,-185.5 85.7534,-185.5 85.7534,-121.5 22.2388,-121.5"/>
<text text-anchor="middle" x="53.9961" y="-173.5" font-family="Helvetica,sans-Serif" font-size="10.00">HandlerEx</text>
<polyline fill="none" stroke="black" points="22.2388,-167.5 85.7534,-167.5 "/>
<text text-anchor="start" x="30.2388" y="-155.5" font-family="Helvetica,sans-Serif" font-size="10.00">+ handler</text>
<text text-anchor="start" x="30.2388" y="-145.5" font-family="Helvetica,sans-Serif" font-size="10.00">+ stats</text>
<polyline fill="none" stroke="black" points="22.2388,-139.5 85.7534,-139.5 "/>
<text text-anchor="start" x="30.2388" y="-127.5" font-family="Helvetica,sans-Serif" font-size="10.00">+ onerror()</text>
</a>
</g>
</g>
<!-- Node2&#45;&gt;Node1 -->
<g id="edge1" class="edge"><title>Node2&#45;&gt;Node1</title>
<path fill="none" stroke="midnightblue" d="M53.9961,-111.263C53.9961,-102.503 53.9961,-93.2551 53.9961,-84.5032"/>
<polygon fill="none" stroke="midnightblue" points="50.4962,-111.265 53.9961,-121.265 57.4962,-111.265 50.4962,-111.265"/>
</g>
<!-- Node3 -->
<g id="node3" class="node"><title>Node3</title>
<g id="a_node3"><a xlink:href="../../da/d85/interfaceHandler.html" target="_top" xlink:title="消息处理器接口 ">
<polygon fill="white" stroke="black" points="23.9038,-222.5 23.9038,-276.5 84.0884,-276.5 84.0884,-222.5 23.9038,-222.5"/>
<text text-anchor="middle" x="53.9961" y="-264.5" font-family="Helvetica,sans-Serif" font-size="10.00">Handler</text>
<polyline fill="none" stroke="black" points="23.9038,-258.5 84.0884,-258.5 "/>
<text text-anchor="middle" x="53.9961" y="-246.5" font-family="Helvetica,sans-Serif" font-size="10.00"> </text>
<polyline fill="none" stroke="black" points="23.9038,-240.5 84.0884,-240.5 "/>
<text text-anchor="start" x="31.9038" y="-228.5" font-family="Helvetica,sans-Serif" font-size="10.00">+ invoke()</text>
</a>
</g>
</g>
<!-- Node3&#45;&gt;Node2 -->
<g id="edge2" class="edge"><title>Node3&#45;&gt;Node2</title>
<path fill="none" stroke="midnightblue" d="M53.9961,-212.284C53.9961,-203.46 53.9961,-194.1 53.9961,-185.542"/>
<polygon fill="none" stroke="midnightblue" points="50.4962,-212.316 53.9961,-222.316 57.4962,-212.316 50.4962,-212.316"/>
</g>
<!-- Node4 -->
<g id="node4" class="node"><title>Node4</title>
<g id="a_node4"><a xlink:href="../../db/d38/interfaceobject.html" target="_top" xlink:title="基础对象，所有对象均继承于此 ">
<polygon fill="white" stroke="black" points="20.8521,-313.5 20.8521,-407.5 87.1401,-407.5 87.1401,-313.5 20.8521,-313.5"/>
<text text-anchor="middle" x="53.9961" y="-395.5" font-family="Helvetica,sans-Serif" font-size="10.00">object</text>
<polyline fill="none" stroke="black" points="20.8521,-389.5 87.1401,-389.5 "/>
<text text-anchor="middle" x="53.9961" y="-377.5" font-family="Helvetica,sans-Serif" font-size="10.00"> </text>
<polyline fill="none" stroke="black" points="20.8521,-371.5 87.1401,-371.5 "/>
<text text-anchor="start" x="28.8521" y="-359.5" font-family="Helvetica,sans-Serif" font-size="10.00">+ dispose()</text>
<text text-anchor="start" x="28.8521" y="-349.5" font-family="Helvetica,sans-Serif" font-size="10.00">+ equals()</text>
<text text-anchor="start" x="28.8521" y="-339.5" font-family="Helvetica,sans-Serif" font-size="10.00">+ toString()</text>
<text text-anchor="start" x="28.8521" y="-329.5" font-family="Helvetica,sans-Serif" font-size="10.00">+ toJSON()</text>
<text text-anchor="start" x="28.8521" y="-319.5" font-family="Helvetica,sans-Serif" font-size="10.00">+ valueOf()</text>
</a>
</g>
</g>
<!-- Node4&#45;&gt;Node3 -->
<g id="edge3" class="edge"><title>Node4&#45;&gt;Node3</title>
<path fill="none" stroke="midnightblue" d="M53.9961,-303.212C53.9961,-293.916 53.9961,-284.69 53.9961,-276.617"/>
<polygon fill="none" stroke="midnightblue" points="50.4962,-303.274 53.9961,-313.274 57.4962,-303.274 50.4962,-303.274"/>
</g>
</g>
</svg>
