<?xml version="1.0" encoding="UTF-8" standalone="no"?>
<!DOCTYPE svg PUBLIC "-//W3C//DTD SVG 1.1//EN"
 "http://www.w3.org/Graphics/SVG/1.1/DTD/svg11.dtd">
<!-- Generated by graphviz version 2.40.1 (20161225.0304)
 -->
<!-- Title: BlockQueue Pages: 1 -->
<svg width="94pt" height="385pt"
 viewBox="0.00 0.00 93.76 385.00" xmlns="http://www.w3.org/2000/svg" xmlns:xlink="http://www.w3.org/1999/xlink">
<g id="graph0" class="graph" transform="scale(1 1) rotate(0) translate(4 381)">
<title>BlockQueue</title>
<polygon fill="#ffffff" stroke="transparent" points="-4,4 -4,-381 89.7559,-381 89.7559,4 -4,4"/>
<!-- Node0 -->
<g id="node1" class="node">
<title>Node0</title>
<polygon fill="#bfbfbf" stroke="#000000" points="0,-.5 0,-74.5 85.7559,-74.5 85.7559,-.5 0,-.5"/>
<text text-anchor="middle" x="42.8779" y="-62.5" font-family="Helvetica,sans-Serif" font-size="10.00" fill="#000000">BlockQueue</text>
<polyline fill="none" stroke="#000000" points="0,-56.5 85.7559,-56.5 "/>
<text text-anchor="middle" x="42.8779" y="-44.5" font-family="Helvetica,sans-Serif" font-size="10.00" fill="#000000"> </text>
<polyline fill="none" stroke="#000000" points="0,-38.5 85.7559,-38.5 "/>
<text text-anchor="start" x="8" y="-26.5" font-family="Helvetica,sans-Serif" font-size="10.00" fill="#000000">+ BlockQueue()</text>
<text text-anchor="start" x="8" y="-16.5" font-family="Helvetica,sans-Serif" font-size="10.00" fill="#000000">+ put()</text>
<text text-anchor="start" x="8" y="-6.5" font-family="Helvetica,sans-Serif" font-size="10.00" fill="#000000">+ take()</text>
</g>
<!-- Node1 -->
<g id="node2" class="node">
<title>Node1</title>
<g id="a_node2"><a xlink:href="../../d1/d56/interfaceQueue.html" target="_top" xlink:title="FIFO（先进先出）队列对象 ">
<polygon fill="#ffffff" stroke="#000000" points="9.4507,-111.5 9.4507,-245.5 76.3052,-245.5 76.3052,-111.5 9.4507,-111.5"/>
<text text-anchor="middle" x="42.8779" y="-233.5" font-family="Helvetica,sans-Serif" font-size="10.00" fill="#000000">Queue</text>
<polyline fill="none" stroke="#000000" points="9.4507,-227.5 76.3052,-227.5 "/>
<text text-anchor="start" x="17.4507" y="-215.5" font-family="Helvetica,sans-Serif" font-size="10.00" fill="#000000">+ length</text>
<polyline fill="none" stroke="#000000" points="9.4507,-209.5 76.3052,-209.5 "/>
<text text-anchor="start" x="17.4507" y="-197.5" font-family="Helvetica,sans-Serif" font-size="10.00" fill="#000000">+ Queue()</text>
<text text-anchor="start" x="17.4507" y="-187.5" font-family="Helvetica,sans-Serif" font-size="10.00" fill="#000000">+ add()</text>
<text text-anchor="start" x="17.4507" y="-177.5" font-family="Helvetica,sans-Serif" font-size="10.00" fill="#000000">+ offer()</text>
<text text-anchor="start" x="17.4507" y="-167.5" font-family="Helvetica,sans-Serif" font-size="10.00" fill="#000000">+ remove()</text>
<text text-anchor="start" x="17.4507" y="-157.5" font-family="Helvetica,sans-Serif" font-size="10.00" fill="#000000">+ poll()</text>
<text text-anchor="start" x="17.4507" y="-147.5" font-family="Helvetica,sans-Serif" font-size="10.00" fill="#000000">+ element()</text>
<text text-anchor="start" x="17.4507" y="-137.5" font-family="Helvetica,sans-Serif" font-size="10.00" fill="#000000">+ peek()</text>
<text text-anchor="start" x="17.4507" y="-127.5" font-family="Helvetica,sans-Serif" font-size="10.00" fill="#000000">+ clear()</text>
<text text-anchor="start" x="17.4507" y="-117.5" font-family="Helvetica,sans-Serif" font-size="10.00" fill="#000000">+ toArray()</text>
</a>
</g>
</g>
<!-- Node1&#45;&gt;Node0 -->
<g id="edge1" class="edge">
<title>Node1&#45;&gt;Node0</title>
<path fill="none" stroke="#191970" d="M42.8779,-101.2431C42.8779,-92.0002 42.8779,-82.9136 42.8779,-74.6267"/>
<polygon fill="none" stroke="#191970" points="39.378,-101.3036 42.8779,-111.3036 46.378,-101.3036 39.378,-101.3036"/>
</g>
<!-- Node2 -->
<g id="node3" class="node">
<title>Node2</title>
<g id="a_node3"><a xlink:href="../../db/d38/interfaceobject.html" target="_top" xlink:title="基础对象，所有对象均继承于此 ">
<polygon fill="#ffffff" stroke="#000000" points="9.7339,-282.5 9.7339,-376.5 76.022,-376.5 76.022,-282.5 9.7339,-282.5"/>
<text text-anchor="middle" x="42.8779" y="-364.5" font-family="Helvetica,sans-Serif" font-size="10.00" fill="#000000">object</text>
<polyline fill="none" stroke="#000000" points="9.7339,-358.5 76.022,-358.5 "/>
<text text-anchor="middle" x="42.8779" y="-346.5" font-family="Helvetica,sans-Serif" font-size="10.00" fill="#000000"> </text>
<polyline fill="none" stroke="#000000" points="9.7339,-340.5 76.022,-340.5 "/>
<text text-anchor="start" x="17.7339" y="-328.5" font-family="Helvetica,sans-Serif" font-size="10.00" fill="#000000">+ dispose()</text>
<text text-anchor="start" x="17.7339" y="-318.5" font-family="Helvetica,sans-Serif" font-size="10.00" fill="#000000">+ equals()</text>
<text text-anchor="start" x="17.7339" y="-308.5" font-family="Helvetica,sans-Serif" font-size="10.00" fill="#000000">+ toString()</text>
<text text-anchor="start" x="17.7339" y="-298.5" font-family="Helvetica,sans-Serif" font-size="10.00" fill="#000000">+ toJSON()</text>
<text text-anchor="start" x="17.7339" y="-288.5" font-family="Helvetica,sans-Serif" font-size="10.00" fill="#000000">+ valueOf()</text>
</a>
</g>
</g>
<!-- Node2&#45;&gt;Node1 -->
<g id="edge2" class="edge">
<title>Node2&#45;&gt;Node1</title>
<path fill="none" stroke="#191970" d="M42.8779,-271.8599C42.8779,-263.2753 42.8779,-254.3638 42.8779,-245.605"/>
<polygon fill="none" stroke="#191970" points="39.378,-272.1369 42.8779,-282.137 46.378,-272.137 39.378,-272.1369"/>
</g>
</g>
</svg>
