<?xml version="1.0" encoding="UTF-8" standalone="no"?>
<!DOCTYPE svg PUBLIC "-//W3C//DTD SVG 1.1//EN"
 "http://www.w3.org/Graphics/SVG/1.1/DTD/svg11.dtd">
<!-- Generated by graphviz version 2.40.1 (20161225.0304)
 -->
<!-- Title: SslHandler Pages: 1 -->
<svg width="88pt" height="315pt"
 viewBox="0.00 0.00 88.19 315.00" xmlns="http://www.w3.org/2000/svg" xmlns:xlink="http://www.w3.org/1999/xlink">
<g id="graph0" class="graph" transform="scale(1 1) rotate(0) translate(4 311)">
<title>SslHandler</title>
<polygon fill="#ffffff" stroke="transparent" points="-4,4 -4,-311 84.1895,-311 84.1895,4 -4,4"/>
<!-- Node0 -->
<g id="node1" class="node">
<title>Node0</title>
<polygon fill="#bfbfbf" stroke="#000000" points="0,-.5 0,-84.5 80.1895,-84.5 80.1895,-.5 0,-.5"/>
<text text-anchor="middle" x="40.0947" y="-72.5" font-family="Helvetica,sans-Serif" font-size="10.00" fill="#000000">SslHandler</text>
<polyline fill="none" stroke="#000000" points="0,-66.5 80.1895,-66.5 "/>
<text text-anchor="start" x="8" y="-54.5" font-family="Helvetica,sans-Serif" font-size="10.00" fill="#000000">+ verification</text>
<text text-anchor="start" x="8" y="-44.5" font-family="Helvetica,sans-Serif" font-size="10.00" fill="#000000">+ ca</text>
<text text-anchor="start" x="8" y="-34.5" font-family="Helvetica,sans-Serif" font-size="10.00" fill="#000000">+ handler</text>
<polyline fill="none" stroke="#000000" points="0,-28.5 80.1895,-28.5 "/>
<text text-anchor="start" x="8" y="-16.5" font-family="Helvetica,sans-Serif" font-size="10.00" fill="#000000">+ SslHandler()</text>
<text text-anchor="start" x="8" y="-6.5" font-family="Helvetica,sans-Serif" font-size="10.00" fill="#000000">+ SslHandler()</text>
</g>
<!-- Node1 -->
<g id="node2" class="node">
<title>Node1</title>
<g id="a_node2"><a xlink:href="../../da/d85/interfaceHandler.html" target="_top" xlink:title="消息处理器接口 ">
<polygon fill="#ffffff" stroke="#000000" points="10.0024,-121.5 10.0024,-175.5 70.187,-175.5 70.187,-121.5 10.0024,-121.5"/>
<text text-anchor="middle" x="40.0947" y="-163.5" font-family="Helvetica,sans-Serif" font-size="10.00" fill="#000000">Handler</text>
<polyline fill="none" stroke="#000000" points="10.0024,-157.5 70.187,-157.5 "/>
<text text-anchor="middle" x="40.0947" y="-145.5" font-family="Helvetica,sans-Serif" font-size="10.00" fill="#000000"> </text>
<polyline fill="none" stroke="#000000" points="10.0024,-139.5 70.187,-139.5 "/>
<text text-anchor="start" x="18.0024" y="-127.5" font-family="Helvetica,sans-Serif" font-size="10.00" fill="#000000">+ invoke()</text>
</a>
</g>
</g>
<!-- Node1&#45;&gt;Node0 -->
<g id="edge1" class="edge">
<title>Node1&#45;&gt;Node0</title>
<path fill="none" stroke="#191970" d="M40.0947,-111.3536C40.0947,-102.7475 40.0947,-93.5271 40.0947,-84.7212"/>
<polygon fill="none" stroke="#191970" points="36.5948,-111.4774 40.0947,-121.4775 43.5948,-111.4775 36.5948,-111.4774"/>
</g>
<!-- Node2 -->
<g id="node3" class="node">
<title>Node2</title>
<g id="a_node3"><a xlink:href="../../db/d38/interfaceobject.html" target="_top" xlink:title="基础对象，所有对象均继承于此 ">
<polygon fill="#ffffff" stroke="#000000" points="6.9507,-212.5 6.9507,-306.5 73.2388,-306.5 73.2388,-212.5 6.9507,-212.5"/>
<text text-anchor="middle" x="40.0947" y="-294.5" font-family="Helvetica,sans-Serif" font-size="10.00" fill="#000000">object</text>
<polyline fill="none" stroke="#000000" points="6.9507,-288.5 73.2388,-288.5 "/>
<text text-anchor="middle" x="40.0947" y="-276.5" font-family="Helvetica,sans-Serif" font-size="10.00" fill="#000000"> </text>
<polyline fill="none" stroke="#000000" points="6.9507,-270.5 73.2388,-270.5 "/>
<text text-anchor="start" x="14.9507" y="-258.5" font-family="Helvetica,sans-Serif" font-size="10.00" fill="#000000">+ dispose()</text>
<text text-anchor="start" x="14.9507" y="-248.5" font-family="Helvetica,sans-Serif" font-size="10.00" fill="#000000">+ equals()</text>
<text text-anchor="start" x="14.9507" y="-238.5" font-family="Helvetica,sans-Serif" font-size="10.00" fill="#000000">+ toString()</text>
<text text-anchor="start" x="14.9507" y="-228.5" font-family="Helvetica,sans-Serif" font-size="10.00" fill="#000000">+ toJSON()</text>
<text text-anchor="start" x="14.9507" y="-218.5" font-family="Helvetica,sans-Serif" font-size="10.00" fill="#000000">+ valueOf()</text>
</a>
</g>
</g>
<!-- Node2&#45;&gt;Node1 -->
<g id="edge2" class="edge">
<title>Node2&#45;&gt;Node1</title>
<path fill="none" stroke="#191970" d="M40.0947,-202.3691C40.0947,-193.0775 40.0947,-183.8469 40.0947,-175.7203"/>
<polygon fill="none" stroke="#191970" points="36.5948,-202.426 40.0947,-212.426 43.5948,-202.426 36.5948,-202.426"/>
</g>
</g>
</svg>
