<?xml version="1.0" encoding="UTF-8" standalone="no"?>
<!DOCTYPE svg PUBLIC "-//W3C//DTD SVG 1.1//EN"
 "http://www.w3.org/Graphics/SVG/1.1/DTD/svg11.dtd">
<!-- Generated by graphviz version 2.40.1 (20161225.0304)
 -->
<!-- Title: SslHandler Pages: 1 -->
<svg width="88pt" height="345pt"
 viewBox="0.00 0.00 88.19 345.00" xmlns="http://www.w3.org/2000/svg" xmlns:xlink="http://www.w3.org/1999/xlink">
<g id="graph0" class="graph" transform="scale(1 1) rotate(0) translate(4 341)">
<title>SslHandler</title>
<polygon fill="#ffffff" stroke="transparent" points="-4,4 -4,-341 84.1895,-341 84.1895,4 -4,4"/>
<!-- Node0 -->
<g id="node1" class="node">
<title>Node0</title>
<polygon fill="#bfbfbf" stroke="#000000" points="0,-.5 0,-84.5 80.1895,-84.5 80.1895,-.5 0,-.5"/>
<text text-anchor="middle" x="40.0947" y="-72.5" font-family="Helvetica,sans-Serif" font-size="10.00" fill="#000000">SslHandler</text>
<polyline fill="none" stroke="#000000" points="0,-66.5 80.1895,-66.5 "/>
<text text-anchor="start" x="8" y="-54.5" font-family="Helvetica,sans-Serif" font-size="10.00" fill="#000000">+ verification</text>
<text text-anchor="start" x="8" y="-44.5" font-family="Helvetica,sans-Serif" font-size="10.00" fill="#000000">+ ca</text>
<text text-anchor="start" x="8" y="-34.5" font-family="Helvetica,sans-Serif" font-size="10.00" fill="#000000">+ handler</text>
<polyline fill="none" stroke="#000000" points="0,-28.5 80.1895,-28.5 "/>
<text text-anchor="start" x="8" y="-16.5" font-family="Helvetica,sans-Serif" font-size="10.00" fill="#000000">+ SslHandler()</text>
<text text-anchor="start" x="8" y="-6.5" font-family="Helvetica,sans-Serif" font-size="10.00" fill="#000000">+ SslHandler()</text>
</g>
<!-- Node1 -->
<g id="node2" class="node">
<title>Node1</title>
<g id="a_node2"><a xlink:href="../../da/d85/interfaceHandler.html" target="_top" xlink:title="消息处理器接口 ">
<polygon fill="#ffffff" stroke="#000000" points="6.9458,-121.5 6.9458,-205.5 73.2437,-205.5 73.2437,-121.5 6.9458,-121.5"/>
<text text-anchor="middle" x="40.0947" y="-193.5" font-family="Helvetica,sans-Serif" font-size="10.00" fill="#000000">Handler</text>
<polyline fill="none" stroke="#000000" points="6.9458,-187.5 73.2437,-187.5 "/>
<text text-anchor="middle" x="40.0947" y="-175.5" font-family="Helvetica,sans-Serif" font-size="10.00" fill="#000000"> </text>
<polyline fill="none" stroke="#000000" points="6.9458,-169.5 73.2437,-169.5 "/>
<text text-anchor="start" x="14.9458" y="-157.5" font-family="Helvetica,sans-Serif" font-size="10.00" fill="#000000">+ Handler()</text>
<text text-anchor="start" x="14.9458" y="-147.5" font-family="Helvetica,sans-Serif" font-size="10.00" fill="#000000">+ Handler()</text>
<text text-anchor="start" x="14.9458" y="-137.5" font-family="Helvetica,sans-Serif" font-size="10.00" fill="#000000">+ Handler()</text>
<text text-anchor="start" x="14.9458" y="-127.5" font-family="Helvetica,sans-Serif" font-size="10.00" fill="#000000">+ invoke()</text>
</a>
</g>
</g>
<!-- Node1&#45;&gt;Node0 -->
<g id="edge1" class="edge">
<title>Node1&#45;&gt;Node0</title>
<path fill="none" stroke="#191970" d="M40.0947,-110.977C40.0947,-102.1562 40.0947,-93.1052 40.0947,-84.5917"/>
<polygon fill="none" stroke="#191970" points="36.5948,-111.18 40.0947,-121.1801 43.5948,-111.1801 36.5948,-111.18"/>
</g>
<!-- Node2 -->
<g id="node3" class="node">
<title>Node2</title>
<g id="a_node3"><a xlink:href="../../db/d38/interfaceobject.html" target="_top" xlink:title="基础对象，所有对象均继承于此 ">
<polygon fill="#ffffff" stroke="#000000" points="6.9507,-242.5 6.9507,-336.5 73.2388,-336.5 73.2388,-242.5 6.9507,-242.5"/>
<text text-anchor="middle" x="40.0947" y="-324.5" font-family="Helvetica,sans-Serif" font-size="10.00" fill="#000000">object</text>
<polyline fill="none" stroke="#000000" points="6.9507,-318.5 73.2388,-318.5 "/>
<text text-anchor="middle" x="40.0947" y="-306.5" font-family="Helvetica,sans-Serif" font-size="10.00" fill="#000000"> </text>
<polyline fill="none" stroke="#000000" points="6.9507,-300.5 73.2388,-300.5 "/>
<text text-anchor="start" x="14.9507" y="-288.5" font-family="Helvetica,sans-Serif" font-size="10.00" fill="#000000">+ dispose()</text>
<text text-anchor="start" x="14.9507" y="-278.5" font-family="Helvetica,sans-Serif" font-size="10.00" fill="#000000">+ equals()</text>
<text text-anchor="start" x="14.9507" y="-268.5" font-family="Helvetica,sans-Serif" font-size="10.00" fill="#000000">+ toString()</text>
<text text-anchor="start" x="14.9507" y="-258.5" font-family="Helvetica,sans-Serif" font-size="10.00" fill="#000000">+ toJSON()</text>
<text text-anchor="start" x="14.9507" y="-248.5" font-family="Helvetica,sans-Serif" font-size="10.00" fill="#000000">+ valueOf()</text>
</a>
</g>
</g>
<!-- Node2&#45;&gt;Node1 -->
<g id="edge2" class="edge">
<title>Node2&#45;&gt;Node1</title>
<path fill="none" stroke="#191970" d="M40.0947,-231.9387C40.0947,-223.0848 40.0947,-214.0866 40.0947,-205.6505"/>
<polygon fill="none" stroke="#191970" points="36.5948,-232.2237 40.0947,-242.2238 43.5948,-232.2238 36.5948,-232.2237"/>
</g>
</g>
</svg>
