<?xml version="1.0" encoding="UTF-8" standalone="no"?>
<!DOCTYPE svg PUBLIC "-//W3C//DTD SVG 1.1//EN"
 "http://www.w3.org/Graphics/SVG/1.1/DTD/svg11.dtd">
<!-- Generated by graphviz version 2.38.0 (20140413.2041)
 -->
<!-- Title: HttpResponse Pages: 1 -->
<svg width="116pt" height="626pt"
 viewBox="0.00 0.00 115.99 626.00" xmlns="http://www.w3.org/2000/svg" xmlns:xlink="http://www.w3.org/1999/xlink">
<g id="graph0" class="graph" transform="scale(1 1) rotate(0) translate(4 622)">
<title>HttpResponse</title>
<polygon fill="white" stroke="none" points="-4,4 -4,-622 111.992,-622 111.992,4 -4,4"/>
<!-- Node1 -->
<g id="node1" class="node"><title>Node1</title>
<polygon fill="#bfbfbf" stroke="black" points="6.67236,-0.5 6.67236,-84.5 101.32,-84.5 101.32,-0.5 6.67236,-0.5"/>
<text text-anchor="middle" x="53.9961" y="-72.5" font-family="Helvetica,sans-Serif" font-size="10.00">HttpResponse</text>
<polyline fill="none" stroke="black" points="6.67236,-66.5 101.32,-66.5 "/>
<text text-anchor="start" x="14.6724" y="-54.5" font-family="Helvetica,sans-Serif" font-size="10.00">+ status</text>
<text text-anchor="start" x="14.6724" y="-44.5" font-family="Helvetica,sans-Serif" font-size="10.00">+ cookies</text>
<polyline fill="none" stroke="black" points="6.67236,-38.5 101.32,-38.5 "/>
<text text-anchor="start" x="14.6724" y="-26.5" font-family="Helvetica,sans-Serif" font-size="10.00">+ HttpResponse()</text>
<text text-anchor="start" x="14.6724" y="-16.5" font-family="Helvetica,sans-Serif" font-size="10.00">+ addCookie()</text>
<text text-anchor="start" x="14.6724" y="-6.5" font-family="Helvetica,sans-Serif" font-size="10.00">+ redirect()</text>
</g>
<!-- Node2 -->
<g id="node2" class="node"><title>Node2</title>
<g id="a_node2"><a xlink:href="../../da/d38/interfaceHttpMessage.html" target="_top" xlink:title="http basic message objec ">
<polygon fill="white" stroke="black" points="0,-121.5 0,-285.5 107.992,-285.5 107.992,-121.5 0,-121.5"/>
<text text-anchor="middle" x="53.9961" y="-273.5" font-family="Helvetica,sans-Serif" font-size="10.00">HttpMessage</text>
<polyline fill="none" stroke="black" points="0,-267.5 107.992,-267.5 "/>
<text text-anchor="start" x="8" y="-255.5" font-family="Helvetica,sans-Serif" font-size="10.00">+ protocol</text>
<text text-anchor="start" x="8" y="-245.5" font-family="Helvetica,sans-Serif" font-size="10.00">+ headers</text>
<text text-anchor="start" x="8" y="-235.5" font-family="Helvetica,sans-Serif" font-size="10.00">+ keepAlive</text>
<text text-anchor="start" x="8" y="-225.5" font-family="Helvetica,sans-Serif" font-size="10.00">+ maxHeadersCount</text>
<text text-anchor="start" x="8" y="-215.5" font-family="Helvetica,sans-Serif" font-size="10.00">+ maxUploadSize</text>
<polyline fill="none" stroke="black" points="0,-209.5 107.992,-209.5 "/>
<text text-anchor="start" x="8" y="-197.5" font-family="Helvetica,sans-Serif" font-size="10.00">+ hasHeader()</text>
<text text-anchor="start" x="8" y="-187.5" font-family="Helvetica,sans-Serif" font-size="10.00">+ firstHeader()</text>
<text text-anchor="start" x="8" y="-177.5" font-family="Helvetica,sans-Serif" font-size="10.00">+ allHeader()</text>
<text text-anchor="start" x="8" y="-167.5" font-family="Helvetica,sans-Serif" font-size="10.00">+ addHeader()</text>
<text text-anchor="start" x="8" y="-157.5" font-family="Helvetica,sans-Serif" font-size="10.00">+ addHeader()</text>
<text text-anchor="start" x="8" y="-147.5" font-family="Helvetica,sans-Serif" font-size="10.00">+ setHeader()</text>
<text text-anchor="start" x="8" y="-137.5" font-family="Helvetica,sans-Serif" font-size="10.00">+ setHeader()</text>
<text text-anchor="start" x="8" y="-127.5" font-family="Helvetica,sans-Serif" font-size="10.00">+ removeHeader()</text>
</a>
</g>
</g>
<!-- Node2&#45;&gt;Node1 -->
<g id="edge1" class="edge"><title>Node2&#45;&gt;Node1</title>
<path fill="none" stroke="midnightblue" d="M53.9961,-111.068C53.9961,-101.845 53.9961,-92.8415 53.9961,-84.5692"/>
<polygon fill="none" stroke="midnightblue" points="50.4962,-111.137 53.9961,-121.137 57.4962,-111.137 50.4962,-111.137"/>
</g>
<!-- Node3 -->
<g id="node3" class="node"><title>Node3</title>
<g id="a_node3"><a xlink:href="../../d6/db7/interfaceMessage.html" target="_top" xlink:title="Basic message object. ">
<polygon fill="white" stroke="black" points="16.6846,-322.5 16.6846,-496.5 91.3076,-496.5 91.3076,-322.5 16.6846,-322.5"/>
<text text-anchor="middle" x="53.9961" y="-484.5" font-family="Helvetica,sans-Serif" font-size="10.00">Message</text>
<polyline fill="none" stroke="black" points="16.6846,-478.5 91.3076,-478.5 "/>
<text text-anchor="start" x="24.6846" y="-466.5" font-family="Helvetica,sans-Serif" font-size="10.00">+ value</text>
<text text-anchor="start" x="24.6846" y="-456.5" font-family="Helvetica,sans-Serif" font-size="10.00">+ params</text>
<text text-anchor="start" x="24.6846" y="-446.5" font-family="Helvetica,sans-Serif" font-size="10.00">+ result</text>
<text text-anchor="start" x="24.6846" y="-436.5" font-family="Helvetica,sans-Serif" font-size="10.00">+ body</text>
<text text-anchor="start" x="24.6846" y="-426.5" font-family="Helvetica,sans-Serif" font-size="10.00">+ length</text>
<text text-anchor="start" x="24.6846" y="-416.5" font-family="Helvetica,sans-Serif" font-size="10.00">+ stream</text>
<text text-anchor="start" x="24.6846" y="-406.5" font-family="Helvetica,sans-Serif" font-size="10.00">+ response</text>
<polyline fill="none" stroke="black" points="16.6846,-400.5 91.3076,-400.5 "/>
<text text-anchor="start" x="24.6846" y="-388.5" font-family="Helvetica,sans-Serif" font-size="10.00">+ Message()</text>
<text text-anchor="start" x="24.6846" y="-378.5" font-family="Helvetica,sans-Serif" font-size="10.00">+ read()</text>
<text text-anchor="start" x="24.6846" y="-368.5" font-family="Helvetica,sans-Serif" font-size="10.00">+ readAll()</text>
<text text-anchor="start" x="24.6846" y="-358.5" font-family="Helvetica,sans-Serif" font-size="10.00">+ write()</text>
<text text-anchor="start" x="24.6846" y="-348.5" font-family="Helvetica,sans-Serif" font-size="10.00">+ clear()</text>
<text text-anchor="start" x="24.6846" y="-338.5" font-family="Helvetica,sans-Serif" font-size="10.00">+ sendTo()</text>
<text text-anchor="start" x="24.6846" y="-328.5" font-family="Helvetica,sans-Serif" font-size="10.00">+ readFrom()</text>
</a>
</g>
</g>
<!-- Node3&#45;&gt;Node2 -->
<g id="edge2" class="edge"><title>Node3&#45;&gt;Node2</title>
<path fill="none" stroke="midnightblue" d="M53.9961,-312.236C53.9961,-303.304 53.9961,-294.313 53.9961,-285.538"/>
<polygon fill="none" stroke="midnightblue" points="50.4962,-312.281 53.9961,-322.281 57.4962,-312.281 50.4962,-312.281"/>
</g>
<!-- Node4 -->
<g id="node4" class="node"><title>Node4</title>
<g id="a_node4"><a xlink:href="../../db/d38/interfaceobject.html" target="_top" xlink:title="All objects inherit from this. ">
<polygon fill="white" stroke="black" points="20.8521,-533.5 20.8521,-617.5 87.1401,-617.5 87.1401,-533.5 20.8521,-533.5"/>
<text text-anchor="middle" x="53.9961" y="-605.5" font-family="Helvetica,sans-Serif" font-size="10.00">object</text>
<polyline fill="none" stroke="black" points="20.8521,-599.5 87.1401,-599.5 "/>
<text text-anchor="middle" x="53.9961" y="-587.5" font-family="Helvetica,sans-Serif" font-size="10.00"> </text>
<polyline fill="none" stroke="black" points="20.8521,-581.5 87.1401,-581.5 "/>
<text text-anchor="start" x="28.8521" y="-569.5" font-family="Helvetica,sans-Serif" font-size="10.00">+ dispose()</text>
<text text-anchor="start" x="28.8521" y="-559.5" font-family="Helvetica,sans-Serif" font-size="10.00">+ toString()</text>
<text text-anchor="start" x="28.8521" y="-549.5" font-family="Helvetica,sans-Serif" font-size="10.00">+ toJSON()</text>
<text text-anchor="start" x="28.8521" y="-539.5" font-family="Helvetica,sans-Serif" font-size="10.00">+ valueOf()</text>
</a>
</g>
</g>
<!-- Node4&#45;&gt;Node3 -->
<g id="edge3" class="edge"><title>Node4&#45;&gt;Node3</title>
<path fill="none" stroke="midnightblue" d="M53.9961,-523.097C53.9961,-514.653 53.9961,-505.704 53.9961,-496.687"/>
<polygon fill="none" stroke="midnightblue" points="50.4962,-523.116 53.9961,-533.116 57.4962,-523.116 50.4962,-523.116"/>
</g>
</g>
</svg>
