<?xml version="1.0" encoding="UTF-8" standalone="no"?>
<!DOCTYPE svg PUBLIC "-//W3C//DTD SVG 1.1//EN"
 "http://www.w3.org/Graphics/SVG/1.1/DTD/svg11.dtd">
<!-- Generated by graphviz version 2.38.0 (20140413.2041)
 -->
<!-- Title: TcpServer Pages: 1 -->
<svg width="208pt" height="516pt"
 viewBox="0.00 0.00 208.31 516.00" xmlns="http://www.w3.org/2000/svg" xmlns:xlink="http://www.w3.org/1999/xlink">
<g id="graph0" class="graph" transform="scale(1 1) rotate(0) translate(4 512)">
<title>TcpServer</title>
<polygon fill="white" stroke="none" points="-4,4 -4,-512 204.308,-512 204.308,4 -4,4"/>
<!-- Node1 -->
<g id="node1" class="node"><title>Node1</title>
<polygon fill="#bfbfbf" stroke="black" points="69.9375,-272.5 69.9375,-386.5 146.055,-386.5 146.055,-272.5 69.9375,-272.5"/>
<text text-anchor="middle" x="107.996" y="-374.5" font-family="Helvetica,sans-Serif" font-size="10.00">TcpServer</text>
<polyline fill="none" stroke="black" points="69.9375,-368.5 146.055,-368.5 "/>
<text text-anchor="start" x="77.9375" y="-356.5" font-family="Helvetica,sans-Serif" font-size="10.00">+ socket</text>
<text text-anchor="start" x="77.9375" y="-346.5" font-family="Helvetica,sans-Serif" font-size="10.00">+ handler</text>
<text text-anchor="start" x="77.9375" y="-336.5" font-family="Helvetica,sans-Serif" font-size="10.00">+ stats</text>
<polyline fill="none" stroke="black" points="69.9375,-330.5 146.055,-330.5 "/>
<text text-anchor="start" x="77.9375" y="-318.5" font-family="Helvetica,sans-Serif" font-size="10.00">+ TcpServer()</text>
<text text-anchor="start" x="77.9375" y="-308.5" font-family="Helvetica,sans-Serif" font-size="10.00">+ TcpServer()</text>
<text text-anchor="start" x="77.9375" y="-298.5" font-family="Helvetica,sans-Serif" font-size="10.00">+ run()</text>
<text text-anchor="start" x="77.9375" y="-288.5" font-family="Helvetica,sans-Serif" font-size="10.00">+ asyncRun()</text>
<text text-anchor="start" x="77.9375" y="-278.5" font-family="Helvetica,sans-Serif" font-size="10.00">+ stop()</text>
</g>
<!-- Node3 -->
<g id="node3" class="node"><title>Node3</title>
<g id="a_node3"><a xlink:href="../../d4/d79/interfaceHttpServer.html" target="_top" xlink:title="http server object ">
<polygon fill="white" stroke="black" points="0,-131.5 0,-235.5 107.992,-235.5 107.992,-131.5 0,-131.5"/>
<text text-anchor="middle" x="53.9961" y="-223.5" font-family="Helvetica,sans-Serif" font-size="10.00">HttpServer</text>
<polyline fill="none" stroke="black" points="0,-217.5 107.992,-217.5 "/>
<text text-anchor="start" x="8" y="-205.5" font-family="Helvetica,sans-Serif" font-size="10.00">+ crossDomain</text>
<text text-anchor="start" x="8" y="-195.5" font-family="Helvetica,sans-Serif" font-size="10.00">+ forceGZIP</text>
<text text-anchor="start" x="8" y="-185.5" font-family="Helvetica,sans-Serif" font-size="10.00">+ maxHeadersCount</text>
<text text-anchor="start" x="8" y="-175.5" font-family="Helvetica,sans-Serif" font-size="10.00">+ maxUploadSize</text>
<text text-anchor="start" x="8" y="-165.5" font-family="Helvetica,sans-Serif" font-size="10.00">+ httpStats</text>
<polyline fill="none" stroke="black" points="0,-159.5 107.992,-159.5 "/>
<text text-anchor="start" x="8" y="-147.5" font-family="Helvetica,sans-Serif" font-size="10.00">+ HttpServer()</text>
<text text-anchor="start" x="8" y="-137.5" font-family="Helvetica,sans-Serif" font-size="10.00">+ HttpServer()</text>
</a>
</g>
</g>
<!-- Node1&#45;&gt;Node3 -->
<g id="edge2" class="edge"><title>Node1&#45;&gt;Node3</title>
<path fill="none" stroke="midnightblue" d="M83.3982,-262.906C79.9494,-253.709 76.4479,-244.371 73.1212,-235.5"/>
<polygon fill="none" stroke="midnightblue" points="80.1752,-264.279 86.9637,-272.414 86.7295,-261.821 80.1752,-264.279"/>
</g>
<!-- Node5 -->
<g id="node5" class="node"><title>Node5</title>
<g id="a_node5"><a xlink:href="../../d1/d5c/interfaceSslServer.html" target="_top" xlink:title="ssl server object, easily create mutil&#45;thread ssl server ">
<polygon fill="white" stroke="black" points="125.685,-136.5 125.685,-230.5 200.308,-230.5 200.308,-136.5 125.685,-136.5"/>
<text text-anchor="middle" x="162.996" y="-218.5" font-family="Helvetica,sans-Serif" font-size="10.00">SslServer</text>
<polyline fill="none" stroke="black" points="125.685,-212.5 200.308,-212.5 "/>
<text text-anchor="start" x="133.685" y="-200.5" font-family="Helvetica,sans-Serif" font-size="10.00">+ verification</text>
<text text-anchor="start" x="133.685" y="-190.5" font-family="Helvetica,sans-Serif" font-size="10.00">+ ca</text>
<polyline fill="none" stroke="black" points="125.685,-184.5 200.308,-184.5 "/>
<text text-anchor="start" x="133.685" y="-172.5" font-family="Helvetica,sans-Serif" font-size="10.00">+ SslServer()</text>
<text text-anchor="start" x="133.685" y="-162.5" font-family="Helvetica,sans-Serif" font-size="10.00">+ SslServer()</text>
<text text-anchor="start" x="133.685" y="-152.5" font-family="Helvetica,sans-Serif" font-size="10.00">+ SslServer()</text>
<text text-anchor="start" x="133.685" y="-142.5" font-family="Helvetica,sans-Serif" font-size="10.00">+ SslServer()</text>
</a>
</g>
</g>
<!-- Node1&#45;&gt;Node5 -->
<g id="edge4" class="edge"><title>Node1&#45;&gt;Node5</title>
<path fill="none" stroke="midnightblue" d="M133.024,-262.974C137.159,-252.146 141.37,-241.121 145.278,-230.889"/>
<polygon fill="none" stroke="midnightblue" points="129.716,-261.823 129.418,-272.414 136.256,-264.321 129.716,-261.823"/>
</g>
<!-- Node2 -->
<g id="node2" class="node"><title>Node2</title>
<g id="a_node2"><a xlink:href="../../db/d38/interfaceobject.html" target="_top" xlink:title="All objects inherit from this. ">
<polygon fill="white" stroke="black" points="74.8521,-423.5 74.8521,-507.5 141.14,-507.5 141.14,-423.5 74.8521,-423.5"/>
<text text-anchor="middle" x="107.996" y="-495.5" font-family="Helvetica,sans-Serif" font-size="10.00">object</text>
<polyline fill="none" stroke="black" points="74.8521,-489.5 141.14,-489.5 "/>
<text text-anchor="middle" x="107.996" y="-477.5" font-family="Helvetica,sans-Serif" font-size="10.00"> </text>
<polyline fill="none" stroke="black" points="74.8521,-471.5 141.14,-471.5 "/>
<text text-anchor="start" x="82.8521" y="-459.5" font-family="Helvetica,sans-Serif" font-size="10.00">+ dispose()</text>
<text text-anchor="start" x="82.8521" y="-449.5" font-family="Helvetica,sans-Serif" font-size="10.00">+ toString()</text>
<text text-anchor="start" x="82.8521" y="-439.5" font-family="Helvetica,sans-Serif" font-size="10.00">+ toJSON()</text>
<text text-anchor="start" x="82.8521" y="-429.5" font-family="Helvetica,sans-Serif" font-size="10.00">+ valueOf()</text>
</a>
</g>
</g>
<!-- Node2&#45;&gt;Node1 -->
<g id="edge1" class="edge"><title>Node2&#45;&gt;Node1</title>
<path fill="none" stroke="midnightblue" d="M107.996,-412.94C107.996,-404.347 107.996,-395.397 107.996,-386.696"/>
<polygon fill="none" stroke="midnightblue" points="104.496,-413.202 107.996,-423.202 111.496,-413.202 104.496,-413.202"/>
</g>
<!-- Node4 -->
<g id="node4" class="node"><title>Node4</title>
<g id="a_node4"><a xlink:href="../../d7/d42/interfaceHttpsServer.html" target="_top" xlink:title="https server object ">
<polygon fill="white" stroke="black" points="11.9604,-0.5 11.9604,-94.5 96.0317,-94.5 96.0317,-0.5 11.9604,-0.5"/>
<text text-anchor="middle" x="53.9961" y="-82.5" font-family="Helvetica,sans-Serif" font-size="10.00">HttpsServer</text>
<polyline fill="none" stroke="black" points="11.9604,-76.5 96.0317,-76.5 "/>
<text text-anchor="start" x="19.9604" y="-64.5" font-family="Helvetica,sans-Serif" font-size="10.00">+ verification</text>
<text text-anchor="start" x="19.9604" y="-54.5" font-family="Helvetica,sans-Serif" font-size="10.00">+ ca</text>
<polyline fill="none" stroke="black" points="11.9604,-48.5 96.0317,-48.5 "/>
<text text-anchor="start" x="19.9604" y="-36.5" font-family="Helvetica,sans-Serif" font-size="10.00">+ HttpsServer()</text>
<text text-anchor="start" x="19.9604" y="-26.5" font-family="Helvetica,sans-Serif" font-size="10.00">+ HttpsServer()</text>
<text text-anchor="start" x="19.9604" y="-16.5" font-family="Helvetica,sans-Serif" font-size="10.00">+ HttpsServer()</text>
<text text-anchor="start" x="19.9604" y="-6.5" font-family="Helvetica,sans-Serif" font-size="10.00">+ HttpsServer()</text>
</a>
</g>
</g>
<!-- Node3&#45;&gt;Node4 -->
<g id="edge3" class="edge"><title>Node3&#45;&gt;Node4</title>
<path fill="none" stroke="midnightblue" d="M53.9961,-121.377C53.9961,-112.363 53.9961,-103.206 53.9961,-94.5654"/>
<polygon fill="none" stroke="midnightblue" points="50.4962,-121.458 53.9961,-131.458 57.4962,-121.458 50.4962,-121.458"/>
</g>
</g>
</svg>
