<?xml version="1.0" encoding="UTF-8" standalone="no"?>
<!DOCTYPE svg PUBLIC "-//W3C//DTD SVG 1.1//EN"
 "http://www.w3.org/Graphics/SVG/1.1/DTD/svg11.dtd">
<!-- Generated by graphviz version 2.40.1 (20161225.0304)
 -->
<!-- Title: TcpServer Pages: 1 -->
<svg width="208pt" height="516pt"
 viewBox="0.00 0.00 208.31 516.00" xmlns="http://www.w3.org/2000/svg" xmlns:xlink="http://www.w3.org/1999/xlink">
<g id="graph0" class="graph" transform="scale(1 1) rotate(0) translate(4 512)">
<title>TcpServer</title>
<polygon fill="#ffffff" stroke="transparent" points="-4,4 -4,-512 204.3076,-512 204.3076,4 -4,4"/>
<!-- Node0 -->
<g id="node1" class="node">
<title>Node0</title>
<polygon fill="#bfbfbf" stroke="#000000" points="69.9375,-272.5 69.9375,-386.5 146.0547,-386.5 146.0547,-272.5 69.9375,-272.5"/>
<text text-anchor="middle" x="107.9961" y="-374.5" font-family="Helvetica,sans-Serif" font-size="10.00" fill="#000000">TcpServer</text>
<polyline fill="none" stroke="#000000" points="69.9375,-368.5 146.0547,-368.5 "/>
<text text-anchor="start" x="77.9375" y="-356.5" font-family="Helvetica,sans-Serif" font-size="10.00" fill="#000000">+ socket</text>
<text text-anchor="start" x="77.9375" y="-346.5" font-family="Helvetica,sans-Serif" font-size="10.00" fill="#000000">+ handler</text>
<text text-anchor="start" x="77.9375" y="-336.5" font-family="Helvetica,sans-Serif" font-size="10.00" fill="#000000">+ stats</text>
<polyline fill="none" stroke="#000000" points="69.9375,-330.5 146.0547,-330.5 "/>
<text text-anchor="start" x="77.9375" y="-318.5" font-family="Helvetica,sans-Serif" font-size="10.00" fill="#000000">+ TcpServer()</text>
<text text-anchor="start" x="77.9375" y="-308.5" font-family="Helvetica,sans-Serif" font-size="10.00" fill="#000000">+ TcpServer()</text>
<text text-anchor="start" x="77.9375" y="-298.5" font-family="Helvetica,sans-Serif" font-size="10.00" fill="#000000">+ run()</text>
<text text-anchor="start" x="77.9375" y="-288.5" font-family="Helvetica,sans-Serif" font-size="10.00" fill="#000000">+ asyncRun()</text>
<text text-anchor="start" x="77.9375" y="-278.5" font-family="Helvetica,sans-Serif" font-size="10.00" fill="#000000">+ stop()</text>
</g>
<!-- Node2 -->
<g id="node3" class="node">
<title>Node2</title>
<g id="a_node3"><a xlink:href="../../d4/d79/interfaceHttpServer.html" target="_top" xlink:title="http server object ">
<polygon fill="#ffffff" stroke="#000000" points="0,-131.5 0,-235.5 107.9922,-235.5 107.9922,-131.5 0,-131.5"/>
<text text-anchor="middle" x="53.9961" y="-223.5" font-family="Helvetica,sans-Serif" font-size="10.00" fill="#000000">HttpServer</text>
<polyline fill="none" stroke="#000000" points="0,-217.5 107.9922,-217.5 "/>
<text text-anchor="start" x="8" y="-205.5" font-family="Helvetica,sans-Serif" font-size="10.00" fill="#000000">+ crossDomain</text>
<text text-anchor="start" x="8" y="-195.5" font-family="Helvetica,sans-Serif" font-size="10.00" fill="#000000">+ forceGZIP</text>
<text text-anchor="start" x="8" y="-185.5" font-family="Helvetica,sans-Serif" font-size="10.00" fill="#000000">+ maxHeadersCount</text>
<text text-anchor="start" x="8" y="-175.5" font-family="Helvetica,sans-Serif" font-size="10.00" fill="#000000">+ maxUploadSize</text>
<text text-anchor="start" x="8" y="-165.5" font-family="Helvetica,sans-Serif" font-size="10.00" fill="#000000">+ httpStats</text>
<polyline fill="none" stroke="#000000" points="0,-159.5 107.9922,-159.5 "/>
<text text-anchor="start" x="8" y="-147.5" font-family="Helvetica,sans-Serif" font-size="10.00" fill="#000000">+ HttpServer()</text>
<text text-anchor="start" x="8" y="-137.5" font-family="Helvetica,sans-Serif" font-size="10.00" fill="#000000">+ HttpServer()</text>
</a>
</g>
</g>
<!-- Node0&#45;&gt;Node2 -->
<g id="edge2" class="edge">
<title>Node0&#45;&gt;Node2</title>
<path fill="none" stroke="#191970" d="M83.2401,-262.5671C79.926,-253.6068 76.5665,-244.5238 73.3632,-235.863"/>
<polygon fill="none" stroke="#191970" points="80.0572,-264.0511 86.8089,-272.216 86.6225,-261.6228 80.0572,-264.0511"/>
</g>
<!-- Node4 -->
<g id="node5" class="node">
<title>Node4</title>
<g id="a_node5"><a xlink:href="../../d1/d5c/interfaceSslServer.html" target="_top" xlink:title="ssl server object, easily create mutil&#45;thread ssl server ">
<polygon fill="#ffffff" stroke="#000000" points="125.6846,-136.5 125.6846,-230.5 200.3076,-230.5 200.3076,-136.5 125.6846,-136.5"/>
<text text-anchor="middle" x="162.9961" y="-218.5" font-family="Helvetica,sans-Serif" font-size="10.00" fill="#000000">SslServer</text>
<polyline fill="none" stroke="#000000" points="125.6846,-212.5 200.3076,-212.5 "/>
<text text-anchor="start" x="133.6846" y="-200.5" font-family="Helvetica,sans-Serif" font-size="10.00" fill="#000000">+ verification</text>
<text text-anchor="start" x="133.6846" y="-190.5" font-family="Helvetica,sans-Serif" font-size="10.00" fill="#000000">+ ca</text>
<polyline fill="none" stroke="#000000" points="125.6846,-184.5 200.3076,-184.5 "/>
<text text-anchor="start" x="133.6846" y="-172.5" font-family="Helvetica,sans-Serif" font-size="10.00" fill="#000000">+ SslServer()</text>
<text text-anchor="start" x="133.6846" y="-162.5" font-family="Helvetica,sans-Serif" font-size="10.00" fill="#000000">+ SslServer()</text>
<text text-anchor="start" x="133.6846" y="-152.5" font-family="Helvetica,sans-Serif" font-size="10.00" fill="#000000">+ SslServer()</text>
<text text-anchor="start" x="133.6846" y="-142.5" font-family="Helvetica,sans-Serif" font-size="10.00" fill="#000000">+ SslServer()</text>
</a>
</g>
</g>
<!-- Node0&#45;&gt;Node4 -->
<g id="edge4" class="edge">
<title>Node0&#45;&gt;Node4</title>
<path fill="none" stroke="#191970" d="M133.1301,-262.7806C137.2056,-251.962 141.3509,-240.9581 145.2044,-230.7287"/>
<polygon fill="none" stroke="#191970" points="129.8257,-261.6241 129.5757,-272.216 136.3763,-264.0918 129.8257,-261.6241"/>
</g>
<!-- Node1 -->
<g id="node2" class="node">
<title>Node1</title>
<g id="a_node2"><a xlink:href="../../db/d38/interfaceobject.html" target="_top" xlink:title="All objects inherit from this. ">
<polygon fill="#ffffff" stroke="#000000" points="74.8521,-423.5 74.8521,-507.5 141.1401,-507.5 141.1401,-423.5 74.8521,-423.5"/>
<text text-anchor="middle" x="107.9961" y="-495.5" font-family="Helvetica,sans-Serif" font-size="10.00" fill="#000000">object</text>
<polyline fill="none" stroke="#000000" points="74.8521,-489.5 141.1401,-489.5 "/>
<text text-anchor="middle" x="107.9961" y="-477.5" font-family="Helvetica,sans-Serif" font-size="10.00" fill="#000000"> </text>
<polyline fill="none" stroke="#000000" points="74.8521,-471.5 141.1401,-471.5 "/>
<text text-anchor="start" x="82.8521" y="-459.5" font-family="Helvetica,sans-Serif" font-size="10.00" fill="#000000">+ dispose()</text>
<text text-anchor="start" x="82.8521" y="-449.5" font-family="Helvetica,sans-Serif" font-size="10.00" fill="#000000">+ toString()</text>
<text text-anchor="start" x="82.8521" y="-439.5" font-family="Helvetica,sans-Serif" font-size="10.00" fill="#000000">+ toJSON()</text>
<text text-anchor="start" x="82.8521" y="-429.5" font-family="Helvetica,sans-Serif" font-size="10.00" fill="#000000">+ valueOf()</text>
</a>
</g>
</g>
<!-- Node1&#45;&gt;Node0 -->
<g id="edge1" class="edge">
<title>Node1&#45;&gt;Node0</title>
<path fill="none" stroke="#191970" d="M107.9961,-412.9557C107.9961,-404.3721 107.9961,-395.4415 107.9961,-386.7513"/>
<polygon fill="none" stroke="#191970" points="104.4962,-413.2142 107.9961,-423.2142 111.4962,-413.2143 104.4962,-413.2142"/>
</g>
<!-- Node3 -->
<g id="node4" class="node">
<title>Node3</title>
<g id="a_node4"><a xlink:href="../../d7/d42/interfaceHttpsServer.html" target="_top" xlink:title="https server object ">
<polygon fill="#ffffff" stroke="#000000" points="11.9604,-.5 11.9604,-94.5 96.0317,-94.5 96.0317,-.5 11.9604,-.5"/>
<text text-anchor="middle" x="53.9961" y="-82.5" font-family="Helvetica,sans-Serif" font-size="10.00" fill="#000000">HttpsServer</text>
<polyline fill="none" stroke="#000000" points="11.9604,-76.5 96.0317,-76.5 "/>
<text text-anchor="start" x="19.9604" y="-64.5" font-family="Helvetica,sans-Serif" font-size="10.00" fill="#000000">+ verification</text>
<text text-anchor="start" x="19.9604" y="-54.5" font-family="Helvetica,sans-Serif" font-size="10.00" fill="#000000">+ ca</text>
<polyline fill="none" stroke="#000000" points="11.9604,-48.5 96.0317,-48.5 "/>
<text text-anchor="start" x="19.9604" y="-36.5" font-family="Helvetica,sans-Serif" font-size="10.00" fill="#000000">+ HttpsServer()</text>
<text text-anchor="start" x="19.9604" y="-26.5" font-family="Helvetica,sans-Serif" font-size="10.00" fill="#000000">+ HttpsServer()</text>
<text text-anchor="start" x="19.9604" y="-16.5" font-family="Helvetica,sans-Serif" font-size="10.00" fill="#000000">+ HttpsServer()</text>
<text text-anchor="start" x="19.9604" y="-6.5" font-family="Helvetica,sans-Serif" font-size="10.00" fill="#000000">+ HttpsServer()</text>
</a>
</g>
</g>
<!-- Node2&#45;&gt;Node3 -->
<g id="edge3" class="edge">
<title>Node2&#45;&gt;Node3</title>
<path fill="none" stroke="#191970" d="M53.9961,-121.0664C53.9961,-112.2628 53.9961,-103.3339 53.9961,-94.8753"/>
<polygon fill="none" stroke="#191970" points="50.4962,-121.3078 53.9961,-131.3078 57.4962,-121.3078 50.4962,-121.3078"/>
</g>
</g>
</svg>
