<?xml version="1.0" encoding="UTF-8" standalone="no"?>
<!DOCTYPE svg PUBLIC "-//W3C//DTD SVG 1.1//EN"
 "http://www.w3.org/Graphics/SVG/1.1/DTD/svg11.dtd">
<!-- Generated by graphviz version 2.40.1 (20161225.0304)
 -->
<!-- Title: XmlCharacterData Pages: 1 -->
<svg width="186pt" height="687pt"
 viewBox="0.00 0.00 185.78 687.00" xmlns="http://www.w3.org/2000/svg" xmlns:xlink="http://www.w3.org/1999/xlink">
<g id="graph0" class="graph" transform="scale(1 1) rotate(0) translate(4 683)">
<title>XmlCharacterData</title>
<polygon fill="#ffffff" stroke="transparent" points="-4,4 -4,-683 181.7798,-683 181.7798,4 -4,4"/>
<!-- Node0 -->
<g id="node1" class="node">
<title>Node0</title>
<polygon fill="#bfbfbf" stroke="#000000" points="34.1577,-182.5 34.1577,-286.5 132.4087,-286.5 132.4087,-182.5 34.1577,-182.5"/>
<text text-anchor="middle" x="83.2832" y="-274.5" font-family="Helvetica,sans-Serif" font-size="10.00" fill="#000000">XmlCharacterData</text>
<polyline fill="none" stroke="#000000" points="34.1577,-268.5 132.4087,-268.5 "/>
<text text-anchor="start" x="42.1577" y="-256.5" font-family="Helvetica,sans-Serif" font-size="10.00" fill="#000000">+ data</text>
<text text-anchor="start" x="42.1577" y="-246.5" font-family="Helvetica,sans-Serif" font-size="10.00" fill="#000000">+ length</text>
<polyline fill="none" stroke="#000000" points="34.1577,-240.5 132.4087,-240.5 "/>
<text text-anchor="start" x="42.1577" y="-228.5" font-family="Helvetica,sans-Serif" font-size="10.00" fill="#000000">+ substringData()</text>
<text text-anchor="start" x="42.1577" y="-218.5" font-family="Helvetica,sans-Serif" font-size="10.00" fill="#000000">+ appendData()</text>
<text text-anchor="start" x="42.1577" y="-208.5" font-family="Helvetica,sans-Serif" font-size="10.00" fill="#000000">+ insertData()</text>
<text text-anchor="start" x="42.1577" y="-198.5" font-family="Helvetica,sans-Serif" font-size="10.00" fill="#000000">+ deleteData()</text>
<text text-anchor="start" x="42.1577" y="-188.5" font-family="Helvetica,sans-Serif" font-size="10.00" fill="#000000">+ replaceData()</text>
</g>
<!-- Node3 -->
<g id="node4" class="node">
<title>Node3</title>
<g id="a_node4"><a xlink:href="$dd/dc1/interfaceXmlComment.html" xlink:title="XmlComment represents comment of node. ">
<polygon fill="#ffffff" stroke="#000000" points="0,-91.5 0,-145.5 76.5664,-145.5 76.5664,-91.5 0,-91.5"/>
<text text-anchor="middle" x="38.2832" y="-133.5" font-family="Helvetica,sans-Serif" font-size="10.00" fill="#000000">XmlComment</text>
<polyline fill="none" stroke="#000000" points="0,-127.5 76.5664,-127.5 "/>
<text text-anchor="middle" x="38.2832" y="-115.5" font-family="Helvetica,sans-Serif" font-size="10.00" fill="#000000"> </text>
<polyline fill="none" stroke="#000000" points="0,-109.5 76.5664,-109.5 "/>
<text text-anchor="middle" x="38.2832" y="-97.5" font-family="Helvetica,sans-Serif" font-size="10.00" fill="#000000"> </text>
</a>
</g>
</g>
<!-- Node0&#45;&gt;Node3 -->
<g id="edge3" class="edge">
<title>Node0&#45;&gt;Node3</title>
<path fill="none" stroke="#191970" d="M59.3348,-172.7663C55.6511,-163.2706 52.0194,-153.9088 48.8368,-145.7049"/>
<polygon fill="none" stroke="#191970" points="56.1413,-174.2117 63.0211,-182.2689 62.6674,-171.6799 56.1413,-174.2117"/>
</g>
<!-- Node4 -->
<g id="node5" class="node">
<title>Node4</title>
<g id="a_node5"><a xlink:href="$d3/d51/interfaceXmlText.html" xlink:title="XmlText object represents element or attribute text content. ">
<polygon fill="#ffffff" stroke="#000000" points="94.5825,-91.5 94.5825,-145.5 161.9839,-145.5 161.9839,-91.5 94.5825,-91.5"/>
<text text-anchor="middle" x="128.2832" y="-133.5" font-family="Helvetica,sans-Serif" font-size="10.00" fill="#000000">XmlText</text>
<polyline fill="none" stroke="#000000" points="94.5825,-127.5 161.9839,-127.5 "/>
<text text-anchor="middle" x="128.2832" y="-115.5" font-family="Helvetica,sans-Serif" font-size="10.00" fill="#000000"> </text>
<polyline fill="none" stroke="#000000" points="94.5825,-109.5 161.9839,-109.5 "/>
<text text-anchor="start" x="102.5825" y="-97.5" font-family="Helvetica,sans-Serif" font-size="10.00" fill="#000000">+ splitText()</text>
</a>
</g>
</g>
<!-- Node0&#45;&gt;Node4 -->
<g id="edge4" class="edge">
<title>Node0&#45;&gt;Node4</title>
<path fill="none" stroke="#191970" d="M107.2316,-172.7663C110.9153,-163.2706 114.547,-153.9088 117.7296,-145.7049"/>
<polygon fill="none" stroke="#191970" points="103.899,-171.6799 103.5453,-182.2689 110.4251,-174.2117 103.899,-171.6799"/>
</g>
<!-- Node1 -->
<g id="node2" class="node">
<title>Node1</title>
<g id="a_node2"><a xlink:href="$dc/d8f/interfaceXmlNode.html" xlink:title="XmlNode object is fundamental data type of entire DOM. ">
<polygon fill="#ffffff" stroke="#000000" points="17.6196,-323.5 17.6196,-557.5 148.9468,-557.5 148.9468,-323.5 17.6196,-323.5"/>
<text text-anchor="middle" x="83.2832" y="-545.5" font-family="Helvetica,sans-Serif" font-size="10.00" fill="#000000">XmlNode</text>
<polyline fill="none" stroke="#000000" points="17.6196,-539.5 148.9468,-539.5 "/>
<text text-anchor="start" x="25.6196" y="-527.5" font-family="Helvetica,sans-Serif" font-size="10.00" fill="#000000">+ nodeType</text>
<text text-anchor="start" x="25.6196" y="-517.5" font-family="Helvetica,sans-Serif" font-size="10.00" fill="#000000">+ nodeName</text>
<text text-anchor="start" x="25.6196" y="-507.5" font-family="Helvetica,sans-Serif" font-size="10.00" fill="#000000">+ nodeValue</text>
<text text-anchor="start" x="25.6196" y="-497.5" font-family="Helvetica,sans-Serif" font-size="10.00" fill="#000000">+ ownerDocument</text>
<text text-anchor="start" x="25.6196" y="-487.5" font-family="Helvetica,sans-Serif" font-size="10.00" fill="#000000">+ parentNode</text>
<text text-anchor="start" x="25.6196" y="-477.5" font-family="Helvetica,sans-Serif" font-size="10.00" fill="#000000">+ childNodes</text>
<text text-anchor="start" x="25.6196" y="-467.5" font-family="Helvetica,sans-Serif" font-size="10.00" fill="#000000">+ firstChild</text>
<text text-anchor="start" x="25.6196" y="-457.5" font-family="Helvetica,sans-Serif" font-size="10.00" fill="#000000">+ lastChild</text>
<text text-anchor="start" x="25.6196" y="-447.5" font-family="Helvetica,sans-Serif" font-size="10.00" fill="#000000">+ previousSibling</text>
<text text-anchor="start" x="25.6196" y="-437.5" font-family="Helvetica,sans-Serif" font-size="10.00" fill="#000000">+ nextSibling</text>
<polyline fill="none" stroke="#000000" points="17.6196,-431.5 148.9468,-431.5 "/>
<text text-anchor="start" x="25.6196" y="-419.5" font-family="Helvetica,sans-Serif" font-size="10.00" fill="#000000">+ hasChildNodes()</text>
<text text-anchor="start" x="25.6196" y="-409.5" font-family="Helvetica,sans-Serif" font-size="10.00" fill="#000000">+ normalize()</text>
<text text-anchor="start" x="25.6196" y="-399.5" font-family="Helvetica,sans-Serif" font-size="10.00" fill="#000000">+ cloneNode()</text>
<text text-anchor="start" x="25.6196" y="-389.5" font-family="Helvetica,sans-Serif" font-size="10.00" fill="#000000">+ lookupPrefix()</text>
<text text-anchor="start" x="25.6196" y="-379.5" font-family="Helvetica,sans-Serif" font-size="10.00" fill="#000000">+ lookupNamespaceURI()</text>
<text text-anchor="start" x="25.6196" y="-369.5" font-family="Helvetica,sans-Serif" font-size="10.00" fill="#000000">+ insertBefore()</text>
<text text-anchor="start" x="25.6196" y="-359.5" font-family="Helvetica,sans-Serif" font-size="10.00" fill="#000000">+ insertAfter()</text>
<text text-anchor="start" x="25.6196" y="-349.5" font-family="Helvetica,sans-Serif" font-size="10.00" fill="#000000">+ appendChild()</text>
<text text-anchor="start" x="25.6196" y="-339.5" font-family="Helvetica,sans-Serif" font-size="10.00" fill="#000000">+ replaceChild()</text>
<text text-anchor="start" x="25.6196" y="-329.5" font-family="Helvetica,sans-Serif" font-size="10.00" fill="#000000">+ removeChild()</text>
</a>
</g>
</g>
<!-- Node1&#45;&gt;Node0 -->
<g id="edge1" class="edge">
<title>Node1&#45;&gt;Node0</title>
<path fill="none" stroke="#191970" d="M83.2832,-313.3281C83.2832,-304.1697 83.2832,-295.2815 83.2832,-286.9759"/>
<polygon fill="none" stroke="#191970" points="79.7833,-313.3572 83.2832,-323.3572 86.7833,-313.3573 79.7833,-313.3572"/>
</g>
<!-- Node2 -->
<g id="node3" class="node">
<title>Node2</title>
<g id="a_node3"><a xlink:href="$db/d38/interfaceobject.html" xlink:title="All objects inherit from this. ">
<polygon fill="#ffffff" stroke="#000000" points="50.1392,-594.5 50.1392,-678.5 116.4272,-678.5 116.4272,-594.5 50.1392,-594.5"/>
<text text-anchor="middle" x="83.2832" y="-666.5" font-family="Helvetica,sans-Serif" font-size="10.00" fill="#000000">object</text>
<polyline fill="none" stroke="#000000" points="50.1392,-660.5 116.4272,-660.5 "/>
<text text-anchor="middle" x="83.2832" y="-648.5" font-family="Helvetica,sans-Serif" font-size="10.00" fill="#000000"> </text>
<polyline fill="none" stroke="#000000" points="50.1392,-642.5 116.4272,-642.5 "/>
<text text-anchor="start" x="58.1392" y="-630.5" font-family="Helvetica,sans-Serif" font-size="10.00" fill="#000000">+ dispose()</text>
<text text-anchor="start" x="58.1392" y="-620.5" font-family="Helvetica,sans-Serif" font-size="10.00" fill="#000000">+ toString()</text>
<text text-anchor="start" x="58.1392" y="-610.5" font-family="Helvetica,sans-Serif" font-size="10.00" fill="#000000">+ toJSON()</text>
<text text-anchor="start" x="58.1392" y="-600.5" font-family="Helvetica,sans-Serif" font-size="10.00" fill="#000000">+ valueOf()</text>
</a>
</g>
</g>
<!-- Node2&#45;&gt;Node1 -->
<g id="edge2" class="edge">
<title>Node2&#45;&gt;Node1</title>
<path fill="none" stroke="#191970" d="M83.2832,-584.1775C83.2832,-575.8031 83.2832,-566.8553 83.2832,-557.6739"/>
<polygon fill="none" stroke="#191970" points="79.7833,-584.453 83.2832,-594.4531 86.7833,-584.4531 79.7833,-584.453"/>
</g>
<!-- Node5 -->
<g id="node6" class="node">
<title>Node5</title>
<g id="a_node6"><a xlink:href="$d4/dd8/interfaceXmlCDATASection.html" xlink:title="CDATA section for XmlCDATASection. ">
<polygon fill="#ffffff" stroke="#000000" points="78.7866,-.5 78.7866,-54.5 177.7798,-54.5 177.7798,-.5 78.7866,-.5"/>
<text text-anchor="middle" x="128.2832" y="-42.5" font-family="Helvetica,sans-Serif" font-size="10.00" fill="#000000">XmlCDATASection</text>
<polyline fill="none" stroke="#000000" points="78.7866,-36.5 177.7798,-36.5 "/>
<text text-anchor="middle" x="128.2832" y="-24.5" font-family="Helvetica,sans-Serif" font-size="10.00" fill="#000000"> </text>
<polyline fill="none" stroke="#000000" points="78.7866,-18.5 177.7798,-18.5 "/>
<text text-anchor="middle" x="128.2832" y="-6.5" font-family="Helvetica,sans-Serif" font-size="10.00" fill="#000000"> </text>
</a>
</g>
</g>
<!-- Node4&#45;&gt;Node5 -->
<g id="edge5" class="edge">
<title>Node4&#45;&gt;Node5</title>
<path fill="none" stroke="#191970" d="M128.2832,-81.12C128.2832,-72.3006 128.2832,-63.0605 128.2832,-54.7837"/>
<polygon fill="none" stroke="#191970" points="124.7833,-81.197 128.2832,-91.197 131.7833,-81.197 124.7833,-81.197"/>
</g>
</g>
</svg>
