<?xml version="1.0" encoding="UTF-8" standalone="no"?>
<!DOCTYPE svg PUBLIC "-//W3C//DTD SVG 1.1//EN"
 "http://www.w3.org/Graphics/SVG/1.1/DTD/svg11.dtd">
<!-- Generated by graphviz version 2.40.1 (20161225.0304)
 -->
<!-- Title: Stream Pages: 1 -->
<svg width="421pt" height="596pt"
 viewBox="0.00 0.00 421.44 596.00" xmlns="http://www.w3.org/2000/svg" xmlns:xlink="http://www.w3.org/1999/xlink">
<g id="graph0" class="graph" transform="scale(1 1) rotate(0) translate(4 592)">
<title>Stream</title>
<polygon fill="#ffffff" stroke="transparent" points="-4,4 -4,-592 417.439,-592 417.439,4 -4,4"/>
<!-- Node0 -->
<g id="node1" class="node">
<title>Node0</title>
<polygon fill="#bfbfbf" stroke="#000000" points="187.0869,-372.5 187.0869,-456.5 250.0498,-456.5 250.0498,-372.5 187.0869,-372.5"/>
<text text-anchor="middle" x="218.5684" y="-444.5" font-family="Helvetica,sans-Serif" font-size="10.00" fill="#000000">Stream</text>
<polyline fill="none" stroke="#000000" points="187.0869,-438.5 250.0498,-438.5 "/>
<text text-anchor="middle" x="218.5684" y="-426.5" font-family="Helvetica,sans-Serif" font-size="10.00" fill="#000000"> </text>
<polyline fill="none" stroke="#000000" points="187.0869,-420.5 250.0498,-420.5 "/>
<text text-anchor="start" x="195.0869" y="-408.5" font-family="Helvetica,sans-Serif" font-size="10.00" fill="#000000">+ read()</text>
<text text-anchor="start" x="195.0869" y="-398.5" font-family="Helvetica,sans-Serif" font-size="10.00" fill="#000000">+ write()</text>
<text text-anchor="start" x="195.0869" y="-388.5" font-family="Helvetica,sans-Serif" font-size="10.00" fill="#000000">+ close()</text>
<text text-anchor="start" x="195.0869" y="-378.5" font-family="Helvetica,sans-Serif" font-size="10.00" fill="#000000">+ copyTo()</text>
</g>
<!-- Node2 -->
<g id="node3" class="node">
<title>Node2</title>
<g id="a_node3"><a xlink:href="../../d0/d37/interfaceBufferedStream.html" target="_top" xlink:title="缓存读取对象 ">
<polygon fill="#ffffff" stroke="#000000" points="0,-166.5 0,-300.5 101.1367,-300.5 101.1367,-166.5 0,-166.5"/>
<text text-anchor="middle" x="50.5684" y="-288.5" font-family="Helvetica,sans-Serif" font-size="10.00" fill="#000000">BufferedStream</text>
<polyline fill="none" stroke="#000000" points="0,-282.5 101.1367,-282.5 "/>
<text text-anchor="start" x="8" y="-270.5" font-family="Helvetica,sans-Serif" font-size="10.00" fill="#000000">+ stream</text>
<text text-anchor="start" x="8" y="-260.5" font-family="Helvetica,sans-Serif" font-size="10.00" fill="#000000">+ charset</text>
<text text-anchor="start" x="8" y="-250.5" font-family="Helvetica,sans-Serif" font-size="10.00" fill="#000000">+ EOL</text>
<polyline fill="none" stroke="#000000" points="0,-244.5 101.1367,-244.5 "/>
<text text-anchor="start" x="8" y="-232.5" font-family="Helvetica,sans-Serif" font-size="10.00" fill="#000000">+ BufferedStream()</text>
<text text-anchor="start" x="8" y="-222.5" font-family="Helvetica,sans-Serif" font-size="10.00" fill="#000000">+ readText()</text>
<text text-anchor="start" x="8" y="-212.5" font-family="Helvetica,sans-Serif" font-size="10.00" fill="#000000">+ readLine()</text>
<text text-anchor="start" x="8" y="-202.5" font-family="Helvetica,sans-Serif" font-size="10.00" fill="#000000">+ readLines()</text>
<text text-anchor="start" x="8" y="-192.5" font-family="Helvetica,sans-Serif" font-size="10.00" fill="#000000">+ readUntil()</text>
<text text-anchor="start" x="8" y="-182.5" font-family="Helvetica,sans-Serif" font-size="10.00" fill="#000000">+ writeText()</text>
<text text-anchor="start" x="8" y="-172.5" font-family="Helvetica,sans-Serif" font-size="10.00" fill="#000000">+ writeLine()</text>
</a>
</g>
</g>
<!-- Node0&#45;&gt;Node2 -->
<g id="edge2" class="edge">
<title>Node0&#45;&gt;Node2</title>
<path fill="none" stroke="#191970" d="M178.3056,-390.9713C156.5103,-376.9055 130.1248,-357.5936 110.5684,-336 100.9485,-325.378 92.1296,-312.9688 84.3859,-300.5256"/>
<polygon fill="none" stroke="#191970" points="176.6995,-394.0966 187.0231,-396.4787 180.4383,-388.1786 176.6995,-394.0966"/>
</g>
<!-- Node4 -->
<g id="node5" class="node">
<title>Node4</title>
<g id="a_node5"><a xlink:href="../../d6/d9c/interfaceSeekableStream.html" target="_top" xlink:title="可移动当前指针的流对象接口 ">
<polygon fill="#ffffff" stroke="#000000" points="119.603,-166.5 119.603,-300.5 209.5337,-300.5 209.5337,-166.5 119.603,-166.5"/>
<text text-anchor="middle" x="164.5684" y="-288.5" font-family="Helvetica,sans-Serif" font-size="10.00" fill="#000000">SeekableStream</text>
<polyline fill="none" stroke="#000000" points="119.603,-282.5 209.5337,-282.5 "/>
<text text-anchor="middle" x="164.5684" y="-270.5" font-family="Helvetica,sans-Serif" font-size="10.00" fill="#000000"> </text>
<polyline fill="none" stroke="#000000" points="119.603,-264.5 209.5337,-264.5 "/>
<text text-anchor="start" x="127.603" y="-252.5" font-family="Helvetica,sans-Serif" font-size="10.00" fill="#000000">+ seek()</text>
<text text-anchor="start" x="127.603" y="-242.5" font-family="Helvetica,sans-Serif" font-size="10.00" fill="#000000">+ tell()</text>
<text text-anchor="start" x="127.603" y="-232.5" font-family="Helvetica,sans-Serif" font-size="10.00" fill="#000000">+ rewind()</text>
<text text-anchor="start" x="127.603" y="-222.5" font-family="Helvetica,sans-Serif" font-size="10.00" fill="#000000">+ size()</text>
<text text-anchor="start" x="127.603" y="-212.5" font-family="Helvetica,sans-Serif" font-size="10.00" fill="#000000">+ readAll()</text>
<text text-anchor="start" x="127.603" y="-202.5" font-family="Helvetica,sans-Serif" font-size="10.00" fill="#000000">+ truncate()</text>
<text text-anchor="start" x="127.603" y="-192.5" font-family="Helvetica,sans-Serif" font-size="10.00" fill="#000000">+ eof()</text>
<text text-anchor="start" x="127.603" y="-182.5" font-family="Helvetica,sans-Serif" font-size="10.00" fill="#000000">+ flush()</text>
<text text-anchor="start" x="127.603" y="-172.5" font-family="Helvetica,sans-Serif" font-size="10.00" fill="#000000">+ stat()</text>
</a>
</g>
</g>
<!-- Node0&#45;&gt;Node4 -->
<g id="edge4" class="edge">
<title>Node0&#45;&gt;Node4</title>
<path fill="none" stroke="#191970" d="M202.999,-362.3137C197.2765,-343.1329 190.7139,-321.1361 184.6505,-300.8123"/>
<polygon fill="none" stroke="#191970" points="199.6949,-363.4816 205.9078,-372.0635 206.4027,-361.4803 199.6949,-363.4816"/>
</g>
<!-- Node7 -->
<g id="node8" class="node">
<title>Node7</title>
<g id="a_node8"><a xlink:href="../../dd/d94/interfaceSocket.html" target="_top" xlink:title="网络套接口对象 ">
<polygon fill="#ffffff" stroke="#000000" points="227.3555,-131.5 227.3555,-335.5 319.7813,-335.5 319.7813,-131.5 227.3555,-131.5"/>
<text text-anchor="middle" x="273.5684" y="-323.5" font-family="Helvetica,sans-Serif" font-size="10.00" fill="#000000">Socket</text>
<polyline fill="none" stroke="#000000" points="227.3555,-317.5 319.7813,-317.5 "/>
<text text-anchor="start" x="235.3555" y="-305.5" font-family="Helvetica,sans-Serif" font-size="10.00" fill="#000000">+ family</text>
<text text-anchor="start" x="235.3555" y="-295.5" font-family="Helvetica,sans-Serif" font-size="10.00" fill="#000000">+ type</text>
<text text-anchor="start" x="235.3555" y="-285.5" font-family="Helvetica,sans-Serif" font-size="10.00" fill="#000000">+ remoteAddress</text>
<text text-anchor="start" x="235.3555" y="-275.5" font-family="Helvetica,sans-Serif" font-size="10.00" fill="#000000">+ remotePort</text>
<text text-anchor="start" x="235.3555" y="-265.5" font-family="Helvetica,sans-Serif" font-size="10.00" fill="#000000">+ localAddress</text>
<text text-anchor="start" x="235.3555" y="-255.5" font-family="Helvetica,sans-Serif" font-size="10.00" fill="#000000">+ localPort</text>
<text text-anchor="start" x="235.3555" y="-245.5" font-family="Helvetica,sans-Serif" font-size="10.00" fill="#000000">+ timeout</text>
<polyline fill="none" stroke="#000000" points="227.3555,-239.5 319.7813,-239.5 "/>
<text text-anchor="start" x="235.3555" y="-227.5" font-family="Helvetica,sans-Serif" font-size="10.00" fill="#000000">+ Socket()</text>
<text text-anchor="start" x="235.3555" y="-217.5" font-family="Helvetica,sans-Serif" font-size="10.00" fill="#000000">+ connect()</text>
<text text-anchor="start" x="235.3555" y="-207.5" font-family="Helvetica,sans-Serif" font-size="10.00" fill="#000000">+ bind()</text>
<text text-anchor="start" x="235.3555" y="-197.5" font-family="Helvetica,sans-Serif" font-size="10.00" fill="#000000">+ bind()</text>
<text text-anchor="start" x="235.3555" y="-187.5" font-family="Helvetica,sans-Serif" font-size="10.00" fill="#000000">+ listen()</text>
<text text-anchor="start" x="235.3555" y="-177.5" font-family="Helvetica,sans-Serif" font-size="10.00" fill="#000000">+ accept()</text>
<text text-anchor="start" x="235.3555" y="-167.5" font-family="Helvetica,sans-Serif" font-size="10.00" fill="#000000">+ recv()</text>
<text text-anchor="start" x="235.3555" y="-157.5" font-family="Helvetica,sans-Serif" font-size="10.00" fill="#000000">+ recvfrom()</text>
<text text-anchor="start" x="235.3555" y="-147.5" font-family="Helvetica,sans-Serif" font-size="10.00" fill="#000000">+ send()</text>
<text text-anchor="start" x="235.3555" y="-137.5" font-family="Helvetica,sans-Serif" font-size="10.00" fill="#000000">+ sendto()</text>
</a>
</g>
</g>
<!-- Node0&#45;&gt;Node7 -->
<g id="edge7" class="edge">
<title>Node0&#45;&gt;Node7</title>
<path fill="none" stroke="#191970" d="M234.3937,-362.4203C236.961,-353.9714 239.6951,-344.9739 242.4791,-335.812"/>
<polygon fill="none" stroke="#191970" points="231.0221,-361.4779 231.4634,-372.0635 237.7197,-363.5131 231.0221,-361.4779"/>
</g>
<!-- Node8 -->
<g id="node9" class="node">
<title>Node8</title>
<g id="a_node9"><a xlink:href="../../d0/d97/interfaceSslSocket.html" target="_top" xlink:title="ssl 网络套接口对象 ">
<polygon fill="#ffffff" stroke="#000000" points="337.6978,-176.5 337.6978,-290.5 413.439,-290.5 413.439,-176.5 337.6978,-176.5"/>
<text text-anchor="middle" x="375.5684" y="-278.5" font-family="Helvetica,sans-Serif" font-size="10.00" fill="#000000">SslSocket</text>
<polyline fill="none" stroke="#000000" points="337.6978,-272.5 413.439,-272.5 "/>
<text text-anchor="start" x="345.6978" y="-260.5" font-family="Helvetica,sans-Serif" font-size="10.00" fill="#000000">+ verification</text>
<text text-anchor="start" x="345.6978" y="-250.5" font-family="Helvetica,sans-Serif" font-size="10.00" fill="#000000">+ ca</text>
<text text-anchor="start" x="345.6978" y="-240.5" font-family="Helvetica,sans-Serif" font-size="10.00" fill="#000000">+ peerCert</text>
<text text-anchor="start" x="345.6978" y="-230.5" font-family="Helvetica,sans-Serif" font-size="10.00" fill="#000000">+ stream</text>
<polyline fill="none" stroke="#000000" points="337.6978,-224.5 413.439,-224.5 "/>
<text text-anchor="start" x="345.6978" y="-212.5" font-family="Helvetica,sans-Serif" font-size="10.00" fill="#000000">+ SslSocket()</text>
<text text-anchor="start" x="345.6978" y="-202.5" font-family="Helvetica,sans-Serif" font-size="10.00" fill="#000000">+ SslSocket()</text>
<text text-anchor="start" x="345.6978" y="-192.5" font-family="Helvetica,sans-Serif" font-size="10.00" fill="#000000">+ connect()</text>
<text text-anchor="start" x="345.6978" y="-182.5" font-family="Helvetica,sans-Serif" font-size="10.00" fill="#000000">+ accept()</text>
</a>
</g>
</g>
<!-- Node0&#45;&gt;Node8 -->
<g id="edge8" class="edge">
<title>Node0&#45;&gt;Node8</title>
<path fill="none" stroke="#191970" d="M259.2196,-392.6168C281.9389,-378.7797 309.4411,-359.1538 328.5684,-336 339.6027,-322.6429 348.6248,-306.2711 355.7073,-290.5653"/>
<polygon fill="none" stroke="#191970" points="257.2705,-389.7035 250.4557,-397.8158 260.842,-395.7238 257.2705,-389.7035"/>
</g>
<!-- Node1 -->
<g id="node2" class="node">
<title>Node1</title>
<g id="a_node2"><a xlink:href="../../db/d38/interfaceobject.html" target="_top" xlink:title="基础对象，所有对象均继承于此 ">
<polygon fill="#ffffff" stroke="#000000" points="185.4243,-493.5 185.4243,-587.5 251.7124,-587.5 251.7124,-493.5 185.4243,-493.5"/>
<text text-anchor="middle" x="218.5684" y="-575.5" font-family="Helvetica,sans-Serif" font-size="10.00" fill="#000000">object</text>
<polyline fill="none" stroke="#000000" points="185.4243,-569.5 251.7124,-569.5 "/>
<text text-anchor="middle" x="218.5684" y="-557.5" font-family="Helvetica,sans-Serif" font-size="10.00" fill="#000000"> </text>
<polyline fill="none" stroke="#000000" points="185.4243,-551.5 251.7124,-551.5 "/>
<text text-anchor="start" x="193.4243" y="-539.5" font-family="Helvetica,sans-Serif" font-size="10.00" fill="#000000">+ dispose()</text>
<text text-anchor="start" x="193.4243" y="-529.5" font-family="Helvetica,sans-Serif" font-size="10.00" fill="#000000">+ equals()</text>
<text text-anchor="start" x="193.4243" y="-519.5" font-family="Helvetica,sans-Serif" font-size="10.00" fill="#000000">+ toString()</text>
<text text-anchor="start" x="193.4243" y="-509.5" font-family="Helvetica,sans-Serif" font-size="10.00" fill="#000000">+ toJSON()</text>
<text text-anchor="start" x="193.4243" y="-499.5" font-family="Helvetica,sans-Serif" font-size="10.00" fill="#000000">+ valueOf()</text>
</a>
</g>
</g>
<!-- Node1&#45;&gt;Node0 -->
<g id="edge1" class="edge">
<title>Node1&#45;&gt;Node0</title>
<path fill="none" stroke="#191970" d="M218.5684,-482.9387C218.5684,-474.0848 218.5684,-465.0866 218.5684,-456.6505"/>
<polygon fill="none" stroke="#191970" points="215.0685,-483.2237 218.5684,-493.2238 222.0685,-483.2238 215.0685,-483.2237"/>
</g>
<!-- Node3 -->
<g id="node4" class="node">
<title>Node3</title>
<g id="a_node4"><a xlink:href="../../d8/d10/interfaceSubProcess.html" target="_top" xlink:title="子进程对象 ">
<polygon fill="#ffffff" stroke="#000000" points="9.0845,-.5 9.0845,-94.5 92.0522,-94.5 92.0522,-.5 9.0845,-.5"/>
<text text-anchor="middle" x="50.5684" y="-82.5" font-family="Helvetica,sans-Serif" font-size="10.00" fill="#000000">SubProcess</text>
<polyline fill="none" stroke="#000000" points="9.0845,-76.5 92.0522,-76.5 "/>
<text text-anchor="start" x="17.0845" y="-64.5" font-family="Helvetica,sans-Serif" font-size="10.00" fill="#000000">+ pid</text>
<text text-anchor="start" x="17.0845" y="-54.5" font-family="Helvetica,sans-Serif" font-size="10.00" fill="#000000">+ stdin</text>
<text text-anchor="start" x="17.0845" y="-44.5" font-family="Helvetica,sans-Serif" font-size="10.00" fill="#000000">+ stdout</text>
<polyline fill="none" stroke="#000000" points="9.0845,-38.5 92.0522,-38.5 "/>
<text text-anchor="start" x="17.0845" y="-26.5" font-family="Helvetica,sans-Serif" font-size="10.00" fill="#000000">+ kill()</text>
<text text-anchor="start" x="17.0845" y="-16.5" font-family="Helvetica,sans-Serif" font-size="10.00" fill="#000000">+ wait()</text>
<text text-anchor="start" x="17.0845" y="-6.5" font-family="Helvetica,sans-Serif" font-size="10.00" fill="#000000">+ findWindow()</text>
</a>
</g>
</g>
<!-- Node2&#45;&gt;Node3 -->
<g id="edge3" class="edge">
<title>Node2&#45;&gt;Node3</title>
<path fill="none" stroke="#191970" d="M50.5684,-156.2152C50.5684,-135.354 50.5684,-113.4063 50.5684,-94.7363"/>
<polygon fill="none" stroke="#191970" points="47.0685,-156.3497 50.5684,-166.3497 54.0685,-156.3498 47.0685,-156.3497"/>
</g>
<!-- Node5 -->
<g id="node6" class="node">
<title>Node5</title>
<g id="a_node6"><a xlink:href="../../d3/d3a/interfaceFile.html" target="_top" xlink:title="文件操作对象，用于二进制文件读写 ">
<polygon fill="#ffffff" stroke="#000000" points="121.9219,-20.5 121.9219,-74.5 183.2148,-74.5 183.2148,-20.5 121.9219,-20.5"/>
<text text-anchor="middle" x="152.5684" y="-62.5" font-family="Helvetica,sans-Serif" font-size="10.00" fill="#000000">File</text>
<polyline fill="none" stroke="#000000" points="121.9219,-56.5 183.2148,-56.5 "/>
<text text-anchor="start" x="129.9219" y="-44.5" font-family="Helvetica,sans-Serif" font-size="10.00" fill="#000000">+ name</text>
<polyline fill="none" stroke="#000000" points="121.9219,-38.5 183.2148,-38.5 "/>
<text text-anchor="start" x="129.9219" y="-26.5" font-family="Helvetica,sans-Serif" font-size="10.00" fill="#000000">+ chmod()</text>
</a>
</g>
</g>
<!-- Node4&#45;&gt;Node5 -->
<g id="edge5" class="edge">
<title>Node4&#45;&gt;Node5</title>
<path fill="none" stroke="#191970" d="M159.5822,-156.2152C157.7143,-127.2624 155.7114,-96.2168 154.3261,-74.7452"/>
<polygon fill="none" stroke="#191970" points="156.0994,-156.5958 160.2361,-166.3497 163.0849,-156.1451 156.0994,-156.5958"/>
</g>
<!-- Node6 -->
<g id="node7" class="node">
<title>Node6</title>
<g id="a_node7"><a xlink:href="../../d2/d93/interfaceMemoryStream.html" target="_top" xlink:title="内存流对象 ">
<polygon fill="#ffffff" stroke="#000000" points="200.7568,-5.5 200.7568,-89.5 300.3799,-89.5 300.3799,-5.5 200.7568,-5.5"/>
<text text-anchor="middle" x="250.5684" y="-77.5" font-family="Helvetica,sans-Serif" font-size="10.00" fill="#000000">MemoryStream</text>
<polyline fill="none" stroke="#000000" points="200.7568,-71.5 300.3799,-71.5 "/>
<text text-anchor="middle" x="250.5684" y="-59.5" font-family="Helvetica,sans-Serif" font-size="10.00" fill="#000000"> </text>
<polyline fill="none" stroke="#000000" points="200.7568,-53.5 300.3799,-53.5 "/>
<text text-anchor="start" x="208.7568" y="-41.5" font-family="Helvetica,sans-Serif" font-size="10.00" fill="#000000">+ MemoryStream()</text>
<text text-anchor="start" x="208.7568" y="-31.5" font-family="Helvetica,sans-Serif" font-size="10.00" fill="#000000">+ setTime()</text>
<text text-anchor="start" x="208.7568" y="-21.5" font-family="Helvetica,sans-Serif" font-size="10.00" fill="#000000">+ clone()</text>
<text text-anchor="start" x="208.7568" y="-11.5" font-family="Helvetica,sans-Serif" font-size="10.00" fill="#000000">+ clear()</text>
</a>
</g>
</g>
<!-- Node4&#45;&gt;Node6 -->
<g id="edge6" class="edge">
<title>Node4&#45;&gt;Node6</title>
<path fill="none" stroke="#191970" d="M199.825,-157.2473C210.4968,-134.1664 221.8267,-109.6623 231.0671,-89.6772"/>
<polygon fill="none" stroke="#191970" points="196.6363,-155.8041 195.6163,-166.3497 202.99,-158.7419 196.6363,-155.8041"/>
</g>
</g>
</svg>
