<?xml version="1.0" encoding="UTF-8" standalone="no"?>
<!DOCTYPE svg PUBLIC "-//W3C//DTD SVG 1.1//EN"
 "http://www.w3.org/Graphics/SVG/1.1/DTD/svg11.dtd">
<!-- Generated by graphviz version 2.38.0 (20140413.2041)
 -->
<!-- Title: Stream Pages: 1 -->
<svg width="421pt" height="586pt"
 viewBox="0.00 0.00 421.44 586.00" xmlns="http://www.w3.org/2000/svg" xmlns:xlink="http://www.w3.org/1999/xlink">
<g id="graph0" class="graph" transform="scale(1 1) rotate(0) translate(4 582)">
<title>Stream</title>
<polygon fill="white" stroke="none" points="-4,4 -4,-582 417.439,-582 417.439,4 -4,4"/>
<!-- Node1 -->
<g id="node1" class="node"><title>Node1</title>
<polygon fill="#bfbfbf" stroke="black" points="187.087,-362.5 187.087,-446.5 250.05,-446.5 250.05,-362.5 187.087,-362.5"/>
<text text-anchor="middle" x="218.568" y="-434.5" font-family="Helvetica,sans-Serif" font-size="10.00">Stream</text>
<polyline fill="none" stroke="black" points="187.087,-428.5 250.05,-428.5 "/>
<text text-anchor="middle" x="218.568" y="-416.5" font-family="Helvetica,sans-Serif" font-size="10.00"> </text>
<polyline fill="none" stroke="black" points="187.087,-410.5 250.05,-410.5 "/>
<text text-anchor="start" x="195.087" y="-398.5" font-family="Helvetica,sans-Serif" font-size="10.00">+ read()</text>
<text text-anchor="start" x="195.087" y="-388.5" font-family="Helvetica,sans-Serif" font-size="10.00">+ write()</text>
<text text-anchor="start" x="195.087" y="-378.5" font-family="Helvetica,sans-Serif" font-size="10.00">+ close()</text>
<text text-anchor="start" x="195.087" y="-368.5" font-family="Helvetica,sans-Serif" font-size="10.00">+ copyTo()</text>
</g>
<!-- Node3 -->
<g id="node3" class="node"><title>Node3</title>
<g id="a_node3"><a xlink:href="../../d0/d37/interfaceBufferedStream.html" target="_top" xlink:title="缓存读取对象 ">
<polygon fill="white" stroke="black" points="0,-156.5 0,-290.5 101.137,-290.5 101.137,-156.5 0,-156.5"/>
<text text-anchor="middle" x="50.5684" y="-278.5" font-family="Helvetica,sans-Serif" font-size="10.00">BufferedStream</text>
<polyline fill="none" stroke="black" points="0,-272.5 101.137,-272.5 "/>
<text text-anchor="start" x="8" y="-260.5" font-family="Helvetica,sans-Serif" font-size="10.00">+ stream</text>
<text text-anchor="start" x="8" y="-250.5" font-family="Helvetica,sans-Serif" font-size="10.00">+ charset</text>
<text text-anchor="start" x="8" y="-240.5" font-family="Helvetica,sans-Serif" font-size="10.00">+ EOL</text>
<polyline fill="none" stroke="black" points="0,-234.5 101.137,-234.5 "/>
<text text-anchor="start" x="8" y="-222.5" font-family="Helvetica,sans-Serif" font-size="10.00">+ BufferedStream()</text>
<text text-anchor="start" x="8" y="-212.5" font-family="Helvetica,sans-Serif" font-size="10.00">+ readText()</text>
<text text-anchor="start" x="8" y="-202.5" font-family="Helvetica,sans-Serif" font-size="10.00">+ readLine()</text>
<text text-anchor="start" x="8" y="-192.5" font-family="Helvetica,sans-Serif" font-size="10.00">+ readLines()</text>
<text text-anchor="start" x="8" y="-182.5" font-family="Helvetica,sans-Serif" font-size="10.00">+ readUntil()</text>
<text text-anchor="start" x="8" y="-172.5" font-family="Helvetica,sans-Serif" font-size="10.00">+ writeText()</text>
<text text-anchor="start" x="8" y="-162.5" font-family="Helvetica,sans-Serif" font-size="10.00">+ writeLine()</text>
</a>
</g>
</g>
<!-- Node1&#45;&gt;Node3 -->
<g id="edge2" class="edge"><title>Node1&#45;&gt;Node3</title>
<path fill="none" stroke="midnightblue" d="M178.325,-380.333C156.536,-366.465 130.15,-347.398 110.568,-326 100.895,-315.429 92.0251,-303.05 84.2433,-290.643"/>
<polygon fill="none" stroke="midnightblue" points="176.702,-383.444 187.04,-385.761 180.403,-377.503 176.702,-383.444"/>
</g>
<!-- Node5 -->
<g id="node5" class="node"><title>Node5</title>
<g id="a_node5"><a xlink:href="../../d6/d9c/interfaceSeekableStream.html" target="_top" xlink:title="可移动当前指针的流对象接口 ">
<polygon fill="white" stroke="black" points="119.603,-171.5 119.603,-275.5 209.534,-275.5 209.534,-171.5 119.603,-171.5"/>
<text text-anchor="middle" x="164.568" y="-263.5" font-family="Helvetica,sans-Serif" font-size="10.00">SeekableStream</text>
<polyline fill="none" stroke="black" points="119.603,-257.5 209.534,-257.5 "/>
<text text-anchor="middle" x="164.568" y="-245.5" font-family="Helvetica,sans-Serif" font-size="10.00"> </text>
<polyline fill="none" stroke="black" points="119.603,-239.5 209.534,-239.5 "/>
<text text-anchor="start" x="127.603" y="-227.5" font-family="Helvetica,sans-Serif" font-size="10.00">+ seek()</text>
<text text-anchor="start" x="127.603" y="-217.5" font-family="Helvetica,sans-Serif" font-size="10.00">+ tell()</text>
<text text-anchor="start" x="127.603" y="-207.5" font-family="Helvetica,sans-Serif" font-size="10.00">+ rewind()</text>
<text text-anchor="start" x="127.603" y="-197.5" font-family="Helvetica,sans-Serif" font-size="10.00">+ size()</text>
<text text-anchor="start" x="127.603" y="-187.5" font-family="Helvetica,sans-Serif" font-size="10.00">+ readAll()</text>
<text text-anchor="start" x="127.603" y="-177.5" font-family="Helvetica,sans-Serif" font-size="10.00">+ stat()</text>
</a>
</g>
</g>
<!-- Node1&#45;&gt;Node5 -->
<g id="edge4" class="edge"><title>Node1&#45;&gt;Node5</title>
<path fill="none" stroke="midnightblue" d="M203.257,-352.746C195.975,-328.606 187.287,-299.807 179.99,-275.62"/>
<polygon fill="none" stroke="midnightblue" points="199.941,-353.871 206.18,-362.434 206.642,-351.849 199.941,-353.871"/>
</g>
<!-- Node8 -->
<g id="node8" class="node"><title>Node8</title>
<g id="a_node8"><a xlink:href="../../dd/d94/interfaceSocket.html" target="_top" xlink:title="网络套接口对象 ">
<polygon fill="white" stroke="black" points="227.355,-121.5 227.355,-325.5 319.781,-325.5 319.781,-121.5 227.355,-121.5"/>
<text text-anchor="middle" x="273.568" y="-313.5" font-family="Helvetica,sans-Serif" font-size="10.00">Socket</text>
<polyline fill="none" stroke="black" points="227.355,-307.5 319.781,-307.5 "/>
<text text-anchor="start" x="235.355" y="-295.5" font-family="Helvetica,sans-Serif" font-size="10.00">+ family</text>
<text text-anchor="start" x="235.355" y="-285.5" font-family="Helvetica,sans-Serif" font-size="10.00">+ type</text>
<text text-anchor="start" x="235.355" y="-275.5" font-family="Helvetica,sans-Serif" font-size="10.00">+ remoteAddress</text>
<text text-anchor="start" x="235.355" y="-265.5" font-family="Helvetica,sans-Serif" font-size="10.00">+ remotePort</text>
<text text-anchor="start" x="235.355" y="-255.5" font-family="Helvetica,sans-Serif" font-size="10.00">+ localAddress</text>
<text text-anchor="start" x="235.355" y="-245.5" font-family="Helvetica,sans-Serif" font-size="10.00">+ localPort</text>
<text text-anchor="start" x="235.355" y="-235.5" font-family="Helvetica,sans-Serif" font-size="10.00">+ timeout</text>
<polyline fill="none" stroke="black" points="227.355,-229.5 319.781,-229.5 "/>
<text text-anchor="start" x="235.355" y="-217.5" font-family="Helvetica,sans-Serif" font-size="10.00">+ Socket()</text>
<text text-anchor="start" x="235.355" y="-207.5" font-family="Helvetica,sans-Serif" font-size="10.00">+ connect()</text>
<text text-anchor="start" x="235.355" y="-197.5" font-family="Helvetica,sans-Serif" font-size="10.00">+ bind()</text>
<text text-anchor="start" x="235.355" y="-187.5" font-family="Helvetica,sans-Serif" font-size="10.00">+ bind()</text>
<text text-anchor="start" x="235.355" y="-177.5" font-family="Helvetica,sans-Serif" font-size="10.00">+ listen()</text>
<text text-anchor="start" x="235.355" y="-167.5" font-family="Helvetica,sans-Serif" font-size="10.00">+ accept()</text>
<text text-anchor="start" x="235.355" y="-157.5" font-family="Helvetica,sans-Serif" font-size="10.00">+ recv()</text>
<text text-anchor="start" x="235.355" y="-147.5" font-family="Helvetica,sans-Serif" font-size="10.00">+ recvFrom()</text>
<text text-anchor="start" x="235.355" y="-137.5" font-family="Helvetica,sans-Serif" font-size="10.00">+ send()</text>
<text text-anchor="start" x="235.355" y="-127.5" font-family="Helvetica,sans-Serif" font-size="10.00">+ sendto()</text>
</a>
</g>
</g>
<!-- Node1&#45;&gt;Node8 -->
<g id="edge7" class="edge"><title>Node1&#45;&gt;Node8</title>
<path fill="none" stroke="midnightblue" d="M234.174,-352.712C236.794,-344.183 239.594,-335.072 242.446,-325.789"/>
<polygon fill="none" stroke="midnightblue" points="230.778,-351.847 231.186,-362.434 237.469,-353.903 230.778,-351.847"/>
</g>
<!-- Node9 -->
<g id="node9" class="node"><title>Node9</title>
<g id="a_node9"><a xlink:href="../../d0/d97/interfaceSslSocket.html" target="_top" xlink:title="ssl 网络套接口对象 ">
<polygon fill="white" stroke="black" points="337.698,-171.5 337.698,-275.5 413.439,-275.5 413.439,-171.5 337.698,-171.5"/>
<text text-anchor="middle" x="375.568" y="-263.5" font-family="Helvetica,sans-Serif" font-size="10.00">SslSocket</text>
<polyline fill="none" stroke="black" points="337.698,-257.5 413.439,-257.5 "/>
<text text-anchor="start" x="345.698" y="-245.5" font-family="Helvetica,sans-Serif" font-size="10.00">+ verification</text>
<text text-anchor="start" x="345.698" y="-235.5" font-family="Helvetica,sans-Serif" font-size="10.00">+ ca</text>
<text text-anchor="start" x="345.698" y="-225.5" font-family="Helvetica,sans-Serif" font-size="10.00">+ peerCert</text>
<polyline fill="none" stroke="black" points="337.698,-219.5 413.439,-219.5 "/>
<text text-anchor="start" x="345.698" y="-207.5" font-family="Helvetica,sans-Serif" font-size="10.00">+ SslSocket()</text>
<text text-anchor="start" x="345.698" y="-197.5" font-family="Helvetica,sans-Serif" font-size="10.00">+ SslSocket()</text>
<text text-anchor="start" x="345.698" y="-187.5" font-family="Helvetica,sans-Serif" font-size="10.00">+ connect()</text>
<text text-anchor="start" x="345.698" y="-177.5" font-family="Helvetica,sans-Serif" font-size="10.00">+ accept()</text>
</a>
</g>
</g>
<!-- Node1&#45;&gt;Node9 -->
<g id="edge8" class="edge"><title>Node1&#45;&gt;Node9</title>
<path fill="none" stroke="midnightblue" d="M259.197,-381.972C281.908,-368.337 309.41,-348.961 328.568,-326 340.885,-311.238 350.704,-292.715 358.116,-275.546"/>
<polygon fill="none" stroke="midnightblue" points="257.303,-379.025 250.436,-387.094 260.836,-385.068 257.303,-379.025"/>
</g>
<!-- Node2 -->
<g id="node2" class="node"><title>Node2</title>
<g id="a_node2"><a xlink:href="../../db/d38/interfaceobject.html" target="_top" xlink:title="基础对象，所有对象均继承于此 ">
<polygon fill="white" stroke="black" points="185.424,-483.5 185.424,-577.5 251.712,-577.5 251.712,-483.5 185.424,-483.5"/>
<text text-anchor="middle" x="218.568" y="-565.5" font-family="Helvetica,sans-Serif" font-size="10.00">object</text>
<polyline fill="none" stroke="black" points="185.424,-559.5 251.712,-559.5 "/>
<text text-anchor="middle" x="218.568" y="-547.5" font-family="Helvetica,sans-Serif" font-size="10.00"> </text>
<polyline fill="none" stroke="black" points="185.424,-541.5 251.712,-541.5 "/>
<text text-anchor="start" x="193.424" y="-529.5" font-family="Helvetica,sans-Serif" font-size="10.00">+ dispose()</text>
<text text-anchor="start" x="193.424" y="-519.5" font-family="Helvetica,sans-Serif" font-size="10.00">+ equals()</text>
<text text-anchor="start" x="193.424" y="-509.5" font-family="Helvetica,sans-Serif" font-size="10.00">+ toString()</text>
<text text-anchor="start" x="193.424" y="-499.5" font-family="Helvetica,sans-Serif" font-size="10.00">+ toJSON()</text>
<text text-anchor="start" x="193.424" y="-489.5" font-family="Helvetica,sans-Serif" font-size="10.00">+ valueOf()</text>
</a>
</g>
</g>
<!-- Node2&#45;&gt;Node1 -->
<g id="edge1" class="edge"><title>Node2&#45;&gt;Node1</title>
<path fill="none" stroke="midnightblue" d="M218.568,-473.061C218.568,-464.219 218.568,-455.225 218.568,-446.806"/>
<polygon fill="none" stroke="midnightblue" points="215.068,-473.327 218.568,-483.327 222.068,-473.327 215.068,-473.327"/>
</g>
<!-- Node4 -->
<g id="node4" class="node"><title>Node4</title>
<g id="a_node4"><a xlink:href="../../d8/d10/interfaceSubProcess.html" target="_top" xlink:title="子进程对象 ">
<polygon fill="white" stroke="black" points="15.6104,-0.5 15.6104,-84.5 85.5264,-84.5 85.5264,-0.5 15.6104,-0.5"/>
<text text-anchor="middle" x="50.5684" y="-72.5" font-family="Helvetica,sans-Serif" font-size="10.00">SubProcess</text>
<polyline fill="none" stroke="black" points="15.6104,-66.5 85.5264,-66.5 "/>
<text text-anchor="start" x="23.6104" y="-54.5" font-family="Helvetica,sans-Serif" font-size="10.00">+ pid</text>
<text text-anchor="start" x="23.6104" y="-44.5" font-family="Helvetica,sans-Serif" font-size="10.00">+ stdin</text>
<text text-anchor="start" x="23.6104" y="-34.5" font-family="Helvetica,sans-Serif" font-size="10.00">+ stdout</text>
<polyline fill="none" stroke="black" points="15.6104,-28.5 85.5264,-28.5 "/>
<text text-anchor="start" x="23.6104" y="-16.5" font-family="Helvetica,sans-Serif" font-size="10.00">+ kill()</text>
<text text-anchor="start" x="23.6104" y="-6.5" font-family="Helvetica,sans-Serif" font-size="10.00">+ wait()</text>
</a>
</g>
</g>
<!-- Node3&#45;&gt;Node4 -->
<g id="edge3" class="edge"><title>Node3&#45;&gt;Node4</title>
<path fill="none" stroke="midnightblue" d="M50.5684,-146.108C50.5684,-125.029 50.5684,-102.957 50.5684,-84.7093"/>
<polygon fill="none" stroke="midnightblue" points="47.0685,-146.356 50.5684,-156.356 54.0685,-146.356 47.0685,-146.356"/>
</g>
<!-- Node6 -->
<g id="node6" class="node"><title>Node6</title>
<g id="a_node6"><a xlink:href="../../d3/d3a/interfaceFile.html" target="_top" xlink:title="文件操作对象，用于二进制文件读写 ">
<polygon fill="white" stroke="black" points="116.863,-0.5 116.863,-84.5 184.274,-84.5 184.274,-0.5 116.863,-0.5"/>
<text text-anchor="middle" x="150.568" y="-72.5" font-family="Helvetica,sans-Serif" font-size="10.00">File</text>
<polyline fill="none" stroke="black" points="116.863,-66.5 184.274,-66.5 "/>
<text text-anchor="start" x="124.863" y="-54.5" font-family="Helvetica,sans-Serif" font-size="10.00">+ name</text>
<polyline fill="none" stroke="black" points="116.863,-48.5 184.274,-48.5 "/>
<text text-anchor="start" x="124.863" y="-36.5" font-family="Helvetica,sans-Serif" font-size="10.00">+ truncate()</text>
<text text-anchor="start" x="124.863" y="-26.5" font-family="Helvetica,sans-Serif" font-size="10.00">+ eof()</text>
<text text-anchor="start" x="124.863" y="-16.5" font-family="Helvetica,sans-Serif" font-size="10.00">+ flush()</text>
<text text-anchor="start" x="124.863" y="-6.5" font-family="Helvetica,sans-Serif" font-size="10.00">+ chmod()</text>
</a>
</g>
</g>
<!-- Node5&#45;&gt;Node6 -->
<g id="edge5" class="edge"><title>Node5&#45;&gt;Node6</title>
<path fill="none" stroke="midnightblue" d="M159.757,-160.987C157.783,-135.75 155.551,-107.212 153.781,-84.582"/>
<polygon fill="none" stroke="midnightblue" points="156.287,-161.509 160.557,-171.206 163.266,-160.963 156.287,-161.509"/>
</g>
<!-- Node7 -->
<g id="node7" class="node"><title>Node7</title>
<g id="a_node7"><a xlink:href="../../d2/d93/interfaceMemoryStream.html" target="_top" xlink:title="内存流对象 ">
<polygon fill="white" stroke="black" points="202.757,-0.5 202.757,-84.5 302.38,-84.5 302.38,-0.5 202.757,-0.5"/>
<text text-anchor="middle" x="252.568" y="-72.5" font-family="Helvetica,sans-Serif" font-size="10.00">MemoryStream</text>
<polyline fill="none" stroke="black" points="202.757,-66.5 302.38,-66.5 "/>
<text text-anchor="middle" x="252.568" y="-54.5" font-family="Helvetica,sans-Serif" font-size="10.00"> </text>
<polyline fill="none" stroke="black" points="202.757,-48.5 302.38,-48.5 "/>
<text text-anchor="start" x="210.757" y="-36.5" font-family="Helvetica,sans-Serif" font-size="10.00">+ MemoryStream()</text>
<text text-anchor="start" x="210.757" y="-26.5" font-family="Helvetica,sans-Serif" font-size="10.00">+ setTime()</text>
<text text-anchor="start" x="210.757" y="-16.5" font-family="Helvetica,sans-Serif" font-size="10.00">+ clone()</text>
<text text-anchor="start" x="210.757" y="-6.5" font-family="Helvetica,sans-Serif" font-size="10.00">+ clear()</text>
</a>
</g>
</g>
<!-- Node5&#45;&gt;Node7 -->
<g id="edge6" class="edge"><title>Node5&#45;&gt;Node7</title>
<path fill="none" stroke="midnightblue" d="M194.314,-161.994C206.842,-136.512 221.098,-107.513 232.372,-84.582"/>
<polygon fill="none" stroke="midnightblue" points="191.057,-160.687 189.786,-171.206 197.339,-163.776 191.057,-160.687"/>
</g>
</g>
</svg>
