<?xml version="1.0" encoding="UTF-8" standalone="no"?>
<!DOCTYPE svg PUBLIC "-//W3C//DTD SVG 1.1//EN"
 "http://www.w3.org/Graphics/SVG/1.1/DTD/svg11.dtd">
<!-- Generated by graphviz version 2.38.0 (20140413.2041)
 -->
<!-- Title: Stream Pages: 1 -->
<svg width="421pt" height="596pt"
 viewBox="0.00 0.00 421.44 596.00" xmlns="http://www.w3.org/2000/svg" xmlns:xlink="http://www.w3.org/1999/xlink">
<g id="graph0" class="graph" transform="scale(1 1) rotate(0) translate(4 592)">
<title>Stream</title>
<polygon fill="white" stroke="none" points="-4,4 -4,-592 417.439,-592 417.439,4 -4,4"/>
<!-- Node1 -->
<g id="node1" class="node"><title>Node1</title>
<polygon fill="#bfbfbf" stroke="black" points="187.087,-372.5 187.087,-456.5 250.05,-456.5 250.05,-372.5 187.087,-372.5"/>
<text text-anchor="middle" x="218.568" y="-444.5" font-family="Helvetica,sans-Serif" font-size="10.00">Stream</text>
<polyline fill="none" stroke="black" points="187.087,-438.5 250.05,-438.5 "/>
<text text-anchor="middle" x="218.568" y="-426.5" font-family="Helvetica,sans-Serif" font-size="10.00"> </text>
<polyline fill="none" stroke="black" points="187.087,-420.5 250.05,-420.5 "/>
<text text-anchor="start" x="195.087" y="-408.5" font-family="Helvetica,sans-Serif" font-size="10.00">+ read()</text>
<text text-anchor="start" x="195.087" y="-398.5" font-family="Helvetica,sans-Serif" font-size="10.00">+ write()</text>
<text text-anchor="start" x="195.087" y="-388.5" font-family="Helvetica,sans-Serif" font-size="10.00">+ close()</text>
<text text-anchor="start" x="195.087" y="-378.5" font-family="Helvetica,sans-Serif" font-size="10.00">+ copyTo()</text>
</g>
<!-- Node3 -->
<g id="node3" class="node"><title>Node3</title>
<g id="a_node3"><a xlink:href="../../d0/d37/interfaceBufferedStream.html" target="_top" xlink:title="缓存读取对象 ">
<polygon fill="white" stroke="black" points="0,-166.5 0,-300.5 101.137,-300.5 101.137,-166.5 0,-166.5"/>
<text text-anchor="middle" x="50.5684" y="-288.5" font-family="Helvetica,sans-Serif" font-size="10.00">BufferedStream</text>
<polyline fill="none" stroke="black" points="0,-282.5 101.137,-282.5 "/>
<text text-anchor="start" x="8" y="-270.5" font-family="Helvetica,sans-Serif" font-size="10.00">+ stream</text>
<text text-anchor="start" x="8" y="-260.5" font-family="Helvetica,sans-Serif" font-size="10.00">+ charset</text>
<text text-anchor="start" x="8" y="-250.5" font-family="Helvetica,sans-Serif" font-size="10.00">+ EOL</text>
<polyline fill="none" stroke="black" points="0,-244.5 101.137,-244.5 "/>
<text text-anchor="start" x="8" y="-232.5" font-family="Helvetica,sans-Serif" font-size="10.00">+ BufferedStream()</text>
<text text-anchor="start" x="8" y="-222.5" font-family="Helvetica,sans-Serif" font-size="10.00">+ readText()</text>
<text text-anchor="start" x="8" y="-212.5" font-family="Helvetica,sans-Serif" font-size="10.00">+ readLine()</text>
<text text-anchor="start" x="8" y="-202.5" font-family="Helvetica,sans-Serif" font-size="10.00">+ readLines()</text>
<text text-anchor="start" x="8" y="-192.5" font-family="Helvetica,sans-Serif" font-size="10.00">+ readUntil()</text>
<text text-anchor="start" x="8" y="-182.5" font-family="Helvetica,sans-Serif" font-size="10.00">+ writeText()</text>
<text text-anchor="start" x="8" y="-172.5" font-family="Helvetica,sans-Serif" font-size="10.00">+ writeLine()</text>
</a>
</g>
</g>
<!-- Node1&#45;&gt;Node3 -->
<g id="edge2" class="edge"><title>Node1&#45;&gt;Node3</title>
<path fill="none" stroke="midnightblue" d="M178.325,-390.333C156.536,-376.465 130.15,-357.398 110.568,-336 100.895,-325.429 92.0251,-313.05 84.2433,-300.643"/>
<polygon fill="none" stroke="midnightblue" points="176.702,-393.444 187.04,-395.761 180.403,-387.503 176.702,-393.444"/>
</g>
<!-- Node5 -->
<g id="node5" class="node"><title>Node5</title>
<g id="a_node5"><a xlink:href="../../d6/d9c/interfaceSeekableStream.html" target="_top" xlink:title="可移动当前指针的流对象接口 ">
<polygon fill="white" stroke="black" points="119.603,-181.5 119.603,-285.5 209.534,-285.5 209.534,-181.5 119.603,-181.5"/>
<text text-anchor="middle" x="164.568" y="-273.5" font-family="Helvetica,sans-Serif" font-size="10.00">SeekableStream</text>
<polyline fill="none" stroke="black" points="119.603,-267.5 209.534,-267.5 "/>
<text text-anchor="middle" x="164.568" y="-255.5" font-family="Helvetica,sans-Serif" font-size="10.00"> </text>
<polyline fill="none" stroke="black" points="119.603,-249.5 209.534,-249.5 "/>
<text text-anchor="start" x="127.603" y="-237.5" font-family="Helvetica,sans-Serif" font-size="10.00">+ seek()</text>
<text text-anchor="start" x="127.603" y="-227.5" font-family="Helvetica,sans-Serif" font-size="10.00">+ tell()</text>
<text text-anchor="start" x="127.603" y="-217.5" font-family="Helvetica,sans-Serif" font-size="10.00">+ rewind()</text>
<text text-anchor="start" x="127.603" y="-207.5" font-family="Helvetica,sans-Serif" font-size="10.00">+ size()</text>
<text text-anchor="start" x="127.603" y="-197.5" font-family="Helvetica,sans-Serif" font-size="10.00">+ readAll()</text>
<text text-anchor="start" x="127.603" y="-187.5" font-family="Helvetica,sans-Serif" font-size="10.00">+ stat()</text>
</a>
</g>
</g>
<!-- Node1&#45;&gt;Node5 -->
<g id="edge4" class="edge"><title>Node1&#45;&gt;Node5</title>
<path fill="none" stroke="midnightblue" d="M203.257,-362.746C195.975,-338.606 187.287,-309.807 179.99,-285.62"/>
<polygon fill="none" stroke="midnightblue" points="199.941,-363.871 206.18,-372.434 206.642,-361.849 199.941,-363.871"/>
</g>
<!-- Node8 -->
<g id="node8" class="node"><title>Node8</title>
<g id="a_node8"><a xlink:href="../../dd/d94/interfaceSocket.html" target="_top" xlink:title="网络套接口对象 ">
<polygon fill="white" stroke="black" points="227.355,-131.5 227.355,-335.5 319.781,-335.5 319.781,-131.5 227.355,-131.5"/>
<text text-anchor="middle" x="273.568" y="-323.5" font-family="Helvetica,sans-Serif" font-size="10.00">Socket</text>
<polyline fill="none" stroke="black" points="227.355,-317.5 319.781,-317.5 "/>
<text text-anchor="start" x="235.355" y="-305.5" font-family="Helvetica,sans-Serif" font-size="10.00">+ family</text>
<text text-anchor="start" x="235.355" y="-295.5" font-family="Helvetica,sans-Serif" font-size="10.00">+ type</text>
<text text-anchor="start" x="235.355" y="-285.5" font-family="Helvetica,sans-Serif" font-size="10.00">+ remoteAddress</text>
<text text-anchor="start" x="235.355" y="-275.5" font-family="Helvetica,sans-Serif" font-size="10.00">+ remotePort</text>
<text text-anchor="start" x="235.355" y="-265.5" font-family="Helvetica,sans-Serif" font-size="10.00">+ localAddress</text>
<text text-anchor="start" x="235.355" y="-255.5" font-family="Helvetica,sans-Serif" font-size="10.00">+ localPort</text>
<text text-anchor="start" x="235.355" y="-245.5" font-family="Helvetica,sans-Serif" font-size="10.00">+ timeout</text>
<polyline fill="none" stroke="black" points="227.355,-239.5 319.781,-239.5 "/>
<text text-anchor="start" x="235.355" y="-227.5" font-family="Helvetica,sans-Serif" font-size="10.00">+ Socket()</text>
<text text-anchor="start" x="235.355" y="-217.5" font-family="Helvetica,sans-Serif" font-size="10.00">+ connect()</text>
<text text-anchor="start" x="235.355" y="-207.5" font-family="Helvetica,sans-Serif" font-size="10.00">+ bind()</text>
<text text-anchor="start" x="235.355" y="-197.5" font-family="Helvetica,sans-Serif" font-size="10.00">+ bind()</text>
<text text-anchor="start" x="235.355" y="-187.5" font-family="Helvetica,sans-Serif" font-size="10.00">+ listen()</text>
<text text-anchor="start" x="235.355" y="-177.5" font-family="Helvetica,sans-Serif" font-size="10.00">+ accept()</text>
<text text-anchor="start" x="235.355" y="-167.5" font-family="Helvetica,sans-Serif" font-size="10.00">+ recv()</text>
<text text-anchor="start" x="235.355" y="-157.5" font-family="Helvetica,sans-Serif" font-size="10.00">+ recvFrom()</text>
<text text-anchor="start" x="235.355" y="-147.5" font-family="Helvetica,sans-Serif" font-size="10.00">+ send()</text>
<text text-anchor="start" x="235.355" y="-137.5" font-family="Helvetica,sans-Serif" font-size="10.00">+ sendto()</text>
</a>
</g>
</g>
<!-- Node1&#45;&gt;Node8 -->
<g id="edge7" class="edge"><title>Node1&#45;&gt;Node8</title>
<path fill="none" stroke="midnightblue" d="M234.174,-362.712C236.794,-354.183 239.594,-345.072 242.446,-335.789"/>
<polygon fill="none" stroke="midnightblue" points="230.778,-361.847 231.186,-372.434 237.469,-363.903 230.778,-361.847"/>
</g>
<!-- Node9 -->
<g id="node9" class="node"><title>Node9</title>
<g id="a_node9"><a xlink:href="../../d0/d97/interfaceSslSocket.html" target="_top" xlink:title="ssl 网络套接口对象 ">
<polygon fill="white" stroke="black" points="337.698,-181.5 337.698,-285.5 413.439,-285.5 413.439,-181.5 337.698,-181.5"/>
<text text-anchor="middle" x="375.568" y="-273.5" font-family="Helvetica,sans-Serif" font-size="10.00">SslSocket</text>
<polyline fill="none" stroke="black" points="337.698,-267.5 413.439,-267.5 "/>
<text text-anchor="start" x="345.698" y="-255.5" font-family="Helvetica,sans-Serif" font-size="10.00">+ verification</text>
<text text-anchor="start" x="345.698" y="-245.5" font-family="Helvetica,sans-Serif" font-size="10.00">+ ca</text>
<text text-anchor="start" x="345.698" y="-235.5" font-family="Helvetica,sans-Serif" font-size="10.00">+ peerCert</text>
<polyline fill="none" stroke="black" points="337.698,-229.5 413.439,-229.5 "/>
<text text-anchor="start" x="345.698" y="-217.5" font-family="Helvetica,sans-Serif" font-size="10.00">+ SslSocket()</text>
<text text-anchor="start" x="345.698" y="-207.5" font-family="Helvetica,sans-Serif" font-size="10.00">+ SslSocket()</text>
<text text-anchor="start" x="345.698" y="-197.5" font-family="Helvetica,sans-Serif" font-size="10.00">+ connect()</text>
<text text-anchor="start" x="345.698" y="-187.5" font-family="Helvetica,sans-Serif" font-size="10.00">+ accept()</text>
</a>
</g>
</g>
<!-- Node1&#45;&gt;Node9 -->
<g id="edge8" class="edge"><title>Node1&#45;&gt;Node9</title>
<path fill="none" stroke="midnightblue" d="M259.197,-391.972C281.908,-378.337 309.41,-358.961 328.568,-336 340.885,-321.238 350.704,-302.715 358.116,-285.546"/>
<polygon fill="none" stroke="midnightblue" points="257.303,-389.025 250.436,-397.094 260.836,-395.068 257.303,-389.025"/>
</g>
<!-- Node2 -->
<g id="node2" class="node"><title>Node2</title>
<g id="a_node2"><a xlink:href="../../db/d38/interfaceobject.html" target="_top" xlink:title="基础对象，所有对象均继承于此 ">
<polygon fill="white" stroke="black" points="185.424,-493.5 185.424,-587.5 251.712,-587.5 251.712,-493.5 185.424,-493.5"/>
<text text-anchor="middle" x="218.568" y="-575.5" font-family="Helvetica,sans-Serif" font-size="10.00">object</text>
<polyline fill="none" stroke="black" points="185.424,-569.5 251.712,-569.5 "/>
<text text-anchor="middle" x="218.568" y="-557.5" font-family="Helvetica,sans-Serif" font-size="10.00"> </text>
<polyline fill="none" stroke="black" points="185.424,-551.5 251.712,-551.5 "/>
<text text-anchor="start" x="193.424" y="-539.5" font-family="Helvetica,sans-Serif" font-size="10.00">+ dispose()</text>
<text text-anchor="start" x="193.424" y="-529.5" font-family="Helvetica,sans-Serif" font-size="10.00">+ equals()</text>
<text text-anchor="start" x="193.424" y="-519.5" font-family="Helvetica,sans-Serif" font-size="10.00">+ toString()</text>
<text text-anchor="start" x="193.424" y="-509.5" font-family="Helvetica,sans-Serif" font-size="10.00">+ toJSON()</text>
<text text-anchor="start" x="193.424" y="-499.5" font-family="Helvetica,sans-Serif" font-size="10.00">+ valueOf()</text>
</a>
</g>
</g>
<!-- Node2&#45;&gt;Node1 -->
<g id="edge1" class="edge"><title>Node2&#45;&gt;Node1</title>
<path fill="none" stroke="midnightblue" d="M218.568,-483.061C218.568,-474.219 218.568,-465.225 218.568,-456.806"/>
<polygon fill="none" stroke="midnightblue" points="215.068,-483.327 218.568,-493.327 222.068,-483.327 215.068,-483.327"/>
</g>
<!-- Node4 -->
<g id="node4" class="node"><title>Node4</title>
<g id="a_node4"><a xlink:href="../../d8/d10/interfaceSubProcess.html" target="_top" xlink:title="子进程对象 ">
<polygon fill="white" stroke="black" points="9.08447,-0.5 9.08447,-94.5 92.0522,-94.5 92.0522,-0.5 9.08447,-0.5"/>
<text text-anchor="middle" x="50.5684" y="-82.5" font-family="Helvetica,sans-Serif" font-size="10.00">SubProcess</text>
<polyline fill="none" stroke="black" points="9.08447,-76.5 92.0522,-76.5 "/>
<text text-anchor="start" x="17.0845" y="-64.5" font-family="Helvetica,sans-Serif" font-size="10.00">+ pid</text>
<text text-anchor="start" x="17.0845" y="-54.5" font-family="Helvetica,sans-Serif" font-size="10.00">+ stdin</text>
<text text-anchor="start" x="17.0845" y="-44.5" font-family="Helvetica,sans-Serif" font-size="10.00">+ stdout</text>
<polyline fill="none" stroke="black" points="9.08447,-38.5 92.0522,-38.5 "/>
<text text-anchor="start" x="17.0845" y="-26.5" font-family="Helvetica,sans-Serif" font-size="10.00">+ kill()</text>
<text text-anchor="start" x="17.0845" y="-16.5" font-family="Helvetica,sans-Serif" font-size="10.00">+ wait()</text>
<text text-anchor="start" x="17.0845" y="-6.5" font-family="Helvetica,sans-Serif" font-size="10.00">+ findWindow()</text>
</a>
</g>
</g>
<!-- Node3&#45;&gt;Node4 -->
<g id="edge3" class="edge"><title>Node3&#45;&gt;Node4</title>
<path fill="none" stroke="midnightblue" d="M50.5684,-156.162C50.5684,-135.223 50.5684,-113.169 50.5684,-94.5123"/>
<polygon fill="none" stroke="midnightblue" points="47.0685,-156.332 50.5684,-166.332 54.0685,-156.332 47.0685,-156.332"/>
</g>
<!-- Node6 -->
<g id="node6" class="node"><title>Node6</title>
<g id="a_node6"><a xlink:href="../../d3/d3a/interfaceFile.html" target="_top" xlink:title="文件操作对象，用于二进制文件读写 ">
<polygon fill="white" stroke="black" points="119.863,-5.5 119.863,-89.5 187.274,-89.5 187.274,-5.5 119.863,-5.5"/>
<text text-anchor="middle" x="153.568" y="-77.5" font-family="Helvetica,sans-Serif" font-size="10.00">File</text>
<polyline fill="none" stroke="black" points="119.863,-71.5 187.274,-71.5 "/>
<text text-anchor="start" x="127.863" y="-59.5" font-family="Helvetica,sans-Serif" font-size="10.00">+ name</text>
<polyline fill="none" stroke="black" points="119.863,-53.5 187.274,-53.5 "/>
<text text-anchor="start" x="127.863" y="-41.5" font-family="Helvetica,sans-Serif" font-size="10.00">+ truncate()</text>
<text text-anchor="start" x="127.863" y="-31.5" font-family="Helvetica,sans-Serif" font-size="10.00">+ eof()</text>
<text text-anchor="start" x="127.863" y="-21.5" font-family="Helvetica,sans-Serif" font-size="10.00">+ flush()</text>
<text text-anchor="start" x="127.863" y="-11.5" font-family="Helvetica,sans-Serif" font-size="10.00">+ chmod()</text>
</a>
</g>
</g>
<!-- Node5&#45;&gt;Node6 -->
<g id="edge5" class="edge"><title>Node5&#45;&gt;Node6</title>
<path fill="none" stroke="midnightblue" d="M160.902,-171.179C159.299,-144.354 157.46,-113.599 156.025,-89.5928"/>
<polygon fill="none" stroke="midnightblue" points="157.414,-171.472 161.504,-181.246 164.401,-171.055 157.414,-171.472"/>
</g>
<!-- Node7 -->
<g id="node7" class="node"><title>Node7</title>
<g id="a_node7"><a xlink:href="../../d2/d93/interfaceMemoryStream.html" target="_top" xlink:title="内存流对象 ">
<polygon fill="white" stroke="black" points="205.757,-5.5 205.757,-89.5 305.38,-89.5 305.38,-5.5 205.757,-5.5"/>
<text text-anchor="middle" x="255.568" y="-77.5" font-family="Helvetica,sans-Serif" font-size="10.00">MemoryStream</text>
<polyline fill="none" stroke="black" points="205.757,-71.5 305.38,-71.5 "/>
<text text-anchor="middle" x="255.568" y="-59.5" font-family="Helvetica,sans-Serif" font-size="10.00"> </text>
<polyline fill="none" stroke="black" points="205.757,-53.5 305.38,-53.5 "/>
<text text-anchor="start" x="213.757" y="-41.5" font-family="Helvetica,sans-Serif" font-size="10.00">+ MemoryStream()</text>
<text text-anchor="start" x="213.757" y="-31.5" font-family="Helvetica,sans-Serif" font-size="10.00">+ setTime()</text>
<text text-anchor="start" x="213.757" y="-21.5" font-family="Helvetica,sans-Serif" font-size="10.00">+ clone()</text>
<text text-anchor="start" x="213.757" y="-11.5" font-family="Helvetica,sans-Serif" font-size="10.00">+ clear()</text>
</a>
</g>
</g>
<!-- Node5&#45;&gt;Node7 -->
<g id="edge6" class="edge"><title>Node5&#45;&gt;Node7</title>
<path fill="none" stroke="midnightblue" d="M194.37,-172.241C207.76,-145.168 223.216,-113.916 235.245,-89.5928"/>
<polygon fill="none" stroke="midnightblue" points="191.213,-170.73 189.917,-181.246 197.487,-173.834 191.213,-170.73"/>
</g>
</g>
</svg>
