<?xml version="1.0" encoding="UTF-8" standalone="no"?>
<!DOCTYPE svg PUBLIC "-//W3C//DTD SVG 1.1//EN"
 "http://www.w3.org/Graphics/SVG/1.1/DTD/svg11.dtd">
<!-- Generated by graphviz version 2.38.0 (20140413.2041)
 -->
<!-- Title: XmlElement Pages: 1 -->
<svg width="149pt" height="515pt"
 viewBox="0.00 0.00 149.33 515.00" xmlns="http://www.w3.org/2000/svg" xmlns:xlink="http://www.w3.org/1999/xlink">
<g id="graph0" class="graph" transform="scale(1 1) rotate(0) translate(4 511)">
<title>XmlElement</title>
<polygon fill="white" stroke="none" points="-4,4 -4,-511 145.332,-511 145.332,4 -4,4"/>
<!-- Node1 -->
<g id="node1" class="node"><title>Node1</title>
<polygon fill="#bfbfbf" stroke="black" points="0,-0.5 0,-134.5 141.332,-134.5 141.332,-0.5 0,-0.5"/>
<text text-anchor="middle" x="70.666" y="-122.5" font-family="Helvetica,sans-Serif" font-size="10.00">XmlElement</text>
<polyline fill="none" stroke="black" points="0,-116.5 141.332,-116.5 "/>
<text text-anchor="start" x="8" y="-104.5" font-family="Helvetica,sans-Serif" font-size="10.00">+ tagName</text>
<text text-anchor="start" x="8" y="-94.5" font-family="Helvetica,sans-Serif" font-size="10.00">+ attributes</text>
<polyline fill="none" stroke="black" points="0,-88.5 141.332,-88.5 "/>
<text text-anchor="start" x="8" y="-76.5" font-family="Helvetica,sans-Serif" font-size="10.00">+ getAttribute()</text>
<text text-anchor="start" x="8" y="-66.5" font-family="Helvetica,sans-Serif" font-size="10.00">+ setAttribute()</text>
<text text-anchor="start" x="8" y="-56.5" font-family="Helvetica,sans-Serif" font-size="10.00">+ removeAttribute()</text>
<text text-anchor="start" x="8" y="-46.5" font-family="Helvetica,sans-Serif" font-size="10.00">+ getAttributeNode()</text>
<text text-anchor="start" x="8" y="-36.5" font-family="Helvetica,sans-Serif" font-size="10.00">+ setAttributeNode()</text>
<text text-anchor="start" x="8" y="-26.5" font-family="Helvetica,sans-Serif" font-size="10.00">+ removeAttributeNode()</text>
<text text-anchor="start" x="8" y="-16.5" font-family="Helvetica,sans-Serif" font-size="10.00">+ getElementsByTagName()</text>
<text text-anchor="start" x="8" y="-6.5" font-family="Helvetica,sans-Serif" font-size="10.00">+ hasAttribute()</text>
</g>
<!-- Node2 -->
<g id="node2" class="node"><title>Node2</title>
<g id="a_node2"><a xlink:href="../../dc/d8f/interfaceXmlNode.html" target="_top" xlink:title="XmlNode 对象是整个 DOM 的基础数据类型 ">
<polygon fill="white" stroke="black" points="21.1182,-171.5 21.1182,-385.5 120.214,-385.5 120.214,-171.5 21.1182,-171.5"/>
<text text-anchor="middle" x="70.666" y="-373.5" font-family="Helvetica,sans-Serif" font-size="10.00">XmlNode</text>
<polyline fill="none" stroke="black" points="21.1182,-367.5 120.214,-367.5 "/>
<text text-anchor="start" x="29.1182" y="-355.5" font-family="Helvetica,sans-Serif" font-size="10.00">+ nodeName</text>
<text text-anchor="start" x="29.1182" y="-345.5" font-family="Helvetica,sans-Serif" font-size="10.00">+ nodeValue</text>
<text text-anchor="start" x="29.1182" y="-335.5" font-family="Helvetica,sans-Serif" font-size="10.00">+ nodeType</text>
<text text-anchor="start" x="29.1182" y="-325.5" font-family="Helvetica,sans-Serif" font-size="10.00">+ parentNode</text>
<text text-anchor="start" x="29.1182" y="-315.5" font-family="Helvetica,sans-Serif" font-size="10.00">+ childNodes</text>
<text text-anchor="start" x="29.1182" y="-305.5" font-family="Helvetica,sans-Serif" font-size="10.00">+ firstChild</text>
<text text-anchor="start" x="29.1182" y="-295.5" font-family="Helvetica,sans-Serif" font-size="10.00">+ lastChild</text>
<text text-anchor="start" x="29.1182" y="-285.5" font-family="Helvetica,sans-Serif" font-size="10.00">+ previousSibling</text>
<text text-anchor="start" x="29.1182" y="-275.5" font-family="Helvetica,sans-Serif" font-size="10.00">+ nextSibling</text>
<text text-anchor="start" x="29.1182" y="-265.5" font-family="Helvetica,sans-Serif" font-size="10.00">+ ownerDocument</text>
<polyline fill="none" stroke="black" points="21.1182,-259.5 120.214,-259.5 "/>
<text text-anchor="start" x="29.1182" y="-247.5" font-family="Helvetica,sans-Serif" font-size="10.00">+ insertBefore()</text>
<text text-anchor="start" x="29.1182" y="-237.5" font-family="Helvetica,sans-Serif" font-size="10.00">+ insertAfter()</text>
<text text-anchor="start" x="29.1182" y="-227.5" font-family="Helvetica,sans-Serif" font-size="10.00">+ replaceChild()</text>
<text text-anchor="start" x="29.1182" y="-217.5" font-family="Helvetica,sans-Serif" font-size="10.00">+ removeChild()</text>
<text text-anchor="start" x="29.1182" y="-207.5" font-family="Helvetica,sans-Serif" font-size="10.00">+ appendChild()</text>
<text text-anchor="start" x="29.1182" y="-197.5" font-family="Helvetica,sans-Serif" font-size="10.00">+ hasChildNodes()</text>
<text text-anchor="start" x="29.1182" y="-187.5" font-family="Helvetica,sans-Serif" font-size="10.00">+ cloneNode()</text>
<text text-anchor="start" x="29.1182" y="-177.5" font-family="Helvetica,sans-Serif" font-size="10.00">+ normalize()</text>
</a>
</g>
</g>
<!-- Node2&#45;&gt;Node1 -->
<g id="edge1" class="edge"><title>Node2&#45;&gt;Node1</title>
<path fill="none" stroke="midnightblue" d="M70.666,-161.212C70.666,-152.16 70.666,-143.227 70.666,-134.689"/>
<polygon fill="none" stroke="midnightblue" points="67.1661,-161.469 70.666,-171.469 74.1661,-161.469 67.1661,-161.469"/>
</g>
<!-- Node3 -->
<g id="node3" class="node"><title>Node3</title>
<g id="a_node3"><a xlink:href="../../db/d38/interfaceobject.html" target="_top" xlink:title="基础对象，所有对象均继承于此 ">
<polygon fill="white" stroke="black" points="37.522,-422.5 37.522,-506.5 103.81,-506.5 103.81,-422.5 37.522,-422.5"/>
<text text-anchor="middle" x="70.666" y="-494.5" font-family="Helvetica,sans-Serif" font-size="10.00">object</text>
<polyline fill="none" stroke="black" points="37.522,-488.5 103.81,-488.5 "/>
<text text-anchor="middle" x="70.666" y="-476.5" font-family="Helvetica,sans-Serif" font-size="10.00"> </text>
<polyline fill="none" stroke="black" points="37.522,-470.5 103.81,-470.5 "/>
<text text-anchor="start" x="45.522" y="-458.5" font-family="Helvetica,sans-Serif" font-size="10.00">+ dispose()</text>
<text text-anchor="start" x="45.522" y="-448.5" font-family="Helvetica,sans-Serif" font-size="10.00">+ toString()</text>
<text text-anchor="start" x="45.522" y="-438.5" font-family="Helvetica,sans-Serif" font-size="10.00">+ toJSON()</text>
<text text-anchor="start" x="45.522" y="-428.5" font-family="Helvetica,sans-Serif" font-size="10.00">+ valueOf()</text>
</a>
</g>
</g>
<!-- Node3&#45;&gt;Node2 -->
<g id="edge2" class="edge"><title>Node3&#45;&gt;Node2</title>
<path fill="none" stroke="midnightblue" d="M70.666,-411.946C70.666,-403.588 70.666,-394.674 70.666,-385.573"/>
<polygon fill="none" stroke="midnightblue" points="67.1661,-412.207 70.666,-422.207 74.1661,-412.207 67.1661,-412.207"/>
</g>
</g>
</svg>
