<?xml version="1.0" encoding="UTF-8" standalone="no"?>
<!DOCTYPE svg PUBLIC "-//W3C//DTD SVG 1.1//EN"
 "http://www.w3.org/Graphics/SVG/1.1/DTD/svg11.dtd">
<!-- Generated by graphviz version 2.40.1 (20161225.0304)
 -->
<!-- Title: SslServer Pages: 1 -->
<svg width="84pt" height="375pt"
 viewBox="0.00 0.00 84.12 375.00" xmlns="http://www.w3.org/2000/svg" xmlns:xlink="http://www.w3.org/1999/xlink">
<g id="graph0" class="graph" transform="scale(1 1) rotate(0) translate(4 371)">
<title>SslServer</title>
<polygon fill="#ffffff" stroke="transparent" points="-4,4 -4,-371 80.1172,-371 80.1172,4 -4,4"/>
<!-- Node0 -->
<g id="node1" class="node">
<title>Node0</title>
<polygon fill="#bfbfbf" stroke="#000000" points=".7471,-.5 .7471,-94.5 75.3701,-94.5 75.3701,-.5 .7471,-.5"/>
<text text-anchor="middle" x="38.0586" y="-82.5" font-family="Helvetica,sans-Serif" font-size="10.00" fill="#000000">SslServer</text>
<polyline fill="none" stroke="#000000" points=".7471,-76.5 75.3701,-76.5 "/>
<text text-anchor="start" x="8.7471" y="-64.5" font-family="Helvetica,sans-Serif" font-size="10.00" fill="#000000">+ verification</text>
<text text-anchor="start" x="8.7471" y="-54.5" font-family="Helvetica,sans-Serif" font-size="10.00" fill="#000000">+ ca</text>
<polyline fill="none" stroke="#000000" points=".7471,-48.5 75.3701,-48.5 "/>
<text text-anchor="start" x="8.7471" y="-36.5" font-family="Helvetica,sans-Serif" font-size="10.00" fill="#000000">+ SslServer()</text>
<text text-anchor="start" x="8.7471" y="-26.5" font-family="Helvetica,sans-Serif" font-size="10.00" fill="#000000">+ SslServer()</text>
<text text-anchor="start" x="8.7471" y="-16.5" font-family="Helvetica,sans-Serif" font-size="10.00" fill="#000000">+ SslServer()</text>
<text text-anchor="start" x="8.7471" y="-6.5" font-family="Helvetica,sans-Serif" font-size="10.00" fill="#000000">+ SslServer()</text>
</g>
<!-- Node1 -->
<g id="node2" class="node">
<title>Node1</title>
<g id="a_node2"><a xlink:href="../../d7/d48/interfaceTcpServer.html" target="_top" xlink:title="tcp server object for creating a multi&#45;thread tcp server ">
<polygon fill="#ffffff" stroke="#000000" points="0,-131.5 0,-245.5 76.1172,-245.5 76.1172,-131.5 0,-131.5"/>
<text text-anchor="middle" x="38.0586" y="-233.5" font-family="Helvetica,sans-Serif" font-size="10.00" fill="#000000">TcpServer</text>
<polyline fill="none" stroke="#000000" points="0,-227.5 76.1172,-227.5 "/>
<text text-anchor="start" x="8" y="-215.5" font-family="Helvetica,sans-Serif" font-size="10.00" fill="#000000">+ socket</text>
<text text-anchor="start" x="8" y="-205.5" font-family="Helvetica,sans-Serif" font-size="10.00" fill="#000000">+ handler</text>
<text text-anchor="start" x="8" y="-195.5" font-family="Helvetica,sans-Serif" font-size="10.00" fill="#000000">+ stats</text>
<polyline fill="none" stroke="#000000" points="0,-189.5 76.1172,-189.5 "/>
<text text-anchor="start" x="8" y="-177.5" font-family="Helvetica,sans-Serif" font-size="10.00" fill="#000000">+ TcpServer()</text>
<text text-anchor="start" x="8" y="-167.5" font-family="Helvetica,sans-Serif" font-size="10.00" fill="#000000">+ TcpServer()</text>
<text text-anchor="start" x="8" y="-157.5" font-family="Helvetica,sans-Serif" font-size="10.00" fill="#000000">+ run()</text>
<text text-anchor="start" x="8" y="-147.5" font-family="Helvetica,sans-Serif" font-size="10.00" fill="#000000">+ asyncRun()</text>
<text text-anchor="start" x="8" y="-137.5" font-family="Helvetica,sans-Serif" font-size="10.00" fill="#000000">+ stop()</text>
</a>
</g>
</g>
<!-- Node1&#45;&gt;Node0 -->
<g id="edge1" class="edge">
<title>Node1&#45;&gt;Node0</title>
<path fill="none" stroke="#191970" d="M38.0586,-120.8925C38.0586,-112.1033 38.0586,-103.254 38.0586,-94.8923"/>
<polygon fill="none" stroke="#191970" points="34.5587,-121.1499 38.0586,-131.1499 41.5587,-121.1499 34.5587,-121.1499"/>
</g>
<!-- Node2 -->
<g id="node3" class="node">
<title>Node2</title>
<g id="a_node3"><a xlink:href="../../db/d38/interfaceobject.html" target="_top" xlink:title="All objects inherit from this. ">
<polygon fill="#ffffff" stroke="#000000" points="4.9146,-282.5 4.9146,-366.5 71.2026,-366.5 71.2026,-282.5 4.9146,-282.5"/>
<text text-anchor="middle" x="38.0586" y="-354.5" font-family="Helvetica,sans-Serif" font-size="10.00" fill="#000000">object</text>
<polyline fill="none" stroke="#000000" points="4.9146,-348.5 71.2026,-348.5 "/>
<text text-anchor="middle" x="38.0586" y="-336.5" font-family="Helvetica,sans-Serif" font-size="10.00" fill="#000000"> </text>
<polyline fill="none" stroke="#000000" points="4.9146,-330.5 71.2026,-330.5 "/>
<text text-anchor="start" x="12.9146" y="-318.5" font-family="Helvetica,sans-Serif" font-size="10.00" fill="#000000">+ dispose()</text>
<text text-anchor="start" x="12.9146" y="-308.5" font-family="Helvetica,sans-Serif" font-size="10.00" fill="#000000">+ toString()</text>
<text text-anchor="start" x="12.9146" y="-298.5" font-family="Helvetica,sans-Serif" font-size="10.00" fill="#000000">+ toJSON()</text>
<text text-anchor="start" x="12.9146" y="-288.5" font-family="Helvetica,sans-Serif" font-size="10.00" fill="#000000">+ valueOf()</text>
</a>
</g>
</g>
<!-- Node2&#45;&gt;Node1 -->
<g id="edge2" class="edge">
<title>Node2&#45;&gt;Node1</title>
<path fill="none" stroke="#191970" d="M38.0586,-271.9557C38.0586,-263.3721 38.0586,-254.4415 38.0586,-245.7513"/>
<polygon fill="none" stroke="#191970" points="34.5587,-272.2142 38.0586,-282.2142 41.5587,-272.2143 34.5587,-272.2142"/>
</g>
</g>
</svg>
