<?xml version="1.0" encoding="UTF-8" standalone="no"?>
<!DOCTYPE svg PUBLIC "-//W3C//DTD SVG 1.1//EN"
 "http://www.w3.org/Graphics/SVG/1.1/DTD/svg11.dtd">
<!-- Generated by graphviz version 2.38.0 (20140413.2041)
 -->
<!-- Title: net Pages: 1 -->
<svg width="108pt" height="284pt"
 viewBox="0.00 0.00 108.19 284.00" xmlns="http://www.w3.org/2000/svg" xmlns:xlink="http://www.w3.org/1999/xlink">
<g id="graph0" class="graph" transform="scale(1 1) rotate(0) translate(4 280)">
<title>net</title>
<polygon fill="white" stroke="none" points="-4,4 -4,-280 104.189,-280 104.189,4 -4,4"/>
<!-- Node1 -->
<g id="node1" class="node"><title>Node1</title>
<polygon fill="#bfbfbf" stroke="black" points="0,-0.5 0,-184.5 100.189,-184.5 100.189,-0.5 0,-0.5"/>
<text text-anchor="middle" x="50.0947" y="-172.5" font-family="Helvetica,sans-Serif" font-size="10.00">net</text>
<polyline fill="none" stroke="black" points="0,-166.5 100.189,-166.5 "/>
<text text-anchor="start" x="8" y="-154.5" font-family="Helvetica,sans-Serif" font-size="10.00">+ AF_INET</text>
<text text-anchor="start" x="8" y="-144.5" font-family="Helvetica,sans-Serif" font-size="10.00">+ AF_INET6</text>
<text text-anchor="start" x="8" y="-134.5" font-family="Helvetica,sans-Serif" font-size="10.00">+ SOCK_STREAM</text>
<text text-anchor="start" x="8" y="-124.5" font-family="Helvetica,sans-Serif" font-size="10.00">+ SOCK_DGRAM</text>
<polyline fill="none" stroke="black" points="0,-118.5 100.189,-118.5 "/>
<text text-anchor="start" x="8" y="-106.5" font-family="Helvetica,sans-Serif" font-size="10.00">+ resolve()</text>
<text text-anchor="start" x="8" y="-96.5" font-family="Helvetica,sans-Serif" font-size="10.00">+ ip()</text>
<text text-anchor="start" x="8" y="-86.5" font-family="Helvetica,sans-Serif" font-size="10.00">+ ipv6()</text>
<text text-anchor="start" x="8" y="-76.5" font-family="Helvetica,sans-Serif" font-size="10.00">+ Socket()</text>
<text text-anchor="start" x="8" y="-66.5" font-family="Helvetica,sans-Serif" font-size="10.00">+ connect()</text>
<text text-anchor="start" x="8" y="-56.5" font-family="Helvetica,sans-Serif" font-size="10.00">+ connect()</text>
<text text-anchor="start" x="8" y="-46.5" font-family="Helvetica,sans-Serif" font-size="10.00">+ Smtp()</text>
<text text-anchor="start" x="8" y="-36.5" font-family="Helvetica,sans-Serif" font-size="10.00">+ openSmtp()</text>
<text text-anchor="start" x="8" y="-26.5" font-family="Helvetica,sans-Serif" font-size="10.00">+ TcpServer()</text>
<text text-anchor="start" x="8" y="-16.5" font-family="Helvetica,sans-Serif" font-size="10.00">+ Url()</text>
<text text-anchor="start" x="8" y="-6.5" font-family="Helvetica,sans-Serif" font-size="10.00">+ backend()</text>
</g>
<!-- Node2 -->
<g id="node2" class="node"><title>Node2</title>
<g id="a_node2"><a xlink:href="../../d0/dd3/classmodule.html" target="_top" xlink:title="基础模块对象，所有模块对象均继承于此 ">
<polygon fill="white" stroke="black" points="25.6958,-221.5 25.6958,-275.5 74.4937,-275.5 74.4937,-221.5 25.6958,-221.5"/>
<text text-anchor="middle" x="50.0947" y="-263.5" font-family="Helvetica,sans-Serif" font-size="10.00">module</text>
<polyline fill="none" stroke="black" points="25.6958,-257.5 74.4937,-257.5 "/>
<text text-anchor="middle" x="50.0947" y="-245.5" font-family="Helvetica,sans-Serif" font-size="10.00"> </text>
<polyline fill="none" stroke="black" points="25.6958,-239.5 74.4937,-239.5 "/>
<text text-anchor="middle" x="50.0947" y="-227.5" font-family="Helvetica,sans-Serif" font-size="10.00"> </text>
</a>
</g>
</g>
<!-- Node2&#45;&gt;Node1 -->
<g id="edge1" class="edge"><title>Node2&#45;&gt;Node1</title>
<path fill="none" stroke="midnightblue" d="M50.0947,-211.134C50.0947,-202.927 50.0947,-193.858 50.0947,-184.503"/>
<polygon fill="none" stroke="midnightblue" points="46.5948,-211.376 50.0947,-221.376 53.5948,-211.376 46.5948,-211.376"/>
</g>
</g>
</svg>
