<?xml version="1.0" encoding="UTF-8" standalone="no"?>
<!DOCTYPE svg PUBLIC "-//W3C//DTD SVG 1.1//EN"
 "http://www.w3.org/Graphics/SVG/1.1/DTD/svg11.dtd">
<!-- Generated by graphviz version 2.38.0 (20140413.2041)
 -->
<!-- Title: WebSocketHandler Pages: 1 -->
<svg width="125pt" height="376pt"
 viewBox="0.00 0.00 125.25 376.00" xmlns="http://www.w3.org/2000/svg" xmlns:xlink="http://www.w3.org/1999/xlink">
<g id="graph0" class="graph" transform="scale(1 1) rotate(0) translate(4 372)">
<title>WebSocketHandler</title>
<polygon fill="white" stroke="none" points="-4,4 -4,-372 121.255,-372 121.255,4 -4,4"/>
<!-- Node1 -->
<g id="node1" class="node"><title>Node1</title>
<polygon fill="#bfbfbf" stroke="black" points="0,-0.5 0,-54.5 117.255,-54.5 117.255,-0.5 0,-0.5"/>
<text text-anchor="middle" x="58.6274" y="-42.5" font-family="Helvetica,sans-Serif" font-size="10.00">WebSocketHandler</text>
<polyline fill="none" stroke="black" points="0,-36.5 117.255,-36.5 "/>
<text text-anchor="start" x="8" y="-24.5" font-family="Helvetica,sans-Serif" font-size="10.00">+ maxSize</text>
<polyline fill="none" stroke="black" points="0,-18.5 117.255,-18.5 "/>
<text text-anchor="start" x="8" y="-6.5" font-family="Helvetica,sans-Serif" font-size="10.00">+ WebSocketHandler()</text>
</g>
<!-- Node2 -->
<g id="node2" class="node"><title>Node2</title>
<g id="a_node2"><a xlink:href="../../dc/de5/interfaceHandlerEx.html" target="_top" xlink:title="扩展消息处理器接口 ">
<polygon fill="white" stroke="black" points="26.8701,-91.5 26.8701,-155.5 90.3848,-155.5 90.3848,-91.5 26.8701,-91.5"/>
<text text-anchor="middle" x="58.6274" y="-143.5" font-family="Helvetica,sans-Serif" font-size="10.00">HandlerEx</text>
<polyline fill="none" stroke="black" points="26.8701,-137.5 90.3848,-137.5 "/>
<text text-anchor="start" x="34.8701" y="-125.5" font-family="Helvetica,sans-Serif" font-size="10.00">+ handler</text>
<text text-anchor="start" x="34.8701" y="-115.5" font-family="Helvetica,sans-Serif" font-size="10.00">+ stats</text>
<polyline fill="none" stroke="black" points="26.8701,-109.5 90.3848,-109.5 "/>
<text text-anchor="start" x="34.8701" y="-97.5" font-family="Helvetica,sans-Serif" font-size="10.00">+ onerror()</text>
</a>
</g>
</g>
<!-- Node2&#45;&gt;Node1 -->
<g id="edge1" class="edge"><title>Node2&#45;&gt;Node1</title>
<path fill="none" stroke="midnightblue" d="M58.6274,-81.4489C58.6274,-72.4046 58.6274,-63.0616 58.6274,-54.7887"/>
<polygon fill="none" stroke="midnightblue" points="55.1275,-81.4603 58.6274,-91.4604 62.1275,-81.4604 55.1275,-81.4603"/>
</g>
<!-- Node3 -->
<g id="node3" class="node"><title>Node3</title>
<g id="a_node3"><a xlink:href="../../da/d85/interfaceHandler.html" target="_top" xlink:title="消息处理器接口 ">
<polygon fill="white" stroke="black" points="28.5352,-192.5 28.5352,-246.5 88.7197,-246.5 88.7197,-192.5 28.5352,-192.5"/>
<text text-anchor="middle" x="58.6274" y="-234.5" font-family="Helvetica,sans-Serif" font-size="10.00">Handler</text>
<polyline fill="none" stroke="black" points="28.5352,-228.5 88.7197,-228.5 "/>
<text text-anchor="middle" x="58.6274" y="-216.5" font-family="Helvetica,sans-Serif" font-size="10.00"> </text>
<polyline fill="none" stroke="black" points="28.5352,-210.5 88.7197,-210.5 "/>
<text text-anchor="start" x="36.5352" y="-198.5" font-family="Helvetica,sans-Serif" font-size="10.00">+ invoke()</text>
</a>
</g>
</g>
<!-- Node3&#45;&gt;Node2 -->
<g id="edge2" class="edge"><title>Node3&#45;&gt;Node2</title>
<path fill="none" stroke="midnightblue" d="M58.6274,-182.284C58.6274,-173.46 58.6274,-164.1 58.6274,-155.542"/>
<polygon fill="none" stroke="midnightblue" points="55.1275,-182.316 58.6274,-192.316 62.1275,-182.316 55.1275,-182.316"/>
</g>
<!-- Node4 -->
<g id="node4" class="node"><title>Node4</title>
<g id="a_node4"><a xlink:href="../../db/d38/interfaceobject.html" target="_top" xlink:title="基础对象，所有对象均继承于此 ">
<polygon fill="white" stroke="black" points="25.4834,-283.5 25.4834,-367.5 91.7715,-367.5 91.7715,-283.5 25.4834,-283.5"/>
<text text-anchor="middle" x="58.6274" y="-355.5" font-family="Helvetica,sans-Serif" font-size="10.00">object</text>
<polyline fill="none" stroke="black" points="25.4834,-349.5 91.7715,-349.5 "/>
<text text-anchor="middle" x="58.6274" y="-337.5" font-family="Helvetica,sans-Serif" font-size="10.00"> </text>
<polyline fill="none" stroke="black" points="25.4834,-331.5 91.7715,-331.5 "/>
<text text-anchor="start" x="33.4834" y="-319.5" font-family="Helvetica,sans-Serif" font-size="10.00">+ dispose()</text>
<text text-anchor="start" x="33.4834" y="-309.5" font-family="Helvetica,sans-Serif" font-size="10.00">+ toString()</text>
<text text-anchor="start" x="33.4834" y="-299.5" font-family="Helvetica,sans-Serif" font-size="10.00">+ toJSON()</text>
<text text-anchor="start" x="33.4834" y="-289.5" font-family="Helvetica,sans-Serif" font-size="10.00">+ valueOf()</text>
</a>
</g>
</g>
<!-- Node4&#45;&gt;Node3 -->
<g id="edge3" class="edge"><title>Node4&#45;&gt;Node3</title>
<path fill="none" stroke="midnightblue" d="M58.6274,-273.111C58.6274,-263.937 58.6274,-254.738 58.6274,-246.655"/>
<polygon fill="none" stroke="midnightblue" points="55.1275,-273.396 58.6274,-283.396 62.1275,-273.396 55.1275,-273.396"/>
</g>
</g>
</svg>
