<?xml version="1.0" encoding="UTF-8" standalone="no"?>
<!DOCTYPE svg PUBLIC "-//W3C//DTD SVG 1.1//EN"
 "http://www.w3.org/Graphics/SVG/1.1/DTD/svg11.dtd">
<!-- Generated by graphviz version 2.40.1 (20161225.0304)
 -->
<!-- Title: WebSocketHandler Pages: 1 -->
<svg width="125pt" height="386pt"
 viewBox="0.00 0.00 125.25 386.00" xmlns="http://www.w3.org/2000/svg" xmlns:xlink="http://www.w3.org/1999/xlink">
<g id="graph0" class="graph" transform="scale(1 1) rotate(0) translate(4 382)">
<title>WebSocketHandler</title>
<polygon fill="#ffffff" stroke="transparent" points="-4,4 -4,-382 121.2549,-382 121.2549,4 -4,4"/>
<!-- Node0 -->
<g id="node1" class="node">
<title>Node0</title>
<polygon fill="#bfbfbf" stroke="#000000" points="0,-.5 0,-54.5 117.2549,-54.5 117.2549,-.5 0,-.5"/>
<text text-anchor="middle" x="58.6274" y="-42.5" font-family="Helvetica,sans-Serif" font-size="10.00" fill="#000000">WebSocketHandler</text>
<polyline fill="none" stroke="#000000" points="0,-36.5 117.2549,-36.5 "/>
<text text-anchor="start" x="8" y="-24.5" font-family="Helvetica,sans-Serif" font-size="10.00" fill="#000000">+ maxSize</text>
<polyline fill="none" stroke="#000000" points="0,-18.5 117.2549,-18.5 "/>
<text text-anchor="start" x="8" y="-6.5" font-family="Helvetica,sans-Serif" font-size="10.00" fill="#000000">+ WebSocketHandler()</text>
</g>
<!-- Node1 -->
<g id="node2" class="node">
<title>Node1</title>
<g id="a_node2"><a xlink:href="../../dc/de5/interfaceHandlerEx.html" target="_top" xlink:title="扩展消息处理器接口 ">
<polygon fill="#ffffff" stroke="#000000" points="26.8701,-91.5 26.8701,-155.5 90.3848,-155.5 90.3848,-91.5 26.8701,-91.5"/>
<text text-anchor="middle" x="58.6274" y="-143.5" font-family="Helvetica,sans-Serif" font-size="10.00" fill="#000000">HandlerEx</text>
<polyline fill="none" stroke="#000000" points="26.8701,-137.5 90.3848,-137.5 "/>
<text text-anchor="start" x="34.8701" y="-125.5" font-family="Helvetica,sans-Serif" font-size="10.00" fill="#000000">+ handler</text>
<text text-anchor="start" x="34.8701" y="-115.5" font-family="Helvetica,sans-Serif" font-size="10.00" fill="#000000">+ stats</text>
<polyline fill="none" stroke="#000000" points="26.8701,-109.5 90.3848,-109.5 "/>
<text text-anchor="start" x="34.8701" y="-97.5" font-family="Helvetica,sans-Serif" font-size="10.00" fill="#000000">+ onerror()</text>
</a>
</g>
</g>
<!-- Node1&#45;&gt;Node0 -->
<g id="edge1" class="edge">
<title>Node1&#45;&gt;Node0</title>
<path fill="none" stroke="#191970" d="M58.6274,-80.9788C58.6274,-72.0509 58.6274,-62.8669 58.6274,-54.6839"/>
<polygon fill="none" stroke="#191970" points="55.1275,-81.2663 58.6274,-91.2663 62.1275,-81.2664 55.1275,-81.2663"/>
</g>
<!-- Node2 -->
<g id="node3" class="node">
<title>Node2</title>
<g id="a_node3"><a xlink:href="../../da/d85/interfaceHandler.html" target="_top" xlink:title="消息处理器接口 ">
<polygon fill="#ffffff" stroke="#000000" points="28.5352,-192.5 28.5352,-246.5 88.7197,-246.5 88.7197,-192.5 28.5352,-192.5"/>
<text text-anchor="middle" x="58.6274" y="-234.5" font-family="Helvetica,sans-Serif" font-size="10.00" fill="#000000">Handler</text>
<polyline fill="none" stroke="#000000" points="28.5352,-228.5 88.7197,-228.5 "/>
<text text-anchor="middle" x="58.6274" y="-216.5" font-family="Helvetica,sans-Serif" font-size="10.00" fill="#000000"> </text>
<polyline fill="none" stroke="#000000" points="28.5352,-210.5 88.7197,-210.5 "/>
<text text-anchor="start" x="36.5352" y="-198.5" font-family="Helvetica,sans-Serif" font-size="10.00" fill="#000000">+ invoke()</text>
</a>
</g>
</g>
<!-- Node2&#45;&gt;Node1 -->
<g id="edge2" class="edge">
<title>Node2&#45;&gt;Node1</title>
<path fill="none" stroke="#191970" d="M58.6274,-182.2276C58.6274,-173.4295 58.6274,-164.1248 58.6274,-155.5792"/>
<polygon fill="none" stroke="#191970" points="55.1275,-182.247 58.6274,-192.247 62.1275,-182.2471 55.1275,-182.247"/>
</g>
<!-- Node3 -->
<g id="node4" class="node">
<title>Node3</title>
<g id="a_node4"><a xlink:href="../../db/d38/interfaceobject.html" target="_top" xlink:title="基础对象，所有对象均继承于此 ">
<polygon fill="#ffffff" stroke="#000000" points="25.4834,-283.5 25.4834,-377.5 91.7715,-377.5 91.7715,-283.5 25.4834,-283.5"/>
<text text-anchor="middle" x="58.6274" y="-365.5" font-family="Helvetica,sans-Serif" font-size="10.00" fill="#000000">object</text>
<polyline fill="none" stroke="#000000" points="25.4834,-359.5 91.7715,-359.5 "/>
<text text-anchor="middle" x="58.6274" y="-347.5" font-family="Helvetica,sans-Serif" font-size="10.00" fill="#000000"> </text>
<polyline fill="none" stroke="#000000" points="25.4834,-341.5 91.7715,-341.5 "/>
<text text-anchor="start" x="33.4834" y="-329.5" font-family="Helvetica,sans-Serif" font-size="10.00" fill="#000000">+ dispose()</text>
<text text-anchor="start" x="33.4834" y="-319.5" font-family="Helvetica,sans-Serif" font-size="10.00" fill="#000000">+ equals()</text>
<text text-anchor="start" x="33.4834" y="-309.5" font-family="Helvetica,sans-Serif" font-size="10.00" fill="#000000">+ toString()</text>
<text text-anchor="start" x="33.4834" y="-299.5" font-family="Helvetica,sans-Serif" font-size="10.00" fill="#000000">+ toJSON()</text>
<text text-anchor="start" x="33.4834" y="-289.5" font-family="Helvetica,sans-Serif" font-size="10.00" fill="#000000">+ valueOf()</text>
</a>
</g>
</g>
<!-- Node3&#45;&gt;Node2 -->
<g id="edge3" class="edge">
<title>Node3&#45;&gt;Node2</title>
<path fill="none" stroke="#191970" d="M58.6274,-273.3691C58.6274,-264.0775 58.6274,-254.8469 58.6274,-246.7203"/>
<polygon fill="none" stroke="#191970" points="55.1275,-273.426 58.6274,-283.426 62.1275,-273.426 55.1275,-273.426"/>
</g>
</g>
</svg>
