<?xml version="1.0" encoding="UTF-8" standalone="no"?>
<!DOCTYPE svg PUBLIC "-//W3C//DTD SVG 1.1//EN"
 "http://www.w3.org/Graphics/SVG/1.1/DTD/svg11.dtd">
<!-- Generated by graphviz version 2.40.1 (20161225.0304)
 -->
<!-- Title: File Pages: 1 -->
<svg width="98pt" height="476pt"
 viewBox="0.00 0.00 97.93 476.00" xmlns="http://www.w3.org/2000/svg" xmlns:xlink="http://www.w3.org/1999/xlink">
<g id="graph0" class="graph" transform="scale(1 1) rotate(0) translate(4 472)">
<title>File</title>
<polygon fill="#ffffff" stroke="transparent" points="-4,4 -4,-472 93.9307,-472 93.9307,4 -4,4"/>
<!-- Node0 -->
<g id="node1" class="node">
<title>Node0</title>
<polygon fill="#bfbfbf" stroke="#000000" points="11.2598,-.5 11.2598,-84.5 78.6709,-84.5 78.6709,-.5 11.2598,-.5"/>
<text text-anchor="middle" x="44.9653" y="-72.5" font-family="Helvetica,sans-Serif" font-size="10.00" fill="#000000">File</text>
<polyline fill="none" stroke="#000000" points="11.2598,-66.5 78.6709,-66.5 "/>
<text text-anchor="start" x="19.2598" y="-54.5" font-family="Helvetica,sans-Serif" font-size="10.00" fill="#000000">+ name</text>
<polyline fill="none" stroke="#000000" points="11.2598,-48.5 78.6709,-48.5 "/>
<text text-anchor="start" x="19.2598" y="-36.5" font-family="Helvetica,sans-Serif" font-size="10.00" fill="#000000">+ truncate()</text>
<text text-anchor="start" x="19.2598" y="-26.5" font-family="Helvetica,sans-Serif" font-size="10.00" fill="#000000">+ eof()</text>
<text text-anchor="start" x="19.2598" y="-16.5" font-family="Helvetica,sans-Serif" font-size="10.00" fill="#000000">+ flush()</text>
<text text-anchor="start" x="19.2598" y="-6.5" font-family="Helvetica,sans-Serif" font-size="10.00" fill="#000000">+ chmod()</text>
</g>
<!-- Node1 -->
<g id="node2" class="node">
<title>Node1</title>
<g id="a_node2"><a xlink:href="../../d6/d9c/interfaceSeekableStream.html" target="_top" xlink:title="Seekable stream interface. ">
<polygon fill="#ffffff" stroke="#000000" points="0,-121.5 0,-225.5 89.9307,-225.5 89.9307,-121.5 0,-121.5"/>
<text text-anchor="middle" x="44.9653" y="-213.5" font-family="Helvetica,sans-Serif" font-size="10.00" fill="#000000">SeekableStream</text>
<polyline fill="none" stroke="#000000" points="0,-207.5 89.9307,-207.5 "/>
<text text-anchor="middle" x="44.9653" y="-195.5" font-family="Helvetica,sans-Serif" font-size="10.00" fill="#000000"> </text>
<polyline fill="none" stroke="#000000" points="0,-189.5 89.9307,-189.5 "/>
<text text-anchor="start" x="8" y="-177.5" font-family="Helvetica,sans-Serif" font-size="10.00" fill="#000000">+ seek()</text>
<text text-anchor="start" x="8" y="-167.5" font-family="Helvetica,sans-Serif" font-size="10.00" fill="#000000">+ tell()</text>
<text text-anchor="start" x="8" y="-157.5" font-family="Helvetica,sans-Serif" font-size="10.00" fill="#000000">+ rewind()</text>
<text text-anchor="start" x="8" y="-147.5" font-family="Helvetica,sans-Serif" font-size="10.00" fill="#000000">+ size()</text>
<text text-anchor="start" x="8" y="-137.5" font-family="Helvetica,sans-Serif" font-size="10.00" fill="#000000">+ readAll()</text>
<text text-anchor="start" x="8" y="-127.5" font-family="Helvetica,sans-Serif" font-size="10.00" fill="#000000">+ stat()</text>
</a>
</g>
</g>
<!-- Node1&#45;&gt;Node0 -->
<g id="edge1" class="edge">
<title>Node1&#45;&gt;Node0</title>
<path fill="none" stroke="#191970" d="M44.9653,-111.2917C44.9653,-102.321 44.9653,-93.2677 44.9653,-84.8072"/>
<polygon fill="none" stroke="#191970" points="41.4654,-111.3489 44.9653,-121.3489 48.4654,-111.349 41.4654,-111.3489"/>
</g>
<!-- Node2 -->
<g id="node3" class="node">
<title>Node2</title>
<g id="a_node3"><a xlink:href="../../d4/dc7/interfaceStream.html" target="_top" xlink:title="Stream object for binary data. ">
<polygon fill="#ffffff" stroke="#000000" points="13.4839,-262.5 13.4839,-346.5 76.4468,-346.5 76.4468,-262.5 13.4839,-262.5"/>
<text text-anchor="middle" x="44.9653" y="-334.5" font-family="Helvetica,sans-Serif" font-size="10.00" fill="#000000">Stream</text>
<polyline fill="none" stroke="#000000" points="13.4839,-328.5 76.4468,-328.5 "/>
<text text-anchor="middle" x="44.9653" y="-316.5" font-family="Helvetica,sans-Serif" font-size="10.00" fill="#000000"> </text>
<polyline fill="none" stroke="#000000" points="13.4839,-310.5 76.4468,-310.5 "/>
<text text-anchor="start" x="21.4839" y="-298.5" font-family="Helvetica,sans-Serif" font-size="10.00" fill="#000000">+ read()</text>
<text text-anchor="start" x="21.4839" y="-288.5" font-family="Helvetica,sans-Serif" font-size="10.00" fill="#000000">+ write()</text>
<text text-anchor="start" x="21.4839" y="-278.5" font-family="Helvetica,sans-Serif" font-size="10.00" fill="#000000">+ close()</text>
<text text-anchor="start" x="21.4839" y="-268.5" font-family="Helvetica,sans-Serif" font-size="10.00" fill="#000000">+ copyTo()</text>
</a>
</g>
</g>
<!-- Node2&#45;&gt;Node1 -->
<g id="edge2" class="edge">
<title>Node2&#45;&gt;Node1</title>
<path fill="none" stroke="#191970" d="M44.9653,-252.2546C44.9653,-243.5097 44.9653,-234.4358 44.9653,-225.6923"/>
<polygon fill="none" stroke="#191970" points="41.4654,-252.3297 44.9653,-262.3297 48.4654,-252.3297 41.4654,-252.3297"/>
</g>
<!-- Node3 -->
<g id="node4" class="node">
<title>Node3</title>
<g id="a_node4"><a xlink:href="../../db/d38/interfaceobject.html" target="_top" xlink:title="All objects inherit from this. ">
<polygon fill="#ffffff" stroke="#000000" points="11.8213,-383.5 11.8213,-467.5 78.1094,-467.5 78.1094,-383.5 11.8213,-383.5"/>
<text text-anchor="middle" x="44.9653" y="-455.5" font-family="Helvetica,sans-Serif" font-size="10.00" fill="#000000">object</text>
<polyline fill="none" stroke="#000000" points="11.8213,-449.5 78.1094,-449.5 "/>
<text text-anchor="middle" x="44.9653" y="-437.5" font-family="Helvetica,sans-Serif" font-size="10.00" fill="#000000"> </text>
<polyline fill="none" stroke="#000000" points="11.8213,-431.5 78.1094,-431.5 "/>
<text text-anchor="start" x="19.8213" y="-419.5" font-family="Helvetica,sans-Serif" font-size="10.00" fill="#000000">+ dispose()</text>
<text text-anchor="start" x="19.8213" y="-409.5" font-family="Helvetica,sans-Serif" font-size="10.00" fill="#000000">+ toString()</text>
<text text-anchor="start" x="19.8213" y="-399.5" font-family="Helvetica,sans-Serif" font-size="10.00" fill="#000000">+ toJSON()</text>
<text text-anchor="start" x="19.8213" y="-389.5" font-family="Helvetica,sans-Serif" font-size="10.00" fill="#000000">+ valueOf()</text>
</a>
</g>
</g>
<!-- Node3&#45;&gt;Node2 -->
<g id="edge3" class="edge">
<title>Node3&#45;&gt;Node2</title>
<path fill="none" stroke="#191970" d="M44.9653,-372.977C44.9653,-364.1562 44.9653,-355.1052 44.9653,-346.5917"/>
<polygon fill="none" stroke="#191970" points="41.4654,-373.18 44.9653,-383.1801 48.4654,-373.1801 41.4654,-373.18"/>
</g>
</g>
</svg>
