<?xml version="1.0" encoding="UTF-8" standalone="no"?>
<!DOCTYPE svg PUBLIC "-//W3C//DTD SVG 1.1//EN"
 "http://www.w3.org/Graphics/SVG/1.1/DTD/svg11.dtd">
<!-- Generated by graphviz version 2.40.1 (20161225.0304)
 -->
<!-- Title: DBResult Pages: 1 -->
<svg width="85pt" height="465pt"
 viewBox="0.00 0.00 84.85 465.00" xmlns="http://www.w3.org/2000/svg" xmlns:xlink="http://www.w3.org/1999/xlink">
<g id="graph0" class="graph" transform="scale(1 1) rotate(0) translate(4 461)">
<title>DBResult</title>
<polygon fill="#ffffff" stroke="transparent" points="-4,4 -4,-461 80.8545,-461 80.8545,4 -4,4"/>
<!-- Node0 -->
<g id="node1" class="node">
<title>Node0</title>
<polygon fill="#bfbfbf" stroke="#000000" points="8.4155,-.5 8.4155,-74.5 68.439,-74.5 68.439,-.5 8.4155,-.5"/>
<text text-anchor="middle" x="38.4272" y="-62.5" font-family="Helvetica,sans-Serif" font-size="10.00" fill="#000000">DBResult</text>
<polyline fill="none" stroke="#000000" points="8.4155,-56.5 68.439,-56.5 "/>
<text text-anchor="start" x="16.4155" y="-44.5" font-family="Helvetica,sans-Serif" font-size="10.00" fill="#000000">+ insertId</text>
<text text-anchor="start" x="16.4155" y="-34.5" font-family="Helvetica,sans-Serif" font-size="10.00" fill="#000000">+ affected</text>
<text text-anchor="start" x="16.4155" y="-24.5" font-family="Helvetica,sans-Serif" font-size="10.00" fill="#000000">+ fields</text>
<polyline fill="none" stroke="#000000" points="8.4155,-18.5 68.439,-18.5 "/>
<text text-anchor="middle" x="38.4272" y="-6.5" font-family="Helvetica,sans-Serif" font-size="10.00" fill="#000000"> </text>
</g>
<!-- Node1 -->
<g id="node2" class="node">
<title>Node1</title>
<g id="a_node2"><a xlink:href="../../de/dd8/interfaceList.html" target="_top" xlink:title="Variant 数组对象，一般用以返回一组 Variant 数据 ">
<polygon fill="#ffffff" stroke="#000000" points="0,-111.5 0,-325.5 76.8545,-325.5 76.8545,-111.5 0,-111.5"/>
<text text-anchor="middle" x="38.4272" y="-313.5" font-family="Helvetica,sans-Serif" font-size="10.00" fill="#000000">List</text>
<polyline fill="none" stroke="#000000" points="0,-307.5 76.8545,-307.5 "/>
<text text-anchor="start" x="8" y="-295.5" font-family="Helvetica,sans-Serif" font-size="10.00" fill="#000000">+ operator[]</text>
<text text-anchor="start" x="8" y="-285.5" font-family="Helvetica,sans-Serif" font-size="10.00" fill="#000000">+ length</text>
<polyline fill="none" stroke="#000000" points="0,-279.5 76.8545,-279.5 "/>
<text text-anchor="start" x="8" y="-267.5" font-family="Helvetica,sans-Serif" font-size="10.00" fill="#000000">+ List()</text>
<text text-anchor="start" x="8" y="-257.5" font-family="Helvetica,sans-Serif" font-size="10.00" fill="#000000">+ List()</text>
<text text-anchor="start" x="8" y="-247.5" font-family="Helvetica,sans-Serif" font-size="10.00" fill="#000000">+ freeze()</text>
<text text-anchor="start" x="8" y="-237.5" font-family="Helvetica,sans-Serif" font-size="10.00" fill="#000000">+ resize()</text>
<text text-anchor="start" x="8" y="-227.5" font-family="Helvetica,sans-Serif" font-size="10.00" fill="#000000">+ push()</text>
<text text-anchor="start" x="8" y="-217.5" font-family="Helvetica,sans-Serif" font-size="10.00" fill="#000000">+ push()</text>
<text text-anchor="start" x="8" y="-207.5" font-family="Helvetica,sans-Serif" font-size="10.00" fill="#000000">+ pushArray()</text>
<text text-anchor="start" x="8" y="-197.5" font-family="Helvetica,sans-Serif" font-size="10.00" fill="#000000">+ pop()</text>
<text text-anchor="start" x="8" y="-187.5" font-family="Helvetica,sans-Serif" font-size="10.00" fill="#000000">+ slice()</text>
<text text-anchor="start" x="8" y="-177.5" font-family="Helvetica,sans-Serif" font-size="10.00" fill="#000000">+ concat()</text>
<text text-anchor="start" x="8" y="-167.5" font-family="Helvetica,sans-Serif" font-size="10.00" fill="#000000">+ every()</text>
<text text-anchor="start" x="8" y="-157.5" font-family="Helvetica,sans-Serif" font-size="10.00" fill="#000000">+ some()</text>
<text text-anchor="start" x="8" y="-147.5" font-family="Helvetica,sans-Serif" font-size="10.00" fill="#000000">+ filter()</text>
<text text-anchor="start" x="8" y="-137.5" font-family="Helvetica,sans-Serif" font-size="10.00" fill="#000000">+ forEach()</text>
<text text-anchor="start" x="8" y="-127.5" font-family="Helvetica,sans-Serif" font-size="10.00" fill="#000000">+ map()</text>
<text text-anchor="start" x="8" y="-117.5" font-family="Helvetica,sans-Serif" font-size="10.00" fill="#000000">+ toArray()</text>
</a>
</g>
</g>
<!-- Node1&#45;&gt;Node0 -->
<g id="edge1" class="edge">
<title>Node1&#45;&gt;Node0</title>
<path fill="none" stroke="#191970" d="M38.4272,-101.3425C38.4272,-91.8404 38.4272,-82.7688 38.4272,-74.6007"/>
<polygon fill="none" stroke="#191970" points="34.9273,-101.3807 38.4272,-111.3807 41.9273,-101.3807 34.9273,-101.3807"/>
</g>
<!-- Node2 -->
<g id="node3" class="node">
<title>Node2</title>
<g id="a_node3"><a xlink:href="../../db/d38/interfaceobject.html" target="_top" xlink:title="基础对象，所有对象均继承于此 ">
<polygon fill="#ffffff" stroke="#000000" points="5.2832,-362.5 5.2832,-456.5 71.5713,-456.5 71.5713,-362.5 5.2832,-362.5"/>
<text text-anchor="middle" x="38.4272" y="-444.5" font-family="Helvetica,sans-Serif" font-size="10.00" fill="#000000">object</text>
<polyline fill="none" stroke="#000000" points="5.2832,-438.5 71.5713,-438.5 "/>
<text text-anchor="middle" x="38.4272" y="-426.5" font-family="Helvetica,sans-Serif" font-size="10.00" fill="#000000"> </text>
<polyline fill="none" stroke="#000000" points="5.2832,-420.5 71.5713,-420.5 "/>
<text text-anchor="start" x="13.2832" y="-408.5" font-family="Helvetica,sans-Serif" font-size="10.00" fill="#000000">+ dispose()</text>
<text text-anchor="start" x="13.2832" y="-398.5" font-family="Helvetica,sans-Serif" font-size="10.00" fill="#000000">+ equals()</text>
<text text-anchor="start" x="13.2832" y="-388.5" font-family="Helvetica,sans-Serif" font-size="10.00" fill="#000000">+ toString()</text>
<text text-anchor="start" x="13.2832" y="-378.5" font-family="Helvetica,sans-Serif" font-size="10.00" fill="#000000">+ toJSON()</text>
<text text-anchor="start" x="13.2832" y="-368.5" font-family="Helvetica,sans-Serif" font-size="10.00" fill="#000000">+ valueOf()</text>
</a>
</g>
</g>
<!-- Node2&#45;&gt;Node1 -->
<g id="edge2" class="edge">
<title>Node2&#45;&gt;Node1</title>
<path fill="none" stroke="#191970" d="M38.4272,-352.2325C38.4272,-343.7769 38.4272,-334.8423 38.4272,-325.7637"/>
<polygon fill="none" stroke="#191970" points="34.9273,-352.2865 38.4272,-362.2865 41.9273,-352.2865 34.9273,-352.2865"/>
</g>
</g>
</svg>
