<?xml version="1.0" encoding="UTF-8" standalone="no"?>
<!DOCTYPE svg PUBLIC "-//W3C//DTD SVG 1.1//EN"
 "http://www.w3.org/Graphics/SVG/1.1/DTD/svg11.dtd">
<!-- Generated by graphviz version 2.38.0 (20140413.2041)
 -->
<!-- Title: Message Pages: 1 -->
<svg width="280pt" height="646pt"
 viewBox="0.00 0.00 279.65 646.00" xmlns="http://www.w3.org/2000/svg" xmlns:xlink="http://www.w3.org/1999/xlink">
<g id="graph0" class="graph" transform="scale(1 1) rotate(0) translate(4 642)">
<title>Message</title>
<polygon fill="white" stroke="none" points="-4,4 -4,-642 275.645,-642 275.645,4 -4,4"/>
<!-- Node1 -->
<g id="node1" class="node"><title>Node1</title>
<polygon fill="#bfbfbf" stroke="black" points="121.121,-342.5 121.121,-516.5 195.744,-516.5 195.744,-342.5 121.121,-342.5"/>
<text text-anchor="middle" x="158.432" y="-504.5" font-family="Helvetica,sans-Serif" font-size="10.00">Message</text>
<polyline fill="none" stroke="black" points="121.121,-498.5 195.744,-498.5 "/>
<text text-anchor="start" x="129.121" y="-486.5" font-family="Helvetica,sans-Serif" font-size="10.00">+ value</text>
<text text-anchor="start" x="129.121" y="-476.5" font-family="Helvetica,sans-Serif" font-size="10.00">+ params</text>
<text text-anchor="start" x="129.121" y="-466.5" font-family="Helvetica,sans-Serif" font-size="10.00">+ result</text>
<text text-anchor="start" x="129.121" y="-456.5" font-family="Helvetica,sans-Serif" font-size="10.00">+ body</text>
<text text-anchor="start" x="129.121" y="-446.5" font-family="Helvetica,sans-Serif" font-size="10.00">+ length</text>
<text text-anchor="start" x="129.121" y="-436.5" font-family="Helvetica,sans-Serif" font-size="10.00">+ stream</text>
<text text-anchor="start" x="129.121" y="-426.5" font-family="Helvetica,sans-Serif" font-size="10.00">+ response</text>
<polyline fill="none" stroke="black" points="121.121,-420.5 195.744,-420.5 "/>
<text text-anchor="start" x="129.121" y="-408.5" font-family="Helvetica,sans-Serif" font-size="10.00">+ Message()</text>
<text text-anchor="start" x="129.121" y="-398.5" font-family="Helvetica,sans-Serif" font-size="10.00">+ read()</text>
<text text-anchor="start" x="129.121" y="-388.5" font-family="Helvetica,sans-Serif" font-size="10.00">+ readAll()</text>
<text text-anchor="start" x="129.121" y="-378.5" font-family="Helvetica,sans-Serif" font-size="10.00">+ write()</text>
<text text-anchor="start" x="129.121" y="-368.5" font-family="Helvetica,sans-Serif" font-size="10.00">+ clear()</text>
<text text-anchor="start" x="129.121" y="-358.5" font-family="Helvetica,sans-Serif" font-size="10.00">+ sendTo()</text>
<text text-anchor="start" x="129.121" y="-348.5" font-family="Helvetica,sans-Serif" font-size="10.00">+ readFrom()</text>
</g>
<!-- Node3 -->
<g id="node3" class="node"><title>Node3</title>
<g id="a_node3"><a xlink:href="../../da/d38/interfaceHttpMessage.html" target="_top" xlink:title="http 基础消息对象 ">
<polygon fill="white" stroke="black" points="43.436,-141.5 43.436,-305.5 151.428,-305.5 151.428,-141.5 43.436,-141.5"/>
<text text-anchor="middle" x="97.4321" y="-293.5" font-family="Helvetica,sans-Serif" font-size="10.00">HttpMessage</text>
<polyline fill="none" stroke="black" points="43.436,-287.5 151.428,-287.5 "/>
<text text-anchor="start" x="51.436" y="-275.5" font-family="Helvetica,sans-Serif" font-size="10.00">+ protocol</text>
<text text-anchor="start" x="51.436" y="-265.5" font-family="Helvetica,sans-Serif" font-size="10.00">+ headers</text>
<text text-anchor="start" x="51.436" y="-255.5" font-family="Helvetica,sans-Serif" font-size="10.00">+ keepAlive</text>
<text text-anchor="start" x="51.436" y="-245.5" font-family="Helvetica,sans-Serif" font-size="10.00">+ maxHeadersCount</text>
<text text-anchor="start" x="51.436" y="-235.5" font-family="Helvetica,sans-Serif" font-size="10.00">+ maxUploadSize</text>
<polyline fill="none" stroke="black" points="43.436,-229.5 151.428,-229.5 "/>
<text text-anchor="start" x="51.436" y="-217.5" font-family="Helvetica,sans-Serif" font-size="10.00">+ hasHeader()</text>
<text text-anchor="start" x="51.436" y="-207.5" font-family="Helvetica,sans-Serif" font-size="10.00">+ firstHeader()</text>
<text text-anchor="start" x="51.436" y="-197.5" font-family="Helvetica,sans-Serif" font-size="10.00">+ allHeader()</text>
<text text-anchor="start" x="51.436" y="-187.5" font-family="Helvetica,sans-Serif" font-size="10.00">+ addHeader()</text>
<text text-anchor="start" x="51.436" y="-177.5" font-family="Helvetica,sans-Serif" font-size="10.00">+ addHeader()</text>
<text text-anchor="start" x="51.436" y="-167.5" font-family="Helvetica,sans-Serif" font-size="10.00">+ setHeader()</text>
<text text-anchor="start" x="51.436" y="-157.5" font-family="Helvetica,sans-Serif" font-size="10.00">+ setHeader()</text>
<text text-anchor="start" x="51.436" y="-147.5" font-family="Helvetica,sans-Serif" font-size="10.00">+ removeHeader()</text>
</a>
</g>
</g>
<!-- Node1&#45;&gt;Node3 -->
<g id="edge2" class="edge"><title>Node1&#45;&gt;Node3</title>
<path fill="none" stroke="midnightblue" d="M129.734,-332.524C127.034,-323.497 124.316,-314.407 121.664,-305.538"/>
<polygon fill="none" stroke="midnightblue" points="126.433,-333.703 132.651,-342.281 133.139,-331.698 126.433,-333.703"/>
</g>
<!-- Node6 -->
<g id="node6" class="node"><title>Node6</title>
<g id="a_node6"><a xlink:href="../../df/da2/interfacePacketMessage.html" target="_top" xlink:title="包处理消息对象 ">
<polygon fill="white" stroke="black" points="169.219,-196.5 169.219,-250.5 271.645,-250.5 271.645,-196.5 169.219,-196.5"/>
<text text-anchor="middle" x="220.432" y="-238.5" font-family="Helvetica,sans-Serif" font-size="10.00">PacketMessage</text>
<polyline fill="none" stroke="black" points="169.219,-232.5 271.645,-232.5 "/>
<text text-anchor="start" x="177.219" y="-220.5" font-family="Helvetica,sans-Serif" font-size="10.00">+ maxSize</text>
<polyline fill="none" stroke="black" points="169.219,-214.5 271.645,-214.5 "/>
<text text-anchor="start" x="177.219" y="-202.5" font-family="Helvetica,sans-Serif" font-size="10.00">+ PacketMessage()</text>
</a>
</g>
</g>
<!-- Node1&#45;&gt;Node6 -->
<g id="edge5" class="edge"><title>Node1&#45;&gt;Node6</title>
<path fill="none" stroke="midnightblue" d="M187.595,-332.545C196.745,-302.439 206.109,-271.629 212.483,-250.654"/>
<polygon fill="none" stroke="midnightblue" points="184.195,-331.696 184.636,-342.281 190.893,-333.731 184.195,-331.696"/>
</g>
<!-- Node2 -->
<g id="node2" class="node"><title>Node2</title>
<g id="a_node2"><a xlink:href="../../db/d38/interfaceobject.html" target="_top" xlink:title="基础对象，所有对象均继承于此 ">
<polygon fill="white" stroke="black" points="125.288,-553.5 125.288,-637.5 191.576,-637.5 191.576,-553.5 125.288,-553.5"/>
<text text-anchor="middle" x="158.432" y="-625.5" font-family="Helvetica,sans-Serif" font-size="10.00">object</text>
<polyline fill="none" stroke="black" points="125.288,-619.5 191.576,-619.5 "/>
<text text-anchor="middle" x="158.432" y="-607.5" font-family="Helvetica,sans-Serif" font-size="10.00"> </text>
<polyline fill="none" stroke="black" points="125.288,-601.5 191.576,-601.5 "/>
<text text-anchor="start" x="133.288" y="-589.5" font-family="Helvetica,sans-Serif" font-size="10.00">+ dispose()</text>
<text text-anchor="start" x="133.288" y="-579.5" font-family="Helvetica,sans-Serif" font-size="10.00">+ toString()</text>
<text text-anchor="start" x="133.288" y="-569.5" font-family="Helvetica,sans-Serif" font-size="10.00">+ toJSON()</text>
<text text-anchor="start" x="133.288" y="-559.5" font-family="Helvetica,sans-Serif" font-size="10.00">+ valueOf()</text>
</a>
</g>
</g>
<!-- Node2&#45;&gt;Node1 -->
<g id="edge1" class="edge"><title>Node2&#45;&gt;Node1</title>
<path fill="none" stroke="midnightblue" d="M158.432,-543.097C158.432,-534.653 158.432,-525.704 158.432,-516.687"/>
<polygon fill="none" stroke="midnightblue" points="154.932,-543.116 158.432,-553.116 161.932,-543.116 154.932,-543.116"/>
</g>
<!-- Node4 -->
<g id="node4" class="node"><title>Node4</title>
<g id="a_node4"><a xlink:href="../../d4/dfa/interfaceHttpRequest.html" target="_top" xlink:title="http 请求消息对象 ">
<polygon fill="white" stroke="black" points="0,-0.5 0,-104.5 86.8643,-104.5 86.8643,-0.5 0,-0.5"/>
<text text-anchor="middle" x="43.4321" y="-92.5" font-family="Helvetica,sans-Serif" font-size="10.00">HttpRequest</text>
<polyline fill="none" stroke="black" points="0,-86.5 86.8643,-86.5 "/>
<text text-anchor="start" x="8" y="-74.5" font-family="Helvetica,sans-Serif" font-size="10.00">+ method</text>
<text text-anchor="start" x="8" y="-64.5" font-family="Helvetica,sans-Serif" font-size="10.00">+ address</text>
<text text-anchor="start" x="8" y="-54.5" font-family="Helvetica,sans-Serif" font-size="10.00">+ queryString</text>
<text text-anchor="start" x="8" y="-44.5" font-family="Helvetica,sans-Serif" font-size="10.00">+ cookies</text>
<text text-anchor="start" x="8" y="-34.5" font-family="Helvetica,sans-Serif" font-size="10.00">+ form</text>
<text text-anchor="start" x="8" y="-24.5" font-family="Helvetica,sans-Serif" font-size="10.00">+ query</text>
<polyline fill="none" stroke="black" points="0,-18.5 86.8643,-18.5 "/>
<text text-anchor="start" x="8" y="-6.5" font-family="Helvetica,sans-Serif" font-size="10.00">+ HttpRequest()</text>
</a>
</g>
</g>
<!-- Node3&#45;&gt;Node4 -->
<g id="edge3" class="edge"><title>Node3&#45;&gt;Node4</title>
<path fill="none" stroke="midnightblue" d="M68.4404,-131.767C65.4722,-122.477 62.5362,-113.289 59.777,-104.653"/>
<polygon fill="none" stroke="midnightblue" points="65.1616,-133.005 71.5393,-141.465 71.8295,-130.874 65.1616,-133.005"/>
</g>
<!-- Node5 -->
<g id="node5" class="node"><title>Node5</title>
<g id="a_node5"><a xlink:href="../../d9/d71/interfaceHttpResponse.html" target="_top" xlink:title="http 响应消息对象 ">
<polygon fill="white" stroke="black" points="105.108,-5.5 105.108,-99.5 199.756,-99.5 199.756,-5.5 105.108,-5.5"/>
<text text-anchor="middle" x="152.432" y="-87.5" font-family="Helvetica,sans-Serif" font-size="10.00">HttpResponse</text>
<polyline fill="none" stroke="black" points="105.108,-81.5 199.756,-81.5 "/>
<text text-anchor="start" x="113.108" y="-69.5" font-family="Helvetica,sans-Serif" font-size="10.00">+ status</text>
<text text-anchor="start" x="113.108" y="-59.5" font-family="Helvetica,sans-Serif" font-size="10.00">+ cookies</text>
<polyline fill="none" stroke="black" points="105.108,-53.5 199.756,-53.5 "/>
<text text-anchor="start" x="113.108" y="-41.5" font-family="Helvetica,sans-Serif" font-size="10.00">+ HttpResponse()</text>
<text text-anchor="start" x="113.108" y="-31.5" font-family="Helvetica,sans-Serif" font-size="10.00">+ addCookie()</text>
<text text-anchor="start" x="113.108" y="-21.5" font-family="Helvetica,sans-Serif" font-size="10.00">+ redirect()</text>
<text text-anchor="start" x="113.108" y="-11.5" font-family="Helvetica,sans-Serif" font-size="10.00">+ sendHeader()</text>
</a>
</g>
</g>
<!-- Node3&#45;&gt;Node5 -->
<g id="edge4" class="edge"><title>Node3&#45;&gt;Node5</title>
<path fill="none" stroke="midnightblue" d="M126.99,-131.675C130.609,-120.557 134.18,-109.585 137.45,-99.5352"/>
<polygon fill="none" stroke="midnightblue" points="123.571,-130.873 123.804,-141.465 130.227,-133.039 123.571,-130.873"/>
</g>
</g>
</svg>
