<?xml version="1.0" encoding="UTF-8" standalone="no"?>
<!DOCTYPE svg PUBLIC "-//W3C//DTD SVG 1.1//EN"
 "http://www.w3.org/Graphics/SVG/1.1/DTD/svg11.dtd">
<!-- Generated by graphviz version 2.38.0 (20140413.2041)
 -->
<!-- Title: Message Pages: 1 -->
<svg width="421pt" height="656pt"
 viewBox="0.00 0.00 420.84 656.00" xmlns="http://www.w3.org/2000/svg" xmlns:xlink="http://www.w3.org/1999/xlink">
<g id="graph0" class="graph" transform="scale(1 1) rotate(0) translate(4 652)">
<title>Message</title>
<polygon fill="white" stroke="none" points="-4,4 -4,-652 416.838,-652 416.838,4 -4,4"/>
<!-- Node1 -->
<g id="node1" class="node"><title>Node1</title>
<polygon fill="#bfbfbf" stroke="black" points="183.121,-352.5 183.121,-526.5 257.744,-526.5 257.744,-352.5 183.121,-352.5"/>
<text text-anchor="middle" x="220.432" y="-514.5" font-family="Helvetica,sans-Serif" font-size="10.00">Message</text>
<polyline fill="none" stroke="black" points="183.121,-508.5 257.744,-508.5 "/>
<text text-anchor="start" x="191.121" y="-496.5" font-family="Helvetica,sans-Serif" font-size="10.00">+ value</text>
<text text-anchor="start" x="191.121" y="-486.5" font-family="Helvetica,sans-Serif" font-size="10.00">+ params</text>
<text text-anchor="start" x="191.121" y="-476.5" font-family="Helvetica,sans-Serif" font-size="10.00">+ result</text>
<text text-anchor="start" x="191.121" y="-466.5" font-family="Helvetica,sans-Serif" font-size="10.00">+ body</text>
<text text-anchor="start" x="191.121" y="-456.5" font-family="Helvetica,sans-Serif" font-size="10.00">+ length</text>
<text text-anchor="start" x="191.121" y="-446.5" font-family="Helvetica,sans-Serif" font-size="10.00">+ stream</text>
<text text-anchor="start" x="191.121" y="-436.5" font-family="Helvetica,sans-Serif" font-size="10.00">+ response</text>
<polyline fill="none" stroke="black" points="183.121,-430.5 257.744,-430.5 "/>
<text text-anchor="start" x="191.121" y="-418.5" font-family="Helvetica,sans-Serif" font-size="10.00">+ Message()</text>
<text text-anchor="start" x="191.121" y="-408.5" font-family="Helvetica,sans-Serif" font-size="10.00">+ read()</text>
<text text-anchor="start" x="191.121" y="-398.5" font-family="Helvetica,sans-Serif" font-size="10.00">+ readAll()</text>
<text text-anchor="start" x="191.121" y="-388.5" font-family="Helvetica,sans-Serif" font-size="10.00">+ write()</text>
<text text-anchor="start" x="191.121" y="-378.5" font-family="Helvetica,sans-Serif" font-size="10.00">+ clear()</text>
<text text-anchor="start" x="191.121" y="-368.5" font-family="Helvetica,sans-Serif" font-size="10.00">+ sendTo()</text>
<text text-anchor="start" x="191.121" y="-358.5" font-family="Helvetica,sans-Serif" font-size="10.00">+ readFrom()</text>
</g>
<!-- Node3 -->
<g id="node3" class="node"><title>Node3</title>
<g id="a_node3"><a xlink:href="../../da/d38/interfaceHttpMessage.html" target="_top" xlink:title="http 基础消息对象 ">
<polygon fill="white" stroke="black" points="43.436,-141.5 43.436,-315.5 151.428,-315.5 151.428,-141.5 43.436,-141.5"/>
<text text-anchor="middle" x="97.4321" y="-303.5" font-family="Helvetica,sans-Serif" font-size="10.00">HttpMessage</text>
<polyline fill="none" stroke="black" points="43.436,-297.5 151.428,-297.5 "/>
<text text-anchor="start" x="51.436" y="-285.5" font-family="Helvetica,sans-Serif" font-size="10.00">+ protocol</text>
<text text-anchor="start" x="51.436" y="-275.5" font-family="Helvetica,sans-Serif" font-size="10.00">+ headers</text>
<text text-anchor="start" x="51.436" y="-265.5" font-family="Helvetica,sans-Serif" font-size="10.00">+ keepAlive</text>
<text text-anchor="start" x="51.436" y="-255.5" font-family="Helvetica,sans-Serif" font-size="10.00">+ upgrade</text>
<text text-anchor="start" x="51.436" y="-245.5" font-family="Helvetica,sans-Serif" font-size="10.00">+ maxHeadersCount</text>
<text text-anchor="start" x="51.436" y="-235.5" font-family="Helvetica,sans-Serif" font-size="10.00">+ maxUploadSize</text>
<polyline fill="none" stroke="black" points="43.436,-229.5 151.428,-229.5 "/>
<text text-anchor="start" x="51.436" y="-217.5" font-family="Helvetica,sans-Serif" font-size="10.00">+ hasHeader()</text>
<text text-anchor="start" x="51.436" y="-207.5" font-family="Helvetica,sans-Serif" font-size="10.00">+ firstHeader()</text>
<text text-anchor="start" x="51.436" y="-197.5" font-family="Helvetica,sans-Serif" font-size="10.00">+ allHeader()</text>
<text text-anchor="start" x="51.436" y="-187.5" font-family="Helvetica,sans-Serif" font-size="10.00">+ addHeader()</text>
<text text-anchor="start" x="51.436" y="-177.5" font-family="Helvetica,sans-Serif" font-size="10.00">+ addHeader()</text>
<text text-anchor="start" x="51.436" y="-167.5" font-family="Helvetica,sans-Serif" font-size="10.00">+ setHeader()</text>
<text text-anchor="start" x="51.436" y="-157.5" font-family="Helvetica,sans-Serif" font-size="10.00">+ setHeader()</text>
<text text-anchor="start" x="51.436" y="-147.5" font-family="Helvetica,sans-Serif" font-size="10.00">+ removeHeader()</text>
</a>
</g>
</g>
<!-- Node1&#45;&gt;Node3 -->
<g id="edge2" class="edge"><title>Node1&#45;&gt;Node3</title>
<path fill="none" stroke="midnightblue" d="M177.81,-366.077C168.283,-349.888 158.086,-332.563 148.264,-315.874"/>
<polygon fill="none" stroke="midnightblue" points="174.939,-368.099 183.027,-374.942 180.971,-364.548 174.939,-368.099"/>
</g>
<!-- Node6 -->
<g id="node6" class="node"><title>Node6</title>
<g id="a_node6"><a xlink:href="../../df/da2/interfacePacketMessage.html" target="_top" xlink:title="包处理消息对象 ">
<polygon fill="white" stroke="black" points="169.219,-201.5 169.219,-255.5 271.645,-255.5 271.645,-201.5 169.219,-201.5"/>
<text text-anchor="middle" x="220.432" y="-243.5" font-family="Helvetica,sans-Serif" font-size="10.00">PacketMessage</text>
<polyline fill="none" stroke="black" points="169.219,-237.5 271.645,-237.5 "/>
<text text-anchor="start" x="177.219" y="-225.5" font-family="Helvetica,sans-Serif" font-size="10.00">+ maxSize</text>
<polyline fill="none" stroke="black" points="169.219,-219.5 271.645,-219.5 "/>
<text text-anchor="start" x="177.219" y="-207.5" font-family="Helvetica,sans-Serif" font-size="10.00">+ PacketMessage()</text>
</a>
</g>
</g>
<!-- Node1&#45;&gt;Node6 -->
<g id="edge5" class="edge"><title>Node1&#45;&gt;Node6</title>
<path fill="none" stroke="midnightblue" d="M220.432,-342.074C220.432,-310.473 220.432,-277.88 220.432,-255.95"/>
<polygon fill="none" stroke="midnightblue" points="216.932,-342.285 220.432,-352.285 223.932,-342.285 216.932,-342.285"/>
</g>
<!-- Node7 -->
<g id="node7" class="node"><title>Node7</title>
<g id="a_node7"><a xlink:href="../../db/d5d/interfaceWebSocketMessage.html" target="_top" xlink:title="websocket 消息对象 ">
<polygon fill="white" stroke="black" points="290.026,-191.5 290.026,-265.5 412.838,-265.5 412.838,-191.5 290.026,-191.5"/>
<text text-anchor="middle" x="351.432" y="-253.5" font-family="Helvetica,sans-Serif" font-size="10.00">WebSocketMessage</text>
<polyline fill="none" stroke="black" points="290.026,-247.5 412.838,-247.5 "/>
<text text-anchor="start" x="298.026" y="-235.5" font-family="Helvetica,sans-Serif" font-size="10.00">+ type</text>
<text text-anchor="start" x="298.026" y="-225.5" font-family="Helvetica,sans-Serif" font-size="10.00">+ masked</text>
<text text-anchor="start" x="298.026" y="-215.5" font-family="Helvetica,sans-Serif" font-size="10.00">+ maxSize</text>
<polyline fill="none" stroke="black" points="290.026,-209.5 412.838,-209.5 "/>
<text text-anchor="start" x="298.026" y="-197.5" font-family="Helvetica,sans-Serif" font-size="10.00">+ WebSocketMessage()</text>
</a>
</g>
</g>
<!-- Node1&#45;&gt;Node7 -->
<g id="edge6" class="edge"><title>Node1&#45;&gt;Node7</title>
<path fill="none" stroke="midnightblue" d="M263.264,-370.166C285.122,-335.293 310.822,-294.29 328.817,-265.58"/>
<polygon fill="none" stroke="midnightblue" points="260.142,-368.557 257.796,-378.889 266.073,-372.274 260.142,-368.557"/>
</g>
<!-- Node2 -->
<g id="node2" class="node"><title>Node2</title>
<g id="a_node2"><a xlink:href="../../db/d38/interfaceobject.html" target="_top" xlink:title="基础对象，所有对象均继承于此 ">
<polygon fill="white" stroke="black" points="187.288,-563.5 187.288,-647.5 253.576,-647.5 253.576,-563.5 187.288,-563.5"/>
<text text-anchor="middle" x="220.432" y="-635.5" font-family="Helvetica,sans-Serif" font-size="10.00">object</text>
<polyline fill="none" stroke="black" points="187.288,-629.5 253.576,-629.5 "/>
<text text-anchor="middle" x="220.432" y="-617.5" font-family="Helvetica,sans-Serif" font-size="10.00"> </text>
<polyline fill="none" stroke="black" points="187.288,-611.5 253.576,-611.5 "/>
<text text-anchor="start" x="195.288" y="-599.5" font-family="Helvetica,sans-Serif" font-size="10.00">+ dispose()</text>
<text text-anchor="start" x="195.288" y="-589.5" font-family="Helvetica,sans-Serif" font-size="10.00">+ toString()</text>
<text text-anchor="start" x="195.288" y="-579.5" font-family="Helvetica,sans-Serif" font-size="10.00">+ toJSON()</text>
<text text-anchor="start" x="195.288" y="-569.5" font-family="Helvetica,sans-Serif" font-size="10.00">+ valueOf()</text>
</a>
</g>
</g>
<!-- Node2&#45;&gt;Node1 -->
<g id="edge1" class="edge"><title>Node2&#45;&gt;Node1</title>
<path fill="none" stroke="midnightblue" d="M220.432,-553.097C220.432,-544.653 220.432,-535.704 220.432,-526.687"/>
<polygon fill="none" stroke="midnightblue" points="216.932,-553.116 220.432,-563.116 223.932,-553.116 216.932,-553.116"/>
</g>
<!-- Node4 -->
<g id="node4" class="node"><title>Node4</title>
<g id="a_node4"><a xlink:href="../../d4/dfa/interfaceHttpRequest.html" target="_top" xlink:title="http 请求消息对象 ">
<polygon fill="white" stroke="black" points="0,-0.5 0,-104.5 86.8643,-104.5 86.8643,-0.5 0,-0.5"/>
<text text-anchor="middle" x="43.4321" y="-92.5" font-family="Helvetica,sans-Serif" font-size="10.00">HttpRequest</text>
<polyline fill="none" stroke="black" points="0,-86.5 86.8643,-86.5 "/>
<text text-anchor="start" x="8" y="-74.5" font-family="Helvetica,sans-Serif" font-size="10.00">+ method</text>
<text text-anchor="start" x="8" y="-64.5" font-family="Helvetica,sans-Serif" font-size="10.00">+ address</text>
<text text-anchor="start" x="8" y="-54.5" font-family="Helvetica,sans-Serif" font-size="10.00">+ queryString</text>
<text text-anchor="start" x="8" y="-44.5" font-family="Helvetica,sans-Serif" font-size="10.00">+ cookies</text>
<text text-anchor="start" x="8" y="-34.5" font-family="Helvetica,sans-Serif" font-size="10.00">+ form</text>
<text text-anchor="start" x="8" y="-24.5" font-family="Helvetica,sans-Serif" font-size="10.00">+ query</text>
<polyline fill="none" stroke="black" points="0,-18.5 86.8643,-18.5 "/>
<text text-anchor="start" x="8" y="-6.5" font-family="Helvetica,sans-Serif" font-size="10.00">+ HttpRequest()</text>
</a>
</g>
</g>
<!-- Node3&#45;&gt;Node4 -->
<g id="edge3" class="edge"><title>Node3&#45;&gt;Node4</title>
<path fill="none" stroke="midnightblue" d="M67.6788,-131.628C64.8183,-122.411 61.9994,-113.328 59.3524,-104.799"/>
<polygon fill="none" stroke="midnightblue" points="64.3626,-132.751 70.6694,-141.265 71.0481,-130.677 64.3626,-132.751"/>
</g>
<!-- Node5 -->
<g id="node5" class="node"><title>Node5</title>
<g id="a_node5"><a xlink:href="../../d9/d71/interfaceHttpResponse.html" target="_top" xlink:title="http 响应消息对象 ">
<polygon fill="white" stroke="black" points="105.108,-5.5 105.108,-99.5 199.756,-99.5 199.756,-5.5 105.108,-5.5"/>
<text text-anchor="middle" x="152.432" y="-87.5" font-family="Helvetica,sans-Serif" font-size="10.00">HttpResponse</text>
<polyline fill="none" stroke="black" points="105.108,-81.5 199.756,-81.5 "/>
<text text-anchor="start" x="113.108" y="-69.5" font-family="Helvetica,sans-Serif" font-size="10.00">+ status</text>
<text text-anchor="start" x="113.108" y="-59.5" font-family="Helvetica,sans-Serif" font-size="10.00">+ cookies</text>
<polyline fill="none" stroke="black" points="105.108,-53.5 199.756,-53.5 "/>
<text text-anchor="start" x="113.108" y="-41.5" font-family="Helvetica,sans-Serif" font-size="10.00">+ HttpResponse()</text>
<text text-anchor="start" x="113.108" y="-31.5" font-family="Helvetica,sans-Serif" font-size="10.00">+ addCookie()</text>
<text text-anchor="start" x="113.108" y="-21.5" font-family="Helvetica,sans-Serif" font-size="10.00">+ redirect()</text>
<text text-anchor="start" x="113.108" y="-11.5" font-family="Helvetica,sans-Serif" font-size="10.00">+ sendHeader()</text>
</a>
</g>
</g>
<!-- Node3&#45;&gt;Node5 -->
<g id="edge4" class="edge"><title>Node3&#45;&gt;Node5</title>
<path fill="none" stroke="midnightblue" d="M127.77,-131.521C131.264,-120.469 134.695,-109.613 137.836,-99.6755"/>
<polygon fill="none" stroke="midnightblue" points="124.367,-130.675 124.69,-141.265 131.042,-132.785 124.367,-130.675"/>
</g>
</g>
</svg>
