<?xml version="1.0" encoding="UTF-8" standalone="no"?>
<!DOCTYPE svg PUBLIC "-//W3C//DTD SVG 1.1//EN"
 "http://www.w3.org/Graphics/SVG/1.1/DTD/svg11.dtd">
<!-- Generated by graphviz version 2.38.0 (20140413.2041)
 -->
<!-- Title: HttpMessage Pages: 1 -->
<svg width="208pt" height="656pt"
 viewBox="0.00 0.00 207.76 656.00" xmlns="http://www.w3.org/2000/svg" xmlns:xlink="http://www.w3.org/1999/xlink">
<g id="graph0" class="graph" transform="scale(1 1) rotate(0) translate(4 652)">
<title>HttpMessage</title>
<polygon fill="white" stroke="none" points="-4,4 -4,-652 203.756,-652 203.756,4 -4,4"/>
<!-- Node1 -->
<g id="node1" class="node"><title>Node1</title>
<polygon fill="#bfbfbf" stroke="black" points="43.436,-141.5 43.436,-315.5 151.428,-315.5 151.428,-141.5 43.436,-141.5"/>
<text text-anchor="middle" x="97.4321" y="-303.5" font-family="Helvetica,sans-Serif" font-size="10.00">HttpMessage</text>
<polyline fill="none" stroke="black" points="43.436,-297.5 151.428,-297.5 "/>
<text text-anchor="start" x="51.436" y="-285.5" font-family="Helvetica,sans-Serif" font-size="10.00">+ protocol</text>
<text text-anchor="start" x="51.436" y="-275.5" font-family="Helvetica,sans-Serif" font-size="10.00">+ headers</text>
<text text-anchor="start" x="51.436" y="-265.5" font-family="Helvetica,sans-Serif" font-size="10.00">+ keepAlive</text>
<text text-anchor="start" x="51.436" y="-255.5" font-family="Helvetica,sans-Serif" font-size="10.00">+ upgrade</text>
<text text-anchor="start" x="51.436" y="-245.5" font-family="Helvetica,sans-Serif" font-size="10.00">+ maxHeadersCount</text>
<text text-anchor="start" x="51.436" y="-235.5" font-family="Helvetica,sans-Serif" font-size="10.00">+ maxUploadSize</text>
<polyline fill="none" stroke="black" points="43.436,-229.5 151.428,-229.5 "/>
<text text-anchor="start" x="51.436" y="-217.5" font-family="Helvetica,sans-Serif" font-size="10.00">+ hasHeader()</text>
<text text-anchor="start" x="51.436" y="-207.5" font-family="Helvetica,sans-Serif" font-size="10.00">+ firstHeader()</text>
<text text-anchor="start" x="51.436" y="-197.5" font-family="Helvetica,sans-Serif" font-size="10.00">+ allHeader()</text>
<text text-anchor="start" x="51.436" y="-187.5" font-family="Helvetica,sans-Serif" font-size="10.00">+ addHeader()</text>
<text text-anchor="start" x="51.436" y="-177.5" font-family="Helvetica,sans-Serif" font-size="10.00">+ addHeader()</text>
<text text-anchor="start" x="51.436" y="-167.5" font-family="Helvetica,sans-Serif" font-size="10.00">+ setHeader()</text>
<text text-anchor="start" x="51.436" y="-157.5" font-family="Helvetica,sans-Serif" font-size="10.00">+ setHeader()</text>
<text text-anchor="start" x="51.436" y="-147.5" font-family="Helvetica,sans-Serif" font-size="10.00">+ removeHeader()</text>
</g>
<!-- Node4 -->
<g id="node4" class="node"><title>Node4</title>
<g id="a_node4"><a xlink:href="../../d4/dfa/interfaceHttpRequest.html" target="_top" xlink:title="http request message object ">
<polygon fill="white" stroke="black" points="0,-0.5 0,-104.5 86.8643,-104.5 86.8643,-0.5 0,-0.5"/>
<text text-anchor="middle" x="43.4321" y="-92.5" font-family="Helvetica,sans-Serif" font-size="10.00">HttpRequest</text>
<polyline fill="none" stroke="black" points="0,-86.5 86.8643,-86.5 "/>
<text text-anchor="start" x="8" y="-74.5" font-family="Helvetica,sans-Serif" font-size="10.00">+ method</text>
<text text-anchor="start" x="8" y="-64.5" font-family="Helvetica,sans-Serif" font-size="10.00">+ address</text>
<text text-anchor="start" x="8" y="-54.5" font-family="Helvetica,sans-Serif" font-size="10.00">+ queryString</text>
<text text-anchor="start" x="8" y="-44.5" font-family="Helvetica,sans-Serif" font-size="10.00">+ cookies</text>
<text text-anchor="start" x="8" y="-34.5" font-family="Helvetica,sans-Serif" font-size="10.00">+ form</text>
<text text-anchor="start" x="8" y="-24.5" font-family="Helvetica,sans-Serif" font-size="10.00">+ query</text>
<polyline fill="none" stroke="black" points="0,-18.5 86.8643,-18.5 "/>
<text text-anchor="start" x="8" y="-6.5" font-family="Helvetica,sans-Serif" font-size="10.00">+ HttpRequest()</text>
</a>
</g>
</g>
<!-- Node1&#45;&gt;Node4 -->
<g id="edge3" class="edge"><title>Node1&#45;&gt;Node4</title>
<path fill="none" stroke="midnightblue" d="M67.6788,-131.628C64.8183,-122.411 61.9994,-113.328 59.3524,-104.799"/>
<polygon fill="none" stroke="midnightblue" points="64.3626,-132.751 70.6694,-141.265 71.0481,-130.677 64.3626,-132.751"/>
</g>
<!-- Node5 -->
<g id="node5" class="node"><title>Node5</title>
<g id="a_node5"><a xlink:href="../../d9/d71/interfaceHttpResponse.html" target="_top" xlink:title="http response message object ">
<polygon fill="white" stroke="black" points="105.108,-10.5 105.108,-94.5 199.756,-94.5 199.756,-10.5 105.108,-10.5"/>
<text text-anchor="middle" x="152.432" y="-82.5" font-family="Helvetica,sans-Serif" font-size="10.00">HttpResponse</text>
<polyline fill="none" stroke="black" points="105.108,-76.5 199.756,-76.5 "/>
<text text-anchor="start" x="113.108" y="-64.5" font-family="Helvetica,sans-Serif" font-size="10.00">+ status</text>
<text text-anchor="start" x="113.108" y="-54.5" font-family="Helvetica,sans-Serif" font-size="10.00">+ cookies</text>
<polyline fill="none" stroke="black" points="105.108,-48.5 199.756,-48.5 "/>
<text text-anchor="start" x="113.108" y="-36.5" font-family="Helvetica,sans-Serif" font-size="10.00">+ HttpResponse()</text>
<text text-anchor="start" x="113.108" y="-26.5" font-family="Helvetica,sans-Serif" font-size="10.00">+ addCookie()</text>
<text text-anchor="start" x="113.108" y="-16.5" font-family="Helvetica,sans-Serif" font-size="10.00">+ redirect()</text>
</a>
</g>
</g>
<!-- Node1&#45;&gt;Node5 -->
<g id="edge4" class="edge"><title>Node1&#45;&gt;Node5</title>
<path fill="none" stroke="midnightblue" d="M127.813,-131.385C131.883,-118.509 135.868,-105.903 139.406,-94.7106"/>
<polygon fill="none" stroke="midnightblue" points="124.367,-130.675 124.69,-141.265 131.042,-132.785 124.367,-130.675"/>
</g>
<!-- Node2 -->
<g id="node2" class="node"><title>Node2</title>
<g id="a_node2"><a xlink:href="../../d6/db7/interfaceMessage.html" target="_top" xlink:title="Basic message object. ">
<polygon fill="white" stroke="black" points="60.1206,-352.5 60.1206,-526.5 134.744,-526.5 134.744,-352.5 60.1206,-352.5"/>
<text text-anchor="middle" x="97.4321" y="-514.5" font-family="Helvetica,sans-Serif" font-size="10.00">Message</text>
<polyline fill="none" stroke="black" points="60.1206,-508.5 134.744,-508.5 "/>
<text text-anchor="start" x="68.1206" y="-496.5" font-family="Helvetica,sans-Serif" font-size="10.00">+ value</text>
<text text-anchor="start" x="68.1206" y="-486.5" font-family="Helvetica,sans-Serif" font-size="10.00">+ params</text>
<text text-anchor="start" x="68.1206" y="-476.5" font-family="Helvetica,sans-Serif" font-size="10.00">+ result</text>
<text text-anchor="start" x="68.1206" y="-466.5" font-family="Helvetica,sans-Serif" font-size="10.00">+ body</text>
<text text-anchor="start" x="68.1206" y="-456.5" font-family="Helvetica,sans-Serif" font-size="10.00">+ length</text>
<text text-anchor="start" x="68.1206" y="-446.5" font-family="Helvetica,sans-Serif" font-size="10.00">+ stream</text>
<text text-anchor="start" x="68.1206" y="-436.5" font-family="Helvetica,sans-Serif" font-size="10.00">+ response</text>
<polyline fill="none" stroke="black" points="60.1206,-430.5 134.744,-430.5 "/>
<text text-anchor="start" x="68.1206" y="-418.5" font-family="Helvetica,sans-Serif" font-size="10.00">+ Message()</text>
<text text-anchor="start" x="68.1206" y="-408.5" font-family="Helvetica,sans-Serif" font-size="10.00">+ read()</text>
<text text-anchor="start" x="68.1206" y="-398.5" font-family="Helvetica,sans-Serif" font-size="10.00">+ readAll()</text>
<text text-anchor="start" x="68.1206" y="-388.5" font-family="Helvetica,sans-Serif" font-size="10.00">+ write()</text>
<text text-anchor="start" x="68.1206" y="-378.5" font-family="Helvetica,sans-Serif" font-size="10.00">+ clear()</text>
<text text-anchor="start" x="68.1206" y="-368.5" font-family="Helvetica,sans-Serif" font-size="10.00">+ sendTo()</text>
<text text-anchor="start" x="68.1206" y="-358.5" font-family="Helvetica,sans-Serif" font-size="10.00">+ readFrom()</text>
</a>
</g>
</g>
<!-- Node2&#45;&gt;Node1 -->
<g id="edge1" class="edge"><title>Node2&#45;&gt;Node1</title>
<path fill="none" stroke="midnightblue" d="M97.4321,-342.261C97.4321,-333.34 97.4321,-324.337 97.4321,-315.517"/>
<polygon fill="none" stroke="midnightblue" points="93.9322,-342.285 97.4321,-352.285 100.932,-342.285 93.9322,-342.285"/>
</g>
<!-- Node3 -->
<g id="node3" class="node"><title>Node3</title>
<g id="a_node3"><a xlink:href="../../db/d38/interfaceobject.html" target="_top" xlink:title="All objects inherit from this. ">
<polygon fill="white" stroke="black" points="64.2881,-563.5 64.2881,-647.5 130.576,-647.5 130.576,-563.5 64.2881,-563.5"/>
<text text-anchor="middle" x="97.4321" y="-635.5" font-family="Helvetica,sans-Serif" font-size="10.00">object</text>
<polyline fill="none" stroke="black" points="64.2881,-629.5 130.576,-629.5 "/>
<text text-anchor="middle" x="97.4321" y="-617.5" font-family="Helvetica,sans-Serif" font-size="10.00"> </text>
<polyline fill="none" stroke="black" points="64.2881,-611.5 130.576,-611.5 "/>
<text text-anchor="start" x="72.2881" y="-599.5" font-family="Helvetica,sans-Serif" font-size="10.00">+ dispose()</text>
<text text-anchor="start" x="72.2881" y="-589.5" font-family="Helvetica,sans-Serif" font-size="10.00">+ toString()</text>
<text text-anchor="start" x="72.2881" y="-579.5" font-family="Helvetica,sans-Serif" font-size="10.00">+ toJSON()</text>
<text text-anchor="start" x="72.2881" y="-569.5" font-family="Helvetica,sans-Serif" font-size="10.00">+ valueOf()</text>
</a>
</g>
</g>
<!-- Node3&#45;&gt;Node2 -->
<g id="edge2" class="edge"><title>Node3&#45;&gt;Node2</title>
<path fill="none" stroke="midnightblue" d="M97.4321,-553.097C97.4321,-544.653 97.4321,-535.704 97.4321,-526.687"/>
<polygon fill="none" stroke="midnightblue" points="93.9322,-553.116 97.4321,-563.116 100.932,-553.116 93.9322,-553.116"/>
</g>
</g>
</svg>
