<?xml version="1.0" encoding="UTF-8" standalone="no"?>
<!DOCTYPE svg PUBLIC "-//W3C//DTD SVG 1.1//EN"
 "http://www.w3.org/Graphics/SVG/1.1/DTD/svg11.dtd">
<!-- Generated by graphviz version 2.40.1 (20161225.0304)
 -->
<!-- Title: MySQL Pages: 1 -->
<svg width="87pt" height="355pt"
 viewBox="0.00 0.00 87.37 355.00" xmlns="http://www.w3.org/2000/svg" xmlns:xlink="http://www.w3.org/1999/xlink">
<g id="graph0" class="graph" transform="scale(1 1) rotate(0) translate(4 351)">
<title>MySQL</title>
<polygon fill="#ffffff" stroke="transparent" points="-4,4 -4,-351 83.374,-351 83.374,4 -4,4"/>
<!-- Node0 -->
<g id="node1" class="node">
<title>Node0</title>
<polygon fill="#bfbfbf" stroke="#000000" points=".2344,-.5 .2344,-64.5 79.1396,-64.5 79.1396,-.5 .2344,-.5"/>
<text text-anchor="middle" x="39.687" y="-52.5" font-family="Helvetica,sans-Serif" font-size="10.00" fill="#000000">MySQL</text>
<polyline fill="none" stroke="#000000" points=".2344,-46.5 79.1396,-46.5 "/>
<text text-anchor="start" x="8.2344" y="-34.5" font-family="Helvetica,sans-Serif" font-size="10.00" fill="#000000">+ rxBufferSize</text>
<text text-anchor="start" x="8.2344" y="-24.5" font-family="Helvetica,sans-Serif" font-size="10.00" fill="#000000">+ txBufferSize</text>
<polyline fill="none" stroke="#000000" points=".2344,-18.5 79.1396,-18.5 "/>
<text text-anchor="start" x="8.2344" y="-6.5" font-family="Helvetica,sans-Serif" font-size="10.00" fill="#000000">+ use()</text>
</g>
<!-- Node1 -->
<g id="node2" class="node">
<title>Node1</title>
<g id="a_node2"><a xlink:href="../../d8/d2c/interfaceDbConnection.html" target="_top" xlink:title="数据库连接对象，用于建立和维护一个数据库连接会话。 ">
<polygon fill="#ffffff" stroke="#000000" points="0,-101.5 0,-215.5 79.374,-215.5 79.374,-101.5 0,-101.5"/>
<text text-anchor="middle" x="39.687" y="-203.5" font-family="Helvetica,sans-Serif" font-size="10.00" fill="#000000">DbConnection</text>
<polyline fill="none" stroke="#000000" points="0,-197.5 79.374,-197.5 "/>
<text text-anchor="start" x="8" y="-185.5" font-family="Helvetica,sans-Serif" font-size="10.00" fill="#000000">+ type</text>
<polyline fill="none" stroke="#000000" points="0,-179.5 79.374,-179.5 "/>
<text text-anchor="start" x="8" y="-167.5" font-family="Helvetica,sans-Serif" font-size="10.00" fill="#000000">+ close()</text>
<text text-anchor="start" x="8" y="-157.5" font-family="Helvetica,sans-Serif" font-size="10.00" fill="#000000">+ begin()</text>
<text text-anchor="start" x="8" y="-147.5" font-family="Helvetica,sans-Serif" font-size="10.00" fill="#000000">+ commit()</text>
<text text-anchor="start" x="8" y="-137.5" font-family="Helvetica,sans-Serif" font-size="10.00" fill="#000000">+ rollback()</text>
<text text-anchor="start" x="8" y="-127.5" font-family="Helvetica,sans-Serif" font-size="10.00" fill="#000000">+ execute()</text>
<text text-anchor="start" x="8" y="-117.5" font-family="Helvetica,sans-Serif" font-size="10.00" fill="#000000">+ execute()</text>
<text text-anchor="start" x="8" y="-107.5" font-family="Helvetica,sans-Serif" font-size="10.00" fill="#000000">+ format()</text>
</a>
</g>
</g>
<!-- Node1&#45;&gt;Node0 -->
<g id="edge1" class="edge">
<title>Node1&#45;&gt;Node0</title>
<path fill="none" stroke="#191970" d="M39.687,-91.3034C39.687,-82.0088 39.687,-72.8366 39.687,-64.6007"/>
<polygon fill="none" stroke="#191970" points="36.1871,-91.3985 39.687,-101.3986 43.1871,-91.3986 36.1871,-91.3985"/>
</g>
<!-- Node2 -->
<g id="node3" class="node">
<title>Node2</title>
<g id="a_node3"><a xlink:href="../../db/d38/interfaceobject.html" target="_top" xlink:title="基础对象，所有对象均继承于此 ">
<polygon fill="#ffffff" stroke="#000000" points="6.543,-252.5 6.543,-346.5 72.8311,-346.5 72.8311,-252.5 6.543,-252.5"/>
<text text-anchor="middle" x="39.687" y="-334.5" font-family="Helvetica,sans-Serif" font-size="10.00" fill="#000000">object</text>
<polyline fill="none" stroke="#000000" points="6.543,-328.5 72.8311,-328.5 "/>
<text text-anchor="middle" x="39.687" y="-316.5" font-family="Helvetica,sans-Serif" font-size="10.00" fill="#000000"> </text>
<polyline fill="none" stroke="#000000" points="6.543,-310.5 72.8311,-310.5 "/>
<text text-anchor="start" x="14.543" y="-298.5" font-family="Helvetica,sans-Serif" font-size="10.00" fill="#000000">+ dispose()</text>
<text text-anchor="start" x="14.543" y="-288.5" font-family="Helvetica,sans-Serif" font-size="10.00" fill="#000000">+ equals()</text>
<text text-anchor="start" x="14.543" y="-278.5" font-family="Helvetica,sans-Serif" font-size="10.00" fill="#000000">+ toString()</text>
<text text-anchor="start" x="14.543" y="-268.5" font-family="Helvetica,sans-Serif" font-size="10.00" fill="#000000">+ toJSON()</text>
<text text-anchor="start" x="14.543" y="-258.5" font-family="Helvetica,sans-Serif" font-size="10.00" fill="#000000">+ valueOf()</text>
</a>
</g>
</g>
<!-- Node2&#45;&gt;Node1 -->
<g id="edge2" class="edge">
<title>Node2&#45;&gt;Node1</title>
<path fill="none" stroke="#191970" d="M39.687,-242.1082C39.687,-233.412 39.687,-224.44 39.687,-215.7469"/>
<polygon fill="none" stroke="#191970" points="36.1871,-242.1568 39.687,-252.1568 43.1871,-242.1568 36.1871,-242.1568"/>
</g>
</g>
</svg>
