<?xml version="1.0" encoding="UTF-8" standalone="no"?>
<!DOCTYPE svg PUBLIC "-//W3C//DTD SVG 1.1//EN"
 "http://www.w3.org/Graphics/SVG/1.1/DTD/svg11.dtd">
<!-- Generated by graphviz version 2.38.0 (20140413.2041)
 -->
<!-- Title: EventEmitter Pages: 1 -->
<svg width="124pt" height="455pt"
 viewBox="0.00 0.00 124.31 455.00" xmlns="http://www.w3.org/2000/svg" xmlns:xlink="http://www.w3.org/1999/xlink">
<g id="graph0" class="graph" transform="scale(1 1) rotate(0) translate(4 451)">
<title>EventEmitter</title>
<polygon fill="white" stroke="none" points="-4,4 -4,-451 120.312,-451 120.312,4 -4,4"/>
<!-- Node1 -->
<g id="node1" class="node"><title>Node1</title>
<polygon fill="#bfbfbf" stroke="black" points="13.8965,-0.5 13.8965,-54.5 102.416,-54.5 102.416,-0.5 13.8965,-0.5"/>
<text text-anchor="middle" x="58.1562" y="-42.5" font-family="Helvetica,sans-Serif" font-size="10.00">EventEmitter</text>
<polyline fill="none" stroke="black" points="13.8965,-36.5 102.416,-36.5 "/>
<text text-anchor="middle" x="58.1562" y="-24.5" font-family="Helvetica,sans-Serif" font-size="10.00"> </text>
<polyline fill="none" stroke="black" points="13.8965,-18.5 102.416,-18.5 "/>
<text text-anchor="start" x="21.8965" y="-6.5" font-family="Helvetica,sans-Serif" font-size="10.00">+ EventEmitter()</text>
</g>
<!-- Node2 -->
<g id="node2" class="node"><title>Node2</title>
<g id="a_node2"><a xlink:href="../../d6/df7/interfaceTrigger.html" target="_top" xlink:title="事件触发对象，可用于建立观察者模式，支持事件触发的对象均继承于此，同一事件的同一函数只会产生一次回调 ...">
<polygon fill="white" stroke="black" points="0,-91.5 0,-315.5 116.312,-315.5 116.312,-91.5 0,-91.5"/>
<text text-anchor="middle" x="58.1562" y="-303.5" font-family="Helvetica,sans-Serif" font-size="10.00">Trigger</text>
<polyline fill="none" stroke="black" points="0,-297.5 116.312,-297.5 "/>
<text text-anchor="middle" x="58.1562" y="-285.5" font-family="Helvetica,sans-Serif" font-size="10.00"> </text>
<polyline fill="none" stroke="black" points="0,-279.5 116.312,-279.5 "/>
<text text-anchor="start" x="8" y="-267.5" font-family="Helvetica,sans-Serif" font-size="10.00">+ Trigger()</text>
<text text-anchor="start" x="8" y="-257.5" font-family="Helvetica,sans-Serif" font-size="10.00">+ on()</text>
<text text-anchor="start" x="8" y="-247.5" font-family="Helvetica,sans-Serif" font-size="10.00">+ on()</text>
<text text-anchor="start" x="8" y="-237.5" font-family="Helvetica,sans-Serif" font-size="10.00">+ addListener()</text>
<text text-anchor="start" x="8" y="-227.5" font-family="Helvetica,sans-Serif" font-size="10.00">+ addListener()</text>
<text text-anchor="start" x="8" y="-217.5" font-family="Helvetica,sans-Serif" font-size="10.00">+ once()</text>
<text text-anchor="start" x="8" y="-207.5" font-family="Helvetica,sans-Serif" font-size="10.00">+ once()</text>
<text text-anchor="start" x="8" y="-197.5" font-family="Helvetica,sans-Serif" font-size="10.00">+ off()</text>
<text text-anchor="start" x="8" y="-187.5" font-family="Helvetica,sans-Serif" font-size="10.00">+ off()</text>
<text text-anchor="start" x="8" y="-177.5" font-family="Helvetica,sans-Serif" font-size="10.00">+ off()</text>
<text text-anchor="start" x="8" y="-167.5" font-family="Helvetica,sans-Serif" font-size="10.00">+ removeListener()</text>
<text text-anchor="start" x="8" y="-157.5" font-family="Helvetica,sans-Serif" font-size="10.00">+ removeListener()</text>
<text text-anchor="start" x="8" y="-147.5" font-family="Helvetica,sans-Serif" font-size="10.00">+ removeListener()</text>
<text text-anchor="start" x="8" y="-137.5" font-family="Helvetica,sans-Serif" font-size="10.00">+ removeAllListeners()</text>
<text text-anchor="start" x="8" y="-127.5" font-family="Helvetica,sans-Serif" font-size="10.00">+ setMaxListeners()</text>
<text text-anchor="start" x="8" y="-117.5" font-family="Helvetica,sans-Serif" font-size="10.00">+ listeners()</text>
<text text-anchor="start" x="8" y="-107.5" font-family="Helvetica,sans-Serif" font-size="10.00">+ trigger()</text>
<text text-anchor="start" x="8" y="-97.5" font-family="Helvetica,sans-Serif" font-size="10.00">+ emit()</text>
</a>
</g>
</g>
<!-- Node2&#45;&gt;Node1 -->
<g id="edge1" class="edge"><title>Node2&#45;&gt;Node1</title>
<path fill="none" stroke="midnightblue" d="M58.1562,-81.3109C58.1562,-71.5103 58.1562,-62.3979 58.1562,-54.5966"/>
<polygon fill="none" stroke="midnightblue" points="54.6563,-81.318 58.1562,-91.318 61.6563,-81.318 54.6563,-81.318"/>
</g>
<!-- Node3 -->
<g id="node3" class="node"><title>Node3</title>
<g id="a_node3"><a xlink:href="../../db/d38/interfaceobject.html" target="_top" xlink:title="基础对象，所有对象均继承于此 ">
<polygon fill="white" stroke="black" points="25.0122,-352.5 25.0122,-446.5 91.3003,-446.5 91.3003,-352.5 25.0122,-352.5"/>
<text text-anchor="middle" x="58.1562" y="-434.5" font-family="Helvetica,sans-Serif" font-size="10.00">object</text>
<polyline fill="none" stroke="black" points="25.0122,-428.5 91.3003,-428.5 "/>
<text text-anchor="middle" x="58.1562" y="-416.5" font-family="Helvetica,sans-Serif" font-size="10.00"> </text>
<polyline fill="none" stroke="black" points="25.0122,-410.5 91.3003,-410.5 "/>
<text text-anchor="start" x="33.0122" y="-398.5" font-family="Helvetica,sans-Serif" font-size="10.00">+ dispose()</text>
<text text-anchor="start" x="33.0122" y="-388.5" font-family="Helvetica,sans-Serif" font-size="10.00">+ equals()</text>
<text text-anchor="start" x="33.0122" y="-378.5" font-family="Helvetica,sans-Serif" font-size="10.00">+ toString()</text>
<text text-anchor="start" x="33.0122" y="-368.5" font-family="Helvetica,sans-Serif" font-size="10.00">+ toJSON()</text>
<text text-anchor="start" x="33.0122" y="-358.5" font-family="Helvetica,sans-Serif" font-size="10.00">+ valueOf()</text>
</a>
</g>
</g>
<!-- Node3&#45;&gt;Node2 -->
<g id="edge2" class="edge"><title>Node3&#45;&gt;Node2</title>
<path fill="none" stroke="midnightblue" d="M58.1562,-342.02C58.1562,-333.592 58.1562,-324.666 58.1562,-315.571"/>
<polygon fill="none" stroke="midnightblue" points="54.6563,-342.032 58.1562,-352.032 61.6563,-342.032 54.6563,-342.032"/>
</g>
</g>
</svg>
