<?xml version="1.0" encoding="UTF-8" standalone="no"?>
<!DOCTYPE svg PUBLIC "-//W3C//DTD SVG 1.1//EN"
 "http://www.w3.org/Graphics/SVG/1.1/DTD/svg11.dtd">
<!-- Generated by graphviz version 2.40.1 (20161225.0304)
 -->
<!-- Title: HttpHandler Pages: 1 -->
<svg width="116pt" height="325pt"
 viewBox="0.00 0.00 115.99 325.00" xmlns="http://www.w3.org/2000/svg" xmlns:xlink="http://www.w3.org/1999/xlink">
<g id="graph0" class="graph" transform="scale(1 1) rotate(0) translate(4 321)">
<title>HttpHandler</title>
<polygon fill="#ffffff" stroke="transparent" points="-4,4 -4,-321 111.9922,-321 111.9922,4 -4,4"/>
<!-- Node0 -->
<g id="node1" class="node">
<title>Node0</title>
<polygon fill="#bfbfbf" stroke="#000000" points="0,-.5 0,-104.5 107.9922,-104.5 107.9922,-.5 0,-.5"/>
<text text-anchor="middle" x="53.9961" y="-92.5" font-family="Helvetica,sans-Serif" font-size="10.00" fill="#000000">HttpHandler</text>
<polyline fill="none" stroke="#000000" points="0,-86.5 107.9922,-86.5 "/>
<text text-anchor="start" x="8" y="-74.5" font-family="Helvetica,sans-Serif" font-size="10.00" fill="#000000">+ crossDomain</text>
<text text-anchor="start" x="8" y="-64.5" font-family="Helvetica,sans-Serif" font-size="10.00" fill="#000000">+ forceGZIP</text>
<text text-anchor="start" x="8" y="-54.5" font-family="Helvetica,sans-Serif" font-size="10.00" fill="#000000">+ maxHeadersCount</text>
<text text-anchor="start" x="8" y="-44.5" font-family="Helvetica,sans-Serif" font-size="10.00" fill="#000000">+ maxUploadSize</text>
<text text-anchor="start" x="8" y="-34.5" font-family="Helvetica,sans-Serif" font-size="10.00" fill="#000000">+ handler</text>
<text text-anchor="start" x="8" y="-24.5" font-family="Helvetica,sans-Serif" font-size="10.00" fill="#000000">+ stats</text>
<polyline fill="none" stroke="#000000" points="0,-18.5 107.9922,-18.5 "/>
<text text-anchor="start" x="8" y="-6.5" font-family="Helvetica,sans-Serif" font-size="10.00" fill="#000000">+ HttpHandler()</text>
</g>
<!-- Node1 -->
<g id="node2" class="node">
<title>Node1</title>
<g id="a_node2"><a xlink:href="../../da/d85/interfaceHandler.html" target="_top" xlink:title="Meassage Handler Interface. ">
<polygon fill="#ffffff" stroke="#000000" points="23.9038,-141.5 23.9038,-195.5 84.0884,-195.5 84.0884,-141.5 23.9038,-141.5"/>
<text text-anchor="middle" x="53.9961" y="-183.5" font-family="Helvetica,sans-Serif" font-size="10.00" fill="#000000">Handler</text>
<polyline fill="none" stroke="#000000" points="23.9038,-177.5 84.0884,-177.5 "/>
<text text-anchor="middle" x="53.9961" y="-165.5" font-family="Helvetica,sans-Serif" font-size="10.00" fill="#000000"> </text>
<polyline fill="none" stroke="#000000" points="23.9038,-159.5 84.0884,-159.5 "/>
<text text-anchor="start" x="31.9038" y="-147.5" font-family="Helvetica,sans-Serif" font-size="10.00" fill="#000000">+ invoke()</text>
</a>
</g>
</g>
<!-- Node1&#45;&gt;Node0 -->
<g id="edge1" class="edge">
<title>Node1&#45;&gt;Node0</title>
<path fill="none" stroke="#191970" d="M53.9961,-131.0375C53.9961,-122.6013 53.9961,-113.4994 53.9961,-104.5858"/>
<polygon fill="none" stroke="#191970" points="50.4962,-131.3031 53.9961,-141.3032 57.4962,-131.3032 50.4962,-131.3031"/>
</g>
<!-- Node2 -->
<g id="node3" class="node">
<title>Node2</title>
<g id="a_node3"><a xlink:href="../../db/d38/interfaceobject.html" target="_top" xlink:title="All objects inherit from this. ">
<polygon fill="#ffffff" stroke="#000000" points="20.8521,-232.5 20.8521,-316.5 87.1401,-316.5 87.1401,-232.5 20.8521,-232.5"/>
<text text-anchor="middle" x="53.9961" y="-304.5" font-family="Helvetica,sans-Serif" font-size="10.00" fill="#000000">object</text>
<polyline fill="none" stroke="#000000" points="20.8521,-298.5 87.1401,-298.5 "/>
<text text-anchor="middle" x="53.9961" y="-286.5" font-family="Helvetica,sans-Serif" font-size="10.00" fill="#000000"> </text>
<polyline fill="none" stroke="#000000" points="20.8521,-280.5 87.1401,-280.5 "/>
<text text-anchor="start" x="28.8521" y="-268.5" font-family="Helvetica,sans-Serif" font-size="10.00" fill="#000000">+ dispose()</text>
<text text-anchor="start" x="28.8521" y="-258.5" font-family="Helvetica,sans-Serif" font-size="10.00" fill="#000000">+ toString()</text>
<text text-anchor="start" x="28.8521" y="-248.5" font-family="Helvetica,sans-Serif" font-size="10.00" fill="#000000">+ toJSON()</text>
<text text-anchor="start" x="28.8521" y="-238.5" font-family="Helvetica,sans-Serif" font-size="10.00" fill="#000000">+ valueOf()</text>
</a>
</g>
</g>
<!-- Node2&#45;&gt;Node1 -->
<g id="edge2" class="edge">
<title>Node2&#45;&gt;Node1</title>
<path fill="none" stroke="#191970" d="M53.9961,-222.041C53.9961,-212.8936 53.9961,-203.7248 53.9961,-195.6245"/>
<polygon fill="none" stroke="#191970" points="50.4962,-222.3014 53.9961,-232.3014 57.4962,-222.3015 50.4962,-222.3014"/>
</g>
</g>
</svg>
