<?xml version="1.0" encoding="UTF-8" standalone="no"?>
<!DOCTYPE svg PUBLIC "-//W3C//DTD SVG 1.1//EN"
 "http://www.w3.org/Graphics/SVG/1.1/DTD/svg11.dtd">
<!-- Generated by graphviz version 2.38.0 (20140413.2041)
 -->
<!-- Title: XmlDocumentType Pages: 1 -->
<svg width="139pt" height="475pt"
 viewBox="0.00 0.00 139.33 475.00" xmlns="http://www.w3.org/2000/svg" xmlns:xlink="http://www.w3.org/1999/xlink">
<g id="graph0" class="graph" transform="scale(1 1) rotate(0) translate(4 471)">
<title>XmlDocumentType</title>
<polygon fill="white" stroke="none" points="-4,4 -4,-471 135.327,-471 135.327,4 -4,4"/>
<!-- Node1 -->
<g id="node1" class="node"><title>Node1</title>
<polygon fill="#bfbfbf" stroke="black" points="15.4224,-0.5 15.4224,-74.5 115.905,-74.5 115.905,-0.5 15.4224,-0.5"/>
<text text-anchor="middle" x="65.6636" y="-62.5" font-family="Helvetica,sans-Serif" font-size="10.00">XmlDocumentType</text>
<polyline fill="none" stroke="black" points="15.4224,-56.5 115.905,-56.5 "/>
<text text-anchor="start" x="23.4224" y="-44.5" font-family="Helvetica,sans-Serif" font-size="10.00">+ name</text>
<text text-anchor="start" x="23.4224" y="-34.5" font-family="Helvetica,sans-Serif" font-size="10.00">+ publicId</text>
<text text-anchor="start" x="23.4224" y="-24.5" font-family="Helvetica,sans-Serif" font-size="10.00">+ systemId</text>
<polyline fill="none" stroke="black" points="15.4224,-18.5 115.905,-18.5 "/>
<text text-anchor="middle" x="65.6636" y="-6.5" font-family="Helvetica,sans-Serif" font-size="10.00"> </text>
</g>
<!-- Node2 -->
<g id="node2" class="node"><title>Node2</title>
<g id="a_node2"><a xlink:href="../../dc/d8f/interfaceXmlNode.html" target="_top" xlink:title="XmlNode 对象是整个 DOM 的基础数据类型 ">
<polygon fill="white" stroke="black" points="0,-111.5 0,-345.5 131.327,-345.5 131.327,-111.5 0,-111.5"/>
<text text-anchor="middle" x="65.6636" y="-333.5" font-family="Helvetica,sans-Serif" font-size="10.00">XmlNode</text>
<polyline fill="none" stroke="black" points="0,-327.5 131.327,-327.5 "/>
<text text-anchor="start" x="8" y="-315.5" font-family="Helvetica,sans-Serif" font-size="10.00">+ nodeType</text>
<text text-anchor="start" x="8" y="-305.5" font-family="Helvetica,sans-Serif" font-size="10.00">+ nodeName</text>
<text text-anchor="start" x="8" y="-295.5" font-family="Helvetica,sans-Serif" font-size="10.00">+ nodeValue</text>
<text text-anchor="start" x="8" y="-285.5" font-family="Helvetica,sans-Serif" font-size="10.00">+ ownerDocument</text>
<text text-anchor="start" x="8" y="-275.5" font-family="Helvetica,sans-Serif" font-size="10.00">+ parentNode</text>
<text text-anchor="start" x="8" y="-265.5" font-family="Helvetica,sans-Serif" font-size="10.00">+ childNodes</text>
<text text-anchor="start" x="8" y="-255.5" font-family="Helvetica,sans-Serif" font-size="10.00">+ firstChild</text>
<text text-anchor="start" x="8" y="-245.5" font-family="Helvetica,sans-Serif" font-size="10.00">+ lastChild</text>
<text text-anchor="start" x="8" y="-235.5" font-family="Helvetica,sans-Serif" font-size="10.00">+ previousSibling</text>
<text text-anchor="start" x="8" y="-225.5" font-family="Helvetica,sans-Serif" font-size="10.00">+ nextSibling</text>
<polyline fill="none" stroke="black" points="0,-219.5 131.327,-219.5 "/>
<text text-anchor="start" x="8" y="-207.5" font-family="Helvetica,sans-Serif" font-size="10.00">+ hasChildNodes()</text>
<text text-anchor="start" x="8" y="-197.5" font-family="Helvetica,sans-Serif" font-size="10.00">+ normalize()</text>
<text text-anchor="start" x="8" y="-187.5" font-family="Helvetica,sans-Serif" font-size="10.00">+ cloneNode()</text>
<text text-anchor="start" x="8" y="-177.5" font-family="Helvetica,sans-Serif" font-size="10.00">+ lookupPrefix()</text>
<text text-anchor="start" x="8" y="-167.5" font-family="Helvetica,sans-Serif" font-size="10.00">+ lookupNamespaceURI()</text>
<text text-anchor="start" x="8" y="-157.5" font-family="Helvetica,sans-Serif" font-size="10.00">+ insertBefore()</text>
<text text-anchor="start" x="8" y="-147.5" font-family="Helvetica,sans-Serif" font-size="10.00">+ insertAfter()</text>
<text text-anchor="start" x="8" y="-137.5" font-family="Helvetica,sans-Serif" font-size="10.00">+ appendChild()</text>
<text text-anchor="start" x="8" y="-127.5" font-family="Helvetica,sans-Serif" font-size="10.00">+ replaceChild()</text>
<text text-anchor="start" x="8" y="-117.5" font-family="Helvetica,sans-Serif" font-size="10.00">+ removeChild()</text>
</a>
</g>
</g>
<!-- Node2&#45;&gt;Node1 -->
<g id="edge1" class="edge"><title>Node2&#45;&gt;Node1</title>
<path fill="none" stroke="midnightblue" d="M65.6636,-101.004C65.6636,-91.6666 65.6636,-82.8014 65.6636,-74.838"/>
<polygon fill="none" stroke="midnightblue" points="62.1637,-101.302 65.6636,-111.302 69.1637,-101.302 62.1637,-101.302"/>
</g>
<!-- Node3 -->
<g id="node3" class="node"><title>Node3</title>
<g id="a_node3"><a xlink:href="../../db/d38/interfaceobject.html" target="_top" xlink:title="基础对象，所有对象均继承于此 ">
<polygon fill="white" stroke="black" points="32.5195,-382.5 32.5195,-466.5 98.8076,-466.5 98.8076,-382.5 32.5195,-382.5"/>
<text text-anchor="middle" x="65.6636" y="-454.5" font-family="Helvetica,sans-Serif" font-size="10.00">object</text>
<polyline fill="none" stroke="black" points="32.5195,-448.5 98.8076,-448.5 "/>
<text text-anchor="middle" x="65.6636" y="-436.5" font-family="Helvetica,sans-Serif" font-size="10.00"> </text>
<polyline fill="none" stroke="black" points="32.5195,-430.5 98.8076,-430.5 "/>
<text text-anchor="start" x="40.5195" y="-418.5" font-family="Helvetica,sans-Serif" font-size="10.00">+ dispose()</text>
<text text-anchor="start" x="40.5195" y="-408.5" font-family="Helvetica,sans-Serif" font-size="10.00">+ toString()</text>
<text text-anchor="start" x="40.5195" y="-398.5" font-family="Helvetica,sans-Serif" font-size="10.00">+ toJSON()</text>
<text text-anchor="start" x="40.5195" y="-388.5" font-family="Helvetica,sans-Serif" font-size="10.00">+ valueOf()</text>
</a>
</g>
</g>
<!-- Node3&#45;&gt;Node2 -->
<g id="edge2" class="edge"><title>Node3&#45;&gt;Node2</title>
<path fill="none" stroke="midnightblue" d="M65.6636,-372.085C65.6636,-363.706 65.6636,-354.74 65.6636,-345.536"/>
<polygon fill="none" stroke="midnightblue" points="62.1637,-372.358 65.6636,-382.358 69.1637,-372.358 62.1637,-372.358"/>
</g>
</g>
</svg>
