<?xml version="1.0" encoding="UTF-8" standalone="no"?>
<!DOCTYPE svg PUBLIC "-//W3C//DTD SVG 1.1//EN"
 "http://www.w3.org/Graphics/SVG/1.1/DTD/svg11.dtd">
<!-- Generated by graphviz version 2.40.1 (20161225.0304)
 -->
<!-- Title: Chain Pages: 1 -->
<svg width="74pt" height="335pt"
 viewBox="0.00 0.00 74.30 335.00" xmlns="http://www.w3.org/2000/svg" xmlns:xlink="http://www.w3.org/1999/xlink">
<g id="graph0" class="graph" transform="scale(1 1) rotate(0) translate(4 331)">
<title>Chain</title>
<polygon fill="#ffffff" stroke="transparent" points="-4,4 -4,-331 70.2979,-331 70.2979,4 -4,4"/>
<!-- Node0 -->
<g id="node1" class="node">
<title>Node0</title>
<polygon fill="#bfbfbf" stroke="#000000" points=".8252,-.5 .8252,-74.5 65.4727,-74.5 65.4727,-.5 .8252,-.5"/>
<text text-anchor="middle" x="33.1489" y="-62.5" font-family="Helvetica,sans-Serif" font-size="10.00" fill="#000000">Chain</text>
<polyline fill="none" stroke="#000000" points=".8252,-56.5 65.4727,-56.5 "/>
<text text-anchor="middle" x="33.1489" y="-44.5" font-family="Helvetica,sans-Serif" font-size="10.00" fill="#000000"> </text>
<polyline fill="none" stroke="#000000" points=".8252,-38.5 65.4727,-38.5 "/>
<text text-anchor="start" x="8.8252" y="-26.5" font-family="Helvetica,sans-Serif" font-size="10.00" fill="#000000">+ Chain()</text>
<text text-anchor="start" x="8.8252" y="-16.5" font-family="Helvetica,sans-Serif" font-size="10.00" fill="#000000">+ append()</text>
<text text-anchor="start" x="8.8252" y="-6.5" font-family="Helvetica,sans-Serif" font-size="10.00" fill="#000000">+ append()</text>
</g>
<!-- Node1 -->
<g id="node2" class="node">
<title>Node1</title>
<g id="a_node2"><a xlink:href="../../da/d85/interfaceHandler.html" target="_top" xlink:title="消息处理器接口 ">
<polygon fill="#ffffff" stroke="#000000" points="0,-111.5 0,-195.5 66.2979,-195.5 66.2979,-111.5 0,-111.5"/>
<text text-anchor="middle" x="33.1489" y="-183.5" font-family="Helvetica,sans-Serif" font-size="10.00" fill="#000000">Handler</text>
<polyline fill="none" stroke="#000000" points="0,-177.5 66.2979,-177.5 "/>
<text text-anchor="middle" x="33.1489" y="-165.5" font-family="Helvetica,sans-Serif" font-size="10.00" fill="#000000"> </text>
<polyline fill="none" stroke="#000000" points="0,-159.5 66.2979,-159.5 "/>
<text text-anchor="start" x="8" y="-147.5" font-family="Helvetica,sans-Serif" font-size="10.00" fill="#000000">+ Handler()</text>
<text text-anchor="start" x="8" y="-137.5" font-family="Helvetica,sans-Serif" font-size="10.00" fill="#000000">+ Handler()</text>
<text text-anchor="start" x="8" y="-127.5" font-family="Helvetica,sans-Serif" font-size="10.00" fill="#000000">+ Handler()</text>
<text text-anchor="start" x="8" y="-117.5" font-family="Helvetica,sans-Serif" font-size="10.00" fill="#000000">+ invoke()</text>
</a>
</g>
</g>
<!-- Node1&#45;&gt;Node0 -->
<g id="edge1" class="edge">
<title>Node1&#45;&gt;Node0</title>
<path fill="none" stroke="#191970" d="M33.1489,-101.0572C33.1489,-92.2275 33.1489,-83.2244 33.1489,-74.8766"/>
<polygon fill="none" stroke="#191970" points="29.649,-101.2932 33.1489,-111.2932 36.649,-101.2932 29.649,-101.2932"/>
</g>
<!-- Node2 -->
<g id="node3" class="node">
<title>Node2</title>
<g id="a_node3"><a xlink:href="../../db/d38/interfaceobject.html" target="_top" xlink:title="基础对象，所有对象均继承于此 ">
<polygon fill="#ffffff" stroke="#000000" points=".0049,-232.5 .0049,-326.5 66.293,-326.5 66.293,-232.5 .0049,-232.5"/>
<text text-anchor="middle" x="33.1489" y="-314.5" font-family="Helvetica,sans-Serif" font-size="10.00" fill="#000000">object</text>
<polyline fill="none" stroke="#000000" points=".0049,-308.5 66.293,-308.5 "/>
<text text-anchor="middle" x="33.1489" y="-296.5" font-family="Helvetica,sans-Serif" font-size="10.00" fill="#000000"> </text>
<polyline fill="none" stroke="#000000" points=".0049,-290.5 66.293,-290.5 "/>
<text text-anchor="start" x="8.0049" y="-278.5" font-family="Helvetica,sans-Serif" font-size="10.00" fill="#000000">+ dispose()</text>
<text text-anchor="start" x="8.0049" y="-268.5" font-family="Helvetica,sans-Serif" font-size="10.00" fill="#000000">+ equals()</text>
<text text-anchor="start" x="8.0049" y="-258.5" font-family="Helvetica,sans-Serif" font-size="10.00" fill="#000000">+ toString()</text>
<text text-anchor="start" x="8.0049" y="-248.5" font-family="Helvetica,sans-Serif" font-size="10.00" fill="#000000">+ toJSON()</text>
<text text-anchor="start" x="8.0049" y="-238.5" font-family="Helvetica,sans-Serif" font-size="10.00" fill="#000000">+ valueOf()</text>
</a>
</g>
</g>
<!-- Node2&#45;&gt;Node1 -->
<g id="edge2" class="edge">
<title>Node2&#45;&gt;Node1</title>
<path fill="none" stroke="#191970" d="M33.1489,-221.9387C33.1489,-213.0848 33.1489,-204.0866 33.1489,-195.6505"/>
<polygon fill="none" stroke="#191970" points="29.649,-222.2237 33.1489,-232.2238 36.649,-222.2238 29.649,-222.2237"/>
</g>
</g>
</svg>
