<?xml version="1.0" encoding="UTF-8" standalone="no"?>
<!DOCTYPE svg PUBLIC "-//W3C//DTD SVG 1.1//EN"
 "http://www.w3.org/Graphics/SVG/1.1/DTD/svg11.dtd">
<!-- Generated by graphviz version 2.38.0 (20140413.2041)
 -->
<!-- Title: XmlComment Pages: 1 -->
<svg width="107pt" height="566pt"
 viewBox="0.00 0.00 107.10 566.00" xmlns="http://www.w3.org/2000/svg" xmlns:xlink="http://www.w3.org/1999/xlink">
<g id="graph0" class="graph" transform="scale(1 1) rotate(0) translate(4 562)">
<title>XmlComment</title>
<polygon fill="white" stroke="none" points="-4,4 -4,-562 103.096,-562 103.096,4 -4,4"/>
<!-- Node1 -->
<g id="node1" class="node"><title>Node1</title>
<polygon fill="#bfbfbf" stroke="black" points="11.2646,-0.5 11.2646,-54.5 87.8311,-54.5 87.8311,-0.5 11.2646,-0.5"/>
<text text-anchor="middle" x="49.5479" y="-42.5" font-family="Helvetica,sans-Serif" font-size="10.00">XmlComment</text>
<polyline fill="none" stroke="black" points="11.2646,-36.5 87.8311,-36.5 "/>
<text text-anchor="middle" x="49.5479" y="-24.5" font-family="Helvetica,sans-Serif" font-size="10.00"> </text>
<polyline fill="none" stroke="black" points="11.2646,-18.5 87.8311,-18.5 "/>
<text text-anchor="middle" x="49.5479" y="-6.5" font-family="Helvetica,sans-Serif" font-size="10.00"> </text>
</g>
<!-- Node2 -->
<g id="node2" class="node"><title>Node2</title>
<g id="a_node2"><a xlink:href="../../d7/d50/interfaceXmlCharacterData.html" target="_top" xlink:title="XmlCharacterData 接口提供了 XmlText 和 XmlComment 节点的常用功能 ">
<polygon fill="white" stroke="black" points="0.422363,-91.5 0.422363,-195.5 98.6733,-195.5 98.6733,-91.5 0.422363,-91.5"/>
<text text-anchor="middle" x="49.5479" y="-183.5" font-family="Helvetica,sans-Serif" font-size="10.00">XmlCharacterData</text>
<polyline fill="none" stroke="black" points="0.422363,-177.5 98.6733,-177.5 "/>
<text text-anchor="start" x="8.42236" y="-165.5" font-family="Helvetica,sans-Serif" font-size="10.00">+ data</text>
<text text-anchor="start" x="8.42236" y="-155.5" font-family="Helvetica,sans-Serif" font-size="10.00">+ length</text>
<polyline fill="none" stroke="black" points="0.422363,-149.5 98.6733,-149.5 "/>
<text text-anchor="start" x="8.42236" y="-137.5" font-family="Helvetica,sans-Serif" font-size="10.00">+ substringData()</text>
<text text-anchor="start" x="8.42236" y="-127.5" font-family="Helvetica,sans-Serif" font-size="10.00">+ appendData()</text>
<text text-anchor="start" x="8.42236" y="-117.5" font-family="Helvetica,sans-Serif" font-size="10.00">+ insertData()</text>
<text text-anchor="start" x="8.42236" y="-107.5" font-family="Helvetica,sans-Serif" font-size="10.00">+ deleteData()</text>
<text text-anchor="start" x="8.42236" y="-97.5" font-family="Helvetica,sans-Serif" font-size="10.00">+ replaceData()</text>
</a>
</g>
</g>
<!-- Node2&#45;&gt;Node1 -->
<g id="edge1" class="edge"><title>Node2&#45;&gt;Node1</title>
<path fill="none" stroke="midnightblue" d="M49.5479,-81.0589C49.5479,-71.7553 49.5479,-62.6104 49.5479,-54.6237"/>
<polygon fill="none" stroke="midnightblue" points="46.048,-81.1694 49.5479,-91.1694 53.048,-81.1694 46.048,-81.1694"/>
</g>
<!-- Node3 -->
<g id="node3" class="node"><title>Node3</title>
<g id="a_node3"><a xlink:href="../../dc/d8f/interfaceXmlNode.html" target="_top" xlink:title="XmlNode 对象是整个 DOM 的基础数据类型 ">
<polygon fill="white" stroke="black" points="0,-232.5 0,-436.5 99.0957,-436.5 99.0957,-232.5 0,-232.5"/>
<text text-anchor="middle" x="49.5479" y="-424.5" font-family="Helvetica,sans-Serif" font-size="10.00">XmlNode</text>
<polyline fill="none" stroke="black" points="0,-418.5 99.0957,-418.5 "/>
<text text-anchor="start" x="8" y="-406.5" font-family="Helvetica,sans-Serif" font-size="10.00">+ nodeName</text>
<text text-anchor="start" x="8" y="-396.5" font-family="Helvetica,sans-Serif" font-size="10.00">+ nodeValue</text>
<text text-anchor="start" x="8" y="-386.5" font-family="Helvetica,sans-Serif" font-size="10.00">+ nodeType</text>
<text text-anchor="start" x="8" y="-376.5" font-family="Helvetica,sans-Serif" font-size="10.00">+ parentNode</text>
<text text-anchor="start" x="8" y="-366.5" font-family="Helvetica,sans-Serif" font-size="10.00">+ childNodes</text>
<text text-anchor="start" x="8" y="-356.5" font-family="Helvetica,sans-Serif" font-size="10.00">+ firstChild</text>
<text text-anchor="start" x="8" y="-346.5" font-family="Helvetica,sans-Serif" font-size="10.00">+ lastChild</text>
<text text-anchor="start" x="8" y="-336.5" font-family="Helvetica,sans-Serif" font-size="10.00">+ previousSibling</text>
<text text-anchor="start" x="8" y="-326.5" font-family="Helvetica,sans-Serif" font-size="10.00">+ nextSibling</text>
<text text-anchor="start" x="8" y="-316.5" font-family="Helvetica,sans-Serif" font-size="10.00">+ ownerDocument</text>
<polyline fill="none" stroke="black" points="0,-310.5 99.0957,-310.5 "/>
<text text-anchor="start" x="8" y="-298.5" font-family="Helvetica,sans-Serif" font-size="10.00">+ insertBefore()</text>
<text text-anchor="start" x="8" y="-288.5" font-family="Helvetica,sans-Serif" font-size="10.00">+ replaceChild()</text>
<text text-anchor="start" x="8" y="-278.5" font-family="Helvetica,sans-Serif" font-size="10.00">+ removeChild()</text>
<text text-anchor="start" x="8" y="-268.5" font-family="Helvetica,sans-Serif" font-size="10.00">+ appendChild()</text>
<text text-anchor="start" x="8" y="-258.5" font-family="Helvetica,sans-Serif" font-size="10.00">+ hasChildNodes()</text>
<text text-anchor="start" x="8" y="-248.5" font-family="Helvetica,sans-Serif" font-size="10.00">+ cloneNode()</text>
<text text-anchor="start" x="8" y="-238.5" font-family="Helvetica,sans-Serif" font-size="10.00">+ normalize()</text>
</a>
</g>
</g>
<!-- Node3&#45;&gt;Node2 -->
<g id="edge2" class="edge"><title>Node3&#45;&gt;Node2</title>
<path fill="none" stroke="midnightblue" d="M49.5479,-222.34C49.5479,-213.168 49.5479,-204.212 49.5479,-195.833"/>
<polygon fill="none" stroke="midnightblue" points="46.048,-222.36 49.5479,-232.36 53.048,-222.36 46.048,-222.36"/>
</g>
<!-- Node4 -->
<g id="node4" class="node"><title>Node4</title>
<g id="a_node4"><a xlink:href="../../db/d38/interfaceobject.html" target="_top" xlink:title="基础对象，所有对象均继承于此 ">
<polygon fill="white" stroke="black" points="16.4038,-473.5 16.4038,-557.5 82.6919,-557.5 82.6919,-473.5 16.4038,-473.5"/>
<text text-anchor="middle" x="49.5479" y="-545.5" font-family="Helvetica,sans-Serif" font-size="10.00">object</text>
<polyline fill="none" stroke="black" points="16.4038,-539.5 82.6919,-539.5 "/>
<text text-anchor="middle" x="49.5479" y="-527.5" font-family="Helvetica,sans-Serif" font-size="10.00"> </text>
<polyline fill="none" stroke="black" points="16.4038,-521.5 82.6919,-521.5 "/>
<text text-anchor="start" x="24.4038" y="-509.5" font-family="Helvetica,sans-Serif" font-size="10.00">+ dispose()</text>
<text text-anchor="start" x="24.4038" y="-499.5" font-family="Helvetica,sans-Serif" font-size="10.00">+ toString()</text>
<text text-anchor="start" x="24.4038" y="-489.5" font-family="Helvetica,sans-Serif" font-size="10.00">+ toJSON()</text>
<text text-anchor="start" x="24.4038" y="-479.5" font-family="Helvetica,sans-Serif" font-size="10.00">+ valueOf()</text>
</a>
</g>
</g>
<!-- Node4&#45;&gt;Node3 -->
<g id="edge3" class="edge"><title>Node4&#45;&gt;Node3</title>
<path fill="none" stroke="midnightblue" d="M49.5479,-463.155C49.5479,-454.787 49.5479,-445.87 49.5479,-436.789"/>
<polygon fill="none" stroke="midnightblue" points="46.0479,-463.434 49.5479,-473.434 53.0479,-463.434 46.0479,-463.434"/>
</g>
</g>
</svg>
