<?xml version="1.0" encoding="UTF-8" standalone="no"?>
<!DOCTYPE svg PUBLIC "-//W3C//DTD SVG 1.1//EN"
 "http://www.w3.org/Graphics/SVG/1.1/DTD/svg11.dtd">
<!-- Generated by graphviz version 2.40.1 (20161225.0304)
 -->
<!-- Title: DBResult Pages: 1 -->
<svg width="75pt" height="435pt"
 viewBox="0.00 0.00 75.42 435.00" xmlns="http://www.w3.org/2000/svg" xmlns:xlink="http://www.w3.org/1999/xlink">
<g id="graph0" class="graph" transform="scale(1 1) rotate(0) translate(4 431)">
<title>DBResult</title>
<polygon fill="#ffffff" stroke="transparent" points="-4,4 -4,-431 71.4209,-431 71.4209,4 -4,4"/>
<!-- Node0 -->
<g id="node1" class="node">
<title>Node0</title>
<polygon fill="#bfbfbf" stroke="#000000" points="3.6987,-.5 3.6987,-74.5 63.7222,-74.5 63.7222,-.5 3.6987,-.5"/>
<text text-anchor="middle" x="33.7104" y="-62.5" font-family="Helvetica,sans-Serif" font-size="10.00" fill="#000000">DBResult</text>
<polyline fill="none" stroke="#000000" points="3.6987,-56.5 63.7222,-56.5 "/>
<text text-anchor="start" x="11.6987" y="-44.5" font-family="Helvetica,sans-Serif" font-size="10.00" fill="#000000">+ insertId</text>
<text text-anchor="start" x="11.6987" y="-34.5" font-family="Helvetica,sans-Serif" font-size="10.00" fill="#000000">+ affected</text>
<text text-anchor="start" x="11.6987" y="-24.5" font-family="Helvetica,sans-Serif" font-size="10.00" fill="#000000">+ fields</text>
<polyline fill="none" stroke="#000000" points="3.6987,-18.5 63.7222,-18.5 "/>
<text text-anchor="middle" x="33.7104" y="-6.5" font-family="Helvetica,sans-Serif" font-size="10.00" fill="#000000"> </text>
</g>
<!-- Node1 -->
<g id="node2" class="node">
<title>Node1</title>
<g id="a_node2"><a xlink:href="../../de/dd8/interfaceList.html" target="_top" xlink:title="Variant Array object, return a list of Variant. ">
<polygon fill="#ffffff" stroke="#000000" points="0,-111.5 0,-305.5 67.4209,-305.5 67.4209,-111.5 0,-111.5"/>
<text text-anchor="middle" x="33.7104" y="-293.5" font-family="Helvetica,sans-Serif" font-size="10.00" fill="#000000">List</text>
<polyline fill="none" stroke="#000000" points="0,-287.5 67.4209,-287.5 "/>
<text text-anchor="start" x="8" y="-275.5" font-family="Helvetica,sans-Serif" font-size="10.00" fill="#000000">+ operator[]</text>
<text text-anchor="start" x="8" y="-265.5" font-family="Helvetica,sans-Serif" font-size="10.00" fill="#000000">+ length</text>
<polyline fill="none" stroke="#000000" points="0,-259.5 67.4209,-259.5 "/>
<text text-anchor="start" x="8" y="-247.5" font-family="Helvetica,sans-Serif" font-size="10.00" fill="#000000">+ List()</text>
<text text-anchor="start" x="8" y="-237.5" font-family="Helvetica,sans-Serif" font-size="10.00" fill="#000000">+ freeze()</text>
<text text-anchor="start" x="8" y="-227.5" font-family="Helvetica,sans-Serif" font-size="10.00" fill="#000000">+ resize()</text>
<text text-anchor="start" x="8" y="-217.5" font-family="Helvetica,sans-Serif" font-size="10.00" fill="#000000">+ push()</text>
<text text-anchor="start" x="8" y="-207.5" font-family="Helvetica,sans-Serif" font-size="10.00" fill="#000000">+ push()</text>
<text text-anchor="start" x="8" y="-197.5" font-family="Helvetica,sans-Serif" font-size="10.00" fill="#000000">+ pop()</text>
<text text-anchor="start" x="8" y="-187.5" font-family="Helvetica,sans-Serif" font-size="10.00" fill="#000000">+ slice()</text>
<text text-anchor="start" x="8" y="-177.5" font-family="Helvetica,sans-Serif" font-size="10.00" fill="#000000">+ concat()</text>
<text text-anchor="start" x="8" y="-167.5" font-family="Helvetica,sans-Serif" font-size="10.00" fill="#000000">+ every()</text>
<text text-anchor="start" x="8" y="-157.5" font-family="Helvetica,sans-Serif" font-size="10.00" fill="#000000">+ some()</text>
<text text-anchor="start" x="8" y="-147.5" font-family="Helvetica,sans-Serif" font-size="10.00" fill="#000000">+ filter()</text>
<text text-anchor="start" x="8" y="-137.5" font-family="Helvetica,sans-Serif" font-size="10.00" fill="#000000">+ forEach()</text>
<text text-anchor="start" x="8" y="-127.5" font-family="Helvetica,sans-Serif" font-size="10.00" fill="#000000">+ map()</text>
<text text-anchor="start" x="8" y="-117.5" font-family="Helvetica,sans-Serif" font-size="10.00" fill="#000000">+ toArray()</text>
</a>
</g>
</g>
<!-- Node1&#45;&gt;Node0 -->
<g id="edge1" class="edge">
<title>Node1&#45;&gt;Node0</title>
<path fill="none" stroke="#191970" d="M33.7104,-100.8329C33.7104,-91.5665 33.7104,-82.6732 33.7104,-74.6308"/>
<polygon fill="none" stroke="#191970" points="30.2105,-101.0118 33.7104,-111.0118 37.2105,-101.0118 30.2105,-101.0118"/>
</g>
<!-- Node2 -->
<g id="node3" class="node">
<title>Node2</title>
<g id="a_node3"><a xlink:href="../../db/d38/interfaceobject.html" target="_top" xlink:title="All objects inherit from this. ">
<polygon fill="#ffffff" stroke="#000000" points=".5664,-342.5 .5664,-426.5 66.8545,-426.5 66.8545,-342.5 .5664,-342.5"/>
<text text-anchor="middle" x="33.7104" y="-414.5" font-family="Helvetica,sans-Serif" font-size="10.00" fill="#000000">object</text>
<polyline fill="none" stroke="#000000" points=".5664,-408.5 66.8545,-408.5 "/>
<text text-anchor="middle" x="33.7104" y="-396.5" font-family="Helvetica,sans-Serif" font-size="10.00" fill="#000000"> </text>
<polyline fill="none" stroke="#000000" points=".5664,-390.5 66.8545,-390.5 "/>
<text text-anchor="start" x="8.5664" y="-378.5" font-family="Helvetica,sans-Serif" font-size="10.00" fill="#000000">+ dispose()</text>
<text text-anchor="start" x="8.5664" y="-368.5" font-family="Helvetica,sans-Serif" font-size="10.00" fill="#000000">+ toString()</text>
<text text-anchor="start" x="8.5664" y="-358.5" font-family="Helvetica,sans-Serif" font-size="10.00" fill="#000000">+ toJSON()</text>
<text text-anchor="start" x="8.5664" y="-348.5" font-family="Helvetica,sans-Serif" font-size="10.00" fill="#000000">+ valueOf()</text>
</a>
</g>
</g>
<!-- Node2&#45;&gt;Node1 -->
<g id="edge2" class="edge">
<title>Node2&#45;&gt;Node1</title>
<path fill="none" stroke="#191970" d="M33.7104,-332.3258C33.7104,-323.875 33.7104,-314.8926 33.7104,-305.776"/>
<polygon fill="none" stroke="#191970" points="30.2105,-332.3436 33.7104,-342.3436 37.2105,-332.3436 30.2105,-332.3436"/>
</g>
</g>
</svg>
