<?xml version="1.0" encoding="UTF-8" standalone="no"?>
<!DOCTYPE svg PUBLIC "-//W3C//DTD SVG 1.1//EN"
 "http://www.w3.org/Graphics/SVG/1.1/DTD/svg11.dtd">
<!-- Generated by graphviz version 2.40.1 (20161225.0304)
 -->
<!-- Title: HeapGraphNode Pages: 1 -->
<svg width="100pt" height="244pt"
 viewBox="0.00 0.00 99.61 244.00" xmlns="http://www.w3.org/2000/svg" xmlns:xlink="http://www.w3.org/1999/xlink">
<g id="graph0" class="graph" transform="scale(1 1) rotate(0) translate(4 240)">
<title>HeapGraphNode</title>
<polygon fill="#ffffff" stroke="transparent" points="-4,4 -4,-240 95.6055,-240 95.6055,4 -4,4"/>
<!-- Node0 -->
<g id="node1" class="node">
<title>Node0</title>
<polygon fill="#bfbfbf" stroke="#000000" points="0,-.5 0,-104.5 91.6055,-104.5 91.6055,-.5 0,-.5"/>
<text text-anchor="middle" x="45.8027" y="-92.5" font-family="Helvetica,sans-Serif" font-size="10.00" fill="#000000">HeapGraphNode</text>
<polyline fill="none" stroke="#000000" points="0,-86.5 91.6055,-86.5 "/>
<text text-anchor="start" x="8" y="-74.5" font-family="Helvetica,sans-Serif" font-size="10.00" fill="#000000">+ type</text>
<text text-anchor="start" x="8" y="-64.5" font-family="Helvetica,sans-Serif" font-size="10.00" fill="#000000">+ name</text>
<text text-anchor="start" x="8" y="-54.5" font-family="Helvetica,sans-Serif" font-size="10.00" fill="#000000">+ description</text>
<text text-anchor="start" x="8" y="-44.5" font-family="Helvetica,sans-Serif" font-size="10.00" fill="#000000">+ id</text>
<text text-anchor="start" x="8" y="-34.5" font-family="Helvetica,sans-Serif" font-size="10.00" fill="#000000">+ shallowSize</text>
<text text-anchor="start" x="8" y="-24.5" font-family="Helvetica,sans-Serif" font-size="10.00" fill="#000000">+ childs</text>
<polyline fill="none" stroke="#000000" points="0,-18.5 91.6055,-18.5 "/>
<text text-anchor="middle" x="45.8027" y="-6.5" font-family="Helvetica,sans-Serif" font-size="10.00" fill="#000000"> </text>
</g>
<!-- Node1 -->
<g id="node2" class="node">
<title>Node1</title>
<g id="a_node2"><a xlink:href="../../db/d38/interfaceobject.html" target="_top" xlink:title="基础对象，所有对象均继承于此 ">
<polygon fill="#ffffff" stroke="#000000" points="12.6587,-141.5 12.6587,-235.5 78.9468,-235.5 78.9468,-141.5 12.6587,-141.5"/>
<text text-anchor="middle" x="45.8027" y="-223.5" font-family="Helvetica,sans-Serif" font-size="10.00" fill="#000000">object</text>
<polyline fill="none" stroke="#000000" points="12.6587,-217.5 78.9468,-217.5 "/>
<text text-anchor="middle" x="45.8027" y="-205.5" font-family="Helvetica,sans-Serif" font-size="10.00" fill="#000000"> </text>
<polyline fill="none" stroke="#000000" points="12.6587,-199.5 78.9468,-199.5 "/>
<text text-anchor="start" x="20.6587" y="-187.5" font-family="Helvetica,sans-Serif" font-size="10.00" fill="#000000">+ dispose()</text>
<text text-anchor="start" x="20.6587" y="-177.5" font-family="Helvetica,sans-Serif" font-size="10.00" fill="#000000">+ equals()</text>
<text text-anchor="start" x="20.6587" y="-167.5" font-family="Helvetica,sans-Serif" font-size="10.00" fill="#000000">+ toString()</text>
<text text-anchor="start" x="20.6587" y="-157.5" font-family="Helvetica,sans-Serif" font-size="10.00" fill="#000000">+ toJSON()</text>
<text text-anchor="start" x="20.6587" y="-147.5" font-family="Helvetica,sans-Serif" font-size="10.00" fill="#000000">+ valueOf()</text>
</a>
</g>
</g>
<!-- Node1&#45;&gt;Node0 -->
<g id="edge1" class="edge">
<title>Node1&#45;&gt;Node0</title>
<path fill="none" stroke="#191970" d="M45.8027,-131.1629C45.8027,-122.3884 45.8027,-113.3711 45.8027,-104.715"/>
<polygon fill="none" stroke="#191970" points="42.3028,-131.3154 45.8027,-141.3155 49.3028,-131.3155 42.3028,-131.3154"/>
</g>
</g>
</svg>
