<?xml version="1.0" encoding="UTF-8" standalone="no"?>
<!DOCTYPE svg PUBLIC "-//W3C//DTD SVG 1.1//EN"
 "http://www.w3.org/Graphics/SVG/1.1/DTD/svg11.dtd">
<!-- Generated by graphviz version 2.40.1 (20161225.0304)
 -->
<!-- Title: DbConnection Pages: 1 -->
<svg width="238pt" height="355pt"
 viewBox="0.00 0.00 237.54 355.00" xmlns="http://www.w3.org/2000/svg" xmlns:xlink="http://www.w3.org/1999/xlink">
<g id="graph0" class="graph" transform="scale(1 1) rotate(0) translate(4 351)">
<title>DbConnection</title>
<polygon fill="#ffffff" stroke="transparent" points="-4,4 -4,-351 233.543,-351 233.543,4 -4,4"/>
<!-- Node0 -->
<g id="node1" class="node">
<title>Node0</title>
<polygon fill="#bfbfbf" stroke="#000000" points="68.8179,-101.5 68.8179,-215.5 148.1919,-215.5 148.1919,-101.5 68.8179,-101.5"/>
<text text-anchor="middle" x="108.5049" y="-203.5" font-family="Helvetica,sans-Serif" font-size="10.00" fill="#000000">DbConnection</text>
<polyline fill="none" stroke="#000000" points="68.8179,-197.5 148.1919,-197.5 "/>
<text text-anchor="start" x="76.8179" y="-185.5" font-family="Helvetica,sans-Serif" font-size="10.00" fill="#000000">+ type</text>
<polyline fill="none" stroke="#000000" points="68.8179,-179.5 148.1919,-179.5 "/>
<text text-anchor="start" x="76.8179" y="-167.5" font-family="Helvetica,sans-Serif" font-size="10.00" fill="#000000">+ close()</text>
<text text-anchor="start" x="76.8179" y="-157.5" font-family="Helvetica,sans-Serif" font-size="10.00" fill="#000000">+ begin()</text>
<text text-anchor="start" x="76.8179" y="-147.5" font-family="Helvetica,sans-Serif" font-size="10.00" fill="#000000">+ commit()</text>
<text text-anchor="start" x="76.8179" y="-137.5" font-family="Helvetica,sans-Serif" font-size="10.00" fill="#000000">+ rollback()</text>
<text text-anchor="start" x="76.8179" y="-127.5" font-family="Helvetica,sans-Serif" font-size="10.00" fill="#000000">+ execute()</text>
<text text-anchor="start" x="76.8179" y="-117.5" font-family="Helvetica,sans-Serif" font-size="10.00" fill="#000000">+ execute()</text>
<text text-anchor="start" x="76.8179" y="-107.5" font-family="Helvetica,sans-Serif" font-size="10.00" fill="#000000">+ format()</text>
</g>
<!-- Node2 -->
<g id="node3" class="node">
<title>Node2</title>
<g id="a_node3"><a xlink:href="../../dc/d01/interfaceMSSQL.html" target="_top" xlink:title="SQL Server 数据库连接对象 ">
<polygon fill="#ffffff" stroke="#000000" points="0,-5.5 0,-59.5 51.0098,-59.5 51.0098,-5.5 0,-5.5"/>
<text text-anchor="middle" x="25.5049" y="-47.5" font-family="Helvetica,sans-Serif" font-size="10.00" fill="#000000">MSSQL</text>
<polyline fill="none" stroke="#000000" points="0,-41.5 51.0098,-41.5 "/>
<text text-anchor="middle" x="25.5049" y="-29.5" font-family="Helvetica,sans-Serif" font-size="10.00" fill="#000000"> </text>
<polyline fill="none" stroke="#000000" points="0,-23.5 51.0098,-23.5 "/>
<text text-anchor="start" x="8" y="-11.5" font-family="Helvetica,sans-Serif" font-size="10.00" fill="#000000">+ use()</text>
</a>
</g>
</g>
<!-- Node0&#45;&gt;Node2 -->
<g id="edge2" class="edge">
<title>Node0&#45;&gt;Node2</title>
<path fill="none" stroke="#191970" d="M65.2443,-92.8273C57.4889,-81.0541 49.8156,-69.4055 43.3105,-59.5302"/>
<polygon fill="none" stroke="#191970" points="62.4665,-94.973 70.8904,-101.3986 68.3122,-91.1222 62.4665,-94.973"/>
</g>
<!-- Node3 -->
<g id="node4" class="node">
<title>Node3</title>
<g id="a_node4"><a xlink:href="../../d2/d68/interfaceMySQL.html" target="_top" xlink:title="mysql 数据库连接对象 ">
<polygon fill="#ffffff" stroke="#000000" points="69.0522,-.5 69.0522,-64.5 147.9575,-64.5 147.9575,-.5 69.0522,-.5"/>
<text text-anchor="middle" x="108.5049" y="-52.5" font-family="Helvetica,sans-Serif" font-size="10.00" fill="#000000">MySQL</text>
<polyline fill="none" stroke="#000000" points="69.0522,-46.5 147.9575,-46.5 "/>
<text text-anchor="start" x="77.0522" y="-34.5" font-family="Helvetica,sans-Serif" font-size="10.00" fill="#000000">+ rxBufferSize</text>
<text text-anchor="start" x="77.0522" y="-24.5" font-family="Helvetica,sans-Serif" font-size="10.00" fill="#000000">+ txBufferSize</text>
<polyline fill="none" stroke="#000000" points="69.0522,-18.5 147.9575,-18.5 "/>
<text text-anchor="start" x="77.0522" y="-6.5" font-family="Helvetica,sans-Serif" font-size="10.00" fill="#000000">+ use()</text>
</a>
</g>
</g>
<!-- Node0&#45;&gt;Node3 -->
<g id="edge3" class="edge">
<title>Node0&#45;&gt;Node3</title>
<path fill="none" stroke="#191970" d="M108.5049,-91.3034C108.5049,-82.0088 108.5049,-72.8366 108.5049,-64.6007"/>
<polygon fill="none" stroke="#191970" points="105.005,-91.3985 108.5049,-101.3986 112.005,-91.3986 105.005,-91.3985"/>
</g>
<!-- Node4 -->
<g id="node5" class="node">
<title>Node4</title>
<g id="a_node5"><a xlink:href="../../d7/df5/interfaceSQLite.html" target="_top" xlink:title="sqlite 数据库连接对象 ">
<polygon fill="#ffffff" stroke="#000000" points="165.4668,-.5 165.4668,-64.5 229.543,-64.5 229.543,-.5 165.4668,-.5"/>
<text text-anchor="middle" x="197.5049" y="-52.5" font-family="Helvetica,sans-Serif" font-size="10.00" fill="#000000">SQLite</text>
<polyline fill="none" stroke="#000000" points="165.4668,-46.5 229.543,-46.5 "/>
<text text-anchor="start" x="173.4668" y="-34.5" font-family="Helvetica,sans-Serif" font-size="10.00" fill="#000000">+ fileName</text>
<text text-anchor="start" x="173.4668" y="-24.5" font-family="Helvetica,sans-Serif" font-size="10.00" fill="#000000">+ timeout</text>
<polyline fill="none" stroke="#000000" points="165.4668,-18.5 229.543,-18.5 "/>
<text text-anchor="start" x="173.4668" y="-6.5" font-family="Helvetica,sans-Serif" font-size="10.00" fill="#000000">+ backup()</text>
</a>
</g>
</g>
<!-- Node0&#45;&gt;Node4 -->
<g id="edge4" class="edge">
<title>Node0&#45;&gt;Node4</title>
<path fill="none" stroke="#191970" d="M154.294,-93.6749C161.4136,-83.5955 168.4892,-73.5784 174.7909,-64.6569"/>
<polygon fill="none" stroke="#191970" points="151.2299,-91.9464 148.3193,-102.1336 156.9474,-95.985 151.2299,-91.9464"/>
</g>
<!-- Node1 -->
<g id="node2" class="node">
<title>Node1</title>
<g id="a_node2"><a xlink:href="../../db/d38/interfaceobject.html" target="_top" xlink:title="基础对象，所有对象均继承于此 ">
<polygon fill="#ffffff" stroke="#000000" points="75.3608,-252.5 75.3608,-346.5 141.6489,-346.5 141.6489,-252.5 75.3608,-252.5"/>
<text text-anchor="middle" x="108.5049" y="-334.5" font-family="Helvetica,sans-Serif" font-size="10.00" fill="#000000">object</text>
<polyline fill="none" stroke="#000000" points="75.3608,-328.5 141.6489,-328.5 "/>
<text text-anchor="middle" x="108.5049" y="-316.5" font-family="Helvetica,sans-Serif" font-size="10.00" fill="#000000"> </text>
<polyline fill="none" stroke="#000000" points="75.3608,-310.5 141.6489,-310.5 "/>
<text text-anchor="start" x="83.3608" y="-298.5" font-family="Helvetica,sans-Serif" font-size="10.00" fill="#000000">+ dispose()</text>
<text text-anchor="start" x="83.3608" y="-288.5" font-family="Helvetica,sans-Serif" font-size="10.00" fill="#000000">+ equals()</text>
<text text-anchor="start" x="83.3608" y="-278.5" font-family="Helvetica,sans-Serif" font-size="10.00" fill="#000000">+ toString()</text>
<text text-anchor="start" x="83.3608" y="-268.5" font-family="Helvetica,sans-Serif" font-size="10.00" fill="#000000">+ toJSON()</text>
<text text-anchor="start" x="83.3608" y="-258.5" font-family="Helvetica,sans-Serif" font-size="10.00" fill="#000000">+ valueOf()</text>
</a>
</g>
</g>
<!-- Node1&#45;&gt;Node0 -->
<g id="edge1" class="edge">
<title>Node1&#45;&gt;Node0</title>
<path fill="none" stroke="#191970" d="M108.5049,-242.1082C108.5049,-233.412 108.5049,-224.44 108.5049,-215.7469"/>
<polygon fill="none" stroke="#191970" points="105.005,-242.1568 108.5049,-252.1568 112.005,-242.1568 105.005,-242.1568"/>
</g>
</g>
</svg>
