<?xml version="1.0" encoding="UTF-8" standalone="no"?>
<!DOCTYPE svg PUBLIC "-//W3C//DTD SVG 1.1//EN"
 "http://www.w3.org/Graphics/SVG/1.1/DTD/svg11.dtd">
<!-- Generated by graphviz version 2.38.0 (20140413.2041)
 -->
<!-- Title: DbConnection Pages: 1 -->
<svg width="238pt" height="355pt"
 viewBox="0.00 0.00 237.54 355.00" xmlns="http://www.w3.org/2000/svg" xmlns:xlink="http://www.w3.org/1999/xlink">
<g id="graph0" class="graph" transform="scale(1 1) rotate(0) translate(4 351)">
<title>DbConnection</title>
<polygon fill="white" stroke="none" points="-4,4 -4,-351 233.543,-351 233.543,4 -4,4"/>
<!-- Node1 -->
<g id="node1" class="node"><title>Node1</title>
<polygon fill="#bfbfbf" stroke="black" points="68.8179,-101.5 68.8179,-215.5 148.192,-215.5 148.192,-101.5 68.8179,-101.5"/>
<text text-anchor="middle" x="108.505" y="-203.5" font-family="Helvetica,sans-Serif" font-size="10.00">DbConnection</text>
<polyline fill="none" stroke="black" points="68.8179,-197.5 148.192,-197.5 "/>
<text text-anchor="start" x="76.8179" y="-185.5" font-family="Helvetica,sans-Serif" font-size="10.00">+ type</text>
<polyline fill="none" stroke="black" points="68.8179,-179.5 148.192,-179.5 "/>
<text text-anchor="start" x="76.8179" y="-167.5" font-family="Helvetica,sans-Serif" font-size="10.00">+ close()</text>
<text text-anchor="start" x="76.8179" y="-157.5" font-family="Helvetica,sans-Serif" font-size="10.00">+ begin()</text>
<text text-anchor="start" x="76.8179" y="-147.5" font-family="Helvetica,sans-Serif" font-size="10.00">+ commit()</text>
<text text-anchor="start" x="76.8179" y="-137.5" font-family="Helvetica,sans-Serif" font-size="10.00">+ rollback()</text>
<text text-anchor="start" x="76.8179" y="-127.5" font-family="Helvetica,sans-Serif" font-size="10.00">+ execute()</text>
<text text-anchor="start" x="76.8179" y="-117.5" font-family="Helvetica,sans-Serif" font-size="10.00">+ execute()</text>
<text text-anchor="start" x="76.8179" y="-107.5" font-family="Helvetica,sans-Serif" font-size="10.00">+ format()</text>
</g>
<!-- Node3 -->
<g id="node3" class="node"><title>Node3</title>
<g id="a_node3"><a xlink:href="../../dc/d01/interfaceMSSQL.html" target="_top" xlink:title="SQL Server 数据库连接对象 ">
<polygon fill="white" stroke="black" points="0,-5.5 0,-59.5 51.0098,-59.5 51.0098,-5.5 0,-5.5"/>
<text text-anchor="middle" x="25.5049" y="-47.5" font-family="Helvetica,sans-Serif" font-size="10.00">MSSQL</text>
<polyline fill="none" stroke="black" points="0,-41.5 51.0098,-41.5 "/>
<text text-anchor="middle" x="25.5049" y="-29.5" font-family="Helvetica,sans-Serif" font-size="10.00"> </text>
<polyline fill="none" stroke="black" points="0,-23.5 51.0098,-23.5 "/>
<text text-anchor="start" x="8" y="-11.5" font-family="Helvetica,sans-Serif" font-size="10.00">+ use()</text>
</a>
</g>
</g>
<!-- Node1&#45;&gt;Node3 -->
<g id="edge2" class="edge"><title>Node1&#45;&gt;Node3</title>
<path fill="none" stroke="midnightblue" d="M65.1939,-92.7944C57.3696,-81.1051 49.6313,-69.5443 43.0944,-59.7783"/>
<polygon fill="none" stroke="midnightblue" points="62.4194,-94.9416 70.8904,-101.305 68.2365,-91.0479 62.4194,-94.9416"/>
</g>
<!-- Node4 -->
<g id="node4" class="node"><title>Node4</title>
<g id="a_node4"><a xlink:href="../../d2/d68/interfaceMySQL.html" target="_top" xlink:title="mysql 数据库连接对象 ">
<polygon fill="white" stroke="black" points="69.0522,-0.5 69.0522,-64.5 147.958,-64.5 147.958,-0.5 69.0522,-0.5"/>
<text text-anchor="middle" x="108.505" y="-52.5" font-family="Helvetica,sans-Serif" font-size="10.00">MySQL</text>
<polyline fill="none" stroke="black" points="69.0522,-46.5 147.958,-46.5 "/>
<text text-anchor="start" x="77.0522" y="-34.5" font-family="Helvetica,sans-Serif" font-size="10.00">+ rxBufferSize</text>
<text text-anchor="start" x="77.0522" y="-24.5" font-family="Helvetica,sans-Serif" font-size="10.00">+ txBufferSize</text>
<polyline fill="none" stroke="black" points="69.0522,-18.5 147.958,-18.5 "/>
<text text-anchor="start" x="77.0522" y="-6.5" font-family="Helvetica,sans-Serif" font-size="10.00">+ use()</text>
</a>
</g>
</g>
<!-- Node1&#45;&gt;Node4 -->
<g id="edge3" class="edge"><title>Node1&#45;&gt;Node4</title>
<path fill="none" stroke="midnightblue" d="M108.505,-91.2677C108.505,-82.0273 108.505,-72.9128 108.505,-64.7504"/>
<polygon fill="none" stroke="midnightblue" points="105.005,-91.3049 108.505,-101.305 112.005,-91.305 105.005,-91.3049"/>
</g>
<!-- Node5 -->
<g id="node5" class="node"><title>Node5</title>
<g id="a_node5"><a xlink:href="../../d7/df5/interfaceSQLite.html" target="_top" xlink:title="sqlite 数据库连接对象 ">
<polygon fill="white" stroke="black" points="165.467,-0.5 165.467,-64.5 229.543,-64.5 229.543,-0.5 165.467,-0.5"/>
<text text-anchor="middle" x="197.505" y="-52.5" font-family="Helvetica,sans-Serif" font-size="10.00">SQLite</text>
<polyline fill="none" stroke="black" points="165.467,-46.5 229.543,-46.5 "/>
<text text-anchor="start" x="173.467" y="-34.5" font-family="Helvetica,sans-Serif" font-size="10.00">+ fileName</text>
<text text-anchor="start" x="173.467" y="-24.5" font-family="Helvetica,sans-Serif" font-size="10.00">+ timeout</text>
<polyline fill="none" stroke="black" points="165.467,-18.5 229.543,-18.5 "/>
<text text-anchor="start" x="173.467" y="-6.5" font-family="Helvetica,sans-Serif" font-size="10.00">+ backup()</text>
</a>
</g>
</g>
<!-- Node1&#45;&gt;Node5 -->
<g id="edge4" class="edge"><title>Node1&#45;&gt;Node5</title>
<path fill="none" stroke="midnightblue" d="M154.355,-93.6188C161.547,-83.5986 168.692,-73.6439 175.037,-64.803"/>
<polygon fill="none" stroke="midnightblue" points="151.307,-91.8634 148.319,-102.028 156.994,-95.9451 151.307,-91.8634"/>
</g>
<!-- Node2 -->
<g id="node2" class="node"><title>Node2</title>
<g id="a_node2"><a xlink:href="../../db/d38/interfaceobject.html" target="_top" xlink:title="基础对象，所有对象均继承于此 ">
<polygon fill="white" stroke="black" points="75.3608,-252.5 75.3608,-346.5 141.649,-346.5 141.649,-252.5 75.3608,-252.5"/>
<text text-anchor="middle" x="108.505" y="-334.5" font-family="Helvetica,sans-Serif" font-size="10.00">object</text>
<polyline fill="none" stroke="black" points="75.3608,-328.5 141.649,-328.5 "/>
<text text-anchor="middle" x="108.505" y="-316.5" font-family="Helvetica,sans-Serif" font-size="10.00"> </text>
<polyline fill="none" stroke="black" points="75.3608,-310.5 141.649,-310.5 "/>
<text text-anchor="start" x="83.3608" y="-298.5" font-family="Helvetica,sans-Serif" font-size="10.00">+ dispose()</text>
<text text-anchor="start" x="83.3608" y="-288.5" font-family="Helvetica,sans-Serif" font-size="10.00">+ equals()</text>
<text text-anchor="start" x="83.3608" y="-278.5" font-family="Helvetica,sans-Serif" font-size="10.00">+ toString()</text>
<text text-anchor="start" x="83.3608" y="-268.5" font-family="Helvetica,sans-Serif" font-size="10.00">+ toJSON()</text>
<text text-anchor="start" x="83.3608" y="-258.5" font-family="Helvetica,sans-Serif" font-size="10.00">+ valueOf()</text>
</a>
</g>
</g>
<!-- Node2&#45;&gt;Node1 -->
<g id="edge1" class="edge"><title>Node2&#45;&gt;Node1</title>
<path fill="none" stroke="midnightblue" d="M108.505,-242.153C108.505,-233.44 108.505,-224.44 108.505,-215.73"/>
<polygon fill="none" stroke="midnightblue" points="105.005,-242.215 108.505,-252.215 112.005,-242.215 105.005,-242.215"/>
</g>
</g>
</svg>
