<?xml version="1.0" encoding="UTF-8" standalone="no"?>
<!DOCTYPE svg PUBLIC "-//W3C//DTD SVG 1.1//EN"
 "http://www.w3.org/Graphics/SVG/1.1/DTD/svg11.dtd">
<!-- Generated by graphviz version 2.38.0 (20140413.2041)
 -->
<!-- Title: XmlProcessingInstruction Pages: 1 -->
<svg width="137pt" height="435pt"
 viewBox="0.00 0.00 136.82 435.00" xmlns="http://www.w3.org/2000/svg" xmlns:xlink="http://www.w3.org/1999/xlink">
<g id="graph0" class="graph" transform="scale(1 1) rotate(0) translate(4 431)">
<title>XmlProcessingInstruction</title>
<polygon fill="white" stroke="none" points="-4,4 -4,-431 132.822,-431 132.822,4 -4,4"/>
<!-- Node1 -->
<g id="node1" class="node"><title>Node1</title>
<polygon fill="#bfbfbf" stroke="black" points="0,-0.5 0,-64.5 128.822,-64.5 128.822,-0.5 0,-0.5"/>
<text text-anchor="middle" x="64.4111" y="-52.5" font-family="Helvetica,sans-Serif" font-size="10.00">XmlProcessingInstruction</text>
<polyline fill="none" stroke="black" points="0,-46.5 128.822,-46.5 "/>
<text text-anchor="start" x="8" y="-34.5" font-family="Helvetica,sans-Serif" font-size="10.00">+ target</text>
<text text-anchor="start" x="8" y="-24.5" font-family="Helvetica,sans-Serif" font-size="10.00">+ data</text>
<polyline fill="none" stroke="black" points="0,-18.5 128.822,-18.5 "/>
<text text-anchor="middle" x="64.4111" y="-6.5" font-family="Helvetica,sans-Serif" font-size="10.00"> </text>
</g>
<!-- Node2 -->
<g id="node2" class="node"><title>Node2</title>
<g id="a_node2"><a xlink:href="../../dc/d8f/interfaceXmlNode.html" target="_top" xlink:title="XmlNode 对象是整个 DOM 的基础数据类型 ">
<polygon fill="white" stroke="black" points="14.8633,-101.5 14.8633,-305.5 113.959,-305.5 113.959,-101.5 14.8633,-101.5"/>
<text text-anchor="middle" x="64.4111" y="-293.5" font-family="Helvetica,sans-Serif" font-size="10.00">XmlNode</text>
<polyline fill="none" stroke="black" points="14.8633,-287.5 113.959,-287.5 "/>
<text text-anchor="start" x="22.8633" y="-275.5" font-family="Helvetica,sans-Serif" font-size="10.00">+ nodeName</text>
<text text-anchor="start" x="22.8633" y="-265.5" font-family="Helvetica,sans-Serif" font-size="10.00">+ nodeValue</text>
<text text-anchor="start" x="22.8633" y="-255.5" font-family="Helvetica,sans-Serif" font-size="10.00">+ nodeType</text>
<text text-anchor="start" x="22.8633" y="-245.5" font-family="Helvetica,sans-Serif" font-size="10.00">+ parentNode</text>
<text text-anchor="start" x="22.8633" y="-235.5" font-family="Helvetica,sans-Serif" font-size="10.00">+ childNodes</text>
<text text-anchor="start" x="22.8633" y="-225.5" font-family="Helvetica,sans-Serif" font-size="10.00">+ firstChild</text>
<text text-anchor="start" x="22.8633" y="-215.5" font-family="Helvetica,sans-Serif" font-size="10.00">+ lastChild</text>
<text text-anchor="start" x="22.8633" y="-205.5" font-family="Helvetica,sans-Serif" font-size="10.00">+ previousSibling</text>
<text text-anchor="start" x="22.8633" y="-195.5" font-family="Helvetica,sans-Serif" font-size="10.00">+ nextSibling</text>
<text text-anchor="start" x="22.8633" y="-185.5" font-family="Helvetica,sans-Serif" font-size="10.00">+ ownerDocument</text>
<polyline fill="none" stroke="black" points="14.8633,-179.5 113.959,-179.5 "/>
<text text-anchor="start" x="22.8633" y="-167.5" font-family="Helvetica,sans-Serif" font-size="10.00">+ insertBefore()</text>
<text text-anchor="start" x="22.8633" y="-157.5" font-family="Helvetica,sans-Serif" font-size="10.00">+ replaceChild()</text>
<text text-anchor="start" x="22.8633" y="-147.5" font-family="Helvetica,sans-Serif" font-size="10.00">+ removeChild()</text>
<text text-anchor="start" x="22.8633" y="-137.5" font-family="Helvetica,sans-Serif" font-size="10.00">+ appendChild()</text>
<text text-anchor="start" x="22.8633" y="-127.5" font-family="Helvetica,sans-Serif" font-size="10.00">+ hasChildNodes()</text>
<text text-anchor="start" x="22.8633" y="-117.5" font-family="Helvetica,sans-Serif" font-size="10.00">+ cloneNode()</text>
<text text-anchor="start" x="22.8633" y="-107.5" font-family="Helvetica,sans-Serif" font-size="10.00">+ normalize()</text>
</a>
</g>
</g>
<!-- Node2&#45;&gt;Node1 -->
<g id="edge1" class="edge"><title>Node2&#45;&gt;Node1</title>
<path fill="none" stroke="midnightblue" d="M64.4111,-91.1801C64.4111,-81.6564 64.4111,-72.6398 64.4111,-64.688"/>
<polygon fill="none" stroke="midnightblue" points="60.9112,-91.265 64.4111,-101.265 67.9112,-91.265 60.9112,-91.265"/>
</g>
<!-- Node3 -->
<g id="node3" class="node"><title>Node3</title>
<g id="a_node3"><a xlink:href="../../db/d38/interfaceobject.html" target="_top" xlink:title="基础对象，所有对象均继承于此 ">
<polygon fill="white" stroke="black" points="31.2671,-342.5 31.2671,-426.5 97.5552,-426.5 97.5552,-342.5 31.2671,-342.5"/>
<text text-anchor="middle" x="64.4111" y="-414.5" font-family="Helvetica,sans-Serif" font-size="10.00">object</text>
<polyline fill="none" stroke="black" points="31.2671,-408.5 97.5552,-408.5 "/>
<text text-anchor="middle" x="64.4111" y="-396.5" font-family="Helvetica,sans-Serif" font-size="10.00"> </text>
<polyline fill="none" stroke="black" points="31.2671,-390.5 97.5552,-390.5 "/>
<text text-anchor="start" x="39.2671" y="-378.5" font-family="Helvetica,sans-Serif" font-size="10.00">+ dispose()</text>
<text text-anchor="start" x="39.2671" y="-368.5" font-family="Helvetica,sans-Serif" font-size="10.00">+ toString()</text>
<text text-anchor="start" x="39.2671" y="-358.5" font-family="Helvetica,sans-Serif" font-size="10.00">+ toJSON()</text>
<text text-anchor="start" x="39.2671" y="-348.5" font-family="Helvetica,sans-Serif" font-size="10.00">+ valueOf()</text>
</a>
</g>
</g>
<!-- Node3&#45;&gt;Node2 -->
<g id="edge2" class="edge"><title>Node3&#45;&gt;Node2</title>
<path fill="none" stroke="midnightblue" d="M64.4111,-332.155C64.4111,-323.787 64.4111,-314.87 64.4111,-305.789"/>
<polygon fill="none" stroke="midnightblue" points="60.9112,-332.434 64.4111,-342.434 67.9112,-332.434 60.9112,-332.434"/>
</g>
</g>
</svg>
