<?xml version="1.0" encoding="UTF-8" standalone="no"?>
<!DOCTYPE svg PUBLIC "-//W3C//DTD SVG 1.1//EN"
 "http://www.w3.org/Graphics/SVG/1.1/DTD/svg11.dtd">
<!-- Generated by graphviz version 2.38.0 (20140413.2041)
 -->
<!-- Title: XmlProcessingInstruction Pages: 1 -->
<svg width="139pt" height="465pt"
 viewBox="0.00 0.00 139.33 465.00" xmlns="http://www.w3.org/2000/svg" xmlns:xlink="http://www.w3.org/1999/xlink">
<g id="graph0" class="graph" transform="scale(1 1) rotate(0) translate(4 461)">
<title>XmlProcessingInstruction</title>
<polygon fill="white" stroke="none" points="-4,4 -4,-461 135.327,-461 135.327,4 -4,4"/>
<!-- Node1 -->
<g id="node1" class="node"><title>Node1</title>
<polygon fill="#bfbfbf" stroke="black" points="1.25244,-0.5 1.25244,-64.5 130.075,-64.5 130.075,-0.5 1.25244,-0.5"/>
<text text-anchor="middle" x="65.6636" y="-52.5" font-family="Helvetica,sans-Serif" font-size="10.00">XmlProcessingInstruction</text>
<polyline fill="none" stroke="black" points="1.25244,-46.5 130.075,-46.5 "/>
<text text-anchor="start" x="9.25244" y="-34.5" font-family="Helvetica,sans-Serif" font-size="10.00">+ target</text>
<text text-anchor="start" x="9.25244" y="-24.5" font-family="Helvetica,sans-Serif" font-size="10.00">+ data</text>
<polyline fill="none" stroke="black" points="1.25244,-18.5 130.075,-18.5 "/>
<text text-anchor="middle" x="65.6636" y="-6.5" font-family="Helvetica,sans-Serif" font-size="10.00"> </text>
</g>
<!-- Node2 -->
<g id="node2" class="node"><title>Node2</title>
<g id="a_node2"><a xlink:href="../../dc/d8f/interfaceXmlNode.html" target="_top" xlink:title="XmlNode 对象是整个 DOM 的基础数据类型 ">
<polygon fill="white" stroke="black" points="0,-101.5 0,-335.5 131.327,-335.5 131.327,-101.5 0,-101.5"/>
<text text-anchor="middle" x="65.6636" y="-323.5" font-family="Helvetica,sans-Serif" font-size="10.00">XmlNode</text>
<polyline fill="none" stroke="black" points="0,-317.5 131.327,-317.5 "/>
<text text-anchor="start" x="8" y="-305.5" font-family="Helvetica,sans-Serif" font-size="10.00">+ nodeType</text>
<text text-anchor="start" x="8" y="-295.5" font-family="Helvetica,sans-Serif" font-size="10.00">+ nodeName</text>
<text text-anchor="start" x="8" y="-285.5" font-family="Helvetica,sans-Serif" font-size="10.00">+ nodeValue</text>
<text text-anchor="start" x="8" y="-275.5" font-family="Helvetica,sans-Serif" font-size="10.00">+ ownerDocument</text>
<text text-anchor="start" x="8" y="-265.5" font-family="Helvetica,sans-Serif" font-size="10.00">+ parentNode</text>
<text text-anchor="start" x="8" y="-255.5" font-family="Helvetica,sans-Serif" font-size="10.00">+ childNodes</text>
<text text-anchor="start" x="8" y="-245.5" font-family="Helvetica,sans-Serif" font-size="10.00">+ firstChild</text>
<text text-anchor="start" x="8" y="-235.5" font-family="Helvetica,sans-Serif" font-size="10.00">+ lastChild</text>
<text text-anchor="start" x="8" y="-225.5" font-family="Helvetica,sans-Serif" font-size="10.00">+ previousSibling</text>
<text text-anchor="start" x="8" y="-215.5" font-family="Helvetica,sans-Serif" font-size="10.00">+ nextSibling</text>
<polyline fill="none" stroke="black" points="0,-209.5 131.327,-209.5 "/>
<text text-anchor="start" x="8" y="-197.5" font-family="Helvetica,sans-Serif" font-size="10.00">+ hasChildNodes()</text>
<text text-anchor="start" x="8" y="-187.5" font-family="Helvetica,sans-Serif" font-size="10.00">+ normalize()</text>
<text text-anchor="start" x="8" y="-177.5" font-family="Helvetica,sans-Serif" font-size="10.00">+ cloneNode()</text>
<text text-anchor="start" x="8" y="-167.5" font-family="Helvetica,sans-Serif" font-size="10.00">+ lookupPrefix()</text>
<text text-anchor="start" x="8" y="-157.5" font-family="Helvetica,sans-Serif" font-size="10.00">+ lookupNamespaceURI()</text>
<text text-anchor="start" x="8" y="-147.5" font-family="Helvetica,sans-Serif" font-size="10.00">+ insertBefore()</text>
<text text-anchor="start" x="8" y="-137.5" font-family="Helvetica,sans-Serif" font-size="10.00">+ insertAfter()</text>
<text text-anchor="start" x="8" y="-127.5" font-family="Helvetica,sans-Serif" font-size="10.00">+ appendChild()</text>
<text text-anchor="start" x="8" y="-117.5" font-family="Helvetica,sans-Serif" font-size="10.00">+ replaceChild()</text>
<text text-anchor="start" x="8" y="-107.5" font-family="Helvetica,sans-Serif" font-size="10.00">+ removeChild()</text>
</a>
</g>
</g>
<!-- Node2&#45;&gt;Node1 -->
<g id="edge1" class="edge"><title>Node2&#45;&gt;Node1</title>
<path fill="none" stroke="midnightblue" d="M65.6636,-91.2268C65.6636,-81.56 65.6636,-72.4822 65.6636,-64.5148"/>
<polygon fill="none" stroke="midnightblue" points="62.1637,-91.492 65.6636,-101.492 69.1637,-91.4921 62.1637,-91.492"/>
</g>
<!-- Node3 -->
<g id="node3" class="node"><title>Node3</title>
<g id="a_node3"><a xlink:href="../../db/d38/interfaceobject.html" target="_top" xlink:title="基础对象，所有对象均继承于此 ">
<polygon fill="white" stroke="black" points="32.5195,-372.5 32.5195,-456.5 98.8076,-456.5 98.8076,-372.5 32.5195,-372.5"/>
<text text-anchor="middle" x="65.6636" y="-444.5" font-family="Helvetica,sans-Serif" font-size="10.00">object</text>
<polyline fill="none" stroke="black" points="32.5195,-438.5 98.8076,-438.5 "/>
<text text-anchor="middle" x="65.6636" y="-426.5" font-family="Helvetica,sans-Serif" font-size="10.00"> </text>
<polyline fill="none" stroke="black" points="32.5195,-420.5 98.8076,-420.5 "/>
<text text-anchor="start" x="40.5195" y="-408.5" font-family="Helvetica,sans-Serif" font-size="10.00">+ dispose()</text>
<text text-anchor="start" x="40.5195" y="-398.5" font-family="Helvetica,sans-Serif" font-size="10.00">+ toString()</text>
<text text-anchor="start" x="40.5195" y="-388.5" font-family="Helvetica,sans-Serif" font-size="10.00">+ toJSON()</text>
<text text-anchor="start" x="40.5195" y="-378.5" font-family="Helvetica,sans-Serif" font-size="10.00">+ valueOf()</text>
</a>
</g>
</g>
<!-- Node3&#45;&gt;Node2 -->
<g id="edge2" class="edge"><title>Node3&#45;&gt;Node2</title>
<path fill="none" stroke="midnightblue" d="M65.6636,-362.085C65.6636,-353.706 65.6636,-344.74 65.6636,-335.536"/>
<polygon fill="none" stroke="midnightblue" points="62.1637,-362.358 65.6636,-372.358 69.1637,-362.358 62.1637,-362.358"/>
</g>
</g>
</svg>
