<?xml version="1.0" encoding="UTF-8" standalone="no"?>
<!DOCTYPE svg PUBLIC "-//W3C//DTD SVG 1.1//EN"
 "http://www.w3.org/Graphics/SVG/1.1/DTD/svg11.dtd">
<!-- Generated by graphviz version 2.38.0 (20140413.2041)
 -->
<!-- Title: DatagramPacket Pages: 1 -->
<svg width="98pt" height="214pt"
 viewBox="0.00 0.00 98.48 214.00" xmlns="http://www.w3.org/2000/svg" xmlns:xlink="http://www.w3.org/1999/xlink">
<g id="graph0" class="graph" transform="scale(1 1) rotate(0) translate(4 210)">
<title>DatagramPacket</title>
<polygon fill="white" stroke="none" points="-4,4 -4,-210 94.4775,-210 94.4775,4 -4,4"/>
<!-- Node1 -->
<g id="node1" class="node"><title>Node1</title>
<polygon fill="#bfbfbf" stroke="black" points="0,-0.5 0,-74.5 90.4775,-74.5 90.4775,-0.5 0,-0.5"/>
<text text-anchor="middle" x="45.2388" y="-62.5" font-family="Helvetica,sans-Serif" font-size="10.00">DatagramPacket</text>
<polyline fill="none" stroke="black" points="0,-56.5 90.4775,-56.5 "/>
<text text-anchor="start" x="8" y="-44.5" font-family="Helvetica,sans-Serif" font-size="10.00">+ data</text>
<text text-anchor="start" x="8" y="-34.5" font-family="Helvetica,sans-Serif" font-size="10.00">+ address</text>
<text text-anchor="start" x="8" y="-24.5" font-family="Helvetica,sans-Serif" font-size="10.00">+ port</text>
<polyline fill="none" stroke="black" points="0,-18.5 90.4775,-18.5 "/>
<text text-anchor="middle" x="45.2388" y="-6.5" font-family="Helvetica,sans-Serif" font-size="10.00"> </text>
</g>
<!-- Node2 -->
<g id="node2" class="node"><title>Node2</title>
<g id="a_node2"><a xlink:href="../../db/d38/interfaceobject.html" target="_top" xlink:title="基础对象，所有对象均继承于此 ">
<polygon fill="white" stroke="black" points="12.0947,-111.5 12.0947,-205.5 78.3828,-205.5 78.3828,-111.5 12.0947,-111.5"/>
<text text-anchor="middle" x="45.2388" y="-193.5" font-family="Helvetica,sans-Serif" font-size="10.00">object</text>
<polyline fill="none" stroke="black" points="12.0947,-187.5 78.3828,-187.5 "/>
<text text-anchor="middle" x="45.2388" y="-175.5" font-family="Helvetica,sans-Serif" font-size="10.00"> </text>
<polyline fill="none" stroke="black" points="12.0947,-169.5 78.3828,-169.5 "/>
<text text-anchor="start" x="20.0947" y="-157.5" font-family="Helvetica,sans-Serif" font-size="10.00">+ dispose()</text>
<text text-anchor="start" x="20.0947" y="-147.5" font-family="Helvetica,sans-Serif" font-size="10.00">+ equals()</text>
<text text-anchor="start" x="20.0947" y="-137.5" font-family="Helvetica,sans-Serif" font-size="10.00">+ toString()</text>
<text text-anchor="start" x="20.0947" y="-127.5" font-family="Helvetica,sans-Serif" font-size="10.00">+ toJSON()</text>
<text text-anchor="start" x="20.0947" y="-117.5" font-family="Helvetica,sans-Serif" font-size="10.00">+ valueOf()</text>
</a>
</g>
</g>
<!-- Node2&#45;&gt;Node1 -->
<g id="edge1" class="edge"><title>Node2&#45;&gt;Node1</title>
<path fill="none" stroke="midnightblue" d="M45.2388,-101.379C45.2388,-92.3431 45.2388,-83.2032 45.2388,-74.7961"/>
<polygon fill="none" stroke="midnightblue" points="41.7389,-101.491 45.2388,-111.491 48.7389,-101.492 41.7389,-101.491"/>
</g>
</g>
</svg>
