<?xml version="1.0" encoding="UTF-8" standalone="no"?>
<!DOCTYPE svg PUBLIC "-//W3C//DTD SVG 1.1//EN"
 "http://www.w3.org/Graphics/SVG/1.1/DTD/svg11.dtd">
<!-- Generated by graphviz version 2.40.1 (20161225.0304)
 -->
<!-- Title: DatagramPacket Pages: 1 -->
<svg width="98pt" height="214pt"
 viewBox="0.00 0.00 98.48 214.00" xmlns="http://www.w3.org/2000/svg" xmlns:xlink="http://www.w3.org/1999/xlink">
<g id="graph0" class="graph" transform="scale(1 1) rotate(0) translate(4 210)">
<title>DatagramPacket</title>
<polygon fill="#ffffff" stroke="transparent" points="-4,4 -4,-210 94.4775,-210 94.4775,4 -4,4"/>
<!-- Node0 -->
<g id="node1" class="node">
<title>Node0</title>
<polygon fill="#bfbfbf" stroke="#000000" points="0,-.5 0,-74.5 90.4775,-74.5 90.4775,-.5 0,-.5"/>
<text text-anchor="middle" x="45.2388" y="-62.5" font-family="Helvetica,sans-Serif" font-size="10.00" fill="#000000">DatagramPacket</text>
<polyline fill="none" stroke="#000000" points="0,-56.5 90.4775,-56.5 "/>
<text text-anchor="start" x="8" y="-44.5" font-family="Helvetica,sans-Serif" font-size="10.00" fill="#000000">+ data</text>
<text text-anchor="start" x="8" y="-34.5" font-family="Helvetica,sans-Serif" font-size="10.00" fill="#000000">+ address</text>
<text text-anchor="start" x="8" y="-24.5" font-family="Helvetica,sans-Serif" font-size="10.00" fill="#000000">+ port</text>
<polyline fill="none" stroke="#000000" points="0,-18.5 90.4775,-18.5 "/>
<text text-anchor="middle" x="45.2388" y="-6.5" font-family="Helvetica,sans-Serif" font-size="10.00" fill="#000000"> </text>
</g>
<!-- Node1 -->
<g id="node2" class="node">
<title>Node1</title>
<g id="a_node2"><a xlink:href="../../db/d38/interfaceobject.html" target="_top" xlink:title="基础对象，所有对象均继承于此 ">
<polygon fill="#ffffff" stroke="#000000" points="12.0947,-111.5 12.0947,-205.5 78.3828,-205.5 78.3828,-111.5 12.0947,-111.5"/>
<text text-anchor="middle" x="45.2388" y="-193.5" font-family="Helvetica,sans-Serif" font-size="10.00" fill="#000000">object</text>
<polyline fill="none" stroke="#000000" points="12.0947,-187.5 78.3828,-187.5 "/>
<text text-anchor="middle" x="45.2388" y="-175.5" font-family="Helvetica,sans-Serif" font-size="10.00" fill="#000000"> </text>
<polyline fill="none" stroke="#000000" points="12.0947,-169.5 78.3828,-169.5 "/>
<text text-anchor="start" x="20.0947" y="-157.5" font-family="Helvetica,sans-Serif" font-size="10.00" fill="#000000">+ dispose()</text>
<text text-anchor="start" x="20.0947" y="-147.5" font-family="Helvetica,sans-Serif" font-size="10.00" fill="#000000">+ equals()</text>
<text text-anchor="start" x="20.0947" y="-137.5" font-family="Helvetica,sans-Serif" font-size="10.00" fill="#000000">+ toString()</text>
<text text-anchor="start" x="20.0947" y="-127.5" font-family="Helvetica,sans-Serif" font-size="10.00" fill="#000000">+ toJSON()</text>
<text text-anchor="start" x="20.0947" y="-117.5" font-family="Helvetica,sans-Serif" font-size="10.00" fill="#000000">+ valueOf()</text>
</a>
</g>
</g>
<!-- Node1&#45;&gt;Node0 -->
<g id="edge1" class="edge">
<title>Node1&#45;&gt;Node0</title>
<path fill="none" stroke="#191970" d="M45.2388,-101.2279C45.2388,-92.1684 45.2388,-83.0122 45.2388,-74.5748"/>
<polygon fill="none" stroke="#191970" points="41.7389,-101.3717 45.2388,-111.3718 48.7389,-101.3718 41.7389,-101.3717"/>
</g>
</g>
</svg>
