<?xml version="1.0" encoding="UTF-8" standalone="no"?>
<!DOCTYPE svg PUBLIC "-//W3C//DTD SVG 1.1//EN"
 "http://www.w3.org/Graphics/SVG/1.1/DTD/svg11.dtd">
<!-- Generated by graphviz version 2.40.1 (20161225.0304)
 -->
<!-- Title: MongoDB Pages: 1 -->
<svg width="102pt" height="244pt"
 viewBox="0.00 0.00 101.54 244.00" xmlns="http://www.w3.org/2000/svg" xmlns:xlink="http://www.w3.org/1999/xlink">
<g id="graph0" class="graph" transform="scale(1 1) rotate(0) translate(4 240)">
<title>MongoDB</title>
<polygon fill="#ffffff" stroke="transparent" points="-4,4 -4,-240 97.5439,-240 97.5439,4 -4,4"/>
<!-- Node0 -->
<g id="node1" class="node">
<title>Node0</title>
<polygon fill="#bfbfbf" stroke="#000000" points="0,-.5 0,-104.5 93.5439,-104.5 93.5439,-.5 0,-.5"/>
<text text-anchor="middle" x="46.772" y="-92.5" font-family="Helvetica,sans-Serif" font-size="10.00" fill="#000000">MongoDB</text>
<polyline fill="none" stroke="#000000" points="0,-86.5 93.5439,-86.5 "/>
<text text-anchor="start" x="8" y="-74.5" font-family="Helvetica,sans-Serif" font-size="10.00" fill="#000000">+ operator[String]</text>
<text text-anchor="start" x="8" y="-64.5" font-family="Helvetica,sans-Serif" font-size="10.00" fill="#000000">+ fs</text>
<polyline fill="none" stroke="#000000" points="0,-58.5 93.5439,-58.5 "/>
<text text-anchor="start" x="8" y="-46.5" font-family="Helvetica,sans-Serif" font-size="10.00" fill="#000000">+ getCollection()</text>
<text text-anchor="start" x="8" y="-36.5" font-family="Helvetica,sans-Serif" font-size="10.00" fill="#000000">+ runCommand()</text>
<text text-anchor="start" x="8" y="-26.5" font-family="Helvetica,sans-Serif" font-size="10.00" fill="#000000">+ runCommand()</text>
<text text-anchor="start" x="8" y="-16.5" font-family="Helvetica,sans-Serif" font-size="10.00" fill="#000000">+ oid()</text>
<text text-anchor="start" x="8" y="-6.5" font-family="Helvetica,sans-Serif" font-size="10.00" fill="#000000">+ close()</text>
</g>
<!-- Node1 -->
<g id="node2" class="node">
<title>Node1</title>
<g id="a_node2"><a xlink:href="../../db/d38/interfaceobject.html" target="_top" xlink:title="基础对象，所有对象均继承于此 ">
<polygon fill="#ffffff" stroke="#000000" points="13.6279,-141.5 13.6279,-235.5 79.916,-235.5 79.916,-141.5 13.6279,-141.5"/>
<text text-anchor="middle" x="46.772" y="-223.5" font-family="Helvetica,sans-Serif" font-size="10.00" fill="#000000">object</text>
<polyline fill="none" stroke="#000000" points="13.6279,-217.5 79.916,-217.5 "/>
<text text-anchor="middle" x="46.772" y="-205.5" font-family="Helvetica,sans-Serif" font-size="10.00" fill="#000000"> </text>
<polyline fill="none" stroke="#000000" points="13.6279,-199.5 79.916,-199.5 "/>
<text text-anchor="start" x="21.6279" y="-187.5" font-family="Helvetica,sans-Serif" font-size="10.00" fill="#000000">+ dispose()</text>
<text text-anchor="start" x="21.6279" y="-177.5" font-family="Helvetica,sans-Serif" font-size="10.00" fill="#000000">+ equals()</text>
<text text-anchor="start" x="21.6279" y="-167.5" font-family="Helvetica,sans-Serif" font-size="10.00" fill="#000000">+ toString()</text>
<text text-anchor="start" x="21.6279" y="-157.5" font-family="Helvetica,sans-Serif" font-size="10.00" fill="#000000">+ toJSON()</text>
<text text-anchor="start" x="21.6279" y="-147.5" font-family="Helvetica,sans-Serif" font-size="10.00" fill="#000000">+ valueOf()</text>
</a>
</g>
</g>
<!-- Node1&#45;&gt;Node0 -->
<g id="edge1" class="edge">
<title>Node1&#45;&gt;Node0</title>
<path fill="none" stroke="#191970" d="M46.772,-131.1629C46.772,-122.3884 46.772,-113.3711 46.772,-104.715"/>
<polygon fill="none" stroke="#191970" points="43.2721,-131.3154 46.772,-141.3155 50.2721,-131.3155 43.2721,-131.3154"/>
</g>
</g>
</svg>
