<?xml version="1.0" encoding="UTF-8" standalone="no"?>
<!DOCTYPE svg PUBLIC "-//W3C//DTD SVG 1.1//EN"
 "http://www.w3.org/Graphics/SVG/1.1/DTD/svg11.dtd">
<!-- Generated by graphviz version 2.38.0 (20140413.2041)
 -->
<!-- Title: XmlNode Pages: 1 -->
<svg width="268pt" height="535pt"
 viewBox="0.00 0.00 267.91 535.00" xmlns="http://www.w3.org/2000/svg" xmlns:xlink="http://www.w3.org/1999/xlink">
<g id="graph0" class="graph" transform="scale(1 1) rotate(0) translate(4 531)">
<title>XmlNode</title>
<polygon fill="white" stroke="none" points="-4,4 -4,-531 263.91,-531 263.91,4 -4,4"/>
<!-- Node1 -->
<g id="node1" class="node"><title>Node1</title>
<polygon fill="#bfbfbf" stroke="black" points="97.8965,-201.5 97.8965,-405.5 195.327,-405.5 195.327,-201.5 97.8965,-201.5"/>
<text text-anchor="middle" x="146.612" y="-393.5" font-family="Helvetica,sans-Serif" font-size="10.00">XmlNode</text>
<polyline fill="none" stroke="black" points="97.8965,-387.5 195.327,-387.5 "/>
<text text-anchor="start" x="105.896" y="-375.5" font-family="Helvetica,sans-Serif" font-size="10.00">+ childNodes</text>
<text text-anchor="start" x="105.896" y="-365.5" font-family="Helvetica,sans-Serif" font-size="10.00">+ doctype</text>
<text text-anchor="start" x="105.896" y="-355.5" font-family="Helvetica,sans-Serif" font-size="10.00">+ firstChild</text>
<text text-anchor="start" x="105.896" y="-345.5" font-family="Helvetica,sans-Serif" font-size="10.00">+ lastChild</text>
<text text-anchor="start" x="105.896" y="-335.5" font-family="Helvetica,sans-Serif" font-size="10.00">+ nodeName</text>
<text text-anchor="start" x="105.896" y="-325.5" font-family="Helvetica,sans-Serif" font-size="10.00">+ nodeValue</text>
<text text-anchor="start" x="105.896" y="-315.5" font-family="Helvetica,sans-Serif" font-size="10.00">+ ownerDocument</text>
<text text-anchor="start" x="105.896" y="-305.5" font-family="Helvetica,sans-Serif" font-size="10.00">+ parentNode</text>
<text text-anchor="start" x="105.896" y="-295.5" font-family="Helvetica,sans-Serif" font-size="10.00">+ previousSibling</text>
<polyline fill="none" stroke="black" points="97.8965,-289.5 195.327,-289.5 "/>
<text text-anchor="start" x="105.896" y="-277.5" font-family="Helvetica,sans-Serif" font-size="10.00">+ appendChild()</text>
<text text-anchor="start" x="105.896" y="-267.5" font-family="Helvetica,sans-Serif" font-size="10.00">+ cloneNode()</text>
<text text-anchor="start" x="105.896" y="-257.5" font-family="Helvetica,sans-Serif" font-size="10.00">+ insertAfter()</text>
<text text-anchor="start" x="105.896" y="-247.5" font-family="Helvetica,sans-Serif" font-size="10.00">+ insertBefore()</text>
<text text-anchor="start" x="105.896" y="-237.5" font-family="Helvetica,sans-Serif" font-size="10.00">+ normalize()</text>
<text text-anchor="start" x="105.896" y="-227.5" font-family="Helvetica,sans-Serif" font-size="10.00">+ removeAll()</text>
<text text-anchor="start" x="105.896" y="-217.5" font-family="Helvetica,sans-Serif" font-size="10.00">+ removeChild()</text>
<text text-anchor="start" x="105.896" y="-207.5" font-family="Helvetica,sans-Serif" font-size="10.00">+ replaceChild()</text>
</g>
<!-- Node3 -->
<g id="node3" class="node"><title>Node3</title>
<g id="a_node3"><a xlink:href="../../d2/d7f/classXmlDocument.html" target="_top" xlink:title="{XmlDocument\n|+ documentElement\l+ documentURI\l|+ createAttribute()\l+ createAttributeNS()\l+ createCDataSection()\l+ createComment()\l+ createElement()\l+ createElementNS()\l+ createProcessingInstruction()\l+ createTextNode()\l+ getElementById()\l+ getElementsByTagName()\l+ getElementsByTagNameNS()\l}">
<polygon fill="white" stroke="black" points="0,-0.5 0,-164.5 155.224,-164.5 155.224,-0.5 0,-0.5"/>
<text text-anchor="middle" x="77.6118" y="-152.5" font-family="Helvetica,sans-Serif" font-size="10.00">XmlDocument</text>
<polyline fill="none" stroke="black" points="0,-146.5 155.224,-146.5 "/>
<text text-anchor="start" x="8" y="-134.5" font-family="Helvetica,sans-Serif" font-size="10.00">+ documentElement</text>
<text text-anchor="start" x="8" y="-124.5" font-family="Helvetica,sans-Serif" font-size="10.00">+ documentURI</text>
<polyline fill="none" stroke="black" points="0,-118.5 155.224,-118.5 "/>
<text text-anchor="start" x="8" y="-106.5" font-family="Helvetica,sans-Serif" font-size="10.00">+ createAttribute()</text>
<text text-anchor="start" x="8" y="-96.5" font-family="Helvetica,sans-Serif" font-size="10.00">+ createAttributeNS()</text>
<text text-anchor="start" x="8" y="-86.5" font-family="Helvetica,sans-Serif" font-size="10.00">+ createCDataSection()</text>
<text text-anchor="start" x="8" y="-76.5" font-family="Helvetica,sans-Serif" font-size="10.00">+ createComment()</text>
<text text-anchor="start" x="8" y="-66.5" font-family="Helvetica,sans-Serif" font-size="10.00">+ createElement()</text>
<text text-anchor="start" x="8" y="-56.5" font-family="Helvetica,sans-Serif" font-size="10.00">+ createElementNS()</text>
<text text-anchor="start" x="8" y="-46.5" font-family="Helvetica,sans-Serif" font-size="10.00">+ createProcessingInstruction()</text>
<text text-anchor="start" x="8" y="-36.5" font-family="Helvetica,sans-Serif" font-size="10.00">+ createTextNode()</text>
<text text-anchor="start" x="8" y="-26.5" font-family="Helvetica,sans-Serif" font-size="10.00">+ getElementById()</text>
<text text-anchor="start" x="8" y="-16.5" font-family="Helvetica,sans-Serif" font-size="10.00">+ getElementsByTagName()</text>
<text text-anchor="start" x="8" y="-6.5" font-family="Helvetica,sans-Serif" font-size="10.00">+ getElementsByTagNameNS()</text>
</a>
</g>
</g>
<!-- Node1&#45;&gt;Node3 -->
<g id="edge2" class="edge"><title>Node1&#45;&gt;Node3</title>
<path fill="none" stroke="midnightblue" d="M111.728,-191.781C108.838,-182.608 105.951,-173.447 103.149,-164.554"/>
<polygon fill="none" stroke="midnightblue" points="108.394,-192.848 114.737,-201.334 115.071,-190.744 108.394,-192.848"/>
</g>
<!-- Node4 -->
<g id="node4" class="node"><title>Node4</title>
<g id="a_node4"><a xlink:href="../../d4/d9d/classXmlLinkedNode.html" target="_top" xlink:title="{XmlLinkedNode\n||}">
<polygon fill="white" stroke="black" points="173.314,-55.5 173.314,-109.5 259.91,-109.5 259.91,-55.5 173.314,-55.5"/>
<text text-anchor="middle" x="216.612" y="-97.5" font-family="Helvetica,sans-Serif" font-size="10.00">XmlLinkedNode</text>
<polyline fill="none" stroke="black" points="173.314,-91.5 259.91,-91.5 "/>
<text text-anchor="middle" x="216.612" y="-79.5" font-family="Helvetica,sans-Serif" font-size="10.00"> </text>
<polyline fill="none" stroke="black" points="173.314,-73.5 259.91,-73.5 "/>
<text text-anchor="middle" x="216.612" y="-61.5" font-family="Helvetica,sans-Serif" font-size="10.00"> </text>
</a>
</g>
</g>
<!-- Node1&#45;&gt;Node4 -->
<g id="edge3" class="edge"><title>Node1&#45;&gt;Node4</title>
<path fill="none" stroke="midnightblue" d="M181.996,-191.797C191.825,-161.046 201.614,-130.422 208.261,-109.626"/>
<polygon fill="none" stroke="midnightblue" points="178.659,-190.743 178.948,-201.334 185.327,-192.874 178.659,-190.743"/>
</g>
<!-- Node2 -->
<g id="node2" class="node"><title>Node2</title>
<g id="a_node2"><a xlink:href="../../dc/dd8/classobject.html" target="_top" xlink:title="基础对象，所有对象均继承于此 ">
<polygon fill="white" stroke="black" points="113.468,-442.5 113.468,-526.5 179.756,-526.5 179.756,-442.5 113.468,-442.5"/>
<text text-anchor="middle" x="146.612" y="-514.5" font-family="Helvetica,sans-Serif" font-size="10.00">object</text>
<polyline fill="none" stroke="black" points="113.468,-508.5 179.756,-508.5 "/>
<text text-anchor="middle" x="146.612" y="-496.5" font-family="Helvetica,sans-Serif" font-size="10.00"> </text>
<polyline fill="none" stroke="black" points="113.468,-490.5 179.756,-490.5 "/>
<text text-anchor="start" x="121.468" y="-478.5" font-family="Helvetica,sans-Serif" font-size="10.00">+ dispose()</text>
<text text-anchor="start" x="121.468" y="-468.5" font-family="Helvetica,sans-Serif" font-size="10.00">+ toString()</text>
<text text-anchor="start" x="121.468" y="-458.5" font-family="Helvetica,sans-Serif" font-size="10.00">+ toJSON()</text>
<text text-anchor="start" x="121.468" y="-448.5" font-family="Helvetica,sans-Serif" font-size="10.00">+ valueOf()</text>
</a>
</g>
</g>
<!-- Node2&#45;&gt;Node1 -->
<g id="edge1" class="edge"><title>Node2&#45;&gt;Node1</title>
<path fill="none" stroke="midnightblue" d="M146.612,-432.155C146.612,-423.787 146.612,-414.87 146.612,-405.789"/>
<polygon fill="none" stroke="midnightblue" points="143.112,-432.434 146.612,-442.434 150.112,-432.434 143.112,-432.434"/>
</g>
</g>
</svg>
