<?xml version="1.0" encoding="UTF-8" standalone="no"?>
<!DOCTYPE svg PUBLIC "-//W3C//DTD SVG 1.1//EN"
 "http://www.w3.org/Graphics/SVG/1.1/DTD/svg11.dtd">
<!-- Generated by graphviz version 2.40.1 (20161225.0304)
 -->
<!-- Title: Event Pages: 1 -->
<svg width="74pt" height="355pt"
 viewBox="0.00 0.00 74.29 355.00" xmlns="http://www.w3.org/2000/svg" xmlns:xlink="http://www.w3.org/1999/xlink">
<g id="graph0" class="graph" transform="scale(1 1) rotate(0) translate(4 351)">
<title>Event</title>
<polygon fill="#ffffff" stroke="transparent" points="-4,4 -4,-351 70.2881,-351 70.2881,4 -4,4"/>
<!-- Node0 -->
<g id="node1" class="node">
<title>Node0</title>
<polygon fill="#bfbfbf" stroke="#000000" points="4.7192,-.5 4.7192,-104.5 61.5688,-104.5 61.5688,-.5 4.7192,-.5"/>
<text text-anchor="middle" x="33.144" y="-92.5" font-family="Helvetica,sans-Serif" font-size="10.00" fill="#000000">Event</text>
<polyline fill="none" stroke="#000000" points="4.7192,-86.5 61.5688,-86.5 "/>
<text text-anchor="middle" x="33.144" y="-74.5" font-family="Helvetica,sans-Serif" font-size="10.00" fill="#000000"> </text>
<polyline fill="none" stroke="#000000" points="4.7192,-68.5 61.5688,-68.5 "/>
<text text-anchor="start" x="12.7192" y="-56.5" font-family="Helvetica,sans-Serif" font-size="10.00" fill="#000000">+ Event()</text>
<text text-anchor="start" x="12.7192" y="-46.5" font-family="Helvetica,sans-Serif" font-size="10.00" fill="#000000">+ isSet()</text>
<text text-anchor="start" x="12.7192" y="-36.5" font-family="Helvetica,sans-Serif" font-size="10.00" fill="#000000">+ set()</text>
<text text-anchor="start" x="12.7192" y="-26.5" font-family="Helvetica,sans-Serif" font-size="10.00" fill="#000000">+ pulse()</text>
<text text-anchor="start" x="12.7192" y="-16.5" font-family="Helvetica,sans-Serif" font-size="10.00" fill="#000000">+ clear()</text>
<text text-anchor="start" x="12.7192" y="-6.5" font-family="Helvetica,sans-Serif" font-size="10.00" fill="#000000">+ wait()</text>
</g>
<!-- Node1 -->
<g id="node2" class="node">
<title>Node1</title>
<g id="a_node2"><a xlink:href="../../de/da6/interfaceLock.html" target="_top" xlink:title="纤程锁对象 ">
<polygon fill="#ffffff" stroke="#000000" points="1.106,-141.5 1.106,-215.5 65.1821,-215.5 65.1821,-141.5 1.106,-141.5"/>
<text text-anchor="middle" x="33.144" y="-203.5" font-family="Helvetica,sans-Serif" font-size="10.00" fill="#000000">Lock</text>
<polyline fill="none" stroke="#000000" points="1.106,-197.5 65.1821,-197.5 "/>
<text text-anchor="middle" x="33.144" y="-185.5" font-family="Helvetica,sans-Serif" font-size="10.00" fill="#000000"> </text>
<polyline fill="none" stroke="#000000" points="1.106,-179.5 65.1821,-179.5 "/>
<text text-anchor="start" x="9.106" y="-167.5" font-family="Helvetica,sans-Serif" font-size="10.00" fill="#000000">+ Lock()</text>
<text text-anchor="start" x="9.106" y="-157.5" font-family="Helvetica,sans-Serif" font-size="10.00" fill="#000000">+ acquire()</text>
<text text-anchor="start" x="9.106" y="-147.5" font-family="Helvetica,sans-Serif" font-size="10.00" fill="#000000">+ release()</text>
</a>
</g>
</g>
<!-- Node1&#45;&gt;Node0 -->
<g id="edge1" class="edge">
<title>Node1&#45;&gt;Node0</title>
<path fill="none" stroke="#191970" d="M33.144,-131.131C33.144,-122.5233 33.144,-113.5001 33.144,-104.761"/>
<polygon fill="none" stroke="#191970" points="29.6441,-131.3773 33.144,-141.3773 36.6441,-131.3774 29.6441,-131.3773"/>
</g>
<!-- Node2 -->
<g id="node3" class="node">
<title>Node2</title>
<g id="a_node3"><a xlink:href="../../db/d38/interfaceobject.html" target="_top" xlink:title="基础对象，所有对象均继承于此 ">
<polygon fill="#ffffff" stroke="#000000" points="0,-252.5 0,-346.5 66.2881,-346.5 66.2881,-252.5 0,-252.5"/>
<text text-anchor="middle" x="33.144" y="-334.5" font-family="Helvetica,sans-Serif" font-size="10.00" fill="#000000">object</text>
<polyline fill="none" stroke="#000000" points="0,-328.5 66.2881,-328.5 "/>
<text text-anchor="middle" x="33.144" y="-316.5" font-family="Helvetica,sans-Serif" font-size="10.00" fill="#000000"> </text>
<polyline fill="none" stroke="#000000" points="0,-310.5 66.2881,-310.5 "/>
<text text-anchor="start" x="8" y="-298.5" font-family="Helvetica,sans-Serif" font-size="10.00" fill="#000000">+ dispose()</text>
<text text-anchor="start" x="8" y="-288.5" font-family="Helvetica,sans-Serif" font-size="10.00" fill="#000000">+ equals()</text>
<text text-anchor="start" x="8" y="-278.5" font-family="Helvetica,sans-Serif" font-size="10.00" fill="#000000">+ toString()</text>
<text text-anchor="start" x="8" y="-268.5" font-family="Helvetica,sans-Serif" font-size="10.00" fill="#000000">+ toJSON()</text>
<text text-anchor="start" x="8" y="-258.5" font-family="Helvetica,sans-Serif" font-size="10.00" fill="#000000">+ valueOf()</text>
</a>
</g>
</g>
<!-- Node2&#45;&gt;Node1 -->
<g id="edge2" class="edge">
<title>Node2&#45;&gt;Node1</title>
<path fill="none" stroke="#191970" d="M33.144,-242.2279C33.144,-233.1684 33.144,-224.0122 33.144,-215.5748"/>
<polygon fill="none" stroke="#191970" points="29.6441,-242.3717 33.144,-252.3718 36.6441,-242.3718 29.6441,-242.3717"/>
</g>
</g>
</svg>
