<?xml version="1.0" encoding="UTF-8" standalone="no"?>
<!DOCTYPE svg PUBLIC "-//W3C//DTD SVG 1.1//EN"
 "http://www.w3.org/Graphics/SVG/1.1/DTD/svg11.dtd">
<!-- Generated by graphviz version 2.38.0 (20140413.2041)
 -->
<!-- Title: HttpsServer Pages: 1 -->
<svg width="116pt" height="516pt"
 viewBox="0.00 0.00 115.99 516.00" xmlns="http://www.w3.org/2000/svg" xmlns:xlink="http://www.w3.org/1999/xlink">
<g id="graph0" class="graph" transform="scale(1 1) rotate(0) translate(4 512)">
<title>HttpsServer</title>
<polygon fill="white" stroke="none" points="-4,4 -4,-512 111.992,-512 111.992,4 -4,4"/>
<!-- Node1 -->
<g id="node1" class="node"><title>Node1</title>
<polygon fill="#bfbfbf" stroke="black" points="11.9604,-0.5 11.9604,-94.5 96.0317,-94.5 96.0317,-0.5 11.9604,-0.5"/>
<text text-anchor="middle" x="53.9961" y="-82.5" font-family="Helvetica,sans-Serif" font-size="10.00">HttpsServer</text>
<polyline fill="none" stroke="black" points="11.9604,-76.5 96.0317,-76.5 "/>
<text text-anchor="start" x="19.9604" y="-64.5" font-family="Helvetica,sans-Serif" font-size="10.00">+ verification</text>
<text text-anchor="start" x="19.9604" y="-54.5" font-family="Helvetica,sans-Serif" font-size="10.00">+ ca</text>
<polyline fill="none" stroke="black" points="11.9604,-48.5 96.0317,-48.5 "/>
<text text-anchor="start" x="19.9604" y="-36.5" font-family="Helvetica,sans-Serif" font-size="10.00">+ HttpsServer()</text>
<text text-anchor="start" x="19.9604" y="-26.5" font-family="Helvetica,sans-Serif" font-size="10.00">+ HttpsServer()</text>
<text text-anchor="start" x="19.9604" y="-16.5" font-family="Helvetica,sans-Serif" font-size="10.00">+ HttpsServer()</text>
<text text-anchor="start" x="19.9604" y="-6.5" font-family="Helvetica,sans-Serif" font-size="10.00">+ HttpsServer()</text>
</g>
<!-- Node2 -->
<g id="node2" class="node"><title>Node2</title>
<g id="a_node2"><a xlink:href="../../d4/d79/interfaceHttpServer.html" target="_top" xlink:title="http server object ">
<polygon fill="white" stroke="black" points="0,-131.5 0,-235.5 107.992,-235.5 107.992,-131.5 0,-131.5"/>
<text text-anchor="middle" x="53.9961" y="-223.5" font-family="Helvetica,sans-Serif" font-size="10.00">HttpServer</text>
<polyline fill="none" stroke="black" points="0,-217.5 107.992,-217.5 "/>
<text text-anchor="start" x="8" y="-205.5" font-family="Helvetica,sans-Serif" font-size="10.00">+ crossDomain</text>
<text text-anchor="start" x="8" y="-195.5" font-family="Helvetica,sans-Serif" font-size="10.00">+ forceGZIP</text>
<text text-anchor="start" x="8" y="-185.5" font-family="Helvetica,sans-Serif" font-size="10.00">+ maxHeadersCount</text>
<text text-anchor="start" x="8" y="-175.5" font-family="Helvetica,sans-Serif" font-size="10.00">+ maxUploadSize</text>
<text text-anchor="start" x="8" y="-165.5" font-family="Helvetica,sans-Serif" font-size="10.00">+ httpStats</text>
<polyline fill="none" stroke="black" points="0,-159.5 107.992,-159.5 "/>
<text text-anchor="start" x="8" y="-147.5" font-family="Helvetica,sans-Serif" font-size="10.00">+ HttpServer()</text>
<text text-anchor="start" x="8" y="-137.5" font-family="Helvetica,sans-Serif" font-size="10.00">+ HttpServer()</text>
</a>
</g>
</g>
<!-- Node2&#45;&gt;Node1 -->
<g id="edge1" class="edge"><title>Node2&#45;&gt;Node1</title>
<path fill="none" stroke="midnightblue" d="M53.9961,-121.377C53.9961,-112.363 53.9961,-103.206 53.9961,-94.5654"/>
<polygon fill="none" stroke="midnightblue" points="50.4962,-121.458 53.9961,-131.458 57.4962,-121.458 50.4962,-121.458"/>
</g>
<!-- Node3 -->
<g id="node3" class="node"><title>Node3</title>
<g id="a_node3"><a xlink:href="../../d7/d48/interfaceTcpServer.html" target="_top" xlink:title="tcp 服务器对象，可方便创建一个标准多纤程 tcp 服务器 ">
<polygon fill="white" stroke="black" points="15.9375,-272.5 15.9375,-386.5 92.0547,-386.5 92.0547,-272.5 15.9375,-272.5"/>
<text text-anchor="middle" x="53.9961" y="-374.5" font-family="Helvetica,sans-Serif" font-size="10.00">TcpServer</text>
<polyline fill="none" stroke="black" points="15.9375,-368.5 92.0547,-368.5 "/>
<text text-anchor="start" x="23.9375" y="-356.5" font-family="Helvetica,sans-Serif" font-size="10.00">+ socket</text>
<text text-anchor="start" x="23.9375" y="-346.5" font-family="Helvetica,sans-Serif" font-size="10.00">+ handler</text>
<text text-anchor="start" x="23.9375" y="-336.5" font-family="Helvetica,sans-Serif" font-size="10.00">+ stats</text>
<polyline fill="none" stroke="black" points="15.9375,-330.5 92.0547,-330.5 "/>
<text text-anchor="start" x="23.9375" y="-318.5" font-family="Helvetica,sans-Serif" font-size="10.00">+ TcpServer()</text>
<text text-anchor="start" x="23.9375" y="-308.5" font-family="Helvetica,sans-Serif" font-size="10.00">+ TcpServer()</text>
<text text-anchor="start" x="23.9375" y="-298.5" font-family="Helvetica,sans-Serif" font-size="10.00">+ run()</text>
<text text-anchor="start" x="23.9375" y="-288.5" font-family="Helvetica,sans-Serif" font-size="10.00">+ asyncRun()</text>
<text text-anchor="start" x="23.9375" y="-278.5" font-family="Helvetica,sans-Serif" font-size="10.00">+ stop()</text>
</a>
</g>
</g>
<!-- Node3&#45;&gt;Node2 -->
<g id="edge2" class="edge"><title>Node3&#45;&gt;Node2</title>
<path fill="none" stroke="midnightblue" d="M53.9961,-262.325C53.9961,-253.316 53.9961,-244.185 53.9961,-235.5"/>
<polygon fill="none" stroke="midnightblue" points="50.4962,-262.413 53.9961,-272.414 57.4962,-262.414 50.4962,-262.413"/>
</g>
<!-- Node4 -->
<g id="node4" class="node"><title>Node4</title>
<g id="a_node4"><a xlink:href="../../db/d38/interfaceobject.html" target="_top" xlink:title="All objects inherit from this. ">
<polygon fill="white" stroke="black" points="20.8521,-423.5 20.8521,-507.5 87.1401,-507.5 87.1401,-423.5 20.8521,-423.5"/>
<text text-anchor="middle" x="53.9961" y="-495.5" font-family="Helvetica,sans-Serif" font-size="10.00">object</text>
<polyline fill="none" stroke="black" points="20.8521,-489.5 87.1401,-489.5 "/>
<text text-anchor="middle" x="53.9961" y="-477.5" font-family="Helvetica,sans-Serif" font-size="10.00"> </text>
<polyline fill="none" stroke="black" points="20.8521,-471.5 87.1401,-471.5 "/>
<text text-anchor="start" x="28.8521" y="-459.5" font-family="Helvetica,sans-Serif" font-size="10.00">+ dispose()</text>
<text text-anchor="start" x="28.8521" y="-449.5" font-family="Helvetica,sans-Serif" font-size="10.00">+ toString()</text>
<text text-anchor="start" x="28.8521" y="-439.5" font-family="Helvetica,sans-Serif" font-size="10.00">+ toJSON()</text>
<text text-anchor="start" x="28.8521" y="-429.5" font-family="Helvetica,sans-Serif" font-size="10.00">+ valueOf()</text>
</a>
</g>
</g>
<!-- Node4&#45;&gt;Node3 -->
<g id="edge3" class="edge"><title>Node4&#45;&gt;Node3</title>
<path fill="none" stroke="midnightblue" d="M53.9961,-412.94C53.9961,-404.347 53.9961,-395.397 53.9961,-386.696"/>
<polygon fill="none" stroke="midnightblue" points="50.4962,-413.202 53.9961,-423.202 57.4962,-413.202 50.4962,-413.202"/>
</g>
</g>
</svg>
