<?xml version="1.0" encoding="UTF-8" standalone="no"?>
<!DOCTYPE svg PUBLIC "-//W3C//DTD SVG 1.1//EN"
 "http://www.w3.org/Graphics/SVG/1.1/DTD/svg11.dtd">
<!-- Generated by graphviz version 2.38.0 (20140413.2041)
 -->
<!-- Title: Routing Pages: 1 -->
<svg width="74pt" height="465pt"
 viewBox="0.00 0.00 74.29 465.00" xmlns="http://www.w3.org/2000/svg" xmlns:xlink="http://www.w3.org/1999/xlink">
<g id="graph0" class="graph" transform="scale(1 1) rotate(0) translate(4 461)">
<title>Routing</title>
<polygon fill="white" stroke="none" points="-4,4 -4,-461 70.2881,-461 70.2881,4 -4,4"/>
<!-- Node1 -->
<g id="node1" class="node"><title>Node1</title>
<polygon fill="#bfbfbf" stroke="black" points="0.270996,-0.5 0.270996,-234.5 66.0171,-234.5 66.0171,-0.5 0.270996,-0.5"/>
<text text-anchor="middle" x="33.144" y="-222.5" font-family="Helvetica,sans-Serif" font-size="10.00">Routing</text>
<polyline fill="none" stroke="black" points="0.270996,-216.5 66.0171,-216.5 "/>
<text text-anchor="middle" x="33.144" y="-204.5" font-family="Helvetica,sans-Serif" font-size="10.00"> </text>
<polyline fill="none" stroke="black" points="0.270996,-198.5 66.0171,-198.5 "/>
<text text-anchor="start" x="8.271" y="-186.5" font-family="Helvetica,sans-Serif" font-size="10.00">+ Routing()</text>
<text text-anchor="start" x="8.271" y="-176.5" font-family="Helvetica,sans-Serif" font-size="10.00">+ Routing()</text>
<text text-anchor="start" x="8.271" y="-166.5" font-family="Helvetica,sans-Serif" font-size="10.00">+ append()</text>
<text text-anchor="start" x="8.271" y="-156.5" font-family="Helvetica,sans-Serif" font-size="10.00">+ append()</text>
<text text-anchor="start" x="8.271" y="-146.5" font-family="Helvetica,sans-Serif" font-size="10.00">+ append()</text>
<text text-anchor="start" x="8.271" y="-136.5" font-family="Helvetica,sans-Serif" font-size="10.00">+ append()</text>
<text text-anchor="start" x="8.271" y="-126.5" font-family="Helvetica,sans-Serif" font-size="10.00">+ append()</text>
<text text-anchor="start" x="8.271" y="-116.5" font-family="Helvetica,sans-Serif" font-size="10.00">+ all()</text>
<text text-anchor="start" x="8.271" y="-106.5" font-family="Helvetica,sans-Serif" font-size="10.00">+ all()</text>
<text text-anchor="start" x="8.271" y="-96.5" font-family="Helvetica,sans-Serif" font-size="10.00">+ get()</text>
<text text-anchor="start" x="8.271" y="-86.5" font-family="Helvetica,sans-Serif" font-size="10.00">+ get()</text>
<text text-anchor="start" x="8.271" y="-76.5" font-family="Helvetica,sans-Serif" font-size="10.00">+ post()</text>
<text text-anchor="start" x="8.271" y="-66.5" font-family="Helvetica,sans-Serif" font-size="10.00">+ post()</text>
<text text-anchor="start" x="8.271" y="-56.5" font-family="Helvetica,sans-Serif" font-size="10.00">+ del()</text>
<text text-anchor="start" x="8.271" y="-46.5" font-family="Helvetica,sans-Serif" font-size="10.00">+ del()</text>
<text text-anchor="start" x="8.271" y="-36.5" font-family="Helvetica,sans-Serif" font-size="10.00">+ put()</text>
<text text-anchor="start" x="8.271" y="-26.5" font-family="Helvetica,sans-Serif" font-size="10.00">+ put()</text>
<text text-anchor="start" x="8.271" y="-16.5" font-family="Helvetica,sans-Serif" font-size="10.00">+ patch()</text>
<text text-anchor="start" x="8.271" y="-6.5" font-family="Helvetica,sans-Serif" font-size="10.00">+ patch()</text>
</g>
<!-- Node2 -->
<g id="node2" class="node"><title>Node2</title>
<g id="a_node2"><a xlink:href="../../da/d85/interfaceHandler.html" target="_top" xlink:title="消息处理器接口 ">
<polygon fill="white" stroke="black" points="3.05176,-271.5 3.05176,-325.5 63.2363,-325.5 63.2363,-271.5 3.05176,-271.5"/>
<text text-anchor="middle" x="33.144" y="-313.5" font-family="Helvetica,sans-Serif" font-size="10.00">Handler</text>
<polyline fill="none" stroke="black" points="3.05176,-307.5 63.2363,-307.5 "/>
<text text-anchor="middle" x="33.144" y="-295.5" font-family="Helvetica,sans-Serif" font-size="10.00"> </text>
<polyline fill="none" stroke="black" points="3.05176,-289.5 63.2363,-289.5 "/>
<text text-anchor="start" x="11.0518" y="-277.5" font-family="Helvetica,sans-Serif" font-size="10.00">+ invoke()</text>
</a>
</g>
</g>
<!-- Node2&#45;&gt;Node1 -->
<g id="edge1" class="edge"><title>Node2&#45;&gt;Node1</title>
<path fill="none" stroke="midnightblue" d="M33.144,-261.376C33.144,-253.261 33.144,-244.224 33.144,-234.746"/>
<polygon fill="none" stroke="midnightblue" points="29.6441,-261.472 33.144,-271.472 36.6441,-261.472 29.6441,-261.472"/>
</g>
<!-- Node3 -->
<g id="node3" class="node"><title>Node3</title>
<g id="a_node3"><a xlink:href="../../db/d38/interfaceobject.html" target="_top" xlink:title="基础对象，所有对象均继承于此 ">
<polygon fill="white" stroke="black" points="0,-362.5 0,-456.5 66.2881,-456.5 66.2881,-362.5 0,-362.5"/>
<text text-anchor="middle" x="33.144" y="-444.5" font-family="Helvetica,sans-Serif" font-size="10.00">object</text>
<polyline fill="none" stroke="black" points="0,-438.5 66.2881,-438.5 "/>
<text text-anchor="middle" x="33.144" y="-426.5" font-family="Helvetica,sans-Serif" font-size="10.00"> </text>
<polyline fill="none" stroke="black" points="0,-420.5 66.2881,-420.5 "/>
<text text-anchor="start" x="8" y="-408.5" font-family="Helvetica,sans-Serif" font-size="10.00">+ dispose()</text>
<text text-anchor="start" x="8" y="-398.5" font-family="Helvetica,sans-Serif" font-size="10.00">+ equals()</text>
<text text-anchor="start" x="8" y="-388.5" font-family="Helvetica,sans-Serif" font-size="10.00">+ toString()</text>
<text text-anchor="start" x="8" y="-378.5" font-family="Helvetica,sans-Serif" font-size="10.00">+ toJSON()</text>
<text text-anchor="start" x="8" y="-368.5" font-family="Helvetica,sans-Serif" font-size="10.00">+ valueOf()</text>
</a>
</g>
</g>
<!-- Node3&#45;&gt;Node2 -->
<g id="edge2" class="edge"><title>Node3&#45;&gt;Node2</title>
<path fill="none" stroke="midnightblue" d="M33.144,-352.212C33.144,-342.916 33.144,-333.69 33.144,-325.617"/>
<polygon fill="none" stroke="midnightblue" points="29.6441,-352.274 33.144,-362.274 36.6441,-352.274 29.6441,-352.274"/>
</g>
</g>
</svg>
