<?xml version="1.0" encoding="UTF-8" standalone="no"?>
<!DOCTYPE svg PUBLIC "-//W3C//DTD SVG 1.1//EN"
 "http://www.w3.org/Graphics/SVG/1.1/DTD/svg11.dtd">
<!-- Generated by graphviz version 2.40.1 (20161225.0304)
 -->
<!-- Title: Routing Pages: 1 -->
<svg width="74pt" height="465pt"
 viewBox="0.00 0.00 74.29 465.00" xmlns="http://www.w3.org/2000/svg" xmlns:xlink="http://www.w3.org/1999/xlink">
<g id="graph0" class="graph" transform="scale(1 1) rotate(0) translate(4 461)">
<title>Routing</title>
<polygon fill="#ffffff" stroke="transparent" points="-4,4 -4,-461 70.2881,-461 70.2881,4 -4,4"/>
<!-- Node0 -->
<g id="node1" class="node">
<title>Node0</title>
<polygon fill="#bfbfbf" stroke="#000000" points=".271,-.5 .271,-234.5 66.0171,-234.5 66.0171,-.5 .271,-.5"/>
<text text-anchor="middle" x="33.144" y="-222.5" font-family="Helvetica,sans-Serif" font-size="10.00" fill="#000000">Routing</text>
<polyline fill="none" stroke="#000000" points=".271,-216.5 66.0171,-216.5 "/>
<text text-anchor="middle" x="33.144" y="-204.5" font-family="Helvetica,sans-Serif" font-size="10.00" fill="#000000"> </text>
<polyline fill="none" stroke="#000000" points=".271,-198.5 66.0171,-198.5 "/>
<text text-anchor="start" x="8.271" y="-186.5" font-family="Helvetica,sans-Serif" font-size="10.00" fill="#000000">+ Routing()</text>
<text text-anchor="start" x="8.271" y="-176.5" font-family="Helvetica,sans-Serif" font-size="10.00" fill="#000000">+ Routing()</text>
<text text-anchor="start" x="8.271" y="-166.5" font-family="Helvetica,sans-Serif" font-size="10.00" fill="#000000">+ append()</text>
<text text-anchor="start" x="8.271" y="-156.5" font-family="Helvetica,sans-Serif" font-size="10.00" fill="#000000">+ append()</text>
<text text-anchor="start" x="8.271" y="-146.5" font-family="Helvetica,sans-Serif" font-size="10.00" fill="#000000">+ append()</text>
<text text-anchor="start" x="8.271" y="-136.5" font-family="Helvetica,sans-Serif" font-size="10.00" fill="#000000">+ append()</text>
<text text-anchor="start" x="8.271" y="-126.5" font-family="Helvetica,sans-Serif" font-size="10.00" fill="#000000">+ append()</text>
<text text-anchor="start" x="8.271" y="-116.5" font-family="Helvetica,sans-Serif" font-size="10.00" fill="#000000">+ all()</text>
<text text-anchor="start" x="8.271" y="-106.5" font-family="Helvetica,sans-Serif" font-size="10.00" fill="#000000">+ all()</text>
<text text-anchor="start" x="8.271" y="-96.5" font-family="Helvetica,sans-Serif" font-size="10.00" fill="#000000">+ get()</text>
<text text-anchor="start" x="8.271" y="-86.5" font-family="Helvetica,sans-Serif" font-size="10.00" fill="#000000">+ get()</text>
<text text-anchor="start" x="8.271" y="-76.5" font-family="Helvetica,sans-Serif" font-size="10.00" fill="#000000">+ post()</text>
<text text-anchor="start" x="8.271" y="-66.5" font-family="Helvetica,sans-Serif" font-size="10.00" fill="#000000">+ post()</text>
<text text-anchor="start" x="8.271" y="-56.5" font-family="Helvetica,sans-Serif" font-size="10.00" fill="#000000">+ del()</text>
<text text-anchor="start" x="8.271" y="-46.5" font-family="Helvetica,sans-Serif" font-size="10.00" fill="#000000">+ del()</text>
<text text-anchor="start" x="8.271" y="-36.5" font-family="Helvetica,sans-Serif" font-size="10.00" fill="#000000">+ put()</text>
<text text-anchor="start" x="8.271" y="-26.5" font-family="Helvetica,sans-Serif" font-size="10.00" fill="#000000">+ put()</text>
<text text-anchor="start" x="8.271" y="-16.5" font-family="Helvetica,sans-Serif" font-size="10.00" fill="#000000">+ patch()</text>
<text text-anchor="start" x="8.271" y="-6.5" font-family="Helvetica,sans-Serif" font-size="10.00" fill="#000000">+ patch()</text>
</g>
<!-- Node1 -->
<g id="node2" class="node">
<title>Node1</title>
<g id="a_node2"><a xlink:href="../../da/d85/interfaceHandler.html" target="_top" xlink:title="消息处理器接口 ">
<polygon fill="#ffffff" stroke="#000000" points="3.0518,-271.5 3.0518,-325.5 63.2363,-325.5 63.2363,-271.5 3.0518,-271.5"/>
<text text-anchor="middle" x="33.144" y="-313.5" font-family="Helvetica,sans-Serif" font-size="10.00" fill="#000000">Handler</text>
<polyline fill="none" stroke="#000000" points="3.0518,-307.5 63.2363,-307.5 "/>
<text text-anchor="middle" x="33.144" y="-295.5" font-family="Helvetica,sans-Serif" font-size="10.00" fill="#000000"> </text>
<polyline fill="none" stroke="#000000" points="3.0518,-289.5 63.2363,-289.5 "/>
<text text-anchor="start" x="11.0518" y="-277.5" font-family="Helvetica,sans-Serif" font-size="10.00" fill="#000000">+ invoke()</text>
</a>
</g>
</g>
<!-- Node1&#45;&gt;Node0 -->
<g id="edge1" class="edge">
<title>Node1&#45;&gt;Node0</title>
<path fill="none" stroke="#191970" d="M33.144,-261.2548C33.144,-253.1148 33.144,-244.0826 33.144,-234.6245"/>
<polygon fill="none" stroke="#191970" points="29.6441,-261.4024 33.144,-271.4025 36.6441,-261.4025 29.6441,-261.4024"/>
</g>
<!-- Node2 -->
<g id="node3" class="node">
<title>Node2</title>
<g id="a_node3"><a xlink:href="../../db/d38/interfaceobject.html" target="_top" xlink:title="基础对象，所有对象均继承于此 ">
<polygon fill="#ffffff" stroke="#000000" points="0,-362.5 0,-456.5 66.2881,-456.5 66.2881,-362.5 0,-362.5"/>
<text text-anchor="middle" x="33.144" y="-444.5" font-family="Helvetica,sans-Serif" font-size="10.00" fill="#000000">object</text>
<polyline fill="none" stroke="#000000" points="0,-438.5 66.2881,-438.5 "/>
<text text-anchor="middle" x="33.144" y="-426.5" font-family="Helvetica,sans-Serif" font-size="10.00" fill="#000000"> </text>
<polyline fill="none" stroke="#000000" points="0,-420.5 66.2881,-420.5 "/>
<text text-anchor="start" x="8" y="-408.5" font-family="Helvetica,sans-Serif" font-size="10.00" fill="#000000">+ dispose()</text>
<text text-anchor="start" x="8" y="-398.5" font-family="Helvetica,sans-Serif" font-size="10.00" fill="#000000">+ equals()</text>
<text text-anchor="start" x="8" y="-388.5" font-family="Helvetica,sans-Serif" font-size="10.00" fill="#000000">+ toString()</text>
<text text-anchor="start" x="8" y="-378.5" font-family="Helvetica,sans-Serif" font-size="10.00" fill="#000000">+ toJSON()</text>
<text text-anchor="start" x="8" y="-368.5" font-family="Helvetica,sans-Serif" font-size="10.00" fill="#000000">+ valueOf()</text>
</a>
</g>
</g>
<!-- Node2&#45;&gt;Node1 -->
<g id="edge2" class="edge">
<title>Node2&#45;&gt;Node1</title>
<path fill="none" stroke="#191970" d="M33.144,-352.3691C33.144,-343.0775 33.144,-333.8469 33.144,-325.7203"/>
<polygon fill="none" stroke="#191970" points="29.6441,-352.426 33.144,-362.426 36.6441,-352.426 29.6441,-352.426"/>
</g>
</g>
</svg>
