<?xml version="1.0" encoding="UTF-8" standalone="no"?>
<!DOCTYPE svg PUBLIC "-//W3C//DTD SVG 1.1//EN"
 "http://www.w3.org/Graphics/SVG/1.1/DTD/svg11.dtd">
<!-- Generated by graphviz version 2.38.0 (20140413.2041)
 -->
<!-- Title: ZipInfo Pages: 1 -->
<svg width="100pt" height="244pt"
 viewBox="0.00 0.00 100.43 244.00" xmlns="http://www.w3.org/2000/svg" xmlns:xlink="http://www.w3.org/1999/xlink">
<g id="graph0" class="graph" transform="scale(1 1) rotate(0) translate(4 240)">
<title>ZipInfo</title>
<polygon fill="white" stroke="none" points="-4,4 -4,-240 96.4258,-240 96.4258,4 -4,4"/>
<!-- Node1 -->
<g id="node1" class="node"><title>Node1</title>
<polygon fill="#bfbfbf" stroke="black" points="0,-0.5 0,-114.5 92.4258,-114.5 92.4258,-0.5 0,-0.5"/>
<text text-anchor="middle" x="46.2129" y="-102.5" font-family="Helvetica,sans-Serif" font-size="10.00">ZipInfo</text>
<polyline fill="none" stroke="black" points="0,-96.5 92.4258,-96.5 "/>
<text text-anchor="start" x="8" y="-84.5" font-family="Helvetica,sans-Serif" font-size="10.00">+ filename</text>
<text text-anchor="start" x="8" y="-74.5" font-family="Helvetica,sans-Serif" font-size="10.00">+ date</text>
<text text-anchor="start" x="8" y="-64.5" font-family="Helvetica,sans-Serif" font-size="10.00">+ compress_type</text>
<text text-anchor="start" x="8" y="-54.5" font-family="Helvetica,sans-Serif" font-size="10.00">+ compress_size</text>
<text text-anchor="start" x="8" y="-44.5" font-family="Helvetica,sans-Serif" font-size="10.00">+ file_size</text>
<text text-anchor="start" x="8" y="-34.5" font-family="Helvetica,sans-Serif" font-size="10.00">+ password</text>
<text text-anchor="start" x="8" y="-24.5" font-family="Helvetica,sans-Serif" font-size="10.00">+ data</text>
<polyline fill="none" stroke="black" points="0,-18.5 92.4258,-18.5 "/>
<text text-anchor="middle" x="46.2129" y="-6.5" font-family="Helvetica,sans-Serif" font-size="10.00"> </text>
</g>
<!-- Node2 -->
<g id="node2" class="node"><title>Node2</title>
<g id="a_node2"><a xlink:href="../../db/d38/interfaceobject.html" target="_top" xlink:title="All objects inherit from this. ">
<polygon fill="white" stroke="black" points="13.0688,-151.5 13.0688,-235.5 79.3569,-235.5 79.3569,-151.5 13.0688,-151.5"/>
<text text-anchor="middle" x="46.2129" y="-223.5" font-family="Helvetica,sans-Serif" font-size="10.00">object</text>
<polyline fill="none" stroke="black" points="13.0688,-217.5 79.3569,-217.5 "/>
<text text-anchor="middle" x="46.2129" y="-205.5" font-family="Helvetica,sans-Serif" font-size="10.00"> </text>
<polyline fill="none" stroke="black" points="13.0688,-199.5 79.3569,-199.5 "/>
<text text-anchor="start" x="21.0688" y="-187.5" font-family="Helvetica,sans-Serif" font-size="10.00">+ dispose()</text>
<text text-anchor="start" x="21.0688" y="-177.5" font-family="Helvetica,sans-Serif" font-size="10.00">+ toString()</text>
<text text-anchor="start" x="21.0688" y="-167.5" font-family="Helvetica,sans-Serif" font-size="10.00">+ toJSON()</text>
<text text-anchor="start" x="21.0688" y="-157.5" font-family="Helvetica,sans-Serif" font-size="10.00">+ valueOf()</text>
</a>
</g>
</g>
<!-- Node2&#45;&gt;Node1 -->
<g id="edge1" class="edge"><title>Node2&#45;&gt;Node1</title>
<path fill="none" stroke="midnightblue" d="M46.2129,-140.94C46.2129,-132.347 46.2129,-123.397 46.2129,-114.696"/>
<polygon fill="none" stroke="midnightblue" points="42.713,-141.202 46.2129,-151.202 49.713,-141.202 42.713,-141.202"/>
</g>
</g>
</svg>
