<?xml version="1.0" encoding="UTF-8" standalone="no"?>
<!DOCTYPE svg PUBLIC "-//W3C//DTD SVG 1.1//EN"
 "http://www.w3.org/Graphics/SVG/1.1/DTD/svg11.dtd">
<!-- Generated by graphviz version 2.40.1 (20161225.0304)
 -->
<!-- Title: Chain Pages: 1 -->
<svg width="74pt" height="295pt"
 viewBox="0.00 0.00 74.29 295.00" xmlns="http://www.w3.org/2000/svg" xmlns:xlink="http://www.w3.org/1999/xlink">
<g id="graph0" class="graph" transform="scale(1 1) rotate(0) translate(4 291)">
<title>Chain</title>
<polygon fill="#ffffff" stroke="transparent" points="-4,4 -4,-291 70.2881,-291 70.2881,4 -4,4"/>
<!-- Node0 -->
<g id="node1" class="node">
<title>Node0</title>
<polygon fill="#bfbfbf" stroke="#000000" points=".8203,-.5 .8203,-74.5 65.4678,-74.5 65.4678,-.5 .8203,-.5"/>
<text text-anchor="middle" x="33.144" y="-62.5" font-family="Helvetica,sans-Serif" font-size="10.00" fill="#000000">Chain</text>
<polyline fill="none" stroke="#000000" points=".8203,-56.5 65.4678,-56.5 "/>
<text text-anchor="middle" x="33.144" y="-44.5" font-family="Helvetica,sans-Serif" font-size="10.00" fill="#000000"> </text>
<polyline fill="none" stroke="#000000" points=".8203,-38.5 65.4678,-38.5 "/>
<text text-anchor="start" x="8.8203" y="-26.5" font-family="Helvetica,sans-Serif" font-size="10.00" fill="#000000">+ Chain()</text>
<text text-anchor="start" x="8.8203" y="-16.5" font-family="Helvetica,sans-Serif" font-size="10.00" fill="#000000">+ append()</text>
<text text-anchor="start" x="8.8203" y="-6.5" font-family="Helvetica,sans-Serif" font-size="10.00" fill="#000000">+ append()</text>
</g>
<!-- Node1 -->
<g id="node2" class="node">
<title>Node1</title>
<g id="a_node2"><a xlink:href="../../da/d85/interfaceHandler.html" target="_top" xlink:title="Meassage Handler Interface. ">
<polygon fill="#ffffff" stroke="#000000" points="3.0518,-111.5 3.0518,-165.5 63.2363,-165.5 63.2363,-111.5 3.0518,-111.5"/>
<text text-anchor="middle" x="33.144" y="-153.5" font-family="Helvetica,sans-Serif" font-size="10.00" fill="#000000">Handler</text>
<polyline fill="none" stroke="#000000" points="3.0518,-147.5 63.2363,-147.5 "/>
<text text-anchor="middle" x="33.144" y="-135.5" font-family="Helvetica,sans-Serif" font-size="10.00" fill="#000000"> </text>
<polyline fill="none" stroke="#000000" points="3.0518,-129.5 63.2363,-129.5 "/>
<text text-anchor="start" x="11.0518" y="-117.5" font-family="Helvetica,sans-Serif" font-size="10.00" fill="#000000">+ invoke()</text>
</a>
</g>
</g>
<!-- Node1&#45;&gt;Node0 -->
<g id="edge1" class="edge">
<title>Node1&#45;&gt;Node0</title>
<path fill="none" stroke="#191970" d="M33.144,-101.1725C33.144,-92.4692 33.144,-83.2047 33.144,-74.515"/>
<polygon fill="none" stroke="#191970" points="29.6441,-101.4338 33.144,-111.4339 36.6441,-101.4339 29.6441,-101.4338"/>
</g>
<!-- Node2 -->
<g id="node3" class="node">
<title>Node2</title>
<g id="a_node3"><a xlink:href="../../db/d38/interfaceobject.html" target="_top" xlink:title="All objects inherit from this. ">
<polygon fill="#ffffff" stroke="#000000" points="0,-202.5 0,-286.5 66.2881,-286.5 66.2881,-202.5 0,-202.5"/>
<text text-anchor="middle" x="33.144" y="-274.5" font-family="Helvetica,sans-Serif" font-size="10.00" fill="#000000">object</text>
<polyline fill="none" stroke="#000000" points="0,-268.5 66.2881,-268.5 "/>
<text text-anchor="middle" x="33.144" y="-256.5" font-family="Helvetica,sans-Serif" font-size="10.00" fill="#000000"> </text>
<polyline fill="none" stroke="#000000" points="0,-250.5 66.2881,-250.5 "/>
<text text-anchor="start" x="8" y="-238.5" font-family="Helvetica,sans-Serif" font-size="10.00" fill="#000000">+ dispose()</text>
<text text-anchor="start" x="8" y="-228.5" font-family="Helvetica,sans-Serif" font-size="10.00" fill="#000000">+ toString()</text>
<text text-anchor="start" x="8" y="-218.5" font-family="Helvetica,sans-Serif" font-size="10.00" fill="#000000">+ toJSON()</text>
<text text-anchor="start" x="8" y="-208.5" font-family="Helvetica,sans-Serif" font-size="10.00" fill="#000000">+ valueOf()</text>
</a>
</g>
</g>
<!-- Node2&#45;&gt;Node1 -->
<g id="edge2" class="edge">
<title>Node2&#45;&gt;Node1</title>
<path fill="none" stroke="#191970" d="M33.144,-192.041C33.144,-182.8936 33.144,-173.7248 33.144,-165.6245"/>
<polygon fill="none" stroke="#191970" points="29.6441,-192.3014 33.144,-202.3014 36.6441,-192.3015 29.6441,-192.3014"/>
</g>
</g>
</svg>
