<?xml version="1.0" encoding="UTF-8" standalone="no"?>
<!DOCTYPE svg PUBLIC "-//W3C//DTD SVG 1.1//EN"
 "http://www.w3.org/Graphics/SVG/1.1/DTD/svg11.dtd">
<!-- Generated by graphviz version 2.38.0 (20140413.2041)
 -->
<!-- Title: RpcTask Pages: 1 -->
<svg width="102pt" height="184pt"
 viewBox="0.00 0.00 101.54 184.00" xmlns="http://www.w3.org/2000/svg" xmlns:xlink="http://www.w3.org/1999/xlink">
<g id="graph0" class="graph" transform="scale(1 1) rotate(0) translate(4 180)">
<title>RpcTask</title>
<polygon fill="white" stroke="none" points="-4,4 -4,-180 97.5439,-180 97.5439,4 -4,4"/>
<!-- Node1 -->
<g id="node1" class="node"><title>Node1</title>
<polygon fill="#bfbfbf" stroke="black" points="0,-0.5 0,-54.5 93.5439,-54.5 93.5439,-0.5 0,-0.5"/>
<text text-anchor="middle" x="46.772" y="-42.5" font-family="Helvetica,sans-Serif" font-size="10.00">RpcTask</text>
<polyline fill="none" stroke="black" points="0,-36.5 93.5439,-36.5 "/>
<text text-anchor="start" x="8" y="-24.5" font-family="Helvetica,sans-Serif" font-size="10.00">+ operator[String]</text>
<polyline fill="none" stroke="black" points="0,-18.5 93.5439,-18.5 "/>
<text text-anchor="start" x="8" y="-6.5" font-family="Helvetica,sans-Serif" font-size="10.00">+ Function()</text>
</g>
<!-- Node2 -->
<g id="node2" class="node"><title>Node2</title>
<g id="a_node2"><a xlink:href="../../db/d38/interfaceobject.html" target="_top" xlink:title="All objects inherit from this. ">
<polygon fill="white" stroke="black" points="13.6279,-91.5 13.6279,-175.5 79.916,-175.5 79.916,-91.5 13.6279,-91.5"/>
<text text-anchor="middle" x="46.772" y="-163.5" font-family="Helvetica,sans-Serif" font-size="10.00">object</text>
<polyline fill="none" stroke="black" points="13.6279,-157.5 79.916,-157.5 "/>
<text text-anchor="middle" x="46.772" y="-145.5" font-family="Helvetica,sans-Serif" font-size="10.00"> </text>
<polyline fill="none" stroke="black" points="13.6279,-139.5 79.916,-139.5 "/>
<text text-anchor="start" x="21.6279" y="-127.5" font-family="Helvetica,sans-Serif" font-size="10.00">+ dispose()</text>
<text text-anchor="start" x="21.6279" y="-117.5" font-family="Helvetica,sans-Serif" font-size="10.00">+ toString()</text>
<text text-anchor="start" x="21.6279" y="-107.5" font-family="Helvetica,sans-Serif" font-size="10.00">+ toJSON()</text>
<text text-anchor="start" x="21.6279" y="-97.5" font-family="Helvetica,sans-Serif" font-size="10.00">+ valueOf()</text>
</a>
</g>
</g>
<!-- Node2&#45;&gt;Node1 -->
<g id="edge1" class="edge"><title>Node2&#45;&gt;Node1</title>
<path fill="none" stroke="midnightblue" d="M46.772,-81.1106C46.772,-71.9368 46.772,-62.7377 46.772,-54.6555"/>
<polygon fill="none" stroke="midnightblue" points="43.2721,-81.3964 46.772,-91.3964 50.2721,-81.3965 43.2721,-81.3964"/>
</g>
</g>
</svg>
