<?xml version="1.0" encoding="UTF-8" standalone="no"?>
<!DOCTYPE svg PUBLIC "-//W3C//DTD SVG 1.1//EN"
 "http://www.w3.org/Graphics/SVG/1.1/DTD/svg11.dtd">
<!-- Generated by graphviz version 2.40.1 (20161225.0304)
 -->
<!-- Title: SslSocket Pages: 1 -->
<svg width="84pt" height="365pt"
 viewBox="0.00 0.00 83.74 365.00" xmlns="http://www.w3.org/2000/svg" xmlns:xlink="http://www.w3.org/1999/xlink">
<g id="graph0" class="graph" transform="scale(1 1) rotate(0) translate(4 361)">
<title>SslSocket</title>
<polygon fill="#ffffff" stroke="transparent" points="-4,4 -4,-361 79.7412,-361 79.7412,4 -4,4"/>
<!-- Node0 -->
<g id="node1" class="node">
<title>Node0</title>
<polygon fill="#bfbfbf" stroke="#000000" points="0,-.5 0,-104.5 75.7412,-104.5 75.7412,-.5 0,-.5"/>
<text text-anchor="middle" x="37.8706" y="-92.5" font-family="Helvetica,sans-Serif" font-size="10.00" fill="#000000">SslSocket</text>
<polyline fill="none" stroke="#000000" points="0,-86.5 75.7412,-86.5 "/>
<text text-anchor="start" x="8" y="-74.5" font-family="Helvetica,sans-Serif" font-size="10.00" fill="#000000">+ verification</text>
<text text-anchor="start" x="8" y="-64.5" font-family="Helvetica,sans-Serif" font-size="10.00" fill="#000000">+ ca</text>
<text text-anchor="start" x="8" y="-54.5" font-family="Helvetica,sans-Serif" font-size="10.00" fill="#000000">+ peerCert</text>
<polyline fill="none" stroke="#000000" points="0,-48.5 75.7412,-48.5 "/>
<text text-anchor="start" x="8" y="-36.5" font-family="Helvetica,sans-Serif" font-size="10.00" fill="#000000">+ SslSocket()</text>
<text text-anchor="start" x="8" y="-26.5" font-family="Helvetica,sans-Serif" font-size="10.00" fill="#000000">+ SslSocket()</text>
<text text-anchor="start" x="8" y="-16.5" font-family="Helvetica,sans-Serif" font-size="10.00" fill="#000000">+ connect()</text>
<text text-anchor="start" x="8" y="-6.5" font-family="Helvetica,sans-Serif" font-size="10.00" fill="#000000">+ accept()</text>
</g>
<!-- Node1 -->
<g id="node2" class="node">
<title>Node1</title>
<g id="a_node2"><a xlink:href="../../d4/dc7/interfaceStream.html" target="_top" xlink:title="流操作对象，用于二进制数据流读写 ">
<polygon fill="#ffffff" stroke="#000000" points="6.3892,-141.5 6.3892,-225.5 69.3521,-225.5 69.3521,-141.5 6.3892,-141.5"/>
<text text-anchor="middle" x="37.8706" y="-213.5" font-family="Helvetica,sans-Serif" font-size="10.00" fill="#000000">Stream</text>
<polyline fill="none" stroke="#000000" points="6.3892,-207.5 69.3521,-207.5 "/>
<text text-anchor="middle" x="37.8706" y="-195.5" font-family="Helvetica,sans-Serif" font-size="10.00" fill="#000000"> </text>
<polyline fill="none" stroke="#000000" points="6.3892,-189.5 69.3521,-189.5 "/>
<text text-anchor="start" x="14.3892" y="-177.5" font-family="Helvetica,sans-Serif" font-size="10.00" fill="#000000">+ read()</text>
<text text-anchor="start" x="14.3892" y="-167.5" font-family="Helvetica,sans-Serif" font-size="10.00" fill="#000000">+ write()</text>
<text text-anchor="start" x="14.3892" y="-157.5" font-family="Helvetica,sans-Serif" font-size="10.00" fill="#000000">+ close()</text>
<text text-anchor="start" x="14.3892" y="-147.5" font-family="Helvetica,sans-Serif" font-size="10.00" fill="#000000">+ copyTo()</text>
</a>
</g>
</g>
<!-- Node1&#45;&gt;Node0 -->
<g id="edge1" class="edge">
<title>Node1&#45;&gt;Node0</title>
<path fill="none" stroke="#191970" d="M37.8706,-131.2546C37.8706,-122.5097 37.8706,-113.4358 37.8706,-104.6923"/>
<polygon fill="none" stroke="#191970" points="34.3707,-131.3297 37.8706,-141.3297 41.3707,-131.3297 34.3707,-131.3297"/>
</g>
<!-- Node2 -->
<g id="node3" class="node">
<title>Node2</title>
<g id="a_node3"><a xlink:href="../../db/d38/interfaceobject.html" target="_top" xlink:title="基础对象，所有对象均继承于此 ">
<polygon fill="#ffffff" stroke="#000000" points="4.7266,-262.5 4.7266,-356.5 71.0146,-356.5 71.0146,-262.5 4.7266,-262.5"/>
<text text-anchor="middle" x="37.8706" y="-344.5" font-family="Helvetica,sans-Serif" font-size="10.00" fill="#000000">object</text>
<polyline fill="none" stroke="#000000" points="4.7266,-338.5 71.0146,-338.5 "/>
<text text-anchor="middle" x="37.8706" y="-326.5" font-family="Helvetica,sans-Serif" font-size="10.00" fill="#000000"> </text>
<polyline fill="none" stroke="#000000" points="4.7266,-320.5 71.0146,-320.5 "/>
<text text-anchor="start" x="12.7266" y="-308.5" font-family="Helvetica,sans-Serif" font-size="10.00" fill="#000000">+ dispose()</text>
<text text-anchor="start" x="12.7266" y="-298.5" font-family="Helvetica,sans-Serif" font-size="10.00" fill="#000000">+ equals()</text>
<text text-anchor="start" x="12.7266" y="-288.5" font-family="Helvetica,sans-Serif" font-size="10.00" fill="#000000">+ toString()</text>
<text text-anchor="start" x="12.7266" y="-278.5" font-family="Helvetica,sans-Serif" font-size="10.00" fill="#000000">+ toJSON()</text>
<text text-anchor="start" x="12.7266" y="-268.5" font-family="Helvetica,sans-Serif" font-size="10.00" fill="#000000">+ valueOf()</text>
</a>
</g>
</g>
<!-- Node2&#45;&gt;Node1 -->
<g id="edge2" class="edge">
<title>Node2&#45;&gt;Node1</title>
<path fill="none" stroke="#191970" d="M37.8706,-251.9387C37.8706,-243.0848 37.8706,-234.0866 37.8706,-225.6505"/>
<polygon fill="none" stroke="#191970" points="34.3707,-252.2237 37.8706,-262.2238 41.3707,-252.2238 34.3707,-252.2237"/>
</g>
</g>
</svg>
