<?xml version="1.0" encoding="UTF-8" standalone="no"?>
<!DOCTYPE svg PUBLIC "-//W3C//DTD SVG 1.1//EN"
 "http://www.w3.org/Graphics/SVG/1.1/DTD/svg11.dtd">
<!-- Generated by graphviz version 2.38.0 (20140413.2041)
 -->
<!-- Title: Service Pages: 1 -->
<svg width="124pt" height="565pt"
 viewBox="0.00 0.00 124.31 565.00" xmlns="http://www.w3.org/2000/svg" xmlns:xlink="http://www.w3.org/1999/xlink">
<g id="graph0" class="graph" transform="scale(1 1) rotate(0) translate(4 561)">
<title>Service</title>
<polygon fill="white" stroke="none" points="-4,4 -4,-561 120.312,-561 120.312,4 -4,4"/>
<!-- Node1 -->
<g id="node1" class="node"><title>Node1</title>
<polygon fill="#bfbfbf" stroke="black" points="18.0518,-0.5 18.0518,-164.5 98.2607,-164.5 98.2607,-0.5 18.0518,-0.5"/>
<text text-anchor="middle" x="58.1562" y="-152.5" font-family="Helvetica,sans-Serif" font-size="10.00">Service</text>
<polyline fill="none" stroke="black" points="18.0518,-146.5 98.2607,-146.5 "/>
<text text-anchor="start" x="26.0518" y="-134.5" font-family="Helvetica,sans-Serif" font-size="10.00">+ name</text>
<polyline fill="none" stroke="black" points="18.0518,-128.5 98.2607,-128.5 "/>
<text text-anchor="start" x="26.0518" y="-116.5" font-family="Helvetica,sans-Serif" font-size="10.00">+ Service()</text>
<text text-anchor="start" x="26.0518" y="-106.5" font-family="Helvetica,sans-Serif" font-size="10.00">+ install()</text>
<text text-anchor="start" x="26.0518" y="-96.5" font-family="Helvetica,sans-Serif" font-size="10.00">+ remove()</text>
<text text-anchor="start" x="26.0518" y="-86.5" font-family="Helvetica,sans-Serif" font-size="10.00">+ start()</text>
<text text-anchor="start" x="26.0518" y="-76.5" font-family="Helvetica,sans-Serif" font-size="10.00">+ stop()</text>
<text text-anchor="start" x="26.0518" y="-66.5" font-family="Helvetica,sans-Serif" font-size="10.00">+ restart()</text>
<text text-anchor="start" x="26.0518" y="-56.5" font-family="Helvetica,sans-Serif" font-size="10.00">+ run()</text>
<text text-anchor="start" x="26.0518" y="-46.5" font-family="Helvetica,sans-Serif" font-size="10.00">+ isInstalled()</text>
<text text-anchor="start" x="26.0518" y="-36.5" font-family="Helvetica,sans-Serif" font-size="10.00">+ isRunning()</text>
<text text-anchor="start" x="26.0518" y="-26.5" font-family="Helvetica,sans-Serif" font-size="10.00">+ onstop()</text>
<text text-anchor="start" x="26.0518" y="-16.5" font-family="Helvetica,sans-Serif" font-size="10.00">+ onpause()</text>
<text text-anchor="start" x="26.0518" y="-6.5" font-family="Helvetica,sans-Serif" font-size="10.00">+ oncontinue()</text>
</g>
<!-- Node2 -->
<g id="node2" class="node"><title>Node2</title>
<g id="a_node2"><a xlink:href="../../d6/df7/interfaceTrigger.html" target="_top" xlink:title="事件触发对象，可用于建立观察者模式，支持事件触发的对象均继承于此，同一事件的同一函数只会产生一次回调 ...">
<polygon fill="white" stroke="black" points="0,-201.5 0,-425.5 116.312,-425.5 116.312,-201.5 0,-201.5"/>
<text text-anchor="middle" x="58.1562" y="-413.5" font-family="Helvetica,sans-Serif" font-size="10.00">Trigger</text>
<polyline fill="none" stroke="black" points="0,-407.5 116.312,-407.5 "/>
<text text-anchor="middle" x="58.1562" y="-395.5" font-family="Helvetica,sans-Serif" font-size="10.00"> </text>
<polyline fill="none" stroke="black" points="0,-389.5 116.312,-389.5 "/>
<text text-anchor="start" x="8" y="-377.5" font-family="Helvetica,sans-Serif" font-size="10.00">+ Trigger()</text>
<text text-anchor="start" x="8" y="-367.5" font-family="Helvetica,sans-Serif" font-size="10.00">+ on()</text>
<text text-anchor="start" x="8" y="-357.5" font-family="Helvetica,sans-Serif" font-size="10.00">+ on()</text>
<text text-anchor="start" x="8" y="-347.5" font-family="Helvetica,sans-Serif" font-size="10.00">+ addListener()</text>
<text text-anchor="start" x="8" y="-337.5" font-family="Helvetica,sans-Serif" font-size="10.00">+ addListener()</text>
<text text-anchor="start" x="8" y="-327.5" font-family="Helvetica,sans-Serif" font-size="10.00">+ once()</text>
<text text-anchor="start" x="8" y="-317.5" font-family="Helvetica,sans-Serif" font-size="10.00">+ once()</text>
<text text-anchor="start" x="8" y="-307.5" font-family="Helvetica,sans-Serif" font-size="10.00">+ off()</text>
<text text-anchor="start" x="8" y="-297.5" font-family="Helvetica,sans-Serif" font-size="10.00">+ off()</text>
<text text-anchor="start" x="8" y="-287.5" font-family="Helvetica,sans-Serif" font-size="10.00">+ off()</text>
<text text-anchor="start" x="8" y="-277.5" font-family="Helvetica,sans-Serif" font-size="10.00">+ removeListener()</text>
<text text-anchor="start" x="8" y="-267.5" font-family="Helvetica,sans-Serif" font-size="10.00">+ removeListener()</text>
<text text-anchor="start" x="8" y="-257.5" font-family="Helvetica,sans-Serif" font-size="10.00">+ removeListener()</text>
<text text-anchor="start" x="8" y="-247.5" font-family="Helvetica,sans-Serif" font-size="10.00">+ removeAllListeners()</text>
<text text-anchor="start" x="8" y="-237.5" font-family="Helvetica,sans-Serif" font-size="10.00">+ setMaxListeners()</text>
<text text-anchor="start" x="8" y="-227.5" font-family="Helvetica,sans-Serif" font-size="10.00">+ listeners()</text>
<text text-anchor="start" x="8" y="-217.5" font-family="Helvetica,sans-Serif" font-size="10.00">+ trigger()</text>
<text text-anchor="start" x="8" y="-207.5" font-family="Helvetica,sans-Serif" font-size="10.00">+ emit()</text>
</a>
</g>
</g>
<!-- Node2&#45;&gt;Node1 -->
<g id="edge1" class="edge"><title>Node2&#45;&gt;Node1</title>
<path fill="none" stroke="midnightblue" d="M58.1562,-191.165C58.1562,-182.151 58.1562,-173.194 58.1562,-164.518"/>
<polygon fill="none" stroke="midnightblue" points="54.6563,-191.354 58.1562,-201.354 61.6563,-191.354 54.6563,-191.354"/>
</g>
<!-- Node3 -->
<g id="node3" class="node"><title>Node3</title>
<g id="a_node3"><a xlink:href="../../db/d38/interfaceobject.html" target="_top" xlink:title="基础对象，所有对象均继承于此 ">
<polygon fill="white" stroke="black" points="25.0122,-462.5 25.0122,-556.5 91.3003,-556.5 91.3003,-462.5 25.0122,-462.5"/>
<text text-anchor="middle" x="58.1562" y="-544.5" font-family="Helvetica,sans-Serif" font-size="10.00">object</text>
<polyline fill="none" stroke="black" points="25.0122,-538.5 91.3003,-538.5 "/>
<text text-anchor="middle" x="58.1562" y="-526.5" font-family="Helvetica,sans-Serif" font-size="10.00"> </text>
<polyline fill="none" stroke="black" points="25.0122,-520.5 91.3003,-520.5 "/>
<text text-anchor="start" x="33.0122" y="-508.5" font-family="Helvetica,sans-Serif" font-size="10.00">+ dispose()</text>
<text text-anchor="start" x="33.0122" y="-498.5" font-family="Helvetica,sans-Serif" font-size="10.00">+ equals()</text>
<text text-anchor="start" x="33.0122" y="-488.5" font-family="Helvetica,sans-Serif" font-size="10.00">+ toString()</text>
<text text-anchor="start" x="33.0122" y="-478.5" font-family="Helvetica,sans-Serif" font-size="10.00">+ toJSON()</text>
<text text-anchor="start" x="33.0122" y="-468.5" font-family="Helvetica,sans-Serif" font-size="10.00">+ valueOf()</text>
</a>
</g>
</g>
<!-- Node3&#45;&gt;Node2 -->
<g id="edge2" class="edge"><title>Node3&#45;&gt;Node2</title>
<path fill="none" stroke="midnightblue" d="M58.1562,-452.02C58.1562,-443.592 58.1562,-434.666 58.1562,-425.571"/>
<polygon fill="none" stroke="midnightblue" points="54.6563,-452.032 58.1562,-462.032 61.6563,-452.032 54.6563,-452.032"/>
</g>
</g>
</svg>
