<?xml version="1.0" encoding="UTF-8" standalone="no"?>
<!DOCTYPE svg PUBLIC "-//W3C//DTD SVG 1.1//EN"
 "http://www.w3.org/Graphics/SVG/1.1/DTD/svg11.dtd">
<!-- Generated by graphviz version 2.40.1 (20161225.0304)
 -->
<!-- Title: %0 Pages: 1 -->
<svg width="96pt" height="892pt"
 viewBox="0.00 0.00 96.00 892.00" xmlns="http://www.w3.org/2000/svg" xmlns:xlink="http://www.w3.org/1999/xlink">
<g id="graph0" class="graph" transform="scale(1 1) rotate(0) translate(4 888)">
<title>%0</title>
<polygon fill="#ffffff" stroke="transparent" points="-4,4 -4,-888 92,-888 92,4 -4,4"/>
<!-- object -->
<g id="node1" class="node">
<title>object</title>
<g id="a_node1"><a xlink:href="object.md" xlink:title="object">
<polygon fill="#ffffff" stroke="transparent" points="15.5,-792 15.5,-884 72.5,-884 72.5,-792 15.5,-792"/>
<polygon fill="none" stroke="#000000" points="16,-862 16,-884 73,-884 73,-862 16,-862"/>
<text text-anchor="start" x="31.1625" y="-870" font-family="Helvetica,sans-Serif" font-size="10.00" fill="#000000">object</text>
<polygon fill="none" stroke="#000000" points="16,-792 16,-862 73,-862 73,-792 16,-792"/>
<text text-anchor="start" x="21" y="-848" font-family="Helvetica,sans-Serif" font-size="10.00" fill="#000000"> dispose()</text>
<text text-anchor="start" x="21" y="-836" font-family="Helvetica,sans-Serif" font-size="10.00" fill="#000000"> equals()</text>
<text text-anchor="start" x="21" y="-824" font-family="Helvetica,sans-Serif" font-size="10.00" fill="#000000"> toString()</text>
<text text-anchor="start" x="21" y="-812" font-family="Helvetica,sans-Serif" font-size="10.00" fill="#000000"> toJSON()</text>
<text text-anchor="start" x="21" y="-800" font-family="Helvetica,sans-Serif" font-size="10.00" fill="#000000"> valueOf()</text>
</a>
</g>
</g>
<!-- Buffer -->
<g id="node2" class="node">
<title>Buffer</title>
<g id="a_node2"><a xlink:title="Buffer">
<polygon fill="#d3d3d3" stroke="transparent" points="0,0 0,-756 88,-756 88,0 0,0"/>
<polygon fill="none" stroke="#000000" points="0,-734 0,-756 88,-756 88,-734 0,-734"/>
<text text-anchor="start" x="30.663" y="-742" font-family="Helvetica,sans-Serif" font-size="10.00" fill="#000000">Buffer</text>
<polygon fill="none" stroke="#000000" points="0,-712 0,-734 88,-734 88,-712 0,-712"/>
<text text-anchor="start" x="5" y="-720" font-family="Helvetica,sans-Serif" font-size="10.00" fill="#000000">  new Buffer()</text>
<polygon fill="none" stroke="#000000" points="0,-690 0,-712 88,-712 88,-690 0,-690"/>
<text text-anchor="start" x="5" y="-698" font-family="Helvetica,sans-Serif" font-size="10.00" fill="#000000"> operator[]</text>
<polygon fill="none" stroke="#000000" points="0,-656 0,-690 88,-690 88,-656 0,-656"/>
<text text-anchor="start" x="5" y="-676" font-family="Helvetica,sans-Serif" font-size="10.00" fill="#000000"> isBuffer()</text>
<text text-anchor="start" x="5" y="-664" font-family="Helvetica,sans-Serif" font-size="10.00" fill="#000000"> concat()</text>
<polygon fill="none" stroke="#000000" points="0,-634 0,-656 88,-656 88,-634 0,-634"/>
<text text-anchor="start" x="5" y="-642" font-family="Helvetica,sans-Serif" font-size="10.00" fill="#000000"> length</text>
<polygon fill="none" stroke="#000000" points="0,0 0,-634 88,-634 88,0 0,0"/>
<text text-anchor="start" x="5" y="-620" font-family="Helvetica,sans-Serif" font-size="10.00" fill="#000000"> resize()</text>
<text text-anchor="start" x="5" y="-608" font-family="Helvetica,sans-Serif" font-size="10.00" fill="#000000"> append()</text>
<text text-anchor="start" x="5" y="-596" font-family="Helvetica,sans-Serif" font-size="10.00" fill="#000000"> write()</text>
<text text-anchor="start" x="5" y="-584" font-family="Helvetica,sans-Serif" font-size="10.00" fill="#000000"> fill()</text>
<text text-anchor="start" x="5" y="-572" font-family="Helvetica,sans-Serif" font-size="10.00" fill="#000000"> indexOf()</text>
<text text-anchor="start" x="5" y="-560" font-family="Helvetica,sans-Serif" font-size="10.00" fill="#000000"> compare()</text>
<text text-anchor="start" x="5" y="-548" font-family="Helvetica,sans-Serif" font-size="10.00" fill="#000000"> copy()</text>
<text text-anchor="start" x="5" y="-536" font-family="Helvetica,sans-Serif" font-size="10.00" fill="#000000"> readUInt8()</text>
<text text-anchor="start" x="5" y="-524" font-family="Helvetica,sans-Serif" font-size="10.00" fill="#000000"> readUInt16LE()</text>
<text text-anchor="start" x="5" y="-512" font-family="Helvetica,sans-Serif" font-size="10.00" fill="#000000"> readUInt16BE()</text>
<text text-anchor="start" x="5" y="-500" font-family="Helvetica,sans-Serif" font-size="10.00" fill="#000000"> readUInt32LE()</text>
<text text-anchor="start" x="5" y="-488" font-family="Helvetica,sans-Serif" font-size="10.00" fill="#000000"> readUInt32BE()</text>
<text text-anchor="start" x="5" y="-476" font-family="Helvetica,sans-Serif" font-size="10.00" fill="#000000"> readUIntLE()</text>
<text text-anchor="start" x="5" y="-464" font-family="Helvetica,sans-Serif" font-size="10.00" fill="#000000"> readUIntBE()</text>
<text text-anchor="start" x="5" y="-452" font-family="Helvetica,sans-Serif" font-size="10.00" fill="#000000"> readInt8()</text>
<text text-anchor="start" x="5" y="-440" font-family="Helvetica,sans-Serif" font-size="10.00" fill="#000000"> readInt16LE()</text>
<text text-anchor="start" x="5" y="-428" font-family="Helvetica,sans-Serif" font-size="10.00" fill="#000000"> readInt16BE()</text>
<text text-anchor="start" x="5" y="-416" font-family="Helvetica,sans-Serif" font-size="10.00" fill="#000000"> readInt32LE()</text>
<text text-anchor="start" x="5" y="-404" font-family="Helvetica,sans-Serif" font-size="10.00" fill="#000000"> readInt32BE()</text>
<text text-anchor="start" x="5" y="-392" font-family="Helvetica,sans-Serif" font-size="10.00" fill="#000000"> readIntLE()</text>
<text text-anchor="start" x="5" y="-380" font-family="Helvetica,sans-Serif" font-size="10.00" fill="#000000"> readIntBE()</text>
<text text-anchor="start" x="5" y="-368" font-family="Helvetica,sans-Serif" font-size="10.00" fill="#000000"> readInt64LE()</text>
<text text-anchor="start" x="5" y="-356" font-family="Helvetica,sans-Serif" font-size="10.00" fill="#000000"> readInt64BE()</text>
<text text-anchor="start" x="5" y="-344" font-family="Helvetica,sans-Serif" font-size="10.00" fill="#000000"> readFloatLE()</text>
<text text-anchor="start" x="5" y="-332" font-family="Helvetica,sans-Serif" font-size="10.00" fill="#000000"> readFloatBE()</text>
<text text-anchor="start" x="5" y="-320" font-family="Helvetica,sans-Serif" font-size="10.00" fill="#000000"> readDoubleLE()</text>
<text text-anchor="start" x="5" y="-308" font-family="Helvetica,sans-Serif" font-size="10.00" fill="#000000"> readDoubleBE()</text>
<text text-anchor="start" x="5" y="-296" font-family="Helvetica,sans-Serif" font-size="10.00" fill="#000000"> writeUInt8()</text>
<text text-anchor="start" x="5" y="-284" font-family="Helvetica,sans-Serif" font-size="10.00" fill="#000000"> writeUInt16LE()</text>
<text text-anchor="start" x="5" y="-272" font-family="Helvetica,sans-Serif" font-size="10.00" fill="#000000"> writeUInt16BE()</text>
<text text-anchor="start" x="5" y="-260" font-family="Helvetica,sans-Serif" font-size="10.00" fill="#000000"> writeUInt32LE()</text>
<text text-anchor="start" x="5" y="-248" font-family="Helvetica,sans-Serif" font-size="10.00" fill="#000000"> writeUInt32BE()</text>
<text text-anchor="start" x="5" y="-236" font-family="Helvetica,sans-Serif" font-size="10.00" fill="#000000"> writeUIntLE()</text>
<text text-anchor="start" x="5" y="-224" font-family="Helvetica,sans-Serif" font-size="10.00" fill="#000000"> writeUIntBE()</text>
<text text-anchor="start" x="5" y="-212" font-family="Helvetica,sans-Serif" font-size="10.00" fill="#000000"> writeInt8()</text>
<text text-anchor="start" x="5" y="-200" font-family="Helvetica,sans-Serif" font-size="10.00" fill="#000000"> writeInt16LE()</text>
<text text-anchor="start" x="5" y="-188" font-family="Helvetica,sans-Serif" font-size="10.00" fill="#000000"> writeInt16BE()</text>
<text text-anchor="start" x="5" y="-176" font-family="Helvetica,sans-Serif" font-size="10.00" fill="#000000"> writeInt32LE()</text>
<text text-anchor="start" x="5" y="-164" font-family="Helvetica,sans-Serif" font-size="10.00" fill="#000000"> writeInt32BE()</text>
<text text-anchor="start" x="5" y="-152" font-family="Helvetica,sans-Serif" font-size="10.00" fill="#000000"> writeIntLE()</text>
<text text-anchor="start" x="5" y="-140" font-family="Helvetica,sans-Serif" font-size="10.00" fill="#000000"> writeIntBE()</text>
<text text-anchor="start" x="5" y="-128" font-family="Helvetica,sans-Serif" font-size="10.00" fill="#000000"> writeInt64LE()</text>
<text text-anchor="start" x="5" y="-116" font-family="Helvetica,sans-Serif" font-size="10.00" fill="#000000"> writeInt64BE()</text>
<text text-anchor="start" x="5" y="-104" font-family="Helvetica,sans-Serif" font-size="10.00" fill="#000000"> writeFloatLE()</text>
<text text-anchor="start" x="5" y="-92" font-family="Helvetica,sans-Serif" font-size="10.00" fill="#000000"> writeFloatBE()</text>
<text text-anchor="start" x="5" y="-80" font-family="Helvetica,sans-Serif" font-size="10.00" fill="#000000"> writeDoubleLE()</text>
<text text-anchor="start" x="5" y="-68" font-family="Helvetica,sans-Serif" font-size="10.00" fill="#000000"> writeDoubleBE()</text>
<text text-anchor="start" x="5" y="-56" font-family="Helvetica,sans-Serif" font-size="10.00" fill="#000000"> slice()</text>
<text text-anchor="start" x="5" y="-44" font-family="Helvetica,sans-Serif" font-size="10.00" fill="#000000"> hex()</text>
<text text-anchor="start" x="5" y="-32" font-family="Helvetica,sans-Serif" font-size="10.00" fill="#000000"> base64()</text>
<text text-anchor="start" x="5" y="-20" font-family="Helvetica,sans-Serif" font-size="10.00" fill="#000000"> toArray()</text>
<text text-anchor="start" x="5" y="-8" font-family="Helvetica,sans-Serif" font-size="10.00" fill="#000000"> toString()</text>
</a>
</g>
</g>
<!-- object&#45;&gt;Buffer -->
<g id="edge1" class="edge">
<title>object&#45;&gt;Buffer</title>
<path fill="none" stroke="#000000" d="M44,-781.5458C44,-773.7379 44,-765.2925 44,-756.3223"/>
<polygon fill="#000000" stroke="#000000" points="40.5001,-781.7873 44,-791.7873 47.5001,-781.7873 40.5001,-781.7873"/>
</g>
</g>
</svg>
