<?xml version="1.0" encoding="UTF-8" standalone="no"?>
<!DOCTYPE svg PUBLIC "-//W3C//DTD SVG 1.1//EN"
 "http://www.w3.org/Graphics/SVG/1.1/DTD/svg11.dtd">
<!-- Generated by graphviz version 2.40.1 (20161225.0304)
 -->
<!-- Title: %0 Pages: 1 -->
<svg width="89pt" height="304pt"
 viewBox="0.00 0.00 89.00 304.00" xmlns="http://www.w3.org/2000/svg" xmlns:xlink="http://www.w3.org/1999/xlink">
<g id="graph0" class="graph" transform="scale(1 1) rotate(0) translate(4 300)">
<title>%0</title>
<polygon fill="#ffffff" stroke="transparent" points="-4,4 -4,-300 85,-300 85,4 -4,4"/>
<!-- object -->
<g id="node1" class="node">
<title>object</title>
<g id="a_node1"><a xlink:href="object.md" xlink:title="object">
<polygon fill="#ffffff" stroke="transparent" points="12,-204 12,-296 69,-296 69,-204 12,-204"/>
<polygon fill="none" stroke="#000000" points="12.5,-274 12.5,-296 69.5,-296 69.5,-274 12.5,-274"/>
<text text-anchor="start" x="27.6625" y="-282" font-family="Helvetica,sans-Serif" font-size="10.00" fill="#000000">object</text>
<polygon fill="none" stroke="#000000" points="12.5,-204 12.5,-274 69.5,-274 69.5,-204 12.5,-204"/>
<text text-anchor="start" x="17.5" y="-260" font-family="Helvetica,sans-Serif" font-size="10.00" fill="#000000"> dispose()</text>
<text text-anchor="start" x="17.5" y="-248" font-family="Helvetica,sans-Serif" font-size="10.00" fill="#000000"> equals()</text>
<text text-anchor="start" x="17.5" y="-236" font-family="Helvetica,sans-Serif" font-size="10.00" fill="#000000"> toString()</text>
<text text-anchor="start" x="17.5" y="-224" font-family="Helvetica,sans-Serif" font-size="10.00" fill="#000000"> toJSON()</text>
<text text-anchor="start" x="17.5" y="-212" font-family="Helvetica,sans-Serif" font-size="10.00" fill="#000000"> valueOf()</text>
</a>
</g>
</g>
<!-- Handler -->
<g id="node2" class="node">
<title>Handler</title>
<g id="a_node2"><a xlink:href="Handler.md" xlink:title="Handler">
<polygon fill="#ffffff" stroke="transparent" points="0,-102 0,-168 81,-168 81,-102 0,-102"/>
<polygon fill="none" stroke="#000000" points=".5,-146 .5,-168 81.5,-168 81.5,-146 .5,-146"/>
<text text-anchor="start" x="23.4985" y="-154" font-family="Helvetica,sans-Serif" font-size="10.00" fill="#000000">Handler</text>
<polygon fill="none" stroke="#000000" points=".5,-124 .5,-146 81.5,-146 81.5,-124 .5,-124"/>
<text text-anchor="start" x="5.5" y="-132" font-family="Helvetica,sans-Serif" font-size="10.00" fill="#000000">  new Handler()</text>
<polygon fill="none" stroke="#000000" points=".5,-102 .5,-124 81.5,-124 81.5,-102 .5,-102"/>
<text text-anchor="start" x="5.5" y="-110" font-family="Helvetica,sans-Serif" font-size="10.00" fill="#000000"> invoke()</text>
</a>
</g>
</g>
<!-- object&#45;&gt;Handler -->
<g id="edge1" class="edge">
<title>object&#45;&gt;Handler</title>
<path fill="none" stroke="#000000" d="M40.5,-193.6502C40.5,-184.8735 40.5,-176.0612 40.5,-168.0314"/>
<polygon fill="#000000" stroke="#000000" points="37.0001,-193.8877 40.5,-203.8877 44.0001,-193.8878 37.0001,-193.8877"/>
</g>
<!-- Chain -->
<g id="node3" class="node">
<title>Chain</title>
<g id="a_node3"><a xlink:title="Chain">
<polygon fill="#d3d3d3" stroke="transparent" points="4.5,0 4.5,-66 76.5,-66 76.5,0 4.5,0"/>
<polygon fill="none" stroke="#000000" points="4.5,-44 4.5,-66 76.5,-66 76.5,-44 4.5,-44"/>
<text text-anchor="start" x="27.4425" y="-52" font-family="Helvetica,sans-Serif" font-size="10.00" fill="#000000">Chain</text>
<polygon fill="none" stroke="#000000" points="4.5,-22 4.5,-44 76.5,-44 76.5,-22 4.5,-22"/>
<text text-anchor="start" x="9.5" y="-30" font-family="Helvetica,sans-Serif" font-size="10.00" fill="#000000">  new Chain()</text>
<polygon fill="none" stroke="#000000" points="4.5,0 4.5,-22 76.5,-22 76.5,0 4.5,0"/>
<text text-anchor="start" x="9.5" y="-8" font-family="Helvetica,sans-Serif" font-size="10.00" fill="#000000"> append()</text>
</a>
</g>
</g>
<!-- Handler&#45;&gt;Chain -->
<g id="edge2" class="edge">
<title>Handler&#45;&gt;Chain</title>
<path fill="none" stroke="#000000" d="M40.5,-91.7197C40.5,-83.2142 40.5,-74.4154 40.5,-66.2994"/>
<polygon fill="#000000" stroke="#000000" points="37.0001,-91.8835 40.5,-101.8835 44.0001,-91.8836 37.0001,-91.8835"/>
</g>
</g>
</svg>
