<?xml version="1.0" encoding="UTF-8" standalone="no"?>
<!DOCTYPE svg PUBLIC "-//W3C//DTD SVG 1.1//EN"
 "http://www.w3.org/Graphics/SVG/1.1/DTD/svg11.dtd">
<!-- Generated by graphviz version 2.40.1 (20161225.0304)
 -->
<!-- Title: %0 Pages: 1 -->
<svg width="91pt" height="284pt"
 viewBox="0.00 0.00 91.00 284.00" xmlns="http://www.w3.org/2000/svg" xmlns:xlink="http://www.w3.org/1999/xlink">
<g id="graph0" class="graph" transform="scale(1 1) rotate(0) translate(4 280)">
<title>%0</title>
<polygon fill="#ffffff" stroke="transparent" points="-4,4 -4,-280 87,-280 87,4 -4,4"/>
<!-- object -->
<g id="node1" class="node">
<title>object</title>
<g id="a_node1"><a xlink:href="object.md" xlink:title="object">
<polygon fill="#ffffff" stroke="transparent" points="13,-184 13,-276 70,-276 70,-184 13,-184"/>
<polygon fill="none" stroke="#000000" points="13.5,-254 13.5,-276 70.5,-276 70.5,-254 13.5,-254"/>
<text text-anchor="start" x="28.6625" y="-262" font-family="Helvetica,sans-Serif" font-size="10.00" fill="#000000">object</text>
<polygon fill="none" stroke="#000000" points="13.5,-184 13.5,-254 70.5,-254 70.5,-184 13.5,-184"/>
<text text-anchor="start" x="18.5" y="-240" font-family="Helvetica,sans-Serif" font-size="10.00" fill="#000000"> dispose()</text>
<text text-anchor="start" x="18.5" y="-228" font-family="Helvetica,sans-Serif" font-size="10.00" fill="#000000"> equals()</text>
<text text-anchor="start" x="18.5" y="-216" font-family="Helvetica,sans-Serif" font-size="10.00" fill="#000000"> toString()</text>
<text text-anchor="start" x="18.5" y="-204" font-family="Helvetica,sans-Serif" font-size="10.00" fill="#000000"> toJSON()</text>
<text text-anchor="start" x="18.5" y="-192" font-family="Helvetica,sans-Serif" font-size="10.00" fill="#000000"> valueOf()</text>
</a>
</g>
</g>
<!-- Cipher -->
<g id="node2" class="node">
<title>Cipher</title>
<g id="a_node2"><a xlink:title="Cipher">
<polygon fill="#d3d3d3" stroke="transparent" points="0,0 0,-148 83,-148 83,0 0,0"/>
<polygon fill="none" stroke="#000000" points=".5,-126 .5,-148 83.5,-148 83.5,-126 .5,-126"/>
<text text-anchor="start" x="27.278" y="-134" font-family="Helvetica,sans-Serif" font-size="10.00" fill="#000000">Cipher</text>
<polygon fill="none" stroke="#000000" points=".5,-104 .5,-126 83.5,-126 83.5,-104 .5,-104"/>
<text text-anchor="start" x="5.5" y="-112" font-family="Helvetica,sans-Serif" font-size="10.00" fill="#000000">  new Cipher()</text>
<polygon fill="none" stroke="#000000" points=".5,-46 .5,-104 83.5,-104 83.5,-46 .5,-46"/>
<text text-anchor="start" x="5.5" y="-90" font-family="Helvetica,sans-Serif" font-size="10.00" fill="#000000"> name</text>
<text text-anchor="start" x="5.5" y="-78" font-family="Helvetica,sans-Serif" font-size="10.00" fill="#000000"> keySize</text>
<text text-anchor="start" x="5.5" y="-66" font-family="Helvetica,sans-Serif" font-size="10.00" fill="#000000"> ivSize</text>
<text text-anchor="start" x="5.5" y="-54" font-family="Helvetica,sans-Serif" font-size="10.00" fill="#000000"> blockSize</text>
<polygon fill="none" stroke="#000000" points=".5,0 .5,-46 83.5,-46 83.5,0 .5,0"/>
<text text-anchor="start" x="5.5" y="-32" font-family="Helvetica,sans-Serif" font-size="10.00" fill="#000000"> paddingMode()</text>
<text text-anchor="start" x="5.5" y="-20" font-family="Helvetica,sans-Serif" font-size="10.00" fill="#000000"> encrypt()</text>
<text text-anchor="start" x="5.5" y="-8" font-family="Helvetica,sans-Serif" font-size="10.00" fill="#000000"> decrypt()</text>
</a>
</g>
</g>
<!-- object&#45;&gt;Cipher -->
<g id="edge1" class="edge">
<title>object&#45;&gt;Cipher</title>
<path fill="none" stroke="#000000" d="M41.5,-173.455C41.5,-165.2637 41.5,-156.7302 41.5,-148.2558"/>
<polygon fill="#000000" stroke="#000000" points="38.0001,-173.6172 41.5,-183.6172 45.0001,-173.6173 38.0001,-173.6172"/>
</g>
</g>
</svg>
