<?xml version="1.0" encoding="UTF-8" standalone="no"?>
<!DOCTYPE svg PUBLIC "-//W3C//DTD SVG 1.1//EN"
 "http://www.w3.org/Graphics/SVG/1.1/DTD/svg11.dtd">
<!-- Generated by graphviz version 2.40.1 (20161225.0304)
 -->
<!-- Title: %0 Pages: 1 -->
<svg width="96pt" height="352pt"
 viewBox="0.00 0.00 96.00 352.00" xmlns="http://www.w3.org/2000/svg" xmlns:xlink="http://www.w3.org/1999/xlink">
<g id="graph0" class="graph" transform="scale(1 1) rotate(0) translate(4 348)">
<title>%0</title>
<polygon fill="#ffffff" stroke="transparent" points="-4,4 -4,-348 92,-348 92,4 -4,4"/>
<!-- object -->
<g id="node1" class="node">
<title>object</title>
<g id="a_node1"><a xlink:href="object.md" xlink:title="object">
<polygon fill="#ffffff" stroke="transparent" points="15.5,-252 15.5,-344 72.5,-344 72.5,-252 15.5,-252"/>
<polygon fill="none" stroke="#000000" points="16,-322 16,-344 73,-344 73,-322 16,-322"/>
<text text-anchor="start" x="31.1625" y="-330" font-family="Helvetica,sans-Serif" font-size="10.00" fill="#000000">object</text>
<polygon fill="none" stroke="#000000" points="16,-252 16,-322 73,-322 73,-252 16,-252"/>
<text text-anchor="start" x="21" y="-308" font-family="Helvetica,sans-Serif" font-size="10.00" fill="#000000"> dispose()</text>
<text text-anchor="start" x="21" y="-296" font-family="Helvetica,sans-Serif" font-size="10.00" fill="#000000"> equals()</text>
<text text-anchor="start" x="21" y="-284" font-family="Helvetica,sans-Serif" font-size="10.00" fill="#000000"> toString()</text>
<text text-anchor="start" x="21" y="-272" font-family="Helvetica,sans-Serif" font-size="10.00" fill="#000000"> toJSON()</text>
<text text-anchor="start" x="21" y="-260" font-family="Helvetica,sans-Serif" font-size="10.00" fill="#000000"> valueOf()</text>
</a>
</g>
</g>
<!-- Lock -->
<g id="node2" class="node">
<title>Lock</title>
<g id="a_node2"><a xlink:href="Lock.md" xlink:title="Lock">
<polygon fill="#ffffff" stroke="transparent" points="10.5,-126 10.5,-216 77.5,-216 77.5,-126 10.5,-126"/>
<polygon fill="none" stroke="#000000" points="11,-194 11,-216 78,-216 78,-194 11,-194"/>
<text text-anchor="start" x="33.941" y="-202" font-family="Helvetica,sans-Serif" font-size="10.00" fill="#000000">Lock</text>
<polygon fill="none" stroke="#000000" points="11,-172 11,-194 78,-194 78,-172 11,-172"/>
<text text-anchor="start" x="16" y="-180" font-family="Helvetica,sans-Serif" font-size="10.00" fill="#000000">  new Lock()</text>
<polygon fill="none" stroke="#000000" points="11,-126 11,-172 78,-172 78,-126 11,-126"/>
<text text-anchor="start" x="16" y="-158" font-family="Helvetica,sans-Serif" font-size="10.00" fill="#000000"> acquire()</text>
<text text-anchor="start" x="16" y="-146" font-family="Helvetica,sans-Serif" font-size="10.00" fill="#000000"> release()</text>
<text text-anchor="start" x="16" y="-134" font-family="Helvetica,sans-Serif" font-size="10.00" fill="#000000"> count()</text>
</a>
</g>
</g>
<!-- object&#45;&gt;Lock -->
<g id="edge1" class="edge">
<title>object&#45;&gt;Lock</title>
<path fill="none" stroke="#000000" d="M44,-241.5361C44,-233.0253 44,-224.3439 44,-216.1135"/>
<polygon fill="#000000" stroke="#000000" points="40.5001,-241.7908 44,-251.7908 47.5001,-241.7909 40.5001,-241.7908"/>
</g>
<!-- Condition -->
<g id="node3" class="node">
<title>Condition</title>
<g id="a_node3"><a xlink:title="Condition">
<polygon fill="#d3d3d3" stroke="transparent" points="0,0 0,-90 88,-90 88,0 0,0"/>
<polygon fill="none" stroke="#000000" points="0,-68 0,-90 88,-90 88,-68 0,-68"/>
<text text-anchor="start" x="22.8845" y="-76" font-family="Helvetica,sans-Serif" font-size="10.00" fill="#000000">Condition</text>
<polygon fill="none" stroke="#000000" points="0,-46 0,-68 88,-68 88,-46 0,-46"/>
<text text-anchor="start" x="5" y="-54" font-family="Helvetica,sans-Serif" font-size="10.00" fill="#000000">  new Condition()</text>
<polygon fill="none" stroke="#000000" points="0,0 0,-46 88,-46 88,0 0,0"/>
<text text-anchor="start" x="5" y="-32" font-family="Helvetica,sans-Serif" font-size="10.00" fill="#000000"> wait()</text>
<text text-anchor="start" x="5" y="-20" font-family="Helvetica,sans-Serif" font-size="10.00" fill="#000000"> notify()</text>
<text text-anchor="start" x="5" y="-8" font-family="Helvetica,sans-Serif" font-size="10.00" fill="#000000"> notifyAll()</text>
</a>
</g>
</g>
<!-- Lock&#45;&gt;Condition -->
<g id="edge2" class="edge">
<title>Lock&#45;&gt;Condition</title>
<path fill="none" stroke="#000000" d="M44,-115.6465C44,-107.1565 44,-98.4784 44,-90.2414"/>
<polygon fill="#000000" stroke="#000000" points="40.5001,-115.867 44,-125.867 47.5001,-115.867 40.5001,-115.867"/>
</g>
</g>
</svg>
