<?xml version="1.0" encoding="UTF-8" standalone="no"?>
<!DOCTYPE svg PUBLIC "-//W3C//DTD SVG 1.1//EN"
 "http://www.w3.org/Graphics/SVG/1.1/DTD/svg11.dtd">
<!-- Generated by graphviz version 2.40.1 (20161225.0304)
 -->
<!-- Title: %0 Pages: 1 -->
<svg width="65pt" height="214pt"
 viewBox="0.00 0.00 65.00 214.00" xmlns="http://www.w3.org/2000/svg" xmlns:xlink="http://www.w3.org/1999/xlink">
<g id="graph0" class="graph" transform="scale(1 1) rotate(0) translate(4 210)">
<title>%0</title>
<polygon fill="#ffffff" stroke="transparent" points="-4,4 -4,-210 61,-210 61,4 -4,4"/>
<!-- object -->
<g id="node1" class="node">
<title>object</title>
<g id="a_node1"><a xlink:href="object.md" xlink:title="object">
<polygon fill="#ffffff" stroke="transparent" points="0,-114 0,-206 57,-206 57,-114 0,-114"/>
<polygon fill="none" stroke="#000000" points=".5,-184 .5,-206 57.5,-206 57.5,-184 .5,-184"/>
<text text-anchor="start" x="15.6625" y="-192" font-family="Helvetica,sans-Serif" font-size="10.00" fill="#000000">object</text>
<polygon fill="none" stroke="#000000" points=".5,-114 .5,-184 57.5,-184 57.5,-114 .5,-114"/>
<text text-anchor="start" x="5.5" y="-170" font-family="Helvetica,sans-Serif" font-size="10.00" fill="#000000"> dispose()</text>
<text text-anchor="start" x="5.5" y="-158" font-family="Helvetica,sans-Serif" font-size="10.00" fill="#000000"> equals()</text>
<text text-anchor="start" x="5.5" y="-146" font-family="Helvetica,sans-Serif" font-size="10.00" fill="#000000"> toString()</text>
<text text-anchor="start" x="5.5" y="-134" font-family="Helvetica,sans-Serif" font-size="10.00" fill="#000000"> toJSON()</text>
<text text-anchor="start" x="5.5" y="-122" font-family="Helvetica,sans-Serif" font-size="10.00" fill="#000000"> valueOf()</text>
</a>
</g>
</g>
<!-- Fiber -->
<g id="node2" class="node">
<title>Fiber</title>
<g id="a_node2"><a xlink:title="Fiber">
<polygon fill="#d3d3d3" stroke="transparent" points="1,0 1,-78 56,-78 56,0 1,0"/>
<polygon fill="none" stroke="#000000" points="1.5,-56 1.5,-78 56.5,-78 56.5,-56 1.5,-56"/>
<text text-anchor="start" x="17.6125" y="-64" font-family="Helvetica,sans-Serif" font-size="10.00" fill="#000000">Fiber</text>
<polygon fill="none" stroke="#000000" points="1.5,-22 1.5,-56 56.5,-56 56.5,-22 1.5,-22"/>
<text text-anchor="start" x="6.5" y="-42" font-family="Helvetica,sans-Serif" font-size="10.00" fill="#000000"> caller</text>
<text text-anchor="start" x="6.5" y="-30" font-family="Helvetica,sans-Serif" font-size="10.00" fill="#000000"> traceInfo</text>
<polygon fill="none" stroke="#000000" points="1.5,0 1.5,-22 56.5,-22 56.5,0 1.5,0"/>
<text text-anchor="start" x="6.5" y="-8" font-family="Helvetica,sans-Serif" font-size="10.00" fill="#000000"> join()</text>
</a>
</g>
</g>
<!-- object&#45;&gt;Fiber -->
<g id="edge1" class="edge">
<title>object&#45;&gt;Fiber</title>
<path fill="none" stroke="#000000" d="M28.5,-103.852C28.5,-95.2011 28.5,-86.4309 28.5,-78.2539"/>
<polygon fill="#000000" stroke="#000000" points="25.0001,-103.9099 28.5,-113.9099 32.0001,-103.9099 25.0001,-103.9099"/>
</g>
</g>
</svg>
