<?xml version="1.0" encoding="UTF-8" standalone="no"?>
<!DOCTYPE svg PUBLIC "-//W3C//DTD SVG 1.1//EN"
 "http://www.w3.org/Graphics/SVG/1.1/DTD/svg11.dtd">
<!-- Generated by graphviz version 2.40.1 (20161225.0304)
 -->
<!-- Title: %0 Pages: 1 -->
<svg width="65pt" height="250pt"
 viewBox="0.00 0.00 65.00 250.00" xmlns="http://www.w3.org/2000/svg" xmlns:xlink="http://www.w3.org/1999/xlink">
<g id="graph0" class="graph" transform="scale(1 1) rotate(0) translate(4 246)">
<title>%0</title>
<polygon fill="#ffffff" stroke="transparent" points="-4,4 -4,-246 61,-246 61,4 -4,4"/>
<!-- object -->
<g id="node1" class="node">
<title>object</title>
<g id="a_node1"><a xlink:href="object.md" xlink:title="object">
<polygon fill="#ffffff" stroke="transparent" points="0,-150 0,-242 57,-242 57,-150 0,-150"/>
<polygon fill="none" stroke="#000000" points=".5,-220 .5,-242 57.5,-242 57.5,-220 .5,-220"/>
<text text-anchor="start" x="15.6625" y="-228" font-family="Helvetica,sans-Serif" font-size="10.00" fill="#000000">object</text>
<polygon fill="none" stroke="#000000" points=".5,-150 .5,-220 57.5,-220 57.5,-150 .5,-150"/>
<text text-anchor="start" x="5.5" y="-206" font-family="Helvetica,sans-Serif" font-size="10.00" fill="#000000"> dispose()</text>
<text text-anchor="start" x="5.5" y="-194" font-family="Helvetica,sans-Serif" font-size="10.00" fill="#000000"> equals()</text>
<text text-anchor="start" x="5.5" y="-182" font-family="Helvetica,sans-Serif" font-size="10.00" fill="#000000"> toString()</text>
<text text-anchor="start" x="5.5" y="-170" font-family="Helvetica,sans-Serif" font-size="10.00" fill="#000000"> toJSON()</text>
<text text-anchor="start" x="5.5" y="-158" font-family="Helvetica,sans-Serif" font-size="10.00" fill="#000000"> valueOf()</text>
</a>
</g>
</g>
<!-- GridFS -->
<g id="node2" class="node">
<title>GridFS</title>
<g id="a_node2"><a xlink:title="GridFS">
<polygon fill="#d3d3d3" stroke="transparent" points=".5,0 .5,-114 56.5,-114 56.5,0 .5,0"/>
<polygon fill="none" stroke="#000000" points=".5,-92 .5,-114 56.5,-114 56.5,-92 .5,-92"/>
<text text-anchor="start" x="12.668" y="-100" font-family="Helvetica,sans-Serif" font-size="10.00" fill="#000000">GridFS</text>
<polygon fill="none" stroke="#000000" points=".5,-58 .5,-92 56.5,-92 56.5,-58 .5,-58"/>
<text text-anchor="start" x="5.5" y="-78" font-family="Helvetica,sans-Serif" font-size="10.00" fill="#000000"> files</text>
<text text-anchor="start" x="5.5" y="-66" font-family="Helvetica,sans-Serif" font-size="10.00" fill="#000000"> chunks</text>
<polygon fill="none" stroke="#000000" points=".5,0 .5,-58 56.5,-58 56.5,0 .5,0"/>
<text text-anchor="start" x="5.5" y="-44" font-family="Helvetica,sans-Serif" font-size="10.00" fill="#000000"> retrieve()</text>
<text text-anchor="start" x="5.5" y="-32" font-family="Helvetica,sans-Serif" font-size="10.00" fill="#000000"> store()</text>
<text text-anchor="start" x="5.5" y="-20" font-family="Helvetica,sans-Serif" font-size="10.00" fill="#000000"> exists()</text>
<text text-anchor="start" x="5.5" y="-8" font-family="Helvetica,sans-Serif" font-size="10.00" fill="#000000"> remove()</text>
</a>
</g>
</g>
<!-- object&#45;&gt;GridFS -->
<g id="edge1" class="edge">
<title>object&#45;&gt;GridFS</title>
<path fill="none" stroke="#000000" d="M28.5,-139.6526C28.5,-131.2672 28.5,-122.6167 28.5,-114.2136"/>
<polygon fill="#000000" stroke="#000000" points="25.0001,-139.715 28.5,-149.715 32.0001,-139.715 25.0001,-139.715"/>
</g>
</g>
</svg>
