<?xml version="1.0" encoding="UTF-8" standalone="no"?>
<!DOCTYPE svg PUBLIC "-//W3C//DTD SVG 1.1//EN"
 "http://www.w3.org/Graphics/SVG/1.1/DTD/svg11.dtd">
<!-- Generated by graphviz version 2.40.1 (20161225.0304)
 -->
<!-- Title: %0 Pages: 1 -->
<svg width="446pt" height="496pt"
 viewBox="0.00 0.00 445.94 496.00" xmlns="http://www.w3.org/2000/svg" xmlns:xlink="http://www.w3.org/1999/xlink">
<g id="graph0" class="graph" transform="scale(1 1) rotate(0) translate(4 492)">
<title>%0</title>
<polygon fill="#ffffff" stroke="transparent" points="-4,4 -4,-492 441.9445,-492 441.9445,4 -4,4"/>
<!-- object -->
<g id="node1" class="node">
<title>object</title>
<g id="a_node1"><a xlink:href="object.md" xlink:title="object">
<polygon fill="#ffffff" stroke="#000000" points="171.7805,-399.5 171.7805,-487.5 229.4435,-487.5 229.4435,-399.5 171.7805,-399.5"/>
<text text-anchor="middle" x="200.612" y="-474.5" font-family="Helvetica,sans-Serif" font-size="10.00" fill="#000000">object</text>
<polyline fill="none" stroke="#000000" points="171.7805,-467.5 229.4435,-467.5 "/>
<text text-anchor="start" x="179.7805" y="-454.5" font-family="Helvetica,sans-Serif" font-size="10.00" fill="#000000">dispose()</text>
<text text-anchor="start" x="179.7805" y="-442.5" font-family="Helvetica,sans-Serif" font-size="10.00" fill="#000000">equals()</text>
<text text-anchor="start" x="179.7805" y="-430.5" font-family="Helvetica,sans-Serif" font-size="10.00" fill="#000000">toString()</text>
<text text-anchor="start" x="179.7805" y="-418.5" font-family="Helvetica,sans-Serif" font-size="10.00" fill="#000000">toJSON()</text>
<text text-anchor="start" x="179.7805" y="-406.5" font-family="Helvetica,sans-Serif" font-size="10.00" fill="#000000">valueOf()</text>
</a>
</g>
</g>
<!-- Handler -->
<g id="node2" class="node">
<title>Handler</title>
<g id="a_node2"><a xlink:title="Handler">
<polygon fill="#d3d3d3" stroke="#000000" points="161.2235,-302.5 161.2235,-362.5 240.0005,-362.5 240.0005,-302.5 161.2235,-302.5"/>
<text text-anchor="middle" x="200.612" y="-349.5" font-family="Helvetica,sans-Serif" font-size="10.00" fill="#000000">Handler</text>
<polyline fill="none" stroke="#000000" points="161.2235,-342.5 240.0005,-342.5 "/>
<text text-anchor="start" x="169.2235" y="-329.5" font-family="Helvetica,sans-Serif" font-size="10.00" fill="#000000">new Handler()</text>
<polyline fill="none" stroke="#000000" points="161.2235,-322.5 240.0005,-322.5 "/>
<text text-anchor="start" x="169.2235" y="-309.5" font-family="Helvetica,sans-Serif" font-size="10.00" fill="#000000">invoke()</text>
</a>
</g>
</g>
<!-- object&#45;&gt;Handler -->
<g id="edge1" class="edge">
<title>object&#45;&gt;Handler</title>
<path fill="none" stroke="#000000" d="M200.612,-389.0719C200.612,-379.9417 200.612,-370.7729 200.612,-362.5542"/>
<polygon fill="#000000" stroke="#000000" points="197.1121,-389.3109 200.612,-399.3109 204.1121,-389.311 197.1121,-389.3109"/>
</g>
<!-- AsyncWait -->
<g id="node3" class="node">
<title>AsyncWait</title>
<g id="a_node3"><a xlink:href="AsyncWait.md" xlink:title="AsyncWait">
<polygon fill="#ffffff" stroke="#000000" points="0,-179.5 0,-219.5 63.224,-219.5 63.224,-179.5 0,-179.5"/>
<text text-anchor="middle" x="31.612" y="-206.5" font-family="Helvetica,sans-Serif" font-size="10.00" fill="#000000">AsyncWait</text>
<polyline fill="none" stroke="#000000" points="0,-199.5 63.224,-199.5 "/>
<text text-anchor="start" x="8" y="-186.5" font-family="Helvetica,sans-Serif" font-size="10.00" fill="#000000">end()</text>
</a>
</g>
</g>
<!-- Handler&#45;&gt;AsyncWait -->
<g id="edge2" class="edge">
<title>Handler&#45;&gt;AsyncWait</title>
<path fill="none" stroke="#000000" d="M151.5687,-314.4697C125.9517,-303.3209 95.3041,-287.086 72.612,-266 58.5033,-252.8899 47.4316,-233.8632 40.3687,-219.5173"/>
<polygon fill="#000000" stroke="#000000" points="150.539,-317.8338 161.1133,-318.493 153.258,-311.3835 150.539,-317.8338"/>
</g>
<!-- Chain -->
<g id="node4" class="node">
<title>Chain</title>
<g id="a_node4"><a xlink:href="Chain.md" xlink:title="Chain">
<polygon fill="#ffffff" stroke="#000000" points="81.6675,-169.5 81.6675,-229.5 151.5565,-229.5 151.5565,-169.5 81.6675,-169.5"/>
<text text-anchor="middle" x="116.612" y="-216.5" font-family="Helvetica,sans-Serif" font-size="10.00" fill="#000000">Chain</text>
<polyline fill="none" stroke="#000000" points="81.6675,-209.5 151.5565,-209.5 "/>
<text text-anchor="start" x="89.6675" y="-196.5" font-family="Helvetica,sans-Serif" font-size="10.00" fill="#000000">new Chain()</text>
<polyline fill="none" stroke="#000000" points="81.6675,-189.5 151.5565,-189.5 "/>
<text text-anchor="start" x="89.6675" y="-176.5" font-family="Helvetica,sans-Serif" font-size="10.00" fill="#000000">append()</text>
</a>
</g>
</g>
<!-- Handler&#45;&gt;Chain -->
<g id="edge3" class="edge">
<title>Handler&#45;&gt;Chain</title>
<path fill="none" stroke="#000000" d="M176.1927,-293.8362C163.259,-273.3577 147.611,-248.5818 135.5975,-229.5603"/>
<polygon fill="#000000" stroke="#000000" points="173.2519,-295.7343 181.5511,-302.3202 179.1703,-291.9963 173.2519,-295.7343"/>
</g>
<!-- HandlerEx -->
<g id="node5" class="node">
<title>HandlerEx</title>
<g id="a_node5"><a xlink:href="HandlerEx.md" xlink:title="HandlerEx">
<polygon fill="#ffffff" stroke="#000000" points="169.276,-163.5 169.276,-235.5 231.948,-235.5 231.948,-163.5 169.276,-163.5"/>
<text text-anchor="middle" x="200.612" y="-222.5" font-family="Helvetica,sans-Serif" font-size="10.00" fill="#000000">HandlerEx</text>
<polyline fill="none" stroke="#000000" points="169.276,-215.5 231.948,-215.5 "/>
<text text-anchor="start" x="177.276" y="-202.5" font-family="Helvetica,sans-Serif" font-size="10.00" fill="#000000">handler</text>
<text text-anchor="start" x="177.276" y="-190.5" font-family="Helvetica,sans-Serif" font-size="10.00" fill="#000000">stats</text>
<polyline fill="none" stroke="#000000" points="169.276,-183.5 231.948,-183.5 "/>
<text text-anchor="start" x="177.276" y="-170.5" font-family="Helvetica,sans-Serif" font-size="10.00" fill="#000000">onerror()</text>
</a>
</g>
</g>
<!-- Handler&#45;&gt;HandlerEx -->
<g id="edge4" class="edge">
<title>Handler&#45;&gt;HandlerEx</title>
<path fill="none" stroke="#000000" d="M200.612,-292.1386C200.612,-274.167 200.612,-253.1665 200.612,-235.7083"/>
<polygon fill="#000000" stroke="#000000" points="197.1121,-292.3202 200.612,-302.3202 204.1121,-292.3203 197.1121,-292.3202"/>
</g>
<!-- Routing -->
<g id="node8" class="node">
<title>Routing</title>
<g id="a_node8"><a xlink:href="Routing.md" xlink:title="Routing">
<polygon fill="#ffffff" stroke="#000000" points="249.4985,-133.5 249.4985,-265.5 327.7255,-265.5 327.7255,-133.5 249.4985,-133.5"/>
<text text-anchor="middle" x="288.612" y="-252.5" font-family="Helvetica,sans-Serif" font-size="10.00" fill="#000000">Routing</text>
<polyline fill="none" stroke="#000000" points="249.4985,-245.5 327.7255,-245.5 "/>
<text text-anchor="start" x="257.4985" y="-232.5" font-family="Helvetica,sans-Serif" font-size="10.00" fill="#000000">new Routing()</text>
<polyline fill="none" stroke="#000000" points="249.4985,-225.5 327.7255,-225.5 "/>
<text text-anchor="start" x="257.4985" y="-212.5" font-family="Helvetica,sans-Serif" font-size="10.00" fill="#000000">append()</text>
<text text-anchor="start" x="257.4985" y="-200.5" font-family="Helvetica,sans-Serif" font-size="10.00" fill="#000000">all()</text>
<text text-anchor="start" x="257.4985" y="-188.5" font-family="Helvetica,sans-Serif" font-size="10.00" fill="#000000">get()</text>
<text text-anchor="start" x="257.4985" y="-176.5" font-family="Helvetica,sans-Serif" font-size="10.00" fill="#000000">post()</text>
<text text-anchor="start" x="257.4985" y="-164.5" font-family="Helvetica,sans-Serif" font-size="10.00" fill="#000000">del()</text>
<text text-anchor="start" x="257.4985" y="-152.5" font-family="Helvetica,sans-Serif" font-size="10.00" fill="#000000">put()</text>
<text text-anchor="start" x="257.4985" y="-140.5" font-family="Helvetica,sans-Serif" font-size="10.00" fill="#000000">patch()</text>
</a>
</g>
</g>
<!-- Handler&#45;&gt;Routing -->
<g id="edge7" class="edge">
<title>Handler&#45;&gt;Routing</title>
<path fill="none" stroke="#000000" d="M226.2184,-293.7995C233.4913,-282.8074 241.5819,-270.5796 249.4624,-258.6693"/>
<polygon fill="#000000" stroke="#000000" points="223.1797,-292.0492 220.5806,-302.3202 229.0176,-295.9118 223.1797,-292.0492"/>
</g>
<!-- SslHandler -->
<g id="node9" class="node">
<title>SslHandler</title>
<g id="a_node9"><a xlink:href="SslHandler.md" xlink:title="SslHandler">
<polygon fill="#ffffff" stroke="#000000" points="345.2795,-157.5 345.2795,-241.5 437.9445,-241.5 437.9445,-157.5 345.2795,-157.5"/>
<text text-anchor="middle" x="391.612" y="-228.5" font-family="Helvetica,sans-Serif" font-size="10.00" fill="#000000">SslHandler</text>
<polyline fill="none" stroke="#000000" points="345.2795,-221.5 437.9445,-221.5 "/>
<text text-anchor="start" x="353.2795" y="-208.5" font-family="Helvetica,sans-Serif" font-size="10.00" fill="#000000">new SslHandler()</text>
<polyline fill="none" stroke="#000000" points="345.2795,-201.5 437.9445,-201.5 "/>
<text text-anchor="start" x="353.2795" y="-188.5" font-family="Helvetica,sans-Serif" font-size="10.00" fill="#000000">verification</text>
<text text-anchor="start" x="353.2795" y="-176.5" font-family="Helvetica,sans-Serif" font-size="10.00" fill="#000000">ca</text>
<text text-anchor="start" x="353.2795" y="-164.5" font-family="Helvetica,sans-Serif" font-size="10.00" fill="#000000">handler</text>
</a>
</g>
</g>
<!-- Handler&#45;&gt;SslHandler -->
<g id="edge8" class="edge">
<title>Handler&#45;&gt;SslHandler</title>
<path fill="none" stroke="#000000" d="M249.4207,-314.6021C276.7044,-303.1902 310.3877,-286.6603 336.612,-266 345.4385,-259.0462 353.8139,-250.4592 361.245,-241.7927"/>
<polygon fill="#000000" stroke="#000000" points="247.9951,-311.4035 240.0597,-318.4235 250.6408,-317.8843 247.9951,-311.4035"/>
</g>
<!-- HttpHandler -->
<g id="node6" class="node">
<title>HttpHandler</title>
<g id="a_node6"><a xlink:href="HttpHandler.md" xlink:title="HttpHandler">
<polygon fill="#ffffff" stroke="#000000" points="83.9385,-.5 83.9385,-96.5 183.2855,-96.5 183.2855,-.5 83.9385,-.5"/>
<text text-anchor="middle" x="133.612" y="-83.5" font-family="Helvetica,sans-Serif" font-size="10.00" fill="#000000">HttpHandler</text>
<polyline fill="none" stroke="#000000" points="83.9385,-76.5 183.2855,-76.5 "/>
<text text-anchor="start" x="91.9385" y="-63.5" font-family="Helvetica,sans-Serif" font-size="10.00" fill="#000000">new HttpHandler()</text>
<polyline fill="none" stroke="#000000" points="83.9385,-56.5 183.2855,-56.5 "/>
<text text-anchor="start" x="91.9385" y="-43.5" font-family="Helvetica,sans-Serif" font-size="10.00" fill="#000000">crossDomain</text>
<text text-anchor="start" x="91.9385" y="-31.5" font-family="Helvetica,sans-Serif" font-size="10.00" fill="#000000">forceGZIP</text>
<text text-anchor="start" x="91.9385" y="-19.5" font-family="Helvetica,sans-Serif" font-size="10.00" fill="#000000">maxHeadersCount</text>
<text text-anchor="start" x="91.9385" y="-7.5" font-family="Helvetica,sans-Serif" font-size="10.00" fill="#000000">maxUploadSize</text>
</a>
</g>
</g>
<!-- HandlerEx&#45;&gt;HttpHandler -->
<g id="edge5" class="edge">
<title>HandlerEx&#45;&gt;HttpHandler</title>
<path fill="none" stroke="#000000" d="M180.4788,-154.1252C172.4287,-135.9824 163.1467,-115.0633 154.9778,-96.6527"/>
<polygon fill="#000000" stroke="#000000" points="177.3088,-155.6107 184.5638,-163.3317 183.7072,-152.7716 177.3088,-155.6107"/>
</g>
<!-- WebSocketHandler -->
<g id="node7" class="node">
<title>WebSocketHandler</title>
<g id="a_node7"><a xlink:href="WebSocketHandler.md" xlink:title="WebSocketHandler">
<polygon fill="#ffffff" stroke="#000000" points="201.662,-18.5 201.662,-78.5 331.562,-78.5 331.562,-18.5 201.662,-18.5"/>
<text text-anchor="middle" x="266.612" y="-65.5" font-family="Helvetica,sans-Serif" font-size="10.00" fill="#000000">WebSocketHandler</text>
<polyline fill="none" stroke="#000000" points="201.662,-58.5 331.562,-58.5 "/>
<text text-anchor="start" x="209.662" y="-45.5" font-family="Helvetica,sans-Serif" font-size="10.00" fill="#000000">new WebSocketHandler()</text>
<polyline fill="none" stroke="#000000" points="201.662,-38.5 331.562,-38.5 "/>
<text text-anchor="start" x="209.662" y="-25.5" font-family="Helvetica,sans-Serif" font-size="10.00" fill="#000000">maxSize</text>
</a>
</g>
</g>
<!-- HandlerEx&#45;&gt;WebSocketHandler -->
<g id="edge6" class="edge">
<title>HandlerEx&#45;&gt;WebSocketHandler</title>
<path fill="none" stroke="#000000" d="M220.5295,-153.9311C231.1674,-129.593 243.9693,-100.3038 253.3774,-78.7791"/>
<polygon fill="#000000" stroke="#000000" points="217.2187,-152.767 216.4206,-163.3317 223.6327,-155.5705 217.2187,-152.767"/>
</g>
</g>
</svg>
