<?xml version="1.0" encoding="UTF-8" standalone="no"?>
<!DOCTYPE svg PUBLIC "-//W3C//DTD SVG 1.1//EN"
 "http://www.w3.org/Graphics/SVG/1.1/DTD/svg11.dtd">
<!-- Generated by graphviz version 2.40.1 (20161225.0304)
 -->
<!-- Title: %0 Pages: 1 -->
<svg width="100pt" height="234pt"
 viewBox="0.00 0.00 99.58 234.00" xmlns="http://www.w3.org/2000/svg" xmlns:xlink="http://www.w3.org/1999/xlink">
<g id="graph0" class="graph" transform="scale(1 1) rotate(0) translate(4 230)">
<title>%0</title>
<polygon fill="#ffffff" stroke="transparent" points="-4,4 -4,-230 95.577,-230 95.577,4 -4,4"/>
<!-- object -->
<g id="node1" class="node">
<title>object</title>
<g id="a_node1"><a xlink:href="object.md" xlink:title="object">
<polygon fill="#ffffff" stroke="#000000" points="16.957,-137.5 16.957,-225.5 74.62,-225.5 74.62,-137.5 16.957,-137.5"/>
<text text-anchor="middle" x="45.7885" y="-212.5" font-family="Helvetica,sans-Serif" font-size="10.00" fill="#000000">object</text>
<polyline fill="none" stroke="#000000" points="16.957,-205.5 74.62,-205.5 "/>
<text text-anchor="start" x="24.957" y="-192.5" font-family="Helvetica,sans-Serif" font-size="10.00" fill="#000000">dispose()</text>
<text text-anchor="start" x="24.957" y="-180.5" font-family="Helvetica,sans-Serif" font-size="10.00" fill="#000000">equals()</text>
<text text-anchor="start" x="24.957" y="-168.5" font-family="Helvetica,sans-Serif" font-size="10.00" fill="#000000">toString()</text>
<text text-anchor="start" x="24.957" y="-156.5" font-family="Helvetica,sans-Serif" font-size="10.00" fill="#000000">toJSON()</text>
<text text-anchor="start" x="24.957" y="-144.5" font-family="Helvetica,sans-Serif" font-size="10.00" fill="#000000">valueOf()</text>
</a>
</g>
</g>
<!-- HeapGraphNode -->
<g id="node2" class="node">
<title>HeapGraphNode</title>
<g id="a_node2"><a xlink:title="HeapGraphNode">
<polygon fill="#d3d3d3" stroke="#000000" points="0,-.5 0,-100.5 91.577,-100.5 91.577,-.5 0,-.5"/>
<text text-anchor="middle" x="45.7885" y="-87.5" font-family="Helvetica,sans-Serif" font-size="10.00" fill="#000000">HeapGraphNode</text>
<polyline fill="none" stroke="#000000" points="0,-80.5 91.577,-80.5 "/>
<text text-anchor="start" x="8" y="-67.5" font-family="Helvetica,sans-Serif" font-size="10.00" fill="#000000">type</text>
<text text-anchor="start" x="8" y="-55.5" font-family="Helvetica,sans-Serif" font-size="10.00" fill="#000000">name</text>
<text text-anchor="start" x="8" y="-43.5" font-family="Helvetica,sans-Serif" font-size="10.00" fill="#000000">description</text>
<text text-anchor="start" x="8" y="-31.5" font-family="Helvetica,sans-Serif" font-size="10.00" fill="#000000">id</text>
<text text-anchor="start" x="8" y="-19.5" font-family="Helvetica,sans-Serif" font-size="10.00" fill="#000000">shallowSize</text>
<text text-anchor="start" x="8" y="-7.5" font-family="Helvetica,sans-Serif" font-size="10.00" fill="#000000">childs</text>
</a>
</g>
</g>
<!-- object&#45;&gt;HeapGraphNode -->
<g id="edge1" class="edge">
<title>object&#45;&gt;HeapGraphNode</title>
<path fill="none" stroke="#000000" d="M45.7885,-127.0523C45.7885,-118.3123 45.7885,-109.3019 45.7885,-100.6681"/>
<polygon fill="#000000" stroke="#000000" points="42.2886,-127.1493 45.7885,-137.1494 49.2886,-127.1494 42.2886,-127.1493"/>
</g>
</g>
</svg>
