<?xml version="1.0" encoding="UTF-8" standalone="no"?>
<!DOCTYPE svg PUBLIC "-//W3C//DTD SVG 1.1//EN"
 "http://www.w3.org/Graphics/SVG/1.1/DTD/svg11.dtd">
<!-- Generated by graphviz version 2.40.1 (20161225.0304)
 -->
<!-- Title: %0 Pages: 1 -->
<svg width="93pt" height="240pt"
 viewBox="0.00 0.00 93.00 240.00" xmlns="http://www.w3.org/2000/svg" xmlns:xlink="http://www.w3.org/1999/xlink">
<g id="graph0" class="graph" transform="scale(1 1) rotate(0) translate(4 236)">
<title>%0</title>
<polygon fill="#ffffff" stroke="transparent" points="-4,4 -4,-236 89,-236 89,4 -4,4"/>
<!-- object -->
<g id="node1" class="node">
<title>object</title>
<g id="a_node1"><a xlink:href="object.md" xlink:title="object">
<polygon fill="#ffffff" stroke="transparent" points="14,-140 14,-232 71,-232 71,-140 14,-140"/>
<polygon fill="none" stroke="#000000" points="14.5,-210 14.5,-232 71.5,-232 71.5,-210 14.5,-210"/>
<text text-anchor="start" x="29.6625" y="-218" font-family="Helvetica,sans-Serif" font-size="10.00" fill="#000000">object</text>
<polygon fill="none" stroke="#000000" points="14.5,-140 14.5,-210 71.5,-210 71.5,-140 14.5,-140"/>
<text text-anchor="start" x="19.5" y="-196" font-family="Helvetica,sans-Serif" font-size="10.00" fill="#000000"> dispose()</text>
<text text-anchor="start" x="19.5" y="-184" font-family="Helvetica,sans-Serif" font-size="10.00" fill="#000000"> equals()</text>
<text text-anchor="start" x="19.5" y="-172" font-family="Helvetica,sans-Serif" font-size="10.00" fill="#000000"> toString()</text>
<text text-anchor="start" x="19.5" y="-160" font-family="Helvetica,sans-Serif" font-size="10.00" fill="#000000"> toJSON()</text>
<text text-anchor="start" x="19.5" y="-148" font-family="Helvetica,sans-Serif" font-size="10.00" fill="#000000"> valueOf()</text>
</a>
</g>
</g>
<!-- HeapGraphNode -->
<g id="node2" class="node">
<title>HeapGraphNode</title>
<g id="a_node2"><a xlink:title="HeapGraphNode">
<polygon fill="#d3d3d3" stroke="transparent" points="0,0 0,-104 85,-104 85,0 0,0"/>
<polygon fill="none" stroke="#000000" points=".5,-82 .5,-104 85.5,-104 85.5,-82 .5,-82"/>
<text text-anchor="start" x="5.2115" y="-90" font-family="Helvetica,sans-Serif" font-size="10.00" fill="#000000">HeapGraphNode</text>
<polygon fill="none" stroke="#000000" points=".5,0 .5,-82 85.5,-82 85.5,0 .5,0"/>
<text text-anchor="start" x="5.5" y="-68" font-family="Helvetica,sans-Serif" font-size="10.00" fill="#000000"> type</text>
<text text-anchor="start" x="5.5" y="-56" font-family="Helvetica,sans-Serif" font-size="10.00" fill="#000000"> name</text>
<text text-anchor="start" x="5.5" y="-44" font-family="Helvetica,sans-Serif" font-size="10.00" fill="#000000"> description</text>
<text text-anchor="start" x="5.5" y="-32" font-family="Helvetica,sans-Serif" font-size="10.00" fill="#000000"> id</text>
<text text-anchor="start" x="5.5" y="-20" font-family="Helvetica,sans-Serif" font-size="10.00" fill="#000000"> shallowSize</text>
<text text-anchor="start" x="5.5" y="-8" font-family="Helvetica,sans-Serif" font-size="10.00" fill="#000000"> childs</text>
</a>
</g>
</g>
<!-- object&#45;&gt;HeapGraphNode -->
<g id="edge1" class="edge">
<title>object&#45;&gt;HeapGraphNode</title>
<path fill="none" stroke="#000000" d="M42.5,-129.7145C42.5,-121.2506 42.5,-112.5526 42.5,-104.1796"/>
<polygon fill="#000000" stroke="#000000" points="39.0001,-129.8848 42.5,-139.8848 46.0001,-129.8848 39.0001,-129.8848"/>
</g>
</g>
</svg>
