<?xml version="1.0" encoding="UTF-8" standalone="no"?>
<!DOCTYPE svg PUBLIC "-//W3C//DTD SVG 1.1//EN"
 "http://www.w3.org/Graphics/SVG/1.1/DTD/svg11.dtd">
<!-- Generated by graphviz version 2.40.1 (20161225.0304)
 -->
<!-- Title: %0 Pages: 1 -->
<svg width="93pt" height="238pt"
 viewBox="0.00 0.00 93.00 238.00" xmlns="http://www.w3.org/2000/svg" xmlns:xlink="http://www.w3.org/1999/xlink">
<g id="graph0" class="graph" transform="scale(1 1) rotate(0) translate(4 234)">
<title>%0</title>
<polygon fill="#ffffff" stroke="transparent" points="-4,4 -4,-234 89,-234 89,4 -4,4"/>
<!-- object -->
<g id="node1" class="node">
<title>object</title>
<g id="a_node1"><a xlink:href="object.md" xlink:title="object">
<polygon fill="#ffffff" stroke="transparent" points="14,-138 14,-230 71,-230 71,-138 14,-138"/>
<polygon fill="none" stroke="#000000" points="14.5,-208 14.5,-230 71.5,-230 71.5,-208 14.5,-208"/>
<text text-anchor="start" x="29.6625" y="-216" font-family="Helvetica,sans-Serif" font-size="10.00" fill="#000000">object</text>
<polygon fill="none" stroke="#000000" points="14.5,-138 14.5,-208 71.5,-208 71.5,-138 14.5,-138"/>
<text text-anchor="start" x="19.5" y="-194" font-family="Helvetica,sans-Serif" font-size="10.00" fill="#000000"> dispose()</text>
<text text-anchor="start" x="19.5" y="-182" font-family="Helvetica,sans-Serif" font-size="10.00" fill="#000000"> equals()</text>
<text text-anchor="start" x="19.5" y="-170" font-family="Helvetica,sans-Serif" font-size="10.00" fill="#000000"> toString()</text>
<text text-anchor="start" x="19.5" y="-158" font-family="Helvetica,sans-Serif" font-size="10.00" fill="#000000"> toJSON()</text>
<text text-anchor="start" x="19.5" y="-146" font-family="Helvetica,sans-Serif" font-size="10.00" fill="#000000"> valueOf()</text>
</a>
</g>
</g>
<!-- HeapGraphEdge -->
<g id="node2" class="node">
<title>HeapGraphEdge</title>
<g id="a_node2"><a xlink:title="HeapGraphEdge">
<polygon fill="#d3d3d3" stroke="transparent" points="0,0 0,-102 85,-102 85,0 0,0"/>
<polygon fill="none" stroke="#000000" points=".5,-80 .5,-102 85.5,-102 85.5,-80 .5,-80"/>
<text text-anchor="start" x="5.4865" y="-88" font-family="Helvetica,sans-Serif" font-size="10.00" fill="#000000">HeapGraphEdge</text>
<polygon fill="none" stroke="#000000" points=".5,-34 .5,-80 85.5,-80 85.5,-34 .5,-34"/>
<text text-anchor="start" x="5.5" y="-66" font-family="Helvetica,sans-Serif" font-size="10.00" fill="#000000"> type</text>
<text text-anchor="start" x="5.5" y="-54" font-family="Helvetica,sans-Serif" font-size="10.00" fill="#000000"> name</text>
<text text-anchor="start" x="5.5" y="-42" font-family="Helvetica,sans-Serif" font-size="10.00" fill="#000000"> description</text>
<polygon fill="none" stroke="#000000" points=".5,0 .5,-34 85.5,-34 85.5,0 .5,0"/>
<text text-anchor="start" x="5.5" y="-20" font-family="Helvetica,sans-Serif" font-size="10.00" fill="#000000"> getFromNode()</text>
<text text-anchor="start" x="5.5" y="-8" font-family="Helvetica,sans-Serif" font-size="10.00" fill="#000000"> getToNode()</text>
</a>
</g>
</g>
<!-- object&#45;&gt;HeapGraphEdge -->
<g id="edge1" class="edge">
<title>object&#45;&gt;HeapGraphEdge</title>
<path fill="none" stroke="#000000" d="M42.5,-127.6477C42.5,-119.1551 42.5,-110.4363 42.5,-102.0632"/>
<polygon fill="#000000" stroke="#000000" points="39.0001,-127.8563 42.5,-137.8563 46.0001,-127.8563 39.0001,-127.8563"/>
</g>
</g>
</svg>
