<?xml version="1.0" encoding="UTF-8" standalone="no"?>
<!DOCTYPE svg PUBLIC "-//W3C//DTD SVG 1.1//EN"
 "http://www.w3.org/Graphics/SVG/1.1/DTD/svg11.dtd">
<!-- Generated by graphviz version 2.40.1 (20161225.0304)
 -->
<!-- Title: %0 Pages: 1 -->
<svg width="118pt" height="832pt"
 viewBox="0.00 0.00 118.00 832.00" xmlns="http://www.w3.org/2000/svg" xmlns:xlink="http://www.w3.org/1999/xlink">
<g id="graph0" class="graph" transform="scale(1 1) rotate(0) translate(4 828)">
<title>%0</title>
<polygon fill="#ffffff" stroke="transparent" points="-4,4 -4,-828 114,-828 114,4 -4,4"/>
<!-- object -->
<g id="node1" class="node">
<title>object</title>
<g id="a_node1"><a xlink:href="object.md" xlink:title="object">
<polygon fill="#ffffff" stroke="transparent" points="26.5,-732 26.5,-824 83.5,-824 83.5,-732 26.5,-732"/>
<polygon fill="none" stroke="#000000" points="27,-802 27,-824 84,-824 84,-802 27,-802"/>
<text text-anchor="start" x="42.1625" y="-810" font-family="Helvetica,sans-Serif" font-size="10.00" fill="#000000">object</text>
<polygon fill="none" stroke="#000000" points="27,-732 27,-802 84,-802 84,-732 27,-732"/>
<text text-anchor="start" x="32" y="-788" font-family="Helvetica,sans-Serif" font-size="10.00" fill="#000000"> dispose()</text>
<text text-anchor="start" x="32" y="-776" font-family="Helvetica,sans-Serif" font-size="10.00" fill="#000000"> equals()</text>
<text text-anchor="start" x="32" y="-764" font-family="Helvetica,sans-Serif" font-size="10.00" fill="#000000"> toString()</text>
<text text-anchor="start" x="32" y="-752" font-family="Helvetica,sans-Serif" font-size="10.00" fill="#000000"> toJSON()</text>
<text text-anchor="start" x="32" y="-740" font-family="Helvetica,sans-Serif" font-size="10.00" fill="#000000"> valueOf()</text>
</a>
</g>
</g>
<!-- Message -->
<g id="node2" class="node">
<title>Message</title>
<g id="a_node2"><a xlink:href="Message.md" xlink:title="Message">
<polygon fill="#ffffff" stroke="transparent" points="11.5,-394 11.5,-696 98.5,-696 98.5,-394 11.5,-394"/>
<polygon fill="none" stroke="#000000" points="12,-674 12,-696 99,-696 99,-674 12,-674"/>
<text text-anchor="start" x="35.2175" y="-682" font-family="Helvetica,sans-Serif" font-size="10.00" fill="#000000">Message</text>
<polygon fill="none" stroke="#000000" points="12,-652 12,-674 99,-674 99,-652 12,-652"/>
<text text-anchor="start" x="17" y="-660" font-family="Helvetica,sans-Serif" font-size="10.00" fill="#000000">  new Message()</text>
<polygon fill="none" stroke="#000000" points="12,-618 12,-652 99,-652 99,-618 12,-618"/>
<text text-anchor="start" x="17" y="-638" font-family="Helvetica,sans-Serif" font-size="10.00" fill="#000000"> TEXT</text>
<text text-anchor="start" x="17" y="-626" font-family="Helvetica,sans-Serif" font-size="10.00" fill="#000000"> BINARY</text>
<polygon fill="none" stroke="#000000" points="12,-500 12,-618 99,-618 99,-500 12,-500"/>
<text text-anchor="start" x="17" y="-604" font-family="Helvetica,sans-Serif" font-size="10.00" fill="#000000"> value</text>
<text text-anchor="start" x="17" y="-592" font-family="Helvetica,sans-Serif" font-size="10.00" fill="#000000"> params</text>
<text text-anchor="start" x="17" y="-580" font-family="Helvetica,sans-Serif" font-size="10.00" fill="#000000"> type</text>
<text text-anchor="start" x="17" y="-568" font-family="Helvetica,sans-Serif" font-size="10.00" fill="#000000"> data</text>
<text text-anchor="start" x="17" y="-556" font-family="Helvetica,sans-Serif" font-size="10.00" fill="#000000"> body</text>
<text text-anchor="start" x="17" y="-544" font-family="Helvetica,sans-Serif" font-size="10.00" fill="#000000"> length</text>
<text text-anchor="start" x="17" y="-532" font-family="Helvetica,sans-Serif" font-size="10.00" fill="#000000"> stream</text>
<text text-anchor="start" x="17" y="-520" font-family="Helvetica,sans-Serif" font-size="10.00" fill="#000000"> response</text>
<text text-anchor="start" x="17" y="-508" font-family="Helvetica,sans-Serif" font-size="10.00" fill="#000000"> lastError</text>
<polygon fill="none" stroke="#000000" points="12,-394 12,-500 99,-500 99,-394 12,-394"/>
<text text-anchor="start" x="17" y="-486" font-family="Helvetica,sans-Serif" font-size="10.00" fill="#000000"> read()</text>
<text text-anchor="start" x="17" y="-474" font-family="Helvetica,sans-Serif" font-size="10.00" fill="#000000"> readAll()</text>
<text text-anchor="start" x="17" y="-462" font-family="Helvetica,sans-Serif" font-size="10.00" fill="#000000"> write()</text>
<text text-anchor="start" x="17" y="-450" font-family="Helvetica,sans-Serif" font-size="10.00" fill="#000000"> end()</text>
<text text-anchor="start" x="17" y="-438" font-family="Helvetica,sans-Serif" font-size="10.00" fill="#000000"> isEnded()</text>
<text text-anchor="start" x="17" y="-426" font-family="Helvetica,sans-Serif" font-size="10.00" fill="#000000"> clear()</text>
<text text-anchor="start" x="17" y="-414" font-family="Helvetica,sans-Serif" font-size="10.00" fill="#000000"> sendTo()</text>
<text text-anchor="start" x="17" y="-402" font-family="Helvetica,sans-Serif" font-size="10.00" fill="#000000"> readFrom()</text>
</a>
</g>
</g>
<!-- object&#45;&gt;Message -->
<g id="edge1" class="edge">
<title>object&#45;&gt;Message</title>
<path fill="none" stroke="#000000" d="M55,-721.9524C55,-713.8013 55,-705.104 55,-696.1038"/>
<polygon fill="#000000" stroke="#000000" points="51.5001,-721.9667 55,-731.9667 58.5001,-721.9667 51.5001,-721.9667"/>
</g>
<!-- HttpMessage -->
<g id="node3" class="node">
<title>HttpMessage</title>
<g id="a_node3"><a xlink:href="HttpMessage.md" xlink:title="HttpMessage">
<polygon fill="#ffffff" stroke="transparent" points="5.5,-160 5.5,-358 104.5,-358 104.5,-160 5.5,-160"/>
<polygon fill="none" stroke="#000000" points="6,-336 6,-358 105,-358 105,-336 6,-336"/>
<text text-anchor="start" x="26.0495" y="-344" font-family="Helvetica,sans-Serif" font-size="10.00" fill="#000000">HttpMessage</text>
<polygon fill="none" stroke="#000000" points="6,-242 6,-336 105,-336 105,-242 6,-242"/>
<text text-anchor="start" x="11" y="-322" font-family="Helvetica,sans-Serif" font-size="10.00" fill="#000000"> protocol</text>
<text text-anchor="start" x="11" y="-310" font-family="Helvetica,sans-Serif" font-size="10.00" fill="#000000"> headers</text>
<text text-anchor="start" x="11" y="-298" font-family="Helvetica,sans-Serif" font-size="10.00" fill="#000000"> keepAlive</text>
<text text-anchor="start" x="11" y="-286" font-family="Helvetica,sans-Serif" font-size="10.00" fill="#000000"> upgrade</text>
<text text-anchor="start" x="11" y="-274" font-family="Helvetica,sans-Serif" font-size="10.00" fill="#000000"> maxHeadersCount</text>
<text text-anchor="start" x="11" y="-262" font-family="Helvetica,sans-Serif" font-size="10.00" fill="#000000"> maxUploadSize</text>
<text text-anchor="start" x="11" y="-250" font-family="Helvetica,sans-Serif" font-size="10.00" fill="#000000"> socket</text>
<polygon fill="none" stroke="#000000" points="6,-160 6,-242 105,-242 105,-160 6,-160"/>
<text text-anchor="start" x="11" y="-228" font-family="Helvetica,sans-Serif" font-size="10.00" fill="#000000"> hasHeader()</text>
<text text-anchor="start" x="11" y="-216" font-family="Helvetica,sans-Serif" font-size="10.00" fill="#000000"> firstHeader()</text>
<text text-anchor="start" x="11" y="-204" font-family="Helvetica,sans-Serif" font-size="10.00" fill="#000000"> allHeader()</text>
<text text-anchor="start" x="11" y="-192" font-family="Helvetica,sans-Serif" font-size="10.00" fill="#000000"> addHeader()</text>
<text text-anchor="start" x="11" y="-180" font-family="Helvetica,sans-Serif" font-size="10.00" fill="#000000"> setHeader()</text>
<text text-anchor="start" x="11" y="-168" font-family="Helvetica,sans-Serif" font-size="10.00" fill="#000000"> removeHeader()</text>
</a>
</g>
</g>
<!-- Message&#45;&gt;HttpMessage -->
<g id="edge2" class="edge">
<title>Message&#45;&gt;HttpMessage</title>
<path fill="none" stroke="#000000" d="M55,-383.4772C55,-374.8616 55,-366.3372 55,-358.0321"/>
<polygon fill="#000000" stroke="#000000" points="51.5001,-383.6253 55,-393.6254 58.5001,-383.6254 51.5001,-383.6253"/>
</g>
<!-- HttpResponse -->
<g id="node4" class="node">
<title>HttpResponse</title>
<g id="a_node4"><a xlink:title="HttpResponse">
<polygon fill="#d3d3d3" stroke="transparent" points="0,0 0,-124 110,-124 110,0 0,0"/>
<polygon fill="none" stroke="#000000" points="0,-102 0,-124 110,-124 110,-102 0,-102"/>
<text text-anchor="start" x="23.325" y="-110" font-family="Helvetica,sans-Serif" font-size="10.00" fill="#000000">HttpResponse</text>
<polygon fill="none" stroke="#000000" points="0,-80 0,-102 110,-102 110,-80 0,-80"/>
<text text-anchor="start" x="5" y="-88" font-family="Helvetica,sans-Serif" font-size="10.00" fill="#000000">  new HttpResponse()</text>
<polygon fill="none" stroke="#000000" points="0,-46 0,-80 110,-80 110,-46 0,-46"/>
<text text-anchor="start" x="5" y="-66" font-family="Helvetica,sans-Serif" font-size="10.00" fill="#000000"> status</text>
<text text-anchor="start" x="5" y="-54" font-family="Helvetica,sans-Serif" font-size="10.00" fill="#000000"> cookies</text>
<polygon fill="none" stroke="#000000" points="0,0 0,-46 110,-46 110,0 0,0"/>
<text text-anchor="start" x="5" y="-32" font-family="Helvetica,sans-Serif" font-size="10.00" fill="#000000"> addCookie()</text>
<text text-anchor="start" x="5" y="-20" font-family="Helvetica,sans-Serif" font-size="10.00" fill="#000000"> redirect()</text>
<text text-anchor="start" x="5" y="-8" font-family="Helvetica,sans-Serif" font-size="10.00" fill="#000000"> sendHeader()</text>
</a>
</g>
</g>
<!-- HttpMessage&#45;&gt;HttpResponse -->
<g id="edge3" class="edge">
<title>HttpMessage&#45;&gt;HttpResponse</title>
<path fill="none" stroke="#000000" d="M55,-149.6751C55,-140.976 55,-132.391 55,-124.1957"/>
<polygon fill="#000000" stroke="#000000" points="51.5001,-149.9228 55,-159.9229 58.5001,-149.9229 51.5001,-149.9228"/>
</g>
</g>
</svg>
