<?xml version="1.0" encoding="UTF-8" standalone="no"?>
<!DOCTYPE svg PUBLIC "-//W3C//DTD SVG 1.1//EN"
 "http://www.w3.org/Graphics/SVG/1.1/DTD/svg11.dtd">
<!-- Generated by graphviz version 2.40.1 (20161225.0304)
 -->
<!-- Title: %0 Pages: 1 -->
<svg width="110pt" height="834pt"
 viewBox="0.00 0.00 110.00 834.00" xmlns="http://www.w3.org/2000/svg" xmlns:xlink="http://www.w3.org/1999/xlink">
<g id="graph0" class="graph" transform="scale(1 1) rotate(0) translate(4 830)">
<title>%0</title>
<polygon fill="#ffffff" stroke="transparent" points="-4,4 -4,-830 106,-830 106,4 -4,4"/>
<!-- object -->
<g id="node1" class="node">
<title>object</title>
<g id="a_node1"><a xlink:href="object.md" xlink:title="object">
<polygon fill="#ffffff" stroke="transparent" points="22.5,-734 22.5,-826 79.5,-826 79.5,-734 22.5,-734"/>
<polygon fill="none" stroke="#000000" points="23,-804 23,-826 80,-826 80,-804 23,-804"/>
<text text-anchor="start" x="38.1625" y="-812" font-family="Helvetica,sans-Serif" font-size="10.00" fill="#000000">object</text>
<polygon fill="none" stroke="#000000" points="23,-734 23,-804 80,-804 80,-734 23,-734"/>
<text text-anchor="start" x="28" y="-790" font-family="Helvetica,sans-Serif" font-size="10.00" fill="#000000"> dispose()</text>
<text text-anchor="start" x="28" y="-778" font-family="Helvetica,sans-Serif" font-size="10.00" fill="#000000"> equals()</text>
<text text-anchor="start" x="28" y="-766" font-family="Helvetica,sans-Serif" font-size="10.00" fill="#000000"> toString()</text>
<text text-anchor="start" x="28" y="-754" font-family="Helvetica,sans-Serif" font-size="10.00" fill="#000000"> toJSON()</text>
<text text-anchor="start" x="28" y="-742" font-family="Helvetica,sans-Serif" font-size="10.00" fill="#000000"> valueOf()</text>
</a>
</g>
</g>
<!-- Message -->
<g id="node2" class="node">
<title>Message</title>
<g id="a_node2"><a xlink:href="Message.md" xlink:title="Message">
<polygon fill="#ffffff" stroke="transparent" points="7.5,-396 7.5,-698 94.5,-698 94.5,-396 7.5,-396"/>
<polygon fill="none" stroke="#000000" points="8,-676 8,-698 95,-698 95,-676 8,-676"/>
<text text-anchor="start" x="31.2175" y="-684" font-family="Helvetica,sans-Serif" font-size="10.00" fill="#000000">Message</text>
<polygon fill="none" stroke="#000000" points="8,-654 8,-676 95,-676 95,-654 8,-654"/>
<text text-anchor="start" x="13" y="-662" font-family="Helvetica,sans-Serif" font-size="10.00" fill="#000000">  new Message()</text>
<polygon fill="none" stroke="#000000" points="8,-620 8,-654 95,-654 95,-620 8,-620"/>
<text text-anchor="start" x="13" y="-640" font-family="Helvetica,sans-Serif" font-size="10.00" fill="#000000"> TEXT</text>
<text text-anchor="start" x="13" y="-628" font-family="Helvetica,sans-Serif" font-size="10.00" fill="#000000"> BINARY</text>
<polygon fill="none" stroke="#000000" points="8,-502 8,-620 95,-620 95,-502 8,-502"/>
<text text-anchor="start" x="13" y="-606" font-family="Helvetica,sans-Serif" font-size="10.00" fill="#000000"> value</text>
<text text-anchor="start" x="13" y="-594" font-family="Helvetica,sans-Serif" font-size="10.00" fill="#000000"> params</text>
<text text-anchor="start" x="13" y="-582" font-family="Helvetica,sans-Serif" font-size="10.00" fill="#000000"> type</text>
<text text-anchor="start" x="13" y="-570" font-family="Helvetica,sans-Serif" font-size="10.00" fill="#000000"> data</text>
<text text-anchor="start" x="13" y="-558" font-family="Helvetica,sans-Serif" font-size="10.00" fill="#000000"> body</text>
<text text-anchor="start" x="13" y="-546" font-family="Helvetica,sans-Serif" font-size="10.00" fill="#000000"> length</text>
<text text-anchor="start" x="13" y="-534" font-family="Helvetica,sans-Serif" font-size="10.00" fill="#000000"> stream</text>
<text text-anchor="start" x="13" y="-522" font-family="Helvetica,sans-Serif" font-size="10.00" fill="#000000"> response</text>
<text text-anchor="start" x="13" y="-510" font-family="Helvetica,sans-Serif" font-size="10.00" fill="#000000"> lastError</text>
<polygon fill="none" stroke="#000000" points="8,-396 8,-502 95,-502 95,-396 8,-396"/>
<text text-anchor="start" x="13" y="-488" font-family="Helvetica,sans-Serif" font-size="10.00" fill="#000000"> read()</text>
<text text-anchor="start" x="13" y="-476" font-family="Helvetica,sans-Serif" font-size="10.00" fill="#000000"> readAll()</text>
<text text-anchor="start" x="13" y="-464" font-family="Helvetica,sans-Serif" font-size="10.00" fill="#000000"> write()</text>
<text text-anchor="start" x="13" y="-452" font-family="Helvetica,sans-Serif" font-size="10.00" fill="#000000"> end()</text>
<text text-anchor="start" x="13" y="-440" font-family="Helvetica,sans-Serif" font-size="10.00" fill="#000000"> isEnded()</text>
<text text-anchor="start" x="13" y="-428" font-family="Helvetica,sans-Serif" font-size="10.00" fill="#000000"> clear()</text>
<text text-anchor="start" x="13" y="-416" font-family="Helvetica,sans-Serif" font-size="10.00" fill="#000000"> sendTo()</text>
<text text-anchor="start" x="13" y="-404" font-family="Helvetica,sans-Serif" font-size="10.00" fill="#000000"> readFrom()</text>
</a>
</g>
</g>
<!-- object&#45;&gt;Message -->
<g id="edge1" class="edge">
<title>object&#45;&gt;Message</title>
<path fill="none" stroke="#000000" d="M51,-723.9524C51,-715.8013 51,-707.104 51,-698.1038"/>
<polygon fill="#000000" stroke="#000000" points="47.5001,-723.9667 51,-733.9667 54.5001,-723.9667 47.5001,-723.9667"/>
</g>
<!-- HttpMessage -->
<g id="node3" class="node">
<title>HttpMessage</title>
<g id="a_node3"><a xlink:href="HttpMessage.md" xlink:title="HttpMessage">
<polygon fill="#ffffff" stroke="transparent" points="1.5,-162 1.5,-360 100.5,-360 100.5,-162 1.5,-162"/>
<polygon fill="none" stroke="#000000" points="2,-338 2,-360 101,-360 101,-338 2,-338"/>
<text text-anchor="start" x="22.0495" y="-346" font-family="Helvetica,sans-Serif" font-size="10.00" fill="#000000">HttpMessage</text>
<polygon fill="none" stroke="#000000" points="2,-244 2,-338 101,-338 101,-244 2,-244"/>
<text text-anchor="start" x="7" y="-324" font-family="Helvetica,sans-Serif" font-size="10.00" fill="#000000"> protocol</text>
<text text-anchor="start" x="7" y="-312" font-family="Helvetica,sans-Serif" font-size="10.00" fill="#000000"> headers</text>
<text text-anchor="start" x="7" y="-300" font-family="Helvetica,sans-Serif" font-size="10.00" fill="#000000"> keepAlive</text>
<text text-anchor="start" x="7" y="-288" font-family="Helvetica,sans-Serif" font-size="10.00" fill="#000000"> upgrade</text>
<text text-anchor="start" x="7" y="-276" font-family="Helvetica,sans-Serif" font-size="10.00" fill="#000000"> maxHeadersCount</text>
<text text-anchor="start" x="7" y="-264" font-family="Helvetica,sans-Serif" font-size="10.00" fill="#000000"> maxUploadSize</text>
<text text-anchor="start" x="7" y="-252" font-family="Helvetica,sans-Serif" font-size="10.00" fill="#000000"> socket</text>
<polygon fill="none" stroke="#000000" points="2,-162 2,-244 101,-244 101,-162 2,-162"/>
<text text-anchor="start" x="7" y="-230" font-family="Helvetica,sans-Serif" font-size="10.00" fill="#000000"> hasHeader()</text>
<text text-anchor="start" x="7" y="-218" font-family="Helvetica,sans-Serif" font-size="10.00" fill="#000000"> firstHeader()</text>
<text text-anchor="start" x="7" y="-206" font-family="Helvetica,sans-Serif" font-size="10.00" fill="#000000"> allHeader()</text>
<text text-anchor="start" x="7" y="-194" font-family="Helvetica,sans-Serif" font-size="10.00" fill="#000000"> addHeader()</text>
<text text-anchor="start" x="7" y="-182" font-family="Helvetica,sans-Serif" font-size="10.00" fill="#000000"> setHeader()</text>
<text text-anchor="start" x="7" y="-170" font-family="Helvetica,sans-Serif" font-size="10.00" fill="#000000"> removeHeader()</text>
</a>
</g>
</g>
<!-- Message&#45;&gt;HttpMessage -->
<g id="edge2" class="edge">
<title>Message&#45;&gt;HttpMessage</title>
<path fill="none" stroke="#000000" d="M51,-385.4772C51,-376.8616 51,-368.3372 51,-360.0321"/>
<polygon fill="#000000" stroke="#000000" points="47.5001,-385.6253 51,-395.6254 54.5001,-385.6254 47.5001,-385.6253"/>
</g>
<!-- HttpRequest -->
<g id="node4" class="node">
<title>HttpRequest</title>
<g id="a_node4"><a xlink:title="HttpRequest">
<polygon fill="#d3d3d3" stroke="transparent" points="0,0 0,-126 102,-126 102,0 0,0"/>
<polygon fill="none" stroke="#000000" points="0,-104 0,-126 102,-126 102,-104 0,-104"/>
<text text-anchor="start" x="23.215" y="-112" font-family="Helvetica,sans-Serif" font-size="10.00" fill="#000000">HttpRequest</text>
<polygon fill="none" stroke="#000000" points="0,-82 0,-104 102,-104 102,-82 0,-82"/>
<text text-anchor="start" x="5" y="-90" font-family="Helvetica,sans-Serif" font-size="10.00" fill="#000000">  new HttpRequest()</text>
<polygon fill="none" stroke="#000000" points="0,0 0,-82 102,-82 102,0 0,0"/>
<text text-anchor="start" x="5" y="-68" font-family="Helvetica,sans-Serif" font-size="10.00" fill="#000000"> method</text>
<text text-anchor="start" x="5" y="-56" font-family="Helvetica,sans-Serif" font-size="10.00" fill="#000000"> address</text>
<text text-anchor="start" x="5" y="-44" font-family="Helvetica,sans-Serif" font-size="10.00" fill="#000000"> queryString</text>
<text text-anchor="start" x="5" y="-32" font-family="Helvetica,sans-Serif" font-size="10.00" fill="#000000"> cookies</text>
<text text-anchor="start" x="5" y="-20" font-family="Helvetica,sans-Serif" font-size="10.00" fill="#000000"> form</text>
<text text-anchor="start" x="5" y="-8" font-family="Helvetica,sans-Serif" font-size="10.00" fill="#000000"> query</text>
</a>
</g>
</g>
<!-- HttpMessage&#45;&gt;HttpRequest -->
<g id="edge3" class="edge">
<title>HttpMessage&#45;&gt;HttpRequest</title>
<path fill="none" stroke="#000000" d="M51,-151.5505C51,-142.9245 51,-134.4055 51,-126.2594"/>
<polygon fill="#000000" stroke="#000000" points="47.5001,-151.7099 51,-161.71 54.5001,-151.71 47.5001,-151.7099"/>
</g>
</g>
</svg>
