<?xml version="1.0" encoding="UTF-8" standalone="no"?>
<!DOCTYPE svg PUBLIC "-//W3C//DTD SVG 1.1//EN"
 "http://www.w3.org/Graphics/SVG/1.1/DTD/svg11.dtd">
<!-- Generated by graphviz version 2.40.1 (20161225.0304)
 -->
<!-- Title: %0 Pages: 1 -->
<svg width="135pt" height="216pt"
 viewBox="0.00 0.00 135.00 216.00" xmlns="http://www.w3.org/2000/svg" xmlns:xlink="http://www.w3.org/1999/xlink">
<g id="graph0" class="graph" transform="scale(1 1) rotate(0) translate(4 212)">
<title>%0</title>
<polygon fill="#ffffff" stroke="transparent" points="-4,4 -4,-212 131,-212 131,4 -4,4"/>
<!-- object -->
<g id="node1" class="node">
<title>object</title>
<g id="a_node1"><a xlink:href="object.md" xlink:title="object">
<polygon fill="#ffffff" stroke="transparent" points="35,-116 35,-208 92,-208 92,-116 35,-116"/>
<polygon fill="none" stroke="#000000" points="35.5,-186 35.5,-208 92.5,-208 92.5,-186 35.5,-186"/>
<text text-anchor="start" x="50.6625" y="-194" font-family="Helvetica,sans-Serif" font-size="10.00" fill="#000000">object</text>
<polygon fill="none" stroke="#000000" points="35.5,-116 35.5,-186 92.5,-186 92.5,-116 35.5,-116"/>
<text text-anchor="start" x="40.5" y="-172" font-family="Helvetica,sans-Serif" font-size="10.00" fill="#000000"> dispose()</text>
<text text-anchor="start" x="40.5" y="-160" font-family="Helvetica,sans-Serif" font-size="10.00" fill="#000000"> equals()</text>
<text text-anchor="start" x="40.5" y="-148" font-family="Helvetica,sans-Serif" font-size="10.00" fill="#000000"> toString()</text>
<text text-anchor="start" x="40.5" y="-136" font-family="Helvetica,sans-Serif" font-size="10.00" fill="#000000"> toJSON()</text>
<text text-anchor="start" x="40.5" y="-124" font-family="Helvetica,sans-Serif" font-size="10.00" fill="#000000"> valueOf()</text>
</a>
</g>
</g>
<!-- HttpUploadData -->
<g id="node2" class="node">
<title>HttpUploadData</title>
<g id="a_node2"><a xlink:title="HttpUploadData">
<polygon fill="#d3d3d3" stroke="transparent" points="0,0 0,-80 127,-80 127,0 0,0"/>
<polygon fill="none" stroke="#000000" points=".5,-58 .5,-80 127.5,-80 127.5,-58 .5,-58"/>
<text text-anchor="start" x="28.437" y="-66" font-family="Helvetica,sans-Serif" font-size="10.00" fill="#000000">HttpUploadData</text>
<polygon fill="none" stroke="#000000" points=".5,0 .5,-58 127.5,-58 127.5,0 .5,0"/>
<text text-anchor="start" x="5.5" y="-44" font-family="Helvetica,sans-Serif" font-size="10.00" fill="#000000"> fileName</text>
<text text-anchor="start" x="5.5" y="-32" font-family="Helvetica,sans-Serif" font-size="10.00" fill="#000000"> contentType</text>
<text text-anchor="start" x="5.5" y="-20" font-family="Helvetica,sans-Serif" font-size="10.00" fill="#000000"> contentTransferEncoding</text>
<text text-anchor="start" x="5.5" y="-8" font-family="Helvetica,sans-Serif" font-size="10.00" fill="#000000"> body</text>
</a>
</g>
</g>
<!-- object&#45;&gt;HttpUploadData -->
<g id="edge1" class="edge">
<title>object&#45;&gt;HttpUploadData</title>
<path fill="none" stroke="#000000" d="M63.5,-105.8267C63.5,-97.1786 63.5,-88.4003 63.5,-80.193"/>
<polygon fill="#000000" stroke="#000000" points="60.0001,-105.877 63.5,-115.877 67.0001,-105.8771 60.0001,-105.877"/>
</g>
</g>
</svg>
