<?xml version="1.0" encoding="UTF-8" standalone="no"?>
<!DOCTYPE svg PUBLIC "-//W3C//DTD SVG 1.1//EN"
 "http://www.w3.org/Graphics/SVG/1.1/DTD/svg11.dtd">
<!-- Generated by graphviz version 2.40.1 (20161225.0304)
 -->
<!-- Title: %0 Pages: 1 -->
<svg width="76pt" height="344pt"
 viewBox="0.00 0.00 76.00 344.00" xmlns="http://www.w3.org/2000/svg" xmlns:xlink="http://www.w3.org/1999/xlink">
<g id="graph0" class="graph" transform="scale(1 1) rotate(0) translate(4 340)">
<title>%0</title>
<polygon fill="#ffffff" stroke="transparent" points="-4,4 -4,-340 72,-340 72,4 -4,4"/>
<!-- object -->
<g id="node1" class="node">
<title>object</title>
<g id="a_node1"><a xlink:href="object.md" xlink:title="object">
<polygon fill="#ffffff" stroke="transparent" points="5.5,-244 5.5,-336 62.5,-336 62.5,-244 5.5,-244"/>
<polygon fill="none" stroke="#000000" points="6,-314 6,-336 63,-336 63,-314 6,-314"/>
<text text-anchor="start" x="21.1625" y="-322" font-family="Helvetica,sans-Serif" font-size="10.00" fill="#000000">object</text>
<polygon fill="none" stroke="#000000" points="6,-244 6,-314 63,-314 63,-244 6,-244"/>
<text text-anchor="start" x="11" y="-300" font-family="Helvetica,sans-Serif" font-size="10.00" fill="#000000"> dispose()</text>
<text text-anchor="start" x="11" y="-288" font-family="Helvetica,sans-Serif" font-size="10.00" fill="#000000"> equals()</text>
<text text-anchor="start" x="11" y="-276" font-family="Helvetica,sans-Serif" font-size="10.00" fill="#000000"> toString()</text>
<text text-anchor="start" x="11" y="-264" font-family="Helvetica,sans-Serif" font-size="10.00" fill="#000000"> toJSON()</text>
<text text-anchor="start" x="11" y="-252" font-family="Helvetica,sans-Serif" font-size="10.00" fill="#000000"> valueOf()</text>
</a>
</g>
</g>
<!-- Int64 -->
<g id="node2" class="node">
<title>Int64</title>
<g id="a_node2"><a xlink:title="Int64">
<polygon fill="#d3d3d3" stroke="transparent" points="0,0 0,-208 68,-208 68,0 0,0"/>
<polygon fill="none" stroke="#000000" points="0,-186 0,-208 68,-208 68,-186 0,-186"/>
<text text-anchor="start" x="22.8825" y="-194" font-family="Helvetica,sans-Serif" font-size="10.00" fill="#000000">Int64</text>
<polygon fill="none" stroke="#000000" points="0,-164 0,-186 68,-186 68,-164 0,-164"/>
<text text-anchor="start" x="5" y="-172" font-family="Helvetica,sans-Serif" font-size="10.00" fill="#000000">  new Int64()</text>
<polygon fill="none" stroke="#000000" points="0,-130 0,-164 68,-164 68,-130 0,-130"/>
<text text-anchor="start" x="5" y="-150" font-family="Helvetica,sans-Serif" font-size="10.00" fill="#000000"> hi</text>
<text text-anchor="start" x="5" y="-138" font-family="Helvetica,sans-Serif" font-size="10.00" fill="#000000"> lo</text>
<polygon fill="none" stroke="#000000" points="0,0 0,-130 68,-130 68,0 0,0"/>
<text text-anchor="start" x="5" y="-116" font-family="Helvetica,sans-Serif" font-size="10.00" fill="#000000"> compare()</text>
<text text-anchor="start" x="5" y="-104" font-family="Helvetica,sans-Serif" font-size="10.00" fill="#000000"> shiftLeft()</text>
<text text-anchor="start" x="5" y="-92" font-family="Helvetica,sans-Serif" font-size="10.00" fill="#000000"> shiftRight()</text>
<text text-anchor="start" x="5" y="-80" font-family="Helvetica,sans-Serif" font-size="10.00" fill="#000000"> and()</text>
<text text-anchor="start" x="5" y="-68" font-family="Helvetica,sans-Serif" font-size="10.00" fill="#000000"> or()</text>
<text text-anchor="start" x="5" y="-56" font-family="Helvetica,sans-Serif" font-size="10.00" fill="#000000"> xor()</text>
<text text-anchor="start" x="5" y="-44" font-family="Helvetica,sans-Serif" font-size="10.00" fill="#000000"> add()</text>
<text text-anchor="start" x="5" y="-32" font-family="Helvetica,sans-Serif" font-size="10.00" fill="#000000"> sub()</text>
<text text-anchor="start" x="5" y="-20" font-family="Helvetica,sans-Serif" font-size="10.00" fill="#000000"> toNumber()</text>
<text text-anchor="start" x="5" y="-8" font-family="Helvetica,sans-Serif" font-size="10.00" fill="#000000"> toString()</text>
</a>
</g>
</g>
<!-- object&#45;&gt;Int64 -->
<g id="edge1" class="edge">
<title>object&#45;&gt;Int64</title>
<path fill="none" stroke="#000000" d="M34,-233.4847C34,-225.3369 34,-216.7452 34,-208.0222"/>
<polygon fill="#000000" stroke="#000000" points="30.5001,-233.5441 34,-243.5441 37.5001,-233.5442 30.5001,-233.5441"/>
</g>
</g>
</svg>
