<?xml version="1.0" encoding="UTF-8" standalone="no"?>
<!DOCTYPE svg PUBLIC "-//W3C//DTD SVG 1.1//EN"
 "http://www.w3.org/Graphics/SVG/1.1/DTD/svg11.dtd">
<!-- Generated by graphviz version 2.40.1 (20161225.0304)
 -->
<!-- Title: %0 Pages: 1 -->
<svg width="72pt" height="312pt"
 viewBox="0.00 0.00 72.00 312.00" xmlns="http://www.w3.org/2000/svg" xmlns:xlink="http://www.w3.org/1999/xlink">
<g id="graph0" class="graph" transform="scale(1 1) rotate(0) translate(4 308)">
<title>%0</title>
<polygon fill="#ffffff" stroke="transparent" points="-4,4 -4,-308 68,-308 68,4 -4,4"/>
<!-- object -->
<g id="node1" class="node">
<title>object</title>
<g id="a_node1"><a xlink:href="object.md" xlink:title="object">
<polygon fill="#ffffff" stroke="transparent" points="3.5,-212 3.5,-304 60.5,-304 60.5,-212 3.5,-212"/>
<polygon fill="none" stroke="#000000" points="4,-282 4,-304 61,-304 61,-282 4,-282"/>
<text text-anchor="start" x="19.1625" y="-290" font-family="Helvetica,sans-Serif" font-size="10.00" fill="#000000">object</text>
<polygon fill="none" stroke="#000000" points="4,-212 4,-282 61,-282 61,-212 4,-212"/>
<text text-anchor="start" x="9" y="-268" font-family="Helvetica,sans-Serif" font-size="10.00" fill="#000000"> dispose()</text>
<text text-anchor="start" x="9" y="-256" font-family="Helvetica,sans-Serif" font-size="10.00" fill="#000000"> equals()</text>
<text text-anchor="start" x="9" y="-244" font-family="Helvetica,sans-Serif" font-size="10.00" fill="#000000"> toString()</text>
<text text-anchor="start" x="9" y="-232" font-family="Helvetica,sans-Serif" font-size="10.00" fill="#000000"> toJSON()</text>
<text text-anchor="start" x="9" y="-220" font-family="Helvetica,sans-Serif" font-size="10.00" fill="#000000"> valueOf()</text>
</a>
</g>
</g>
<!-- LevelDB -->
<g id="node2" class="node">
<title>LevelDB</title>
<g id="a_node2"><a xlink:title="LevelDB">
<polygon fill="#d3d3d3" stroke="transparent" points="0,0 0,-176 64,-176 64,0 0,0"/>
<polygon fill="none" stroke="#000000" points="0,-154 0,-176 64,-176 64,-154 0,-154"/>
<text text-anchor="start" x="13.108" y="-162" font-family="Helvetica,sans-Serif" font-size="10.00" fill="#000000">LevelDB</text>
<polygon fill="none" stroke="#000000" points="0,0 0,-154 64,-154 64,0 0,0"/>
<text text-anchor="start" x="5" y="-140" font-family="Helvetica,sans-Serif" font-size="10.00" fill="#000000"> has()</text>
<text text-anchor="start" x="5" y="-128" font-family="Helvetica,sans-Serif" font-size="10.00" fill="#000000"> get()</text>
<text text-anchor="start" x="5" y="-116" font-family="Helvetica,sans-Serif" font-size="10.00" fill="#000000"> mget()</text>
<text text-anchor="start" x="5" y="-104" font-family="Helvetica,sans-Serif" font-size="10.00" fill="#000000"> set()</text>
<text text-anchor="start" x="5" y="-92" font-family="Helvetica,sans-Serif" font-size="10.00" fill="#000000"> mset()</text>
<text text-anchor="start" x="5" y="-80" font-family="Helvetica,sans-Serif" font-size="10.00" fill="#000000"> mremove()</text>
<text text-anchor="start" x="5" y="-68" font-family="Helvetica,sans-Serif" font-size="10.00" fill="#000000"> remove()</text>
<text text-anchor="start" x="5" y="-56" font-family="Helvetica,sans-Serif" font-size="10.00" fill="#000000"> forEach()</text>
<text text-anchor="start" x="5" y="-44" font-family="Helvetica,sans-Serif" font-size="10.00" fill="#000000"> between()</text>
<text text-anchor="start" x="5" y="-32" font-family="Helvetica,sans-Serif" font-size="10.00" fill="#000000"> begin()</text>
<text text-anchor="start" x="5" y="-20" font-family="Helvetica,sans-Serif" font-size="10.00" fill="#000000"> commit()</text>
<text text-anchor="start" x="5" y="-8" font-family="Helvetica,sans-Serif" font-size="10.00" fill="#000000"> close()</text>
</a>
</g>
</g>
<!-- object&#45;&gt;LevelDB -->
<g id="edge1" class="edge">
<title>object&#45;&gt;LevelDB</title>
<path fill="none" stroke="#000000" d="M32,-201.8265C32,-193.6043 32,-184.974 32,-176.2979"/>
<polygon fill="#000000" stroke="#000000" points="28.5001,-201.9955 32,-211.9956 35.5001,-201.9956 28.5001,-201.9955"/>
</g>
</g>
</svg>
