<?xml version="1.0" encoding="UTF-8" standalone="no"?>
<!DOCTYPE svg PUBLIC "-//W3C//DTD SVG 1.1//EN"
 "http://www.w3.org/Graphics/SVG/1.1/DTD/svg11.dtd">
<!-- Generated by graphviz version 2.40.1 (20161225.0304)
 -->
<!-- Title: %0 Pages: 1 -->
<svg width="120pt" height="504pt"
 viewBox="0.00 0.00 120.10 504.00" xmlns="http://www.w3.org/2000/svg" xmlns:xlink="http://www.w3.org/1999/xlink">
<g id="graph0" class="graph" transform="scale(1 1) rotate(0) translate(4 500)">
<title>%0</title>
<polygon fill="#ffffff" stroke="transparent" points="-4,4 -4,-500 116.103,-500 116.103,4 -4,4"/>
<!-- object -->
<g id="node1" class="node">
<title>object</title>
<g id="a_node1"><a xlink:href="object.md" xlink:title="object">
<polygon fill="#ffffff" stroke="#000000" points="27.22,-407.5 27.22,-495.5 84.883,-495.5 84.883,-407.5 27.22,-407.5"/>
<text text-anchor="middle" x="56.0515" y="-482.5" font-family="Helvetica,sans-Serif" font-size="10.00" fill="#000000">object</text>
<polyline fill="none" stroke="#000000" points="27.22,-475.5 84.883,-475.5 "/>
<text text-anchor="start" x="35.22" y="-462.5" font-family="Helvetica,sans-Serif" font-size="10.00" fill="#000000">dispose()</text>
<text text-anchor="start" x="35.22" y="-450.5" font-family="Helvetica,sans-Serif" font-size="10.00" fill="#000000">equals()</text>
<text text-anchor="start" x="35.22" y="-438.5" font-family="Helvetica,sans-Serif" font-size="10.00" fill="#000000">toString()</text>
<text text-anchor="start" x="35.22" y="-426.5" font-family="Helvetica,sans-Serif" font-size="10.00" fill="#000000">toJSON()</text>
<text text-anchor="start" x="35.22" y="-414.5" font-family="Helvetica,sans-Serif" font-size="10.00" fill="#000000">valueOf()</text>
</a>
</g>
</g>
<!-- Stream -->
<g id="node2" class="node">
<title>Stream</title>
<g id="a_node2"><a xlink:href="Stream.md" xlink:title="Stream">
<polygon fill="#ffffff" stroke="#000000" points="28.3295,-294.5 28.3295,-370.5 83.7735,-370.5 83.7735,-294.5 28.3295,-294.5"/>
<text text-anchor="middle" x="56.0515" y="-357.5" font-family="Helvetica,sans-Serif" font-size="10.00" fill="#000000">Stream</text>
<polyline fill="none" stroke="#000000" points="28.3295,-350.5 83.7735,-350.5 "/>
<text text-anchor="start" x="36.3295" y="-337.5" font-family="Helvetica,sans-Serif" font-size="10.00" fill="#000000">read()</text>
<text text-anchor="start" x="36.3295" y="-325.5" font-family="Helvetica,sans-Serif" font-size="10.00" fill="#000000">write()</text>
<text text-anchor="start" x="36.3295" y="-313.5" font-family="Helvetica,sans-Serif" font-size="10.00" fill="#000000">close()</text>
<text text-anchor="start" x="36.3295" y="-301.5" font-family="Helvetica,sans-Serif" font-size="10.00" fill="#000000">copyTo()</text>
</a>
</g>
</g>
<!-- object&#45;&gt;Stream -->
<g id="edge1" class="edge">
<title>object&#45;&gt;Stream</title>
<path fill="none" stroke="#000000" d="M56.0515,-397.1681C56.0515,-388.1942 56.0515,-379.0623 56.0515,-370.5973"/>
<polygon fill="#000000" stroke="#000000" points="52.5516,-397.1888 56.0515,-407.1888 59.5516,-397.1888 52.5516,-397.1888"/>
</g>
<!-- SeekableStream -->
<g id="node3" class="node">
<title>SeekableStream</title>
<g id="a_node3"><a xlink:href="SeekableStream.md" xlink:title="SeekableStream">
<polygon fill="#ffffff" stroke="#000000" points="11.098,-121.5 11.098,-257.5 101.005,-257.5 101.005,-121.5 11.098,-121.5"/>
<text text-anchor="middle" x="56.0515" y="-244.5" font-family="Helvetica,sans-Serif" font-size="10.00" fill="#000000">SeekableStream</text>
<polyline fill="none" stroke="#000000" points="11.098,-237.5 101.005,-237.5 "/>
<text text-anchor="start" x="19.098" y="-224.5" font-family="Helvetica,sans-Serif" font-size="10.00" fill="#000000">seek()</text>
<text text-anchor="start" x="19.098" y="-212.5" font-family="Helvetica,sans-Serif" font-size="10.00" fill="#000000">tell()</text>
<text text-anchor="start" x="19.098" y="-200.5" font-family="Helvetica,sans-Serif" font-size="10.00" fill="#000000">rewind()</text>
<text text-anchor="start" x="19.098" y="-188.5" font-family="Helvetica,sans-Serif" font-size="10.00" fill="#000000">size()</text>
<text text-anchor="start" x="19.098" y="-176.5" font-family="Helvetica,sans-Serif" font-size="10.00" fill="#000000">readAll()</text>
<text text-anchor="start" x="19.098" y="-164.5" font-family="Helvetica,sans-Serif" font-size="10.00" fill="#000000">truncate()</text>
<text text-anchor="start" x="19.098" y="-152.5" font-family="Helvetica,sans-Serif" font-size="10.00" fill="#000000">eof()</text>
<text text-anchor="start" x="19.098" y="-140.5" font-family="Helvetica,sans-Serif" font-size="10.00" fill="#000000">flush()</text>
<text text-anchor="start" x="19.098" y="-128.5" font-family="Helvetica,sans-Serif" font-size="10.00" fill="#000000">stat()</text>
</a>
</g>
</g>
<!-- Stream&#45;&gt;SeekableStream -->
<g id="edge2" class="edge">
<title>Stream&#45;&gt;SeekableStream</title>
<path fill="none" stroke="#000000" d="M56.0515,-284.1057C56.0515,-275.6194 56.0515,-266.6465 56.0515,-257.7411"/>
<polygon fill="#000000" stroke="#000000" points="52.5516,-284.1786 56.0515,-294.1786 59.5516,-284.1787 52.5516,-284.1786"/>
</g>
<!-- MemoryStream -->
<g id="node4" class="node">
<title>MemoryStream</title>
<g id="a_node4"><a xlink:title="MemoryStream">
<polygon fill="#d3d3d3" stroke="#000000" points="0,-.5 0,-84.5 112.103,-84.5 112.103,-.5 0,-.5"/>
<text text-anchor="middle" x="56.0515" y="-71.5" font-family="Helvetica,sans-Serif" font-size="10.00" fill="#000000">MemoryStream</text>
<polyline fill="none" stroke="#000000" points="0,-64.5 112.103,-64.5 "/>
<text text-anchor="start" x="8" y="-51.5" font-family="Helvetica,sans-Serif" font-size="10.00" fill="#000000">new MemoryStream()</text>
<polyline fill="none" stroke="#000000" points="0,-44.5 112.103,-44.5 "/>
<text text-anchor="start" x="8" y="-31.5" font-family="Helvetica,sans-Serif" font-size="10.00" fill="#000000">setTime()</text>
<text text-anchor="start" x="8" y="-19.5" font-family="Helvetica,sans-Serif" font-size="10.00" fill="#000000">clone()</text>
<text text-anchor="start" x="8" y="-7.5" font-family="Helvetica,sans-Serif" font-size="10.00" fill="#000000">clear()</text>
</a>
</g>
</g>
<!-- SeekableStream&#45;&gt;MemoryStream -->
<g id="edge3" class="edge">
<title>SeekableStream&#45;&gt;MemoryStream</title>
<path fill="none" stroke="#000000" d="M56.0515,-110.9393C56.0515,-101.8956 56.0515,-92.9546 56.0515,-84.6674"/>
<polygon fill="#000000" stroke="#000000" points="52.5516,-111.1641 56.0515,-121.1642 59.5516,-111.1642 52.5516,-111.1641"/>
</g>
</g>
</svg>
