<?xml version="1.0" encoding="UTF-8" standalone="no"?>
<!DOCTYPE svg PUBLIC "-//W3C//DTD SVG 1.1//EN"
 "http://www.w3.org/Graphics/SVG/1.1/DTD/svg11.dtd">
<!-- Generated by graphviz version 2.40.1 (20161225.0304)
 -->
<!-- Title: %0 Pages: 1 -->
<svg width="122pt" height="518pt"
 viewBox="0.00 0.00 122.00 518.00" xmlns="http://www.w3.org/2000/svg" xmlns:xlink="http://www.w3.org/1999/xlink">
<g id="graph0" class="graph" transform="scale(1 1) rotate(0) translate(4 514)">
<title>%0</title>
<polygon fill="#ffffff" stroke="transparent" points="-4,4 -4,-514 118,-514 118,4 -4,4"/>
<!-- object -->
<g id="node1" class="node">
<title>object</title>
<g id="a_node1"><a xlink:href="object.md" xlink:title="object">
<polygon fill="#ffffff" stroke="transparent" points="28.5,-418 28.5,-510 85.5,-510 85.5,-418 28.5,-418"/>
<polygon fill="none" stroke="#000000" points="29,-488 29,-510 86,-510 86,-488 29,-488"/>
<text text-anchor="start" x="44.1625" y="-496" font-family="Helvetica,sans-Serif" font-size="10.00" fill="#000000">object</text>
<polygon fill="none" stroke="#000000" points="29,-418 29,-488 86,-488 86,-418 29,-418"/>
<text text-anchor="start" x="34" y="-474" font-family="Helvetica,sans-Serif" font-size="10.00" fill="#000000"> dispose()</text>
<text text-anchor="start" x="34" y="-462" font-family="Helvetica,sans-Serif" font-size="10.00" fill="#000000"> equals()</text>
<text text-anchor="start" x="34" y="-450" font-family="Helvetica,sans-Serif" font-size="10.00" fill="#000000"> toString()</text>
<text text-anchor="start" x="34" y="-438" font-family="Helvetica,sans-Serif" font-size="10.00" fill="#000000"> toJSON()</text>
<text text-anchor="start" x="34" y="-426" font-family="Helvetica,sans-Serif" font-size="10.00" fill="#000000"> valueOf()</text>
</a>
</g>
</g>
<!-- Stream -->
<g id="node2" class="node">
<title>Stream</title>
<g id="a_node2"><a xlink:href="Stream.md" xlink:title="Stream">
<polygon fill="#ffffff" stroke="transparent" points="29.5,-302 29.5,-382 84.5,-382 84.5,-302 29.5,-302"/>
<polygon fill="none" stroke="#000000" points="30,-360 30,-382 85,-382 85,-360 30,-360"/>
<text text-anchor="start" x="41.388" y="-368" font-family="Helvetica,sans-Serif" font-size="10.00" fill="#000000">Stream</text>
<polygon fill="none" stroke="#000000" points="30,-302 30,-360 85,-360 85,-302 30,-302"/>
<text text-anchor="start" x="35" y="-346" font-family="Helvetica,sans-Serif" font-size="10.00" fill="#000000"> read()</text>
<text text-anchor="start" x="35" y="-334" font-family="Helvetica,sans-Serif" font-size="10.00" fill="#000000"> write()</text>
<text text-anchor="start" x="35" y="-322" font-family="Helvetica,sans-Serif" font-size="10.00" fill="#000000"> close()</text>
<text text-anchor="start" x="35" y="-310" font-family="Helvetica,sans-Serif" font-size="10.00" fill="#000000"> copyTo()</text>
</a>
</g>
</g>
<!-- object&#45;&gt;Stream -->
<g id="edge1" class="edge">
<title>object&#45;&gt;Stream</title>
<path fill="none" stroke="#000000" d="M57,-407.8267C57,-399.1786 57,-390.4003 57,-382.193"/>
<polygon fill="#000000" stroke="#000000" points="53.5001,-407.877 57,-417.877 60.5001,-407.8771 53.5001,-407.877"/>
</g>
<!-- SeekableStream -->
<g id="node3" class="node">
<title>SeekableStream</title>
<g id="a_node3"><a xlink:href="SeekableStream.md" xlink:title="SeekableStream">
<polygon fill="#ffffff" stroke="transparent" points="15.5,-126 15.5,-266 98.5,-266 98.5,-126 15.5,-126"/>
<polygon fill="none" stroke="#000000" points="16,-244 16,-266 99,-266 99,-244 16,-244"/>
<text text-anchor="start" x="20.5465" y="-252" font-family="Helvetica,sans-Serif" font-size="10.00" fill="#000000">SeekableStream</text>
<polygon fill="none" stroke="#000000" points="16,-126 16,-244 99,-244 99,-126 16,-126"/>
<text text-anchor="start" x="21" y="-230" font-family="Helvetica,sans-Serif" font-size="10.00" fill="#000000"> seek()</text>
<text text-anchor="start" x="21" y="-218" font-family="Helvetica,sans-Serif" font-size="10.00" fill="#000000"> tell()</text>
<text text-anchor="start" x="21" y="-206" font-family="Helvetica,sans-Serif" font-size="10.00" fill="#000000"> rewind()</text>
<text text-anchor="start" x="21" y="-194" font-family="Helvetica,sans-Serif" font-size="10.00" fill="#000000"> size()</text>
<text text-anchor="start" x="21" y="-182" font-family="Helvetica,sans-Serif" font-size="10.00" fill="#000000"> readAll()</text>
<text text-anchor="start" x="21" y="-170" font-family="Helvetica,sans-Serif" font-size="10.00" fill="#000000"> truncate()</text>
<text text-anchor="start" x="21" y="-158" font-family="Helvetica,sans-Serif" font-size="10.00" fill="#000000"> eof()</text>
<text text-anchor="start" x="21" y="-146" font-family="Helvetica,sans-Serif" font-size="10.00" fill="#000000"> flush()</text>
<text text-anchor="start" x="21" y="-134" font-family="Helvetica,sans-Serif" font-size="10.00" fill="#000000"> stat()</text>
</a>
</g>
</g>
<!-- Stream&#45;&gt;SeekableStream -->
<g id="edge2" class="edge">
<title>Stream&#45;&gt;SeekableStream</title>
<path fill="none" stroke="#000000" d="M57,-291.5727C57,-283.356 57,-274.7162 57,-266.1293"/>
<polygon fill="#000000" stroke="#000000" points="53.5001,-291.7183 57,-301.7184 60.5001,-291.7184 53.5001,-291.7183"/>
</g>
<!-- MemoryStream -->
<g id="node4" class="node">
<title>MemoryStream</title>
<g id="a_node4"><a xlink:title="MemoryStream">
<polygon fill="#d3d3d3" stroke="transparent" points="0,0 0,-90 114,-90 114,0 0,0"/>
<polygon fill="none" stroke="#000000" points="0,-68 0,-90 114,-90 114,-68 0,-68"/>
<text text-anchor="start" x="22.8355" y="-76" font-family="Helvetica,sans-Serif" font-size="10.00" fill="#000000">MemoryStream</text>
<polygon fill="none" stroke="#000000" points="0,-46 0,-68 114,-68 114,-46 0,-46"/>
<text text-anchor="start" x="5" y="-54" font-family="Helvetica,sans-Serif" font-size="10.00" fill="#000000">  new MemoryStream()</text>
<polygon fill="none" stroke="#000000" points="0,0 0,-46 114,-46 114,0 0,0"/>
<text text-anchor="start" x="5" y="-32" font-family="Helvetica,sans-Serif" font-size="10.00" fill="#000000"> setTime()</text>
<text text-anchor="start" x="5" y="-20" font-family="Helvetica,sans-Serif" font-size="10.00" fill="#000000"> clone()</text>
<text text-anchor="start" x="5" y="-8" font-family="Helvetica,sans-Serif" font-size="10.00" fill="#000000"> clear()</text>
</a>
</g>
</g>
<!-- SeekableStream&#45;&gt;MemoryStream -->
<g id="edge3" class="edge">
<title>SeekableStream&#45;&gt;MemoryStream</title>
<path fill="none" stroke="#000000" d="M57,-115.5219C57,-106.7733 57,-98.1143 57,-90.0174"/>
<polygon fill="#000000" stroke="#000000" points="53.5001,-115.8047 57,-125.8047 60.5001,-115.8047 53.5001,-115.8047"/>
</g>
</g>
</svg>
