<?xml version="1.0" encoding="UTF-8" standalone="no"?>
<!DOCTYPE svg PUBLIC "-//W3C//DTD SVG 1.1//EN"
 "http://www.w3.org/Graphics/SVG/1.1/DTD/svg11.dtd">
<!-- Generated by graphviz version 2.40.1 (20161225.0304)
 -->
<!-- Title: %0 Pages: 1 -->
<svg width="93pt" height="260pt"
 viewBox="0.00 0.00 93.00 260.00" xmlns="http://www.w3.org/2000/svg" xmlns:xlink="http://www.w3.org/1999/xlink">
<g id="graph0" class="graph" transform="scale(1 1) rotate(0) translate(4 256)">
<title>%0</title>
<polygon fill="#ffffff" stroke="transparent" points="-4,4 -4,-256 89,-256 89,4 -4,4"/>
<!-- object -->
<g id="node1" class="node">
<title>object</title>
<g id="a_node1"><a xlink:href="object.md" xlink:title="object">
<polygon fill="#ffffff" stroke="transparent" points="14,-160 14,-252 71,-252 71,-160 14,-160"/>
<polygon fill="none" stroke="#000000" points="14.5,-230 14.5,-252 71.5,-252 71.5,-230 14.5,-230"/>
<text text-anchor="start" x="29.6625" y="-238" font-family="Helvetica,sans-Serif" font-size="10.00" fill="#000000">object</text>
<polygon fill="none" stroke="#000000" points="14.5,-160 14.5,-230 71.5,-230 71.5,-160 14.5,-160"/>
<text text-anchor="start" x="19.5" y="-216" font-family="Helvetica,sans-Serif" font-size="10.00" fill="#000000"> dispose()</text>
<text text-anchor="start" x="19.5" y="-204" font-family="Helvetica,sans-Serif" font-size="10.00" fill="#000000"> equals()</text>
<text text-anchor="start" x="19.5" y="-192" font-family="Helvetica,sans-Serif" font-size="10.00" fill="#000000"> toString()</text>
<text text-anchor="start" x="19.5" y="-180" font-family="Helvetica,sans-Serif" font-size="10.00" fill="#000000"> toJSON()</text>
<text text-anchor="start" x="19.5" y="-168" font-family="Helvetica,sans-Serif" font-size="10.00" fill="#000000"> valueOf()</text>
</a>
</g>
</g>
<!-- MongoDB -->
<g id="node2" class="node">
<title>MongoDB</title>
<g id="a_node2"><a xlink:title="MongoDB">
<polygon fill="#d3d3d3" stroke="transparent" points="0,0 0,-124 85,-124 85,0 0,0"/>
<polygon fill="none" stroke="#000000" points=".5,-102 .5,-124 85.5,-124 85.5,-102 .5,-102"/>
<text text-anchor="start" x="20.7735" y="-110" font-family="Helvetica,sans-Serif" font-size="10.00" fill="#000000">MongoDB</text>
<polygon fill="none" stroke="#000000" points=".5,-80 .5,-102 85.5,-102 85.5,-80 .5,-80"/>
<text text-anchor="start" x="5.5" y="-88" font-family="Helvetica,sans-Serif" font-size="10.00" fill="#000000"> operator[String]</text>
<polygon fill="none" stroke="#000000" points=".5,-58 .5,-80 85.5,-80 85.5,-58 .5,-58"/>
<text text-anchor="start" x="5.5" y="-66" font-family="Helvetica,sans-Serif" font-size="10.00" fill="#000000"> fs</text>
<polygon fill="none" stroke="#000000" points=".5,0 .5,-58 85.5,-58 85.5,0 .5,0"/>
<text text-anchor="start" x="5.5" y="-44" font-family="Helvetica,sans-Serif" font-size="10.00" fill="#000000"> getCollection()</text>
<text text-anchor="start" x="5.5" y="-32" font-family="Helvetica,sans-Serif" font-size="10.00" fill="#000000"> runCommand()</text>
<text text-anchor="start" x="5.5" y="-20" font-family="Helvetica,sans-Serif" font-size="10.00" fill="#000000"> oid()</text>
<text text-anchor="start" x="5.5" y="-8" font-family="Helvetica,sans-Serif" font-size="10.00" fill="#000000"> close()</text>
</a>
</g>
</g>
<!-- object&#45;&gt;MongoDB -->
<g id="edge1" class="edge">
<title>object&#45;&gt;MongoDB</title>
<path fill="none" stroke="#000000" d="M42.5,-149.5933C42.5,-141.2054 42.5,-132.521 42.5,-124.0256"/>
<polygon fill="#000000" stroke="#000000" points="39.0001,-149.6448 42.5,-159.6449 46.0001,-149.6449 39.0001,-149.6448"/>
</g>
</g>
</svg>
