<?xml version="1.0" encoding="UTF-8" standalone="no"?>
<!DOCTYPE svg PUBLIC "-//W3C//DTD SVG 1.1//EN"
 "http://www.w3.org/Graphics/SVG/1.1/DTD/svg11.dtd">
<!-- Generated by graphviz version 2.40.1 (20161225.0304)
 -->
<!-- Title: %0 Pages: 1 -->
<svg width="66pt" height="170pt"
 viewBox="0.00 0.00 65.66 170.00" xmlns="http://www.w3.org/2000/svg" xmlns:xlink="http://www.w3.org/1999/xlink">
<g id="graph0" class="graph" transform="scale(1 1) rotate(0) translate(4 166)">
<title>%0</title>
<polygon fill="#ffffff" stroke="transparent" points="-4,4 -4,-166 61.663,-166 61.663,4 -4,4"/>
<!-- object -->
<g id="node1" class="node">
<title>object</title>
<g id="a_node1"><a xlink:href="object.md" xlink:title="object">
<polygon fill="#ffffff" stroke="#000000" points="0,-73.5 0,-161.5 57.663,-161.5 57.663,-73.5 0,-73.5"/>
<text text-anchor="middle" x="28.8315" y="-148.5" font-family="Helvetica,sans-Serif" font-size="10.00" fill="#000000">object</text>
<polyline fill="none" stroke="#000000" points="0,-141.5 57.663,-141.5 "/>
<text text-anchor="start" x="8" y="-128.5" font-family="Helvetica,sans-Serif" font-size="10.00" fill="#000000">dispose()</text>
<text text-anchor="start" x="8" y="-116.5" font-family="Helvetica,sans-Serif" font-size="10.00" fill="#000000">equals()</text>
<text text-anchor="start" x="8" y="-104.5" font-family="Helvetica,sans-Serif" font-size="10.00" fill="#000000">toString()</text>
<text text-anchor="start" x="8" y="-92.5" font-family="Helvetica,sans-Serif" font-size="10.00" fill="#000000">toJSON()</text>
<text text-anchor="start" x="8" y="-80.5" font-family="Helvetica,sans-Serif" font-size="10.00" fill="#000000">valueOf()</text>
</a>
</g>
</g>
<!-- MongoID -->
<g id="node2" class="node">
<title>MongoID</title>
<g id="a_node2"><a xlink:title="MongoID">
<polygon fill="#d3d3d3" stroke="#000000" points=".55,-.5 .55,-36.5 57.113,-36.5 57.113,-.5 .55,-.5"/>
<text text-anchor="middle" x="28.8315" y="-15.5" font-family="Helvetica,sans-Serif" font-size="10.00" fill="#000000">MongoID</text>
</a>
</g>
</g>
<!-- object&#45;&gt;MongoID -->
<g id="edge1" class="edge">
<title>object&#45;&gt;MongoID</title>
<path fill="none" stroke="#000000" d="M28.8315,-63.0034C28.8315,-53.6233 28.8315,-44.485 28.8315,-36.9543"/>
<polygon fill="#000000" stroke="#000000" points="25.3316,-63.2121 28.8315,-73.2121 32.3316,-63.2121 25.3316,-63.2121"/>
</g>
</g>
</svg>
