<?xml version="1.0" encoding="UTF-8" standalone="no"?>
<!DOCTYPE svg PUBLIC "-//W3C//DTD SVG 1.1//EN"
 "http://www.w3.org/Graphics/SVG/1.1/DTD/svg11.dtd">
<!-- Generated by graphviz version 2.40.1 (20161225.0304)
 -->
<!-- Title: %0 Pages: 1 -->
<svg width="87pt" height="363pt"
 viewBox="0.00 0.00 87.35 363.00" xmlns="http://www.w3.org/2000/svg" xmlns:xlink="http://www.w3.org/1999/xlink">
<g id="graph0" class="graph" transform="scale(1 1) rotate(0) translate(4 359)">
<title>%0</title>
<polygon fill="#ffffff" stroke="transparent" points="-4,4 -4,-359 83.349,-359 83.349,4 -4,4"/>
<!-- object -->
<g id="node1" class="node">
<title>object</title>
<g id="a_node1"><a xlink:href="object.md" xlink:title="object">
<polygon fill="#ffffff" stroke="#000000" points="10.843,-266.5 10.843,-354.5 68.506,-354.5 68.506,-266.5 10.843,-266.5"/>
<text text-anchor="middle" x="39.6745" y="-341.5" font-family="Helvetica,sans-Serif" font-size="10.00" fill="#000000">object</text>
<polyline fill="none" stroke="#000000" points="10.843,-334.5 68.506,-334.5 "/>
<text text-anchor="start" x="18.843" y="-321.5" font-family="Helvetica,sans-Serif" font-size="10.00" fill="#000000">dispose()</text>
<text text-anchor="start" x="18.843" y="-309.5" font-family="Helvetica,sans-Serif" font-size="10.00" fill="#000000">equals()</text>
<text text-anchor="start" x="18.843" y="-297.5" font-family="Helvetica,sans-Serif" font-size="10.00" fill="#000000">toString()</text>
<text text-anchor="start" x="18.843" y="-285.5" font-family="Helvetica,sans-Serif" font-size="10.00" fill="#000000">toJSON()</text>
<text text-anchor="start" x="18.843" y="-273.5" font-family="Helvetica,sans-Serif" font-size="10.00" fill="#000000">valueOf()</text>
</a>
</g>
</g>
<!-- DbConnection -->
<g id="node2" class="node">
<title>DbConnection</title>
<g id="a_node2"><a xlink:href="DbConnection.md" xlink:title="DbConnection">
<polygon fill="#ffffff" stroke="#000000" points="0,-109.5 0,-229.5 79.349,-229.5 79.349,-109.5 0,-109.5"/>
<text text-anchor="middle" x="39.6745" y="-216.5" font-family="Helvetica,sans-Serif" font-size="10.00" fill="#000000">DbConnection</text>
<polyline fill="none" stroke="#000000" points="0,-209.5 79.349,-209.5 "/>
<text text-anchor="start" x="8" y="-196.5" font-family="Helvetica,sans-Serif" font-size="10.00" fill="#000000">type</text>
<polyline fill="none" stroke="#000000" points="0,-189.5 79.349,-189.5 "/>
<text text-anchor="start" x="8" y="-176.5" font-family="Helvetica,sans-Serif" font-size="10.00" fill="#000000">close()</text>
<text text-anchor="start" x="8" y="-164.5" font-family="Helvetica,sans-Serif" font-size="10.00" fill="#000000">begin()</text>
<text text-anchor="start" x="8" y="-152.5" font-family="Helvetica,sans-Serif" font-size="10.00" fill="#000000">commit()</text>
<text text-anchor="start" x="8" y="-140.5" font-family="Helvetica,sans-Serif" font-size="10.00" fill="#000000">rollback()</text>
<text text-anchor="start" x="8" y="-128.5" font-family="Helvetica,sans-Serif" font-size="10.00" fill="#000000">execute()</text>
<text text-anchor="start" x="8" y="-116.5" font-family="Helvetica,sans-Serif" font-size="10.00" fill="#000000">format()</text>
</a>
</g>
</g>
<!-- object&#45;&gt;DbConnection -->
<g id="edge1" class="edge">
<title>object&#45;&gt;DbConnection</title>
<path fill="none" stroke="#000000" d="M39.6745,-256.2311C39.6745,-247.51 39.6745,-238.4385 39.6745,-229.5906"/>
<polygon fill="#000000" stroke="#000000" points="36.1746,-256.2735 39.6745,-266.2736 43.1746,-256.2736 36.1746,-256.2735"/>
</g>
<!-- MySQL -->
<g id="node3" class="node">
<title>MySQL</title>
<g id="a_node3"><a xlink:title="MySQL">
<polygon fill="#d3d3d3" stroke="#000000" points="4.4495,-.5 4.4495,-72.5 74.8995,-72.5 74.8995,-.5 4.4495,-.5"/>
<text text-anchor="middle" x="39.6745" y="-59.5" font-family="Helvetica,sans-Serif" font-size="10.00" fill="#000000">MySQL</text>
<polyline fill="none" stroke="#000000" points="4.4495,-52.5 74.8995,-52.5 "/>
<text text-anchor="start" x="12.4495" y="-39.5" font-family="Helvetica,sans-Serif" font-size="10.00" fill="#000000">rxBufferSize</text>
<text text-anchor="start" x="12.4495" y="-27.5" font-family="Helvetica,sans-Serif" font-size="10.00" fill="#000000">txBufferSize</text>
<polyline fill="none" stroke="#000000" points="4.4495,-20.5 74.8995,-20.5 "/>
<text text-anchor="start" x="12.4495" y="-7.5" font-family="Helvetica,sans-Serif" font-size="10.00" fill="#000000">use()</text>
</a>
</g>
</g>
<!-- DbConnection&#45;&gt;MySQL -->
<g id="edge2" class="edge">
<title>DbConnection&#45;&gt;MySQL</title>
<path fill="none" stroke="#000000" d="M39.6745,-98.9351C39.6745,-89.8261 39.6745,-80.8191 39.6745,-72.6013"/>
<polygon fill="#000000" stroke="#000000" points="36.1746,-99.2262 39.6745,-109.2263 43.1746,-99.2263 36.1746,-99.2262"/>
</g>
</g>
</svg>
