<?xml version="1.0" encoding="UTF-8" standalone="no"?>
<!DOCTYPE svg PUBLIC "-//W3C//DTD SVG 1.1//EN"
 "http://www.w3.org/Graphics/SVG/1.1/DTD/svg11.dtd">
<!-- Generated by graphviz version 2.40.1 (20161225.0304)
 -->
<!-- Title: %0 Pages: 1 -->
<svg width="82pt" height="380pt"
 viewBox="0.00 0.00 82.00 380.00" xmlns="http://www.w3.org/2000/svg" xmlns:xlink="http://www.w3.org/1999/xlink">
<g id="graph0" class="graph" transform="scale(1 1) rotate(0) translate(4 376)">
<title>%0</title>
<polygon fill="#ffffff" stroke="transparent" points="-4,4 -4,-376 78,-376 78,4 -4,4"/>
<!-- object -->
<g id="node1" class="node">
<title>object</title>
<g id="a_node1"><a xlink:href="object.md" xlink:title="object">
<polygon fill="#ffffff" stroke="transparent" points="8.5,-280 8.5,-372 65.5,-372 65.5,-280 8.5,-280"/>
<polygon fill="none" stroke="#000000" points="9,-350 9,-372 66,-372 66,-350 9,-350"/>
<text text-anchor="start" x="24.1625" y="-358" font-family="Helvetica,sans-Serif" font-size="10.00" fill="#000000">object</text>
<polygon fill="none" stroke="#000000" points="9,-280 9,-350 66,-350 66,-280 9,-280"/>
<text text-anchor="start" x="14" y="-336" font-family="Helvetica,sans-Serif" font-size="10.00" fill="#000000"> dispose()</text>
<text text-anchor="start" x="14" y="-324" font-family="Helvetica,sans-Serif" font-size="10.00" fill="#000000"> equals()</text>
<text text-anchor="start" x="14" y="-312" font-family="Helvetica,sans-Serif" font-size="10.00" fill="#000000"> toString()</text>
<text text-anchor="start" x="14" y="-300" font-family="Helvetica,sans-Serif" font-size="10.00" fill="#000000"> toJSON()</text>
<text text-anchor="start" x="14" y="-288" font-family="Helvetica,sans-Serif" font-size="10.00" fill="#000000"> valueOf()</text>
</a>
</g>
</g>
<!-- PKey -->
<g id="node2" class="node">
<title>PKey</title>
<g id="a_node2"><a xlink:title="PKey">
<polygon fill="#d3d3d3" stroke="transparent" points="0,0 0,-244 74,-244 74,0 0,0"/>
<polygon fill="none" stroke="#000000" points="0,-222 0,-244 74,-244 74,-222 0,-222"/>
<text text-anchor="start" x="25.0515" y="-230" font-family="Helvetica,sans-Serif" font-size="10.00" fill="#000000">PKey</text>
<polygon fill="none" stroke="#000000" points="0,-200 0,-222 74,-222 74,-200 0,-200"/>
<text text-anchor="start" x="5" y="-208" font-family="Helvetica,sans-Serif" font-size="10.00" fill="#000000">  new PKey()</text>
<polygon fill="none" stroke="#000000" points="0,-154 0,-200 74,-200 74,-154 0,-154"/>
<text text-anchor="start" x="5" y="-186" font-family="Helvetica,sans-Serif" font-size="10.00" fill="#000000"> name</text>
<text text-anchor="start" x="5" y="-174" font-family="Helvetica,sans-Serif" font-size="10.00" fill="#000000"> keySize</text>
<text text-anchor="start" x="5" y="-162" font-family="Helvetica,sans-Serif" font-size="10.00" fill="#000000"> publicKey</text>
<polygon fill="none" stroke="#000000" points="0,0 0,-154 74,-154 74,0 0,0"/>
<text text-anchor="start" x="5" y="-140" font-family="Helvetica,sans-Serif" font-size="10.00" fill="#000000"> genRsaKey()</text>
<text text-anchor="start" x="5" y="-128" font-family="Helvetica,sans-Serif" font-size="10.00" fill="#000000"> genEcKey()</text>
<text text-anchor="start" x="5" y="-116" font-family="Helvetica,sans-Serif" font-size="10.00" fill="#000000"> isPrivate()</text>
<text text-anchor="start" x="5" y="-104" font-family="Helvetica,sans-Serif" font-size="10.00" fill="#000000"> clone()</text>
<text text-anchor="start" x="5" y="-92" font-family="Helvetica,sans-Serif" font-size="10.00" fill="#000000"> importKey()</text>
<text text-anchor="start" x="5" y="-80" font-family="Helvetica,sans-Serif" font-size="10.00" fill="#000000"> importFile()</text>
<text text-anchor="start" x="5" y="-68" font-family="Helvetica,sans-Serif" font-size="10.00" fill="#000000"> exportPem()</text>
<text text-anchor="start" x="5" y="-56" font-family="Helvetica,sans-Serif" font-size="10.00" fill="#000000"> exportDer()</text>
<text text-anchor="start" x="5" y="-44" font-family="Helvetica,sans-Serif" font-size="10.00" fill="#000000"> encrypt()</text>
<text text-anchor="start" x="5" y="-32" font-family="Helvetica,sans-Serif" font-size="10.00" fill="#000000"> decrypt()</text>
<text text-anchor="start" x="5" y="-20" font-family="Helvetica,sans-Serif" font-size="10.00" fill="#000000"> sign()</text>
<text text-anchor="start" x="5" y="-8" font-family="Helvetica,sans-Serif" font-size="10.00" fill="#000000"> verify()</text>
</a>
</g>
</g>
<!-- object&#45;&gt;PKey -->
<g id="edge1" class="edge">
<title>object&#45;&gt;PKey</title>
<path fill="none" stroke="#000000" d="M37,-269.9235C37,-261.7711 37,-253.1241 37,-244.2645"/>
<polygon fill="#000000" stroke="#000000" points="33.5001,-269.964 37,-279.9641 40.5001,-269.9641 33.5001,-269.964"/>
</g>
</g>
</svg>
