<?xml version="1.0" encoding="UTF-8" standalone="no"?>
<!DOCTYPE svg PUBLIC "-//W3C//DTD SVG 1.1//EN"
 "http://www.w3.org/Graphics/SVG/1.1/DTD/svg11.dtd">
<!-- Generated by graphviz version 2.40.1 (20161225.0304)
 -->
<!-- Title: %0 Pages: 1 -->
<svg width="84pt" height="312pt"
 viewBox="0.00 0.00 84.00 312.00" xmlns="http://www.w3.org/2000/svg" xmlns:xlink="http://www.w3.org/1999/xlink">
<g id="graph0" class="graph" transform="scale(1 1) rotate(0) translate(4 308)">
<title>%0</title>
<polygon fill="#ffffff" stroke="transparent" points="-4,4 -4,-308 80,-308 80,4 -4,4"/>
<!-- object -->
<g id="node1" class="node">
<title>object</title>
<g id="a_node1"><a xlink:href="object.md" xlink:title="object">
<polygon fill="#ffffff" stroke="transparent" points="9.5,-212 9.5,-304 66.5,-304 66.5,-212 9.5,-212"/>
<polygon fill="none" stroke="#000000" points="10,-282 10,-304 67,-304 67,-282 10,-282"/>
<text text-anchor="start" x="25.1625" y="-290" font-family="Helvetica,sans-Serif" font-size="10.00" fill="#000000">object</text>
<polygon fill="none" stroke="#000000" points="10,-212 10,-282 67,-282 67,-212 10,-212"/>
<text text-anchor="start" x="15" y="-268" font-family="Helvetica,sans-Serif" font-size="10.00" fill="#000000"> dispose()</text>
<text text-anchor="start" x="15" y="-256" font-family="Helvetica,sans-Serif" font-size="10.00" fill="#000000"> equals()</text>
<text text-anchor="start" x="15" y="-244" font-family="Helvetica,sans-Serif" font-size="10.00" fill="#000000"> toString()</text>
<text text-anchor="start" x="15" y="-232" font-family="Helvetica,sans-Serif" font-size="10.00" fill="#000000"> toJSON()</text>
<text text-anchor="start" x="15" y="-220" font-family="Helvetica,sans-Serif" font-size="10.00" fill="#000000"> valueOf()</text>
</a>
</g>
</g>
<!-- RedisList -->
<g id="node2" class="node">
<title>RedisList</title>
<g id="a_node2"><a xlink:title="RedisList">
<polygon fill="#d3d3d3" stroke="transparent" points="0,0 0,-176 76,-176 76,0 0,0"/>
<polygon fill="none" stroke="#000000" points="0,-154 0,-176 76,-176 76,-154 0,-154"/>
<text text-anchor="start" x="17.4435" y="-162" font-family="Helvetica,sans-Serif" font-size="10.00" fill="#000000">RedisList</text>
<polygon fill="none" stroke="#000000" points="0,0 0,-154 76,-154 76,0 0,0"/>
<text text-anchor="start" x="5" y="-140" font-family="Helvetica,sans-Serif" font-size="10.00" fill="#000000"> push()</text>
<text text-anchor="start" x="5" y="-128" font-family="Helvetica,sans-Serif" font-size="10.00" fill="#000000"> pop()</text>
<text text-anchor="start" x="5" y="-116" font-family="Helvetica,sans-Serif" font-size="10.00" fill="#000000"> rpush()</text>
<text text-anchor="start" x="5" y="-104" font-family="Helvetica,sans-Serif" font-size="10.00" fill="#000000"> rpop()</text>
<text text-anchor="start" x="5" y="-92" font-family="Helvetica,sans-Serif" font-size="10.00" fill="#000000"> set()</text>
<text text-anchor="start" x="5" y="-80" font-family="Helvetica,sans-Serif" font-size="10.00" fill="#000000"> get()</text>
<text text-anchor="start" x="5" y="-68" font-family="Helvetica,sans-Serif" font-size="10.00" fill="#000000"> insertBefore()</text>
<text text-anchor="start" x="5" y="-56" font-family="Helvetica,sans-Serif" font-size="10.00" fill="#000000"> insertAfter()</text>
<text text-anchor="start" x="5" y="-44" font-family="Helvetica,sans-Serif" font-size="10.00" fill="#000000"> remove()</text>
<text text-anchor="start" x="5" y="-32" font-family="Helvetica,sans-Serif" font-size="10.00" fill="#000000"> trim()</text>
<text text-anchor="start" x="5" y="-20" font-family="Helvetica,sans-Serif" font-size="10.00" fill="#000000"> len()</text>
<text text-anchor="start" x="5" y="-8" font-family="Helvetica,sans-Serif" font-size="10.00" fill="#000000"> range()</text>
</a>
</g>
</g>
<!-- object&#45;&gt;RedisList -->
<g id="edge1" class="edge">
<title>object&#45;&gt;RedisList</title>
<path fill="none" stroke="#000000" d="M38,-201.8265C38,-193.6043 38,-184.974 38,-176.2979"/>
<polygon fill="#000000" stroke="#000000" points="34.5001,-201.9955 38,-211.9956 41.5001,-201.9956 34.5001,-201.9955"/>
</g>
</g>
</svg>
