<?xml version="1.0" encoding="UTF-8" standalone="no"?>
<!DOCTYPE svg PUBLIC "-//W3C//DTD SVG 1.1//EN"
 "http://www.w3.org/Graphics/SVG/1.1/DTD/svg11.dtd">
<!-- Generated by graphviz version 2.40.1 (20161225.0304)
 -->
<!-- Title: %0 Pages: 1 -->
<svg width="87pt" height="252pt"
 viewBox="0.00 0.00 87.00 252.00" xmlns="http://www.w3.org/2000/svg" xmlns:xlink="http://www.w3.org/1999/xlink">
<g id="graph0" class="graph" transform="scale(1 1) rotate(0) translate(4 248)">
<title>%0</title>
<polygon fill="#ffffff" stroke="transparent" points="-4,4 -4,-248 83,-248 83,4 -4,4"/>
<!-- object -->
<g id="node1" class="node">
<title>object</title>
<g id="a_node1"><a xlink:href="object.md" xlink:title="object">
<polygon fill="#ffffff" stroke="transparent" points="11,-152 11,-244 68,-244 68,-152 11,-152"/>
<polygon fill="none" stroke="#000000" points="11.5,-222 11.5,-244 68.5,-244 68.5,-222 11.5,-222"/>
<text text-anchor="start" x="26.6625" y="-230" font-family="Helvetica,sans-Serif" font-size="10.00" fill="#000000">object</text>
<polygon fill="none" stroke="#000000" points="11.5,-152 11.5,-222 68.5,-222 68.5,-152 11.5,-152"/>
<text text-anchor="start" x="16.5" y="-208" font-family="Helvetica,sans-Serif" font-size="10.00" fill="#000000"> dispose()</text>
<text text-anchor="start" x="16.5" y="-196" font-family="Helvetica,sans-Serif" font-size="10.00" fill="#000000"> equals()</text>
<text text-anchor="start" x="16.5" y="-184" font-family="Helvetica,sans-Serif" font-size="10.00" fill="#000000"> toString()</text>
<text text-anchor="start" x="16.5" y="-172" font-family="Helvetica,sans-Serif" font-size="10.00" fill="#000000"> toJSON()</text>
<text text-anchor="start" x="16.5" y="-160" font-family="Helvetica,sans-Serif" font-size="10.00" fill="#000000"> valueOf()</text>
</a>
</g>
</g>
<!-- RedisSet -->
<g id="node2" class="node">
<title>RedisSet</title>
<g id="a_node2"><a xlink:title="RedisSet">
<polygon fill="#d3d3d3" stroke="transparent" points="0,0 0,-116 79,-116 79,0 0,0"/>
<polygon fill="none" stroke="#000000" points=".5,-94 .5,-116 79.5,-116 79.5,-94 .5,-94"/>
<text text-anchor="start" x="19.7185" y="-102" font-family="Helvetica,sans-Serif" font-size="10.00" fill="#000000">RedisSet</text>
<polygon fill="none" stroke="#000000" points=".5,0 .5,-94 79.5,-94 79.5,0 .5,0"/>
<text text-anchor="start" x="5.5" y="-80" font-family="Helvetica,sans-Serif" font-size="10.00" fill="#000000"> add()</text>
<text text-anchor="start" x="5.5" y="-68" font-family="Helvetica,sans-Serif" font-size="10.00" fill="#000000"> remove()</text>
<text text-anchor="start" x="5.5" y="-56" font-family="Helvetica,sans-Serif" font-size="10.00" fill="#000000"> len()</text>
<text text-anchor="start" x="5.5" y="-44" font-family="Helvetica,sans-Serif" font-size="10.00" fill="#000000"> exists()</text>
<text text-anchor="start" x="5.5" y="-32" font-family="Helvetica,sans-Serif" font-size="10.00" fill="#000000"> members()</text>
<text text-anchor="start" x="5.5" y="-20" font-family="Helvetica,sans-Serif" font-size="10.00" fill="#000000"> pop()</text>
<text text-anchor="start" x="5.5" y="-8" font-family="Helvetica,sans-Serif" font-size="10.00" fill="#000000"> randMember()</text>
</a>
</g>
</g>
<!-- object&#45;&gt;RedisSet -->
<g id="edge1" class="edge">
<title>object&#45;&gt;RedisSet</title>
<path fill="none" stroke="#000000" d="M39.5,-141.7612C39.5,-133.4172 39.5,-124.8016 39.5,-116.4142"/>
<polygon fill="#000000" stroke="#000000" points="36.0001,-141.7707 39.5,-151.7708 43.0001,-141.7708 36.0001,-141.7707"/>
</g>
</g>
</svg>
