<?xml version="1.0" encoding="UTF-8" standalone="no"?>
<!DOCTYPE svg PUBLIC "-//W3C//DTD SVG 1.1//EN"
 "http://www.w3.org/Graphics/SVG/1.1/DTD/svg11.dtd">
<!-- Generated by graphviz version 2.40.1 (20161225.0304)
 -->
<!-- Title: %0 Pages: 1 -->
<svg width="75pt" height="250pt"
 viewBox="0.00 0.00 75.00 250.00" xmlns="http://www.w3.org/2000/svg" xmlns:xlink="http://www.w3.org/1999/xlink">
<g id="graph0" class="graph" transform="scale(1 1) rotate(0) translate(4 246)">
<title>%0</title>
<polygon fill="#ffffff" stroke="transparent" points="-4,4 -4,-246 71,-246 71,4 -4,4"/>
<!-- object -->
<g id="node1" class="node">
<title>object</title>
<g id="a_node1"><a xlink:href="object.md" xlink:title="object">
<polygon fill="#ffffff" stroke="transparent" points="5,-150 5,-242 62,-242 62,-150 5,-150"/>
<polygon fill="none" stroke="#000000" points="5.5,-220 5.5,-242 62.5,-242 62.5,-220 5.5,-220"/>
<text text-anchor="start" x="20.6625" y="-228" font-family="Helvetica,sans-Serif" font-size="10.00" fill="#000000">object</text>
<polygon fill="none" stroke="#000000" points="5.5,-150 5.5,-220 62.5,-220 62.5,-150 5.5,-150"/>
<text text-anchor="start" x="10.5" y="-206" font-family="Helvetica,sans-Serif" font-size="10.00" fill="#000000"> dispose()</text>
<text text-anchor="start" x="10.5" y="-194" font-family="Helvetica,sans-Serif" font-size="10.00" fill="#000000"> equals()</text>
<text text-anchor="start" x="10.5" y="-182" font-family="Helvetica,sans-Serif" font-size="10.00" fill="#000000"> toString()</text>
<text text-anchor="start" x="10.5" y="-170" font-family="Helvetica,sans-Serif" font-size="10.00" fill="#000000"> toJSON()</text>
<text text-anchor="start" x="10.5" y="-158" font-family="Helvetica,sans-Serif" font-size="10.00" fill="#000000"> valueOf()</text>
</a>
</g>
</g>
<!-- Regex -->
<g id="node2" class="node">
<title>Regex</title>
<g id="a_node2"><a xlink:title="Regex">
<polygon fill="#d3d3d3" stroke="transparent" points="0,0 0,-114 67,-114 67,0 0,0"/>
<polygon fill="none" stroke="#000000" points=".5,-92 .5,-114 67.5,-114 67.5,-92 .5,-92"/>
<text text-anchor="start" x="19.552" y="-100" font-family="Helvetica,sans-Serif" font-size="10.00" fill="#000000">Regex</text>
<polygon fill="none" stroke="#000000" points=".5,-34 .5,-92 67.5,-92 67.5,-34 .5,-34"/>
<text text-anchor="start" x="5.5" y="-78" font-family="Helvetica,sans-Serif" font-size="10.00" fill="#000000"> lastIndex</text>
<text text-anchor="start" x="5.5" y="-66" font-family="Helvetica,sans-Serif" font-size="10.00" fill="#000000"> global</text>
<text text-anchor="start" x="5.5" y="-54" font-family="Helvetica,sans-Serif" font-size="10.00" fill="#000000"> ignoreCase</text>
<text text-anchor="start" x="5.5" y="-42" font-family="Helvetica,sans-Serif" font-size="10.00" fill="#000000"> multiline</text>
<polygon fill="none" stroke="#000000" points=".5,0 .5,-34 67.5,-34 67.5,0 .5,0"/>
<text text-anchor="start" x="5.5" y="-20" font-family="Helvetica,sans-Serif" font-size="10.00" fill="#000000"> exec()</text>
<text text-anchor="start" x="5.5" y="-8" font-family="Helvetica,sans-Serif" font-size="10.00" fill="#000000"> test()</text>
</a>
</g>
</g>
<!-- object&#45;&gt;Regex -->
<g id="edge1" class="edge">
<title>object&#45;&gt;Regex</title>
<path fill="none" stroke="#000000" d="M33.5,-139.6526C33.5,-131.2672 33.5,-122.6167 33.5,-114.2136"/>
<polygon fill="#000000" stroke="#000000" points="30.0001,-139.715 33.5,-149.715 37.0001,-139.715 30.0001,-139.715"/>
</g>
</g>
</svg>
