<?xml version="1.0" encoding="UTF-8" standalone="no"?>
<!DOCTYPE svg PUBLIC "-//W3C//DTD SVG 1.1//EN"
 "http://www.w3.org/Graphics/SVG/1.1/DTD/svg11.dtd">
<!-- Generated by graphviz version 2.40.1 (20161225.0304)
 -->
<!-- Title: %0 Pages: 1 -->
<svg width="89pt" height="376pt"
 viewBox="0.00 0.00 89.00 376.00" xmlns="http://www.w3.org/2000/svg" xmlns:xlink="http://www.w3.org/1999/xlink">
<g id="graph0" class="graph" transform="scale(1 1) rotate(0) translate(4 372)">
<title>%0</title>
<polygon fill="#ffffff" stroke="transparent" points="-4,4 -4,-372 85,-372 85,4 -4,4"/>
<!-- object -->
<g id="node1" class="node">
<title>object</title>
<g id="a_node1"><a xlink:href="object.md" xlink:title="object">
<polygon fill="#ffffff" stroke="transparent" points="12,-276 12,-368 69,-368 69,-276 12,-276"/>
<polygon fill="none" stroke="#000000" points="12.5,-346 12.5,-368 69.5,-368 69.5,-346 12.5,-346"/>
<text text-anchor="start" x="27.6625" y="-354" font-family="Helvetica,sans-Serif" font-size="10.00" fill="#000000">object</text>
<polygon fill="none" stroke="#000000" points="12.5,-276 12.5,-346 69.5,-346 69.5,-276 12.5,-276"/>
<text text-anchor="start" x="17.5" y="-332" font-family="Helvetica,sans-Serif" font-size="10.00" fill="#000000"> dispose()</text>
<text text-anchor="start" x="17.5" y="-320" font-family="Helvetica,sans-Serif" font-size="10.00" fill="#000000"> equals()</text>
<text text-anchor="start" x="17.5" y="-308" font-family="Helvetica,sans-Serif" font-size="10.00" fill="#000000"> toString()</text>
<text text-anchor="start" x="17.5" y="-296" font-family="Helvetica,sans-Serif" font-size="10.00" fill="#000000"> toJSON()</text>
<text text-anchor="start" x="17.5" y="-284" font-family="Helvetica,sans-Serif" font-size="10.00" fill="#000000"> valueOf()</text>
</a>
</g>
</g>
<!-- Handler -->
<g id="node2" class="node">
<title>Handler</title>
<g id="a_node2"><a xlink:href="Handler.md" xlink:title="Handler">
<polygon fill="#ffffff" stroke="transparent" points="0,-174 0,-240 81,-240 81,-174 0,-174"/>
<polygon fill="none" stroke="#000000" points=".5,-218 .5,-240 81.5,-240 81.5,-218 .5,-218"/>
<text text-anchor="start" x="23.4985" y="-226" font-family="Helvetica,sans-Serif" font-size="10.00" fill="#000000">Handler</text>
<polygon fill="none" stroke="#000000" points=".5,-196 .5,-218 81.5,-218 81.5,-196 .5,-196"/>
<text text-anchor="start" x="5.5" y="-204" font-family="Helvetica,sans-Serif" font-size="10.00" fill="#000000">  new Handler()</text>
<polygon fill="none" stroke="#000000" points=".5,-174 .5,-196 81.5,-196 81.5,-174 .5,-174"/>
<text text-anchor="start" x="5.5" y="-182" font-family="Helvetica,sans-Serif" font-size="10.00" fill="#000000"> invoke()</text>
</a>
</g>
</g>
<!-- object&#45;&gt;Handler -->
<g id="edge1" class="edge">
<title>object&#45;&gt;Handler</title>
<path fill="none" stroke="#000000" d="M40.5,-265.6502C40.5,-256.8735 40.5,-248.0612 40.5,-240.0314"/>
<polygon fill="#000000" stroke="#000000" points="37.0001,-265.8877 40.5,-275.8877 44.0001,-265.8878 37.0001,-265.8877"/>
</g>
<!-- Routing -->
<g id="node3" class="node">
<title>Routing</title>
<g id="a_node3"><a xlink:title="Routing">
<polygon fill="#d3d3d3" stroke="transparent" points="0,0 0,-138 81,-138 81,0 0,0"/>
<polygon fill="none" stroke="#000000" points=".5,-116 .5,-138 81.5,-138 81.5,-116 .5,-116"/>
<text text-anchor="start" x="23.7735" y="-124" font-family="Helvetica,sans-Serif" font-size="10.00" fill="#000000">Routing</text>
<polygon fill="none" stroke="#000000" points=".5,-94 .5,-116 81.5,-116 81.5,-94 .5,-94"/>
<text text-anchor="start" x="5.5" y="-102" font-family="Helvetica,sans-Serif" font-size="10.00" fill="#000000">  new Routing()</text>
<polygon fill="none" stroke="#000000" points=".5,0 .5,-94 81.5,-94 81.5,0 .5,0"/>
<text text-anchor="start" x="5.5" y="-80" font-family="Helvetica,sans-Serif" font-size="10.00" fill="#000000"> append()</text>
<text text-anchor="start" x="5.5" y="-68" font-family="Helvetica,sans-Serif" font-size="10.00" fill="#000000"> all()</text>
<text text-anchor="start" x="5.5" y="-56" font-family="Helvetica,sans-Serif" font-size="10.00" fill="#000000"> get()</text>
<text text-anchor="start" x="5.5" y="-44" font-family="Helvetica,sans-Serif" font-size="10.00" fill="#000000"> post()</text>
<text text-anchor="start" x="5.5" y="-32" font-family="Helvetica,sans-Serif" font-size="10.00" fill="#000000"> del()</text>
<text text-anchor="start" x="5.5" y="-20" font-family="Helvetica,sans-Serif" font-size="10.00" fill="#000000"> put()</text>
<text text-anchor="start" x="5.5" y="-8" font-family="Helvetica,sans-Serif" font-size="10.00" fill="#000000"> patch()</text>
</a>
</g>
</g>
<!-- Handler&#45;&gt;Routing -->
<g id="edge2" class="edge">
<title>Handler&#45;&gt;Routing</title>
<path fill="none" stroke="#000000" d="M40.5,-163.8956C40.5,-155.686 40.5,-146.9043 40.5,-138.12"/>
<polygon fill="#000000" stroke="#000000" points="37.0001,-163.9455 40.5,-173.9456 44.0001,-163.9456 37.0001,-163.9455"/>
</g>
</g>
</svg>
