<?xml version="1.0" encoding="UTF-8" standalone="no"?>
<!DOCTYPE svg PUBLIC "-//W3C//DTD SVG 1.1//EN"
 "http://www.w3.org/Graphics/SVG/1.1/DTD/svg11.dtd">
<!-- Generated by graphviz version 2.40.1 (20161225.0304)
 -->
<!-- Title: %0 Pages: 1 -->
<svg width="87pt" height="363pt"
 viewBox="0.00 0.00 86.78 363.00" xmlns="http://www.w3.org/2000/svg" xmlns:xlink="http://www.w3.org/1999/xlink">
<g id="graph0" class="graph" transform="scale(1 1) rotate(0) translate(4 359)">
<title>%0</title>
<polygon fill="#ffffff" stroke="transparent" points="-4,4 -4,-359 82.777,-359 82.777,4 -4,4"/>
<!-- object -->
<g id="node1" class="node">
<title>object</title>
<g id="a_node1"><a xlink:href="object.md" xlink:title="object">
<polygon fill="#ffffff" stroke="#000000" points="10.557,-266.5 10.557,-354.5 68.22,-354.5 68.22,-266.5 10.557,-266.5"/>
<text text-anchor="middle" x="39.3885" y="-341.5" font-family="Helvetica,sans-Serif" font-size="10.00" fill="#000000">object</text>
<polyline fill="none" stroke="#000000" points="10.557,-334.5 68.22,-334.5 "/>
<text text-anchor="start" x="18.557" y="-321.5" font-family="Helvetica,sans-Serif" font-size="10.00" fill="#000000">dispose()</text>
<text text-anchor="start" x="18.557" y="-309.5" font-family="Helvetica,sans-Serif" font-size="10.00" fill="#000000">equals()</text>
<text text-anchor="start" x="18.557" y="-297.5" font-family="Helvetica,sans-Serif" font-size="10.00" fill="#000000">toString()</text>
<text text-anchor="start" x="18.557" y="-285.5" font-family="Helvetica,sans-Serif" font-size="10.00" fill="#000000">toJSON()</text>
<text text-anchor="start" x="18.557" y="-273.5" font-family="Helvetica,sans-Serif" font-size="10.00" fill="#000000">valueOf()</text>
</a>
</g>
</g>
<!-- Handler -->
<g id="node2" class="node">
<title>Handler</title>
<g id="a_node2"><a xlink:href="Handler.md" xlink:title="Handler">
<polygon fill="#ffffff" stroke="#000000" points="0,-169.5 0,-229.5 78.777,-229.5 78.777,-169.5 0,-169.5"/>
<text text-anchor="middle" x="39.3885" y="-216.5" font-family="Helvetica,sans-Serif" font-size="10.00" fill="#000000">Handler</text>
<polyline fill="none" stroke="#000000" points="0,-209.5 78.777,-209.5 "/>
<text text-anchor="start" x="8" y="-196.5" font-family="Helvetica,sans-Serif" font-size="10.00" fill="#000000">new Handler()</text>
<polyline fill="none" stroke="#000000" points="0,-189.5 78.777,-189.5 "/>
<text text-anchor="start" x="8" y="-176.5" font-family="Helvetica,sans-Serif" font-size="10.00" fill="#000000">invoke()</text>
</a>
</g>
</g>
<!-- object&#45;&gt;Handler -->
<g id="edge1" class="edge">
<title>object&#45;&gt;Handler</title>
<path fill="none" stroke="#000000" d="M39.3885,-256.0719C39.3885,-246.9417 39.3885,-237.7729 39.3885,-229.5542"/>
<polygon fill="#000000" stroke="#000000" points="35.8886,-256.3109 39.3885,-266.3109 42.8886,-256.311 35.8886,-256.3109"/>
</g>
<!-- Routing -->
<g id="node3" class="node">
<title>Routing</title>
<g id="a_node3"><a xlink:title="Routing">
<polygon fill="#d3d3d3" stroke="#000000" points=".275,-.5 .275,-132.5 78.502,-132.5 78.502,-.5 .275,-.5"/>
<text text-anchor="middle" x="39.3885" y="-119.5" font-family="Helvetica,sans-Serif" font-size="10.00" fill="#000000">Routing</text>
<polyline fill="none" stroke="#000000" points=".275,-112.5 78.502,-112.5 "/>
<text text-anchor="start" x="8.275" y="-99.5" font-family="Helvetica,sans-Serif" font-size="10.00" fill="#000000">new Routing()</text>
<polyline fill="none" stroke="#000000" points=".275,-92.5 78.502,-92.5 "/>
<text text-anchor="start" x="8.275" y="-79.5" font-family="Helvetica,sans-Serif" font-size="10.00" fill="#000000">append()</text>
<text text-anchor="start" x="8.275" y="-67.5" font-family="Helvetica,sans-Serif" font-size="10.00" fill="#000000">all()</text>
<text text-anchor="start" x="8.275" y="-55.5" font-family="Helvetica,sans-Serif" font-size="10.00" fill="#000000">get()</text>
<text text-anchor="start" x="8.275" y="-43.5" font-family="Helvetica,sans-Serif" font-size="10.00" fill="#000000">post()</text>
<text text-anchor="start" x="8.275" y="-31.5" font-family="Helvetica,sans-Serif" font-size="10.00" fill="#000000">del()</text>
<text text-anchor="start" x="8.275" y="-19.5" font-family="Helvetica,sans-Serif" font-size="10.00" fill="#000000">put()</text>
<text text-anchor="start" x="8.275" y="-7.5" font-family="Helvetica,sans-Serif" font-size="10.00" fill="#000000">patch()</text>
</a>
</g>
</g>
<!-- Handler&#45;&gt;Routing -->
<g id="edge2" class="edge">
<title>Handler&#45;&gt;Routing</title>
<path fill="none" stroke="#000000" d="M39.3885,-159.1073C39.3885,-150.7273 39.3885,-141.6898 39.3885,-132.6606"/>
<polygon fill="#000000" stroke="#000000" points="35.8886,-159.3202 39.3885,-169.3202 42.8886,-159.3203 35.8886,-159.3202"/>
</g>
</g>
</svg>
