<?xml version="1.0" encoding="UTF-8" standalone="no"?>
<!DOCTYPE svg PUBLIC "-//W3C//DTD SVG 1.1//EN"
 "http://www.w3.org/Graphics/SVG/1.1/DTD/svg11.dtd">
<!-- Generated by graphviz version 2.40.1 (20161225.0304)
 -->
<!-- Title: %0 Pages: 1 -->
<svg width="95pt" height="296pt"
 viewBox="0.00 0.00 95.00 296.00" xmlns="http://www.w3.org/2000/svg" xmlns:xlink="http://www.w3.org/1999/xlink">
<g id="graph0" class="graph" transform="scale(1 1) rotate(0) translate(4 292)">
<title>%0</title>
<polygon fill="#ffffff" stroke="transparent" points="-4,4 -4,-292 91,-292 91,4 -4,4"/>
<!-- object -->
<g id="node1" class="node">
<title>object</title>
<g id="a_node1"><a xlink:href="object.md" xlink:title="object">
<polygon fill="#ffffff" stroke="transparent" points="15,-196 15,-288 72,-288 72,-196 15,-196"/>
<polygon fill="none" stroke="#000000" points="15.5,-266 15.5,-288 72.5,-288 72.5,-266 15.5,-266"/>
<text text-anchor="start" x="30.6625" y="-274" font-family="Helvetica,sans-Serif" font-size="10.00" fill="#000000">object</text>
<polygon fill="none" stroke="#000000" points="15.5,-196 15.5,-266 72.5,-266 72.5,-196 15.5,-196"/>
<text text-anchor="start" x="20.5" y="-252" font-family="Helvetica,sans-Serif" font-size="10.00" fill="#000000"> dispose()</text>
<text text-anchor="start" x="20.5" y="-240" font-family="Helvetica,sans-Serif" font-size="10.00" fill="#000000"> equals()</text>
<text text-anchor="start" x="20.5" y="-228" font-family="Helvetica,sans-Serif" font-size="10.00" fill="#000000"> toString()</text>
<text text-anchor="start" x="20.5" y="-216" font-family="Helvetica,sans-Serif" font-size="10.00" fill="#000000"> toJSON()</text>
<text text-anchor="start" x="20.5" y="-204" font-family="Helvetica,sans-Serif" font-size="10.00" fill="#000000"> valueOf()</text>
</a>
</g>
</g>
<!-- SandBox -->
<g id="node2" class="node">
<title>SandBox</title>
<g id="a_node2"><a xlink:title="SandBox">
<polygon fill="#d3d3d3" stroke="transparent" points="0,0 0,-160 87,-160 87,0 0,0"/>
<polygon fill="none" stroke="#000000" points=".5,-138 .5,-160 87.5,-160 87.5,-138 .5,-138"/>
<text text-anchor="start" x="23.713" y="-146" font-family="Helvetica,sans-Serif" font-size="10.00" fill="#000000">SandBox</text>
<polygon fill="none" stroke="#000000" points=".5,-116 .5,-138 87.5,-138 87.5,-116 .5,-116"/>
<text text-anchor="start" x="5.5" y="-124" font-family="Helvetica,sans-Serif" font-size="10.00" fill="#000000">  new SandBox()</text>
<polygon fill="none" stroke="#000000" points=".5,-94 .5,-116 87.5,-116 87.5,-94 .5,-94"/>
<text text-anchor="start" x="5.5" y="-102" font-family="Helvetica,sans-Serif" font-size="10.00" fill="#000000"> global</text>
<polygon fill="none" stroke="#000000" points=".5,0 .5,-94 87.5,-94 87.5,0 .5,0"/>
<text text-anchor="start" x="5.5" y="-80" font-family="Helvetica,sans-Serif" font-size="10.00" fill="#000000"> add()</text>
<text text-anchor="start" x="5.5" y="-68" font-family="Helvetica,sans-Serif" font-size="10.00" fill="#000000"> addScript()</text>
<text text-anchor="start" x="5.5" y="-56" font-family="Helvetica,sans-Serif" font-size="10.00" fill="#000000"> remove()</text>
<text text-anchor="start" x="5.5" y="-44" font-family="Helvetica,sans-Serif" font-size="10.00" fill="#000000"> clone()</text>
<text text-anchor="start" x="5.5" y="-32" font-family="Helvetica,sans-Serif" font-size="10.00" fill="#000000"> run()</text>
<text text-anchor="start" x="5.5" y="-20" font-family="Helvetica,sans-Serif" font-size="10.00" fill="#000000"> resolve()</text>
<text text-anchor="start" x="5.5" y="-8" font-family="Helvetica,sans-Serif" font-size="10.00" fill="#000000"> require()</text>
</a>
</g>
</g>
<!-- object&#45;&gt;SandBox -->
<g id="edge1" class="edge">
<title>object&#45;&gt;SandBox</title>
<path fill="none" stroke="#000000" d="M43.5,-185.4135C43.5,-177.2111 43.5,-168.6404 43.5,-160.0832"/>
<polygon fill="#000000" stroke="#000000" points="40.0001,-185.5773 43.5,-195.5773 47.0001,-185.5773 40.0001,-185.5773"/>
</g>
</g>
</svg>
