<?xml version="1.0" encoding="UTF-8" standalone="no"?>
<!DOCTYPE svg PUBLIC "-//W3C//DTD SVG 1.1//EN"
 "http://www.w3.org/Graphics/SVG/1.1/DTD/svg11.dtd">
<!-- Generated by graphviz version 2.40.1 (20161225.0304)
 -->
<!-- Title: %0 Pages: 1 -->
<svg width="192pt" height="504pt"
 viewBox="0.00 0.00 192.05 504.00" xmlns="http://www.w3.org/2000/svg" xmlns:xlink="http://www.w3.org/1999/xlink">
<g id="graph0" class="graph" transform="scale(1 1) rotate(0) translate(4 500)">
<title>%0</title>
<polygon fill="#ffffff" stroke="transparent" points="-4,4 -4,-500 188.0515,-500 188.0515,4 -4,4"/>
<!-- object -->
<g id="node1" class="node">
<title>object</title>
<g id="a_node1"><a xlink:href="object.md" xlink:title="object">
<polygon fill="#ffffff" stroke="#000000" points="48.1685,-407.5 48.1685,-495.5 105.8315,-495.5 105.8315,-407.5 48.1685,-407.5"/>
<text text-anchor="middle" x="77" y="-482.5" font-family="Helvetica,sans-Serif" font-size="10.00" fill="#000000">object</text>
<polyline fill="none" stroke="#000000" points="48.1685,-475.5 105.8315,-475.5 "/>
<text text-anchor="start" x="56.1685" y="-462.5" font-family="Helvetica,sans-Serif" font-size="10.00" fill="#000000">dispose()</text>
<text text-anchor="start" x="56.1685" y="-450.5" font-family="Helvetica,sans-Serif" font-size="10.00" fill="#000000">equals()</text>
<text text-anchor="start" x="56.1685" y="-438.5" font-family="Helvetica,sans-Serif" font-size="10.00" fill="#000000">toString()</text>
<text text-anchor="start" x="56.1685" y="-426.5" font-family="Helvetica,sans-Serif" font-size="10.00" fill="#000000">toJSON()</text>
<text text-anchor="start" x="56.1685" y="-414.5" font-family="Helvetica,sans-Serif" font-size="10.00" fill="#000000">valueOf()</text>
</a>
</g>
</g>
<!-- Stream -->
<g id="node2" class="node">
<title>Stream</title>
<g id="a_node2"><a xlink:href="Stream.md" xlink:title="Stream">
<polygon fill="#ffffff" stroke="#000000" points="49.278,-294.5 49.278,-370.5 104.722,-370.5 104.722,-294.5 49.278,-294.5"/>
<text text-anchor="middle" x="77" y="-357.5" font-family="Helvetica,sans-Serif" font-size="10.00" fill="#000000">Stream</text>
<polyline fill="none" stroke="#000000" points="49.278,-350.5 104.722,-350.5 "/>
<text text-anchor="start" x="57.278" y="-337.5" font-family="Helvetica,sans-Serif" font-size="10.00" fill="#000000">read()</text>
<text text-anchor="start" x="57.278" y="-325.5" font-family="Helvetica,sans-Serif" font-size="10.00" fill="#000000">write()</text>
<text text-anchor="start" x="57.278" y="-313.5" font-family="Helvetica,sans-Serif" font-size="10.00" fill="#000000">close()</text>
<text text-anchor="start" x="57.278" y="-301.5" font-family="Helvetica,sans-Serif" font-size="10.00" fill="#000000">copyTo()</text>
</a>
</g>
</g>
<!-- object&#45;&gt;Stream -->
<g id="edge1" class="edge">
<title>object&#45;&gt;Stream</title>
<path fill="none" stroke="#000000" d="M77,-397.1681C77,-388.1942 77,-379.0623 77,-370.5973"/>
<polygon fill="#000000" stroke="#000000" points="73.5001,-397.1888 77,-407.1888 80.5001,-397.1888 73.5001,-397.1888"/>
</g>
<!-- SeekableStream -->
<g id="node3" class="node">
<title>SeekableStream</title>
<g id="a_node3"><a xlink:title="SeekableStream">
<polygon fill="#d3d3d3" stroke="#000000" points="32.0465,-121.5 32.0465,-257.5 121.9535,-257.5 121.9535,-121.5 32.0465,-121.5"/>
<text text-anchor="middle" x="77" y="-244.5" font-family="Helvetica,sans-Serif" font-size="10.00" fill="#000000">SeekableStream</text>
<polyline fill="none" stroke="#000000" points="32.0465,-237.5 121.9535,-237.5 "/>
<text text-anchor="start" x="40.0465" y="-224.5" font-family="Helvetica,sans-Serif" font-size="10.00" fill="#000000">seek()</text>
<text text-anchor="start" x="40.0465" y="-212.5" font-family="Helvetica,sans-Serif" font-size="10.00" fill="#000000">tell()</text>
<text text-anchor="start" x="40.0465" y="-200.5" font-family="Helvetica,sans-Serif" font-size="10.00" fill="#000000">rewind()</text>
<text text-anchor="start" x="40.0465" y="-188.5" font-family="Helvetica,sans-Serif" font-size="10.00" fill="#000000">size()</text>
<text text-anchor="start" x="40.0465" y="-176.5" font-family="Helvetica,sans-Serif" font-size="10.00" fill="#000000">readAll()</text>
<text text-anchor="start" x="40.0465" y="-164.5" font-family="Helvetica,sans-Serif" font-size="10.00" fill="#000000">truncate()</text>
<text text-anchor="start" x="40.0465" y="-152.5" font-family="Helvetica,sans-Serif" font-size="10.00" fill="#000000">eof()</text>
<text text-anchor="start" x="40.0465" y="-140.5" font-family="Helvetica,sans-Serif" font-size="10.00" fill="#000000">flush()</text>
<text text-anchor="start" x="40.0465" y="-128.5" font-family="Helvetica,sans-Serif" font-size="10.00" fill="#000000">stat()</text>
</a>
</g>
</g>
<!-- Stream&#45;&gt;SeekableStream -->
<g id="edge2" class="edge">
<title>Stream&#45;&gt;SeekableStream</title>
<path fill="none" stroke="#000000" d="M77,-284.1057C77,-275.6194 77,-266.6465 77,-257.7411"/>
<polygon fill="#000000" stroke="#000000" points="73.5001,-284.1786 77,-294.1786 80.5001,-284.1787 73.5001,-284.1786"/>
</g>
<!-- File -->
<g id="node4" class="node">
<title>File</title>
<g id="a_node4"><a xlink:href="File.md" xlink:title="File">
<polygon fill="#ffffff" stroke="#000000" points="0,-6.5 0,-78.5 54,-78.5 54,-6.5 0,-6.5"/>
<text text-anchor="middle" x="26.832" y="-65.5" font-family="Helvetica,sans-Serif" font-size="10.00" fill="#000000">File</text>
<polyline fill="none" stroke="#000000" points="0,-58.5 53.664,-58.5 "/>
<text text-anchor="start" x="8" y="-45.5" font-family="Helvetica,sans-Serif" font-size="10.00" fill="#000000">name</text>
<text text-anchor="start" x="8" y="-33.5" font-family="Helvetica,sans-Serif" font-size="10.00" fill="#000000">fd</text>
<polyline fill="none" stroke="#000000" points="0,-26.5 53.664,-26.5 "/>
<text text-anchor="start" x="8" y="-13.5" font-family="Helvetica,sans-Serif" font-size="10.00" fill="#000000">chmod()</text>
</a>
</g>
</g>
<!-- SeekableStream&#45;&gt;File -->
<g id="edge3" class="edge">
<title>SeekableStream&#45;&gt;File</title>
<path fill="none" stroke="#000000" d="M50.4712,-111.5053C46.5641,-100.0184 42.7069,-88.6784 39.2834,-78.6132"/>
<polygon fill="#000000" stroke="#000000" points="47.2227,-112.8239 53.7565,-121.1642 53.8498,-110.5698 47.2227,-112.8239"/>
</g>
<!-- MemoryStream -->
<g id="node5" class="node">
<title>MemoryStream</title>
<g id="a_node5"><a xlink:href="MemoryStream.md" xlink:title="MemoryStream">
<polygon fill="#ffffff" stroke="#000000" points="71.9485,-.5 71.9485,-84.5 184.0515,-84.5 184.0515,-.5 71.9485,-.5"/>
<text text-anchor="middle" x="128" y="-71.5" font-family="Helvetica,sans-Serif" font-size="10.00" fill="#000000">MemoryStream</text>
<polyline fill="none" stroke="#000000" points="71.9485,-64.5 184.0515,-64.5 "/>
<text text-anchor="start" x="79.9485" y="-51.5" font-family="Helvetica,sans-Serif" font-size="10.00" fill="#000000">new MemoryStream()</text>
<polyline fill="none" stroke="#000000" points="71.9485,-44.5 184.0515,-44.5 "/>
<text text-anchor="start" x="79.9485" y="-31.5" font-family="Helvetica,sans-Serif" font-size="10.00" fill="#000000">setTime()</text>
<text text-anchor="start" x="79.9485" y="-19.5" font-family="Helvetica,sans-Serif" font-size="10.00" fill="#000000">clone()</text>
<text text-anchor="start" x="79.9485" y="-7.5" font-family="Helvetica,sans-Serif" font-size="10.00" fill="#000000">clear()</text>
</a>
</g>
</g>
<!-- SeekableStream&#45;&gt;MemoryStream -->
<g id="edge4" class="edge">
<title>SeekableStream&#45;&gt;MemoryStream</title>
<path fill="none" stroke="#000000" d="M104.0533,-111.5229C107.2598,-102.2805 110.4335,-93.1328 113.3705,-84.6674"/>
<polygon fill="#000000" stroke="#000000" points="100.6795,-110.5694 100.7083,-121.1642 107.2928,-112.8638 100.6795,-110.5694"/>
</g>
</g>
</svg>
