<?xml version="1.0" encoding="UTF-8" standalone="no"?>
<!DOCTYPE svg PUBLIC "-//W3C//DTD SVG 1.1//EN"
 "http://www.w3.org/Graphics/SVG/1.1/DTD/svg11.dtd">
<!-- Generated by graphviz version 2.40.1 (20161225.0304)
 -->
<!-- Title: %0 Pages: 1 -->
<svg width="75pt" height="310pt"
 viewBox="0.00 0.00 75.11 310.00" xmlns="http://www.w3.org/2000/svg" xmlns:xlink="http://www.w3.org/1999/xlink">
<g id="graph0" class="graph" transform="scale(1 1) rotate(0) translate(4 306)">
<title>%0</title>
<polygon fill="#ffffff" stroke="transparent" points="-4,4 -4,-306 71.11,-306 71.11,4 -4,4"/>
<!-- object -->
<g id="node1" class="node">
<title>object</title>
<g id="a_node1"><a xlink:href="object.md" xlink:title="object">
<polygon fill="#ffffff" stroke="#000000" points="4.7235,-213.5 4.7235,-301.5 62.3865,-301.5 62.3865,-213.5 4.7235,-213.5"/>
<text text-anchor="middle" x="33.555" y="-288.5" font-family="Helvetica,sans-Serif" font-size="10.00" fill="#000000">object</text>
<polyline fill="none" stroke="#000000" points="4.7235,-281.5 62.3865,-281.5 "/>
<text text-anchor="start" x="12.7235" y="-268.5" font-family="Helvetica,sans-Serif" font-size="10.00" fill="#000000">dispose()</text>
<text text-anchor="start" x="12.7235" y="-256.5" font-family="Helvetica,sans-Serif" font-size="10.00" fill="#000000">equals()</text>
<text text-anchor="start" x="12.7235" y="-244.5" font-family="Helvetica,sans-Serif" font-size="10.00" fill="#000000">toString()</text>
<text text-anchor="start" x="12.7235" y="-232.5" font-family="Helvetica,sans-Serif" font-size="10.00" fill="#000000">toJSON()</text>
<text text-anchor="start" x="12.7235" y="-220.5" font-family="Helvetica,sans-Serif" font-size="10.00" fill="#000000">valueOf()</text>
</a>
</g>
</g>
<!-- Smtp -->
<g id="node2" class="node">
<title>Smtp</title>
<g id="a_node2"><a xlink:title="Smtp">
<polygon fill="#d3d3d3" stroke="#000000" points="0,-.5 0,-176.5 67.11,-176.5 67.11,-.5 0,-.5"/>
<text text-anchor="middle" x="33.555" y="-163.5" font-family="Helvetica,sans-Serif" font-size="10.00" fill="#000000">Smtp</text>
<polyline fill="none" stroke="#000000" points="0,-156.5 67.11,-156.5 "/>
<text text-anchor="start" x="8" y="-143.5" font-family="Helvetica,sans-Serif" font-size="10.00" fill="#000000">new Smtp()</text>
<polyline fill="none" stroke="#000000" points="0,-136.5 67.11,-136.5 "/>
<text text-anchor="start" x="8" y="-123.5" font-family="Helvetica,sans-Serif" font-size="10.00" fill="#000000">timeout</text>
<text text-anchor="start" x="8" y="-111.5" font-family="Helvetica,sans-Serif" font-size="10.00" fill="#000000">socket</text>
<polyline fill="none" stroke="#000000" points="0,-104.5 67.11,-104.5 "/>
<text text-anchor="start" x="8" y="-91.5" font-family="Helvetica,sans-Serif" font-size="10.00" fill="#000000">connect()</text>
<text text-anchor="start" x="8" y="-79.5" font-family="Helvetica,sans-Serif" font-size="10.00" fill="#000000">command()</text>
<text text-anchor="start" x="8" y="-67.5" font-family="Helvetica,sans-Serif" font-size="10.00" fill="#000000">hello()</text>
<text text-anchor="start" x="8" y="-55.5" font-family="Helvetica,sans-Serif" font-size="10.00" fill="#000000">login()</text>
<text text-anchor="start" x="8" y="-43.5" font-family="Helvetica,sans-Serif" font-size="10.00" fill="#000000">from()</text>
<text text-anchor="start" x="8" y="-31.5" font-family="Helvetica,sans-Serif" font-size="10.00" fill="#000000">to()</text>
<text text-anchor="start" x="8" y="-19.5" font-family="Helvetica,sans-Serif" font-size="10.00" fill="#000000">data()</text>
<text text-anchor="start" x="8" y="-7.5" font-family="Helvetica,sans-Serif" font-size="10.00" fill="#000000">quit()</text>
</a>
</g>
</g>
<!-- object&#45;&gt;Smtp -->
<g id="edge1" class="edge">
<title>object&#45;&gt;Smtp</title>
<path fill="none" stroke="#000000" d="M33.555,-203.0622C33.555,-194.6261 33.555,-185.7304 33.555,-176.778"/>
<polygon fill="#000000" stroke="#000000" points="30.0551,-203.0972 33.555,-213.0972 37.0551,-203.0973 30.0551,-203.0972"/>
</g>
</g>
</svg>
