<?xml version="1.0" encoding="UTF-8" standalone="no"?>
<!DOCTYPE svg PUBLIC "-//W3C//DTD SVG 1.1//EN"
 "http://www.w3.org/Graphics/SVG/1.1/DTD/svg11.dtd">
<!-- Generated by graphviz version 2.40.1 (20161225.0304)
 -->
<!-- Title: %0 Pages: 1 -->
<svg width="93pt" height="262pt"
 viewBox="0.00 0.00 92.90 262.00" xmlns="http://www.w3.org/2000/svg" xmlns:xlink="http://www.w3.org/1999/xlink">
<g id="graph0" class="graph" transform="scale(1 1) rotate(0) translate(4 258)">
<title>%0</title>
<polygon fill="#ffffff" stroke="transparent" points="-4,4 -4,-258 88.904,-258 88.904,4 -4,4"/>
<!-- object -->
<g id="node1" class="node">
<title>object</title>
<g id="a_node1"><a xlink:href="object.md" xlink:title="object">
<polygon fill="#ffffff" stroke="#000000" points="13.6205,-165.5 13.6205,-253.5 71.2835,-253.5 71.2835,-165.5 13.6205,-165.5"/>
<text text-anchor="middle" x="42.452" y="-240.5" font-family="Helvetica,sans-Serif" font-size="10.00" fill="#000000">object</text>
<polyline fill="none" stroke="#000000" points="13.6205,-233.5 71.2835,-233.5 "/>
<text text-anchor="start" x="21.6205" y="-220.5" font-family="Helvetica,sans-Serif" font-size="10.00" fill="#000000">dispose()</text>
<text text-anchor="start" x="21.6205" y="-208.5" font-family="Helvetica,sans-Serif" font-size="10.00" fill="#000000">equals()</text>
<text text-anchor="start" x="21.6205" y="-196.5" font-family="Helvetica,sans-Serif" font-size="10.00" fill="#000000">toString()</text>
<text text-anchor="start" x="21.6205" y="-184.5" font-family="Helvetica,sans-Serif" font-size="10.00" fill="#000000">toJSON()</text>
<text text-anchor="start" x="21.6205" y="-172.5" font-family="Helvetica,sans-Serif" font-size="10.00" fill="#000000">valueOf()</text>
</a>
</g>
</g>
<!-- Stats -->
<g id="node2" class="node">
<title>Stats</title>
<g id="a_node2"><a xlink:title="Stats">
<polygon fill="#d3d3d3" stroke="#000000" points="0,-.5 0,-128.5 84.904,-128.5 84.904,-.5 0,-.5"/>
<text text-anchor="middle" x="42.452" y="-115.5" font-family="Helvetica,sans-Serif" font-size="10.00" fill="#000000">Stats</text>
<polyline fill="none" stroke="#000000" points="0,-108.5 84.904,-108.5 "/>
<text text-anchor="start" x="8" y="-95.5" font-family="Helvetica,sans-Serif" font-size="10.00" fill="#000000">new Stats()</text>
<polyline fill="none" stroke="#000000" points="0,-88.5 84.904,-88.5 "/>
<text text-anchor="start" x="8" y="-75.5" font-family="Helvetica,sans-Serif" font-size="10.00" fill="#000000">operator[String]</text>
<polyline fill="none" stroke="#000000" points="0,-68.5 84.904,-68.5 "/>
<text text-anchor="start" x="8" y="-55.5" font-family="Helvetica,sans-Serif" font-size="10.00" fill="#000000">inc()</text>
<text text-anchor="start" x="8" y="-43.5" font-family="Helvetica,sans-Serif" font-size="10.00" fill="#000000">dec()</text>
<text text-anchor="start" x="8" y="-31.5" font-family="Helvetica,sans-Serif" font-size="10.00" fill="#000000">add()</text>
<text text-anchor="start" x="8" y="-19.5" font-family="Helvetica,sans-Serif" font-size="10.00" fill="#000000">reset()</text>
<text text-anchor="start" x="8" y="-7.5" font-family="Helvetica,sans-Serif" font-size="10.00" fill="#000000">uptime()</text>
</a>
</g>
</g>
<!-- object&#45;&gt;Stats -->
<g id="edge1" class="edge">
<title>object&#45;&gt;Stats</title>
<path fill="none" stroke="#000000" d="M42.452,-155.2025C42.452,-146.5059 42.452,-137.4356 42.452,-128.5377"/>
<polygon fill="#000000" stroke="#000000" points="38.9521,-155.2073 42.452,-165.2073 45.9521,-155.2074 38.9521,-155.2073"/>
</g>
</g>
</svg>
