<?xml version="1.0" encoding="UTF-8" standalone="no"?>
<!DOCTYPE svg PUBLIC "-//W3C//DTD SVG 1.1//EN"
 "http://www.w3.org/Graphics/SVG/1.1/DTD/svg11.dtd">
<!-- Generated by graphviz version 2.40.1 (20161225.0304)
 -->
<!-- Title: %0 Pages: 1 -->
<svg width="65pt" height="180pt"
 viewBox="0.00 0.00 65.00 180.00" xmlns="http://www.w3.org/2000/svg" xmlns:xlink="http://www.w3.org/1999/xlink">
<g id="graph0" class="graph" transform="scale(1 1) rotate(0) translate(4 176)">
<title>%0</title>
<polygon fill="#ffffff" stroke="transparent" points="-4,4 -4,-176 61,-176 61,4 -4,4"/>
<!-- object -->
<g id="node1" class="node">
<title>object</title>
<g id="a_node1"><a xlink:href="object.md" xlink:title="object">
<polygon fill="#ffffff" stroke="transparent" points="0,-80 0,-172 57,-172 57,-80 0,-80"/>
<polygon fill="none" stroke="#000000" points=".5,-150 .5,-172 57.5,-172 57.5,-150 .5,-150"/>
<text text-anchor="start" x="15.6625" y="-158" font-family="Helvetica,sans-Serif" font-size="10.00" fill="#000000">object</text>
<polygon fill="none" stroke="#000000" points=".5,-80 .5,-150 57.5,-150 57.5,-80 .5,-80"/>
<text text-anchor="start" x="5.5" y="-136" font-family="Helvetica,sans-Serif" font-size="10.00" fill="#000000"> dispose()</text>
<text text-anchor="start" x="5.5" y="-124" font-family="Helvetica,sans-Serif" font-size="10.00" fill="#000000"> equals()</text>
<text text-anchor="start" x="5.5" y="-112" font-family="Helvetica,sans-Serif" font-size="10.00" fill="#000000"> toString()</text>
<text text-anchor="start" x="5.5" y="-100" font-family="Helvetica,sans-Serif" font-size="10.00" fill="#000000"> toJSON()</text>
<text text-anchor="start" x="5.5" y="-88" font-family="Helvetica,sans-Serif" font-size="10.00" fill="#000000"> valueOf()</text>
</a>
</g>
</g>
<!-- Timer -->
<g id="node2" class="node">
<title>Timer</title>
<g id="a_node2"><a xlink:title="Timer">
<polygon fill="#d3d3d3" stroke="transparent" points="6.5,0 6.5,-44 50.5,-44 50.5,0 6.5,0"/>
<polygon fill="none" stroke="#000000" points="6.5,-22 6.5,-44 50.5,-44 50.5,-22 6.5,-22"/>
<text text-anchor="start" x="15.7275" y="-30" font-family="Helvetica,sans-Serif" font-size="10.00" fill="#000000">Timer</text>
<polygon fill="none" stroke="#000000" points="6.5,0 6.5,-22 50.5,-22 50.5,0 6.5,0"/>
<text text-anchor="start" x="11.5" y="-8" font-family="Helvetica,sans-Serif" font-size="10.00" fill="#000000"> clear()</text>
</a>
</g>
</g>
<!-- object&#45;&gt;Timer -->
<g id="edge1" class="edge">
<title>object&#45;&gt;Timer</title>
<path fill="none" stroke="#000000" d="M28.5,-69.5912C28.5,-60.5835 28.5,-51.7536 28.5,-44.193"/>
<polygon fill="#000000" stroke="#000000" points="25.0001,-69.7784 28.5,-79.7784 32.0001,-69.7785 25.0001,-69.7784"/>
</g>
</g>
</svg>
