<?xml version="1.0" encoding="UTF-8" standalone="no"?>
<!DOCTYPE svg PUBLIC "-//W3C//DTD SVG 1.1//EN"
 "http://www.w3.org/Graphics/SVG/1.1/DTD/svg11.dtd">
<!-- Generated by graphviz version 2.40.1 (20161225.0304)
 -->
<!-- Title: %0 Pages: 1 -->
<svg width="127pt" height="487pt"
 viewBox="0.00 0.00 126.80 487.00" xmlns="http://www.w3.org/2000/svg" xmlns:xlink="http://www.w3.org/1999/xlink">
<g id="graph0" class="graph" transform="scale(1 1) rotate(0) translate(4 483)">
<title>%0</title>
<polygon fill="#ffffff" stroke="transparent" points="-4,4 -4,-483 122.801,-483 122.801,4 -4,4"/>
<!-- object -->
<g id="node1" class="node">
<title>object</title>
<g id="a_node1"><a xlink:href="object.md" xlink:title="object">
<polygon fill="#ffffff" stroke="#000000" points="30.569,-390.5 30.569,-478.5 88.232,-478.5 88.232,-390.5 30.569,-390.5"/>
<text text-anchor="middle" x="59.4005" y="-465.5" font-family="Helvetica,sans-Serif" font-size="10.00" fill="#000000">object</text>
<polyline fill="none" stroke="#000000" points="30.569,-458.5 88.232,-458.5 "/>
<text text-anchor="start" x="38.569" y="-445.5" font-family="Helvetica,sans-Serif" font-size="10.00" fill="#000000">dispose()</text>
<text text-anchor="start" x="38.569" y="-433.5" font-family="Helvetica,sans-Serif" font-size="10.00" fill="#000000">equals()</text>
<text text-anchor="start" x="38.569" y="-421.5" font-family="Helvetica,sans-Serif" font-size="10.00" fill="#000000">toString()</text>
<text text-anchor="start" x="38.569" y="-409.5" font-family="Helvetica,sans-Serif" font-size="10.00" fill="#000000">toJSON()</text>
<text text-anchor="start" x="38.569" y="-397.5" font-family="Helvetica,sans-Serif" font-size="10.00" fill="#000000">valueOf()</text>
</a>
</g>
</g>
<!-- EventEmitter -->
<g id="node2" class="node">
<title>EventEmitter</title>
<g id="a_node2"><a xlink:href="EventEmitter.md" xlink:title="EventEmitter">
<polygon fill="#ffffff" stroke="#000000" points="0,-117.5 0,-353.5 118.801,-353.5 118.801,-117.5 0,-117.5"/>
<text text-anchor="middle" x="59.4005" y="-340.5" font-family="Helvetica,sans-Serif" font-size="10.00" fill="#000000">EventEmitter</text>
<polyline fill="none" stroke="#000000" points="0,-333.5 118.801,-333.5 "/>
<text text-anchor="start" x="8" y="-320.5" font-family="Helvetica,sans-Serif" font-size="10.00" fill="#000000">new EventEmitter()</text>
<polyline fill="none" stroke="#000000" points="0,-313.5 118.801,-313.5 "/>
<text text-anchor="start" x="8" y="-300.5" font-family="Helvetica,sans-Serif" font-size="10.00" fill="#000000">defaultMaxListeners</text>
<polyline fill="none" stroke="#000000" points="0,-293.5 118.801,-293.5 "/>
<text text-anchor="start" x="8" y="-280.5" font-family="Helvetica,sans-Serif" font-size="10.00" fill="#000000">on()</text>
<text text-anchor="start" x="8" y="-268.5" font-family="Helvetica,sans-Serif" font-size="10.00" fill="#000000">addListener()</text>
<text text-anchor="start" x="8" y="-256.5" font-family="Helvetica,sans-Serif" font-size="10.00" fill="#000000">prependListener()</text>
<text text-anchor="start" x="8" y="-244.5" font-family="Helvetica,sans-Serif" font-size="10.00" fill="#000000">once()</text>
<text text-anchor="start" x="8" y="-232.5" font-family="Helvetica,sans-Serif" font-size="10.00" fill="#000000">prependOnceListener()</text>
<text text-anchor="start" x="8" y="-220.5" font-family="Helvetica,sans-Serif" font-size="10.00" fill="#000000">off()</text>
<text text-anchor="start" x="8" y="-208.5" font-family="Helvetica,sans-Serif" font-size="10.00" fill="#000000">removeListener()</text>
<text text-anchor="start" x="8" y="-196.5" font-family="Helvetica,sans-Serif" font-size="10.00" fill="#000000">removeAllListeners()</text>
<text text-anchor="start" x="8" y="-184.5" font-family="Helvetica,sans-Serif" font-size="10.00" fill="#000000">setMaxListeners()</text>
<text text-anchor="start" x="8" y="-172.5" font-family="Helvetica,sans-Serif" font-size="10.00" fill="#000000">getMaxListeners()</text>
<text text-anchor="start" x="8" y="-160.5" font-family="Helvetica,sans-Serif" font-size="10.00" fill="#000000">listeners()</text>
<text text-anchor="start" x="8" y="-148.5" font-family="Helvetica,sans-Serif" font-size="10.00" fill="#000000">listenerCount()</text>
<text text-anchor="start" x="8" y="-136.5" font-family="Helvetica,sans-Serif" font-size="10.00" fill="#000000">eventNames()</text>
<text text-anchor="start" x="8" y="-124.5" font-family="Helvetica,sans-Serif" font-size="10.00" fill="#000000">emit()</text>
</a>
</g>
</g>
<!-- object&#45;&gt;EventEmitter -->
<g id="edge1" class="edge">
<title>object&#45;&gt;EventEmitter</title>
<path fill="none" stroke="#000000" d="M59.4005,-380.1104C59.4005,-371.7939 59.4005,-362.9442 59.4005,-353.8773"/>
<polygon fill="#000000" stroke="#000000" points="55.9006,-380.3354 59.4005,-390.3355 62.9006,-380.3355 55.9006,-380.3354"/>
</g>
<!-- Worker -->
<g id="node3" class="node">
<title>Worker</title>
<g id="a_node3"><a xlink:title="Worker">
<polygon fill="#d3d3d3" stroke="#000000" points="18.3405,-.5 18.3405,-80.5 100.4605,-80.5 100.4605,-.5 18.3405,-.5"/>
<text text-anchor="middle" x="59.4005" y="-67.5" font-family="Helvetica,sans-Serif" font-size="10.00" fill="#000000">Worker</text>
<polyline fill="none" stroke="#000000" points="18.3405,-60.5 100.4605,-60.5 "/>
<text text-anchor="start" x="26.3405" y="-47.5" font-family="Helvetica,sans-Serif" font-size="10.00" fill="#000000">new Worker()</text>
<polyline fill="none" stroke="#000000" points="18.3405,-40.5 100.4605,-40.5 "/>
<text text-anchor="start" x="26.3405" y="-27.5" font-family="Helvetica,sans-Serif" font-size="10.00" fill="#000000">onmessage</text>
<polyline fill="none" stroke="#000000" points="18.3405,-20.5 100.4605,-20.5 "/>
<text text-anchor="start" x="26.3405" y="-7.5" font-family="Helvetica,sans-Serif" font-size="10.00" fill="#000000">postMessage()</text>
</a>
</g>
</g>
<!-- EventEmitter&#45;&gt;Worker -->
<g id="edge2" class="edge">
<title>EventEmitter&#45;&gt;Worker</title>
<path fill="none" stroke="#000000" d="M59.4005,-107.2662C59.4005,-97.7816 59.4005,-88.7292 59.4005,-80.522"/>
<polygon fill="#000000" stroke="#000000" points="55.9006,-107.2892 59.4005,-117.2892 62.9006,-107.2893 55.9006,-107.2892"/>
</g>
</g>
</svg>
