<?xml version="1.0" encoding="UTF-8" standalone="no"?>
<!DOCTYPE svg PUBLIC "-//W3C//DTD SVG 1.1//EN"
 "http://www.w3.org/Graphics/SVG/1.1/DTD/svg11.dtd">
<!-- Generated by graphviz version 2.40.1 (20161225.0304)
 -->
<!-- Title: %0 Pages: 1 -->
<svg width="126pt" height="504pt"
 viewBox="0.00 0.00 126.00 504.00" xmlns="http://www.w3.org/2000/svg" xmlns:xlink="http://www.w3.org/1999/xlink">
<g id="graph0" class="graph" transform="scale(1 1) rotate(0) translate(4 500)">
<title>%0</title>
<polygon fill="#ffffff" stroke="transparent" points="-4,4 -4,-500 122,-500 122,4 -4,4"/>
<!-- object -->
<g id="node1" class="node">
<title>object</title>
<g id="a_node1"><a xlink:href="object.md" xlink:title="object">
<polygon fill="#ffffff" stroke="transparent" points="30.5,-404 30.5,-496 87.5,-496 87.5,-404 30.5,-404"/>
<polygon fill="none" stroke="#000000" points="31,-474 31,-496 88,-496 88,-474 31,-474"/>
<text text-anchor="start" x="46.1625" y="-482" font-family="Helvetica,sans-Serif" font-size="10.00" fill="#000000">object</text>
<polygon fill="none" stroke="#000000" points="31,-404 31,-474 88,-474 88,-404 31,-404"/>
<text text-anchor="start" x="36" y="-460" font-family="Helvetica,sans-Serif" font-size="10.00" fill="#000000"> dispose()</text>
<text text-anchor="start" x="36" y="-448" font-family="Helvetica,sans-Serif" font-size="10.00" fill="#000000"> equals()</text>
<text text-anchor="start" x="36" y="-436" font-family="Helvetica,sans-Serif" font-size="10.00" fill="#000000"> toString()</text>
<text text-anchor="start" x="36" y="-424" font-family="Helvetica,sans-Serif" font-size="10.00" fill="#000000"> toJSON()</text>
<text text-anchor="start" x="36" y="-412" font-family="Helvetica,sans-Serif" font-size="10.00" fill="#000000"> valueOf()</text>
</a>
</g>
</g>
<!-- EventEmitter -->
<g id="node2" class="node">
<title>EventEmitter</title>
<g id="a_node2"><a xlink:href="EventEmitter.md" xlink:title="EventEmitter">
<polygon fill="#ffffff" stroke="transparent" points="0,-124 0,-368 118,-368 118,-124 0,-124"/>
<polygon fill="none" stroke="#000000" points="0,-346 0,-368 118,-368 118,-346 0,-346"/>
<text text-anchor="start" x="30.3855" y="-354" font-family="Helvetica,sans-Serif" font-size="10.00" fill="#000000">EventEmitter</text>
<polygon fill="none" stroke="#000000" points="0,-324 0,-346 118,-346 118,-324 0,-324"/>
<text text-anchor="start" x="5" y="-332" font-family="Helvetica,sans-Serif" font-size="10.00" fill="#000000">  new EventEmitter()</text>
<polygon fill="none" stroke="#000000" points="0,-302 0,-324 118,-324 118,-302 0,-302"/>
<text text-anchor="start" x="5" y="-310" font-family="Helvetica,sans-Serif" font-size="10.00" fill="#000000"> defaultMaxListeners</text>
<polygon fill="none" stroke="#000000" points="0,-124 0,-302 118,-302 118,-124 0,-124"/>
<text text-anchor="start" x="5" y="-288" font-family="Helvetica,sans-Serif" font-size="10.00" fill="#000000"> on()</text>
<text text-anchor="start" x="5" y="-276" font-family="Helvetica,sans-Serif" font-size="10.00" fill="#000000"> addListener()</text>
<text text-anchor="start" x="5" y="-264" font-family="Helvetica,sans-Serif" font-size="10.00" fill="#000000"> prependListener()</text>
<text text-anchor="start" x="5" y="-252" font-family="Helvetica,sans-Serif" font-size="10.00" fill="#000000"> once()</text>
<text text-anchor="start" x="5" y="-240" font-family="Helvetica,sans-Serif" font-size="10.00" fill="#000000"> prependOnceListener()</text>
<text text-anchor="start" x="5" y="-228" font-family="Helvetica,sans-Serif" font-size="10.00" fill="#000000"> off()</text>
<text text-anchor="start" x="5" y="-216" font-family="Helvetica,sans-Serif" font-size="10.00" fill="#000000"> removeListener()</text>
<text text-anchor="start" x="5" y="-204" font-family="Helvetica,sans-Serif" font-size="10.00" fill="#000000"> removeAllListeners()</text>
<text text-anchor="start" x="5" y="-192" font-family="Helvetica,sans-Serif" font-size="10.00" fill="#000000"> setMaxListeners()</text>
<text text-anchor="start" x="5" y="-180" font-family="Helvetica,sans-Serif" font-size="10.00" fill="#000000"> getMaxListeners()</text>
<text text-anchor="start" x="5" y="-168" font-family="Helvetica,sans-Serif" font-size="10.00" fill="#000000"> listeners()</text>
<text text-anchor="start" x="5" y="-156" font-family="Helvetica,sans-Serif" font-size="10.00" fill="#000000"> listenerCount()</text>
<text text-anchor="start" x="5" y="-144" font-family="Helvetica,sans-Serif" font-size="10.00" fill="#000000"> eventNames()</text>
<text text-anchor="start" x="5" y="-132" font-family="Helvetica,sans-Serif" font-size="10.00" fill="#000000"> emit()</text>
</a>
</g>
</g>
<!-- object&#45;&gt;EventEmitter -->
<g id="edge1" class="edge">
<title>object&#45;&gt;EventEmitter</title>
<path fill="none" stroke="#000000" d="M59,-393.9235C59,-385.7711 59,-377.1241 59,-368.2645"/>
<polygon fill="#000000" stroke="#000000" points="55.5001,-393.964 59,-403.9641 62.5001,-393.9641 55.5001,-393.964"/>
</g>
<!-- Worker -->
<g id="node3" class="node">
<title>Worker</title>
<g id="a_node3"><a xlink:title="Worker">
<polygon fill="#d3d3d3" stroke="transparent" points="18,0 18,-88 100,-88 100,0 18,0"/>
<polygon fill="none" stroke="#000000" points="18,-66 18,-88 100,-88 100,-66 18,-66"/>
<text text-anchor="start" x="42.8925" y="-74" font-family="Helvetica,sans-Serif" font-size="10.00" fill="#000000">Worker</text>
<polygon fill="none" stroke="#000000" points="18,-44 18,-66 100,-66 100,-44 18,-44"/>
<text text-anchor="start" x="23" y="-52" font-family="Helvetica,sans-Serif" font-size="10.00" fill="#000000">  new Worker()</text>
<polygon fill="none" stroke="#000000" points="18,-22 18,-44 100,-44 100,-22 18,-22"/>
<text text-anchor="start" x="23" y="-30" font-family="Helvetica,sans-Serif" font-size="10.00" fill="#000000"> onmessage</text>
<polygon fill="none" stroke="#000000" points="18,0 18,-22 100,-22 100,0 18,0"/>
<text text-anchor="start" x="23" y="-8" font-family="Helvetica,sans-Serif" font-size="10.00" fill="#000000"> postMessage()</text>
</a>
</g>
</g>
<!-- EventEmitter&#45;&gt;Worker -->
<g id="edge2" class="edge">
<title>EventEmitter&#45;&gt;Worker</title>
<path fill="none" stroke="#000000" d="M59,-113.5967C59,-104.6501 59,-96.0686 59,-88.1737"/>
<polygon fill="#000000" stroke="#000000" points="55.5001,-113.8357 59,-123.8357 62.5001,-113.8358 55.5001,-113.8357"/>
</g>
</g>
</svg>
