<?xml version="1.0" encoding="UTF-8" standalone="no"?>
<!DOCTYPE svg PUBLIC "-//W3C//DTD SVG 1.1//EN"
 "http://www.w3.org/Graphics/SVG/1.1/DTD/svg11.dtd">
<!-- Generated by graphviz version 2.40.1 (20161225.0304)
 -->
<!-- Title: %0 Pages: 1 -->
<svg width="96pt" height="284pt"
 viewBox="0.00 0.00 96.00 284.00" xmlns="http://www.w3.org/2000/svg" xmlns:xlink="http://www.w3.org/1999/xlink">
<g id="graph0" class="graph" transform="scale(1 1) rotate(0) translate(4 280)">
<title>%0</title>
<polygon fill="#ffffff" stroke="transparent" points="-4,4 -4,-280 92,-280 92,4 -4,4"/>
<!-- object -->
<g id="node1" class="node">
<title>object</title>
<g id="a_node1"><a xlink:href="object.md" xlink:title="object">
<polygon fill="#ffffff" stroke="transparent" points="15.5,-184 15.5,-276 72.5,-276 72.5,-184 15.5,-184"/>
<polygon fill="none" stroke="#000000" points="16,-254 16,-276 73,-276 73,-254 16,-254"/>
<text text-anchor="start" x="31.1625" y="-262" font-family="Helvetica,sans-Serif" font-size="10.00" fill="#000000">object</text>
<polygon fill="none" stroke="#000000" points="16,-184 16,-254 73,-254 73,-184 16,-184"/>
<text text-anchor="start" x="21" y="-240" font-family="Helvetica,sans-Serif" font-size="10.00" fill="#000000"> dispose()</text>
<text text-anchor="start" x="21" y="-228" font-family="Helvetica,sans-Serif" font-size="10.00" fill="#000000"> equals()</text>
<text text-anchor="start" x="21" y="-216" font-family="Helvetica,sans-Serif" font-size="10.00" fill="#000000"> toString()</text>
<text text-anchor="start" x="21" y="-204" font-family="Helvetica,sans-Serif" font-size="10.00" fill="#000000"> toJSON()</text>
<text text-anchor="start" x="21" y="-192" font-family="Helvetica,sans-Serif" font-size="10.00" fill="#000000"> valueOf()</text>
</a>
</g>
</g>
<!-- X509Req -->
<g id="node2" class="node">
<title>X509Req</title>
<g id="a_node2"><a xlink:title="X509Req">
<polygon fill="#d3d3d3" stroke="transparent" points="0,0 0,-148 88,-148 88,0 0,0"/>
<polygon fill="none" stroke="#000000" points="0,-126 0,-148 88,-148 88,-126 0,-126"/>
<text text-anchor="start" x="23.1585" y="-134" font-family="Helvetica,sans-Serif" font-size="10.00" fill="#000000">X509Req</text>
<polygon fill="none" stroke="#000000" points="0,-104 0,-126 88,-126 88,-104 0,-104"/>
<text text-anchor="start" x="5" y="-112" font-family="Helvetica,sans-Serif" font-size="10.00" fill="#000000">  new X509Req()</text>
<polygon fill="none" stroke="#000000" points="0,-70 0,-104 88,-104 88,-70 0,-70"/>
<text text-anchor="start" x="5" y="-90" font-family="Helvetica,sans-Serif" font-size="10.00" fill="#000000"> subject</text>
<text text-anchor="start" x="5" y="-78" font-family="Helvetica,sans-Serif" font-size="10.00" fill="#000000"> publicKey</text>
<polygon fill="none" stroke="#000000" points="0,0 0,-70 88,-70 88,0 0,0"/>
<text text-anchor="start" x="5" y="-56" font-family="Helvetica,sans-Serif" font-size="10.00" fill="#000000"> load()</text>
<text text-anchor="start" x="5" y="-44" font-family="Helvetica,sans-Serif" font-size="10.00" fill="#000000"> loadFile()</text>
<text text-anchor="start" x="5" y="-32" font-family="Helvetica,sans-Serif" font-size="10.00" fill="#000000"> exportPem()</text>
<text text-anchor="start" x="5" y="-20" font-family="Helvetica,sans-Serif" font-size="10.00" fill="#000000"> exportDer()</text>
<text text-anchor="start" x="5" y="-8" font-family="Helvetica,sans-Serif" font-size="10.00" fill="#000000"> sign()</text>
</a>
</g>
</g>
<!-- object&#45;&gt;X509Req -->
<g id="edge1" class="edge">
<title>object&#45;&gt;X509Req</title>
<path fill="none" stroke="#000000" d="M44,-173.455C44,-165.2637 44,-156.7302 44,-148.2558"/>
<polygon fill="#000000" stroke="#000000" points="40.5001,-173.6172 44,-183.6172 47.5001,-173.6173 40.5001,-173.6172"/>
</g>
</g>
</svg>
