<?xml version="1.0" encoding="UTF-8" standalone="no"?>
<!DOCTYPE svg PUBLIC "-//W3C//DTD SVG 1.1//EN"
 "http://www.w3.org/Graphics/SVG/1.1/DTD/svg11.dtd">
<!-- Generated by graphviz version 2.40.1 (20161225.0304)
 -->
<!-- Title: %0 Pages: 1 -->
<svg width="93pt" height="246pt"
 viewBox="0.00 0.00 92.90 246.00" xmlns="http://www.w3.org/2000/svg" xmlns:xlink="http://www.w3.org/1999/xlink">
<g id="graph0" class="graph" transform="scale(1 1) rotate(0) translate(4 242)">
<title>%0</title>
<polygon fill="#ffffff" stroke="transparent" points="-4,4 -4,-242 88.9,-242 88.9,4 -4,4"/>
<!-- object -->
<g id="node1" class="node">
<title>object</title>
<g id="a_node1"><a xlink:href="object.md" xlink:title="object">
<polygon fill="#ffffff" stroke="#000000" points="13.6185,-149.5 13.6185,-237.5 71.2815,-237.5 71.2815,-149.5 13.6185,-149.5"/>
<text text-anchor="middle" x="42.45" y="-224.5" font-family="Helvetica,sans-Serif" font-size="10.00" fill="#000000">object</text>
<polyline fill="none" stroke="#000000" points="13.6185,-217.5 71.2815,-217.5 "/>
<text text-anchor="start" x="21.6185" y="-204.5" font-family="Helvetica,sans-Serif" font-size="10.00" fill="#000000">dispose()</text>
<text text-anchor="start" x="21.6185" y="-192.5" font-family="Helvetica,sans-Serif" font-size="10.00" fill="#000000">equals()</text>
<text text-anchor="start" x="21.6185" y="-180.5" font-family="Helvetica,sans-Serif" font-size="10.00" fill="#000000">toString()</text>
<text text-anchor="start" x="21.6185" y="-168.5" font-family="Helvetica,sans-Serif" font-size="10.00" fill="#000000">toJSON()</text>
<text text-anchor="start" x="21.6185" y="-156.5" font-family="Helvetica,sans-Serif" font-size="10.00" fill="#000000">valueOf()</text>
</a>
</g>
</g>
<!-- XmlAttr -->
<g id="node2" class="node">
<title>XmlAttr</title>
<g id="a_node2"><a xlink:title="XmlAttr">
<polygon fill="#d3d3d3" stroke="#000000" points="0,-.5 0,-112.5 84.9,-112.5 84.9,-.5 0,-.5"/>
<text text-anchor="middle" x="42.45" y="-99.5" font-family="Helvetica,sans-Serif" font-size="10.00" fill="#000000">XmlAttr</text>
<polyline fill="none" stroke="#000000" points="0,-92.5 84.9,-92.5 "/>
<text text-anchor="start" x="8" y="-79.5" font-family="Helvetica,sans-Serif" font-size="10.00" fill="#000000">localName</text>
<text text-anchor="start" x="8" y="-67.5" font-family="Helvetica,sans-Serif" font-size="10.00" fill="#000000">value</text>
<text text-anchor="start" x="8" y="-55.5" font-family="Helvetica,sans-Serif" font-size="10.00" fill="#000000">name</text>
<text text-anchor="start" x="8" y="-43.5" font-family="Helvetica,sans-Serif" font-size="10.00" fill="#000000">namespaceURI</text>
<text text-anchor="start" x="8" y="-31.5" font-family="Helvetica,sans-Serif" font-size="10.00" fill="#000000">prefix</text>
<text text-anchor="start" x="8" y="-19.5" font-family="Helvetica,sans-Serif" font-size="10.00" fill="#000000">nodeName</text>
<text text-anchor="start" x="8" y="-7.5" font-family="Helvetica,sans-Serif" font-size="10.00" fill="#000000">nodeValue</text>
</a>
</g>
</g>
<!-- object&#45;&gt;XmlAttr -->
<g id="edge1" class="edge">
<title>object&#45;&gt;XmlAttr</title>
<path fill="none" stroke="#000000" d="M42.45,-139.2743C42.45,-130.4908 42.45,-121.3795 42.45,-112.5536"/>
<polygon fill="#000000" stroke="#000000" points="38.9501,-139.3982 42.45,-149.3982 45.9501,-139.3983 38.9501,-139.3982"/>
</g>
</g>
</svg>
