<?xml version="1.0" encoding="UTF-8" standalone="no"?>
<!DOCTYPE svg PUBLIC "-//W3C//DTD SVG 1.1//EN"
 "http://www.w3.org/Graphics/SVG/1.1/DTD/svg11.dtd">
<!-- Generated by graphviz version 2.40.1 (20161225.0304)
 -->
<!-- Title: %0 Pages: 1 -->
<svg width="93pt" height="252pt"
 viewBox="0.00 0.00 93.00 252.00" xmlns="http://www.w3.org/2000/svg" xmlns:xlink="http://www.w3.org/1999/xlink">
<g id="graph0" class="graph" transform="scale(1 1) rotate(0) translate(4 248)">
<title>%0</title>
<polygon fill="#ffffff" stroke="transparent" points="-4,4 -4,-248 89,-248 89,4 -4,4"/>
<!-- object -->
<g id="node1" class="node">
<title>object</title>
<g id="a_node1"><a xlink:href="object.md" xlink:title="object">
<polygon fill="#ffffff" stroke="transparent" points="14,-152 14,-244 71,-244 71,-152 14,-152"/>
<polygon fill="none" stroke="#000000" points="14.5,-222 14.5,-244 71.5,-244 71.5,-222 14.5,-222"/>
<text text-anchor="start" x="29.6625" y="-230" font-family="Helvetica,sans-Serif" font-size="10.00" fill="#000000">object</text>
<polygon fill="none" stroke="#000000" points="14.5,-152 14.5,-222 71.5,-222 71.5,-152 14.5,-152"/>
<text text-anchor="start" x="19.5" y="-208" font-family="Helvetica,sans-Serif" font-size="10.00" fill="#000000"> dispose()</text>
<text text-anchor="start" x="19.5" y="-196" font-family="Helvetica,sans-Serif" font-size="10.00" fill="#000000"> equals()</text>
<text text-anchor="start" x="19.5" y="-184" font-family="Helvetica,sans-Serif" font-size="10.00" fill="#000000"> toString()</text>
<text text-anchor="start" x="19.5" y="-172" font-family="Helvetica,sans-Serif" font-size="10.00" fill="#000000"> toJSON()</text>
<text text-anchor="start" x="19.5" y="-160" font-family="Helvetica,sans-Serif" font-size="10.00" fill="#000000"> valueOf()</text>
</a>
</g>
</g>
<!-- XmlAttr -->
<g id="node2" class="node">
<title>XmlAttr</title>
<g id="a_node2"><a xlink:title="XmlAttr">
<polygon fill="#d3d3d3" stroke="transparent" points="0,0 0,-116 85,-116 85,0 0,0"/>
<polygon fill="none" stroke="#000000" points=".5,-94 .5,-116 85.5,-116 85.5,-94 .5,-94"/>
<text text-anchor="start" x="26.6135" y="-102" font-family="Helvetica,sans-Serif" font-size="10.00" fill="#000000">XmlAttr</text>
<polygon fill="none" stroke="#000000" points=".5,0 .5,-94 85.5,-94 85.5,0 .5,0"/>
<text text-anchor="start" x="5.5" y="-80" font-family="Helvetica,sans-Serif" font-size="10.00" fill="#000000"> localName</text>
<text text-anchor="start" x="5.5" y="-68" font-family="Helvetica,sans-Serif" font-size="10.00" fill="#000000"> value</text>
<text text-anchor="start" x="5.5" y="-56" font-family="Helvetica,sans-Serif" font-size="10.00" fill="#000000"> name</text>
<text text-anchor="start" x="5.5" y="-44" font-family="Helvetica,sans-Serif" font-size="10.00" fill="#000000"> namespaceURI</text>
<text text-anchor="start" x="5.5" y="-32" font-family="Helvetica,sans-Serif" font-size="10.00" fill="#000000"> prefix</text>
<text text-anchor="start" x="5.5" y="-20" font-family="Helvetica,sans-Serif" font-size="10.00" fill="#000000"> nodeName</text>
<text text-anchor="start" x="5.5" y="-8" font-family="Helvetica,sans-Serif" font-size="10.00" fill="#000000"> nodeValue</text>
</a>
</g>
</g>
<!-- object&#45;&gt;XmlAttr -->
<g id="edge1" class="edge">
<title>object&#45;&gt;XmlAttr</title>
<path fill="none" stroke="#000000" d="M42.5,-141.7612C42.5,-133.4172 42.5,-124.8016 42.5,-116.4142"/>
<polygon fill="#000000" stroke="#000000" points="39.0001,-141.7707 42.5,-151.7708 46.0001,-141.7708 39.0001,-141.7707"/>
</g>
</g>
</svg>
