<?xml version="1.0" encoding="UTF-8" standalone="no"?>
<!DOCTYPE svg PUBLIC "-//W3C//DTD SVG 1.1//EN"
 "http://www.w3.org/Graphics/SVG/1.1/DTD/svg11.dtd">
<!-- Generated by graphviz version 2.40.1 (20161225.0304)
 -->
<!-- Title: %0 Pages: 1 -->
<svg width="130pt" height="522pt"
 viewBox="0.00 0.00 130.00 522.00" xmlns="http://www.w3.org/2000/svg" xmlns:xlink="http://www.w3.org/1999/xlink">
<g id="graph0" class="graph" transform="scale(1 1) rotate(0) translate(4 518)">
<title>%0</title>
<polygon fill="#ffffff" stroke="transparent" points="-4,4 -4,-518 126,-518 126,4 -4,4"/>
<!-- object -->
<g id="node1" class="node">
<title>object</title>
<g id="a_node1"><a xlink:href="object.md" xlink:title="object">
<polygon fill="#ffffff" stroke="transparent" points="32.5,-422 32.5,-514 89.5,-514 89.5,-422 32.5,-422"/>
<polygon fill="none" stroke="#000000" points="33,-492 33,-514 90,-514 90,-492 33,-492"/>
<text text-anchor="start" x="48.1625" y="-500" font-family="Helvetica,sans-Serif" font-size="10.00" fill="#000000">object</text>
<polygon fill="none" stroke="#000000" points="33,-422 33,-492 90,-492 90,-422 33,-422"/>
<text text-anchor="start" x="38" y="-478" font-family="Helvetica,sans-Serif" font-size="10.00" fill="#000000"> dispose()</text>
<text text-anchor="start" x="38" y="-466" font-family="Helvetica,sans-Serif" font-size="10.00" fill="#000000"> equals()</text>
<text text-anchor="start" x="38" y="-454" font-family="Helvetica,sans-Serif" font-size="10.00" fill="#000000"> toString()</text>
<text text-anchor="start" x="38" y="-442" font-family="Helvetica,sans-Serif" font-size="10.00" fill="#000000"> toJSON()</text>
<text text-anchor="start" x="38" y="-430" font-family="Helvetica,sans-Serif" font-size="10.00" fill="#000000"> valueOf()</text>
</a>
</g>
</g>
<!-- XmlNode -->
<g id="node2" class="node">
<title>XmlNode</title>
<g id="a_node2"><a xlink:href="XmlNode.md" xlink:title="XmlNode">
<polygon fill="#ffffff" stroke="transparent" points="0,-104 0,-386 122,-386 122,-104 0,-104"/>
<polygon fill="none" stroke="#000000" points="0,-364 0,-386 122,-386 122,-364 0,-364"/>
<text text-anchor="start" x="40.4435" y="-372" font-family="Helvetica,sans-Serif" font-size="10.00" fill="#000000">XmlNode</text>
<polygon fill="none" stroke="#000000" points="0,-234 0,-364 122,-364 122,-234 0,-234"/>
<text text-anchor="start" x="5" y="-350" font-family="Helvetica,sans-Serif" font-size="10.00" fill="#000000"> nodeType</text>
<text text-anchor="start" x="5" y="-338" font-family="Helvetica,sans-Serif" font-size="10.00" fill="#000000"> nodeName</text>
<text text-anchor="start" x="5" y="-326" font-family="Helvetica,sans-Serif" font-size="10.00" fill="#000000"> nodeValue</text>
<text text-anchor="start" x="5" y="-314" font-family="Helvetica,sans-Serif" font-size="10.00" fill="#000000"> ownerDocument</text>
<text text-anchor="start" x="5" y="-302" font-family="Helvetica,sans-Serif" font-size="10.00" fill="#000000"> parentNode</text>
<text text-anchor="start" x="5" y="-290" font-family="Helvetica,sans-Serif" font-size="10.00" fill="#000000"> childNodes</text>
<text text-anchor="start" x="5" y="-278" font-family="Helvetica,sans-Serif" font-size="10.00" fill="#000000"> firstChild</text>
<text text-anchor="start" x="5" y="-266" font-family="Helvetica,sans-Serif" font-size="10.00" fill="#000000"> lastChild</text>
<text text-anchor="start" x="5" y="-254" font-family="Helvetica,sans-Serif" font-size="10.00" fill="#000000"> previousSibling</text>
<text text-anchor="start" x="5" y="-242" font-family="Helvetica,sans-Serif" font-size="10.00" fill="#000000"> nextSibling</text>
<polygon fill="none" stroke="#000000" points="0,-104 0,-234 122,-234 122,-104 0,-104"/>
<text text-anchor="start" x="5" y="-220" font-family="Helvetica,sans-Serif" font-size="10.00" fill="#000000"> hasChildNodes()</text>
<text text-anchor="start" x="5" y="-208" font-family="Helvetica,sans-Serif" font-size="10.00" fill="#000000"> normalize()</text>
<text text-anchor="start" x="5" y="-196" font-family="Helvetica,sans-Serif" font-size="10.00" fill="#000000"> cloneNode()</text>
<text text-anchor="start" x="5" y="-184" font-family="Helvetica,sans-Serif" font-size="10.00" fill="#000000"> lookupPrefix()</text>
<text text-anchor="start" x="5" y="-172" font-family="Helvetica,sans-Serif" font-size="10.00" fill="#000000"> lookupNamespaceURI()</text>
<text text-anchor="start" x="5" y="-160" font-family="Helvetica,sans-Serif" font-size="10.00" fill="#000000"> insertBefore()</text>
<text text-anchor="start" x="5" y="-148" font-family="Helvetica,sans-Serif" font-size="10.00" fill="#000000"> insertAfter()</text>
<text text-anchor="start" x="5" y="-136" font-family="Helvetica,sans-Serif" font-size="10.00" fill="#000000"> appendChild()</text>
<text text-anchor="start" x="5" y="-124" font-family="Helvetica,sans-Serif" font-size="10.00" fill="#000000"> replaceChild()</text>
<text text-anchor="start" x="5" y="-112" font-family="Helvetica,sans-Serif" font-size="10.00" fill="#000000"> removeChild()</text>
</a>
</g>
</g>
<!-- object&#45;&gt;XmlNode -->
<g id="edge1" class="edge">
<title>object&#45;&gt;XmlNode</title>
<path fill="none" stroke="#000000" d="M61,-411.5484C61,-403.5161 61,-394.975 61,-386.1675"/>
<polygon fill="#000000" stroke="#000000" points="57.5001,-411.7942 61,-421.7943 64.5001,-411.7943 57.5001,-411.7942"/>
</g>
<!-- XmlDocumentType -->
<g id="node3" class="node">
<title>XmlDocumentType</title>
<g id="a_node3"><a xlink:title="XmlDocumentType">
<polygon fill="#d3d3d3" stroke="transparent" points="13.5,0 13.5,-68 108.5,-68 108.5,0 13.5,0"/>
<polygon fill="none" stroke="#000000" points="14,-46 14,-68 109,-68 109,-46 14,-46"/>
<text text-anchor="start" x="18.9965" y="-54" font-family="Helvetica,sans-Serif" font-size="10.00" fill="#000000">XmlDocumentType</text>
<polygon fill="none" stroke="#000000" points="14,0 14,-46 109,-46 109,0 14,0"/>
<text text-anchor="start" x="19" y="-32" font-family="Helvetica,sans-Serif" font-size="10.00" fill="#000000"> name</text>
<text text-anchor="start" x="19" y="-20" font-family="Helvetica,sans-Serif" font-size="10.00" fill="#000000"> publicId</text>
<text text-anchor="start" x="19" y="-8" font-family="Helvetica,sans-Serif" font-size="10.00" fill="#000000"> systemId</text>
</a>
</g>
</g>
<!-- XmlNode&#45;&gt;XmlDocumentType -->
<g id="edge2" class="edge">
<title>XmlNode&#45;&gt;XmlDocumentType</title>
<path fill="none" stroke="#000000" d="M61,-93.7146C61,-84.461 61,-75.7904 61,-68.0794"/>
<polygon fill="#000000" stroke="#000000" points="57.5001,-93.9668 61,-103.9669 64.5001,-93.9669 57.5001,-93.9668"/>
</g>
</g>
</svg>
