<?xml version="1.0" encoding="UTF-8" standalone="no"?>
<!DOCTYPE svg PUBLIC "-//W3C//DTD SVG 1.1//EN"
 "http://www.w3.org/Graphics/SVG/1.1/DTD/svg11.dtd">
<!-- Generated by graphviz version 2.40.1 (20161225.0304)
 -->
<!-- Title: %0 Pages: 1 -->
<svg width="155pt" height="724pt"
 viewBox="0.00 0.00 155.00 724.00" xmlns="http://www.w3.org/2000/svg" xmlns:xlink="http://www.w3.org/1999/xlink">
<g id="graph0" class="graph" transform="scale(1 1) rotate(0) translate(4 720)">
<title>%0</title>
<polygon fill="#ffffff" stroke="transparent" points="-4,4 -4,-720 151,-720 151,4 -4,4"/>
<!-- object -->
<g id="node1" class="node">
<title>object</title>
<g id="a_node1"><a xlink:href="object.md" xlink:title="object">
<polygon fill="#ffffff" stroke="transparent" points="45,-624 45,-716 102,-716 102,-624 45,-624"/>
<polygon fill="none" stroke="#000000" points="45.5,-694 45.5,-716 102.5,-716 102.5,-694 45.5,-694"/>
<text text-anchor="start" x="60.6625" y="-702" font-family="Helvetica,sans-Serif" font-size="10.00" fill="#000000">object</text>
<polygon fill="none" stroke="#000000" points="45.5,-624 45.5,-694 102.5,-694 102.5,-624 45.5,-624"/>
<text text-anchor="start" x="50.5" y="-680" font-family="Helvetica,sans-Serif" font-size="10.00" fill="#000000"> dispose()</text>
<text text-anchor="start" x="50.5" y="-668" font-family="Helvetica,sans-Serif" font-size="10.00" fill="#000000"> equals()</text>
<text text-anchor="start" x="50.5" y="-656" font-family="Helvetica,sans-Serif" font-size="10.00" fill="#000000"> toString()</text>
<text text-anchor="start" x="50.5" y="-644" font-family="Helvetica,sans-Serif" font-size="10.00" fill="#000000"> toJSON()</text>
<text text-anchor="start" x="50.5" y="-632" font-family="Helvetica,sans-Serif" font-size="10.00" fill="#000000"> valueOf()</text>
</a>
</g>
</g>
<!-- XmlNode -->
<g id="node2" class="node">
<title>XmlNode</title>
<g id="a_node2"><a xlink:href="XmlNode.md" xlink:title="XmlNode">
<polygon fill="#ffffff" stroke="transparent" points="12.5,-306 12.5,-588 134.5,-588 134.5,-306 12.5,-306"/>
<polygon fill="none" stroke="#000000" points="12.5,-566 12.5,-588 134.5,-588 134.5,-566 12.5,-566"/>
<text text-anchor="start" x="52.9435" y="-574" font-family="Helvetica,sans-Serif" font-size="10.00" fill="#000000">XmlNode</text>
<polygon fill="none" stroke="#000000" points="12.5,-436 12.5,-566 134.5,-566 134.5,-436 12.5,-436"/>
<text text-anchor="start" x="17.5" y="-552" font-family="Helvetica,sans-Serif" font-size="10.00" fill="#000000"> nodeType</text>
<text text-anchor="start" x="17.5" y="-540" font-family="Helvetica,sans-Serif" font-size="10.00" fill="#000000"> nodeName</text>
<text text-anchor="start" x="17.5" y="-528" font-family="Helvetica,sans-Serif" font-size="10.00" fill="#000000"> nodeValue</text>
<text text-anchor="start" x="17.5" y="-516" font-family="Helvetica,sans-Serif" font-size="10.00" fill="#000000"> ownerDocument</text>
<text text-anchor="start" x="17.5" y="-504" font-family="Helvetica,sans-Serif" font-size="10.00" fill="#000000"> parentNode</text>
<text text-anchor="start" x="17.5" y="-492" font-family="Helvetica,sans-Serif" font-size="10.00" fill="#000000"> childNodes</text>
<text text-anchor="start" x="17.5" y="-480" font-family="Helvetica,sans-Serif" font-size="10.00" fill="#000000"> firstChild</text>
<text text-anchor="start" x="17.5" y="-468" font-family="Helvetica,sans-Serif" font-size="10.00" fill="#000000"> lastChild</text>
<text text-anchor="start" x="17.5" y="-456" font-family="Helvetica,sans-Serif" font-size="10.00" fill="#000000"> previousSibling</text>
<text text-anchor="start" x="17.5" y="-444" font-family="Helvetica,sans-Serif" font-size="10.00" fill="#000000"> nextSibling</text>
<polygon fill="none" stroke="#000000" points="12.5,-306 12.5,-436 134.5,-436 134.5,-306 12.5,-306"/>
<text text-anchor="start" x="17.5" y="-422" font-family="Helvetica,sans-Serif" font-size="10.00" fill="#000000"> hasChildNodes()</text>
<text text-anchor="start" x="17.5" y="-410" font-family="Helvetica,sans-Serif" font-size="10.00" fill="#000000"> normalize()</text>
<text text-anchor="start" x="17.5" y="-398" font-family="Helvetica,sans-Serif" font-size="10.00" fill="#000000"> cloneNode()</text>
<text text-anchor="start" x="17.5" y="-386" font-family="Helvetica,sans-Serif" font-size="10.00" fill="#000000"> lookupPrefix()</text>
<text text-anchor="start" x="17.5" y="-374" font-family="Helvetica,sans-Serif" font-size="10.00" fill="#000000"> lookupNamespaceURI()</text>
<text text-anchor="start" x="17.5" y="-362" font-family="Helvetica,sans-Serif" font-size="10.00" fill="#000000"> insertBefore()</text>
<text text-anchor="start" x="17.5" y="-350" font-family="Helvetica,sans-Serif" font-size="10.00" fill="#000000"> insertAfter()</text>
<text text-anchor="start" x="17.5" y="-338" font-family="Helvetica,sans-Serif" font-size="10.00" fill="#000000"> appendChild()</text>
<text text-anchor="start" x="17.5" y="-326" font-family="Helvetica,sans-Serif" font-size="10.00" fill="#000000"> replaceChild()</text>
<text text-anchor="start" x="17.5" y="-314" font-family="Helvetica,sans-Serif" font-size="10.00" fill="#000000"> removeChild()</text>
</a>
</g>
</g>
<!-- object&#45;&gt;XmlNode -->
<g id="edge1" class="edge">
<title>object&#45;&gt;XmlNode</title>
<path fill="none" stroke="#000000" d="M73.5,-613.5484C73.5,-605.5161 73.5,-596.975 73.5,-588.1675"/>
<polygon fill="#000000" stroke="#000000" points="70.0001,-613.7942 73.5,-623.7943 77.0001,-613.7943 70.0001,-613.7942"/>
</g>
<!-- XmlElement -->
<g id="node3" class="node">
<title>XmlElement</title>
<g id="a_node3"><a xlink:title="XmlElement">
<polygon fill="#d3d3d3" stroke="transparent" points="0,0 0,-270 147,-270 147,0 0,0"/>
<polygon fill="none" stroke="#000000" points=".5,-248 .5,-270 147.5,-270 147.5,-248 .5,-248"/>
<text text-anchor="start" x="47.055" y="-256" font-family="Helvetica,sans-Serif" font-size="10.00" fill="#000000">XmlElement</text>
<polygon fill="none" stroke="#000000" points=".5,-130 .5,-248 147.5,-248 147.5,-130 .5,-130"/>
<text text-anchor="start" x="5.5" y="-234" font-family="Helvetica,sans-Serif" font-size="10.00" fill="#000000"> namespaceURI</text>
<text text-anchor="start" x="5.5" y="-222" font-family="Helvetica,sans-Serif" font-size="10.00" fill="#000000"> prefix</text>
<text text-anchor="start" x="5.5" y="-210" font-family="Helvetica,sans-Serif" font-size="10.00" fill="#000000"> localName</text>
<text text-anchor="start" x="5.5" y="-198" font-family="Helvetica,sans-Serif" font-size="10.00" fill="#000000"> tagName</text>
<text text-anchor="start" x="5.5" y="-186" font-family="Helvetica,sans-Serif" font-size="10.00" fill="#000000"> id</text>
<text text-anchor="start" x="5.5" y="-174" font-family="Helvetica,sans-Serif" font-size="10.00" fill="#000000"> textContent</text>
<text text-anchor="start" x="5.5" y="-162" font-family="Helvetica,sans-Serif" font-size="10.00" fill="#000000"> innerHTML</text>
<text text-anchor="start" x="5.5" y="-150" font-family="Helvetica,sans-Serif" font-size="10.00" fill="#000000"> className</text>
<text text-anchor="start" x="5.5" y="-138" font-family="Helvetica,sans-Serif" font-size="10.00" fill="#000000"> attributes</text>
<polygon fill="none" stroke="#000000" points=".5,0 .5,-130 147.5,-130 147.5,0 .5,0"/>
<text text-anchor="start" x="5.5" y="-116" font-family="Helvetica,sans-Serif" font-size="10.00" fill="#000000"> getAttribute()</text>
<text text-anchor="start" x="5.5" y="-104" font-family="Helvetica,sans-Serif" font-size="10.00" fill="#000000"> getAttributeNS()</text>
<text text-anchor="start" x="5.5" y="-92" font-family="Helvetica,sans-Serif" font-size="10.00" fill="#000000"> setAttribute()</text>
<text text-anchor="start" x="5.5" y="-80" font-family="Helvetica,sans-Serif" font-size="10.00" fill="#000000"> setAttributeNS()</text>
<text text-anchor="start" x="5.5" y="-68" font-family="Helvetica,sans-Serif" font-size="10.00" fill="#000000"> removeAttribute()</text>
<text text-anchor="start" x="5.5" y="-56" font-family="Helvetica,sans-Serif" font-size="10.00" fill="#000000"> removeAttributeNS()</text>
<text text-anchor="start" x="5.5" y="-44" font-family="Helvetica,sans-Serif" font-size="10.00" fill="#000000"> hasAttribute()</text>
<text text-anchor="start" x="5.5" y="-32" font-family="Helvetica,sans-Serif" font-size="10.00" fill="#000000"> hasAttributeNS()</text>
<text text-anchor="start" x="5.5" y="-20" font-family="Helvetica,sans-Serif" font-size="10.00" fill="#000000"> getElementsByTagName()</text>
<text text-anchor="start" x="5.5" y="-8" font-family="Helvetica,sans-Serif" font-size="10.00" fill="#000000"> getElementsByTagNameNS()</text>
</a>
</g>
</g>
<!-- XmlNode&#45;&gt;XmlElement -->
<g id="edge2" class="edge">
<title>XmlNode&#45;&gt;XmlElement</title>
<path fill="none" stroke="#000000" d="M73.5,-295.3777C73.5,-286.98 73.5,-278.5655 73.5,-270.2315"/>
<polygon fill="#000000" stroke="#000000" points="70.0001,-295.6059 73.5,-305.606 77.0001,-295.606 70.0001,-295.6059"/>
</g>
</g>
</svg>
