<?xml version="1.0" encoding="UTF-8" standalone="no"?>
<!DOCTYPE svg PUBLIC "-//W3C//DTD SVG 1.1//EN"
 "http://www.w3.org/Graphics/SVG/1.1/DTD/svg11.dtd">
<!-- Generated by graphviz version 2.40.1 (20161225.0304)
 -->
<!-- Title: %0 Pages: 1 -->
<svg width="735pt" height="861pt"
 viewBox="0.00 0.00 734.67 861.00" xmlns="http://www.w3.org/2000/svg" xmlns:xlink="http://www.w3.org/1999/xlink">
<g id="graph0" class="graph" transform="scale(1 1) rotate(0) translate(4 857)">
<title>%0</title>
<polygon fill="#ffffff" stroke="transparent" points="-4,4 -4,-857 730.6705,-857 730.6705,4 -4,4"/>
<!-- object -->
<g id="node1" class="node">
<title>object</title>
<g id="a_node1"><a xlink:href="object.md" xlink:title="object">
<polygon fill="#ffffff" stroke="#000000" points="335.4435,-764.5 335.4435,-852.5 393.1065,-852.5 393.1065,-764.5 335.4435,-764.5"/>
<text text-anchor="middle" x="364.275" y="-839.5" font-family="Helvetica,sans-Serif" font-size="10.00" fill="#000000">object</text>
<polyline fill="none" stroke="#000000" points="335.4435,-832.5 393.1065,-832.5 "/>
<text text-anchor="start" x="343.4435" y="-819.5" font-family="Helvetica,sans-Serif" font-size="10.00" fill="#000000">dispose()</text>
<text text-anchor="start" x="343.4435" y="-807.5" font-family="Helvetica,sans-Serif" font-size="10.00" fill="#000000">equals()</text>
<text text-anchor="start" x="343.4435" y="-795.5" font-family="Helvetica,sans-Serif" font-size="10.00" fill="#000000">toString()</text>
<text text-anchor="start" x="343.4435" y="-783.5" font-family="Helvetica,sans-Serif" font-size="10.00" fill="#000000">toJSON()</text>
<text text-anchor="start" x="343.4435" y="-771.5" font-family="Helvetica,sans-Serif" font-size="10.00" fill="#000000">valueOf()</text>
</a>
</g>
</g>
<!-- XmlNode -->
<g id="node2" class="node">
<title>XmlNode</title>
<g id="a_node2"><a xlink:title="XmlNode">
<polygon fill="#d3d3d3" stroke="#000000" points="302.9385,-451.5 302.9385,-727.5 425.6115,-727.5 425.6115,-451.5 302.9385,-451.5"/>
<text text-anchor="middle" x="364.275" y="-714.5" font-family="Helvetica,sans-Serif" font-size="10.00" fill="#000000">XmlNode</text>
<polyline fill="none" stroke="#000000" points="302.9385,-707.5 425.6115,-707.5 "/>
<text text-anchor="start" x="310.9385" y="-694.5" font-family="Helvetica,sans-Serif" font-size="10.00" fill="#000000">nodeType</text>
<text text-anchor="start" x="310.9385" y="-682.5" font-family="Helvetica,sans-Serif" font-size="10.00" fill="#000000">nodeName</text>
<text text-anchor="start" x="310.9385" y="-670.5" font-family="Helvetica,sans-Serif" font-size="10.00" fill="#000000">nodeValue</text>
<text text-anchor="start" x="310.9385" y="-658.5" font-family="Helvetica,sans-Serif" font-size="10.00" fill="#000000">ownerDocument</text>
<text text-anchor="start" x="310.9385" y="-646.5" font-family="Helvetica,sans-Serif" font-size="10.00" fill="#000000">parentNode</text>
<text text-anchor="start" x="310.9385" y="-634.5" font-family="Helvetica,sans-Serif" font-size="10.00" fill="#000000">childNodes</text>
<text text-anchor="start" x="310.9385" y="-622.5" font-family="Helvetica,sans-Serif" font-size="10.00" fill="#000000">firstChild</text>
<text text-anchor="start" x="310.9385" y="-610.5" font-family="Helvetica,sans-Serif" font-size="10.00" fill="#000000">lastChild</text>
<text text-anchor="start" x="310.9385" y="-598.5" font-family="Helvetica,sans-Serif" font-size="10.00" fill="#000000">previousSibling</text>
<text text-anchor="start" x="310.9385" y="-586.5" font-family="Helvetica,sans-Serif" font-size="10.00" fill="#000000">nextSibling</text>
<polyline fill="none" stroke="#000000" points="302.9385,-579.5 425.6115,-579.5 "/>
<text text-anchor="start" x="310.9385" y="-566.5" font-family="Helvetica,sans-Serif" font-size="10.00" fill="#000000">hasChildNodes()</text>
<text text-anchor="start" x="310.9385" y="-554.5" font-family="Helvetica,sans-Serif" font-size="10.00" fill="#000000">normalize()</text>
<text text-anchor="start" x="310.9385" y="-542.5" font-family="Helvetica,sans-Serif" font-size="10.00" fill="#000000">cloneNode()</text>
<text text-anchor="start" x="310.9385" y="-530.5" font-family="Helvetica,sans-Serif" font-size="10.00" fill="#000000">lookupPrefix()</text>
<text text-anchor="start" x="310.9385" y="-518.5" font-family="Helvetica,sans-Serif" font-size="10.00" fill="#000000">lookupNamespaceURI()</text>
<text text-anchor="start" x="310.9385" y="-506.5" font-family="Helvetica,sans-Serif" font-size="10.00" fill="#000000">insertBefore()</text>
<text text-anchor="start" x="310.9385" y="-494.5" font-family="Helvetica,sans-Serif" font-size="10.00" fill="#000000">insertAfter()</text>
<text text-anchor="start" x="310.9385" y="-482.5" font-family="Helvetica,sans-Serif" font-size="10.00" fill="#000000">appendChild()</text>
<text text-anchor="start" x="310.9385" y="-470.5" font-family="Helvetica,sans-Serif" font-size="10.00" fill="#000000">replaceChild()</text>
<text text-anchor="start" x="310.9385" y="-458.5" font-family="Helvetica,sans-Serif" font-size="10.00" fill="#000000">removeChild()</text>
</a>
</g>
</g>
<!-- object&#45;&gt;XmlNode -->
<g id="edge1" class="edge">
<title>object&#45;&gt;XmlNode</title>
<path fill="none" stroke="#000000" d="M364.275,-754.1907C364.275,-745.8324 364.275,-736.8931 364.275,-727.6615"/>
<polygon fill="#000000" stroke="#000000" points="360.7751,-754.4455 364.275,-764.4455 367.7751,-754.4456 360.7751,-754.4455"/>
</g>
<!-- XmlCharacterData -->
<g id="node3" class="node">
<title>XmlCharacterData</title>
<g id="a_node3"><a xlink:href="XmlCharacterData.md" xlink:title="XmlCharacterData">
<polygon fill="#ffffff" stroke="#000000" points="32.1625,-222.5 32.1625,-342.5 130.3875,-342.5 130.3875,-222.5 32.1625,-222.5"/>
<text text-anchor="middle" x="81.275" y="-329.5" font-family="Helvetica,sans-Serif" font-size="10.00" fill="#000000">XmlCharacterData</text>
<polyline fill="none" stroke="#000000" points="32.1625,-322.5 130.3875,-322.5 "/>
<text text-anchor="start" x="40.1625" y="-309.5" font-family="Helvetica,sans-Serif" font-size="10.00" fill="#000000">data</text>
<text text-anchor="start" x="40.1625" y="-297.5" font-family="Helvetica,sans-Serif" font-size="10.00" fill="#000000">length</text>
<polyline fill="none" stroke="#000000" points="32.1625,-290.5 130.3875,-290.5 "/>
<text text-anchor="start" x="40.1625" y="-277.5" font-family="Helvetica,sans-Serif" font-size="10.00" fill="#000000">substringData()</text>
<text text-anchor="start" x="40.1625" y="-265.5" font-family="Helvetica,sans-Serif" font-size="10.00" fill="#000000">appendData()</text>
<text text-anchor="start" x="40.1625" y="-253.5" font-family="Helvetica,sans-Serif" font-size="10.00" fill="#000000">insertData()</text>
<text text-anchor="start" x="40.1625" y="-241.5" font-family="Helvetica,sans-Serif" font-size="10.00" fill="#000000">deleteData()</text>
<text text-anchor="start" x="40.1625" y="-229.5" font-family="Helvetica,sans-Serif" font-size="10.00" fill="#000000">replaceData()</text>
</a>
</g>
</g>
<!-- XmlNode&#45;&gt;XmlCharacterData -->
<g id="edge2" class="edge">
<title>XmlNode&#45;&gt;XmlCharacterData</title>
<path fill="none" stroke="#000000" d="M294.3322,-548.4883C245.6202,-517.0401 181.9796,-469.8119 139.275,-415 122.6073,-393.6069 109.6803,-366.682 100.3041,-342.7004"/>
<polygon fill="#000000" stroke="#000000" points="292.6247,-551.5506 302.9372,-553.9804 296.3908,-545.65 292.6247,-551.5506"/>
</g>
<!-- XmlDocument -->
<g id="node7" class="node">
<title>XmlDocument</title>
<g id="a_node7"><a xlink:href="XmlDocument.md" xlink:title="XmlDocument">
<polygon fill="#ffffff" stroke="#000000" points="148.436,-152.5 148.436,-412.5 296.114,-412.5 296.114,-152.5 148.436,-152.5"/>
<text text-anchor="middle" x="222.275" y="-399.5" font-family="Helvetica,sans-Serif" font-size="10.00" fill="#000000">XmlDocument</text>
<polyline fill="none" stroke="#000000" points="148.436,-392.5 296.114,-392.5 "/>
<text text-anchor="start" x="156.436" y="-379.5" font-family="Helvetica,sans-Serif" font-size="10.00" fill="#000000">new XmlDocument()</text>
<polyline fill="none" stroke="#000000" points="148.436,-372.5 296.114,-372.5 "/>
<text text-anchor="start" x="156.436" y="-359.5" font-family="Helvetica,sans-Serif" font-size="10.00" fill="#000000">inputEncoding</text>
<text text-anchor="start" x="156.436" y="-347.5" font-family="Helvetica,sans-Serif" font-size="10.00" fill="#000000">xmlStandalone</text>
<text text-anchor="start" x="156.436" y="-335.5" font-family="Helvetica,sans-Serif" font-size="10.00" fill="#000000">xmlVersion</text>
<text text-anchor="start" x="156.436" y="-323.5" font-family="Helvetica,sans-Serif" font-size="10.00" fill="#000000">doctype</text>
<text text-anchor="start" x="156.436" y="-311.5" font-family="Helvetica,sans-Serif" font-size="10.00" fill="#000000">documentElement</text>
<text text-anchor="start" x="156.436" y="-299.5" font-family="Helvetica,sans-Serif" font-size="10.00" fill="#000000">head</text>
<text text-anchor="start" x="156.436" y="-287.5" font-family="Helvetica,sans-Serif" font-size="10.00" fill="#000000">title</text>
<text text-anchor="start" x="156.436" y="-275.5" font-family="Helvetica,sans-Serif" font-size="10.00" fill="#000000">body</text>
<polyline fill="none" stroke="#000000" points="148.436,-268.5 296.114,-268.5 "/>
<text text-anchor="start" x="156.436" y="-255.5" font-family="Helvetica,sans-Serif" font-size="10.00" fill="#000000">load()</text>
<text text-anchor="start" x="156.436" y="-243.5" font-family="Helvetica,sans-Serif" font-size="10.00" fill="#000000">getElementsByTagName()</text>
<text text-anchor="start" x="156.436" y="-231.5" font-family="Helvetica,sans-Serif" font-size="10.00" fill="#000000">getElementsByTagNameNS()</text>
<text text-anchor="start" x="156.436" y="-219.5" font-family="Helvetica,sans-Serif" font-size="10.00" fill="#000000">createElement()</text>
<text text-anchor="start" x="156.436" y="-207.5" font-family="Helvetica,sans-Serif" font-size="10.00" fill="#000000">createElementNS()</text>
<text text-anchor="start" x="156.436" y="-195.5" font-family="Helvetica,sans-Serif" font-size="10.00" fill="#000000">createTextNode()</text>
<text text-anchor="start" x="156.436" y="-183.5" font-family="Helvetica,sans-Serif" font-size="10.00" fill="#000000">createComment()</text>
<text text-anchor="start" x="156.436" y="-171.5" font-family="Helvetica,sans-Serif" font-size="10.00" fill="#000000">createCDATASection()</text>
<text text-anchor="start" x="156.436" y="-159.5" font-family="Helvetica,sans-Serif" font-size="10.00" fill="#000000">createProcessingInstruction()</text>
</a>
</g>
</g>
<!-- XmlNode&#45;&gt;XmlDocument -->
<g id="edge6" class="edge">
<title>XmlNode&#45;&gt;XmlDocument</title>
<path fill="none" stroke="#000000" d="M298.5354,-447.3728C293.1822,-435.7993 287.7889,-424.1392 282.4781,-412.6574"/>
<polygon fill="#000000" stroke="#000000" points="295.4428,-449.0241 302.8176,-456.6309 301.7961,-446.0854 295.4428,-449.0241"/>
</g>
<!-- XmlDocumentType -->
<g id="node8" class="node">
<title>XmlDocumentType</title>
<g id="a_node8"><a xlink:href="XmlDocumentType.md" xlink:title="XmlDocumentType">
<polygon fill="#ffffff" stroke="#000000" points="313.7715,-250.5 313.7715,-314.5 414.7785,-314.5 414.7785,-250.5 313.7715,-250.5"/>
<text text-anchor="middle" x="364.275" y="-301.5" font-family="Helvetica,sans-Serif" font-size="10.00" fill="#000000">XmlDocumentType</text>
<polyline fill="none" stroke="#000000" points="313.7715,-294.5 414.7785,-294.5 "/>
<text text-anchor="start" x="321.7715" y="-281.5" font-family="Helvetica,sans-Serif" font-size="10.00" fill="#000000">name</text>
<text text-anchor="start" x="321.7715" y="-269.5" font-family="Helvetica,sans-Serif" font-size="10.00" fill="#000000">publicId</text>
<text text-anchor="start" x="321.7715" y="-257.5" font-family="Helvetica,sans-Serif" font-size="10.00" fill="#000000">systemId</text>
</a>
</g>
</g>
<!-- XmlNode&#45;&gt;XmlDocumentType -->
<g id="edge7" class="edge">
<title>XmlNode&#45;&gt;XmlDocumentType</title>
<path fill="none" stroke="#000000" d="M364.275,-441.1302C364.275,-393.5458 364.275,-345.3034 364.275,-314.7211"/>
<polygon fill="#000000" stroke="#000000" points="360.7751,-441.2675 364.275,-451.2676 367.7751,-441.2676 360.7751,-441.2675"/>
</g>
<!-- XmlElement -->
<g id="node9" class="node">
<title>XmlElement</title>
<g id="a_node9"><a xlink:href="XmlElement.md" xlink:title="XmlElement">
<polygon fill="#ffffff" stroke="#000000" points="432.436,-150.5 432.436,-414.5 580.114,-414.5 580.114,-150.5 432.436,-150.5"/>
<text text-anchor="middle" x="506.275" y="-401.5" font-family="Helvetica,sans-Serif" font-size="10.00" fill="#000000">XmlElement</text>
<polyline fill="none" stroke="#000000" points="432.436,-394.5 580.114,-394.5 "/>
<text text-anchor="start" x="440.436" y="-381.5" font-family="Helvetica,sans-Serif" font-size="10.00" fill="#000000">namespaceURI</text>
<text text-anchor="start" x="440.436" y="-369.5" font-family="Helvetica,sans-Serif" font-size="10.00" fill="#000000">prefix</text>
<text text-anchor="start" x="440.436" y="-357.5" font-family="Helvetica,sans-Serif" font-size="10.00" fill="#000000">localName</text>
<text text-anchor="start" x="440.436" y="-345.5" font-family="Helvetica,sans-Serif" font-size="10.00" fill="#000000">tagName</text>
<text text-anchor="start" x="440.436" y="-333.5" font-family="Helvetica,sans-Serif" font-size="10.00" fill="#000000">id</text>
<text text-anchor="start" x="440.436" y="-321.5" font-family="Helvetica,sans-Serif" font-size="10.00" fill="#000000">textContent</text>
<text text-anchor="start" x="440.436" y="-309.5" font-family="Helvetica,sans-Serif" font-size="10.00" fill="#000000">innerHTML</text>
<text text-anchor="start" x="440.436" y="-297.5" font-family="Helvetica,sans-Serif" font-size="10.00" fill="#000000">className</text>
<text text-anchor="start" x="440.436" y="-285.5" font-family="Helvetica,sans-Serif" font-size="10.00" fill="#000000">attributes</text>
<polyline fill="none" stroke="#000000" points="432.436,-278.5 580.114,-278.5 "/>
<text text-anchor="start" x="440.436" y="-265.5" font-family="Helvetica,sans-Serif" font-size="10.00" fill="#000000">getAttribute()</text>
<text text-anchor="start" x="440.436" y="-253.5" font-family="Helvetica,sans-Serif" font-size="10.00" fill="#000000">getAttributeNS()</text>
<text text-anchor="start" x="440.436" y="-241.5" font-family="Helvetica,sans-Serif" font-size="10.00" fill="#000000">setAttribute()</text>
<text text-anchor="start" x="440.436" y="-229.5" font-family="Helvetica,sans-Serif" font-size="10.00" fill="#000000">setAttributeNS()</text>
<text text-anchor="start" x="440.436" y="-217.5" font-family="Helvetica,sans-Serif" font-size="10.00" fill="#000000">removeAttribute()</text>
<text text-anchor="start" x="440.436" y="-205.5" font-family="Helvetica,sans-Serif" font-size="10.00" fill="#000000">removeAttributeNS()</text>
<text text-anchor="start" x="440.436" y="-193.5" font-family="Helvetica,sans-Serif" font-size="10.00" fill="#000000">hasAttribute()</text>
<text text-anchor="start" x="440.436" y="-181.5" font-family="Helvetica,sans-Serif" font-size="10.00" fill="#000000">hasAttributeNS()</text>
<text text-anchor="start" x="440.436" y="-169.5" font-family="Helvetica,sans-Serif" font-size="10.00" fill="#000000">getElementsByTagName()</text>
<text text-anchor="start" x="440.436" y="-157.5" font-family="Helvetica,sans-Serif" font-size="10.00" fill="#000000">getElementsByTagNameNS()</text>
</a>
</g>
</g>
<!-- XmlNode&#45;&gt;XmlElement -->
<g id="edge8" class="edge">
<title>XmlNode&#45;&gt;XmlElement</title>
<path fill="none" stroke="#000000" d="M429.9757,-447.4568C435.0402,-436.5076 440.1408,-425.4802 445.1737,-414.5992"/>
<polygon fill="#000000" stroke="#000000" points="426.7539,-446.0854 425.7324,-456.6309 433.1072,-449.0241 426.7539,-446.0854"/>
</g>
<!-- XmlProcessingInstruction -->
<g id="node10" class="node">
<title>XmlProcessingInstruction</title>
<g id="a_node10"><a xlink:href="XmlProcessingInstruction.md" xlink:title="XmlProcessingInstruction">
<polygon fill="#ffffff" stroke="#000000" points="597.8795,-256.5 597.8795,-308.5 726.6705,-308.5 726.6705,-256.5 597.8795,-256.5"/>
<text text-anchor="middle" x="662.275" y="-295.5" font-family="Helvetica,sans-Serif" font-size="10.00" fill="#000000">XmlProcessingInstruction</text>
<polyline fill="none" stroke="#000000" points="597.8795,-288.5 726.6705,-288.5 "/>
<text text-anchor="start" x="605.8795" y="-275.5" font-family="Helvetica,sans-Serif" font-size="10.00" fill="#000000">target</text>
<text text-anchor="start" x="605.8795" y="-263.5" font-family="Helvetica,sans-Serif" font-size="10.00" fill="#000000">data</text>
</a>
</g>
</g>
<!-- XmlNode&#45;&gt;XmlProcessingInstruction -->
<g id="edge9" class="edge">
<title>XmlNode&#45;&gt;XmlProcessingInstruction</title>
<path fill="none" stroke="#000000" d="M434.1788,-546.2973C481.9968,-514.2826 544.5771,-467.2821 589.275,-415 617.3498,-382.1615 639.4863,-336.8155 651.7239,-308.5953"/>
<polygon fill="#000000" stroke="#000000" points="432.1312,-543.4554 425.7324,-551.8997 436.0005,-549.2889 432.1312,-543.4554"/>
</g>
<!-- XmlComment -->
<g id="node4" class="node">
<title>XmlComment</title>
<g id="a_node4"><a xlink:href="XmlComment.md" xlink:title="XmlComment">
<polygon fill="#ffffff" stroke="#000000" points="0,-75.5 0,-111.5 76.55,-111.5 76.55,-75.5 0,-75.5"/>
<text text-anchor="middle" x="38.275" y="-90.5" font-family="Helvetica,sans-Serif" font-size="10.00" fill="#000000">XmlComment</text>
</a>
</g>
</g>
<!-- XmlCharacterData&#45;&gt;XmlComment -->
<g id="edge3" class="edge">
<title>XmlCharacterData&#45;&gt;XmlComment</title>
<path fill="none" stroke="#000000" d="M65.3265,-212.4006C57.1038,-176.259 47.7181,-135.0058 42.4446,-111.8268"/>
<polygon fill="#000000" stroke="#000000" points="61.9791,-213.4652 67.6104,-222.4395 68.8047,-211.9122 61.9791,-213.4652"/>
</g>
<!-- XmlText -->
<g id="node5" class="node">
<title>XmlText</title>
<g id="a_node5"><a xlink:href="XmlText.md" xlink:title="XmlText">
<polygon fill="#ffffff" stroke="#000000" points="94.3345,-73.5 94.3345,-113.5 154.2155,-113.5 154.2155,-73.5 94.3345,-73.5"/>
<text text-anchor="middle" x="124.275" y="-100.5" font-family="Helvetica,sans-Serif" font-size="10.00" fill="#000000">XmlText</text>
<polyline fill="none" stroke="#000000" points="94.3345,-93.5 154.2155,-93.5 "/>
<text text-anchor="start" x="102.3345" y="-80.5" font-family="Helvetica,sans-Serif" font-size="10.00" fill="#000000">splitText()</text>
</a>
</g>
</g>
<!-- XmlCharacterData&#45;&gt;XmlText -->
<g id="edge4" class="edge">
<title>XmlCharacterData&#45;&gt;XmlText</title>
<path fill="none" stroke="#000000" d="M97.1712,-212.6309C105.2032,-177.3274 114.3569,-137.0936 119.7068,-113.5788"/>
<polygon fill="#000000" stroke="#000000" points="93.7453,-211.9122 94.9396,-222.4395 100.5709,-213.4652 93.7453,-211.9122"/>
</g>
<!-- XmlCDATASection -->
<g id="node6" class="node">
<title>XmlCDATASection</title>
<g id="a_node6"><a xlink:href="XmlCDATASection.md" xlink:title="XmlCDATASection">
<polygon fill="#ffffff" stroke="#000000" points="74.052,-.5 74.052,-36.5 174.498,-36.5 174.498,-.5 74.052,-.5"/>
<text text-anchor="middle" x="124.275" y="-15.5" font-family="Helvetica,sans-Serif" font-size="10.00" fill="#000000">XmlCDATASection</text>
</a>
</g>
</g>
<!-- XmlText&#45;&gt;XmlCDATASection -->
<g id="edge5" class="edge">
<title>XmlText&#45;&gt;XmlCDATASection</title>
<path fill="none" stroke="#000000" d="M124.275,-63.2072C124.275,-54.1849 124.275,-44.5841 124.275,-36.6016"/>
<polygon fill="#000000" stroke="#000000" points="120.7751,-63.4013 124.275,-73.4014 127.7751,-63.4014 120.7751,-63.4013"/>
</g>
</g>
</svg>
