<?xml version="1.0" encoding="UTF-8" standalone="no"?>
<!DOCTYPE svg PUBLIC "-//W3C//DTD SVG 1.1//EN"
 "http://www.w3.org/Graphics/SVG/1.1/DTD/svg11.dtd">
<!-- Generated by graphviz version 2.40.1 (20161225.0304)
 -->
<!-- Title: %0 Pages: 1 -->
<svg width="74pt" height="224pt"
 viewBox="0.00 0.00 74.00 224.00" xmlns="http://www.w3.org/2000/svg" xmlns:xlink="http://www.w3.org/1999/xlink">
<g id="graph0" class="graph" transform="scale(1 1) rotate(0) translate(4 220)">
<title>%0</title>
<polygon fill="#ffffff" stroke="transparent" points="-4,4 -4,-220 70,-220 70,4 -4,4"/>
<!-- object -->
<g id="node1" class="node">
<title>object</title>
<g id="a_node1"><a xlink:href="object.md" xlink:title="object">
<polygon fill="#ffffff" stroke="transparent" points="4.5,-124 4.5,-216 61.5,-216 61.5,-124 4.5,-124"/>
<polygon fill="none" stroke="#000000" points="5,-194 5,-216 62,-216 62,-194 5,-194"/>
<text text-anchor="start" x="20.1625" y="-202" font-family="Helvetica,sans-Serif" font-size="10.00" fill="#000000">object</text>
<polygon fill="none" stroke="#000000" points="5,-124 5,-194 62,-194 62,-124 5,-124"/>
<text text-anchor="start" x="10" y="-180" font-family="Helvetica,sans-Serif" font-size="10.00" fill="#000000"> dispose()</text>
<text text-anchor="start" x="10" y="-168" font-family="Helvetica,sans-Serif" font-size="10.00" fill="#000000"> equals()</text>
<text text-anchor="start" x="10" y="-156" font-family="Helvetica,sans-Serif" font-size="10.00" fill="#000000"> toString()</text>
<text text-anchor="start" x="10" y="-144" font-family="Helvetica,sans-Serif" font-size="10.00" fill="#000000"> toJSON()</text>
<text text-anchor="start" x="10" y="-132" font-family="Helvetica,sans-Serif" font-size="10.00" fill="#000000"> valueOf()</text>
</a>
</g>
</g>
<!-- XmlNodeList -->
<g id="node2" class="node">
<title>XmlNodeList</title>
<g id="a_node2"><a xlink:title="XmlNodeList">
<polygon fill="#d3d3d3" stroke="transparent" points="0,0 0,-88 66,-88 66,0 0,0"/>
<polygon fill="none" stroke="#000000" points="0,-66 0,-88 66,-88 66,-66 0,-66"/>
<text text-anchor="start" x="4.665" y="-74" font-family="Helvetica,sans-Serif" font-size="10.00" fill="#000000">XmlNodeList</text>
<polygon fill="none" stroke="#000000" points="0,-44 0,-66 66,-66 66,-44 0,-44"/>
<text text-anchor="start" x="5" y="-52" font-family="Helvetica,sans-Serif" font-size="10.00" fill="#000000"> operator[]</text>
<polygon fill="none" stroke="#000000" points="0,-22 0,-44 66,-44 66,-22 0,-22"/>
<text text-anchor="start" x="5" y="-30" font-family="Helvetica,sans-Serif" font-size="10.00" fill="#000000"> length</text>
<polygon fill="none" stroke="#000000" points="0,0 0,-22 66,-22 66,0 0,0"/>
<text text-anchor="start" x="5" y="-8" font-family="Helvetica,sans-Serif" font-size="10.00" fill="#000000"> item()</text>
</a>
</g>
</g>
<!-- object&#45;&gt;XmlNodeList -->
<g id="edge1" class="edge">
<title>object&#45;&gt;XmlNodeList</title>
<path fill="none" stroke="#000000" d="M33,-113.5222C33,-104.9977 33,-96.3123 33,-88.0991"/>
<polygon fill="#000000" stroke="#000000" points="29.5001,-113.7977 33,-123.7977 36.5001,-113.7977 29.5001,-113.7977"/>
</g>
</g>
</svg>
