<?xml version="1.0" encoding="UTF-8" standalone="no"?>
<!DOCTYPE svg PUBLIC "-//W3C//DTD SVG 1.1//EN"
 "http://www.w3.org/Graphics/SVG/1.1/DTD/svg11.dtd">
<!-- Generated by graphviz version 2.40.1 (20161225.0304)
 -->
<!-- Title: %0 Pages: 1 -->
<svg width="714pt" height="876pt"
 viewBox="0.00 0.00 714.00 876.00" xmlns="http://www.w3.org/2000/svg" xmlns:xlink="http://www.w3.org/1999/xlink">
<g id="graph0" class="graph" transform="scale(1 1) rotate(0) translate(4 872)">
<title>%0</title>
<polygon fill="#ffffff" stroke="transparent" points="-4,4 -4,-872 710,-872 710,4 -4,4"/>
<!-- object -->
<g id="node1" class="node">
<title>object</title>
<g id="a_node1"><a xlink:href="object.md" xlink:title="object">
<polygon fill="#ffffff" stroke="transparent" points="324.5,-776 324.5,-868 381.5,-868 381.5,-776 324.5,-776"/>
<polygon fill="none" stroke="#000000" points="325,-846 325,-868 382,-868 382,-846 325,-846"/>
<text text-anchor="start" x="340.1625" y="-854" font-family="Helvetica,sans-Serif" font-size="10.00" fill="#000000">object</text>
<polygon fill="none" stroke="#000000" points="325,-776 325,-846 382,-846 382,-776 325,-776"/>
<text text-anchor="start" x="330" y="-832" font-family="Helvetica,sans-Serif" font-size="10.00" fill="#000000"> dispose()</text>
<text text-anchor="start" x="330" y="-820" font-family="Helvetica,sans-Serif" font-size="10.00" fill="#000000"> equals()</text>
<text text-anchor="start" x="330" y="-808" font-family="Helvetica,sans-Serif" font-size="10.00" fill="#000000"> toString()</text>
<text text-anchor="start" x="330" y="-796" font-family="Helvetica,sans-Serif" font-size="10.00" fill="#000000"> toJSON()</text>
<text text-anchor="start" x="330" y="-784" font-family="Helvetica,sans-Serif" font-size="10.00" fill="#000000"> valueOf()</text>
</a>
</g>
</g>
<!-- XmlNode -->
<g id="node2" class="node">
<title>XmlNode</title>
<g id="a_node2"><a xlink:title="XmlNode">
<polygon fill="#d3d3d3" stroke="transparent" points="292,-458 292,-740 414,-740 414,-458 292,-458"/>
<polygon fill="none" stroke="#000000" points="292,-718 292,-740 414,-740 414,-718 292,-718"/>
<text text-anchor="start" x="332.4435" y="-726" font-family="Helvetica,sans-Serif" font-size="10.00" fill="#000000">XmlNode</text>
<polygon fill="none" stroke="#000000" points="292,-588 292,-718 414,-718 414,-588 292,-588"/>
<text text-anchor="start" x="297" y="-704" font-family="Helvetica,sans-Serif" font-size="10.00" fill="#000000"> nodeType</text>
<text text-anchor="start" x="297" y="-692" font-family="Helvetica,sans-Serif" font-size="10.00" fill="#000000"> nodeName</text>
<text text-anchor="start" x="297" y="-680" font-family="Helvetica,sans-Serif" font-size="10.00" fill="#000000"> nodeValue</text>
<text text-anchor="start" x="297" y="-668" font-family="Helvetica,sans-Serif" font-size="10.00" fill="#000000"> ownerDocument</text>
<text text-anchor="start" x="297" y="-656" font-family="Helvetica,sans-Serif" font-size="10.00" fill="#000000"> parentNode</text>
<text text-anchor="start" x="297" y="-644" font-family="Helvetica,sans-Serif" font-size="10.00" fill="#000000"> childNodes</text>
<text text-anchor="start" x="297" y="-632" font-family="Helvetica,sans-Serif" font-size="10.00" fill="#000000"> firstChild</text>
<text text-anchor="start" x="297" y="-620" font-family="Helvetica,sans-Serif" font-size="10.00" fill="#000000"> lastChild</text>
<text text-anchor="start" x="297" y="-608" font-family="Helvetica,sans-Serif" font-size="10.00" fill="#000000"> previousSibling</text>
<text text-anchor="start" x="297" y="-596" font-family="Helvetica,sans-Serif" font-size="10.00" fill="#000000"> nextSibling</text>
<polygon fill="none" stroke="#000000" points="292,-458 292,-588 414,-588 414,-458 292,-458"/>
<text text-anchor="start" x="297" y="-574" font-family="Helvetica,sans-Serif" font-size="10.00" fill="#000000"> hasChildNodes()</text>
<text text-anchor="start" x="297" y="-562" font-family="Helvetica,sans-Serif" font-size="10.00" fill="#000000"> normalize()</text>
<text text-anchor="start" x="297" y="-550" font-family="Helvetica,sans-Serif" font-size="10.00" fill="#000000"> cloneNode()</text>
<text text-anchor="start" x="297" y="-538" font-family="Helvetica,sans-Serif" font-size="10.00" fill="#000000"> lookupPrefix()</text>
<text text-anchor="start" x="297" y="-526" font-family="Helvetica,sans-Serif" font-size="10.00" fill="#000000"> lookupNamespaceURI()</text>
<text text-anchor="start" x="297" y="-514" font-family="Helvetica,sans-Serif" font-size="10.00" fill="#000000"> insertBefore()</text>
<text text-anchor="start" x="297" y="-502" font-family="Helvetica,sans-Serif" font-size="10.00" fill="#000000"> insertAfter()</text>
<text text-anchor="start" x="297" y="-490" font-family="Helvetica,sans-Serif" font-size="10.00" fill="#000000"> appendChild()</text>
<text text-anchor="start" x="297" y="-478" font-family="Helvetica,sans-Serif" font-size="10.00" fill="#000000"> replaceChild()</text>
<text text-anchor="start" x="297" y="-466" font-family="Helvetica,sans-Serif" font-size="10.00" fill="#000000"> removeChild()</text>
</a>
</g>
</g>
<!-- object&#45;&gt;XmlNode -->
<g id="edge1" class="edge">
<title>object&#45;&gt;XmlNode</title>
<path fill="none" stroke="#000000" d="M353,-765.5484C353,-757.5161 353,-748.975 353,-740.1675"/>
<polygon fill="#000000" stroke="#000000" points="349.5001,-765.7942 353,-775.7943 356.5001,-765.7943 349.5001,-765.7942"/>
</g>
<!-- XmlCharacterData -->
<g id="node3" class="node">
<title>XmlCharacterData</title>
<g id="a_node3"><a xlink:href="XmlCharacterData.md" xlink:title="XmlCharacterData">
<polygon fill="#ffffff" stroke="transparent" points="30,-224 30,-350 122,-350 122,-224 30,-224"/>
<polygon fill="none" stroke="#000000" points="30,-328 30,-350 122,-350 122,-328 30,-328"/>
<text text-anchor="start" x="34.8875" y="-336" font-family="Helvetica,sans-Serif" font-size="10.00" fill="#000000">XmlCharacterData</text>
<polygon fill="none" stroke="#000000" points="30,-294 30,-328 122,-328 122,-294 30,-294"/>
<text text-anchor="start" x="35" y="-314" font-family="Helvetica,sans-Serif" font-size="10.00" fill="#000000"> data</text>
<text text-anchor="start" x="35" y="-302" font-family="Helvetica,sans-Serif" font-size="10.00" fill="#000000"> length</text>
<polygon fill="none" stroke="#000000" points="30,-224 30,-294 122,-294 122,-224 30,-224"/>
<text text-anchor="start" x="35" y="-280" font-family="Helvetica,sans-Serif" font-size="10.00" fill="#000000"> substringData()</text>
<text text-anchor="start" x="35" y="-268" font-family="Helvetica,sans-Serif" font-size="10.00" fill="#000000"> appendData()</text>
<text text-anchor="start" x="35" y="-256" font-family="Helvetica,sans-Serif" font-size="10.00" fill="#000000"> insertData()</text>
<text text-anchor="start" x="35" y="-244" font-family="Helvetica,sans-Serif" font-size="10.00" fill="#000000"> deleteData()</text>
<text text-anchor="start" x="35" y="-232" font-family="Helvetica,sans-Serif" font-size="10.00" fill="#000000"> replaceData()</text>
</a>
</g>
</g>
<!-- XmlNode&#45;&gt;XmlCharacterData -->
<g id="edge2" class="edge">
<title>XmlNode&#45;&gt;XmlCharacterData</title>
<path fill="none" stroke="#000000" d="M283.0637,-556.5366C235.2182,-524.5365 173.2258,-476.8697 132,-422 115.9961,-400.6996 103.6997,-374.1614 94.7617,-350.2653"/>
<polygon fill="#000000" stroke="#000000" points="281.2495,-559.5329 291.5212,-562.1293 285.1105,-553.6941 281.2495,-559.5329"/>
</g>
<!-- XmlDocument -->
<g id="node7" class="node">
<title>XmlDocument</title>
<g id="a_node7"><a xlink:href="XmlDocument.md" xlink:title="XmlDocument">
<polygon fill="#ffffff" stroke="transparent" points="140.5,-153 140.5,-421 287.5,-421 287.5,-153 140.5,-153"/>
<polygon fill="none" stroke="#000000" points="141,-399 141,-421 288,-421 288,-399 141,-399"/>
<text text-anchor="start" x="183.11" y="-407" font-family="Helvetica,sans-Serif" font-size="10.00" fill="#000000">XmlDocument</text>
<polygon fill="none" stroke="#000000" points="141,-377 141,-399 288,-399 288,-377 141,-377"/>
<text text-anchor="start" x="146" y="-385" font-family="Helvetica,sans-Serif" font-size="10.00" fill="#000000">  new XmlDocument()</text>
<polygon fill="none" stroke="#000000" points="141,-271 141,-377 288,-377 288,-271 141,-271"/>
<text text-anchor="start" x="146" y="-363" font-family="Helvetica,sans-Serif" font-size="10.00" fill="#000000"> inputEncoding</text>
<text text-anchor="start" x="146" y="-351" font-family="Helvetica,sans-Serif" font-size="10.00" fill="#000000"> xmlStandalone</text>
<text text-anchor="start" x="146" y="-339" font-family="Helvetica,sans-Serif" font-size="10.00" fill="#000000"> xmlVersion</text>
<text text-anchor="start" x="146" y="-327" font-family="Helvetica,sans-Serif" font-size="10.00" fill="#000000"> doctype</text>
<text text-anchor="start" x="146" y="-315" font-family="Helvetica,sans-Serif" font-size="10.00" fill="#000000"> documentElement</text>
<text text-anchor="start" x="146" y="-303" font-family="Helvetica,sans-Serif" font-size="10.00" fill="#000000"> head</text>
<text text-anchor="start" x="146" y="-291" font-family="Helvetica,sans-Serif" font-size="10.00" fill="#000000"> title</text>
<text text-anchor="start" x="146" y="-279" font-family="Helvetica,sans-Serif" font-size="10.00" fill="#000000"> body</text>
<polygon fill="none" stroke="#000000" points="141,-153 141,-271 288,-271 288,-153 141,-153"/>
<text text-anchor="start" x="146" y="-257" font-family="Helvetica,sans-Serif" font-size="10.00" fill="#000000"> load()</text>
<text text-anchor="start" x="146" y="-245" font-family="Helvetica,sans-Serif" font-size="10.00" fill="#000000"> getElementsByTagName()</text>
<text text-anchor="start" x="146" y="-233" font-family="Helvetica,sans-Serif" font-size="10.00" fill="#000000"> getElementsByTagNameNS()</text>
<text text-anchor="start" x="146" y="-221" font-family="Helvetica,sans-Serif" font-size="10.00" fill="#000000"> createElement()</text>
<text text-anchor="start" x="146" y="-209" font-family="Helvetica,sans-Serif" font-size="10.00" fill="#000000"> createElementNS()</text>
<text text-anchor="start" x="146" y="-197" font-family="Helvetica,sans-Serif" font-size="10.00" fill="#000000"> createTextNode()</text>
<text text-anchor="start" x="146" y="-185" font-family="Helvetica,sans-Serif" font-size="10.00" fill="#000000"> createComment()</text>
<text text-anchor="start" x="146" y="-173" font-family="Helvetica,sans-Serif" font-size="10.00" fill="#000000"> createCDATASection()</text>
<text text-anchor="start" x="146" y="-161" font-family="Helvetica,sans-Serif" font-size="10.00" fill="#000000"> createProcessingInstruction()</text>
</a>
</g>
</g>
<!-- XmlNode&#45;&gt;XmlDocument -->
<g id="edge6" class="edge">
<title>XmlNode&#45;&gt;XmlDocument</title>
<path fill="none" stroke="#000000" d="M287.7601,-452.5622C283.1187,-442.1441 278.4518,-431.6688 273.8427,-421.3232"/>
<polygon fill="#000000" stroke="#000000" points="284.5636,-453.9881 291.8303,-461.6982 290.9578,-451.1394 284.5636,-453.9881"/>
</g>
<!-- XmlDocumentType -->
<g id="node8" class="node">
<title>XmlDocumentType</title>
<g id="a_node8"><a xlink:href="XmlDocumentType.md" xlink:title="XmlDocumentType">
<polygon fill="#ffffff" stroke="transparent" points="305.5,-253 305.5,-321 400.5,-321 400.5,-253 305.5,-253"/>
<polygon fill="none" stroke="#000000" points="306,-299 306,-321 401,-321 401,-299 306,-299"/>
<text text-anchor="start" x="310.9965" y="-307" font-family="Helvetica,sans-Serif" font-size="10.00" fill="#000000">XmlDocumentType</text>
<polygon fill="none" stroke="#000000" points="306,-253 306,-299 401,-299 401,-253 306,-253"/>
<text text-anchor="start" x="311" y="-285" font-family="Helvetica,sans-Serif" font-size="10.00" fill="#000000"> name</text>
<text text-anchor="start" x="311" y="-273" font-family="Helvetica,sans-Serif" font-size="10.00" fill="#000000"> publicId</text>
<text text-anchor="start" x="311" y="-261" font-family="Helvetica,sans-Serif" font-size="10.00" fill="#000000"> systemId</text>
</a>
</g>
</g>
<!-- XmlNode&#45;&gt;XmlDocumentType -->
<g id="edge7" class="edge">
<title>XmlNode&#45;&gt;XmlDocumentType</title>
<path fill="none" stroke="#000000" d="M353,-447.499C353,-400.066 353,-352.078 353,-321.0952"/>
<polygon fill="#000000" stroke="#000000" points="349.5001,-447.6059 353,-457.606 356.5001,-447.606 349.5001,-447.6059"/>
</g>
<!-- XmlElement -->
<g id="node9" class="node">
<title>XmlElement</title>
<g id="a_node9"><a xlink:href="XmlElement.md" xlink:title="XmlElement">
<polygon fill="#ffffff" stroke="transparent" points="418.5,-152 418.5,-422 565.5,-422 565.5,-152 418.5,-152"/>
<polygon fill="none" stroke="#000000" points="419,-400 419,-422 566,-422 566,-400 419,-400"/>
<text text-anchor="start" x="465.555" y="-408" font-family="Helvetica,sans-Serif" font-size="10.00" fill="#000000">XmlElement</text>
<polygon fill="none" stroke="#000000" points="419,-282 419,-400 566,-400 566,-282 419,-282"/>
<text text-anchor="start" x="424" y="-386" font-family="Helvetica,sans-Serif" font-size="10.00" fill="#000000"> namespaceURI</text>
<text text-anchor="start" x="424" y="-374" font-family="Helvetica,sans-Serif" font-size="10.00" fill="#000000"> prefix</text>
<text text-anchor="start" x="424" y="-362" font-family="Helvetica,sans-Serif" font-size="10.00" fill="#000000"> localName</text>
<text text-anchor="start" x="424" y="-350" font-family="Helvetica,sans-Serif" font-size="10.00" fill="#000000"> tagName</text>
<text text-anchor="start" x="424" y="-338" font-family="Helvetica,sans-Serif" font-size="10.00" fill="#000000"> id</text>
<text text-anchor="start" x="424" y="-326" font-family="Helvetica,sans-Serif" font-size="10.00" fill="#000000"> textContent</text>
<text text-anchor="start" x="424" y="-314" font-family="Helvetica,sans-Serif" font-size="10.00" fill="#000000"> innerHTML</text>
<text text-anchor="start" x="424" y="-302" font-family="Helvetica,sans-Serif" font-size="10.00" fill="#000000"> className</text>
<text text-anchor="start" x="424" y="-290" font-family="Helvetica,sans-Serif" font-size="10.00" fill="#000000"> attributes</text>
<polygon fill="none" stroke="#000000" points="419,-152 419,-282 566,-282 566,-152 419,-152"/>
<text text-anchor="start" x="424" y="-268" font-family="Helvetica,sans-Serif" font-size="10.00" fill="#000000"> getAttribute()</text>
<text text-anchor="start" x="424" y="-256" font-family="Helvetica,sans-Serif" font-size="10.00" fill="#000000"> getAttributeNS()</text>
<text text-anchor="start" x="424" y="-244" font-family="Helvetica,sans-Serif" font-size="10.00" fill="#000000"> setAttribute()</text>
<text text-anchor="start" x="424" y="-232" font-family="Helvetica,sans-Serif" font-size="10.00" fill="#000000"> setAttributeNS()</text>
<text text-anchor="start" x="424" y="-220" font-family="Helvetica,sans-Serif" font-size="10.00" fill="#000000"> removeAttribute()</text>
<text text-anchor="start" x="424" y="-208" font-family="Helvetica,sans-Serif" font-size="10.00" fill="#000000"> removeAttributeNS()</text>
<text text-anchor="start" x="424" y="-196" font-family="Helvetica,sans-Serif" font-size="10.00" fill="#000000"> hasAttribute()</text>
<text text-anchor="start" x="424" y="-184" font-family="Helvetica,sans-Serif" font-size="10.00" fill="#000000"> hasAttributeNS()</text>
<text text-anchor="start" x="424" y="-172" font-family="Helvetica,sans-Serif" font-size="10.00" fill="#000000"> getElementsByTagName()</text>
<text text-anchor="start" x="424" y="-160" font-family="Helvetica,sans-Serif" font-size="10.00" fill="#000000"> getElementsByTagNameNS()</text>
</a>
</g>
</g>
<!-- XmlNode&#45;&gt;XmlElement -->
<g id="edge8" class="edge">
<title>XmlNode&#45;&gt;XmlElement</title>
<path fill="none" stroke="#000000" d="M418.2776,-452.4775C422.7603,-442.4158 427.2664,-432.3013 431.7211,-422.3023"/>
<polygon fill="#000000" stroke="#000000" points="415.0422,-451.1394 414.1697,-461.6982 421.4364,-453.9881 415.0422,-451.1394"/>
</g>
<!-- XmlProcessingInstruction -->
<g id="node10" class="node">
<title>XmlProcessingInstruction</title>
<g id="a_node10"><a xlink:href="XmlProcessingInstruction.md" xlink:title="XmlProcessingInstruction">
<polygon fill="#ffffff" stroke="transparent" points="584,-259 584,-315 706,-315 706,-259 584,-259"/>
<polygon fill="none" stroke="#000000" points="584,-293 584,-315 706,-315 706,-293 584,-293"/>
<text text-anchor="start" x="588.6045" y="-301" font-family="Helvetica,sans-Serif" font-size="10.00" fill="#000000">XmlProcessingInstruction</text>
<polygon fill="none" stroke="#000000" points="584,-259 584,-293 706,-293 706,-259 584,-259"/>
<text text-anchor="start" x="589" y="-279" font-family="Helvetica,sans-Serif" font-size="10.00" fill="#000000"> target</text>
<text text-anchor="start" x="589" y="-267" font-family="Helvetica,sans-Serif" font-size="10.00" fill="#000000"> data</text>
</a>
</g>
</g>
<!-- XmlNode&#45;&gt;XmlProcessingInstruction -->
<g id="edge9" class="edge">
<title>XmlNode&#45;&gt;XmlProcessingInstruction</title>
<path fill="none" stroke="#000000" d="M422.7958,-554.8182C470.0706,-522.339 531.5931,-474.8047 575,-422 602.0754,-389.0626 622.8481,-343.9552 634.4948,-315.1414"/>
<polygon fill="#000000" stroke="#000000" points="420.7396,-551.9838 414.4416,-560.5035 424.6779,-557.7709 420.7396,-551.9838"/>
</g>
<!-- XmlComment -->
<g id="node4" class="node">
<title>XmlComment</title>
<g id="a_node4"><a xlink:href="XmlComment.md" xlink:title="XmlComment">
<polygon fill="#ffffff" stroke="transparent" points="0,-83 0,-105 70,-105 70,-83 0,-83"/>
<polygon fill="none" stroke="#000000" points="0,-83 0,-105 70,-105 70,-83 0,-83"/>
<text text-anchor="start" x="4.725" y="-91" font-family="Helvetica,sans-Serif" font-size="10.00" fill="#000000">XmlComment</text>
</a>
</g>
</g>
<!-- XmlCharacterData&#45;&gt;XmlComment -->
<g id="edge3" class="edge">
<title>XmlCharacterData&#45;&gt;XmlComment</title>
<path fill="none" stroke="#000000" d="M60.4089,-213.6078C52.6201,-176.9435 43.8268,-135.5507 38.8953,-112.3364"/>
<polygon fill="#000000" stroke="#000000" points="57.0734,-214.7502 62.5751,-223.8046 63.9206,-213.2955 57.0734,-214.7502"/>
</g>
<!-- XmlText -->
<g id="node5" class="node">
<title>XmlText</title>
<g id="a_node5"><a xlink:href="XmlText.md" xlink:title="XmlText">
<polygon fill="#ffffff" stroke="transparent" points="88.5,-72 88.5,-116 147.5,-116 147.5,-72 88.5,-72"/>
<polygon fill="none" stroke="#000000" points="89,-94 89,-116 148,-116 148,-94 89,-94"/>
<text text-anchor="start" x="100.168" y="-102" font-family="Helvetica,sans-Serif" font-size="10.00" fill="#000000">XmlText</text>
<polygon fill="none" stroke="#000000" points="89,-72 89,-94 148,-94 148,-72 89,-72"/>
<text text-anchor="start" x="94" y="-80" font-family="Helvetica,sans-Serif" font-size="10.00" fill="#000000"> splitText()</text>
</a>
</g>
</g>
<!-- XmlCharacterData&#45;&gt;XmlText -->
<g id="edge4" class="edge">
<title>XmlCharacterData&#45;&gt;XmlText</title>
<path fill="none" stroke="#000000" d="M91.954,-213.6875C99.4933,-179.0427 107.9549,-140.1595 113.1308,-116.3753"/>
<polygon fill="#000000" stroke="#000000" points="88.4589,-213.289 89.7524,-223.8046 95.2988,-214.7775 88.4589,-213.289"/>
</g>
<!-- XmlCDATASection -->
<g id="node6" class="node">
<title>XmlCDATASection</title>
<g id="a_node6"><a xlink:href="XmlCDATASection.md" xlink:title="XmlCDATASection">
<polygon fill="#ffffff" stroke="transparent" points="71,-7 71,-29 165,-29 165,-7 71,-7"/>
<polygon fill="none" stroke="#000000" points="71,-7 71,-29 165,-29 165,-7 71,-7"/>
<text text-anchor="start" x="75.777" y="-15" font-family="Helvetica,sans-Serif" font-size="10.00" fill="#000000">XmlCDATASection</text>
</a>
</g>
</g>
<!-- XmlText&#45;&gt;XmlCDATASection -->
<g id="edge5" class="edge">
<title>XmlText&#45;&gt;XmlCDATASection</title>
<path fill="none" stroke="#000000" d="M118,-61.4591C118,-52.8855 118,-43.9333 118,-36.3975"/>
<polygon fill="#000000" stroke="#000000" points="114.5001,-61.6085 118,-71.6086 121.5001,-61.6086 114.5001,-61.6085"/>
</g>
</g>
</svg>
