<?xml version="1.0" encoding="UTF-8" standalone="no"?>
<!DOCTYPE svg PUBLIC "-//W3C//DTD SVG 1.1//EN"
 "http://www.w3.org/Graphics/SVG/1.1/DTD/svg11.dtd">
<!-- Generated by graphviz version 2.40.1 (20161225.0304)
 -->
<!-- Title: %0 Pages: 1 -->
<svg width="130pt" height="732pt"
 viewBox="0.00 0.00 130.00 732.00" xmlns="http://www.w3.org/2000/svg" xmlns:xlink="http://www.w3.org/1999/xlink">
<g id="graph0" class="graph" transform="scale(1 1) rotate(0) translate(4 728)">
<title>%0</title>
<polygon fill="#ffffff" stroke="transparent" points="-4,4 -4,-728 126,-728 126,4 -4,4"/>
<!-- object -->
<g id="node1" class="node">
<title>object</title>
<g id="a_node1"><a xlink:href="object.md" xlink:title="object">
<polygon fill="#ffffff" stroke="transparent" points="32.5,-632 32.5,-724 89.5,-724 89.5,-632 32.5,-632"/>
<polygon fill="none" stroke="#000000" points="33,-702 33,-724 90,-724 90,-702 33,-702"/>
<text text-anchor="start" x="48.1625" y="-710" font-family="Helvetica,sans-Serif" font-size="10.00" fill="#000000">object</text>
<polygon fill="none" stroke="#000000" points="33,-632 33,-702 90,-702 90,-632 33,-632"/>
<text text-anchor="start" x="38" y="-688" font-family="Helvetica,sans-Serif" font-size="10.00" fill="#000000"> dispose()</text>
<text text-anchor="start" x="38" y="-676" font-family="Helvetica,sans-Serif" font-size="10.00" fill="#000000"> equals()</text>
<text text-anchor="start" x="38" y="-664" font-family="Helvetica,sans-Serif" font-size="10.00" fill="#000000"> toString()</text>
<text text-anchor="start" x="38" y="-652" font-family="Helvetica,sans-Serif" font-size="10.00" fill="#000000"> toJSON()</text>
<text text-anchor="start" x="38" y="-640" font-family="Helvetica,sans-Serif" font-size="10.00" fill="#000000"> valueOf()</text>
</a>
</g>
</g>
<!-- XmlNode -->
<g id="node2" class="node">
<title>XmlNode</title>
<g id="a_node2"><a xlink:href="XmlNode.md" xlink:title="XmlNode">
<polygon fill="#ffffff" stroke="transparent" points="0,-314 0,-596 122,-596 122,-314 0,-314"/>
<polygon fill="none" stroke="#000000" points="0,-574 0,-596 122,-596 122,-574 0,-574"/>
<text text-anchor="start" x="40.4435" y="-582" font-family="Helvetica,sans-Serif" font-size="10.00" fill="#000000">XmlNode</text>
<polygon fill="none" stroke="#000000" points="0,-444 0,-574 122,-574 122,-444 0,-444"/>
<text text-anchor="start" x="5" y="-560" font-family="Helvetica,sans-Serif" font-size="10.00" fill="#000000"> nodeType</text>
<text text-anchor="start" x="5" y="-548" font-family="Helvetica,sans-Serif" font-size="10.00" fill="#000000"> nodeName</text>
<text text-anchor="start" x="5" y="-536" font-family="Helvetica,sans-Serif" font-size="10.00" fill="#000000"> nodeValue</text>
<text text-anchor="start" x="5" y="-524" font-family="Helvetica,sans-Serif" font-size="10.00" fill="#000000"> ownerDocument</text>
<text text-anchor="start" x="5" y="-512" font-family="Helvetica,sans-Serif" font-size="10.00" fill="#000000"> parentNode</text>
<text text-anchor="start" x="5" y="-500" font-family="Helvetica,sans-Serif" font-size="10.00" fill="#000000"> childNodes</text>
<text text-anchor="start" x="5" y="-488" font-family="Helvetica,sans-Serif" font-size="10.00" fill="#000000"> firstChild</text>
<text text-anchor="start" x="5" y="-476" font-family="Helvetica,sans-Serif" font-size="10.00" fill="#000000"> lastChild</text>
<text text-anchor="start" x="5" y="-464" font-family="Helvetica,sans-Serif" font-size="10.00" fill="#000000"> previousSibling</text>
<text text-anchor="start" x="5" y="-452" font-family="Helvetica,sans-Serif" font-size="10.00" fill="#000000"> nextSibling</text>
<polygon fill="none" stroke="#000000" points="0,-314 0,-444 122,-444 122,-314 0,-314"/>
<text text-anchor="start" x="5" y="-430" font-family="Helvetica,sans-Serif" font-size="10.00" fill="#000000"> hasChildNodes()</text>
<text text-anchor="start" x="5" y="-418" font-family="Helvetica,sans-Serif" font-size="10.00" fill="#000000"> normalize()</text>
<text text-anchor="start" x="5" y="-406" font-family="Helvetica,sans-Serif" font-size="10.00" fill="#000000"> cloneNode()</text>
<text text-anchor="start" x="5" y="-394" font-family="Helvetica,sans-Serif" font-size="10.00" fill="#000000"> lookupPrefix()</text>
<text text-anchor="start" x="5" y="-382" font-family="Helvetica,sans-Serif" font-size="10.00" fill="#000000"> lookupNamespaceURI()</text>
<text text-anchor="start" x="5" y="-370" font-family="Helvetica,sans-Serif" font-size="10.00" fill="#000000"> insertBefore()</text>
<text text-anchor="start" x="5" y="-358" font-family="Helvetica,sans-Serif" font-size="10.00" fill="#000000"> insertAfter()</text>
<text text-anchor="start" x="5" y="-346" font-family="Helvetica,sans-Serif" font-size="10.00" fill="#000000"> appendChild()</text>
<text text-anchor="start" x="5" y="-334" font-family="Helvetica,sans-Serif" font-size="10.00" fill="#000000"> replaceChild()</text>
<text text-anchor="start" x="5" y="-322" font-family="Helvetica,sans-Serif" font-size="10.00" fill="#000000"> removeChild()</text>
</a>
</g>
</g>
<!-- object&#45;&gt;XmlNode -->
<g id="edge1" class="edge">
<title>object&#45;&gt;XmlNode</title>
<path fill="none" stroke="#000000" d="M61,-621.5484C61,-613.5161 61,-604.975 61,-596.1675"/>
<polygon fill="#000000" stroke="#000000" points="57.5001,-621.7942 61,-631.7943 64.5001,-621.7943 57.5001,-621.7942"/>
</g>
<!-- XmlCharacterData -->
<g id="node3" class="node">
<title>XmlCharacterData</title>
<g id="a_node3"><a xlink:href="XmlCharacterData.md" xlink:title="XmlCharacterData">
<polygon fill="#ffffff" stroke="transparent" points="15,-152 15,-278 107,-278 107,-152 15,-152"/>
<polygon fill="none" stroke="#000000" points="15,-256 15,-278 107,-278 107,-256 15,-256"/>
<text text-anchor="start" x="19.8875" y="-264" font-family="Helvetica,sans-Serif" font-size="10.00" fill="#000000">XmlCharacterData</text>
<polygon fill="none" stroke="#000000" points="15,-222 15,-256 107,-256 107,-222 15,-222"/>
<text text-anchor="start" x="20" y="-242" font-family="Helvetica,sans-Serif" font-size="10.00" fill="#000000"> data</text>
<text text-anchor="start" x="20" y="-230" font-family="Helvetica,sans-Serif" font-size="10.00" fill="#000000"> length</text>
<polygon fill="none" stroke="#000000" points="15,-152 15,-222 107,-222 107,-152 15,-152"/>
<text text-anchor="start" x="20" y="-208" font-family="Helvetica,sans-Serif" font-size="10.00" fill="#000000"> substringData()</text>
<text text-anchor="start" x="20" y="-196" font-family="Helvetica,sans-Serif" font-size="10.00" fill="#000000"> appendData()</text>
<text text-anchor="start" x="20" y="-184" font-family="Helvetica,sans-Serif" font-size="10.00" fill="#000000"> insertData()</text>
<text text-anchor="start" x="20" y="-172" font-family="Helvetica,sans-Serif" font-size="10.00" fill="#000000"> deleteData()</text>
<text text-anchor="start" x="20" y="-160" font-family="Helvetica,sans-Serif" font-size="10.00" fill="#000000"> replaceData()</text>
</a>
</g>
</g>
<!-- XmlNode&#45;&gt;XmlCharacterData -->
<g id="edge2" class="edge">
<title>XmlNode&#45;&gt;XmlCharacterData</title>
<path fill="none" stroke="#000000" d="M61,-303.6362C61,-294.8425 61,-286.2905 61,-278.1877"/>
<polygon fill="#000000" stroke="#000000" points="57.5001,-303.6561 61,-313.6562 64.5001,-303.6562 57.5001,-303.6561"/>
</g>
<!-- XmlText -->
<g id="node4" class="node">
<title>XmlText</title>
<g id="a_node4"><a xlink:title="XmlText">
<polygon fill="#d3d3d3" stroke="transparent" points="31.5,-72 31.5,-116 90.5,-116 90.5,-72 31.5,-72"/>
<polygon fill="none" stroke="#000000" points="32,-94 32,-116 91,-116 91,-94 32,-94"/>
<text text-anchor="start" x="43.168" y="-102" font-family="Helvetica,sans-Serif" font-size="10.00" fill="#000000">XmlText</text>
<polygon fill="none" stroke="#000000" points="32,-72 32,-94 91,-94 91,-72 32,-72"/>
<text text-anchor="start" x="37" y="-80" font-family="Helvetica,sans-Serif" font-size="10.00" fill="#000000"> splitText()</text>
</a>
</g>
</g>
<!-- XmlCharacterData&#45;&gt;XmlText -->
<g id="edge3" class="edge">
<title>XmlCharacterData&#45;&gt;XmlText</title>
<path fill="none" stroke="#000000" d="M61,-141.5375C61,-132.317 61,-123.518 61,-116.0526"/>
<polygon fill="#000000" stroke="#000000" points="57.5001,-141.665 61,-151.665 64.5001,-141.665 57.5001,-141.665"/>
</g>
<!-- XmlCDATASection -->
<g id="node5" class="node">
<title>XmlCDATASection</title>
<g id="a_node5"><a xlink:href="XmlCDATASection.md" xlink:title="XmlCDATASection">
<polygon fill="#ffffff" stroke="transparent" points="14,-7 14,-29 108,-29 108,-7 14,-7"/>
<polygon fill="none" stroke="#000000" points="14,-7 14,-29 108,-29 108,-7 14,-7"/>
<text text-anchor="start" x="18.777" y="-15" font-family="Helvetica,sans-Serif" font-size="10.00" fill="#000000">XmlCDATASection</text>
</a>
</g>
</g>
<!-- XmlText&#45;&gt;XmlCDATASection -->
<g id="edge4" class="edge">
<title>XmlText&#45;&gt;XmlCDATASection</title>
<path fill="none" stroke="#000000" d="M61,-61.4591C61,-52.8855 61,-43.9333 61,-36.3975"/>
<polygon fill="#000000" stroke="#000000" points="57.5001,-61.6085 61,-71.6086 64.5001,-61.6086 57.5001,-61.6085"/>
</g>
</g>
</svg>
