<?xml version="1.0" encoding="UTF-8" standalone="no"?>
<!DOCTYPE svg PUBLIC "-//W3C//DTD SVG 1.1//EN"
 "http://www.w3.org/Graphics/SVG/1.1/DTD/svg11.dtd">
<!-- Generated by graphviz version 2.40.1 (20161225.0304)
 -->
<!-- Title: %0 Pages: 1 -->
<svg width="71pt" height="276pt"
 viewBox="0.00 0.00 71.00 276.00" xmlns="http://www.w3.org/2000/svg" xmlns:xlink="http://www.w3.org/1999/xlink">
<g id="graph0" class="graph" transform="scale(1 1) rotate(0) translate(4 272)">
<title>%0</title>
<polygon fill="#ffffff" stroke="transparent" points="-4,4 -4,-272 67,-272 67,4 -4,4"/>
<!-- object -->
<g id="node1" class="node">
<title>object</title>
<g id="a_node1"><a xlink:href="object.md" xlink:title="object">
<polygon fill="#ffffff" stroke="transparent" points="3,-176 3,-268 60,-268 60,-176 3,-176"/>
<polygon fill="none" stroke="#000000" points="3.5,-246 3.5,-268 60.5,-268 60.5,-246 3.5,-246"/>
<text text-anchor="start" x="18.6625" y="-254" font-family="Helvetica,sans-Serif" font-size="10.00" fill="#000000">object</text>
<polygon fill="none" stroke="#000000" points="3.5,-176 3.5,-246 60.5,-246 60.5,-176 3.5,-176"/>
<text text-anchor="start" x="8.5" y="-232" font-family="Helvetica,sans-Serif" font-size="10.00" fill="#000000"> dispose()</text>
<text text-anchor="start" x="8.5" y="-220" font-family="Helvetica,sans-Serif" font-size="10.00" fill="#000000"> equals()</text>
<text text-anchor="start" x="8.5" y="-208" font-family="Helvetica,sans-Serif" font-size="10.00" fill="#000000"> toString()</text>
<text text-anchor="start" x="8.5" y="-196" font-family="Helvetica,sans-Serif" font-size="10.00" fill="#000000"> toJSON()</text>
<text text-anchor="start" x="8.5" y="-184" font-family="Helvetica,sans-Serif" font-size="10.00" fill="#000000"> valueOf()</text>
</a>
</g>
</g>
<!-- ZipFile -->
<g id="node2" class="node">
<title>ZipFile</title>
<g id="a_node2"><a xlink:title="ZipFile">
<polygon fill="#d3d3d3" stroke="transparent" points="0,0 0,-140 63,-140 63,0 0,0"/>
<polygon fill="none" stroke="#000000" points=".5,-118 .5,-140 63.5,-140 63.5,-118 .5,-118"/>
<text text-anchor="start" x="17.0035" y="-126" font-family="Helvetica,sans-Serif" font-size="10.00" fill="#000000">ZipFile</text>
<polygon fill="none" stroke="#000000" points=".5,0 .5,-118 63.5,-118 63.5,0 .5,0"/>
<text text-anchor="start" x="5.5" y="-104" font-family="Helvetica,sans-Serif" font-size="10.00" fill="#000000"> namelist()</text>
<text text-anchor="start" x="5.5" y="-92" font-family="Helvetica,sans-Serif" font-size="10.00" fill="#000000"> infolist()</text>
<text text-anchor="start" x="5.5" y="-80" font-family="Helvetica,sans-Serif" font-size="10.00" fill="#000000"> getinfo()</text>
<text text-anchor="start" x="5.5" y="-68" font-family="Helvetica,sans-Serif" font-size="10.00" fill="#000000"> read()</text>
<text text-anchor="start" x="5.5" y="-56" font-family="Helvetica,sans-Serif" font-size="10.00" fill="#000000"> readAll()</text>
<text text-anchor="start" x="5.5" y="-44" font-family="Helvetica,sans-Serif" font-size="10.00" fill="#000000"> extract()</text>
<text text-anchor="start" x="5.5" y="-32" font-family="Helvetica,sans-Serif" font-size="10.00" fill="#000000"> extractAll()</text>
<text text-anchor="start" x="5.5" y="-20" font-family="Helvetica,sans-Serif" font-size="10.00" fill="#000000"> write()</text>
<text text-anchor="start" x="5.5" y="-8" font-family="Helvetica,sans-Serif" font-size="10.00" fill="#000000"> close()</text>
</a>
</g>
</g>
<!-- object&#45;&gt;ZipFile -->
<g id="edge1" class="edge">
<title>object&#45;&gt;ZipFile</title>
<path fill="none" stroke="#000000" d="M31.5,-165.9751C31.5,-157.6048 31.5,-148.8865 31.5,-140.2671"/>
<polygon fill="#000000" stroke="#000000" points="28.0001,-165.9825 31.5,-175.9825 35.0001,-165.9825 28.0001,-165.9825"/>
</g>
</g>
</svg>
