<?xml version="1.0" encoding="UTF-8" standalone="no"?>
<!DOCTYPE svg PUBLIC "-//W3C//DTD SVG 1.1//EN"
 "http://www.w3.org/Graphics/SVG/1.1/DTD/svg11.dtd">
<!-- Generated by graphviz version 2.40.1 (20161225.0304)
 -->
<!-- Title: %0 Pages: 1 -->
<svg width="72pt" height="270pt"
 viewBox="0.00 0.00 71.77 270.00" xmlns="http://www.w3.org/2000/svg" xmlns:xlink="http://www.w3.org/1999/xlink">
<g id="graph0" class="graph" transform="scale(1 1) rotate(0) translate(4 266)">
<title>%0</title>
<polygon fill="#ffffff" stroke="transparent" points="-4,4 -4,-266 67.77,-266 67.77,4 -4,4"/>
<!-- object -->
<g id="node1" class="node">
<title>object</title>
<g id="a_node1"><a xlink:href="object.md" xlink:title="object">
<polygon fill="#ffffff" stroke="#000000" points="3.0535,-173.5 3.0535,-261.5 60.7165,-261.5 60.7165,-173.5 3.0535,-173.5"/>
<text text-anchor="middle" x="31.885" y="-248.5" font-family="Helvetica,sans-Serif" font-size="10.00" fill="#000000">object</text>
<polyline fill="none" stroke="#000000" points="3.0535,-241.5 60.7165,-241.5 "/>
<text text-anchor="start" x="11.0535" y="-228.5" font-family="Helvetica,sans-Serif" font-size="10.00" fill="#000000">dispose()</text>
<text text-anchor="start" x="11.0535" y="-216.5" font-family="Helvetica,sans-Serif" font-size="10.00" fill="#000000">equals()</text>
<text text-anchor="start" x="11.0535" y="-204.5" font-family="Helvetica,sans-Serif" font-size="10.00" fill="#000000">toString()</text>
<text text-anchor="start" x="11.0535" y="-192.5" font-family="Helvetica,sans-Serif" font-size="10.00" fill="#000000">toJSON()</text>
<text text-anchor="start" x="11.0535" y="-180.5" font-family="Helvetica,sans-Serif" font-size="10.00" fill="#000000">valueOf()</text>
</a>
</g>
</g>
<!-- ZipFile -->
<g id="node2" class="node">
<title>ZipFile</title>
<g id="a_node2"><a xlink:title="ZipFile">
<polygon fill="#d3d3d3" stroke="#000000" points="0,-.5 0,-136.5 63.77,-136.5 63.77,-.5 0,-.5"/>
<text text-anchor="middle" x="31.885" y="-123.5" font-family="Helvetica,sans-Serif" font-size="10.00" fill="#000000">ZipFile</text>
<polyline fill="none" stroke="#000000" points="0,-116.5 63.77,-116.5 "/>
<text text-anchor="start" x="8" y="-103.5" font-family="Helvetica,sans-Serif" font-size="10.00" fill="#000000">namelist()</text>
<text text-anchor="start" x="8" y="-91.5" font-family="Helvetica,sans-Serif" font-size="10.00" fill="#000000">infolist()</text>
<text text-anchor="start" x="8" y="-79.5" font-family="Helvetica,sans-Serif" font-size="10.00" fill="#000000">getinfo()</text>
<text text-anchor="start" x="8" y="-67.5" font-family="Helvetica,sans-Serif" font-size="10.00" fill="#000000">read()</text>
<text text-anchor="start" x="8" y="-55.5" font-family="Helvetica,sans-Serif" font-size="10.00" fill="#000000">readAll()</text>
<text text-anchor="start" x="8" y="-43.5" font-family="Helvetica,sans-Serif" font-size="10.00" fill="#000000">extract()</text>
<text text-anchor="start" x="8" y="-31.5" font-family="Helvetica,sans-Serif" font-size="10.00" fill="#000000">extractAll()</text>
<text text-anchor="start" x="8" y="-19.5" font-family="Helvetica,sans-Serif" font-size="10.00" fill="#000000">write()</text>
<text text-anchor="start" x="8" y="-7.5" font-family="Helvetica,sans-Serif" font-size="10.00" fill="#000000">close()</text>
</a>
</g>
</g>
<!-- object&#45;&gt;ZipFile -->
<g id="edge1" class="edge">
<title>object&#45;&gt;ZipFile</title>
<path fill="none" stroke="#000000" d="M31.885,-162.9744C31.885,-154.4103 31.885,-145.466 31.885,-136.6415"/>
<polygon fill="#000000" stroke="#000000" points="28.3851,-163.1985 31.885,-173.1985 35.3851,-163.1985 28.3851,-163.1985"/>
</g>
</g>
</svg>
