<?xml version="1.0" encoding="UTF-8" standalone="no"?>
<!DOCTYPE svg PUBLIC "-//W3C//DTD SVG 1.1//EN"
 "http://www.w3.org/Graphics/SVG/1.1/DTD/svg11.dtd">
<!-- Generated by graphviz version 2.40.1 (20161225.0304)
 -->
<!-- Title: XmlText Pages: 1 -->
<svg width="139pt" height="687pt"
 viewBox="0.00 0.00 139.33 687.00" xmlns="http://www.w3.org/2000/svg" xmlns:xlink="http://www.w3.org/1999/xlink">
<g id="graph0" class="graph" transform="scale(1 1) rotate(0) translate(4 683)">
<title>XmlText</title>
<polygon fill="#ffffff" stroke="transparent" points="-4,4 -4,-683 135.3271,-683 135.3271,4 -4,4"/>
<!-- Node0 -->
<g id="node1" class="node">
<title>Node0</title>
<polygon fill="#bfbfbf" stroke="#000000" points="31.9629,-91.5 31.9629,-145.5 99.3643,-145.5 99.3643,-91.5 31.9629,-91.5"/>
<text text-anchor="middle" x="65.6636" y="-133.5" font-family="Helvetica,sans-Serif" font-size="10.00" fill="#000000">XmlText</text>
<polyline fill="none" stroke="#000000" points="31.9629,-127.5 99.3643,-127.5 "/>
<text text-anchor="middle" x="65.6636" y="-115.5" font-family="Helvetica,sans-Serif" font-size="10.00" fill="#000000"> </text>
<polyline fill="none" stroke="#000000" points="31.9629,-109.5 99.3643,-109.5 "/>
<text text-anchor="start" x="39.9629" y="-97.5" font-family="Helvetica,sans-Serif" font-size="10.00" fill="#000000">+ splitText()</text>
</g>
<!-- Node4 -->
<g id="node5" class="node">
<title>Node4</title>
<g id="a_node5"><a xlink:href="$d4/dd8/interfaceXmlCDATASection.html" xlink:title="CDATA section for XmlCDATASection. ">
<polygon fill="#ffffff" stroke="#000000" points="16.167,-.5 16.167,-54.5 115.1602,-54.5 115.1602,-.5 16.167,-.5"/>
<text text-anchor="middle" x="65.6636" y="-42.5" font-family="Helvetica,sans-Serif" font-size="10.00" fill="#000000">XmlCDATASection</text>
<polyline fill="none" stroke="#000000" points="16.167,-36.5 115.1602,-36.5 "/>
<text text-anchor="middle" x="65.6636" y="-24.5" font-family="Helvetica,sans-Serif" font-size="10.00" fill="#000000"> </text>
<polyline fill="none" stroke="#000000" points="16.167,-18.5 115.1602,-18.5 "/>
<text text-anchor="middle" x="65.6636" y="-6.5" font-family="Helvetica,sans-Serif" font-size="10.00" fill="#000000"> </text>
</a>
</g>
</g>
<!-- Node0&#45;&gt;Node4 -->
<g id="edge4" class="edge">
<title>Node0&#45;&gt;Node4</title>
<path fill="none" stroke="#191970" d="M65.6636,-81.12C65.6636,-72.3006 65.6636,-63.0605 65.6636,-54.7837"/>
<polygon fill="none" stroke="#191970" points="62.1637,-81.197 65.6636,-91.197 69.1637,-81.197 62.1637,-81.197"/>
</g>
<!-- Node1 -->
<g id="node2" class="node">
<title>Node1</title>
<g id="a_node2"><a xlink:href="$d7/d50/interfaceXmlCharacterData.html" xlink:title="XmlCharacterData provides common features to XmlText and XmlComment. ">
<polygon fill="#ffffff" stroke="#000000" points="16.5381,-182.5 16.5381,-286.5 114.7891,-286.5 114.7891,-182.5 16.5381,-182.5"/>
<text text-anchor="middle" x="65.6636" y="-274.5" font-family="Helvetica,sans-Serif" font-size="10.00" fill="#000000">XmlCharacterData</text>
<polyline fill="none" stroke="#000000" points="16.5381,-268.5 114.7891,-268.5 "/>
<text text-anchor="start" x="24.5381" y="-256.5" font-family="Helvetica,sans-Serif" font-size="10.00" fill="#000000">+ data</text>
<text text-anchor="start" x="24.5381" y="-246.5" font-family="Helvetica,sans-Serif" font-size="10.00" fill="#000000">+ length</text>
<polyline fill="none" stroke="#000000" points="16.5381,-240.5 114.7891,-240.5 "/>
<text text-anchor="start" x="24.5381" y="-228.5" font-family="Helvetica,sans-Serif" font-size="10.00" fill="#000000">+ substringData()</text>
<text text-anchor="start" x="24.5381" y="-218.5" font-family="Helvetica,sans-Serif" font-size="10.00" fill="#000000">+ appendData()</text>
<text text-anchor="start" x="24.5381" y="-208.5" font-family="Helvetica,sans-Serif" font-size="10.00" fill="#000000">+ insertData()</text>
<text text-anchor="start" x="24.5381" y="-198.5" font-family="Helvetica,sans-Serif" font-size="10.00" fill="#000000">+ deleteData()</text>
<text text-anchor="start" x="24.5381" y="-188.5" font-family="Helvetica,sans-Serif" font-size="10.00" fill="#000000">+ replaceData()</text>
</a>
</g>
</g>
<!-- Node1&#45;&gt;Node0 -->
<g id="edge1" class="edge">
<title>Node1&#45;&gt;Node0</title>
<path fill="none" stroke="#191970" d="M65.6636,-172.173C65.6636,-162.881 65.6636,-153.7379 65.6636,-145.7049"/>
<polygon fill="none" stroke="#191970" points="62.1637,-172.2688 65.6636,-182.2689 69.1637,-172.2689 62.1637,-172.2688"/>
</g>
<!-- Node2 -->
<g id="node3" class="node">
<title>Node2</title>
<g id="a_node3"><a xlink:href="$dc/d8f/interfaceXmlNode.html" xlink:title="XmlNode object is fundamental data type of entire DOM. ">
<polygon fill="#ffffff" stroke="#000000" points="0,-323.5 0,-557.5 131.3271,-557.5 131.3271,-323.5 0,-323.5"/>
<text text-anchor="middle" x="65.6636" y="-545.5" font-family="Helvetica,sans-Serif" font-size="10.00" fill="#000000">XmlNode</text>
<polyline fill="none" stroke="#000000" points="0,-539.5 131.3271,-539.5 "/>
<text text-anchor="start" x="8" y="-527.5" font-family="Helvetica,sans-Serif" font-size="10.00" fill="#000000">+ nodeType</text>
<text text-anchor="start" x="8" y="-517.5" font-family="Helvetica,sans-Serif" font-size="10.00" fill="#000000">+ nodeName</text>
<text text-anchor="start" x="8" y="-507.5" font-family="Helvetica,sans-Serif" font-size="10.00" fill="#000000">+ nodeValue</text>
<text text-anchor="start" x="8" y="-497.5" font-family="Helvetica,sans-Serif" font-size="10.00" fill="#000000">+ ownerDocument</text>
<text text-anchor="start" x="8" y="-487.5" font-family="Helvetica,sans-Serif" font-size="10.00" fill="#000000">+ parentNode</text>
<text text-anchor="start" x="8" y="-477.5" font-family="Helvetica,sans-Serif" font-size="10.00" fill="#000000">+ childNodes</text>
<text text-anchor="start" x="8" y="-467.5" font-family="Helvetica,sans-Serif" font-size="10.00" fill="#000000">+ firstChild</text>
<text text-anchor="start" x="8" y="-457.5" font-family="Helvetica,sans-Serif" font-size="10.00" fill="#000000">+ lastChild</text>
<text text-anchor="start" x="8" y="-447.5" font-family="Helvetica,sans-Serif" font-size="10.00" fill="#000000">+ previousSibling</text>
<text text-anchor="start" x="8" y="-437.5" font-family="Helvetica,sans-Serif" font-size="10.00" fill="#000000">+ nextSibling</text>
<polyline fill="none" stroke="#000000" points="0,-431.5 131.3271,-431.5 "/>
<text text-anchor="start" x="8" y="-419.5" font-family="Helvetica,sans-Serif" font-size="10.00" fill="#000000">+ hasChildNodes()</text>
<text text-anchor="start" x="8" y="-409.5" font-family="Helvetica,sans-Serif" font-size="10.00" fill="#000000">+ normalize()</text>
<text text-anchor="start" x="8" y="-399.5" font-family="Helvetica,sans-Serif" font-size="10.00" fill="#000000">+ cloneNode()</text>
<text text-anchor="start" x="8" y="-389.5" font-family="Helvetica,sans-Serif" font-size="10.00" fill="#000000">+ lookupPrefix()</text>
<text text-anchor="start" x="8" y="-379.5" font-family="Helvetica,sans-Serif" font-size="10.00" fill="#000000">+ lookupNamespaceURI()</text>
<text text-anchor="start" x="8" y="-369.5" font-family="Helvetica,sans-Serif" font-size="10.00" fill="#000000">+ insertBefore()</text>
<text text-anchor="start" x="8" y="-359.5" font-family="Helvetica,sans-Serif" font-size="10.00" fill="#000000">+ insertAfter()</text>
<text text-anchor="start" x="8" y="-349.5" font-family="Helvetica,sans-Serif" font-size="10.00" fill="#000000">+ appendChild()</text>
<text text-anchor="start" x="8" y="-339.5" font-family="Helvetica,sans-Serif" font-size="10.00" fill="#000000">+ replaceChild()</text>
<text text-anchor="start" x="8" y="-329.5" font-family="Helvetica,sans-Serif" font-size="10.00" fill="#000000">+ removeChild()</text>
</a>
</g>
</g>
<!-- Node2&#45;&gt;Node1 -->
<g id="edge2" class="edge">
<title>Node2&#45;&gt;Node1</title>
<path fill="none" stroke="#191970" d="M65.6636,-313.3281C65.6636,-304.1697 65.6636,-295.2815 65.6636,-286.9759"/>
<polygon fill="none" stroke="#191970" points="62.1637,-313.3572 65.6636,-323.3572 69.1637,-313.3573 62.1637,-313.3572"/>
</g>
<!-- Node3 -->
<g id="node4" class="node">
<title>Node3</title>
<g id="a_node4"><a xlink:href="$db/d38/interfaceobject.html" xlink:title="All objects inherit from this. ">
<polygon fill="#ffffff" stroke="#000000" points="32.5195,-594.5 32.5195,-678.5 98.8076,-678.5 98.8076,-594.5 32.5195,-594.5"/>
<text text-anchor="middle" x="65.6636" y="-666.5" font-family="Helvetica,sans-Serif" font-size="10.00" fill="#000000">object</text>
<polyline fill="none" stroke="#000000" points="32.5195,-660.5 98.8076,-660.5 "/>
<text text-anchor="middle" x="65.6636" y="-648.5" font-family="Helvetica,sans-Serif" font-size="10.00" fill="#000000"> </text>
<polyline fill="none" stroke="#000000" points="32.5195,-642.5 98.8076,-642.5 "/>
<text text-anchor="start" x="40.5195" y="-630.5" font-family="Helvetica,sans-Serif" font-size="10.00" fill="#000000">+ dispose()</text>
<text text-anchor="start" x="40.5195" y="-620.5" font-family="Helvetica,sans-Serif" font-size="10.00" fill="#000000">+ toString()</text>
<text text-anchor="start" x="40.5195" y="-610.5" font-family="Helvetica,sans-Serif" font-size="10.00" fill="#000000">+ toJSON()</text>
<text text-anchor="start" x="40.5195" y="-600.5" font-family="Helvetica,sans-Serif" font-size="10.00" fill="#000000">+ valueOf()</text>
</a>
</g>
</g>
<!-- Node3&#45;&gt;Node2 -->
<g id="edge3" class="edge">
<title>Node3&#45;&gt;Node2</title>
<path fill="none" stroke="#191970" d="M65.6636,-584.1775C65.6636,-575.8031 65.6636,-566.8553 65.6636,-557.6739"/>
<polygon fill="none" stroke="#191970" points="62.1637,-584.453 65.6636,-594.4531 69.1637,-584.4531 62.1637,-584.453"/>
</g>
</g>
</svg>
