<?xml version="1.0" encoding="UTF-8" standalone="no"?>
<!DOCTYPE svg PUBLIC "-//W3C//DTD SVG 1.1//EN"
 "http://www.w3.org/Graphics/SVG/1.1/DTD/svg11.dtd">
<!-- Generated by graphviz version 2.40.1 (20161225.0304)
 -->
<!-- Title: GridFS Pages: 1 -->
<svg width="74pt" height="234pt"
 viewBox="0.00 0.00 74.29 234.00" xmlns="http://www.w3.org/2000/svg" xmlns:xlink="http://www.w3.org/1999/xlink">
<g id="graph0" class="graph" transform="scale(1 1) rotate(0) translate(4 230)">
<title>GridFS</title>
<polygon fill="#ffffff" stroke="transparent" points="-4,4 -4,-230 70.2881,-230 70.2881,4 -4,4"/>
<!-- Node0 -->
<g id="node1" class="node">
<title>Node0</title>
<polygon fill="#bfbfbf" stroke="#000000" points=".8325,-.5 .8325,-104.5 65.4556,-104.5 65.4556,-.5 .8325,-.5"/>
<text text-anchor="middle" x="33.144" y="-92.5" font-family="Helvetica,sans-Serif" font-size="10.00" fill="#000000">GridFS</text>
<polyline fill="none" stroke="#000000" points=".8325,-86.5 65.4556,-86.5 "/>
<text text-anchor="start" x="8.8325" y="-74.5" font-family="Helvetica,sans-Serif" font-size="10.00" fill="#000000">+ files</text>
<text text-anchor="start" x="8.8325" y="-64.5" font-family="Helvetica,sans-Serif" font-size="10.00" fill="#000000">+ chunks</text>
<polyline fill="none" stroke="#000000" points=".8325,-58.5 65.4556,-58.5 "/>
<text text-anchor="start" x="8.8325" y="-46.5" font-family="Helvetica,sans-Serif" font-size="10.00" fill="#000000">+ retrieve()</text>
<text text-anchor="start" x="8.8325" y="-36.5" font-family="Helvetica,sans-Serif" font-size="10.00" fill="#000000">+ store()</text>
<text text-anchor="start" x="8.8325" y="-26.5" font-family="Helvetica,sans-Serif" font-size="10.00" fill="#000000">+ store()</text>
<text text-anchor="start" x="8.8325" y="-16.5" font-family="Helvetica,sans-Serif" font-size="10.00" fill="#000000">+ exists()</text>
<text text-anchor="start" x="8.8325" y="-6.5" font-family="Helvetica,sans-Serif" font-size="10.00" fill="#000000">+ remove()</text>
</g>
<!-- Node1 -->
<g id="node2" class="node">
<title>Node1</title>
<g id="a_node2"><a xlink:href="../../db/d38/interfaceobject.html" target="_top" xlink:title="All objects inherit from this. ">
<polygon fill="#ffffff" stroke="#000000" points="0,-141.5 0,-225.5 66.2881,-225.5 66.2881,-141.5 0,-141.5"/>
<text text-anchor="middle" x="33.144" y="-213.5" font-family="Helvetica,sans-Serif" font-size="10.00" fill="#000000">object</text>
<polyline fill="none" stroke="#000000" points="0,-207.5 66.2881,-207.5 "/>
<text text-anchor="middle" x="33.144" y="-195.5" font-family="Helvetica,sans-Serif" font-size="10.00" fill="#000000"> </text>
<polyline fill="none" stroke="#000000" points="0,-189.5 66.2881,-189.5 "/>
<text text-anchor="start" x="8" y="-177.5" font-family="Helvetica,sans-Serif" font-size="10.00" fill="#000000">+ dispose()</text>
<text text-anchor="start" x="8" y="-167.5" font-family="Helvetica,sans-Serif" font-size="10.00" fill="#000000">+ toString()</text>
<text text-anchor="start" x="8" y="-157.5" font-family="Helvetica,sans-Serif" font-size="10.00" fill="#000000">+ toJSON()</text>
<text text-anchor="start" x="8" y="-147.5" font-family="Helvetica,sans-Serif" font-size="10.00" fill="#000000">+ valueOf()</text>
</a>
</g>
</g>
<!-- Node1&#45;&gt;Node0 -->
<g id="edge1" class="edge">
<title>Node1&#45;&gt;Node0</title>
<path fill="none" stroke="#191970" d="M33.144,-131.2546C33.144,-122.5097 33.144,-113.4358 33.144,-104.6923"/>
<polygon fill="none" stroke="#191970" points="29.6441,-131.3297 33.144,-141.3297 36.6441,-131.3297 29.6441,-131.3297"/>
</g>
</g>
</svg>
