<?xml version="1.0" encoding="UTF-8" standalone="no"?>
<!DOCTYPE svg PUBLIC "-//W3C//DTD SVG 1.1//EN"
 "http://www.w3.org/Graphics/SVG/1.1/DTD/svg11.dtd">
<!-- Generated by graphviz version 2.40.1 (20161225.0304)
 -->
<!-- Title: %0 Pages: 1 -->
<svg width="109pt" height="422pt"
 viewBox="0.00 0.00 109.00 422.00" xmlns="http://www.w3.org/2000/svg" xmlns:xlink="http://www.w3.org/1999/xlink">
<g id="graph0" class="graph" transform="scale(1 1) rotate(0) translate(4 418)">
<title>%0</title>
<polygon fill="#ffffff" stroke="transparent" points="-4,4 -4,-418 105,-418 105,4 -4,4"/>
<!-- object -->
<g id="node1" class="node">
<title>object</title>
<g id="a_node1"><a xlink:href="object.md" xlink:title="object">
<polygon fill="#ffffff" stroke="transparent" points="22,-322 22,-414 79,-414 79,-322 22,-322"/>
<polygon fill="none" stroke="#000000" points="22.5,-392 22.5,-414 79.5,-414 79.5,-392 22.5,-392"/>
<text text-anchor="start" x="37.6625" y="-400" font-family="Helvetica,sans-Serif" font-size="10.00" fill="#000000">object</text>
<polygon fill="none" stroke="#000000" points="22.5,-322 22.5,-392 79.5,-392 79.5,-322 22.5,-322"/>
<text text-anchor="start" x="27.5" y="-378" font-family="Helvetica,sans-Serif" font-size="10.00" fill="#000000"> dispose()</text>
<text text-anchor="start" x="27.5" y="-366" font-family="Helvetica,sans-Serif" font-size="10.00" fill="#000000"> equals()</text>
<text text-anchor="start" x="27.5" y="-354" font-family="Helvetica,sans-Serif" font-size="10.00" fill="#000000"> toString()</text>
<text text-anchor="start" x="27.5" y="-342" font-family="Helvetica,sans-Serif" font-size="10.00" fill="#000000"> toJSON()</text>
<text text-anchor="start" x="27.5" y="-330" font-family="Helvetica,sans-Serif" font-size="10.00" fill="#000000"> valueOf()</text>
</a>
</g>
</g>
<!-- Queue -->
<g id="node2" class="node">
<title>Queue</title>
<g id="a_node2"><a xlink:href="Queue.md" xlink:title="Queue">
<polygon fill="#ffffff" stroke="transparent" points="12.5,-114 12.5,-286 88.5,-286 88.5,-114 12.5,-114"/>
<polygon fill="none" stroke="#000000" points="12.5,-264 12.5,-286 88.5,-286 88.5,-264 12.5,-264"/>
<text text-anchor="start" x="35.4925" y="-272" font-family="Helvetica,sans-Serif" font-size="10.00" fill="#000000">Queue</text>
<polygon fill="none" stroke="#000000" points="12.5,-242 12.5,-264 88.5,-264 88.5,-242 12.5,-242"/>
<text text-anchor="start" x="17.5" y="-250" font-family="Helvetica,sans-Serif" font-size="10.00" fill="#000000">  new Queue()</text>
<polygon fill="none" stroke="#000000" points="12.5,-220 12.5,-242 88.5,-242 88.5,-220 12.5,-220"/>
<text text-anchor="start" x="17.5" y="-228" font-family="Helvetica,sans-Serif" font-size="10.00" fill="#000000"> length</text>
<polygon fill="none" stroke="#000000" points="12.5,-114 12.5,-220 88.5,-220 88.5,-114 12.5,-114"/>
<text text-anchor="start" x="17.5" y="-206" font-family="Helvetica,sans-Serif" font-size="10.00" fill="#000000"> add()</text>
<text text-anchor="start" x="17.5" y="-194" font-family="Helvetica,sans-Serif" font-size="10.00" fill="#000000"> offer()</text>
<text text-anchor="start" x="17.5" y="-182" font-family="Helvetica,sans-Serif" font-size="10.00" fill="#000000"> remove()</text>
<text text-anchor="start" x="17.5" y="-170" font-family="Helvetica,sans-Serif" font-size="10.00" fill="#000000"> poll()</text>
<text text-anchor="start" x="17.5" y="-158" font-family="Helvetica,sans-Serif" font-size="10.00" fill="#000000"> element()</text>
<text text-anchor="start" x="17.5" y="-146" font-family="Helvetica,sans-Serif" font-size="10.00" fill="#000000"> peek()</text>
<text text-anchor="start" x="17.5" y="-134" font-family="Helvetica,sans-Serif" font-size="10.00" fill="#000000"> clear()</text>
<text text-anchor="start" x="17.5" y="-122" font-family="Helvetica,sans-Serif" font-size="10.00" fill="#000000"> toArray()</text>
</a>
</g>
</g>
<!-- object&#45;&gt;Queue -->
<g id="edge1" class="edge">
<title>object&#45;&gt;Queue</title>
<path fill="none" stroke="#000000" d="M50.5,-311.5238C50.5,-303.3438 50.5,-294.7723 50.5,-286.1704"/>
<polygon fill="#000000" stroke="#000000" points="47.0001,-311.6485 50.5,-321.6485 54.0001,-311.6486 47.0001,-311.6485"/>
</g>
<!-- BlockQueue -->
<g id="node3" class="node">
<title>BlockQueue</title>
<g id="a_node3"><a xlink:title="BlockQueue">
<polygon fill="#d3d3d3" stroke="transparent" points="0,0 0,-78 101,-78 101,0 0,0"/>
<polygon fill="none" stroke="#000000" points=".5,-56 .5,-78 101.5,-78 101.5,-56 .5,-56"/>
<text text-anchor="start" x="23.769" y="-64" font-family="Helvetica,sans-Serif" font-size="10.00" fill="#000000">BlockQueue</text>
<polygon fill="none" stroke="#000000" points=".5,-34 .5,-56 101.5,-56 101.5,-34 .5,-34"/>
<text text-anchor="start" x="5.5" y="-42" font-family="Helvetica,sans-Serif" font-size="10.00" fill="#000000">  new BlockQueue()</text>
<polygon fill="none" stroke="#000000" points=".5,0 .5,-34 101.5,-34 101.5,0 .5,0"/>
<text text-anchor="start" x="5.5" y="-20" font-family="Helvetica,sans-Serif" font-size="10.00" fill="#000000"> put()</text>
<text text-anchor="start" x="5.5" y="-8" font-family="Helvetica,sans-Serif" font-size="10.00" fill="#000000"> take()</text>
</a>
</g>
</g>
<!-- Queue&#45;&gt;BlockQueue -->
<g id="edge2" class="edge">
<title>Queue&#45;&gt;BlockQueue</title>
<path fill="none" stroke="#000000" d="M50.5,-103.728C50.5,-94.8469 50.5,-86.2324 50.5,-78.34"/>
<polygon fill="#000000" stroke="#000000" points="47.0001,-103.844 50.5,-113.844 54.0001,-103.844 47.0001,-103.844"/>
</g>
</g>
</svg>
