<?xml version="1.0" encoding="UTF-8" standalone="no"?>
<!DOCTYPE svg PUBLIC "-//W3C//DTD SVG 1.1//EN"
 "http://www.w3.org/Graphics/SVG/1.1/DTD/svg11.dtd">
<!-- Generated by graphviz version 2.40.1 (20161225.0304)
 -->
<!-- Title: %0 Pages: 1 -->
<svg width="224pt" height="363pt"
 viewBox="0.00 0.00 223.72 363.00" xmlns="http://www.w3.org/2000/svg" xmlns:xlink="http://www.w3.org/1999/xlink">
<g id="graph0" class="graph" transform="scale(1 1) rotate(0) translate(4 359)">
<title>%0</title>
<polygon fill="#ffffff" stroke="transparent" points="-4,4 -4,-359 219.721,-359 219.721,4 -4,4"/>
<!-- object -->
<g id="node1" class="node">
<title>object</title>
<g id="a_node1"><a xlink:href="object.md" xlink:title="object">
<polygon fill="#ffffff" stroke="#000000" points="78.1685,-266.5 78.1685,-354.5 135.8315,-354.5 135.8315,-266.5 78.1685,-266.5"/>
<text text-anchor="middle" x="107" y="-341.5" font-family="Helvetica,sans-Serif" font-size="10.00" fill="#000000">object</text>
<polyline fill="none" stroke="#000000" points="78.1685,-334.5 135.8315,-334.5 "/>
<text text-anchor="start" x="86.1685" y="-321.5" font-family="Helvetica,sans-Serif" font-size="10.00" fill="#000000">dispose()</text>
<text text-anchor="start" x="86.1685" y="-309.5" font-family="Helvetica,sans-Serif" font-size="10.00" fill="#000000">equals()</text>
<text text-anchor="start" x="86.1685" y="-297.5" font-family="Helvetica,sans-Serif" font-size="10.00" fill="#000000">toString()</text>
<text text-anchor="start" x="86.1685" y="-285.5" font-family="Helvetica,sans-Serif" font-size="10.00" fill="#000000">toJSON()</text>
<text text-anchor="start" x="86.1685" y="-273.5" font-family="Helvetica,sans-Serif" font-size="10.00" fill="#000000">valueOf()</text>
</a>
</g>
</g>
<!-- DbConnection -->
<g id="node2" class="node">
<title>DbConnection</title>
<g id="a_node2"><a xlink:title="DbConnection">
<polygon fill="#d3d3d3" stroke="#000000" points="67.3255,-109.5 67.3255,-229.5 146.6745,-229.5 146.6745,-109.5 67.3255,-109.5"/>
<text text-anchor="middle" x="107" y="-216.5" font-family="Helvetica,sans-Serif" font-size="10.00" fill="#000000">DbConnection</text>
<polyline fill="none" stroke="#000000" points="67.3255,-209.5 146.6745,-209.5 "/>
<text text-anchor="start" x="75.3255" y="-196.5" font-family="Helvetica,sans-Serif" font-size="10.00" fill="#000000">type</text>
<polyline fill="none" stroke="#000000" points="67.3255,-189.5 146.6745,-189.5 "/>
<text text-anchor="start" x="75.3255" y="-176.5" font-family="Helvetica,sans-Serif" font-size="10.00" fill="#000000">close()</text>
<text text-anchor="start" x="75.3255" y="-164.5" font-family="Helvetica,sans-Serif" font-size="10.00" fill="#000000">begin()</text>
<text text-anchor="start" x="75.3255" y="-152.5" font-family="Helvetica,sans-Serif" font-size="10.00" fill="#000000">commit()</text>
<text text-anchor="start" x="75.3255" y="-140.5" font-family="Helvetica,sans-Serif" font-size="10.00" fill="#000000">rollback()</text>
<text text-anchor="start" x="75.3255" y="-128.5" font-family="Helvetica,sans-Serif" font-size="10.00" fill="#000000">execute()</text>
<text text-anchor="start" x="75.3255" y="-116.5" font-family="Helvetica,sans-Serif" font-size="10.00" fill="#000000">format()</text>
</a>
</g>
</g>
<!-- object&#45;&gt;DbConnection -->
<g id="edge1" class="edge">
<title>object&#45;&gt;DbConnection</title>
<path fill="none" stroke="#000000" d="M107,-256.2311C107,-247.51 107,-238.4385 107,-229.5906"/>
<polygon fill="#000000" stroke="#000000" points="103.5001,-256.2735 107,-266.2736 110.5001,-256.2736 103.5001,-256.2735"/>
</g>
<!-- MSSQL -->
<g id="node3" class="node">
<title>MSSQL</title>
<g id="a_node3"><a xlink:href="MSSQL.md" xlink:title="MSSQL">
<polygon fill="#ffffff" stroke="#000000" points="0,-16.5 0,-56.5 54,-56.5 54,-16.5 0,-16.5"/>
<text text-anchor="middle" x="26.5025" y="-43.5" font-family="Helvetica,sans-Serif" font-size="10.00" fill="#000000">MSSQL</text>
<polyline fill="none" stroke="#000000" points="0,-36.5 53.005,-36.5 "/>
<text text-anchor="start" x="8" y="-23.5" font-family="Helvetica,sans-Serif" font-size="10.00" fill="#000000">use()</text>
</a>
</g>
</g>
<!-- DbConnection&#45;&gt;MSSQL -->
<g id="edge2" class="edge">
<title>DbConnection&#45;&gt;MSSQL</title>
<path fill="none" stroke="#000000" d="M65.3808,-100.3081C55.7226,-84.2514 46.1905,-68.4043 39.0418,-56.5194"/>
<polygon fill="#000000" stroke="#000000" points="62.5914,-102.4611 70.7451,-109.2263 68.5899,-98.8529 62.5914,-102.4611"/>
</g>
<!-- MySQL -->
<g id="node4" class="node">
<title>MySQL</title>
<g id="a_node4"><a xlink:href="MySQL.md" xlink:title="MySQL">
<polygon fill="#ffffff" stroke="#000000" points="71.775,-.5 71.775,-72.5 142.225,-72.5 142.225,-.5 71.775,-.5"/>
<text text-anchor="middle" x="107" y="-59.5" font-family="Helvetica,sans-Serif" font-size="10.00" fill="#000000">MySQL</text>
<polyline fill="none" stroke="#000000" points="71.775,-52.5 142.225,-52.5 "/>
<text text-anchor="start" x="79.775" y="-39.5" font-family="Helvetica,sans-Serif" font-size="10.00" fill="#000000">rxBufferSize</text>
<text text-anchor="start" x="79.775" y="-27.5" font-family="Helvetica,sans-Serif" font-size="10.00" fill="#000000">txBufferSize</text>
<polyline fill="none" stroke="#000000" points="71.775,-20.5 142.225,-20.5 "/>
<text text-anchor="start" x="79.775" y="-7.5" font-family="Helvetica,sans-Serif" font-size="10.00" fill="#000000">use()</text>
</a>
</g>
</g>
<!-- DbConnection&#45;&gt;MySQL -->
<g id="edge3" class="edge">
<title>DbConnection&#45;&gt;MySQL</title>
<path fill="none" stroke="#000000" d="M107,-98.9351C107,-89.8261 107,-80.8191 107,-72.6013"/>
<polygon fill="#000000" stroke="#000000" points="103.5001,-99.2262 107,-109.2263 110.5001,-99.2263 103.5001,-99.2262"/>
</g>
<!-- SQLite -->
<g id="node5" class="node">
<title>SQLite</title>
<g id="a_node5"><a xlink:href="SQLite.md" xlink:title="SQLite">
<polygon fill="#ffffff" stroke="#000000" points="160.279,-.5 160.279,-72.5 215.721,-72.5 215.721,-.5 160.279,-.5"/>
<text text-anchor="middle" x="188" y="-59.5" font-family="Helvetica,sans-Serif" font-size="10.00" fill="#000000">SQLite</text>
<polyline fill="none" stroke="#000000" points="160.279,-52.5 215.721,-52.5 "/>
<text text-anchor="start" x="168.279" y="-39.5" font-family="Helvetica,sans-Serif" font-size="10.00" fill="#000000">fileName</text>
<text text-anchor="start" x="168.279" y="-27.5" font-family="Helvetica,sans-Serif" font-size="10.00" fill="#000000">timeout</text>
<polyline fill="none" stroke="#000000" points="160.279,-20.5 215.721,-20.5 "/>
<text text-anchor="start" x="168.279" y="-7.5" font-family="Helvetica,sans-Serif" font-size="10.00" fill="#000000">backup()</text>
</a>
</g>
</g>
<!-- DbConnection&#45;&gt;SQLite -->
<g id="edge4" class="edge">
<title>DbConnection&#45;&gt;SQLite</title>
<path fill="none" stroke="#000000" d="M149.0804,-100.4051C154.932,-90.7968 160.7396,-81.2609 166.0135,-72.6013"/>
<polygon fill="#000000" stroke="#000000" points="145.9204,-98.865 143.7081,-109.2263 151.8989,-102.506 145.9204,-98.865"/>
</g>
</g>
</svg>
