<?xml version="1.0" encoding="UTF-8" standalone="no"?>
<!DOCTYPE svg PUBLIC "-//W3C//DTD SVG 1.1//EN"
 "http://www.w3.org/Graphics/SVG/1.1/DTD/svg11.dtd">
<!-- Generated by graphviz version 2.40.1 (20161225.0304)
 -->
<!-- Title: %0 Pages: 1 -->
<svg width="93pt" height="192pt"
 viewBox="0.00 0.00 93.00 192.00" xmlns="http://www.w3.org/2000/svg" xmlns:xlink="http://www.w3.org/1999/xlink">
<g id="graph0" class="graph" transform="scale(1 1) rotate(0) translate(4 188)">
<title>%0</title>
<polygon fill="#ffffff" stroke="transparent" points="-4,4 -4,-188 89,-188 89,4 -4,4"/>
<!-- object -->
<g id="node1" class="node">
<title>object</title>
<g id="a_node1"><a xlink:href="object.md" xlink:title="object">
<polygon fill="#ffffff" stroke="transparent" points="14,-92 14,-184 71,-184 71,-92 14,-92"/>
<polygon fill="none" stroke="#000000" points="14.5,-162 14.5,-184 71.5,-184 71.5,-162 14.5,-162"/>
<text text-anchor="start" x="29.6625" y="-170" font-family="Helvetica,sans-Serif" font-size="10.00" fill="#000000">object</text>
<polygon fill="none" stroke="#000000" points="14.5,-92 14.5,-162 71.5,-162 71.5,-92 14.5,-92"/>
<text text-anchor="start" x="19.5" y="-148" font-family="Helvetica,sans-Serif" font-size="10.00" fill="#000000"> dispose()</text>
<text text-anchor="start" x="19.5" y="-136" font-family="Helvetica,sans-Serif" font-size="10.00" fill="#000000"> equals()</text>
<text text-anchor="start" x="19.5" y="-124" font-family="Helvetica,sans-Serif" font-size="10.00" fill="#000000"> toString()</text>
<text text-anchor="start" x="19.5" y="-112" font-family="Helvetica,sans-Serif" font-size="10.00" fill="#000000"> toJSON()</text>
<text text-anchor="start" x="19.5" y="-100" font-family="Helvetica,sans-Serif" font-size="10.00" fill="#000000"> valueOf()</text>
</a>
</g>
</g>
<!-- DBRow -->
<g id="node2" class="node">
<title>DBRow</title>
<g id="a_node2"><a xlink:title="DBRow">
<polygon fill="#d3d3d3" stroke="transparent" points="0,0 0,-56 85,-56 85,0 0,0"/>
<polygon fill="none" stroke="#000000" points=".5,-34 .5,-56 85.5,-56 85.5,-34 .5,-34"/>
<text text-anchor="start" x="26.0575" y="-42" font-family="Helvetica,sans-Serif" font-size="10.00" fill="#000000">DBRow</text>
<polygon fill="none" stroke="#000000" points=".5,0 .5,-34 85.5,-34 85.5,0 .5,0"/>
<text text-anchor="start" x="5.5" y="-20" font-family="Helvetica,sans-Serif" font-size="10.00" fill="#000000"> operator[]</text>
<text text-anchor="start" x="5.5" y="-8" font-family="Helvetica,sans-Serif" font-size="10.00" fill="#000000"> operator[String]</text>
</a>
</g>
</g>
<!-- object&#45;&gt;DBRow -->
<g id="edge1" class="edge">
<title>object&#45;&gt;DBRow</title>
<path fill="none" stroke="#000000" d="M42.5,-81.9545C42.5,-73.0376 42.5,-64.1574 42.5,-56.2518"/>
<polygon fill="#000000" stroke="#000000" points="39.0001,-81.9874 42.5,-91.9875 46.0001,-81.9875 39.0001,-81.9874"/>
</g>
</g>
</svg>
