<?xml version="1.0" encoding="UTF-8" standalone="no"?>
<!DOCTYPE svg PUBLIC "-//W3C//DTD SVG 1.1//EN"
 "http://www.w3.org/Graphics/SVG/1.1/DTD/svg11.dtd">
<!-- Generated by graphviz version 2.40.1 (20161225.0304)
 -->
<!-- Title: %0 Pages: 1 -->
<svg width="80pt" height="376pt"
 viewBox="0.00 0.00 80.00 376.00" xmlns="http://www.w3.org/2000/svg" xmlns:xlink="http://www.w3.org/1999/xlink">
<g id="graph0" class="graph" transform="scale(1 1) rotate(0) translate(4 372)">
<title>%0</title>
<polygon fill="#ffffff" stroke="transparent" points="-4,4 -4,-372 76,-372 76,4 -4,4"/>
<!-- object -->
<g id="node1" class="node">
<title>object</title>
<g id="a_node1"><a xlink:href="object.md" xlink:title="object">
<polygon fill="#ffffff" stroke="transparent" points="7.5,-276 7.5,-368 64.5,-368 64.5,-276 7.5,-276"/>
<polygon fill="none" stroke="#000000" points="8,-346 8,-368 65,-368 65,-346 8,-346"/>
<text text-anchor="start" x="23.1625" y="-354" font-family="Helvetica,sans-Serif" font-size="10.00" fill="#000000">object</text>
<polygon fill="none" stroke="#000000" points="8,-276 8,-346 65,-346 65,-276 8,-276"/>
<text text-anchor="start" x="13" y="-332" font-family="Helvetica,sans-Serif" font-size="10.00" fill="#000000"> dispose()</text>
<text text-anchor="start" x="13" y="-320" font-family="Helvetica,sans-Serif" font-size="10.00" fill="#000000"> equals()</text>
<text text-anchor="start" x="13" y="-308" font-family="Helvetica,sans-Serif" font-size="10.00" fill="#000000"> toString()</text>
<text text-anchor="start" x="13" y="-296" font-family="Helvetica,sans-Serif" font-size="10.00" fill="#000000"> toJSON()</text>
<text text-anchor="start" x="13" y="-284" font-family="Helvetica,sans-Serif" font-size="10.00" fill="#000000"> valueOf()</text>
</a>
</g>
</g>
<!-- Lock -->
<g id="node2" class="node">
<title>Lock</title>
<g id="a_node2"><a xlink:href="Lock.md" xlink:title="Lock">
<polygon fill="#ffffff" stroke="transparent" points="2.5,-150 2.5,-240 69.5,-240 69.5,-150 2.5,-150"/>
<polygon fill="none" stroke="#000000" points="3,-218 3,-240 70,-240 70,-218 3,-218"/>
<text text-anchor="start" x="25.941" y="-226" font-family="Helvetica,sans-Serif" font-size="10.00" fill="#000000">Lock</text>
<polygon fill="none" stroke="#000000" points="3,-196 3,-218 70,-218 70,-196 3,-196"/>
<text text-anchor="start" x="8" y="-204" font-family="Helvetica,sans-Serif" font-size="10.00" fill="#000000">  new Lock()</text>
<polygon fill="none" stroke="#000000" points="3,-150 3,-196 70,-196 70,-150 3,-150"/>
<text text-anchor="start" x="8" y="-182" font-family="Helvetica,sans-Serif" font-size="10.00" fill="#000000"> acquire()</text>
<text text-anchor="start" x="8" y="-170" font-family="Helvetica,sans-Serif" font-size="10.00" fill="#000000"> release()</text>
<text text-anchor="start" x="8" y="-158" font-family="Helvetica,sans-Serif" font-size="10.00" fill="#000000"> count()</text>
</a>
</g>
</g>
<!-- object&#45;&gt;Lock -->
<g id="edge1" class="edge">
<title>object&#45;&gt;Lock</title>
<path fill="none" stroke="#000000" d="M36,-265.5361C36,-257.0253 36,-248.3439 36,-240.1135"/>
<polygon fill="#000000" stroke="#000000" points="32.5001,-265.7908 36,-275.7908 39.5001,-265.7909 32.5001,-265.7908"/>
</g>
<!-- Event -->
<g id="node3" class="node">
<title>Event</title>
<g id="a_node3"><a xlink:title="Event">
<polygon fill="#d3d3d3" stroke="transparent" points="0,0 0,-114 72,-114 72,0 0,0"/>
<polygon fill="none" stroke="#000000" points="0,-92 0,-114 72,-114 72,-92 0,-92"/>
<text text-anchor="start" x="23.217" y="-100" font-family="Helvetica,sans-Serif" font-size="10.00" fill="#000000">Event</text>
<polygon fill="none" stroke="#000000" points="0,-70 0,-92 72,-92 72,-70 0,-70"/>
<text text-anchor="start" x="5" y="-78" font-family="Helvetica,sans-Serif" font-size="10.00" fill="#000000">  new Event()</text>
<polygon fill="none" stroke="#000000" points="0,0 0,-70 72,-70 72,0 0,0"/>
<text text-anchor="start" x="5" y="-56" font-family="Helvetica,sans-Serif" font-size="10.00" fill="#000000"> isSet()</text>
<text text-anchor="start" x="5" y="-44" font-family="Helvetica,sans-Serif" font-size="10.00" fill="#000000"> set()</text>
<text text-anchor="start" x="5" y="-32" font-family="Helvetica,sans-Serif" font-size="10.00" fill="#000000"> pulse()</text>
<text text-anchor="start" x="5" y="-20" font-family="Helvetica,sans-Serif" font-size="10.00" fill="#000000"> clear()</text>
<text text-anchor="start" x="5" y="-8" font-family="Helvetica,sans-Serif" font-size="10.00" fill="#000000"> wait()</text>
</a>
</g>
</g>
<!-- Lock&#45;&gt;Event -->
<g id="edge2" class="edge">
<title>Lock&#45;&gt;Event</title>
<path fill="none" stroke="#000000" d="M36,-139.7882C36,-131.426 36,-122.7822 36,-114.3754"/>
<polygon fill="#000000" stroke="#000000" points="32.5001,-139.8136 36,-149.8136 39.5001,-139.8137 32.5001,-139.8136"/>
</g>
</g>
</svg>
