<?xml version="1.0" encoding="UTF-8" standalone="no"?>
<!DOCTYPE svg PUBLIC "-//W3C//DTD SVG 1.1//EN"
 "http://www.w3.org/Graphics/SVG/1.1/DTD/svg11.dtd">
<!-- Generated by graphviz version 2.40.1 (20161225.0304)
 -->
<!-- Title: %0 Pages: 1 -->
<svg width="77pt" height="363pt"
 viewBox="0.00 0.00 77.34 363.00" xmlns="http://www.w3.org/2000/svg" xmlns:xlink="http://www.w3.org/1999/xlink">
<g id="graph0" class="graph" transform="scale(1 1) rotate(0) translate(4 359)">
<title>%0</title>
<polygon fill="#ffffff" stroke="transparent" points="-4,4 -4,-359 73.34,-359 73.34,4 -4,4"/>
<!-- object -->
<g id="node1" class="node">
<title>object</title>
<g id="a_node1"><a xlink:href="object.md" xlink:title="object">
<polygon fill="#ffffff" stroke="#000000" points="5.8385,-266.5 5.8385,-354.5 63.5015,-354.5 63.5015,-266.5 5.8385,-266.5"/>
<text text-anchor="middle" x="34.67" y="-341.5" font-family="Helvetica,sans-Serif" font-size="10.00" fill="#000000">object</text>
<polyline fill="none" stroke="#000000" points="5.8385,-334.5 63.5015,-334.5 "/>
<text text-anchor="start" x="13.8385" y="-321.5" font-family="Helvetica,sans-Serif" font-size="10.00" fill="#000000">dispose()</text>
<text text-anchor="start" x="13.8385" y="-309.5" font-family="Helvetica,sans-Serif" font-size="10.00" fill="#000000">equals()</text>
<text text-anchor="start" x="13.8385" y="-297.5" font-family="Helvetica,sans-Serif" font-size="10.00" fill="#000000">toString()</text>
<text text-anchor="start" x="13.8385" y="-285.5" font-family="Helvetica,sans-Serif" font-size="10.00" fill="#000000">toJSON()</text>
<text text-anchor="start" x="13.8385" y="-273.5" font-family="Helvetica,sans-Serif" font-size="10.00" fill="#000000">valueOf()</text>
</a>
</g>
</g>
<!-- Lock -->
<g id="node2" class="node">
<title>Lock</title>
<g id="a_node2"><a xlink:href="Lock.md" xlink:title="Lock">
<polygon fill="#ffffff" stroke="#000000" points="2.224,-145.5 2.224,-229.5 67.116,-229.5 67.116,-145.5 2.224,-145.5"/>
<text text-anchor="middle" x="34.67" y="-216.5" font-family="Helvetica,sans-Serif" font-size="10.00" fill="#000000">Lock</text>
<polyline fill="none" stroke="#000000" points="2.224,-209.5 67.116,-209.5 "/>
<text text-anchor="start" x="10.224" y="-196.5" font-family="Helvetica,sans-Serif" font-size="10.00" fill="#000000">new Lock()</text>
<polyline fill="none" stroke="#000000" points="2.224,-189.5 67.116,-189.5 "/>
<text text-anchor="start" x="10.224" y="-176.5" font-family="Helvetica,sans-Serif" font-size="10.00" fill="#000000">acquire()</text>
<text text-anchor="start" x="10.224" y="-164.5" font-family="Helvetica,sans-Serif" font-size="10.00" fill="#000000">release()</text>
<text text-anchor="start" x="10.224" y="-152.5" font-family="Helvetica,sans-Serif" font-size="10.00" fill="#000000">count()</text>
</a>
</g>
</g>
<!-- object&#45;&gt;Lock -->
<g id="edge1" class="edge">
<title>object&#45;&gt;Lock</title>
<path fill="none" stroke="#000000" d="M34.67,-256.4278C34.67,-247.4407 34.67,-238.2389 34.67,-229.6051"/>
<polygon fill="#000000" stroke="#000000" points="31.1701,-256.4416 34.67,-266.4416 38.1701,-256.4416 31.1701,-256.4416"/>
</g>
<!-- Event -->
<g id="node3" class="node">
<title>Event</title>
<g id="a_node3"><a xlink:title="Event">
<polygon fill="#d3d3d3" stroke="#000000" points="0,-.5 0,-108.5 69.34,-108.5 69.34,-.5 0,-.5"/>
<text text-anchor="middle" x="34.67" y="-95.5" font-family="Helvetica,sans-Serif" font-size="10.00" fill="#000000">Event</text>
<polyline fill="none" stroke="#000000" points="0,-88.5 69.34,-88.5 "/>
<text text-anchor="start" x="8" y="-75.5" font-family="Helvetica,sans-Serif" font-size="10.00" fill="#000000">new Event()</text>
<polyline fill="none" stroke="#000000" points="0,-68.5 69.34,-68.5 "/>
<text text-anchor="start" x="8" y="-55.5" font-family="Helvetica,sans-Serif" font-size="10.00" fill="#000000">isSet()</text>
<text text-anchor="start" x="8" y="-43.5" font-family="Helvetica,sans-Serif" font-size="10.00" fill="#000000">set()</text>
<text text-anchor="start" x="8" y="-31.5" font-family="Helvetica,sans-Serif" font-size="10.00" fill="#000000">pulse()</text>
<text text-anchor="start" x="8" y="-19.5" font-family="Helvetica,sans-Serif" font-size="10.00" fill="#000000">clear()</text>
<text text-anchor="start" x="8" y="-7.5" font-family="Helvetica,sans-Serif" font-size="10.00" fill="#000000">wait()</text>
</a>
</g>
</g>
<!-- Lock&#45;&gt;Event -->
<g id="edge2" class="edge">
<title>Lock&#45;&gt;Event</title>
<path fill="none" stroke="#000000" d="M34.67,-135.2898C34.67,-126.4915 34.67,-117.343 34.67,-108.5003"/>
<polygon fill="#000000" stroke="#000000" points="31.1701,-135.4179 34.67,-145.418 38.1701,-135.418 31.1701,-135.4179"/>
</g>
</g>
</svg>
