<?xml version="1.0" encoding="UTF-8" standalone="no"?>
<!DOCTYPE svg PUBLIC "-//W3C//DTD SVG 1.1//EN"
 "http://www.w3.org/Graphics/SVG/1.1/DTD/svg11.dtd">
<!-- Generated by graphviz version 2.40.1 (20161225.0304)
 -->
<!-- Title: %0 Pages: 1 -->
<svg width="66pt" height="206pt"
 viewBox="0.00 0.00 65.66 206.00" xmlns="http://www.w3.org/2000/svg" xmlns:xlink="http://www.w3.org/1999/xlink">
<g id="graph0" class="graph" transform="scale(1 1) rotate(0) translate(4 202)">
<title>%0</title>
<polygon fill="#ffffff" stroke="transparent" points="-4,4 -4,-202 61.663,-202 61.663,4 -4,4"/>
<!-- object -->
<g id="node1" class="node">
<title>object</title>
<g id="a_node1"><a xlink:href="object.md" xlink:title="object">
<polygon fill="#ffffff" stroke="#000000" points="0,-109.5 0,-197.5 57.663,-197.5 57.663,-109.5 0,-109.5"/>
<text text-anchor="middle" x="28.8315" y="-184.5" font-family="Helvetica,sans-Serif" font-size="10.00" fill="#000000">object</text>
<polyline fill="none" stroke="#000000" points="0,-177.5 57.663,-177.5 "/>
<text text-anchor="start" x="8" y="-164.5" font-family="Helvetica,sans-Serif" font-size="10.00" fill="#000000">dispose()</text>
<text text-anchor="start" x="8" y="-152.5" font-family="Helvetica,sans-Serif" font-size="10.00" fill="#000000">equals()</text>
<text text-anchor="start" x="8" y="-140.5" font-family="Helvetica,sans-Serif" font-size="10.00" fill="#000000">toString()</text>
<text text-anchor="start" x="8" y="-128.5" font-family="Helvetica,sans-Serif" font-size="10.00" fill="#000000">toJSON()</text>
<text text-anchor="start" x="8" y="-116.5" font-family="Helvetica,sans-Serif" font-size="10.00" fill="#000000">valueOf()</text>
</a>
</g>
</g>
<!-- Fiber -->
<g id="node2" class="node">
<title>Fiber</title>
<g id="a_node2"><a xlink:title="Fiber">
<polygon fill="#d3d3d3" stroke="#000000" points="1.3805,-.5 1.3805,-72.5 56.2825,-72.5 56.2825,-.5 1.3805,-.5"/>
<text text-anchor="middle" x="28.8315" y="-59.5" font-family="Helvetica,sans-Serif" font-size="10.00" fill="#000000">Fiber</text>
<polyline fill="none" stroke="#000000" points="1.3805,-52.5 56.2825,-52.5 "/>
<text text-anchor="start" x="9.3805" y="-39.5" font-family="Helvetica,sans-Serif" font-size="10.00" fill="#000000">caller</text>
<text text-anchor="start" x="9.3805" y="-27.5" font-family="Helvetica,sans-Serif" font-size="10.00" fill="#000000">traceInfo</text>
<polyline fill="none" stroke="#000000" points="1.3805,-20.5 56.2825,-20.5 "/>
<text text-anchor="start" x="9.3805" y="-7.5" font-family="Helvetica,sans-Serif" font-size="10.00" fill="#000000">join()</text>
</a>
</g>
</g>
<!-- object&#45;&gt;Fiber -->
<g id="edge1" class="edge">
<title>object&#45;&gt;Fiber</title>
<path fill="none" stroke="#000000" d="M28.8315,-99.2465C28.8315,-90.2805 28.8315,-81.1808 28.8315,-72.7957"/>
<polygon fill="#000000" stroke="#000000" points="25.3316,-99.2673 28.8315,-109.2673 32.3316,-99.2674 25.3316,-99.2673"/>
</g>
</g>
</svg>
