<?xml version="1.0" encoding="UTF-8" standalone="no"?>
<!DOCTYPE svg PUBLIC "-//W3C//DTD SVG 1.1//EN"
 "http://www.w3.org/Graphics/SVG/1.1/DTD/svg11.dtd">
<!-- Generated by graphviz version 2.40.1 (20161225.0304)
 -->
<!-- Title: %0 Pages: 1 -->
<svg width="91pt" height="506pt"
 viewBox="0.00 0.00 91.00 506.00" xmlns="http://www.w3.org/2000/svg" xmlns:xlink="http://www.w3.org/1999/xlink">
<g id="graph0" class="graph" transform="scale(1 1) rotate(0) translate(4 502)">
<title>%0</title>
<polygon fill="#ffffff" stroke="transparent" points="-4,4 -4,-502 87,-502 87,4 -4,4"/>
<!-- object -->
<g id="node1" class="node">
<title>object</title>
<g id="a_node1"><a xlink:href="object.md" xlink:title="object">
<polygon fill="#ffffff" stroke="transparent" points="13,-406 13,-498 70,-498 70,-406 13,-406"/>
<polygon fill="none" stroke="#000000" points="13.5,-476 13.5,-498 70.5,-498 70.5,-476 13.5,-476"/>
<text text-anchor="start" x="28.6625" y="-484" font-family="Helvetica,sans-Serif" font-size="10.00" fill="#000000">object</text>
<polygon fill="none" stroke="#000000" points="13.5,-406 13.5,-476 70.5,-476 70.5,-406 13.5,-406"/>
<text text-anchor="start" x="18.5" y="-462" font-family="Helvetica,sans-Serif" font-size="10.00" fill="#000000"> dispose()</text>
<text text-anchor="start" x="18.5" y="-450" font-family="Helvetica,sans-Serif" font-size="10.00" fill="#000000"> equals()</text>
<text text-anchor="start" x="18.5" y="-438" font-family="Helvetica,sans-Serif" font-size="10.00" fill="#000000"> toString()</text>
<text text-anchor="start" x="18.5" y="-426" font-family="Helvetica,sans-Serif" font-size="10.00" fill="#000000"> toJSON()</text>
<text text-anchor="start" x="18.5" y="-414" font-family="Helvetica,sans-Serif" font-size="10.00" fill="#000000"> valueOf()</text>
</a>
</g>
</g>
<!-- Stream -->
<g id="node2" class="node">
<title>Stream</title>
<g id="a_node2"><a xlink:href="Stream.md" xlink:title="Stream">
<polygon fill="#ffffff" stroke="transparent" points="14,-290 14,-370 69,-370 69,-290 14,-290"/>
<polygon fill="none" stroke="#000000" points="14.5,-348 14.5,-370 69.5,-370 69.5,-348 14.5,-348"/>
<text text-anchor="start" x="25.888" y="-356" font-family="Helvetica,sans-Serif" font-size="10.00" fill="#000000">Stream</text>
<polygon fill="none" stroke="#000000" points="14.5,-290 14.5,-348 69.5,-348 69.5,-290 14.5,-290"/>
<text text-anchor="start" x="19.5" y="-334" font-family="Helvetica,sans-Serif" font-size="10.00" fill="#000000"> read()</text>
<text text-anchor="start" x="19.5" y="-322" font-family="Helvetica,sans-Serif" font-size="10.00" fill="#000000"> write()</text>
<text text-anchor="start" x="19.5" y="-310" font-family="Helvetica,sans-Serif" font-size="10.00" fill="#000000"> close()</text>
<text text-anchor="start" x="19.5" y="-298" font-family="Helvetica,sans-Serif" font-size="10.00" fill="#000000"> copyTo()</text>
</a>
</g>
</g>
<!-- object&#45;&gt;Stream -->
<g id="edge1" class="edge">
<title>object&#45;&gt;Stream</title>
<path fill="none" stroke="#000000" d="M41.5,-395.8267C41.5,-387.1786 41.5,-378.4003 41.5,-370.193"/>
<polygon fill="#000000" stroke="#000000" points="38.0001,-395.877 41.5,-405.877 45.0001,-395.8771 38.0001,-395.877"/>
</g>
<!-- SeekableStream -->
<g id="node3" class="node">
<title>SeekableStream</title>
<g id="a_node3"><a xlink:href="SeekableStream.md" xlink:title="SeekableStream">
<polygon fill="#ffffff" stroke="transparent" points="0,-114 0,-254 83,-254 83,-114 0,-114"/>
<polygon fill="none" stroke="#000000" points=".5,-232 .5,-254 83.5,-254 83.5,-232 .5,-232"/>
<text text-anchor="start" x="5.0465" y="-240" font-family="Helvetica,sans-Serif" font-size="10.00" fill="#000000">SeekableStream</text>
<polygon fill="none" stroke="#000000" points=".5,-114 .5,-232 83.5,-232 83.5,-114 .5,-114"/>
<text text-anchor="start" x="5.5" y="-218" font-family="Helvetica,sans-Serif" font-size="10.00" fill="#000000"> seek()</text>
<text text-anchor="start" x="5.5" y="-206" font-family="Helvetica,sans-Serif" font-size="10.00" fill="#000000"> tell()</text>
<text text-anchor="start" x="5.5" y="-194" font-family="Helvetica,sans-Serif" font-size="10.00" fill="#000000"> rewind()</text>
<text text-anchor="start" x="5.5" y="-182" font-family="Helvetica,sans-Serif" font-size="10.00" fill="#000000"> size()</text>
<text text-anchor="start" x="5.5" y="-170" font-family="Helvetica,sans-Serif" font-size="10.00" fill="#000000"> readAll()</text>
<text text-anchor="start" x="5.5" y="-158" font-family="Helvetica,sans-Serif" font-size="10.00" fill="#000000"> truncate()</text>
<text text-anchor="start" x="5.5" y="-146" font-family="Helvetica,sans-Serif" font-size="10.00" fill="#000000"> eof()</text>
<text text-anchor="start" x="5.5" y="-134" font-family="Helvetica,sans-Serif" font-size="10.00" fill="#000000"> flush()</text>
<text text-anchor="start" x="5.5" y="-122" font-family="Helvetica,sans-Serif" font-size="10.00" fill="#000000"> stat()</text>
</a>
</g>
</g>
<!-- Stream&#45;&gt;SeekableStream -->
<g id="edge2" class="edge">
<title>Stream&#45;&gt;SeekableStream</title>
<path fill="none" stroke="#000000" d="M41.5,-279.5727C41.5,-271.356 41.5,-262.7162 41.5,-254.1293"/>
<polygon fill="#000000" stroke="#000000" points="38.0001,-279.7183 41.5,-289.7184 45.0001,-279.7184 38.0001,-279.7183"/>
</g>
<!-- File -->
<g id="node4" class="node">
<title>File</title>
<g id="a_node4"><a xlink:title="File">
<polygon fill="#d3d3d3" stroke="transparent" points="15.5,0 15.5,-78 67.5,-78 67.5,0 15.5,0"/>
<polygon fill="none" stroke="#000000" points="15.5,-56 15.5,-78 67.5,-78 67.5,-56 15.5,-56"/>
<text text-anchor="start" x="33.447" y="-64" font-family="Helvetica,sans-Serif" font-size="10.00" fill="#000000">File</text>
<polygon fill="none" stroke="#000000" points="15.5,-22 15.5,-56 67.5,-56 67.5,-22 15.5,-22"/>
<text text-anchor="start" x="20.5" y="-42" font-family="Helvetica,sans-Serif" font-size="10.00" fill="#000000"> name</text>
<text text-anchor="start" x="20.5" y="-30" font-family="Helvetica,sans-Serif" font-size="10.00" fill="#000000"> fd</text>
<polygon fill="none" stroke="#000000" points="15.5,0 15.5,-22 67.5,-22 67.5,0 15.5,0"/>
<text text-anchor="start" x="20.5" y="-8" font-family="Helvetica,sans-Serif" font-size="10.00" fill="#000000"> chmod()</text>
</a>
</g>
</g>
<!-- SeekableStream&#45;&gt;File -->
<g id="edge3" class="edge">
<title>SeekableStream&#45;&gt;File</title>
<path fill="none" stroke="#000000" d="M41.5,-103.407C41.5,-94.7393 41.5,-86.2278 41.5,-78.3765"/>
<polygon fill="#000000" stroke="#000000" points="38.0001,-103.6237 41.5,-113.6238 45.0001,-103.6238 38.0001,-103.6237"/>
</g>
</g>
</svg>
