<?xml version="1.0" encoding="UTF-8" standalone="no"?>
<!DOCTYPE svg PUBLIC "-//W3C//DTD SVG 1.1//EN"
 "http://www.w3.org/Graphics/SVG/1.1/DTD/svg11.dtd">
<!-- Generated by graphviz version 2.40.1 (20161225.0304)
 -->
<!-- Title: %0 Pages: 1 -->
<svg width="66pt" height="242pt"
 viewBox="0.00 0.00 65.66 242.00" xmlns="http://www.w3.org/2000/svg" xmlns:xlink="http://www.w3.org/1999/xlink">
<g id="graph0" class="graph" transform="scale(1 1) rotate(0) translate(4 238)">
<title>%0</title>
<polygon fill="#ffffff" stroke="transparent" points="-4,4 -4,-238 61.663,-238 61.663,4 -4,4"/>
<!-- object -->
<g id="node1" class="node">
<title>object</title>
<g id="a_node1"><a xlink:href="object.md" xlink:title="object">
<polygon fill="#ffffff" stroke="#000000" points="0,-145.5 0,-233.5 57.663,-233.5 57.663,-145.5 0,-145.5"/>
<text text-anchor="middle" x="28.8315" y="-220.5" font-family="Helvetica,sans-Serif" font-size="10.00" fill="#000000">object</text>
<polyline fill="none" stroke="#000000" points="0,-213.5 57.663,-213.5 "/>
<text text-anchor="start" x="8" y="-200.5" font-family="Helvetica,sans-Serif" font-size="10.00" fill="#000000">dispose()</text>
<text text-anchor="start" x="8" y="-188.5" font-family="Helvetica,sans-Serif" font-size="10.00" fill="#000000">equals()</text>
<text text-anchor="start" x="8" y="-176.5" font-family="Helvetica,sans-Serif" font-size="10.00" fill="#000000">toString()</text>
<text text-anchor="start" x="8" y="-164.5" font-family="Helvetica,sans-Serif" font-size="10.00" fill="#000000">toJSON()</text>
<text text-anchor="start" x="8" y="-152.5" font-family="Helvetica,sans-Serif" font-size="10.00" fill="#000000">valueOf()</text>
</a>
</g>
</g>
<!-- GridFS -->
<g id="node2" class="node">
<title>GridFS</title>
<g id="a_node2"><a xlink:title="GridFS">
<polygon fill="#d3d3d3" stroke="#000000" points=".835,-.5 .835,-108.5 56.828,-108.5 56.828,-.5 .835,-.5"/>
<text text-anchor="middle" x="28.8315" y="-95.5" font-family="Helvetica,sans-Serif" font-size="10.00" fill="#000000">GridFS</text>
<polyline fill="none" stroke="#000000" points=".835,-88.5 56.828,-88.5 "/>
<text text-anchor="start" x="8.835" y="-75.5" font-family="Helvetica,sans-Serif" font-size="10.00" fill="#000000">files</text>
<text text-anchor="start" x="8.835" y="-63.5" font-family="Helvetica,sans-Serif" font-size="10.00" fill="#000000">chunks</text>
<polyline fill="none" stroke="#000000" points=".835,-56.5 56.828,-56.5 "/>
<text text-anchor="start" x="8.835" y="-43.5" font-family="Helvetica,sans-Serif" font-size="10.00" fill="#000000">retrieve()</text>
<text text-anchor="start" x="8.835" y="-31.5" font-family="Helvetica,sans-Serif" font-size="10.00" fill="#000000">store()</text>
<text text-anchor="start" x="8.835" y="-19.5" font-family="Helvetica,sans-Serif" font-size="10.00" fill="#000000">exists()</text>
<text text-anchor="start" x="8.835" y="-7.5" font-family="Helvetica,sans-Serif" font-size="10.00" fill="#000000">remove()</text>
</a>
</g>
</g>
<!-- object&#45;&gt;GridFS -->
<g id="edge1" class="edge">
<title>object&#45;&gt;GridFS</title>
<path fill="none" stroke="#000000" d="M28.8315,-135.2187C28.8315,-126.4825 28.8315,-117.439 28.8315,-108.7047"/>
<polygon fill="#000000" stroke="#000000" points="25.3316,-135.2959 28.8315,-145.296 32.3316,-135.296 25.3316,-135.2959"/>
</g>
</g>
</svg>
