<?xml version="1.0" encoding="UTF-8" standalone="no"?>
<!DOCTYPE svg PUBLIC "-//W3C//DTD SVG 1.1//EN"
 "http://www.w3.org/Graphics/SVG/1.1/DTD/svg11.dtd">
<!-- Generated by graphviz version 2.40.1 (20161225.0304)
 -->
<!-- Title: %0 Pages: 1 -->
<svg width="99pt" height="230pt"
 viewBox="0.00 0.00 99.03 230.00" xmlns="http://www.w3.org/2000/svg" xmlns:xlink="http://www.w3.org/1999/xlink">
<g id="graph0" class="graph" transform="scale(1 1) rotate(0) translate(4 226)">
<title>%0</title>
<polygon fill="#ffffff" stroke="transparent" points="-4,4 -4,-226 95.027,-226 95.027,4 -4,4"/>
<!-- object -->
<g id="node1" class="node">
<title>object</title>
<g id="a_node1"><a xlink:href="object.md" xlink:title="object">
<polygon fill="#ffffff" stroke="#000000" points="16.682,-133.5 16.682,-221.5 74.345,-221.5 74.345,-133.5 16.682,-133.5"/>
<text text-anchor="middle" x="45.5135" y="-208.5" font-family="Helvetica,sans-Serif" font-size="10.00" fill="#000000">object</text>
<polyline fill="none" stroke="#000000" points="16.682,-201.5 74.345,-201.5 "/>
<text text-anchor="start" x="24.682" y="-188.5" font-family="Helvetica,sans-Serif" font-size="10.00" fill="#000000">dispose()</text>
<text text-anchor="start" x="24.682" y="-176.5" font-family="Helvetica,sans-Serif" font-size="10.00" fill="#000000">equals()</text>
<text text-anchor="start" x="24.682" y="-164.5" font-family="Helvetica,sans-Serif" font-size="10.00" fill="#000000">toString()</text>
<text text-anchor="start" x="24.682" y="-152.5" font-family="Helvetica,sans-Serif" font-size="10.00" fill="#000000">toJSON()</text>
<text text-anchor="start" x="24.682" y="-140.5" font-family="Helvetica,sans-Serif" font-size="10.00" fill="#000000">valueOf()</text>
</a>
</g>
</g>
<!-- HeapGraphEdge -->
<g id="node2" class="node">
<title>HeapGraphEdge</title>
<g id="a_node2"><a xlink:title="HeapGraphEdge">
<polygon fill="#d3d3d3" stroke="#000000" points="0,-.5 0,-96.5 91.027,-96.5 91.027,-.5 0,-.5"/>
<text text-anchor="middle" x="45.5135" y="-83.5" font-family="Helvetica,sans-Serif" font-size="10.00" fill="#000000">HeapGraphEdge</text>
<polyline fill="none" stroke="#000000" points="0,-76.5 91.027,-76.5 "/>
<text text-anchor="start" x="8" y="-63.5" font-family="Helvetica,sans-Serif" font-size="10.00" fill="#000000">type</text>
<text text-anchor="start" x="8" y="-51.5" font-family="Helvetica,sans-Serif" font-size="10.00" fill="#000000">name</text>
<text text-anchor="start" x="8" y="-39.5" font-family="Helvetica,sans-Serif" font-size="10.00" fill="#000000">description</text>
<polyline fill="none" stroke="#000000" points="0,-32.5 91.027,-32.5 "/>
<text text-anchor="start" x="8" y="-19.5" font-family="Helvetica,sans-Serif" font-size="10.00" fill="#000000">getFromNode()</text>
<text text-anchor="start" x="8" y="-7.5" font-family="Helvetica,sans-Serif" font-size="10.00" fill="#000000">getToNode()</text>
</a>
</g>
</g>
<!-- object&#45;&gt;HeapGraphEdge -->
<g id="edge1" class="edge">
<title>object&#45;&gt;HeapGraphEdge</title>
<path fill="none" stroke="#000000" d="M45.5135,-123.2875C45.5135,-114.4791 45.5135,-105.4079 45.5135,-96.7541"/>
<polygon fill="#000000" stroke="#000000" points="42.0136,-123.4663 45.5135,-133.4663 49.0136,-123.4664 42.0136,-123.4663"/>
</g>
</g>
</svg>
