<?xml version="1.0" encoding="UTF-8" standalone="no"?>
<!DOCTYPE svg PUBLIC "-//W3C//DTD SVG 1.1//EN"
 "http://www.w3.org/Graphics/SVG/1.1/DTD/svg11.dtd">
<!-- Generated by graphviz version 2.40.1 (20161225.0304)
 -->
<!-- Title: %0 Pages: 1 -->
<svg width="107pt" height="558pt"
 viewBox="0.00 0.00 107.00 558.00" xmlns="http://www.w3.org/2000/svg" xmlns:xlink="http://www.w3.org/1999/xlink">
<g id="graph0" class="graph" transform="scale(1 1) rotate(0) translate(4 554)">
<title>%0</title>
<polygon fill="#ffffff" stroke="transparent" points="-4,4 -4,-554 103,-554 103,4 -4,4"/>
<!-- object -->
<g id="node1" class="node">
<title>object</title>
<g id="a_node1"><a xlink:href="object.md" xlink:title="object">
<polygon fill="#ffffff" stroke="transparent" points="21,-458 21,-550 78,-550 78,-458 21,-458"/>
<polygon fill="none" stroke="#000000" points="21.5,-528 21.5,-550 78.5,-550 78.5,-528 21.5,-528"/>
<text text-anchor="start" x="36.6625" y="-536" font-family="Helvetica,sans-Serif" font-size="10.00" fill="#000000">object</text>
<polygon fill="none" stroke="#000000" points="21.5,-458 21.5,-528 78.5,-528 78.5,-458 21.5,-458"/>
<text text-anchor="start" x="26.5" y="-514" font-family="Helvetica,sans-Serif" font-size="10.00" fill="#000000"> dispose()</text>
<text text-anchor="start" x="26.5" y="-502" font-family="Helvetica,sans-Serif" font-size="10.00" fill="#000000"> equals()</text>
<text text-anchor="start" x="26.5" y="-490" font-family="Helvetica,sans-Serif" font-size="10.00" fill="#000000"> toString()</text>
<text text-anchor="start" x="26.5" y="-478" font-family="Helvetica,sans-Serif" font-size="10.00" fill="#000000"> toJSON()</text>
<text text-anchor="start" x="26.5" y="-466" font-family="Helvetica,sans-Serif" font-size="10.00" fill="#000000"> valueOf()</text>
</a>
</g>
</g>
<!-- TcpServer -->
<g id="node2" class="node">
<title>TcpServer</title>
<g id="a_node2"><a xlink:href="TcpServer.md" xlink:title="TcpServer">
<polygon fill="#ffffff" stroke="transparent" points="3.5,-286 3.5,-422 95.5,-422 95.5,-286 3.5,-286"/>
<polygon fill="none" stroke="#000000" points="3.5,-400 3.5,-422 95.5,-422 95.5,-400 3.5,-400"/>
<text text-anchor="start" x="26.4435" y="-408" font-family="Helvetica,sans-Serif" font-size="10.00" fill="#000000">TcpServer</text>
<polygon fill="none" stroke="#000000" points="3.5,-378 3.5,-400 95.5,-400 95.5,-378 3.5,-378"/>
<text text-anchor="start" x="8.5" y="-386" font-family="Helvetica,sans-Serif" font-size="10.00" fill="#000000">  new TcpServer()</text>
<polygon fill="none" stroke="#000000" points="3.5,-332 3.5,-378 95.5,-378 95.5,-332 3.5,-332"/>
<text text-anchor="start" x="8.5" y="-364" font-family="Helvetica,sans-Serif" font-size="10.00" fill="#000000"> socket</text>
<text text-anchor="start" x="8.5" y="-352" font-family="Helvetica,sans-Serif" font-size="10.00" fill="#000000"> handler</text>
<text text-anchor="start" x="8.5" y="-340" font-family="Helvetica,sans-Serif" font-size="10.00" fill="#000000"> stats</text>
<polygon fill="none" stroke="#000000" points="3.5,-286 3.5,-332 95.5,-332 95.5,-286 3.5,-286"/>
<text text-anchor="start" x="8.5" y="-318" font-family="Helvetica,sans-Serif" font-size="10.00" fill="#000000"> run()</text>
<text text-anchor="start" x="8.5" y="-306" font-family="Helvetica,sans-Serif" font-size="10.00" fill="#000000"> asyncRun()</text>
<text text-anchor="start" x="8.5" y="-294" font-family="Helvetica,sans-Serif" font-size="10.00" fill="#000000"> stop()</text>
</a>
</g>
</g>
<!-- object&#45;&gt;TcpServer -->
<g id="edge1" class="edge">
<title>object&#45;&gt;TcpServer</title>
<path fill="none" stroke="#000000" d="M49.5,-447.7662C49.5,-439.4038 49.5,-430.7087 49.5,-422.1344"/>
<polygon fill="#000000" stroke="#000000" points="46.0001,-447.7711 49.5,-457.7711 53.0001,-447.7711 46.0001,-447.7711"/>
</g>
<!-- HttpServer -->
<g id="node3" class="node">
<title>HttpServer</title>
<g id="a_node3"><a xlink:title="HttpServer">
<polygon fill="#d3d3d3" stroke="transparent" points="0,-114 0,-250 99,-250 99,-114 0,-114"/>
<polygon fill="none" stroke="#000000" points=".5,-228 .5,-250 99.5,-250 99.5,-228 .5,-228"/>
<text text-anchor="start" x="26.1095" y="-236" font-family="Helvetica,sans-Serif" font-size="10.00" fill="#000000">HttpServer</text>
<polygon fill="none" stroke="#000000" points=".5,-206 .5,-228 99.5,-228 99.5,-206 .5,-206"/>
<text text-anchor="start" x="5.5" y="-214" font-family="Helvetica,sans-Serif" font-size="10.00" fill="#000000">  new HttpServer()</text>
<polygon fill="none" stroke="#000000" points=".5,-136 .5,-206 99.5,-206 99.5,-136 .5,-136"/>
<text text-anchor="start" x="5.5" y="-192" font-family="Helvetica,sans-Serif" font-size="10.00" fill="#000000"> crossDomain</text>
<text text-anchor="start" x="5.5" y="-180" font-family="Helvetica,sans-Serif" font-size="10.00" fill="#000000"> forceGZIP</text>
<text text-anchor="start" x="5.5" y="-168" font-family="Helvetica,sans-Serif" font-size="10.00" fill="#000000"> maxHeadersCount</text>
<text text-anchor="start" x="5.5" y="-156" font-family="Helvetica,sans-Serif" font-size="10.00" fill="#000000"> maxUploadSize</text>
<text text-anchor="start" x="5.5" y="-144" font-family="Helvetica,sans-Serif" font-size="10.00" fill="#000000"> httpStats</text>
<polygon fill="none" stroke="#000000" points=".5,-114 .5,-136 99.5,-136 99.5,-114 .5,-114"/>
<text text-anchor="start" x="5.5" y="-122" font-family="Helvetica,sans-Serif" font-size="10.00" fill="#000000"> onerror()</text>
</a>
</g>
</g>
<!-- TcpServer&#45;&gt;HttpServer -->
<g id="edge2" class="edge">
<title>TcpServer&#45;&gt;HttpServer</title>
<path fill="none" stroke="#000000" d="M49.5,-275.3631C49.5,-266.9746 49.5,-258.4919 49.5,-250.2376"/>
<polygon fill="#000000" stroke="#000000" points="46.0001,-275.5268 49.5,-285.5268 53.0001,-275.5269 46.0001,-275.5268"/>
</g>
<!-- HttpsServer -->
<g id="node4" class="node">
<title>HttpsServer</title>
<g id="a_node4"><a xlink:href="HttpsServer.md" xlink:title="HttpsServer">
<polygon fill="#ffffff" stroke="transparent" points="0,0 0,-78 99,-78 99,0 0,0"/>
<polygon fill="none" stroke="#000000" points=".5,-56 .5,-78 99.5,-78 99.5,-56 .5,-56"/>
<text text-anchor="start" x="23.6095" y="-64" font-family="Helvetica,sans-Serif" font-size="10.00" fill="#000000">HttpsServer</text>
<polygon fill="none" stroke="#000000" points=".5,-34 .5,-56 99.5,-56 99.5,-34 .5,-34"/>
<text text-anchor="start" x="5.5" y="-42" font-family="Helvetica,sans-Serif" font-size="10.00" fill="#000000">  new HttpsServer()</text>
<polygon fill="none" stroke="#000000" points=".5,0 .5,-34 99.5,-34 99.5,0 .5,0"/>
<text text-anchor="start" x="5.5" y="-20" font-family="Helvetica,sans-Serif" font-size="10.00" fill="#000000"> verification</text>
<text text-anchor="start" x="5.5" y="-8" font-family="Helvetica,sans-Serif" font-size="10.00" fill="#000000"> ca</text>
</a>
</g>
</g>
<!-- HttpServer&#45;&gt;HttpsServer -->
<g id="edge3" class="edge">
<title>HttpServer&#45;&gt;HttpsServer</title>
<path fill="none" stroke="#000000" d="M49.5,-103.8187C49.5,-94.9595 49.5,-86.2382 49.5,-78.2054"/>
<polygon fill="#000000" stroke="#000000" points="46.0001,-103.8504 49.5,-113.8505 53.0001,-103.8505 46.0001,-103.8504"/>
</g>
</g>
</svg>
