<?xml version="1.0" encoding="UTF-8" standalone="no"?>
<!DOCTYPE svg PUBLIC "-//W3C//DTD SVG 1.1//EN"
 "http://www.w3.org/Graphics/SVG/1.1/DTD/svg11.dtd">
<!-- Generated by graphviz version 2.40.1 (20161225.0304)
 -->
<!-- Title: %0 Pages: 1 -->
<svg width="98pt" height="332pt"
 viewBox="0.00 0.00 98.00 332.00" xmlns="http://www.w3.org/2000/svg" xmlns:xlink="http://www.w3.org/1999/xlink">
<g id="graph0" class="graph" transform="scale(1 1) rotate(0) translate(4 328)">
<title>%0</title>
<polygon fill="#ffffff" stroke="transparent" points="-4,4 -4,-328 94,-328 94,4 -4,4"/>
<!-- object -->
<g id="node1" class="node">
<title>object</title>
<g id="a_node1"><a xlink:href="object.md" xlink:title="object">
<polygon fill="#ffffff" stroke="transparent" points="16.5,-232 16.5,-324 73.5,-324 73.5,-232 16.5,-232"/>
<polygon fill="none" stroke="#000000" points="17,-302 17,-324 74,-324 74,-302 17,-302"/>
<text text-anchor="start" x="32.1625" y="-310" font-family="Helvetica,sans-Serif" font-size="10.00" fill="#000000">object</text>
<polygon fill="none" stroke="#000000" points="17,-232 17,-302 74,-302 74,-232 17,-232"/>
<text text-anchor="start" x="22" y="-288" font-family="Helvetica,sans-Serif" font-size="10.00" fill="#000000"> dispose()</text>
<text text-anchor="start" x="22" y="-276" font-family="Helvetica,sans-Serif" font-size="10.00" fill="#000000"> equals()</text>
<text text-anchor="start" x="22" y="-264" font-family="Helvetica,sans-Serif" font-size="10.00" fill="#000000"> toString()</text>
<text text-anchor="start" x="22" y="-252" font-family="Helvetica,sans-Serif" font-size="10.00" fill="#000000"> toJSON()</text>
<text text-anchor="start" x="22" y="-240" font-family="Helvetica,sans-Serif" font-size="10.00" fill="#000000"> valueOf()</text>
</a>
</g>
</g>
<!-- HttpClient -->
<g id="node2" class="node">
<title>HttpClient</title>
<g id="a_node2"><a xlink:title="HttpClient">
<polygon fill="#d3d3d3" stroke="transparent" points="0,0 0,-196 90,-196 90,0 0,0"/>
<polygon fill="none" stroke="#000000" points="0,-174 0,-196 90,-196 90,-174 0,-174"/>
<text text-anchor="start" x="23.055" y="-182" font-family="Helvetica,sans-Serif" font-size="10.00" fill="#000000">HttpClient</text>
<polygon fill="none" stroke="#000000" points="0,-152 0,-174 90,-174 90,-152 0,-152"/>
<text text-anchor="start" x="5" y="-160" font-family="Helvetica,sans-Serif" font-size="10.00" fill="#000000">  new HttpClient()</text>
<polygon fill="none" stroke="#000000" points="0,-82 0,-152 90,-152 90,-82 0,-82"/>
<text text-anchor="start" x="5" y="-138" font-family="Helvetica,sans-Serif" font-size="10.00" fill="#000000"> cookies</text>
<text text-anchor="start" x="5" y="-126" font-family="Helvetica,sans-Serif" font-size="10.00" fill="#000000"> timeout</text>
<text text-anchor="start" x="5" y="-114" font-family="Helvetica,sans-Serif" font-size="10.00" fill="#000000"> enableCookie</text>
<text text-anchor="start" x="5" y="-102" font-family="Helvetica,sans-Serif" font-size="10.00" fill="#000000"> autoRedirect</text>
<text text-anchor="start" x="5" y="-90" font-family="Helvetica,sans-Serif" font-size="10.00" fill="#000000"> userAgent</text>
<polygon fill="none" stroke="#000000" points="0,0 0,-82 90,-82 90,0 0,0"/>
<text text-anchor="start" x="5" y="-68" font-family="Helvetica,sans-Serif" font-size="10.00" fill="#000000"> request()</text>
<text text-anchor="start" x="5" y="-56" font-family="Helvetica,sans-Serif" font-size="10.00" fill="#000000"> get()</text>
<text text-anchor="start" x="5" y="-44" font-family="Helvetica,sans-Serif" font-size="10.00" fill="#000000"> post()</text>
<text text-anchor="start" x="5" y="-32" font-family="Helvetica,sans-Serif" font-size="10.00" fill="#000000"> del()</text>
<text text-anchor="start" x="5" y="-20" font-family="Helvetica,sans-Serif" font-size="10.00" fill="#000000"> put()</text>
<text text-anchor="start" x="5" y="-8" font-family="Helvetica,sans-Serif" font-size="10.00" fill="#000000"> patch()</text>
</a>
</g>
</g>
<!-- object&#45;&gt;HttpClient -->
<g id="edge1" class="edge">
<title>object&#45;&gt;HttpClient</title>
<path fill="none" stroke="#000000" d="M45,-221.5308C45,-213.3434 45,-204.7241 45,-196.0037"/>
<polygon fill="#000000" stroke="#000000" points="41.5001,-221.6455 45,-231.6455 48.5001,-221.6456 41.5001,-221.6455"/>
</g>
</g>
</svg>
