<?xml version="1.0" encoding="UTF-8" standalone="no"?>
<!DOCTYPE svg PUBLIC "-//W3C//DTD SVG 1.1//EN"
 "http://www.w3.org/Graphics/SVG/1.1/DTD/svg11.dtd">
<!-- Generated by graphviz version 2.40.1 (20161225.0304)
 -->
<!-- Title: %0 Pages: 1 -->
<svg width="104pt" height="308pt"
 viewBox="0.00 0.00 104.00 308.00" xmlns="http://www.w3.org/2000/svg" xmlns:xlink="http://www.w3.org/1999/xlink">
<g id="graph0" class="graph" transform="scale(1 1) rotate(0) translate(4 304)">
<title>%0</title>
<polygon fill="#ffffff" stroke="transparent" points="-4,4 -4,-304 100,-304 100,4 -4,4"/>
<!-- object -->
<g id="node1" class="node">
<title>object</title>
<g id="a_node1"><a xlink:href="object.md" xlink:title="object">
<polygon fill="#ffffff" stroke="transparent" points="19.5,-208 19.5,-300 76.5,-300 76.5,-208 19.5,-208"/>
<polygon fill="none" stroke="#000000" points="20,-278 20,-300 77,-300 77,-278 20,-278"/>
<text text-anchor="start" x="35.1625" y="-286" font-family="Helvetica,sans-Serif" font-size="10.00" fill="#000000">object</text>
<polygon fill="none" stroke="#000000" points="20,-208 20,-278 77,-278 77,-208 20,-208"/>
<text text-anchor="start" x="25" y="-264" font-family="Helvetica,sans-Serif" font-size="10.00" fill="#000000"> dispose()</text>
<text text-anchor="start" x="25" y="-252" font-family="Helvetica,sans-Serif" font-size="10.00" fill="#000000"> equals()</text>
<text text-anchor="start" x="25" y="-240" font-family="Helvetica,sans-Serif" font-size="10.00" fill="#000000"> toString()</text>
<text text-anchor="start" x="25" y="-228" font-family="Helvetica,sans-Serif" font-size="10.00" fill="#000000"> toJSON()</text>
<text text-anchor="start" x="25" y="-216" font-family="Helvetica,sans-Serif" font-size="10.00" fill="#000000"> valueOf()</text>
</a>
</g>
</g>
<!-- HttpCookie -->
<g id="node2" class="node">
<title>HttpCookie</title>
<g id="a_node2"><a xlink:title="HttpCookie">
<polygon fill="#d3d3d3" stroke="transparent" points="0,0 0,-172 96,-172 96,0 0,0"/>
<polygon fill="none" stroke="#000000" points="0,-150 0,-172 96,-172 96,-150 0,-150"/>
<text text-anchor="start" x="23.2745" y="-158" font-family="Helvetica,sans-Serif" font-size="10.00" fill="#000000">HttpCookie</text>
<polygon fill="none" stroke="#000000" points="0,-128 0,-150 96,-150 96,-128 0,-128"/>
<text text-anchor="start" x="5" y="-136" font-family="Helvetica,sans-Serif" font-size="10.00" fill="#000000">  new HttpCookie()</text>
<polygon fill="none" stroke="#000000" points="0,-34 0,-128 96,-128 96,-34 0,-34"/>
<text text-anchor="start" x="5" y="-114" font-family="Helvetica,sans-Serif" font-size="10.00" fill="#000000"> name</text>
<text text-anchor="start" x="5" y="-102" font-family="Helvetica,sans-Serif" font-size="10.00" fill="#000000"> value</text>
<text text-anchor="start" x="5" y="-90" font-family="Helvetica,sans-Serif" font-size="10.00" fill="#000000"> domain</text>
<text text-anchor="start" x="5" y="-78" font-family="Helvetica,sans-Serif" font-size="10.00" fill="#000000"> path</text>
<text text-anchor="start" x="5" y="-66" font-family="Helvetica,sans-Serif" font-size="10.00" fill="#000000"> expires</text>
<text text-anchor="start" x="5" y="-54" font-family="Helvetica,sans-Serif" font-size="10.00" fill="#000000"> httpOnly</text>
<text text-anchor="start" x="5" y="-42" font-family="Helvetica,sans-Serif" font-size="10.00" fill="#000000"> secure</text>
<polygon fill="none" stroke="#000000" points="0,0 0,-34 96,-34 96,0 0,0"/>
<text text-anchor="start" x="5" y="-20" font-family="Helvetica,sans-Serif" font-size="10.00" fill="#000000"> parse()</text>
<text text-anchor="start" x="5" y="-8" font-family="Helvetica,sans-Serif" font-size="10.00" fill="#000000"> match()</text>
</a>
</g>
</g>
<!-- object&#45;&gt;HttpCookie -->
<g id="edge1" class="edge">
<title>object&#45;&gt;HttpCookie</title>
<path fill="none" stroke="#000000" d="M48,-197.5238C48,-189.3438 48,-180.7723 48,-172.1704"/>
<polygon fill="#000000" stroke="#000000" points="44.5001,-197.6485 48,-207.6485 51.5001,-197.6486 44.5001,-197.6485"/>
</g>
</g>
</svg>
