<?xml version="1.0" encoding="UTF-8" standalone="no"?>
<!DOCTYPE svg PUBLIC "-//W3C//DTD SVG 1.1//EN"
 "http://www.w3.org/Graphics/SVG/1.1/DTD/svg11.dtd">
<!-- Generated by graphviz version 2.40.1 (20161225.0304)
 -->
<!-- Title: %0 Pages: 1 -->
<svg width="96pt" height="322pt"
 viewBox="0.00 0.00 95.66 322.00" xmlns="http://www.w3.org/2000/svg" xmlns:xlink="http://www.w3.org/1999/xlink">
<g id="graph0" class="graph" transform="scale(1 1) rotate(0) translate(4 318)">
<title>%0</title>
<polygon fill="#ffffff" stroke="transparent" points="-4,4 -4,-318 91.664,-318 91.664,4 -4,4"/>
<!-- object -->
<g id="node1" class="node">
<title>object</title>
<g id="a_node1"><a xlink:href="object.md" xlink:title="object">
<polygon fill="#ffffff" stroke="#000000" points="15.0005,-225.5 15.0005,-313.5 72.6635,-313.5 72.6635,-225.5 15.0005,-225.5"/>
<text text-anchor="middle" x="43.832" y="-300.5" font-family="Helvetica,sans-Serif" font-size="10.00" fill="#000000">object</text>
<polyline fill="none" stroke="#000000" points="15.0005,-293.5 72.6635,-293.5 "/>
<text text-anchor="start" x="23.0005" y="-280.5" font-family="Helvetica,sans-Serif" font-size="10.00" fill="#000000">dispose()</text>
<text text-anchor="start" x="23.0005" y="-268.5" font-family="Helvetica,sans-Serif" font-size="10.00" fill="#000000">equals()</text>
<text text-anchor="start" x="23.0005" y="-256.5" font-family="Helvetica,sans-Serif" font-size="10.00" fill="#000000">toString()</text>
<text text-anchor="start" x="23.0005" y="-244.5" font-family="Helvetica,sans-Serif" font-size="10.00" fill="#000000">toJSON()</text>
<text text-anchor="start" x="23.0005" y="-232.5" font-family="Helvetica,sans-Serif" font-size="10.00" fill="#000000">valueOf()</text>
</a>
</g>
</g>
<!-- HttpClient -->
<g id="node2" class="node">
<title>HttpClient</title>
<g id="a_node2"><a xlink:title="HttpClient">
<polygon fill="#d3d3d3" stroke="#000000" points="0,-.5 0,-188.5 87.664,-188.5 87.664,-.5 0,-.5"/>
<text text-anchor="middle" x="43.832" y="-175.5" font-family="Helvetica,sans-Serif" font-size="10.00" fill="#000000">HttpClient</text>
<polyline fill="none" stroke="#000000" points="0,-168.5 87.664,-168.5 "/>
<text text-anchor="start" x="8" y="-155.5" font-family="Helvetica,sans-Serif" font-size="10.00" fill="#000000">new HttpClient()</text>
<polyline fill="none" stroke="#000000" points="0,-148.5 87.664,-148.5 "/>
<text text-anchor="start" x="8" y="-135.5" font-family="Helvetica,sans-Serif" font-size="10.00" fill="#000000">cookies</text>
<text text-anchor="start" x="8" y="-123.5" font-family="Helvetica,sans-Serif" font-size="10.00" fill="#000000">timeout</text>
<text text-anchor="start" x="8" y="-111.5" font-family="Helvetica,sans-Serif" font-size="10.00" fill="#000000">enableCookie</text>
<text text-anchor="start" x="8" y="-99.5" font-family="Helvetica,sans-Serif" font-size="10.00" fill="#000000">autoRedirect</text>
<text text-anchor="start" x="8" y="-87.5" font-family="Helvetica,sans-Serif" font-size="10.00" fill="#000000">userAgent</text>
<polyline fill="none" stroke="#000000" points="0,-80.5 87.664,-80.5 "/>
<text text-anchor="start" x="8" y="-67.5" font-family="Helvetica,sans-Serif" font-size="10.00" fill="#000000">request()</text>
<text text-anchor="start" x="8" y="-55.5" font-family="Helvetica,sans-Serif" font-size="10.00" fill="#000000">get()</text>
<text text-anchor="start" x="8" y="-43.5" font-family="Helvetica,sans-Serif" font-size="10.00" fill="#000000">post()</text>
<text text-anchor="start" x="8" y="-31.5" font-family="Helvetica,sans-Serif" font-size="10.00" fill="#000000">del()</text>
<text text-anchor="start" x="8" y="-19.5" font-family="Helvetica,sans-Serif" font-size="10.00" fill="#000000">put()</text>
<text text-anchor="start" x="8" y="-7.5" font-family="Helvetica,sans-Serif" font-size="10.00" fill="#000000">patch()</text>
</a>
</g>
</g>
<!-- object&#45;&gt;HttpClient -->
<g id="edge1" class="edge">
<title>object&#45;&gt;HttpClient</title>
<path fill="none" stroke="#000000" d="M43.832,-215.2069C43.832,-206.6764 43.832,-197.6515 43.832,-188.5315"/>
<polygon fill="#000000" stroke="#000000" points="40.3321,-215.3401 43.832,-225.3401 47.3321,-215.3401 40.3321,-215.3401"/>
</g>
</g>
</svg>
