<?xml version="1.0" encoding="UTF-8" standalone="no"?>
<!DOCTYPE svg PUBLIC "-//W3C//DTD SVG 1.1//EN"
 "http://www.w3.org/Graphics/SVG/1.1/DTD/svg11.dtd">
<!-- Generated by graphviz version 2.40.1 (20161225.0304)
 -->
<!-- Title: %0 Pages: 1 -->
<svg width="81pt" height="554pt"
 viewBox="0.00 0.00 81.00 554.00" xmlns="http://www.w3.org/2000/svg" xmlns:xlink="http://www.w3.org/1999/xlink">
<g id="graph0" class="graph" transform="scale(1 1) rotate(0) translate(4 550)">
<title>%0</title>
<polygon fill="#ffffff" stroke="transparent" points="-4,4 -4,-550 77,-550 77,4 -4,4"/>
<!-- object -->
<g id="node1" class="node">
<title>object</title>
<g id="a_node1"><a xlink:href="object.md" xlink:title="object">
<polygon fill="#ffffff" stroke="transparent" points="8,-454 8,-546 65,-546 65,-454 8,-454"/>
<polygon fill="none" stroke="#000000" points="8.5,-524 8.5,-546 65.5,-546 65.5,-524 8.5,-524"/>
<text text-anchor="start" x="23.6625" y="-532" font-family="Helvetica,sans-Serif" font-size="10.00" fill="#000000">object</text>
<polygon fill="none" stroke="#000000" points="8.5,-454 8.5,-524 65.5,-524 65.5,-454 8.5,-454"/>
<text text-anchor="start" x="13.5" y="-510" font-family="Helvetica,sans-Serif" font-size="10.00" fill="#000000"> dispose()</text>
<text text-anchor="start" x="13.5" y="-498" font-family="Helvetica,sans-Serif" font-size="10.00" fill="#000000"> equals()</text>
<text text-anchor="start" x="13.5" y="-486" font-family="Helvetica,sans-Serif" font-size="10.00" fill="#000000"> toString()</text>
<text text-anchor="start" x="13.5" y="-474" font-family="Helvetica,sans-Serif" font-size="10.00" fill="#000000"> toJSON()</text>
<text text-anchor="start" x="13.5" y="-462" font-family="Helvetica,sans-Serif" font-size="10.00" fill="#000000"> valueOf()</text>
</a>
</g>
</g>
<!-- List -->
<g id="node2" class="node">
<title>List</title>
<g id="a_node2"><a xlink:title="List">
<polygon fill="#d3d3d3" stroke="transparent" points="0,-104 0,-418 73,-418 73,-104 0,-104"/>
<polygon fill="none" stroke="#000000" points=".5,-396 .5,-418 73.5,-418 73.5,-396 .5,-396"/>
<text text-anchor="start" x="29.2215" y="-404" font-family="Helvetica,sans-Serif" font-size="10.00" fill="#000000">List</text>
<polygon fill="none" stroke="#000000" points=".5,-374 .5,-396 73.5,-396 73.5,-374 .5,-374"/>
<text text-anchor="start" x="5.5" y="-382" font-family="Helvetica,sans-Serif" font-size="10.00" fill="#000000">  new List()</text>
<polygon fill="none" stroke="#000000" points=".5,-352 .5,-374 73.5,-374 73.5,-352 .5,-352"/>
<text text-anchor="start" x="5.5" y="-360" font-family="Helvetica,sans-Serif" font-size="10.00" fill="#000000"> operator[]</text>
<polygon fill="none" stroke="#000000" points=".5,-330 .5,-352 73.5,-352 73.5,-330 .5,-330"/>
<text text-anchor="start" x="5.5" y="-338" font-family="Helvetica,sans-Serif" font-size="10.00" fill="#000000"> length</text>
<polygon fill="none" stroke="#000000" points=".5,-104 .5,-330 73.5,-330 73.5,-104 .5,-104"/>
<text text-anchor="start" x="5.5" y="-316" font-family="Helvetica,sans-Serif" font-size="10.00" fill="#000000"> freeze()</text>
<text text-anchor="start" x="5.5" y="-304" font-family="Helvetica,sans-Serif" font-size="10.00" fill="#000000"> resize()</text>
<text text-anchor="start" x="5.5" y="-292" font-family="Helvetica,sans-Serif" font-size="10.00" fill="#000000"> push()</text>
<text text-anchor="start" x="5.5" y="-280" font-family="Helvetica,sans-Serif" font-size="10.00" fill="#000000"> indexOf()</text>
<text text-anchor="start" x="5.5" y="-268" font-family="Helvetica,sans-Serif" font-size="10.00" fill="#000000"> lastIndexOf()</text>
<text text-anchor="start" x="5.5" y="-256" font-family="Helvetica,sans-Serif" font-size="10.00" fill="#000000"> push()</text>
<text text-anchor="start" x="5.5" y="-244" font-family="Helvetica,sans-Serif" font-size="10.00" fill="#000000"> pushArray()</text>
<text text-anchor="start" x="5.5" y="-232" font-family="Helvetica,sans-Serif" font-size="10.00" fill="#000000"> pop()</text>
<text text-anchor="start" x="5.5" y="-220" font-family="Helvetica,sans-Serif" font-size="10.00" fill="#000000"> slice()</text>
<text text-anchor="start" x="5.5" y="-208" font-family="Helvetica,sans-Serif" font-size="10.00" fill="#000000"> concat()</text>
<text text-anchor="start" x="5.5" y="-196" font-family="Helvetica,sans-Serif" font-size="10.00" fill="#000000"> every()</text>
<text text-anchor="start" x="5.5" y="-184" font-family="Helvetica,sans-Serif" font-size="10.00" fill="#000000"> some()</text>
<text text-anchor="start" x="5.5" y="-172" font-family="Helvetica,sans-Serif" font-size="10.00" fill="#000000"> filter()</text>
<text text-anchor="start" x="5.5" y="-160" font-family="Helvetica,sans-Serif" font-size="10.00" fill="#000000"> forEach()</text>
<text text-anchor="start" x="5.5" y="-148" font-family="Helvetica,sans-Serif" font-size="10.00" fill="#000000"> map()</text>
<text text-anchor="start" x="5.5" y="-136" font-family="Helvetica,sans-Serif" font-size="10.00" fill="#000000"> reduce()</text>
<text text-anchor="start" x="5.5" y="-124" font-family="Helvetica,sans-Serif" font-size="10.00" fill="#000000"> sort()</text>
<text text-anchor="start" x="5.5" y="-112" font-family="Helvetica,sans-Serif" font-size="10.00" fill="#000000"> toArray()</text>
</a>
</g>
</g>
<!-- object&#45;&gt;List -->
<g id="edge1" class="edge">
<title>object&#45;&gt;List</title>
<path fill="none" stroke="#000000" d="M36.5,-443.6512C36.5,-435.5908 36.5,-426.9926 36.5,-418.0841"/>
<polygon fill="#000000" stroke="#000000" points="33.0001,-443.9184 36.5,-453.9184 40.0001,-443.9184 33.0001,-443.9184"/>
</g>
<!-- DBResult -->
<g id="node3" class="node">
<title>DBResult</title>
<g id="a_node3"><a xlink:href="DBResult.md" xlink:title="DBResult">
<polygon fill="#ffffff" stroke="transparent" points="10.5,0 10.5,-68 62.5,-68 62.5,0 10.5,0"/>
<polygon fill="none" stroke="#000000" points="10.5,-46 10.5,-68 62.5,-68 62.5,-46 10.5,-46"/>
<text text-anchor="start" x="15.3885" y="-54" font-family="Helvetica,sans-Serif" font-size="10.00" fill="#000000">DBResult</text>
<polygon fill="none" stroke="#000000" points="10.5,0 10.5,-46 62.5,-46 62.5,0 10.5,0"/>
<text text-anchor="start" x="15.5" y="-32" font-family="Helvetica,sans-Serif" font-size="10.00" fill="#000000"> insertId</text>
<text text-anchor="start" x="15.5" y="-20" font-family="Helvetica,sans-Serif" font-size="10.00" fill="#000000"> affected</text>
<text text-anchor="start" x="15.5" y="-8" font-family="Helvetica,sans-Serif" font-size="10.00" fill="#000000"> fields</text>
</a>
</g>
</g>
<!-- List&#45;&gt;DBResult -->
<g id="edge2" class="edge">
<title>List&#45;&gt;DBResult</title>
<path fill="none" stroke="#000000" d="M36.5,-93.7216C36.5,-84.4947 36.5,-75.8844 36.5,-68.2338"/>
<polygon fill="#000000" stroke="#000000" points="33.0001,-93.9597 36.5,-103.9597 40.0001,-93.9598 33.0001,-93.9597"/>
</g>
</g>
</svg>
