<?xml version="1.0" encoding="UTF-8" standalone="no"?>
<!DOCTYPE svg PUBLIC "-//W3C//DTD SVG 1.1//EN"
 "http://www.w3.org/Graphics/SVG/1.1/DTD/svg11.dtd">
<!-- Generated by graphviz version 2.40.1 (20161225.0304)
 -->
<!-- Title: %0 Pages: 1 -->
<svg width="93pt" height="306pt"
 viewBox="0.00 0.00 92.90 306.00" xmlns="http://www.w3.org/2000/svg" xmlns:xlink="http://www.w3.org/1999/xlink">
<g id="graph0" class="graph" transform="scale(1 1) rotate(0) translate(4 302)">
<title>%0</title>
<polygon fill="#ffffff" stroke="transparent" points="-4,4 -4,-302 88.904,-302 88.904,4 -4,4"/>
<!-- object -->
<g id="node1" class="node">
<title>object</title>
<g id="a_node1"><a xlink:href="object.md" xlink:title="object">
<polygon fill="#ffffff" stroke="#000000" points="13.6205,-209.5 13.6205,-297.5 71.2835,-297.5 71.2835,-209.5 13.6205,-209.5"/>
<text text-anchor="middle" x="42.452" y="-284.5" font-family="Helvetica,sans-Serif" font-size="10.00" fill="#000000">object</text>
<polyline fill="none" stroke="#000000" points="13.6205,-277.5 71.2835,-277.5 "/>
<text text-anchor="start" x="21.6205" y="-264.5" font-family="Helvetica,sans-Serif" font-size="10.00" fill="#000000">dispose()</text>
<text text-anchor="start" x="21.6205" y="-252.5" font-family="Helvetica,sans-Serif" font-size="10.00" fill="#000000">equals()</text>
<text text-anchor="start" x="21.6205" y="-240.5" font-family="Helvetica,sans-Serif" font-size="10.00" fill="#000000">toString()</text>
<text text-anchor="start" x="21.6205" y="-228.5" font-family="Helvetica,sans-Serif" font-size="10.00" fill="#000000">toJSON()</text>
<text text-anchor="start" x="21.6205" y="-216.5" font-family="Helvetica,sans-Serif" font-size="10.00" fill="#000000">valueOf()</text>
</a>
</g>
</g>
<!-- Map -->
<g id="node2" class="node">
<title>Map</title>
<g id="a_node2"><a xlink:title="Map">
<polygon fill="#d3d3d3" stroke="#000000" points="0,-.5 0,-172.5 84.904,-172.5 84.904,-.5 0,-.5"/>
<text text-anchor="middle" x="42.452" y="-159.5" font-family="Helvetica,sans-Serif" font-size="10.00" fill="#000000">Map</text>
<polyline fill="none" stroke="#000000" points="0,-152.5 84.904,-152.5 "/>
<text text-anchor="start" x="8" y="-139.5" font-family="Helvetica,sans-Serif" font-size="10.00" fill="#000000">new Map()</text>
<polyline fill="none" stroke="#000000" points="0,-132.5 84.904,-132.5 "/>
<text text-anchor="start" x="8" y="-119.5" font-family="Helvetica,sans-Serif" font-size="10.00" fill="#000000">operator[String]</text>
<polyline fill="none" stroke="#000000" points="0,-112.5 84.904,-112.5 "/>
<text text-anchor="start" x="8" y="-99.5" font-family="Helvetica,sans-Serif" font-size="10.00" fill="#000000">size</text>
<polyline fill="none" stroke="#000000" points="0,-92.5 84.904,-92.5 "/>
<text text-anchor="start" x="8" y="-79.5" font-family="Helvetica,sans-Serif" font-size="10.00" fill="#000000">clear()</text>
<text text-anchor="start" x="8" y="-67.5" font-family="Helvetica,sans-Serif" font-size="10.00" fill="#000000">has()</text>
<text text-anchor="start" x="8" y="-55.5" font-family="Helvetica,sans-Serif" font-size="10.00" fill="#000000">get()</text>
<text text-anchor="start" x="8" y="-43.5" font-family="Helvetica,sans-Serif" font-size="10.00" fill="#000000">put()</text>
<text text-anchor="start" x="8" y="-31.5" font-family="Helvetica,sans-Serif" font-size="10.00" fill="#000000">set()</text>
<text text-anchor="start" x="8" y="-19.5" font-family="Helvetica,sans-Serif" font-size="10.00" fill="#000000">remove()</text>
<text text-anchor="start" x="8" y="-7.5" font-family="Helvetica,sans-Serif" font-size="10.00" fill="#000000">isEmpty()</text>
</a>
</g>
</g>
<!-- object&#45;&gt;Map -->
<g id="edge1" class="edge">
<title>object&#45;&gt;Map</title>
<path fill="none" stroke="#000000" d="M42.452,-199.0986C42.452,-190.6202 42.452,-181.6843 42.452,-172.7067"/>
<polygon fill="#000000" stroke="#000000" points="38.9521,-199.1855 42.452,-209.1855 45.9521,-199.1855 38.9521,-199.1855"/>
</g>
</g>
</svg>
