<?xml version="1.0" encoding="UTF-8" standalone="no"?>
<!DOCTYPE svg PUBLIC "-//W3C//DTD SVG 1.1//EN"
 "http://www.w3.org/Graphics/SVG/1.1/DTD/svg11.dtd">
<!-- Generated by graphviz version 2.40.1 (20161225.0304)
 -->
<!-- Title: %0 Pages: 1 -->
<svg width="81pt" height="342pt"
 viewBox="0.00 0.00 81.00 342.00" xmlns="http://www.w3.org/2000/svg" xmlns:xlink="http://www.w3.org/1999/xlink">
<g id="graph0" class="graph" transform="scale(1 1) rotate(0) translate(4 338)">
<title>%0</title>
<polygon fill="#ffffff" stroke="transparent" points="-4,4 -4,-338 77,-338 77,4 -4,4"/>
<!-- object -->
<g id="node1" class="node">
<title>object</title>
<g id="a_node1"><a xlink:href="object.md" xlink:title="object">
<polygon fill="#ffffff" stroke="transparent" points="8,-242 8,-334 65,-334 65,-242 8,-242"/>
<polygon fill="none" stroke="#000000" points="8.5,-312 8.5,-334 65.5,-334 65.5,-312 8.5,-312"/>
<text text-anchor="start" x="23.6625" y="-320" font-family="Helvetica,sans-Serif" font-size="10.00" fill="#000000">object</text>
<polygon fill="none" stroke="#000000" points="8.5,-242 8.5,-312 65.5,-312 65.5,-242 8.5,-242"/>
<text text-anchor="start" x="13.5" y="-298" font-family="Helvetica,sans-Serif" font-size="10.00" fill="#000000"> dispose()</text>
<text text-anchor="start" x="13.5" y="-286" font-family="Helvetica,sans-Serif" font-size="10.00" fill="#000000"> equals()</text>
<text text-anchor="start" x="13.5" y="-274" font-family="Helvetica,sans-Serif" font-size="10.00" fill="#000000"> toString()</text>
<text text-anchor="start" x="13.5" y="-262" font-family="Helvetica,sans-Serif" font-size="10.00" fill="#000000"> toJSON()</text>
<text text-anchor="start" x="13.5" y="-250" font-family="Helvetica,sans-Serif" font-size="10.00" fill="#000000"> valueOf()</text>
</a>
</g>
</g>
<!-- DbConnection -->
<g id="node2" class="node">
<title>DbConnection</title>
<g id="a_node2"><a xlink:href="DbConnection.md" xlink:title="DbConnection">
<polygon fill="#ffffff" stroke="transparent" points="0,-80 0,-206 73,-206 73,-80 0,-80"/>
<polygon fill="none" stroke="#000000" points=".5,-184 .5,-206 73.5,-206 73.5,-184 .5,-184"/>
<text text-anchor="start" x="5.3255" y="-192" font-family="Helvetica,sans-Serif" font-size="10.00" fill="#000000">DbConnection</text>
<polygon fill="none" stroke="#000000" points=".5,-162 .5,-184 73.5,-184 73.5,-162 .5,-162"/>
<text text-anchor="start" x="5.5" y="-170" font-family="Helvetica,sans-Serif" font-size="10.00" fill="#000000"> type</text>
<polygon fill="none" stroke="#000000" points=".5,-80 .5,-162 73.5,-162 73.5,-80 .5,-80"/>
<text text-anchor="start" x="5.5" y="-148" font-family="Helvetica,sans-Serif" font-size="10.00" fill="#000000"> close()</text>
<text text-anchor="start" x="5.5" y="-136" font-family="Helvetica,sans-Serif" font-size="10.00" fill="#000000"> begin()</text>
<text text-anchor="start" x="5.5" y="-124" font-family="Helvetica,sans-Serif" font-size="10.00" fill="#000000"> commit()</text>
<text text-anchor="start" x="5.5" y="-112" font-family="Helvetica,sans-Serif" font-size="10.00" fill="#000000"> rollback()</text>
<text text-anchor="start" x="5.5" y="-100" font-family="Helvetica,sans-Serif" font-size="10.00" fill="#000000"> execute()</text>
<text text-anchor="start" x="5.5" y="-88" font-family="Helvetica,sans-Serif" font-size="10.00" fill="#000000"> format()</text>
</a>
</g>
</g>
<!-- object&#45;&gt;DbConnection -->
<g id="edge1" class="edge">
<title>object&#45;&gt;DbConnection</title>
<path fill="none" stroke="#000000" d="M36.5,-231.6596C36.5,-223.2593 36.5,-214.554 36.5,-206.0266"/>
<polygon fill="#000000" stroke="#000000" points="33.0001,-231.7224 36.5,-241.7224 40.0001,-231.7225 33.0001,-231.7224"/>
</g>
<!-- MSSQL -->
<g id="node3" class="node">
<title>MSSQL</title>
<g id="a_node3"><a xlink:title="MSSQL">
<polygon fill="#d3d3d3" stroke="transparent" points="14,0 14,-44 59,-44 59,0 14,0"/>
<polygon fill="none" stroke="#000000" points="14.5,-22 14.5,-44 59.5,-44 59.5,-22 14.5,-22"/>
<text text-anchor="start" x="19.4975" y="-30" font-family="Helvetica,sans-Serif" font-size="10.00" fill="#000000">MSSQL</text>
<polygon fill="none" stroke="#000000" points="14.5,0 14.5,-22 59.5,-22 59.5,0 14.5,0"/>
<text text-anchor="start" x="19.5" y="-8" font-family="Helvetica,sans-Serif" font-size="10.00" fill="#000000"> use()</text>
</a>
</g>
</g>
<!-- DbConnection&#45;&gt;MSSQL -->
<g id="edge2" class="edge">
<title>DbConnection&#45;&gt;MSSQL</title>
<path fill="none" stroke="#000000" d="M36.5,-69.5375C36.5,-60.317 36.5,-51.518 36.5,-44.0526"/>
<polygon fill="#000000" stroke="#000000" points="33.0001,-69.665 36.5,-79.665 40.0001,-69.665 33.0001,-69.665"/>
</g>
</g>
</svg>
