<?xml version="1.0" encoding="UTF-8" standalone="no"?>
<!DOCTYPE svg PUBLIC "-//W3C//DTD SVG 1.1//EN"
 "http://www.w3.org/Graphics/SVG/1.1/DTD/svg11.dtd">
<!-- Generated by graphviz version 2.40.1 (20161225.0304)
 -->
<!-- Title: %0 Pages: 1 -->
<svg width="66pt" height="300pt"
 viewBox="0.00 0.00 66.00 300.00" xmlns="http://www.w3.org/2000/svg" xmlns:xlink="http://www.w3.org/1999/xlink">
<g id="graph0" class="graph" transform="scale(1 1) rotate(0) translate(4 296)">
<title>%0</title>
<polygon fill="#ffffff" stroke="transparent" points="-4,4 -4,-296 62,-296 62,4 -4,4"/>
<!-- object -->
<g id="node1" class="node">
<title>object</title>
<g id="a_node1"><a xlink:href="object.md" xlink:title="object">
<polygon fill="#ffffff" stroke="transparent" points=".5,-200 .5,-292 57.5,-292 57.5,-200 .5,-200"/>
<polygon fill="none" stroke="#000000" points="1,-270 1,-292 58,-292 58,-270 1,-270"/>
<text text-anchor="start" x="16.1625" y="-278" font-family="Helvetica,sans-Serif" font-size="10.00" fill="#000000">object</text>
<polygon fill="none" stroke="#000000" points="1,-200 1,-270 58,-270 58,-200 1,-200"/>
<text text-anchor="start" x="6" y="-256" font-family="Helvetica,sans-Serif" font-size="10.00" fill="#000000"> dispose()</text>
<text text-anchor="start" x="6" y="-244" font-family="Helvetica,sans-Serif" font-size="10.00" fill="#000000"> equals()</text>
<text text-anchor="start" x="6" y="-232" font-family="Helvetica,sans-Serif" font-size="10.00" fill="#000000"> toString()</text>
<text text-anchor="start" x="6" y="-220" font-family="Helvetica,sans-Serif" font-size="10.00" fill="#000000"> toJSON()</text>
<text text-anchor="start" x="6" y="-208" font-family="Helvetica,sans-Serif" font-size="10.00" fill="#000000"> valueOf()</text>
</a>
</g>
</g>
<!-- RedisHash -->
<g id="node2" class="node">
<title>RedisHash</title>
<g id="a_node2"><a xlink:title="RedisHash">
<polygon fill="#d3d3d3" stroke="transparent" points="0,0 0,-164 58,-164 58,0 0,0"/>
<polygon fill="none" stroke="#000000" points="0,-142 0,-164 58,-164 58,-142 0,-142"/>
<text text-anchor="start" x="4.5535" y="-150" font-family="Helvetica,sans-Serif" font-size="10.00" fill="#000000">RedisHash</text>
<polygon fill="none" stroke="#000000" points="0,0 0,-142 58,-142 58,0 0,0"/>
<text text-anchor="start" x="5" y="-128" font-family="Helvetica,sans-Serif" font-size="10.00" fill="#000000"> set()</text>
<text text-anchor="start" x="5" y="-116" font-family="Helvetica,sans-Serif" font-size="10.00" fill="#000000"> setNX()</text>
<text text-anchor="start" x="5" y="-104" font-family="Helvetica,sans-Serif" font-size="10.00" fill="#000000"> mset()</text>
<text text-anchor="start" x="5" y="-92" font-family="Helvetica,sans-Serif" font-size="10.00" fill="#000000"> get()</text>
<text text-anchor="start" x="5" y="-80" font-family="Helvetica,sans-Serif" font-size="10.00" fill="#000000"> mget()</text>
<text text-anchor="start" x="5" y="-68" font-family="Helvetica,sans-Serif" font-size="10.00" fill="#000000"> incr()</text>
<text text-anchor="start" x="5" y="-56" font-family="Helvetica,sans-Serif" font-size="10.00" fill="#000000"> getAll()</text>
<text text-anchor="start" x="5" y="-44" font-family="Helvetica,sans-Serif" font-size="10.00" fill="#000000"> keys()</text>
<text text-anchor="start" x="5" y="-32" font-family="Helvetica,sans-Serif" font-size="10.00" fill="#000000"> len()</text>
<text text-anchor="start" x="5" y="-20" font-family="Helvetica,sans-Serif" font-size="10.00" fill="#000000"> exists()</text>
<text text-anchor="start" x="5" y="-8" font-family="Helvetica,sans-Serif" font-size="10.00" fill="#000000"> del()</text>
</a>
</g>
</g>
<!-- object&#45;&gt;RedisHash -->
<g id="edge1" class="edge">
<title>object&#45;&gt;RedisHash</title>
<path fill="none" stroke="#000000" d="M29,-189.6597C29,-181.4049 29,-172.7644 29,-164.122"/>
<polygon fill="#000000" stroke="#000000" points="25.5001,-189.8804 29,-199.8804 32.5001,-189.8805 25.5001,-189.8804"/>
</g>
</g>
</svg>
