<?xml version="1.0" encoding="UTF-8" standalone="no"?>
<!DOCTYPE svg PUBLIC "-//W3C//DTD SVG 1.1//EN"
 "http://www.w3.org/Graphics/SVG/1.1/DTD/svg11.dtd">
<!-- Generated by graphviz version 2.40.1 (20161225.0304)
 -->
<!-- Title: %0 Pages: 1 -->
<svg width="88pt" height="288pt"
 viewBox="0.00 0.00 88.00 288.00" xmlns="http://www.w3.org/2000/svg" xmlns:xlink="http://www.w3.org/1999/xlink">
<g id="graph0" class="graph" transform="scale(1 1) rotate(0) translate(4 284)">
<title>%0</title>
<polygon fill="#ffffff" stroke="transparent" points="-4,4 -4,-284 84,-284 84,4 -4,4"/>
<!-- object -->
<g id="node1" class="node">
<title>object</title>
<g id="a_node1"><a xlink:href="object.md" xlink:title="object">
<polygon fill="#ffffff" stroke="transparent" points="11.5,-188 11.5,-280 68.5,-280 68.5,-188 11.5,-188"/>
<polygon fill="none" stroke="#000000" points="12,-258 12,-280 69,-280 69,-258 12,-258"/>
<text text-anchor="start" x="27.1625" y="-266" font-family="Helvetica,sans-Serif" font-size="10.00" fill="#000000">object</text>
<polygon fill="none" stroke="#000000" points="12,-188 12,-258 69,-258 69,-188 12,-188"/>
<text text-anchor="start" x="17" y="-244" font-family="Helvetica,sans-Serif" font-size="10.00" fill="#000000"> dispose()</text>
<text text-anchor="start" x="17" y="-232" font-family="Helvetica,sans-Serif" font-size="10.00" fill="#000000"> equals()</text>
<text text-anchor="start" x="17" y="-220" font-family="Helvetica,sans-Serif" font-size="10.00" fill="#000000"> toString()</text>
<text text-anchor="start" x="17" y="-208" font-family="Helvetica,sans-Serif" font-size="10.00" fill="#000000"> toJSON()</text>
<text text-anchor="start" x="17" y="-196" font-family="Helvetica,sans-Serif" font-size="10.00" fill="#000000"> valueOf()</text>
</a>
</g>
</g>
<!-- RedisSortedSet -->
<g id="node2" class="node">
<title>RedisSortedSet</title>
<g id="a_node2"><a xlink:title="RedisSortedSet">
<polygon fill="#d3d3d3" stroke="transparent" points="0,0 0,-152 80,-152 80,0 0,0"/>
<polygon fill="none" stroke="#000000" points="0,-130 0,-152 80,-152 80,-130 0,-130"/>
<text text-anchor="start" x="4.9915" y="-138" font-family="Helvetica,sans-Serif" font-size="10.00" fill="#000000">RedisSortedSet</text>
<polygon fill="none" stroke="#000000" points="0,0 0,-130 80,-130 80,0 0,0"/>
<text text-anchor="start" x="5" y="-116" font-family="Helvetica,sans-Serif" font-size="10.00" fill="#000000"> add()</text>
<text text-anchor="start" x="5" y="-104" font-family="Helvetica,sans-Serif" font-size="10.00" fill="#000000"> score()</text>
<text text-anchor="start" x="5" y="-92" font-family="Helvetica,sans-Serif" font-size="10.00" fill="#000000"> incr()</text>
<text text-anchor="start" x="5" y="-80" font-family="Helvetica,sans-Serif" font-size="10.00" fill="#000000"> remove()</text>
<text text-anchor="start" x="5" y="-68" font-family="Helvetica,sans-Serif" font-size="10.00" fill="#000000"> len()</text>
<text text-anchor="start" x="5" y="-56" font-family="Helvetica,sans-Serif" font-size="10.00" fill="#000000"> count()</text>
<text text-anchor="start" x="5" y="-44" font-family="Helvetica,sans-Serif" font-size="10.00" fill="#000000"> range()</text>
<text text-anchor="start" x="5" y="-32" font-family="Helvetica,sans-Serif" font-size="10.00" fill="#000000"> rangeRev()</text>
<text text-anchor="start" x="5" y="-20" font-family="Helvetica,sans-Serif" font-size="10.00" fill="#000000"> rank()</text>
<text text-anchor="start" x="5" y="-8" font-family="Helvetica,sans-Serif" font-size="10.00" fill="#000000"> rankRev()</text>
</a>
</g>
</g>
<!-- object&#45;&gt;RedisSortedSet -->
<g id="edge1" class="edge">
<title>object&#45;&gt;RedisSortedSet</title>
<path fill="none" stroke="#000000" d="M40,-177.6435C40,-169.3898 40,-160.776 40,-152.206"/>
<polygon fill="#000000" stroke="#000000" points="36.5001,-177.8751 40,-187.8751 43.5001,-177.8752 36.5001,-177.8751"/>
</g>
</g>
</svg>
