<?xml version="1.0" encoding="UTF-8" standalone="no"?>
<!DOCTYPE svg PUBLIC "-//W3C//DTD SVG 1.1//EN"
 "http://www.w3.org/Graphics/SVG/1.1/DTD/svg11.dtd">
<!-- Generated by graphviz version 2.40.1 (20161225.0304)
 -->
<!-- Title: %0 Pages: 1 -->
<svg width="89pt" height="658pt"
 viewBox="0.00 0.00 89.00 658.00" xmlns="http://www.w3.org/2000/svg" xmlns:xlink="http://www.w3.org/1999/xlink">
<g id="graph0" class="graph" transform="scale(1 1) rotate(0) translate(4 654)">
<title>%0</title>
<polygon fill="#ffffff" stroke="transparent" points="-4,4 -4,-654 85,-654 85,4 -4,4"/>
<!-- object -->
<g id="node1" class="node">
<title>object</title>
<g id="a_node1"><a xlink:href="object.md" xlink:title="object">
<polygon fill="#ffffff" stroke="transparent" points="12,-558 12,-650 69,-650 69,-558 12,-558"/>
<polygon fill="none" stroke="#000000" points="12.5,-628 12.5,-650 69.5,-650 69.5,-628 12.5,-628"/>
<text text-anchor="start" x="27.6625" y="-636" font-family="Helvetica,sans-Serif" font-size="10.00" fill="#000000">object</text>
<polygon fill="none" stroke="#000000" points="12.5,-558 12.5,-628 69.5,-628 69.5,-558 12.5,-558"/>
<text text-anchor="start" x="17.5" y="-614" font-family="Helvetica,sans-Serif" font-size="10.00" fill="#000000"> dispose()</text>
<text text-anchor="start" x="17.5" y="-602" font-family="Helvetica,sans-Serif" font-size="10.00" fill="#000000"> equals()</text>
<text text-anchor="start" x="17.5" y="-590" font-family="Helvetica,sans-Serif" font-size="10.00" fill="#000000"> toString()</text>
<text text-anchor="start" x="17.5" y="-578" font-family="Helvetica,sans-Serif" font-size="10.00" fill="#000000"> toJSON()</text>
<text text-anchor="start" x="17.5" y="-566" font-family="Helvetica,sans-Serif" font-size="10.00" fill="#000000"> valueOf()</text>
</a>
</g>
</g>
<!-- Redis -->
<g id="node2" class="node">
<title>Redis</title>
<g id="a_node2"><a xlink:title="Redis">
<polygon fill="#d3d3d3" stroke="transparent" points="0,0 0,-522 81,-522 81,0 0,0"/>
<polygon fill="none" stroke="#000000" points=".5,-500 .5,-522 81.5,-522 81.5,-500 .5,-500"/>
<text text-anchor="start" x="28.222" y="-508" font-family="Helvetica,sans-Serif" font-size="10.00" fill="#000000">Redis</text>
<polygon fill="none" stroke="#000000" points=".5,-478 .5,-500 81.5,-500 81.5,-478 .5,-478"/>
<text text-anchor="start" x="5.5" y="-486" font-family="Helvetica,sans-Serif" font-size="10.00" fill="#000000"> onsuberror</text>
<polygon fill="none" stroke="#000000" points=".5,0 .5,-478 81.5,-478 81.5,0 .5,0"/>
<text text-anchor="start" x="5.5" y="-464" font-family="Helvetica,sans-Serif" font-size="10.00" fill="#000000"> command()</text>
<text text-anchor="start" x="5.5" y="-452" font-family="Helvetica,sans-Serif" font-size="10.00" fill="#000000"> set()</text>
<text text-anchor="start" x="5.5" y="-440" font-family="Helvetica,sans-Serif" font-size="10.00" fill="#000000"> setNX()</text>
<text text-anchor="start" x="5.5" y="-428" font-family="Helvetica,sans-Serif" font-size="10.00" fill="#000000"> setXX()</text>
<text text-anchor="start" x="5.5" y="-416" font-family="Helvetica,sans-Serif" font-size="10.00" fill="#000000"> mset()</text>
<text text-anchor="start" x="5.5" y="-404" font-family="Helvetica,sans-Serif" font-size="10.00" fill="#000000"> msetNX()</text>
<text text-anchor="start" x="5.5" y="-392" font-family="Helvetica,sans-Serif" font-size="10.00" fill="#000000"> append()</text>
<text text-anchor="start" x="5.5" y="-380" font-family="Helvetica,sans-Serif" font-size="10.00" fill="#000000"> setRange()</text>
<text text-anchor="start" x="5.5" y="-368" font-family="Helvetica,sans-Serif" font-size="10.00" fill="#000000"> getRange()</text>
<text text-anchor="start" x="5.5" y="-356" font-family="Helvetica,sans-Serif" font-size="10.00" fill="#000000"> strlen()</text>
<text text-anchor="start" x="5.5" y="-344" font-family="Helvetica,sans-Serif" font-size="10.00" fill="#000000"> bitcount()</text>
<text text-anchor="start" x="5.5" y="-332" font-family="Helvetica,sans-Serif" font-size="10.00" fill="#000000"> get()</text>
<text text-anchor="start" x="5.5" y="-320" font-family="Helvetica,sans-Serif" font-size="10.00" fill="#000000"> mget()</text>
<text text-anchor="start" x="5.5" y="-308" font-family="Helvetica,sans-Serif" font-size="10.00" fill="#000000"> getset()</text>
<text text-anchor="start" x="5.5" y="-296" font-family="Helvetica,sans-Serif" font-size="10.00" fill="#000000"> decr()</text>
<text text-anchor="start" x="5.5" y="-284" font-family="Helvetica,sans-Serif" font-size="10.00" fill="#000000"> incr()</text>
<text text-anchor="start" x="5.5" y="-272" font-family="Helvetica,sans-Serif" font-size="10.00" fill="#000000"> setBit()</text>
<text text-anchor="start" x="5.5" y="-260" font-family="Helvetica,sans-Serif" font-size="10.00" fill="#000000"> getBit()</text>
<text text-anchor="start" x="5.5" y="-248" font-family="Helvetica,sans-Serif" font-size="10.00" fill="#000000"> exists()</text>
<text text-anchor="start" x="5.5" y="-236" font-family="Helvetica,sans-Serif" font-size="10.00" fill="#000000"> type()</text>
<text text-anchor="start" x="5.5" y="-224" font-family="Helvetica,sans-Serif" font-size="10.00" fill="#000000"> keys()</text>
<text text-anchor="start" x="5.5" y="-212" font-family="Helvetica,sans-Serif" font-size="10.00" fill="#000000"> del()</text>
<text text-anchor="start" x="5.5" y="-200" font-family="Helvetica,sans-Serif" font-size="10.00" fill="#000000"> expire()</text>
<text text-anchor="start" x="5.5" y="-188" font-family="Helvetica,sans-Serif" font-size="10.00" fill="#000000"> ttl()</text>
<text text-anchor="start" x="5.5" y="-176" font-family="Helvetica,sans-Serif" font-size="10.00" fill="#000000"> persist()</text>
<text text-anchor="start" x="5.5" y="-164" font-family="Helvetica,sans-Serif" font-size="10.00" fill="#000000"> rename()</text>
<text text-anchor="start" x="5.5" y="-152" font-family="Helvetica,sans-Serif" font-size="10.00" fill="#000000"> renameNX()</text>
<text text-anchor="start" x="5.5" y="-140" font-family="Helvetica,sans-Serif" font-size="10.00" fill="#000000"> sub()</text>
<text text-anchor="start" x="5.5" y="-128" font-family="Helvetica,sans-Serif" font-size="10.00" fill="#000000"> unsub()</text>
<text text-anchor="start" x="5.5" y="-116" font-family="Helvetica,sans-Serif" font-size="10.00" fill="#000000"> psub()</text>
<text text-anchor="start" x="5.5" y="-104" font-family="Helvetica,sans-Serif" font-size="10.00" fill="#000000"> unpsub()</text>
<text text-anchor="start" x="5.5" y="-92" font-family="Helvetica,sans-Serif" font-size="10.00" fill="#000000"> pub()</text>
<text text-anchor="start" x="5.5" y="-80" font-family="Helvetica,sans-Serif" font-size="10.00" fill="#000000"> getHash()</text>
<text text-anchor="start" x="5.5" y="-68" font-family="Helvetica,sans-Serif" font-size="10.00" fill="#000000"> getList()</text>
<text text-anchor="start" x="5.5" y="-56" font-family="Helvetica,sans-Serif" font-size="10.00" fill="#000000"> getSet()</text>
<text text-anchor="start" x="5.5" y="-44" font-family="Helvetica,sans-Serif" font-size="10.00" fill="#000000"> getSortedSet()</text>
<text text-anchor="start" x="5.5" y="-32" font-family="Helvetica,sans-Serif" font-size="10.00" fill="#000000"> dump()</text>
<text text-anchor="start" x="5.5" y="-20" font-family="Helvetica,sans-Serif" font-size="10.00" fill="#000000"> restore()</text>
<text text-anchor="start" x="5.5" y="-8" font-family="Helvetica,sans-Serif" font-size="10.00" fill="#000000"> close()</text>
</a>
</g>
</g>
<!-- object&#45;&gt;Redis -->
<g id="edge1" class="edge">
<title>object&#45;&gt;Redis</title>
<path fill="none" stroke="#000000" d="M40.5,-547.6686C40.5,-539.7282 40.5,-531.1754 40.5,-522.163"/>
<polygon fill="#000000" stroke="#000000" points="37.0001,-547.7415 40.5,-557.7415 44.0001,-547.7415 37.0001,-547.7415"/>
</g>
</g>
</svg>
