<?xml version="1.0" encoding="UTF-8" standalone="no"?>
<!DOCTYPE svg PUBLIC "-//W3C//DTD SVG 1.1//EN"
 "http://www.w3.org/Graphics/SVG/1.1/DTD/svg11.dtd">
<!-- Generated by graphviz version 2.40.1 (20161225.0304)
 -->
<!-- Title: %0 Pages: 1 -->
<svg width="106pt" height="352pt"
 viewBox="0.00 0.00 106.00 352.00" xmlns="http://www.w3.org/2000/svg" xmlns:xlink="http://www.w3.org/1999/xlink">
<g id="graph0" class="graph" transform="scale(1 1) rotate(0) translate(4 348)">
<title>%0</title>
<polygon fill="#ffffff" stroke="transparent" points="-4,4 -4,-348 102,-348 102,4 -4,4"/>
<!-- object -->
<g id="node1" class="node">
<title>object</title>
<g id="a_node1"><a xlink:href="object.md" xlink:title="object">
<polygon fill="#ffffff" stroke="transparent" points="20.5,-252 20.5,-344 77.5,-344 77.5,-252 20.5,-252"/>
<polygon fill="none" stroke="#000000" points="21,-322 21,-344 78,-344 78,-322 21,-322"/>
<text text-anchor="start" x="36.1625" y="-330" font-family="Helvetica,sans-Serif" font-size="10.00" fill="#000000">object</text>
<polygon fill="none" stroke="#000000" points="21,-252 21,-322 78,-322 78,-252 21,-252"/>
<text text-anchor="start" x="26" y="-308" font-family="Helvetica,sans-Serif" font-size="10.00" fill="#000000"> dispose()</text>
<text text-anchor="start" x="26" y="-296" font-family="Helvetica,sans-Serif" font-size="10.00" fill="#000000"> equals()</text>
<text text-anchor="start" x="26" y="-284" font-family="Helvetica,sans-Serif" font-size="10.00" fill="#000000"> toString()</text>
<text text-anchor="start" x="26" y="-272" font-family="Helvetica,sans-Serif" font-size="10.00" fill="#000000"> toJSON()</text>
<text text-anchor="start" x="26" y="-260" font-family="Helvetica,sans-Serif" font-size="10.00" fill="#000000"> valueOf()</text>
</a>
</g>
</g>
<!-- Lock -->
<g id="node2" class="node">
<title>Lock</title>
<g id="a_node2"><a xlink:href="Lock.md" xlink:title="Lock">
<polygon fill="#ffffff" stroke="transparent" points="15.5,-126 15.5,-216 82.5,-216 82.5,-126 15.5,-126"/>
<polygon fill="none" stroke="#000000" points="16,-194 16,-216 83,-216 83,-194 16,-194"/>
<text text-anchor="start" x="38.941" y="-202" font-family="Helvetica,sans-Serif" font-size="10.00" fill="#000000">Lock</text>
<polygon fill="none" stroke="#000000" points="16,-172 16,-194 83,-194 83,-172 16,-172"/>
<text text-anchor="start" x="21" y="-180" font-family="Helvetica,sans-Serif" font-size="10.00" fill="#000000">  new Lock()</text>
<polygon fill="none" stroke="#000000" points="16,-126 16,-172 83,-172 83,-126 16,-126"/>
<text text-anchor="start" x="21" y="-158" font-family="Helvetica,sans-Serif" font-size="10.00" fill="#000000"> acquire()</text>
<text text-anchor="start" x="21" y="-146" font-family="Helvetica,sans-Serif" font-size="10.00" fill="#000000"> release()</text>
<text text-anchor="start" x="21" y="-134" font-family="Helvetica,sans-Serif" font-size="10.00" fill="#000000"> count()</text>
</a>
</g>
</g>
<!-- object&#45;&gt;Lock -->
<g id="edge1" class="edge">
<title>object&#45;&gt;Lock</title>
<path fill="none" stroke="#000000" d="M49,-241.5361C49,-233.0253 49,-224.3439 49,-216.1135"/>
<polygon fill="#000000" stroke="#000000" points="45.5001,-241.7908 49,-251.7908 52.5001,-241.7909 45.5001,-241.7908"/>
</g>
<!-- Semaphore -->
<g id="node3" class="node">
<title>Semaphore</title>
<g id="a_node3"><a xlink:title="Semaphore">
<polygon fill="#d3d3d3" stroke="transparent" points="0,0 0,-90 98,-90 98,0 0,0"/>
<polygon fill="none" stroke="#000000" points="0,-68 0,-90 98,-90 98,-68 0,-68"/>
<text text-anchor="start" x="23.1595" y="-76" font-family="Helvetica,sans-Serif" font-size="10.00" fill="#000000">Semaphore</text>
<polygon fill="none" stroke="#000000" points="0,-46 0,-68 98,-68 98,-46 0,-46"/>
<text text-anchor="start" x="5" y="-54" font-family="Helvetica,sans-Serif" font-size="10.00" fill="#000000">  new Semaphore()</text>
<polygon fill="none" stroke="#000000" points="0,0 0,-46 98,-46 98,0 0,0"/>
<text text-anchor="start" x="5" y="-32" font-family="Helvetica,sans-Serif" font-size="10.00" fill="#000000"> wait()</text>
<text text-anchor="start" x="5" y="-20" font-family="Helvetica,sans-Serif" font-size="10.00" fill="#000000"> post()</text>
<text text-anchor="start" x="5" y="-8" font-family="Helvetica,sans-Serif" font-size="10.00" fill="#000000"> trywait()</text>
</a>
</g>
</g>
<!-- Lock&#45;&gt;Semaphore -->
<g id="edge2" class="edge">
<title>Lock&#45;&gt;Semaphore</title>
<path fill="none" stroke="#000000" d="M49,-115.6465C49,-107.1565 49,-98.4784 49,-90.2414"/>
<polygon fill="#000000" stroke="#000000" points="45.5001,-115.867 49,-125.867 52.5001,-115.867 45.5001,-115.867"/>
</g>
</g>
</svg>
