<?xml version="1.0" encoding="UTF-8" standalone="no"?>
<!DOCTYPE svg PUBLIC "-//W3C//DTD SVG 1.1//EN"
 "http://www.w3.org/Graphics/SVG/1.1/DTD/svg11.dtd">
<!-- Generated by graphviz version 2.40.1 (20161225.0304)
 -->
<!-- Title: %0 Pages: 1 -->
<svg width="91pt" height="496pt"
 viewBox="0.00 0.00 91.00 496.00" xmlns="http://www.w3.org/2000/svg" xmlns:xlink="http://www.w3.org/1999/xlink">
<g id="graph0" class="graph" transform="scale(1 1) rotate(0) translate(4 492)">
<title>%0</title>
<polygon fill="#ffffff" stroke="transparent" points="-4,4 -4,-492 87,-492 87,4 -4,4"/>
<!-- object -->
<g id="node1" class="node">
<title>object</title>
<g id="a_node1"><a xlink:href="object.md" xlink:title="object">
<polygon fill="#ffffff" stroke="transparent" points="13,-396 13,-488 70,-488 70,-396 13,-396"/>
<polygon fill="none" stroke="#000000" points="13.5,-466 13.5,-488 70.5,-488 70.5,-466 13.5,-466"/>
<text text-anchor="start" x="28.6625" y="-474" font-family="Helvetica,sans-Serif" font-size="10.00" fill="#000000">object</text>
<polygon fill="none" stroke="#000000" points="13.5,-396 13.5,-466 70.5,-466 70.5,-396 13.5,-396"/>
<text text-anchor="start" x="18.5" y="-452" font-family="Helvetica,sans-Serif" font-size="10.00" fill="#000000"> dispose()</text>
<text text-anchor="start" x="18.5" y="-440" font-family="Helvetica,sans-Serif" font-size="10.00" fill="#000000"> equals()</text>
<text text-anchor="start" x="18.5" y="-428" font-family="Helvetica,sans-Serif" font-size="10.00" fill="#000000"> toString()</text>
<text text-anchor="start" x="18.5" y="-416" font-family="Helvetica,sans-Serif" font-size="10.00" fill="#000000"> toJSON()</text>
<text text-anchor="start" x="18.5" y="-404" font-family="Helvetica,sans-Serif" font-size="10.00" fill="#000000"> valueOf()</text>
</a>
</g>
</g>
<!-- Stream -->
<g id="node2" class="node">
<title>Stream</title>
<g id="a_node2"><a xlink:href="Stream.md" xlink:title="Stream">
<polygon fill="#ffffff" stroke="transparent" points="14,-280 14,-360 69,-360 69,-280 14,-280"/>
<polygon fill="none" stroke="#000000" points="14.5,-338 14.5,-360 69.5,-360 69.5,-338 14.5,-338"/>
<text text-anchor="start" x="25.888" y="-346" font-family="Helvetica,sans-Serif" font-size="10.00" fill="#000000">Stream</text>
<polygon fill="none" stroke="#000000" points="14.5,-280 14.5,-338 69.5,-338 69.5,-280 14.5,-280"/>
<text text-anchor="start" x="19.5" y="-324" font-family="Helvetica,sans-Serif" font-size="10.00" fill="#000000"> read()</text>
<text text-anchor="start" x="19.5" y="-312" font-family="Helvetica,sans-Serif" font-size="10.00" fill="#000000"> write()</text>
<text text-anchor="start" x="19.5" y="-300" font-family="Helvetica,sans-Serif" font-size="10.00" fill="#000000"> close()</text>
<text text-anchor="start" x="19.5" y="-288" font-family="Helvetica,sans-Serif" font-size="10.00" fill="#000000"> copyTo()</text>
</a>
</g>
</g>
<!-- object&#45;&gt;Stream -->
<g id="edge1" class="edge">
<title>object&#45;&gt;Stream</title>
<path fill="none" stroke="#000000" d="M41.5,-385.8267C41.5,-377.1786 41.5,-368.4003 41.5,-360.193"/>
<polygon fill="#000000" stroke="#000000" points="38.0001,-385.877 41.5,-395.877 45.0001,-385.8771 38.0001,-385.877"/>
</g>
<!-- Socket -->
<g id="node3" class="node">
<title>Socket</title>
<g id="a_node3"><a xlink:title="Socket">
<polygon fill="#d3d3d3" stroke="transparent" points="0,0 0,-244 83,-244 83,0 0,0"/>
<polygon fill="none" stroke="#000000" points=".5,-222 .5,-244 83.5,-244 83.5,-222 .5,-222"/>
<text text-anchor="start" x="26.717" y="-230" font-family="Helvetica,sans-Serif" font-size="10.00" fill="#000000">Socket</text>
<polygon fill="none" stroke="#000000" points=".5,-200 .5,-222 83.5,-222 83.5,-200 .5,-200"/>
<text text-anchor="start" x="5.5" y="-208" font-family="Helvetica,sans-Serif" font-size="10.00" fill="#000000">  new Socket()</text>
<polygon fill="none" stroke="#000000" points=".5,-106 .5,-200 83.5,-200 83.5,-106 .5,-106"/>
<text text-anchor="start" x="5.5" y="-186" font-family="Helvetica,sans-Serif" font-size="10.00" fill="#000000"> family</text>
<text text-anchor="start" x="5.5" y="-174" font-family="Helvetica,sans-Serif" font-size="10.00" fill="#000000"> type</text>
<text text-anchor="start" x="5.5" y="-162" font-family="Helvetica,sans-Serif" font-size="10.00" fill="#000000"> remoteAddress</text>
<text text-anchor="start" x="5.5" y="-150" font-family="Helvetica,sans-Serif" font-size="10.00" fill="#000000"> remotePort</text>
<text text-anchor="start" x="5.5" y="-138" font-family="Helvetica,sans-Serif" font-size="10.00" fill="#000000"> localAddress</text>
<text text-anchor="start" x="5.5" y="-126" font-family="Helvetica,sans-Serif" font-size="10.00" fill="#000000"> localPort</text>
<text text-anchor="start" x="5.5" y="-114" font-family="Helvetica,sans-Serif" font-size="10.00" fill="#000000"> timeout</text>
<polygon fill="none" stroke="#000000" points=".5,0 .5,-106 83.5,-106 83.5,0 .5,0"/>
<text text-anchor="start" x="5.5" y="-92" font-family="Helvetica,sans-Serif" font-size="10.00" fill="#000000"> connect()</text>
<text text-anchor="start" x="5.5" y="-80" font-family="Helvetica,sans-Serif" font-size="10.00" fill="#000000"> bind()</text>
<text text-anchor="start" x="5.5" y="-68" font-family="Helvetica,sans-Serif" font-size="10.00" fill="#000000"> listen()</text>
<text text-anchor="start" x="5.5" y="-56" font-family="Helvetica,sans-Serif" font-size="10.00" fill="#000000"> accept()</text>
<text text-anchor="start" x="5.5" y="-44" font-family="Helvetica,sans-Serif" font-size="10.00" fill="#000000"> recv()</text>
<text text-anchor="start" x="5.5" y="-32" font-family="Helvetica,sans-Serif" font-size="10.00" fill="#000000"> recvfrom()</text>
<text text-anchor="start" x="5.5" y="-20" font-family="Helvetica,sans-Serif" font-size="10.00" fill="#000000"> send()</text>
<text text-anchor="start" x="5.5" y="-8" font-family="Helvetica,sans-Serif" font-size="10.00" fill="#000000"> sendto()</text>
</a>
</g>
</g>
<!-- Stream&#45;&gt;Socket -->
<g id="edge2" class="edge">
<title>Stream&#45;&gt;Socket</title>
<path fill="none" stroke="#000000" d="M41.5,-269.7402C41.5,-261.7188 41.5,-253.1286 41.5,-244.2751"/>
<polygon fill="#000000" stroke="#000000" points="38.0001,-269.9317 41.5,-279.9317 45.0001,-269.9318 38.0001,-269.9317"/>
</g>
</g>
</svg>
