<?xml version="1.0" encoding="UTF-8" standalone="no"?>
<!DOCTYPE svg PUBLIC "-//W3C//DTD SVG 1.1//EN"
 "http://www.w3.org/Graphics/SVG/1.1/DTD/svg11.dtd">
<!-- Generated by graphviz version 2.40.1 (20161225.0304)
 -->
<!-- Title: %0 Pages: 1 -->
<svg width="101pt" height="315pt"
 viewBox="0.00 0.00 100.67 315.00" xmlns="http://www.w3.org/2000/svg" xmlns:xlink="http://www.w3.org/1999/xlink">
<g id="graph0" class="graph" transform="scale(1 1) rotate(0) translate(4 311)">
<title>%0</title>
<polygon fill="#ffffff" stroke="transparent" points="-4,4 -4,-311 96.665,-311 96.665,4 -4,4"/>
<!-- object -->
<g id="node1" class="node">
<title>object</title>
<g id="a_node1"><a xlink:href="object.md" xlink:title="object">
<polygon fill="#ffffff" stroke="#000000" points="17.501,-218.5 17.501,-306.5 75.164,-306.5 75.164,-218.5 17.501,-218.5"/>
<text text-anchor="middle" x="46.3325" y="-293.5" font-family="Helvetica,sans-Serif" font-size="10.00" fill="#000000">object</text>
<polyline fill="none" stroke="#000000" points="17.501,-286.5 75.164,-286.5 "/>
<text text-anchor="start" x="25.501" y="-273.5" font-family="Helvetica,sans-Serif" font-size="10.00" fill="#000000">dispose()</text>
<text text-anchor="start" x="25.501" y="-261.5" font-family="Helvetica,sans-Serif" font-size="10.00" fill="#000000">equals()</text>
<text text-anchor="start" x="25.501" y="-249.5" font-family="Helvetica,sans-Serif" font-size="10.00" fill="#000000">toString()</text>
<text text-anchor="start" x="25.501" y="-237.5" font-family="Helvetica,sans-Serif" font-size="10.00" fill="#000000">toJSON()</text>
<text text-anchor="start" x="25.501" y="-225.5" font-family="Helvetica,sans-Serif" font-size="10.00" fill="#000000">valueOf()</text>
</a>
</g>
</g>
<!-- Handler -->
<g id="node2" class="node">
<title>Handler</title>
<g id="a_node2"><a xlink:href="Handler.md" xlink:title="Handler">
<polygon fill="#ffffff" stroke="#000000" points="6.944,-121.5 6.944,-181.5 85.721,-181.5 85.721,-121.5 6.944,-121.5"/>
<text text-anchor="middle" x="46.3325" y="-168.5" font-family="Helvetica,sans-Serif" font-size="10.00" fill="#000000">Handler</text>
<polyline fill="none" stroke="#000000" points="6.944,-161.5 85.721,-161.5 "/>
<text text-anchor="start" x="14.944" y="-148.5" font-family="Helvetica,sans-Serif" font-size="10.00" fill="#000000">new Handler()</text>
<polyline fill="none" stroke="#000000" points="6.944,-141.5 85.721,-141.5 "/>
<text text-anchor="start" x="14.944" y="-128.5" font-family="Helvetica,sans-Serif" font-size="10.00" fill="#000000">invoke()</text>
</a>
</g>
</g>
<!-- object&#45;&gt;Handler -->
<g id="edge1" class="edge">
<title>object&#45;&gt;Handler</title>
<path fill="none" stroke="#000000" d="M46.3325,-208.0719C46.3325,-198.9417 46.3325,-189.7729 46.3325,-181.5542"/>
<polygon fill="#000000" stroke="#000000" points="42.8326,-208.3109 46.3325,-218.3109 49.8326,-208.311 42.8326,-208.3109"/>
</g>
<!-- SslHandler -->
<g id="node3" class="node">
<title>SslHandler</title>
<g id="a_node3"><a xlink:title="SslHandler">
<polygon fill="#d3d3d3" stroke="#000000" points="0,-.5 0,-84.5 92.665,-84.5 92.665,-.5 0,-.5"/>
<text text-anchor="middle" x="46.3325" y="-71.5" font-family="Helvetica,sans-Serif" font-size="10.00" fill="#000000">SslHandler</text>
<polyline fill="none" stroke="#000000" points="0,-64.5 92.665,-64.5 "/>
<text text-anchor="start" x="8" y="-51.5" font-family="Helvetica,sans-Serif" font-size="10.00" fill="#000000">new SslHandler()</text>
<polyline fill="none" stroke="#000000" points="0,-44.5 92.665,-44.5 "/>
<text text-anchor="start" x="8" y="-31.5" font-family="Helvetica,sans-Serif" font-size="10.00" fill="#000000">verification</text>
<text text-anchor="start" x="8" y="-19.5" font-family="Helvetica,sans-Serif" font-size="10.00" fill="#000000">ca</text>
<text text-anchor="start" x="8" y="-7.5" font-family="Helvetica,sans-Serif" font-size="10.00" fill="#000000">handler</text>
</a>
</g>
</g>
<!-- Handler&#45;&gt;SslHandler -->
<g id="edge2" class="edge">
<title>Handler&#45;&gt;SslHandler</title>
<path fill="none" stroke="#000000" d="M46.3325,-111.2085C46.3325,-102.5708 46.3325,-93.4211 46.3325,-84.7129"/>
<polygon fill="#000000" stroke="#000000" points="42.8326,-111.4267 46.3325,-121.4267 49.8326,-111.4268 42.8326,-111.4267"/>
</g>
</g>
</svg>
