<?xml version="1.0" encoding="UTF-8" standalone="no"?>
<!DOCTYPE svg PUBLIC "-//W3C//DTD SVG 1.1//EN"
 "http://www.w3.org/Graphics/SVG/1.1/DTD/svg11.dtd">
<!-- Generated by graphviz version 2.40.1 (20161225.0304)
 -->
<!-- Title: %0 Pages: 1 -->
<svg width="100pt" height="386pt"
 viewBox="0.00 0.00 100.00 386.00" xmlns="http://www.w3.org/2000/svg" xmlns:xlink="http://www.w3.org/1999/xlink">
<g id="graph0" class="graph" transform="scale(1 1) rotate(0) translate(4 382)">
<title>%0</title>
<polygon fill="#ffffff" stroke="transparent" points="-4,4 -4,-382 96,-382 96,4 -4,4"/>
<!-- object -->
<g id="node1" class="node">
<title>object</title>
<g id="a_node1"><a xlink:href="object.md" xlink:title="object">
<polygon fill="#ffffff" stroke="transparent" points="17.5,-286 17.5,-378 74.5,-378 74.5,-286 17.5,-286"/>
<polygon fill="none" stroke="#000000" points="18,-356 18,-378 75,-378 75,-356 18,-356"/>
<text text-anchor="start" x="33.1625" y="-364" font-family="Helvetica,sans-Serif" font-size="10.00" fill="#000000">object</text>
<polygon fill="none" stroke="#000000" points="18,-286 18,-356 75,-356 75,-286 18,-286"/>
<text text-anchor="start" x="23" y="-342" font-family="Helvetica,sans-Serif" font-size="10.00" fill="#000000"> dispose()</text>
<text text-anchor="start" x="23" y="-330" font-family="Helvetica,sans-Serif" font-size="10.00" fill="#000000"> equals()</text>
<text text-anchor="start" x="23" y="-318" font-family="Helvetica,sans-Serif" font-size="10.00" fill="#000000"> toString()</text>
<text text-anchor="start" x="23" y="-306" font-family="Helvetica,sans-Serif" font-size="10.00" fill="#000000"> toJSON()</text>
<text text-anchor="start" x="23" y="-294" font-family="Helvetica,sans-Serif" font-size="10.00" fill="#000000"> valueOf()</text>
</a>
</g>
</g>
<!-- TcpServer -->
<g id="node2" class="node">
<title>TcpServer</title>
<g id="a_node2"><a xlink:href="TcpServer.md" xlink:title="TcpServer">
<polygon fill="#ffffff" stroke="transparent" points="0,-114 0,-250 92,-250 92,-114 0,-114"/>
<polygon fill="none" stroke="#000000" points="0,-228 0,-250 92,-250 92,-228 0,-228"/>
<text text-anchor="start" x="22.9435" y="-236" font-family="Helvetica,sans-Serif" font-size="10.00" fill="#000000">TcpServer</text>
<polygon fill="none" stroke="#000000" points="0,-206 0,-228 92,-228 92,-206 0,-206"/>
<text text-anchor="start" x="5" y="-214" font-family="Helvetica,sans-Serif" font-size="10.00" fill="#000000">  new TcpServer()</text>
<polygon fill="none" stroke="#000000" points="0,-160 0,-206 92,-206 92,-160 0,-160"/>
<text text-anchor="start" x="5" y="-192" font-family="Helvetica,sans-Serif" font-size="10.00" fill="#000000"> socket</text>
<text text-anchor="start" x="5" y="-180" font-family="Helvetica,sans-Serif" font-size="10.00" fill="#000000"> handler</text>
<text text-anchor="start" x="5" y="-168" font-family="Helvetica,sans-Serif" font-size="10.00" fill="#000000"> stats</text>
<polygon fill="none" stroke="#000000" points="0,-114 0,-160 92,-160 92,-114 0,-114"/>
<text text-anchor="start" x="5" y="-146" font-family="Helvetica,sans-Serif" font-size="10.00" fill="#000000"> run()</text>
<text text-anchor="start" x="5" y="-134" font-family="Helvetica,sans-Serif" font-size="10.00" fill="#000000"> asyncRun()</text>
<text text-anchor="start" x="5" y="-122" font-family="Helvetica,sans-Serif" font-size="10.00" fill="#000000"> stop()</text>
</a>
</g>
</g>
<!-- object&#45;&gt;TcpServer -->
<g id="edge1" class="edge">
<title>object&#45;&gt;TcpServer</title>
<path fill="none" stroke="#000000" d="M46,-275.7662C46,-267.4038 46,-258.7087 46,-250.1344"/>
<polygon fill="#000000" stroke="#000000" points="42.5001,-275.7711 46,-285.7711 49.5001,-275.7711 42.5001,-275.7711"/>
</g>
<!-- SslServer -->
<g id="node3" class="node">
<title>SslServer</title>
<g id="a_node3"><a xlink:title="SslServer">
<polygon fill="#d3d3d3" stroke="transparent" points="1.5,0 1.5,-78 90.5,-78 90.5,0 1.5,0"/>
<polygon fill="none" stroke="#000000" points="2,-56 2,-78 91,-78 91,-56 2,-56"/>
<text text-anchor="start" x="24.8335" y="-64" font-family="Helvetica,sans-Serif" font-size="10.00" fill="#000000">SslServer</text>
<polygon fill="none" stroke="#000000" points="2,-34 2,-56 91,-56 91,-34 2,-34"/>
<text text-anchor="start" x="7" y="-42" font-family="Helvetica,sans-Serif" font-size="10.00" fill="#000000">  new SslServer()</text>
<polygon fill="none" stroke="#000000" points="2,0 2,-34 91,-34 91,0 2,0"/>
<text text-anchor="start" x="7" y="-20" font-family="Helvetica,sans-Serif" font-size="10.00" fill="#000000"> verification</text>
<text text-anchor="start" x="7" y="-8" font-family="Helvetica,sans-Serif" font-size="10.00" fill="#000000"> ca</text>
</a>
</g>
</g>
<!-- TcpServer&#45;&gt;SslServer -->
<g id="edge2" class="edge">
<title>TcpServer&#45;&gt;SslServer</title>
<path fill="none" stroke="#000000" d="M46,-103.8187C46,-94.9595 46,-86.2382 46,-78.2054"/>
<polygon fill="#000000" stroke="#000000" points="42.5001,-103.8504 46,-113.8505 49.5001,-103.8505 42.5001,-103.8504"/>
</g>
</g>
</svg>
