<?xml version="1.0" encoding="UTF-8" standalone="no"?>
<!DOCTYPE svg PUBLIC "-//W3C//DTD SVG 1.1//EN"
 "http://www.w3.org/Graphics/SVG/1.1/DTD/svg11.dtd">
<!-- Generated by graphviz version 2.40.1 (20161225.0304)
 -->
<!-- Title: %0 Pages: 1 -->
<svg width="98pt" height="371pt"
 viewBox="0.00 0.00 97.89 371.00" xmlns="http://www.w3.org/2000/svg" xmlns:xlink="http://www.w3.org/1999/xlink">
<g id="graph0" class="graph" transform="scale(1 1) rotate(0) translate(4 367)">
<title>%0</title>
<polygon fill="#ffffff" stroke="transparent" points="-4,4 -4,-367 93.887,-367 93.887,4 -4,4"/>
<!-- object -->
<g id="node1" class="node">
<title>object</title>
<g id="a_node1"><a xlink:href="object.md" xlink:title="object">
<polygon fill="#ffffff" stroke="#000000" points="16.112,-274.5 16.112,-362.5 73.775,-362.5 73.775,-274.5 16.112,-274.5"/>
<text text-anchor="middle" x="44.9435" y="-349.5" font-family="Helvetica,sans-Serif" font-size="10.00" fill="#000000">object</text>
<polyline fill="none" stroke="#000000" points="16.112,-342.5 73.775,-342.5 "/>
<text text-anchor="start" x="24.112" y="-329.5" font-family="Helvetica,sans-Serif" font-size="10.00" fill="#000000">dispose()</text>
<text text-anchor="start" x="24.112" y="-317.5" font-family="Helvetica,sans-Serif" font-size="10.00" fill="#000000">equals()</text>
<text text-anchor="start" x="24.112" y="-305.5" font-family="Helvetica,sans-Serif" font-size="10.00" fill="#000000">toString()</text>
<text text-anchor="start" x="24.112" y="-293.5" font-family="Helvetica,sans-Serif" font-size="10.00" fill="#000000">toJSON()</text>
<text text-anchor="start" x="24.112" y="-281.5" font-family="Helvetica,sans-Serif" font-size="10.00" fill="#000000">valueOf()</text>
</a>
</g>
</g>
<!-- TcpServer -->
<g id="node2" class="node">
<title>TcpServer</title>
<g id="a_node2"><a xlink:href="TcpServer.md" xlink:title="TcpServer">
<polygon fill="#ffffff" stroke="#000000" points="0,-109.5 0,-237.5 89.887,-237.5 89.887,-109.5 0,-109.5"/>
<text text-anchor="middle" x="44.9435" y="-224.5" font-family="Helvetica,sans-Serif" font-size="10.00" fill="#000000">TcpServer</text>
<polyline fill="none" stroke="#000000" points="0,-217.5 89.887,-217.5 "/>
<text text-anchor="start" x="8" y="-204.5" font-family="Helvetica,sans-Serif" font-size="10.00" fill="#000000">new TcpServer()</text>
<polyline fill="none" stroke="#000000" points="0,-197.5 89.887,-197.5 "/>
<text text-anchor="start" x="8" y="-184.5" font-family="Helvetica,sans-Serif" font-size="10.00" fill="#000000">socket</text>
<text text-anchor="start" x="8" y="-172.5" font-family="Helvetica,sans-Serif" font-size="10.00" fill="#000000">handler</text>
<text text-anchor="start" x="8" y="-160.5" font-family="Helvetica,sans-Serif" font-size="10.00" fill="#000000">stats</text>
<polyline fill="none" stroke="#000000" points="0,-153.5 89.887,-153.5 "/>
<text text-anchor="start" x="8" y="-140.5" font-family="Helvetica,sans-Serif" font-size="10.00" fill="#000000">run()</text>
<text text-anchor="start" x="8" y="-128.5" font-family="Helvetica,sans-Serif" font-size="10.00" fill="#000000">asyncRun()</text>
<text text-anchor="start" x="8" y="-116.5" font-family="Helvetica,sans-Serif" font-size="10.00" fill="#000000">stop()</text>
</a>
</g>
</g>
<!-- object&#45;&gt;TcpServer -->
<g id="edge1" class="edge">
<title>object&#45;&gt;TcpServer</title>
<path fill="none" stroke="#000000" d="M44.9435,-264.2025C44.9435,-255.5059 44.9435,-246.4356 44.9435,-237.5377"/>
<polygon fill="#000000" stroke="#000000" points="41.4436,-264.2073 44.9435,-274.2073 48.4436,-264.2074 41.4436,-264.2073"/>
</g>
<!-- SslServer -->
<g id="node3" class="node">
<title>SslServer</title>
<g id="a_node3"><a xlink:title="SslServer">
<polygon fill="#d3d3d3" stroke="#000000" points="1.39,-.5 1.39,-72.5 88.497,-72.5 88.497,-.5 1.39,-.5"/>
<text text-anchor="middle" x="44.9435" y="-59.5" font-family="Helvetica,sans-Serif" font-size="10.00" fill="#000000">SslServer</text>
<polyline fill="none" stroke="#000000" points="1.39,-52.5 88.497,-52.5 "/>
<text text-anchor="start" x="9.39" y="-39.5" font-family="Helvetica,sans-Serif" font-size="10.00" fill="#000000">new SslServer()</text>
<polyline fill="none" stroke="#000000" points="1.39,-32.5 88.497,-32.5 "/>
<text text-anchor="start" x="9.39" y="-19.5" font-family="Helvetica,sans-Serif" font-size="10.00" fill="#000000">verification</text>
<text text-anchor="start" x="9.39" y="-7.5" font-family="Helvetica,sans-Serif" font-size="10.00" fill="#000000">ca</text>
</a>
</g>
</g>
<!-- TcpServer&#45;&gt;SslServer -->
<g id="edge2" class="edge">
<title>TcpServer&#45;&gt;SslServer</title>
<path fill="none" stroke="#000000" d="M44.9435,-99.3022C44.9435,-90.0059 44.9435,-80.8505 44.9435,-72.5273"/>
<polygon fill="#000000" stroke="#000000" points="41.4436,-99.4123 44.9435,-109.4123 48.4436,-99.4124 41.4436,-99.4123"/>
</g>
</g>
</svg>
