<?xml version="1.0" encoding="UTF-8" standalone="no"?>
<!DOCTYPE svg PUBLIC "-//W3C//DTD SVG 1.1//EN"
 "http://www.w3.org/Graphics/SVG/1.1/DTD/svg11.dtd">
<!-- Generated by graphviz version 2.40.1 (20161225.0304)
 -->
<!-- Title: %0 Pages: 1 -->
<svg width="214pt" height="558pt"
 viewBox="0.00 0.00 214.00 558.00" xmlns="http://www.w3.org/2000/svg" xmlns:xlink="http://www.w3.org/1999/xlink">
<g id="graph0" class="graph" transform="scale(1 1) rotate(0) translate(4 554)">
<title>%0</title>
<polygon fill="#ffffff" stroke="transparent" points="-4,4 -4,-554 210,-554 210,4 -4,4"/>
<!-- object -->
<g id="node1" class="node">
<title>object</title>
<g id="a_node1"><a xlink:href="object.md" xlink:title="object">
<polygon fill="#ffffff" stroke="transparent" points="77,-458 77,-550 134,-550 134,-458 77,-458"/>
<polygon fill="none" stroke="#000000" points="77.5,-528 77.5,-550 134.5,-550 134.5,-528 77.5,-528"/>
<text text-anchor="start" x="92.6625" y="-536" font-family="Helvetica,sans-Serif" font-size="10.00" fill="#000000">object</text>
<polygon fill="none" stroke="#000000" points="77.5,-458 77.5,-528 134.5,-528 134.5,-458 77.5,-458"/>
<text text-anchor="start" x="82.5" y="-514" font-family="Helvetica,sans-Serif" font-size="10.00" fill="#000000"> dispose()</text>
<text text-anchor="start" x="82.5" y="-502" font-family="Helvetica,sans-Serif" font-size="10.00" fill="#000000"> equals()</text>
<text text-anchor="start" x="82.5" y="-490" font-family="Helvetica,sans-Serif" font-size="10.00" fill="#000000"> toString()</text>
<text text-anchor="start" x="82.5" y="-478" font-family="Helvetica,sans-Serif" font-size="10.00" fill="#000000"> toJSON()</text>
<text text-anchor="start" x="82.5" y="-466" font-family="Helvetica,sans-Serif" font-size="10.00" fill="#000000"> valueOf()</text>
</a>
</g>
</g>
<!-- TcpServer -->
<g id="node2" class="node">
<title>TcpServer</title>
<g id="a_node2"><a xlink:title="TcpServer">
<polygon fill="#d3d3d3" stroke="transparent" points="59.5,-286 59.5,-422 151.5,-422 151.5,-286 59.5,-286"/>
<polygon fill="none" stroke="#000000" points="59.5,-400 59.5,-422 151.5,-422 151.5,-400 59.5,-400"/>
<text text-anchor="start" x="82.4435" y="-408" font-family="Helvetica,sans-Serif" font-size="10.00" fill="#000000">TcpServer</text>
<polygon fill="none" stroke="#000000" points="59.5,-378 59.5,-400 151.5,-400 151.5,-378 59.5,-378"/>
<text text-anchor="start" x="64.5" y="-386" font-family="Helvetica,sans-Serif" font-size="10.00" fill="#000000">  new TcpServer()</text>
<polygon fill="none" stroke="#000000" points="59.5,-332 59.5,-378 151.5,-378 151.5,-332 59.5,-332"/>
<text text-anchor="start" x="64.5" y="-364" font-family="Helvetica,sans-Serif" font-size="10.00" fill="#000000"> socket</text>
<text text-anchor="start" x="64.5" y="-352" font-family="Helvetica,sans-Serif" font-size="10.00" fill="#000000"> handler</text>
<text text-anchor="start" x="64.5" y="-340" font-family="Helvetica,sans-Serif" font-size="10.00" fill="#000000"> stats</text>
<polygon fill="none" stroke="#000000" points="59.5,-286 59.5,-332 151.5,-332 151.5,-286 59.5,-286"/>
<text text-anchor="start" x="64.5" y="-318" font-family="Helvetica,sans-Serif" font-size="10.00" fill="#000000"> run()</text>
<text text-anchor="start" x="64.5" y="-306" font-family="Helvetica,sans-Serif" font-size="10.00" fill="#000000"> asyncRun()</text>
<text text-anchor="start" x="64.5" y="-294" font-family="Helvetica,sans-Serif" font-size="10.00" fill="#000000"> stop()</text>
</a>
</g>
</g>
<!-- object&#45;&gt;TcpServer -->
<g id="edge1" class="edge">
<title>object&#45;&gt;TcpServer</title>
<path fill="none" stroke="#000000" d="M105.5,-447.7662C105.5,-439.4038 105.5,-430.7087 105.5,-422.1344"/>
<polygon fill="#000000" stroke="#000000" points="102.0001,-447.7711 105.5,-457.7711 109.0001,-447.7711 102.0001,-447.7711"/>
</g>
<!-- HttpServer -->
<g id="node3" class="node">
<title>HttpServer</title>
<g id="a_node3"><a xlink:href="HttpServer.md" xlink:title="HttpServer">
<polygon fill="#ffffff" stroke="transparent" points="0,-114 0,-250 99,-250 99,-114 0,-114"/>
<polygon fill="none" stroke="#000000" points=".5,-228 .5,-250 99.5,-250 99.5,-228 .5,-228"/>
<text text-anchor="start" x="26.1095" y="-236" font-family="Helvetica,sans-Serif" font-size="10.00" fill="#000000">HttpServer</text>
<polygon fill="none" stroke="#000000" points=".5,-206 .5,-228 99.5,-228 99.5,-206 .5,-206"/>
<text text-anchor="start" x="5.5" y="-214" font-family="Helvetica,sans-Serif" font-size="10.00" fill="#000000">  new HttpServer()</text>
<polygon fill="none" stroke="#000000" points=".5,-136 .5,-206 99.5,-206 99.5,-136 .5,-136"/>
<text text-anchor="start" x="5.5" y="-192" font-family="Helvetica,sans-Serif" font-size="10.00" fill="#000000"> crossDomain</text>
<text text-anchor="start" x="5.5" y="-180" font-family="Helvetica,sans-Serif" font-size="10.00" fill="#000000"> forceGZIP</text>
<text text-anchor="start" x="5.5" y="-168" font-family="Helvetica,sans-Serif" font-size="10.00" fill="#000000"> maxHeadersCount</text>
<text text-anchor="start" x="5.5" y="-156" font-family="Helvetica,sans-Serif" font-size="10.00" fill="#000000"> maxUploadSize</text>
<text text-anchor="start" x="5.5" y="-144" font-family="Helvetica,sans-Serif" font-size="10.00" fill="#000000"> httpStats</text>
<polygon fill="none" stroke="#000000" points=".5,-114 .5,-136 99.5,-136 99.5,-114 .5,-114"/>
<text text-anchor="start" x="5.5" y="-122" font-family="Helvetica,sans-Serif" font-size="10.00" fill="#000000"> onerror()</text>
</a>
</g>
</g>
<!-- TcpServer&#45;&gt;HttpServer -->
<g id="edge2" class="edge">
<title>TcpServer&#45;&gt;HttpServer</title>
<path fill="none" stroke="#000000" d="M80.0773,-275.916C77.2876,-267.3475 74.4634,-258.6733 71.7169,-250.2376"/>
<polygon fill="#000000" stroke="#000000" points="76.7824,-277.1017 83.2064,-285.5268 83.4385,-274.9345 76.7824,-277.1017"/>
</g>
<!-- SslServer -->
<g id="node5" class="node">
<title>SslServer</title>
<g id="a_node5"><a xlink:href="SslServer.md" xlink:title="SslServer">
<polygon fill="#ffffff" stroke="transparent" points="117,-143 117,-221 206,-221 206,-143 117,-143"/>
<polygon fill="none" stroke="#000000" points="117.5,-199 117.5,-221 206.5,-221 206.5,-199 117.5,-199"/>
<text text-anchor="start" x="140.3335" y="-207" font-family="Helvetica,sans-Serif" font-size="10.00" fill="#000000">SslServer</text>
<polygon fill="none" stroke="#000000" points="117.5,-177 117.5,-199 206.5,-199 206.5,-177 117.5,-177"/>
<text text-anchor="start" x="122.5" y="-185" font-family="Helvetica,sans-Serif" font-size="10.00" fill="#000000">  new SslServer()</text>
<polygon fill="none" stroke="#000000" points="117.5,-143 117.5,-177 206.5,-177 206.5,-143 117.5,-143"/>
<text text-anchor="start" x="122.5" y="-163" font-family="Helvetica,sans-Serif" font-size="10.00" fill="#000000"> verification</text>
<text text-anchor="start" x="122.5" y="-151" font-family="Helvetica,sans-Serif" font-size="10.00" fill="#000000"> ca</text>
</a>
</g>
</g>
<!-- TcpServer&#45;&gt;SslServer -->
<g id="edge4" class="edge">
<title>TcpServer&#45;&gt;SslServer</title>
<path fill="none" stroke="#000000" d="M130.9147,-275.9405C137.1131,-256.9026 143.4819,-237.3413 148.7922,-221.0311"/>
<polygon fill="#000000" stroke="#000000" points="127.5615,-274.9345 127.7936,-285.5268 134.2176,-277.1017 127.5615,-274.9345"/>
</g>
<!-- HttpsServer -->
<g id="node4" class="node">
<title>HttpsServer</title>
<g id="a_node4"><a xlink:href="HttpsServer.md" xlink:title="HttpsServer">
<polygon fill="#ffffff" stroke="transparent" points="0,0 0,-78 99,-78 99,0 0,0"/>
<polygon fill="none" stroke="#000000" points=".5,-56 .5,-78 99.5,-78 99.5,-56 .5,-56"/>
<text text-anchor="start" x="23.6095" y="-64" font-family="Helvetica,sans-Serif" font-size="10.00" fill="#000000">HttpsServer</text>
<polygon fill="none" stroke="#000000" points=".5,-34 .5,-56 99.5,-56 99.5,-34 .5,-34"/>
<text text-anchor="start" x="5.5" y="-42" font-family="Helvetica,sans-Serif" font-size="10.00" fill="#000000">  new HttpsServer()</text>
<polygon fill="none" stroke="#000000" points=".5,0 .5,-34 99.5,-34 99.5,0 .5,0"/>
<text text-anchor="start" x="5.5" y="-20" font-family="Helvetica,sans-Serif" font-size="10.00" fill="#000000"> verification</text>
<text text-anchor="start" x="5.5" y="-8" font-family="Helvetica,sans-Serif" font-size="10.00" fill="#000000"> ca</text>
</a>
</g>
</g>
<!-- HttpServer&#45;&gt;HttpsServer -->
<g id="edge3" class="edge">
<title>HttpServer&#45;&gt;HttpsServer</title>
<path fill="none" stroke="#000000" d="M49.5,-103.8187C49.5,-94.9595 49.5,-86.2382 49.5,-78.2054"/>
<polygon fill="#000000" stroke="#000000" points="46.0001,-103.8504 49.5,-113.8505 53.0001,-103.8505 46.0001,-103.8504"/>
</g>
</g>
</svg>
