<?xml version="1.0" encoding="UTF-8" standalone="no"?>
<!DOCTYPE svg PUBLIC "-//W3C//DTD SVG 1.1//EN"
 "http://www.w3.org/Graphics/SVG/1.1/DTD/svg11.dtd">
<!-- Generated by graphviz version 2.40.1 (20161225.0304)
 -->
<!-- Title: %0 Pages: 1 -->
<svg width="65pt" height="216pt"
 viewBox="0.00 0.00 65.00 216.00" xmlns="http://www.w3.org/2000/svg" xmlns:xlink="http://www.w3.org/1999/xlink">
<g id="graph0" class="graph" transform="scale(1 1) rotate(0) translate(4 212)">
<title>%0</title>
<polygon fill="#ffffff" stroke="transparent" points="-4,4 -4,-212 61,-212 61,4 -4,4"/>
<!-- object -->
<g id="node1" class="node">
<title>object</title>
<g id="a_node1"><a xlink:href="object.md" xlink:title="object">
<polygon fill="#ffffff" stroke="transparent" points="0,-116 0,-208 57,-208 57,-116 0,-116"/>
<polygon fill="none" stroke="#000000" points=".5,-186 .5,-208 57.5,-208 57.5,-186 .5,-186"/>
<text text-anchor="start" x="15.6625" y="-194" font-family="Helvetica,sans-Serif" font-size="10.00" fill="#000000">object</text>
<polygon fill="none" stroke="#000000" points=".5,-116 .5,-186 57.5,-186 57.5,-116 .5,-116"/>
<text text-anchor="start" x="5.5" y="-172" font-family="Helvetica,sans-Serif" font-size="10.00" fill="#000000"> dispose()</text>
<text text-anchor="start" x="5.5" y="-160" font-family="Helvetica,sans-Serif" font-size="10.00" fill="#000000"> equals()</text>
<text text-anchor="start" x="5.5" y="-148" font-family="Helvetica,sans-Serif" font-size="10.00" fill="#000000"> toString()</text>
<text text-anchor="start" x="5.5" y="-136" font-family="Helvetica,sans-Serif" font-size="10.00" fill="#000000"> toJSON()</text>
<text text-anchor="start" x="5.5" y="-124" font-family="Helvetica,sans-Serif" font-size="10.00" fill="#000000"> valueOf()</text>
</a>
</g>
</g>
<!-- TextColor -->
<g id="node2" class="node">
<title>TextColor</title>
<g id="a_node2"><a xlink:title="TextColor">
<polygon fill="#d3d3d3" stroke="transparent" points=".5,0 .5,-80 56.5,-80 56.5,0 .5,0"/>
<polygon fill="none" stroke="#000000" points=".5,-58 .5,-80 56.5,-80 56.5,-58 .5,-58"/>
<text text-anchor="start" x="6.834" y="-66" font-family="Helvetica,sans-Serif" font-size="10.00" fill="#000000">TextColor</text>
<polygon fill="none" stroke="#000000" points=".5,0 .5,-58 56.5,-58 56.5,0 .5,0"/>
<text text-anchor="start" x="5.5" y="-44" font-family="Helvetica,sans-Serif" font-size="10.00" fill="#000000"> notice</text>
<text text-anchor="start" x="5.5" y="-32" font-family="Helvetica,sans-Serif" font-size="10.00" fill="#000000"> warn</text>
<text text-anchor="start" x="5.5" y="-20" font-family="Helvetica,sans-Serif" font-size="10.00" fill="#000000"> error</text>
<text text-anchor="start" x="5.5" y="-8" font-family="Helvetica,sans-Serif" font-size="10.00" fill="#000000"> highLight</text>
</a>
</g>
</g>
<!-- object&#45;&gt;TextColor -->
<g id="edge1" class="edge">
<title>object&#45;&gt;TextColor</title>
<path fill="none" stroke="#000000" d="M28.5,-105.8267C28.5,-97.1786 28.5,-88.4003 28.5,-80.193"/>
<polygon fill="#000000" stroke="#000000" points="25.0001,-105.877 28.5,-115.877 32.0001,-105.8771 25.0001,-105.877"/>
</g>
</g>
</svg>
