<?xml version="1.0" encoding="UTF-8" standalone="no"?>
<!DOCTYPE svg PUBLIC "-//W3C//DTD SVG 1.1//EN"
 "http://www.w3.org/Graphics/SVG/1.1/DTD/svg11.dtd">
<!-- Generated by graphviz version 2.40.1 (20161225.0304)
 -->
<!-- Title: %0 Pages: 1 -->
<svg width="66pt" height="174pt"
 viewBox="0.00 0.00 65.66 174.00" xmlns="http://www.w3.org/2000/svg" xmlns:xlink="http://www.w3.org/1999/xlink">
<g id="graph0" class="graph" transform="scale(1 1) rotate(0) translate(4 170)">
<title>%0</title>
<polygon fill="#ffffff" stroke="transparent" points="-4,4 -4,-170 61.663,-170 61.663,4 -4,4"/>
<!-- object -->
<g id="node1" class="node">
<title>object</title>
<g id="a_node1"><a xlink:href="object.md" xlink:title="object">
<polygon fill="#ffffff" stroke="#000000" points="0,-77.5 0,-165.5 57.663,-165.5 57.663,-77.5 0,-77.5"/>
<text text-anchor="middle" x="28.8315" y="-152.5" font-family="Helvetica,sans-Serif" font-size="10.00" fill="#000000">object</text>
<polyline fill="none" stroke="#000000" points="0,-145.5 57.663,-145.5 "/>
<text text-anchor="start" x="8" y="-132.5" font-family="Helvetica,sans-Serif" font-size="10.00" fill="#000000">dispose()</text>
<text text-anchor="start" x="8" y="-120.5" font-family="Helvetica,sans-Serif" font-size="10.00" fill="#000000">equals()</text>
<text text-anchor="start" x="8" y="-108.5" font-family="Helvetica,sans-Serif" font-size="10.00" fill="#000000">toString()</text>
<text text-anchor="start" x="8" y="-96.5" font-family="Helvetica,sans-Serif" font-size="10.00" fill="#000000">toJSON()</text>
<text text-anchor="start" x="8" y="-84.5" font-family="Helvetica,sans-Serif" font-size="10.00" fill="#000000">valueOf()</text>
</a>
</g>
</g>
<!-- Timer -->
<g id="node2" class="node">
<title>Timer</title>
<g id="a_node2"><a xlink:title="Timer">
<polygon fill="#d3d3d3" stroke="#000000" points="1.8315,-.5 1.8315,-40.5 55.8315,-40.5 55.8315,-.5 1.8315,-.5"/>
<text text-anchor="middle" x="28.4935" y="-27.5" font-family="Helvetica,sans-Serif" font-size="10.00" fill="#000000">Timer</text>
<polyline fill="none" stroke="#000000" points="1.8315,-20.5 55.1555,-20.5 "/>
<text text-anchor="start" x="9.8315" y="-7.5" font-family="Helvetica,sans-Serif" font-size="10.00" fill="#000000">clear()</text>
</a>
</g>
</g>
<!-- object&#45;&gt;Timer -->
<g id="edge1" class="edge">
<title>object&#45;&gt;Timer</title>
<path fill="none" stroke="#000000" d="M28.8315,-67.4884C28.8315,-57.8902 28.8315,-48.462 28.8315,-40.5997"/>
<polygon fill="#000000" stroke="#000000" points="25.3316,-67.4937 28.8315,-77.4937 32.3316,-67.4938 25.3316,-67.4937"/>
</g>
</g>
</svg>
