<?xml version="1.0" encoding="UTF-8" standalone="no"?>
<!DOCTYPE svg PUBLIC "-//W3C//DTD SVG 1.1//EN"
 "http://www.w3.org/Graphics/SVG/1.1/DTD/svg11.dtd">
<!-- Generated by graphviz version 2.40.1 (20161225.0304)
 -->
<!-- Title: %0 Pages: 1 -->
<svg width="126pt" height="590pt"
 viewBox="0.00 0.00 126.00 590.00" xmlns="http://www.w3.org/2000/svg" xmlns:xlink="http://www.w3.org/1999/xlink">
<g id="graph0" class="graph" transform="scale(1 1) rotate(0) translate(4 586)">
<title>%0</title>
<polygon fill="#ffffff" stroke="transparent" points="-4,4 -4,-586 122,-586 122,4 -4,4"/>
<!-- object -->
<g id="node1" class="node">
<title>object</title>
<g id="a_node1"><a xlink:href="object.md" xlink:title="object">
<polygon fill="#ffffff" stroke="transparent" points="30.5,-490 30.5,-582 87.5,-582 87.5,-490 30.5,-490"/>
<polygon fill="none" stroke="#000000" points="31,-560 31,-582 88,-582 88,-560 31,-560"/>
<text text-anchor="start" x="46.1625" y="-568" font-family="Helvetica,sans-Serif" font-size="10.00" fill="#000000">object</text>
<polygon fill="none" stroke="#000000" points="31,-490 31,-560 88,-560 88,-490 31,-490"/>
<text text-anchor="start" x="36" y="-546" font-family="Helvetica,sans-Serif" font-size="10.00" fill="#000000"> dispose()</text>
<text text-anchor="start" x="36" y="-534" font-family="Helvetica,sans-Serif" font-size="10.00" fill="#000000"> equals()</text>
<text text-anchor="start" x="36" y="-522" font-family="Helvetica,sans-Serif" font-size="10.00" fill="#000000"> toString()</text>
<text text-anchor="start" x="36" y="-510" font-family="Helvetica,sans-Serif" font-size="10.00" fill="#000000"> toJSON()</text>
<text text-anchor="start" x="36" y="-498" font-family="Helvetica,sans-Serif" font-size="10.00" fill="#000000"> valueOf()</text>
</a>
</g>
</g>
<!-- EventEmitter -->
<g id="node2" class="node">
<title>EventEmitter</title>
<g id="a_node2"><a xlink:href="EventEmitter.md" xlink:title="EventEmitter">
<polygon fill="#ffffff" stroke="transparent" points="0,-210 0,-454 118,-454 118,-210 0,-210"/>
<polygon fill="none" stroke="#000000" points="0,-432 0,-454 118,-454 118,-432 0,-432"/>
<text text-anchor="start" x="30.3855" y="-440" font-family="Helvetica,sans-Serif" font-size="10.00" fill="#000000">EventEmitter</text>
<polygon fill="none" stroke="#000000" points="0,-410 0,-432 118,-432 118,-410 0,-410"/>
<text text-anchor="start" x="5" y="-418" font-family="Helvetica,sans-Serif" font-size="10.00" fill="#000000">  new EventEmitter()</text>
<polygon fill="none" stroke="#000000" points="0,-388 0,-410 118,-410 118,-388 0,-388"/>
<text text-anchor="start" x="5" y="-396" font-family="Helvetica,sans-Serif" font-size="10.00" fill="#000000"> defaultMaxListeners</text>
<polygon fill="none" stroke="#000000" points="0,-210 0,-388 118,-388 118,-210 0,-210"/>
<text text-anchor="start" x="5" y="-374" font-family="Helvetica,sans-Serif" font-size="10.00" fill="#000000"> on()</text>
<text text-anchor="start" x="5" y="-362" font-family="Helvetica,sans-Serif" font-size="10.00" fill="#000000"> addListener()</text>
<text text-anchor="start" x="5" y="-350" font-family="Helvetica,sans-Serif" font-size="10.00" fill="#000000"> prependListener()</text>
<text text-anchor="start" x="5" y="-338" font-family="Helvetica,sans-Serif" font-size="10.00" fill="#000000"> once()</text>
<text text-anchor="start" x="5" y="-326" font-family="Helvetica,sans-Serif" font-size="10.00" fill="#000000"> prependOnceListener()</text>
<text text-anchor="start" x="5" y="-314" font-family="Helvetica,sans-Serif" font-size="10.00" fill="#000000"> off()</text>
<text text-anchor="start" x="5" y="-302" font-family="Helvetica,sans-Serif" font-size="10.00" fill="#000000"> removeListener()</text>
<text text-anchor="start" x="5" y="-290" font-family="Helvetica,sans-Serif" font-size="10.00" fill="#000000"> removeAllListeners()</text>
<text text-anchor="start" x="5" y="-278" font-family="Helvetica,sans-Serif" font-size="10.00" fill="#000000"> setMaxListeners()</text>
<text text-anchor="start" x="5" y="-266" font-family="Helvetica,sans-Serif" font-size="10.00" fill="#000000"> getMaxListeners()</text>
<text text-anchor="start" x="5" y="-254" font-family="Helvetica,sans-Serif" font-size="10.00" fill="#000000"> listeners()</text>
<text text-anchor="start" x="5" y="-242" font-family="Helvetica,sans-Serif" font-size="10.00" fill="#000000"> listenerCount()</text>
<text text-anchor="start" x="5" y="-230" font-family="Helvetica,sans-Serif" font-size="10.00" fill="#000000"> eventNames()</text>
<text text-anchor="start" x="5" y="-218" font-family="Helvetica,sans-Serif" font-size="10.00" fill="#000000"> emit()</text>
</a>
</g>
</g>
<!-- object&#45;&gt;EventEmitter -->
<g id="edge1" class="edge">
<title>object&#45;&gt;EventEmitter</title>
<path fill="none" stroke="#000000" d="M59,-479.9235C59,-471.7711 59,-463.1241 59,-454.2645"/>
<polygon fill="#000000" stroke="#000000" points="55.5001,-479.964 59,-489.9641 62.5001,-479.9641 55.5001,-479.964"/>
</g>
<!-- WebView -->
<g id="node3" class="node">
<title>WebView</title>
<g id="a_node3"><a xlink:title="WebView">
<polygon fill="#d3d3d3" stroke="transparent" points="18,0 18,-174 100,-174 100,0 18,0"/>
<polygon fill="none" stroke="#000000" points="18,-152 18,-174 100,-174 100,-152 18,-152"/>
<text text-anchor="start" x="37.8885" y="-160" font-family="Helvetica,sans-Serif" font-size="10.00" fill="#000000">WebView</text>
<polygon fill="none" stroke="#000000" points="18,-70 18,-152 100,-152 100,-70 18,-70"/>
<text text-anchor="start" x="23" y="-138" font-family="Helvetica,sans-Serif" font-size="10.00" fill="#000000"> visible</text>
<text text-anchor="start" x="23" y="-126" font-family="Helvetica,sans-Serif" font-size="10.00" fill="#000000"> onload</text>
<text text-anchor="start" x="23" y="-114" font-family="Helvetica,sans-Serif" font-size="10.00" fill="#000000"> onmove</text>
<text text-anchor="start" x="23" y="-102" font-family="Helvetica,sans-Serif" font-size="10.00" fill="#000000"> onresize</text>
<text text-anchor="start" x="23" y="-90" font-family="Helvetica,sans-Serif" font-size="10.00" fill="#000000"> onclose</text>
<text text-anchor="start" x="23" y="-78" font-family="Helvetica,sans-Serif" font-size="10.00" fill="#000000"> onmessage</text>
<polygon fill="none" stroke="#000000" points="18,0 18,-70 100,-70 100,0 18,0"/>
<text text-anchor="start" x="23" y="-56" font-family="Helvetica,sans-Serif" font-size="10.00" fill="#000000"> setHtml()</text>
<text text-anchor="start" x="23" y="-44" font-family="Helvetica,sans-Serif" font-size="10.00" fill="#000000"> print()</text>
<text text-anchor="start" x="23" y="-32" font-family="Helvetica,sans-Serif" font-size="10.00" fill="#000000"> close()</text>
<text text-anchor="start" x="23" y="-20" font-family="Helvetica,sans-Serif" font-size="10.00" fill="#000000"> wait()</text>
<text text-anchor="start" x="23" y="-8" font-family="Helvetica,sans-Serif" font-size="10.00" fill="#000000"> postMessage()</text>
</a>
</g>
</g>
<!-- EventEmitter&#45;&gt;WebView -->
<g id="edge2" class="edge">
<title>EventEmitter&#45;&gt;WebView</title>
<path fill="none" stroke="#000000" d="M59,-199.7546C59,-191.1638 59,-182.6373 59,-174.3455"/>
<polygon fill="#000000" stroke="#000000" points="55.5001,-199.8589 59,-209.8589 62.5001,-199.8589 55.5001,-199.8589"/>
</g>
</g>
</svg>
