<?xml version="1.0" encoding="UTF-8" standalone="no"?>
<!DOCTYPE svg PUBLIC "-//W3C//DTD SVG 1.1//EN"
 "http://www.w3.org/Graphics/SVG/1.1/DTD/svg11.dtd">
<!-- Generated by graphviz version 2.40.1 (20161225.0304)
 -->
<!-- Title: %0 Pages: 1 -->
<svg width="90pt" height="238pt"
 viewBox="0.00 0.00 90.00 238.00" xmlns="http://www.w3.org/2000/svg" xmlns:xlink="http://www.w3.org/1999/xlink">
<g id="graph0" class="graph" transform="scale(1 1) rotate(0) translate(4 234)">
<title>%0</title>
<polygon fill="#ffffff" stroke="transparent" points="-4,4 -4,-234 86,-234 86,4 -4,4"/>
<!-- object -->
<g id="node1" class="node">
<title>object</title>
<g id="a_node1"><a xlink:href="object.md" xlink:title="object">
<polygon fill="#ffffff" stroke="transparent" points="12.5,-138 12.5,-230 69.5,-230 69.5,-138 12.5,-138"/>
<polygon fill="none" stroke="#000000" points="13,-208 13,-230 70,-230 70,-208 13,-208"/>
<text text-anchor="start" x="28.1625" y="-216" font-family="Helvetica,sans-Serif" font-size="10.00" fill="#000000">object</text>
<polygon fill="none" stroke="#000000" points="13,-138 13,-208 70,-208 70,-138 13,-138"/>
<text text-anchor="start" x="18" y="-194" font-family="Helvetica,sans-Serif" font-size="10.00" fill="#000000"> dispose()</text>
<text text-anchor="start" x="18" y="-182" font-family="Helvetica,sans-Serif" font-size="10.00" fill="#000000"> equals()</text>
<text text-anchor="start" x="18" y="-170" font-family="Helvetica,sans-Serif" font-size="10.00" fill="#000000"> toString()</text>
<text text-anchor="start" x="18" y="-158" font-family="Helvetica,sans-Serif" font-size="10.00" fill="#000000"> toJSON()</text>
<text text-anchor="start" x="18" y="-146" font-family="Helvetica,sans-Serif" font-size="10.00" fill="#000000"> valueOf()</text>
</a>
</g>
</g>
<!-- X509Crl -->
<g id="node2" class="node">
<title>X509Crl</title>
<g id="a_node2"><a xlink:title="X509Crl">
<polygon fill="#d3d3d3" stroke="transparent" points="0,0 0,-102 82,-102 82,0 0,0"/>
<polygon fill="none" stroke="#000000" points="0,-80 0,-102 82,-102 82,-80 0,-80"/>
<text text-anchor="start" x="22.9435" y="-88" font-family="Helvetica,sans-Serif" font-size="10.00" fill="#000000">X509Crl</text>
<polygon fill="none" stroke="#000000" points="0,-58 0,-80 82,-80 82,-58 0,-58"/>
<text text-anchor="start" x="5" y="-66" font-family="Helvetica,sans-Serif" font-size="10.00" fill="#000000">  new X509Crl()</text>
<polygon fill="none" stroke="#000000" points="0,0 0,-58 82,-58 82,0 0,0"/>
<text text-anchor="start" x="5" y="-44" font-family="Helvetica,sans-Serif" font-size="10.00" fill="#000000"> load()</text>
<text text-anchor="start" x="5" y="-32" font-family="Helvetica,sans-Serif" font-size="10.00" fill="#000000"> loadFile()</text>
<text text-anchor="start" x="5" y="-20" font-family="Helvetica,sans-Serif" font-size="10.00" fill="#000000"> dump()</text>
<text text-anchor="start" x="5" y="-8" font-family="Helvetica,sans-Serif" font-size="10.00" fill="#000000"> clear()</text>
</a>
</g>
</g>
<!-- object&#45;&gt;X509Crl -->
<g id="edge1" class="edge">
<title>object&#45;&gt;X509Crl</title>
<path fill="none" stroke="#000000" d="M41,-127.6477C41,-119.1551 41,-110.4363 41,-102.0632"/>
<polygon fill="#000000" stroke="#000000" points="37.5001,-127.8563 41,-137.8563 44.5001,-127.8563 37.5001,-127.8563"/>
</g>
</g>
</svg>
