<?xml version="1.0" encoding="UTF-8" standalone="no"?>
<!DOCTYPE svg PUBLIC "-//W3C//DTD SVG 1.1//EN"
 "http://www.w3.org/Graphics/SVG/1.1/DTD/svg11.dtd">
<!-- Generated by graphviz version 2.40.1 (20161225.0304)
 -->
<!-- Title: %0 Pages: 1 -->
<svg width="96pt" height="416pt"
 viewBox="0.00 0.00 96.00 416.00" xmlns="http://www.w3.org/2000/svg" xmlns:xlink="http://www.w3.org/1999/xlink">
<g id="graph0" class="graph" transform="scale(1 1) rotate(0) translate(4 412)">
<title>%0</title>
<polygon fill="#ffffff" stroke="transparent" points="-4,4 -4,-412 92,-412 92,4 -4,4"/>
<!-- object -->
<g id="node1" class="node">
<title>object</title>
<g id="a_node1"><a xlink:href="object.md" xlink:title="object">
<polygon fill="#ffffff" stroke="transparent" points="15.5,-316 15.5,-408 72.5,-408 72.5,-316 15.5,-316"/>
<polygon fill="none" stroke="#000000" points="16,-386 16,-408 73,-408 73,-386 16,-386"/>
<text text-anchor="start" x="31.1625" y="-394" font-family="Helvetica,sans-Serif" font-size="10.00" fill="#000000">object</text>
<polygon fill="none" stroke="#000000" points="16,-316 16,-386 73,-386 73,-316 16,-316"/>
<text text-anchor="start" x="21" y="-372" font-family="Helvetica,sans-Serif" font-size="10.00" fill="#000000"> dispose()</text>
<text text-anchor="start" x="21" y="-360" font-family="Helvetica,sans-Serif" font-size="10.00" fill="#000000"> equals()</text>
<text text-anchor="start" x="21" y="-348" font-family="Helvetica,sans-Serif" font-size="10.00" fill="#000000"> toString()</text>
<text text-anchor="start" x="21" y="-336" font-family="Helvetica,sans-Serif" font-size="10.00" fill="#000000"> toJSON()</text>
<text text-anchor="start" x="21" y="-324" font-family="Helvetica,sans-Serif" font-size="10.00" fill="#000000"> valueOf()</text>
</a>
</g>
</g>
<!-- X509Cert -->
<g id="node2" class="node">
<title>X509Cert</title>
<g id="a_node2"><a xlink:title="X509Cert">
<polygon fill="#d3d3d3" stroke="transparent" points="0,0 0,-280 88,-280 88,0 0,0"/>
<polygon fill="none" stroke="#000000" points="0,-258 0,-280 88,-280 88,-258 0,-258"/>
<text text-anchor="start" x="22.884" y="-266" font-family="Helvetica,sans-Serif" font-size="10.00" fill="#000000">X509Cert</text>
<polygon fill="none" stroke="#000000" points="0,-236 0,-258 88,-258 88,-236 0,-236"/>
<text text-anchor="start" x="5" y="-244" font-family="Helvetica,sans-Serif" font-size="10.00" fill="#000000">  new X509Cert()</text>
<polygon fill="none" stroke="#000000" points="0,-82 0,-236 88,-236 88,-82 0,-82"/>
<text text-anchor="start" x="5" y="-222" font-family="Helvetica,sans-Serif" font-size="10.00" fill="#000000"> version</text>
<text text-anchor="start" x="5" y="-210" font-family="Helvetica,sans-Serif" font-size="10.00" fill="#000000"> serial</text>
<text text-anchor="start" x="5" y="-198" font-family="Helvetica,sans-Serif" font-size="10.00" fill="#000000"> issuer</text>
<text text-anchor="start" x="5" y="-186" font-family="Helvetica,sans-Serif" font-size="10.00" fill="#000000"> subject</text>
<text text-anchor="start" x="5" y="-174" font-family="Helvetica,sans-Serif" font-size="10.00" fill="#000000"> notBefore</text>
<text text-anchor="start" x="5" y="-162" font-family="Helvetica,sans-Serif" font-size="10.00" fill="#000000"> notAfter</text>
<text text-anchor="start" x="5" y="-150" font-family="Helvetica,sans-Serif" font-size="10.00" fill="#000000"> ca</text>
<text text-anchor="start" x="5" y="-138" font-family="Helvetica,sans-Serif" font-size="10.00" fill="#000000"> pathlen</text>
<text text-anchor="start" x="5" y="-126" font-family="Helvetica,sans-Serif" font-size="10.00" fill="#000000"> usage</text>
<text text-anchor="start" x="5" y="-114" font-family="Helvetica,sans-Serif" font-size="10.00" fill="#000000"> type</text>
<text text-anchor="start" x="5" y="-102" font-family="Helvetica,sans-Serif" font-size="10.00" fill="#000000"> publicKey</text>
<text text-anchor="start" x="5" y="-90" font-family="Helvetica,sans-Serif" font-size="10.00" fill="#000000"> next</text>
<polygon fill="none" stroke="#000000" points="0,0 0,-82 88,-82 88,0 0,0"/>
<text text-anchor="start" x="5" y="-68" font-family="Helvetica,sans-Serif" font-size="10.00" fill="#000000"> load()</text>
<text text-anchor="start" x="5" y="-56" font-family="Helvetica,sans-Serif" font-size="10.00" fill="#000000"> loadFile()</text>
<text text-anchor="start" x="5" y="-44" font-family="Helvetica,sans-Serif" font-size="10.00" fill="#000000"> loadRootCerts()</text>
<text text-anchor="start" x="5" y="-32" font-family="Helvetica,sans-Serif" font-size="10.00" fill="#000000"> verify()</text>
<text text-anchor="start" x="5" y="-20" font-family="Helvetica,sans-Serif" font-size="10.00" fill="#000000"> dump()</text>
<text text-anchor="start" x="5" y="-8" font-family="Helvetica,sans-Serif" font-size="10.00" fill="#000000"> clear()</text>
</a>
</g>
</g>
<!-- object&#45;&gt;X509Cert -->
<g id="edge1" class="edge">
<title>object&#45;&gt;X509Cert</title>
<path fill="none" stroke="#000000" d="M44,-305.5289C44,-297.5321 44,-289.033 44,-280.2719"/>
<polygon fill="#000000" stroke="#000000" points="40.5001,-305.7317 44,-315.7318 47.5001,-305.7318 40.5001,-305.7317"/>
</g>
</g>
</svg>
