<?xml version="1.0" encoding="UTF-8" standalone="no"?>
<!DOCTYPE svg PUBLIC "-//W3C//DTD SVG 1.1//EN"
 "http://www.w3.org/Graphics/SVG/1.1/DTD/svg11.dtd">
<!-- Generated by graphviz version 2.40.1 (20161225.0304)
 -->
<!-- Title: %0 Pages: 1 -->
<svg width="93pt" height="274pt"
 viewBox="0.00 0.00 93.46 274.00" xmlns="http://www.w3.org/2000/svg" xmlns:xlink="http://www.w3.org/1999/xlink">
<g id="graph0" class="graph" transform="scale(1 1) rotate(0) translate(4 270)">
<title>%0</title>
<polygon fill="#ffffff" stroke="transparent" points="-4,4 -4,-270 89.457,-270 89.457,4 -4,4"/>
<!-- object -->
<g id="node1" class="node">
<title>object</title>
<g id="a_node1"><a xlink:href="object.md" xlink:title="object">
<polygon fill="#ffffff" stroke="#000000" points="13.897,-177.5 13.897,-265.5 71.56,-265.5 71.56,-177.5 13.897,-177.5"/>
<text text-anchor="middle" x="42.7285" y="-252.5" font-family="Helvetica,sans-Serif" font-size="10.00" fill="#000000">object</text>
<polyline fill="none" stroke="#000000" points="13.897,-245.5 71.56,-245.5 "/>
<text text-anchor="start" x="21.897" y="-232.5" font-family="Helvetica,sans-Serif" font-size="10.00" fill="#000000">dispose()</text>
<text text-anchor="start" x="21.897" y="-220.5" font-family="Helvetica,sans-Serif" font-size="10.00" fill="#000000">equals()</text>
<text text-anchor="start" x="21.897" y="-208.5" font-family="Helvetica,sans-Serif" font-size="10.00" fill="#000000">toString()</text>
<text text-anchor="start" x="21.897" y="-196.5" font-family="Helvetica,sans-Serif" font-size="10.00" fill="#000000">toJSON()</text>
<text text-anchor="start" x="21.897" y="-184.5" font-family="Helvetica,sans-Serif" font-size="10.00" fill="#000000">valueOf()</text>
</a>
</g>
</g>
<!-- X509Req -->
<g id="node2" class="node">
<title>X509Req</title>
<g id="a_node2"><a xlink:title="X509Req">
<polygon fill="#d3d3d3" stroke="#000000" points="0,-.5 0,-140.5 85.457,-140.5 85.457,-.5 0,-.5"/>
<text text-anchor="middle" x="42.7285" y="-127.5" font-family="Helvetica,sans-Serif" font-size="10.00" fill="#000000">X509Req</text>
<polyline fill="none" stroke="#000000" points="0,-120.5 85.457,-120.5 "/>
<text text-anchor="start" x="8" y="-107.5" font-family="Helvetica,sans-Serif" font-size="10.00" fill="#000000">new X509Req()</text>
<polyline fill="none" stroke="#000000" points="0,-100.5 85.457,-100.5 "/>
<text text-anchor="start" x="8" y="-87.5" font-family="Helvetica,sans-Serif" font-size="10.00" fill="#000000">subject</text>
<text text-anchor="start" x="8" y="-75.5" font-family="Helvetica,sans-Serif" font-size="10.00" fill="#000000">publicKey</text>
<polyline fill="none" stroke="#000000" points="0,-68.5 85.457,-68.5 "/>
<text text-anchor="start" x="8" y="-55.5" font-family="Helvetica,sans-Serif" font-size="10.00" fill="#000000">load()</text>
<text text-anchor="start" x="8" y="-43.5" font-family="Helvetica,sans-Serif" font-size="10.00" fill="#000000">loadFile()</text>
<text text-anchor="start" x="8" y="-31.5" font-family="Helvetica,sans-Serif" font-size="10.00" fill="#000000">exportPem()</text>
<text text-anchor="start" x="8" y="-19.5" font-family="Helvetica,sans-Serif" font-size="10.00" fill="#000000">exportDer()</text>
<text text-anchor="start" x="8" y="-7.5" font-family="Helvetica,sans-Serif" font-size="10.00" fill="#000000">sign()</text>
</a>
</g>
</g>
<!-- object&#45;&gt;X509Req -->
<g id="edge1" class="edge">
<title>object&#45;&gt;X509Req</title>
<path fill="none" stroke="#000000" d="M42.7285,-167.191C42.7285,-158.6178 42.7285,-149.6478 42.7285,-140.7746"/>
<polygon fill="#000000" stroke="#000000" points="39.2286,-167.4186 42.7285,-177.4186 46.2286,-167.4187 39.2286,-167.4186"/>
</g>
</g>
</svg>
