<?xml version="1.0" encoding="UTF-8" standalone="no"?>
<!DOCTYPE svg PUBLIC "-//W3C//DTD SVG 1.1//EN"
 "http://www.w3.org/Graphics/SVG/1.1/DTD/svg11.dtd">
<!-- Generated by graphviz version 2.40.1 (20161225.0304)
 -->
<!-- Title: %0 Pages: 1 -->
<svg width="131pt" height="717pt"
 viewBox="0.00 0.00 130.67 717.00" xmlns="http://www.w3.org/2000/svg" xmlns:xlink="http://www.w3.org/1999/xlink">
<g id="graph0" class="graph" transform="scale(1 1) rotate(0) translate(4 713)">
<title>%0</title>
<polygon fill="#ffffff" stroke="transparent" points="-4,4 -4,-713 126.673,-713 126.673,4 -4,4"/>
<!-- object -->
<g id="node1" class="node">
<title>object</title>
<g id="a_node1"><a xlink:href="object.md" xlink:title="object">
<polygon fill="#ffffff" stroke="#000000" points="32.505,-620.5 32.505,-708.5 90.168,-708.5 90.168,-620.5 32.505,-620.5"/>
<text text-anchor="middle" x="61.3365" y="-695.5" font-family="Helvetica,sans-Serif" font-size="10.00" fill="#000000">object</text>
<polyline fill="none" stroke="#000000" points="32.505,-688.5 90.168,-688.5 "/>
<text text-anchor="start" x="40.505" y="-675.5" font-family="Helvetica,sans-Serif" font-size="10.00" fill="#000000">dispose()</text>
<text text-anchor="start" x="40.505" y="-663.5" font-family="Helvetica,sans-Serif" font-size="10.00" fill="#000000">equals()</text>
<text text-anchor="start" x="40.505" y="-651.5" font-family="Helvetica,sans-Serif" font-size="10.00" fill="#000000">toString()</text>
<text text-anchor="start" x="40.505" y="-639.5" font-family="Helvetica,sans-Serif" font-size="10.00" fill="#000000">toJSON()</text>
<text text-anchor="start" x="40.505" y="-627.5" font-family="Helvetica,sans-Serif" font-size="10.00" fill="#000000">valueOf()</text>
</a>
</g>
</g>
<!-- XmlNode -->
<g id="node2" class="node">
<title>XmlNode</title>
<g id="a_node2"><a xlink:href="XmlNode.md" xlink:title="XmlNode">
<polygon fill="#ffffff" stroke="#000000" points="0,-307.5 0,-583.5 122.673,-583.5 122.673,-307.5 0,-307.5"/>
<text text-anchor="middle" x="61.3365" y="-570.5" font-family="Helvetica,sans-Serif" font-size="10.00" fill="#000000">XmlNode</text>
<polyline fill="none" stroke="#000000" points="0,-563.5 122.673,-563.5 "/>
<text text-anchor="start" x="8" y="-550.5" font-family="Helvetica,sans-Serif" font-size="10.00" fill="#000000">nodeType</text>
<text text-anchor="start" x="8" y="-538.5" font-family="Helvetica,sans-Serif" font-size="10.00" fill="#000000">nodeName</text>
<text text-anchor="start" x="8" y="-526.5" font-family="Helvetica,sans-Serif" font-size="10.00" fill="#000000">nodeValue</text>
<text text-anchor="start" x="8" y="-514.5" font-family="Helvetica,sans-Serif" font-size="10.00" fill="#000000">ownerDocument</text>
<text text-anchor="start" x="8" y="-502.5" font-family="Helvetica,sans-Serif" font-size="10.00" fill="#000000">parentNode</text>
<text text-anchor="start" x="8" y="-490.5" font-family="Helvetica,sans-Serif" font-size="10.00" fill="#000000">childNodes</text>
<text text-anchor="start" x="8" y="-478.5" font-family="Helvetica,sans-Serif" font-size="10.00" fill="#000000">firstChild</text>
<text text-anchor="start" x="8" y="-466.5" font-family="Helvetica,sans-Serif" font-size="10.00" fill="#000000">lastChild</text>
<text text-anchor="start" x="8" y="-454.5" font-family="Helvetica,sans-Serif" font-size="10.00" fill="#000000">previousSibling</text>
<text text-anchor="start" x="8" y="-442.5" font-family="Helvetica,sans-Serif" font-size="10.00" fill="#000000">nextSibling</text>
<polyline fill="none" stroke="#000000" points="0,-435.5 122.673,-435.5 "/>
<text text-anchor="start" x="8" y="-422.5" font-family="Helvetica,sans-Serif" font-size="10.00" fill="#000000">hasChildNodes()</text>
<text text-anchor="start" x="8" y="-410.5" font-family="Helvetica,sans-Serif" font-size="10.00" fill="#000000">normalize()</text>
<text text-anchor="start" x="8" y="-398.5" font-family="Helvetica,sans-Serif" font-size="10.00" fill="#000000">cloneNode()</text>
<text text-anchor="start" x="8" y="-386.5" font-family="Helvetica,sans-Serif" font-size="10.00" fill="#000000">lookupPrefix()</text>
<text text-anchor="start" x="8" y="-374.5" font-family="Helvetica,sans-Serif" font-size="10.00" fill="#000000">lookupNamespaceURI()</text>
<text text-anchor="start" x="8" y="-362.5" font-family="Helvetica,sans-Serif" font-size="10.00" fill="#000000">insertBefore()</text>
<text text-anchor="start" x="8" y="-350.5" font-family="Helvetica,sans-Serif" font-size="10.00" fill="#000000">insertAfter()</text>
<text text-anchor="start" x="8" y="-338.5" font-family="Helvetica,sans-Serif" font-size="10.00" fill="#000000">appendChild()</text>
<text text-anchor="start" x="8" y="-326.5" font-family="Helvetica,sans-Serif" font-size="10.00" fill="#000000">replaceChild()</text>
<text text-anchor="start" x="8" y="-314.5" font-family="Helvetica,sans-Serif" font-size="10.00" fill="#000000">removeChild()</text>
</a>
</g>
</g>
<!-- object&#45;&gt;XmlNode -->
<g id="edge1" class="edge">
<title>object&#45;&gt;XmlNode</title>
<path fill="none" stroke="#000000" d="M61.3365,-610.1907C61.3365,-601.8324 61.3365,-592.8931 61.3365,-583.6615"/>
<polygon fill="#000000" stroke="#000000" points="57.8366,-610.4455 61.3365,-620.4455 64.8366,-610.4456 57.8366,-610.4455"/>
</g>
<!-- XmlCharacterData -->
<g id="node3" class="node">
<title>XmlCharacterData</title>
<g id="a_node3"><a xlink:href="XmlCharacterData.md" xlink:title="XmlCharacterData">
<polygon fill="#ffffff" stroke="#000000" points="12.224,-150.5 12.224,-270.5 110.449,-270.5 110.449,-150.5 12.224,-150.5"/>
<text text-anchor="middle" x="61.3365" y="-257.5" font-family="Helvetica,sans-Serif" font-size="10.00" fill="#000000">XmlCharacterData</text>
<polyline fill="none" stroke="#000000" points="12.224,-250.5 110.449,-250.5 "/>
<text text-anchor="start" x="20.224" y="-237.5" font-family="Helvetica,sans-Serif" font-size="10.00" fill="#000000">data</text>
<text text-anchor="start" x="20.224" y="-225.5" font-family="Helvetica,sans-Serif" font-size="10.00" fill="#000000">length</text>
<polyline fill="none" stroke="#000000" points="12.224,-218.5 110.449,-218.5 "/>
<text text-anchor="start" x="20.224" y="-205.5" font-family="Helvetica,sans-Serif" font-size="10.00" fill="#000000">substringData()</text>
<text text-anchor="start" x="20.224" y="-193.5" font-family="Helvetica,sans-Serif" font-size="10.00" fill="#000000">appendData()</text>
<text text-anchor="start" x="20.224" y="-181.5" font-family="Helvetica,sans-Serif" font-size="10.00" fill="#000000">insertData()</text>
<text text-anchor="start" x="20.224" y="-169.5" font-family="Helvetica,sans-Serif" font-size="10.00" fill="#000000">deleteData()</text>
<text text-anchor="start" x="20.224" y="-157.5" font-family="Helvetica,sans-Serif" font-size="10.00" fill="#000000">replaceData()</text>
</a>
</g>
</g>
<!-- XmlNode&#45;&gt;XmlCharacterData -->
<g id="edge2" class="edge">
<title>XmlNode&#45;&gt;XmlCharacterData</title>
<path fill="none" stroke="#000000" d="M61.3365,-297.3324C61.3365,-288.1046 61.3365,-279.1482 61.3365,-270.7132"/>
<polygon fill="#000000" stroke="#000000" points="57.8366,-297.4402 61.3365,-307.4403 64.8366,-297.4403 57.8366,-297.4402"/>
</g>
<!-- XmlText -->
<g id="node4" class="node">
<title>XmlText</title>
<g id="a_node4"><a xlink:href="XmlText.md" xlink:title="XmlText">
<polygon fill="#ffffff" stroke="#000000" points="31.396,-73.5 31.396,-113.5 91.277,-113.5 91.277,-73.5 31.396,-73.5"/>
<text text-anchor="middle" x="61.3365" y="-100.5" font-family="Helvetica,sans-Serif" font-size="10.00" fill="#000000">XmlText</text>
<polyline fill="none" stroke="#000000" points="31.396,-93.5 91.277,-93.5 "/>
<text text-anchor="start" x="39.396" y="-80.5" font-family="Helvetica,sans-Serif" font-size="10.00" fill="#000000">splitText()</text>
</a>
</g>
</g>
<!-- XmlCharacterData&#45;&gt;XmlText -->
<g id="edge3" class="edge">
<title>XmlCharacterData&#45;&gt;XmlText</title>
<path fill="none" stroke="#000000" d="M61.3365,-140.1356C61.3365,-130.5062 61.3365,-121.3244 61.3365,-113.6942"/>
<polygon fill="#000000" stroke="#000000" points="57.8366,-140.2863 61.3365,-150.2864 64.8366,-140.2864 57.8366,-140.2863"/>
</g>
<!-- XmlCDATASection -->
<g id="node5" class="node">
<title>XmlCDATASection</title>
<g id="a_node5"><a xlink:title="XmlCDATASection">
<polygon fill="#d3d3d3" stroke="#000000" points="11.1135,-.5 11.1135,-36.5 111.5595,-36.5 111.5595,-.5 11.1135,-.5"/>
<text text-anchor="middle" x="61.3365" y="-15.5" font-family="Helvetica,sans-Serif" font-size="10.00" fill="#000000">XmlCDATASection</text>
</a>
</g>
</g>
<!-- XmlText&#45;&gt;XmlCDATASection -->
<g id="edge4" class="edge">
<title>XmlText&#45;&gt;XmlCDATASection</title>
<path fill="none" stroke="#000000" d="M61.3365,-63.2072C61.3365,-54.1849 61.3365,-44.5841 61.3365,-36.6016"/>
<polygon fill="#000000" stroke="#000000" points="57.8366,-63.4013 61.3365,-73.4014 64.8366,-63.4014 57.8366,-63.4013"/>
</g>
</g>
</svg>
