<?xml version="1.0" encoding="UTF-8" standalone="no"?>
<!DOCTYPE svg PUBLIC "-//W3C//DTD SVG 1.1//EN"
 "http://www.w3.org/Graphics/SVG/1.1/DTD/svg11.dtd">
<!-- Generated by graphviz version 2.40.1 (20161225.0304)
 -->
<!-- Title: %0 Pages: 1 -->
<svg width="130pt" height="652pt"
 viewBox="0.00 0.00 130.00 652.00" xmlns="http://www.w3.org/2000/svg" xmlns:xlink="http://www.w3.org/1999/xlink">
<g id="graph0" class="graph" transform="scale(1 1) rotate(0) translate(4 648)">
<title>%0</title>
<polygon fill="#ffffff" stroke="transparent" points="-4,4 -4,-648 126,-648 126,4 -4,4"/>
<!-- object -->
<g id="node1" class="node">
<title>object</title>
<g id="a_node1"><a xlink:href="object.md" xlink:title="object">
<polygon fill="#ffffff" stroke="transparent" points="32.5,-552 32.5,-644 89.5,-644 89.5,-552 32.5,-552"/>
<polygon fill="none" stroke="#000000" points="33,-622 33,-644 90,-644 90,-622 33,-622"/>
<text text-anchor="start" x="48.1625" y="-630" font-family="Helvetica,sans-Serif" font-size="10.00" fill="#000000">object</text>
<polygon fill="none" stroke="#000000" points="33,-552 33,-622 90,-622 90,-552 33,-552"/>
<text text-anchor="start" x="38" y="-608" font-family="Helvetica,sans-Serif" font-size="10.00" fill="#000000"> dispose()</text>
<text text-anchor="start" x="38" y="-596" font-family="Helvetica,sans-Serif" font-size="10.00" fill="#000000"> equals()</text>
<text text-anchor="start" x="38" y="-584" font-family="Helvetica,sans-Serif" font-size="10.00" fill="#000000"> toString()</text>
<text text-anchor="start" x="38" y="-572" font-family="Helvetica,sans-Serif" font-size="10.00" fill="#000000"> toJSON()</text>
<text text-anchor="start" x="38" y="-560" font-family="Helvetica,sans-Serif" font-size="10.00" fill="#000000"> valueOf()</text>
</a>
</g>
</g>
<!-- XmlNode -->
<g id="node2" class="node">
<title>XmlNode</title>
<g id="a_node2"><a xlink:href="XmlNode.md" xlink:title="XmlNode">
<polygon fill="#ffffff" stroke="transparent" points="0,-234 0,-516 122,-516 122,-234 0,-234"/>
<polygon fill="none" stroke="#000000" points="0,-494 0,-516 122,-516 122,-494 0,-494"/>
<text text-anchor="start" x="40.4435" y="-502" font-family="Helvetica,sans-Serif" font-size="10.00" fill="#000000">XmlNode</text>
<polygon fill="none" stroke="#000000" points="0,-364 0,-494 122,-494 122,-364 0,-364"/>
<text text-anchor="start" x="5" y="-480" font-family="Helvetica,sans-Serif" font-size="10.00" fill="#000000"> nodeType</text>
<text text-anchor="start" x="5" y="-468" font-family="Helvetica,sans-Serif" font-size="10.00" fill="#000000"> nodeName</text>
<text text-anchor="start" x="5" y="-456" font-family="Helvetica,sans-Serif" font-size="10.00" fill="#000000"> nodeValue</text>
<text text-anchor="start" x="5" y="-444" font-family="Helvetica,sans-Serif" font-size="10.00" fill="#000000"> ownerDocument</text>
<text text-anchor="start" x="5" y="-432" font-family="Helvetica,sans-Serif" font-size="10.00" fill="#000000"> parentNode</text>
<text text-anchor="start" x="5" y="-420" font-family="Helvetica,sans-Serif" font-size="10.00" fill="#000000"> childNodes</text>
<text text-anchor="start" x="5" y="-408" font-family="Helvetica,sans-Serif" font-size="10.00" fill="#000000"> firstChild</text>
<text text-anchor="start" x="5" y="-396" font-family="Helvetica,sans-Serif" font-size="10.00" fill="#000000"> lastChild</text>
<text text-anchor="start" x="5" y="-384" font-family="Helvetica,sans-Serif" font-size="10.00" fill="#000000"> previousSibling</text>
<text text-anchor="start" x="5" y="-372" font-family="Helvetica,sans-Serif" font-size="10.00" fill="#000000"> nextSibling</text>
<polygon fill="none" stroke="#000000" points="0,-234 0,-364 122,-364 122,-234 0,-234"/>
<text text-anchor="start" x="5" y="-350" font-family="Helvetica,sans-Serif" font-size="10.00" fill="#000000"> hasChildNodes()</text>
<text text-anchor="start" x="5" y="-338" font-family="Helvetica,sans-Serif" font-size="10.00" fill="#000000"> normalize()</text>
<text text-anchor="start" x="5" y="-326" font-family="Helvetica,sans-Serif" font-size="10.00" fill="#000000"> cloneNode()</text>
<text text-anchor="start" x="5" y="-314" font-family="Helvetica,sans-Serif" font-size="10.00" fill="#000000"> lookupPrefix()</text>
<text text-anchor="start" x="5" y="-302" font-family="Helvetica,sans-Serif" font-size="10.00" fill="#000000"> lookupNamespaceURI()</text>
<text text-anchor="start" x="5" y="-290" font-family="Helvetica,sans-Serif" font-size="10.00" fill="#000000"> insertBefore()</text>
<text text-anchor="start" x="5" y="-278" font-family="Helvetica,sans-Serif" font-size="10.00" fill="#000000"> insertAfter()</text>
<text text-anchor="start" x="5" y="-266" font-family="Helvetica,sans-Serif" font-size="10.00" fill="#000000"> appendChild()</text>
<text text-anchor="start" x="5" y="-254" font-family="Helvetica,sans-Serif" font-size="10.00" fill="#000000"> replaceChild()</text>
<text text-anchor="start" x="5" y="-242" font-family="Helvetica,sans-Serif" font-size="10.00" fill="#000000"> removeChild()</text>
</a>
</g>
</g>
<!-- object&#45;&gt;XmlNode -->
<g id="edge1" class="edge">
<title>object&#45;&gt;XmlNode</title>
<path fill="none" stroke="#000000" d="M61,-541.5484C61,-533.5161 61,-524.975 61,-516.1675"/>
<polygon fill="#000000" stroke="#000000" points="57.5001,-541.7942 61,-551.7943 64.5001,-541.7943 57.5001,-541.7942"/>
</g>
<!-- XmlCharacterData -->
<g id="node3" class="node">
<title>XmlCharacterData</title>
<g id="a_node3"><a xlink:href="XmlCharacterData.md" xlink:title="XmlCharacterData">
<polygon fill="#ffffff" stroke="transparent" points="15,-72 15,-198 107,-198 107,-72 15,-72"/>
<polygon fill="none" stroke="#000000" points="15,-176 15,-198 107,-198 107,-176 15,-176"/>
<text text-anchor="start" x="19.8875" y="-184" font-family="Helvetica,sans-Serif" font-size="10.00" fill="#000000">XmlCharacterData</text>
<polygon fill="none" stroke="#000000" points="15,-142 15,-176 107,-176 107,-142 15,-142"/>
<text text-anchor="start" x="20" y="-162" font-family="Helvetica,sans-Serif" font-size="10.00" fill="#000000"> data</text>
<text text-anchor="start" x="20" y="-150" font-family="Helvetica,sans-Serif" font-size="10.00" fill="#000000"> length</text>
<polygon fill="none" stroke="#000000" points="15,-72 15,-142 107,-142 107,-72 15,-72"/>
<text text-anchor="start" x="20" y="-128" font-family="Helvetica,sans-Serif" font-size="10.00" fill="#000000"> substringData()</text>
<text text-anchor="start" x="20" y="-116" font-family="Helvetica,sans-Serif" font-size="10.00" fill="#000000"> appendData()</text>
<text text-anchor="start" x="20" y="-104" font-family="Helvetica,sans-Serif" font-size="10.00" fill="#000000"> insertData()</text>
<text text-anchor="start" x="20" y="-92" font-family="Helvetica,sans-Serif" font-size="10.00" fill="#000000"> deleteData()</text>
<text text-anchor="start" x="20" y="-80" font-family="Helvetica,sans-Serif" font-size="10.00" fill="#000000"> replaceData()</text>
</a>
</g>
</g>
<!-- XmlNode&#45;&gt;XmlCharacterData -->
<g id="edge2" class="edge">
<title>XmlNode&#45;&gt;XmlCharacterData</title>
<path fill="none" stroke="#000000" d="M61,-223.6362C61,-214.8425 61,-206.2905 61,-198.1877"/>
<polygon fill="#000000" stroke="#000000" points="57.5001,-223.6561 61,-233.6562 64.5001,-223.6562 57.5001,-223.6561"/>
</g>
<!-- XmlComment -->
<g id="node4" class="node">
<title>XmlComment</title>
<g id="a_node4"><a xlink:title="XmlComment">
<polygon fill="#d3d3d3" stroke="transparent" points="26,-7 26,-29 96,-29 96,-7 26,-7"/>
<polygon fill="none" stroke="#000000" points="26,-7 26,-29 96,-29 96,-7 26,-7"/>
<text text-anchor="start" x="30.725" y="-15" font-family="Helvetica,sans-Serif" font-size="10.00" fill="#000000">XmlComment</text>
</a>
</g>
</g>
<!-- XmlCharacterData&#45;&gt;XmlComment -->
<g id="edge3" class="edge">
<title>XmlCharacterData&#45;&gt;XmlComment</title>
<path fill="none" stroke="#000000" d="M61,-61.5226C61,-52.2872 61,-43.5857 61,-36.4261"/>
<polygon fill="#000000" stroke="#000000" points="57.5001,-61.7059 61,-71.706 64.5001,-61.706 57.5001,-61.7059"/>
</g>
</g>
</svg>
