<?xml version="1.0" encoding="UTF-8" standalone="no"?>
<!DOCTYPE svg PUBLIC "-//W3C//DTD SVG 1.1//EN"
 "http://www.w3.org/Graphics/SVG/1.1/DTD/svg11.dtd">
<!-- Generated by graphviz version 2.40.1 (20161225.0304)
 -->
<!-- Title: %0 Pages: 1 -->
<svg width="173pt" height="732pt"
 viewBox="0.00 0.00 173.00 732.00" xmlns="http://www.w3.org/2000/svg" xmlns:xlink="http://www.w3.org/1999/xlink">
<g id="graph0" class="graph" transform="scale(1 1) rotate(0) translate(4 728)">
<title>%0</title>
<polygon fill="#ffffff" stroke="transparent" points="-4,4 -4,-728 169,-728 169,4 -4,4"/>
<!-- object -->
<g id="node1" class="node">
<title>object</title>
<g id="a_node1"><a xlink:href="object.md" xlink:title="object">
<polygon fill="#ffffff" stroke="transparent" points="47.5,-632 47.5,-724 104.5,-724 104.5,-632 47.5,-632"/>
<polygon fill="none" stroke="#000000" points="48,-702 48,-724 105,-724 105,-702 48,-702"/>
<text text-anchor="start" x="63.1625" y="-710" font-family="Helvetica,sans-Serif" font-size="10.00" fill="#000000">object</text>
<polygon fill="none" stroke="#000000" points="48,-632 48,-702 105,-702 105,-632 48,-632"/>
<text text-anchor="start" x="53" y="-688" font-family="Helvetica,sans-Serif" font-size="10.00" fill="#000000"> dispose()</text>
<text text-anchor="start" x="53" y="-676" font-family="Helvetica,sans-Serif" font-size="10.00" fill="#000000"> equals()</text>
<text text-anchor="start" x="53" y="-664" font-family="Helvetica,sans-Serif" font-size="10.00" fill="#000000"> toString()</text>
<text text-anchor="start" x="53" y="-652" font-family="Helvetica,sans-Serif" font-size="10.00" fill="#000000"> toJSON()</text>
<text text-anchor="start" x="53" y="-640" font-family="Helvetica,sans-Serif" font-size="10.00" fill="#000000"> valueOf()</text>
</a>
</g>
</g>
<!-- XmlNode -->
<g id="node2" class="node">
<title>XmlNode</title>
<g id="a_node2"><a xlink:href="XmlNode.md" xlink:title="XmlNode">
<polygon fill="#ffffff" stroke="transparent" points="15,-314 15,-596 137,-596 137,-314 15,-314"/>
<polygon fill="none" stroke="#000000" points="15,-574 15,-596 137,-596 137,-574 15,-574"/>
<text text-anchor="start" x="55.4435" y="-582" font-family="Helvetica,sans-Serif" font-size="10.00" fill="#000000">XmlNode</text>
<polygon fill="none" stroke="#000000" points="15,-444 15,-574 137,-574 137,-444 15,-444"/>
<text text-anchor="start" x="20" y="-560" font-family="Helvetica,sans-Serif" font-size="10.00" fill="#000000"> nodeType</text>
<text text-anchor="start" x="20" y="-548" font-family="Helvetica,sans-Serif" font-size="10.00" fill="#000000"> nodeName</text>
<text text-anchor="start" x="20" y="-536" font-family="Helvetica,sans-Serif" font-size="10.00" fill="#000000"> nodeValue</text>
<text text-anchor="start" x="20" y="-524" font-family="Helvetica,sans-Serif" font-size="10.00" fill="#000000"> ownerDocument</text>
<text text-anchor="start" x="20" y="-512" font-family="Helvetica,sans-Serif" font-size="10.00" fill="#000000"> parentNode</text>
<text text-anchor="start" x="20" y="-500" font-family="Helvetica,sans-Serif" font-size="10.00" fill="#000000"> childNodes</text>
<text text-anchor="start" x="20" y="-488" font-family="Helvetica,sans-Serif" font-size="10.00" fill="#000000"> firstChild</text>
<text text-anchor="start" x="20" y="-476" font-family="Helvetica,sans-Serif" font-size="10.00" fill="#000000"> lastChild</text>
<text text-anchor="start" x="20" y="-464" font-family="Helvetica,sans-Serif" font-size="10.00" fill="#000000"> previousSibling</text>
<text text-anchor="start" x="20" y="-452" font-family="Helvetica,sans-Serif" font-size="10.00" fill="#000000"> nextSibling</text>
<polygon fill="none" stroke="#000000" points="15,-314 15,-444 137,-444 137,-314 15,-314"/>
<text text-anchor="start" x="20" y="-430" font-family="Helvetica,sans-Serif" font-size="10.00" fill="#000000"> hasChildNodes()</text>
<text text-anchor="start" x="20" y="-418" font-family="Helvetica,sans-Serif" font-size="10.00" fill="#000000"> normalize()</text>
<text text-anchor="start" x="20" y="-406" font-family="Helvetica,sans-Serif" font-size="10.00" fill="#000000"> cloneNode()</text>
<text text-anchor="start" x="20" y="-394" font-family="Helvetica,sans-Serif" font-size="10.00" fill="#000000"> lookupPrefix()</text>
<text text-anchor="start" x="20" y="-382" font-family="Helvetica,sans-Serif" font-size="10.00" fill="#000000"> lookupNamespaceURI()</text>
<text text-anchor="start" x="20" y="-370" font-family="Helvetica,sans-Serif" font-size="10.00" fill="#000000"> insertBefore()</text>
<text text-anchor="start" x="20" y="-358" font-family="Helvetica,sans-Serif" font-size="10.00" fill="#000000"> insertAfter()</text>
<text text-anchor="start" x="20" y="-346" font-family="Helvetica,sans-Serif" font-size="10.00" fill="#000000"> appendChild()</text>
<text text-anchor="start" x="20" y="-334" font-family="Helvetica,sans-Serif" font-size="10.00" fill="#000000"> replaceChild()</text>
<text text-anchor="start" x="20" y="-322" font-family="Helvetica,sans-Serif" font-size="10.00" fill="#000000"> removeChild()</text>
</a>
</g>
</g>
<!-- object&#45;&gt;XmlNode -->
<g id="edge1" class="edge">
<title>object&#45;&gt;XmlNode</title>
<path fill="none" stroke="#000000" d="M76,-621.5484C76,-613.5161 76,-604.975 76,-596.1675"/>
<polygon fill="#000000" stroke="#000000" points="72.5001,-621.7942 76,-631.7943 79.5001,-621.7943 72.5001,-621.7942"/>
</g>
<!-- XmlCharacterData -->
<g id="node3" class="node">
<title>XmlCharacterData</title>
<g id="a_node3"><a xlink:title="XmlCharacterData">
<polygon fill="#d3d3d3" stroke="transparent" points="30,-152 30,-278 122,-278 122,-152 30,-152"/>
<polygon fill="none" stroke="#000000" points="30,-256 30,-278 122,-278 122,-256 30,-256"/>
<text text-anchor="start" x="34.8875" y="-264" font-family="Helvetica,sans-Serif" font-size="10.00" fill="#000000">XmlCharacterData</text>
<polygon fill="none" stroke="#000000" points="30,-222 30,-256 122,-256 122,-222 30,-222"/>
<text text-anchor="start" x="35" y="-242" font-family="Helvetica,sans-Serif" font-size="10.00" fill="#000000"> data</text>
<text text-anchor="start" x="35" y="-230" font-family="Helvetica,sans-Serif" font-size="10.00" fill="#000000"> length</text>
<polygon fill="none" stroke="#000000" points="30,-152 30,-222 122,-222 122,-152 30,-152"/>
<text text-anchor="start" x="35" y="-208" font-family="Helvetica,sans-Serif" font-size="10.00" fill="#000000"> substringData()</text>
<text text-anchor="start" x="35" y="-196" font-family="Helvetica,sans-Serif" font-size="10.00" fill="#000000"> appendData()</text>
<text text-anchor="start" x="35" y="-184" font-family="Helvetica,sans-Serif" font-size="10.00" fill="#000000"> insertData()</text>
<text text-anchor="start" x="35" y="-172" font-family="Helvetica,sans-Serif" font-size="10.00" fill="#000000"> deleteData()</text>
<text text-anchor="start" x="35" y="-160" font-family="Helvetica,sans-Serif" font-size="10.00" fill="#000000"> replaceData()</text>
</a>
</g>
</g>
<!-- XmlNode&#45;&gt;XmlCharacterData -->
<g id="edge2" class="edge">
<title>XmlNode&#45;&gt;XmlCharacterData</title>
<path fill="none" stroke="#000000" d="M76,-303.6362C76,-294.8425 76,-286.2905 76,-278.1877"/>
<polygon fill="#000000" stroke="#000000" points="72.5001,-303.6561 76,-313.6562 79.5001,-303.6562 72.5001,-303.6561"/>
</g>
<!-- XmlComment -->
<g id="node4" class="node">
<title>XmlComment</title>
<g id="a_node4"><a xlink:href="XmlComment.md" xlink:title="XmlComment">
<polygon fill="#ffffff" stroke="transparent" points="0,-83 0,-105 70,-105 70,-83 0,-83"/>
<polygon fill="none" stroke="#000000" points="0,-83 0,-105 70,-105 70,-83 0,-83"/>
<text text-anchor="start" x="4.725" y="-91" font-family="Helvetica,sans-Serif" font-size="10.00" fill="#000000">XmlComment</text>
</a>
</g>
</g>
<!-- XmlCharacterData&#45;&gt;XmlComment -->
<g id="edge3" class="edge">
<title>XmlCharacterData&#45;&gt;XmlComment</title>
<path fill="none" stroke="#000000" d="M51.2191,-141.8661C47.4839,-130.8428 43.9472,-120.4051 41.1353,-112.1067"/>
<polygon fill="#000000" stroke="#000000" points="48.0152,-143.3172 54.5394,-151.665 54.645,-141.0707 48.0152,-143.3172"/>
</g>
<!-- XmlText -->
<g id="node5" class="node">
<title>XmlText</title>
<g id="a_node5"><a xlink:href="XmlText.md" xlink:title="XmlText">
<polygon fill="#ffffff" stroke="transparent" points="88.5,-72 88.5,-116 147.5,-116 147.5,-72 88.5,-72"/>
<polygon fill="none" stroke="#000000" points="89,-94 89,-116 148,-116 148,-94 89,-94"/>
<text text-anchor="start" x="100.168" y="-102" font-family="Helvetica,sans-Serif" font-size="10.00" fill="#000000">XmlText</text>
<polygon fill="none" stroke="#000000" points="89,-72 89,-94 148,-94 148,-72 89,-72"/>
<text text-anchor="start" x="94" y="-80" font-family="Helvetica,sans-Serif" font-size="10.00" fill="#000000"> splitText()</text>
</a>
</g>
</g>
<!-- XmlCharacterData&#45;&gt;XmlText -->
<g id="edge4" class="edge">
<title>XmlCharacterData&#45;&gt;XmlText</title>
<path fill="none" stroke="#000000" d="M101.2949,-142.1266C104.5697,-132.692 107.699,-123.6768 110.3454,-116.0526"/>
<polygon fill="#000000" stroke="#000000" points="97.9568,-141.0702 97.9841,-151.665 104.5697,-143.3656 97.9568,-141.0702"/>
</g>
<!-- XmlCDATASection -->
<g id="node6" class="node">
<title>XmlCDATASection</title>
<g id="a_node6"><a xlink:href="XmlCDATASection.md" xlink:title="XmlCDATASection">
<polygon fill="#ffffff" stroke="transparent" points="71,-7 71,-29 165,-29 165,-7 71,-7"/>
<polygon fill="none" stroke="#000000" points="71,-7 71,-29 165,-29 165,-7 71,-7"/>
<text text-anchor="start" x="75.777" y="-15" font-family="Helvetica,sans-Serif" font-size="10.00" fill="#000000">XmlCDATASection</text>
</a>
</g>
</g>
<!-- XmlText&#45;&gt;XmlCDATASection -->
<g id="edge5" class="edge">
<title>XmlText&#45;&gt;XmlCDATASection</title>
<path fill="none" stroke="#000000" d="M118,-61.4591C118,-52.8855 118,-43.9333 118,-36.3975"/>
<polygon fill="#000000" stroke="#000000" points="114.5001,-61.6085 118,-71.6086 121.5001,-61.6086 114.5001,-61.6085"/>
</g>
</g>
</svg>
