<?xml version="1.0" encoding="UTF-8" standalone="no"?>
<!DOCTYPE svg PUBLIC "-//W3C//DTD SVG 1.1//EN"
 "http://www.w3.org/Graphics/SVG/1.1/DTD/svg11.dtd">
<!-- Generated by graphviz version 2.40.1 (20161225.0304)
 -->
<!-- Title: %0 Pages: 1 -->
<svg width="155pt" height="722pt"
 viewBox="0.00 0.00 155.00 722.00" xmlns="http://www.w3.org/2000/svg" xmlns:xlink="http://www.w3.org/1999/xlink">
<g id="graph0" class="graph" transform="scale(1 1) rotate(0) translate(4 718)">
<title>%0</title>
<polygon fill="#ffffff" stroke="transparent" points="-4,4 -4,-718 151,-718 151,4 -4,4"/>
<!-- object -->
<g id="node1" class="node">
<title>object</title>
<g id="a_node1"><a xlink:href="object.md" xlink:title="object">
<polygon fill="#ffffff" stroke="transparent" points="45,-622 45,-714 102,-714 102,-622 45,-622"/>
<polygon fill="none" stroke="#000000" points="45.5,-692 45.5,-714 102.5,-714 102.5,-692 45.5,-692"/>
<text text-anchor="start" x="60.6625" y="-700" font-family="Helvetica,sans-Serif" font-size="10.00" fill="#000000">object</text>
<polygon fill="none" stroke="#000000" points="45.5,-622 45.5,-692 102.5,-692 102.5,-622 45.5,-622"/>
<text text-anchor="start" x="50.5" y="-678" font-family="Helvetica,sans-Serif" font-size="10.00" fill="#000000"> dispose()</text>
<text text-anchor="start" x="50.5" y="-666" font-family="Helvetica,sans-Serif" font-size="10.00" fill="#000000"> equals()</text>
<text text-anchor="start" x="50.5" y="-654" font-family="Helvetica,sans-Serif" font-size="10.00" fill="#000000"> toString()</text>
<text text-anchor="start" x="50.5" y="-642" font-family="Helvetica,sans-Serif" font-size="10.00" fill="#000000"> toJSON()</text>
<text text-anchor="start" x="50.5" y="-630" font-family="Helvetica,sans-Serif" font-size="10.00" fill="#000000"> valueOf()</text>
</a>
</g>
</g>
<!-- XmlNode -->
<g id="node2" class="node">
<title>XmlNode</title>
<g id="a_node2"><a xlink:href="XmlNode.md" xlink:title="XmlNode">
<polygon fill="#ffffff" stroke="transparent" points="12.5,-304 12.5,-586 134.5,-586 134.5,-304 12.5,-304"/>
<polygon fill="none" stroke="#000000" points="12.5,-564 12.5,-586 134.5,-586 134.5,-564 12.5,-564"/>
<text text-anchor="start" x="52.9435" y="-572" font-family="Helvetica,sans-Serif" font-size="10.00" fill="#000000">XmlNode</text>
<polygon fill="none" stroke="#000000" points="12.5,-434 12.5,-564 134.5,-564 134.5,-434 12.5,-434"/>
<text text-anchor="start" x="17.5" y="-550" font-family="Helvetica,sans-Serif" font-size="10.00" fill="#000000"> nodeType</text>
<text text-anchor="start" x="17.5" y="-538" font-family="Helvetica,sans-Serif" font-size="10.00" fill="#000000"> nodeName</text>
<text text-anchor="start" x="17.5" y="-526" font-family="Helvetica,sans-Serif" font-size="10.00" fill="#000000"> nodeValue</text>
<text text-anchor="start" x="17.5" y="-514" font-family="Helvetica,sans-Serif" font-size="10.00" fill="#000000"> ownerDocument</text>
<text text-anchor="start" x="17.5" y="-502" font-family="Helvetica,sans-Serif" font-size="10.00" fill="#000000"> parentNode</text>
<text text-anchor="start" x="17.5" y="-490" font-family="Helvetica,sans-Serif" font-size="10.00" fill="#000000"> childNodes</text>
<text text-anchor="start" x="17.5" y="-478" font-family="Helvetica,sans-Serif" font-size="10.00" fill="#000000"> firstChild</text>
<text text-anchor="start" x="17.5" y="-466" font-family="Helvetica,sans-Serif" font-size="10.00" fill="#000000"> lastChild</text>
<text text-anchor="start" x="17.5" y="-454" font-family="Helvetica,sans-Serif" font-size="10.00" fill="#000000"> previousSibling</text>
<text text-anchor="start" x="17.5" y="-442" font-family="Helvetica,sans-Serif" font-size="10.00" fill="#000000"> nextSibling</text>
<polygon fill="none" stroke="#000000" points="12.5,-304 12.5,-434 134.5,-434 134.5,-304 12.5,-304"/>
<text text-anchor="start" x="17.5" y="-420" font-family="Helvetica,sans-Serif" font-size="10.00" fill="#000000"> hasChildNodes()</text>
<text text-anchor="start" x="17.5" y="-408" font-family="Helvetica,sans-Serif" font-size="10.00" fill="#000000"> normalize()</text>
<text text-anchor="start" x="17.5" y="-396" font-family="Helvetica,sans-Serif" font-size="10.00" fill="#000000"> cloneNode()</text>
<text text-anchor="start" x="17.5" y="-384" font-family="Helvetica,sans-Serif" font-size="10.00" fill="#000000"> lookupPrefix()</text>
<text text-anchor="start" x="17.5" y="-372" font-family="Helvetica,sans-Serif" font-size="10.00" fill="#000000"> lookupNamespaceURI()</text>
<text text-anchor="start" x="17.5" y="-360" font-family="Helvetica,sans-Serif" font-size="10.00" fill="#000000"> insertBefore()</text>
<text text-anchor="start" x="17.5" y="-348" font-family="Helvetica,sans-Serif" font-size="10.00" fill="#000000"> insertAfter()</text>
<text text-anchor="start" x="17.5" y="-336" font-family="Helvetica,sans-Serif" font-size="10.00" fill="#000000"> appendChild()</text>
<text text-anchor="start" x="17.5" y="-324" font-family="Helvetica,sans-Serif" font-size="10.00" fill="#000000"> replaceChild()</text>
<text text-anchor="start" x="17.5" y="-312" font-family="Helvetica,sans-Serif" font-size="10.00" fill="#000000"> removeChild()</text>
</a>
</g>
</g>
<!-- object&#45;&gt;XmlNode -->
<g id="edge1" class="edge">
<title>object&#45;&gt;XmlNode</title>
<path fill="none" stroke="#000000" d="M73.5,-611.5484C73.5,-603.5161 73.5,-594.975 73.5,-586.1675"/>
<polygon fill="#000000" stroke="#000000" points="70.0001,-611.7942 73.5,-621.7943 77.0001,-611.7943 70.0001,-611.7942"/>
</g>
<!-- XmlDocument -->
<g id="node3" class="node">
<title>XmlDocument</title>
<g id="a_node3"><a xlink:title="XmlDocument">
<polygon fill="#d3d3d3" stroke="transparent" points="0,0 0,-268 147,-268 147,0 0,0"/>
<polygon fill="none" stroke="#000000" points=".5,-246 .5,-268 147.5,-268 147.5,-246 .5,-246"/>
<text text-anchor="start" x="42.61" y="-254" font-family="Helvetica,sans-Serif" font-size="10.00" fill="#000000">XmlDocument</text>
<polygon fill="none" stroke="#000000" points=".5,-224 .5,-246 147.5,-246 147.5,-224 .5,-224"/>
<text text-anchor="start" x="5.5" y="-232" font-family="Helvetica,sans-Serif" font-size="10.00" fill="#000000">  new XmlDocument()</text>
<polygon fill="none" stroke="#000000" points=".5,-118 .5,-224 147.5,-224 147.5,-118 .5,-118"/>
<text text-anchor="start" x="5.5" y="-210" font-family="Helvetica,sans-Serif" font-size="10.00" fill="#000000"> inputEncoding</text>
<text text-anchor="start" x="5.5" y="-198" font-family="Helvetica,sans-Serif" font-size="10.00" fill="#000000"> xmlStandalone</text>
<text text-anchor="start" x="5.5" y="-186" font-family="Helvetica,sans-Serif" font-size="10.00" fill="#000000"> xmlVersion</text>
<text text-anchor="start" x="5.5" y="-174" font-family="Helvetica,sans-Serif" font-size="10.00" fill="#000000"> doctype</text>
<text text-anchor="start" x="5.5" y="-162" font-family="Helvetica,sans-Serif" font-size="10.00" fill="#000000"> documentElement</text>
<text text-anchor="start" x="5.5" y="-150" font-family="Helvetica,sans-Serif" font-size="10.00" fill="#000000"> head</text>
<text text-anchor="start" x="5.5" y="-138" font-family="Helvetica,sans-Serif" font-size="10.00" fill="#000000"> title</text>
<text text-anchor="start" x="5.5" y="-126" font-family="Helvetica,sans-Serif" font-size="10.00" fill="#000000"> body</text>
<polygon fill="none" stroke="#000000" points=".5,0 .5,-118 147.5,-118 147.5,0 .5,0"/>
<text text-anchor="start" x="5.5" y="-104" font-family="Helvetica,sans-Serif" font-size="10.00" fill="#000000"> load()</text>
<text text-anchor="start" x="5.5" y="-92" font-family="Helvetica,sans-Serif" font-size="10.00" fill="#000000"> getElementsByTagName()</text>
<text text-anchor="start" x="5.5" y="-80" font-family="Helvetica,sans-Serif" font-size="10.00" fill="#000000"> getElementsByTagNameNS()</text>
<text text-anchor="start" x="5.5" y="-68" font-family="Helvetica,sans-Serif" font-size="10.00" fill="#000000"> createElement()</text>
<text text-anchor="start" x="5.5" y="-56" font-family="Helvetica,sans-Serif" font-size="10.00" fill="#000000"> createElementNS()</text>
<text text-anchor="start" x="5.5" y="-44" font-family="Helvetica,sans-Serif" font-size="10.00" fill="#000000"> createTextNode()</text>
<text text-anchor="start" x="5.5" y="-32" font-family="Helvetica,sans-Serif" font-size="10.00" fill="#000000"> createComment()</text>
<text text-anchor="start" x="5.5" y="-20" font-family="Helvetica,sans-Serif" font-size="10.00" fill="#000000"> createCDATASection()</text>
<text text-anchor="start" x="5.5" y="-8" font-family="Helvetica,sans-Serif" font-size="10.00" fill="#000000"> createProcessingInstruction()</text>
</a>
</g>
</g>
<!-- XmlNode&#45;&gt;XmlDocument -->
<g id="edge2" class="edge">
<title>XmlNode&#45;&gt;XmlDocument</title>
<path fill="none" stroke="#000000" d="M73.5,-293.427C73.5,-285.0711 73.5,-276.7001 73.5,-268.4106"/>
<polygon fill="#000000" stroke="#000000" points="70.0001,-293.6053 73.5,-303.6053 77.0001,-293.6053 70.0001,-293.6053"/>
</g>
</g>
</svg>
