<?xml version="1.0" encoding="UTF-8" standalone="no"?>
<!DOCTYPE svg PUBLIC "-//W3C//DTD SVG 1.1//EN"
 "http://www.w3.org/Graphics/SVG/1.1/DTD/svg11.dtd">
<!-- Generated by graphviz version 2.40.1 (20161225.0304)
 -->
<!-- Title: %0 Pages: 1 -->
<svg width="130pt" height="510pt"
 viewBox="0.00 0.00 130.00 510.00" xmlns="http://www.w3.org/2000/svg" xmlns:xlink="http://www.w3.org/1999/xlink">
<g id="graph0" class="graph" transform="scale(1 1) rotate(0) translate(4 506)">
<title>%0</title>
<polygon fill="#ffffff" stroke="transparent" points="-4,4 -4,-506 126,-506 126,4 -4,4"/>
<!-- object -->
<g id="node1" class="node">
<title>object</title>
<g id="a_node1"><a xlink:href="object.md" xlink:title="object">
<polygon fill="#ffffff" stroke="transparent" points="32.5,-410 32.5,-502 89.5,-502 89.5,-410 32.5,-410"/>
<polygon fill="none" stroke="#000000" points="33,-480 33,-502 90,-502 90,-480 33,-480"/>
<text text-anchor="start" x="48.1625" y="-488" font-family="Helvetica,sans-Serif" font-size="10.00" fill="#000000">object</text>
<polygon fill="none" stroke="#000000" points="33,-410 33,-480 90,-480 90,-410 33,-410"/>
<text text-anchor="start" x="38" y="-466" font-family="Helvetica,sans-Serif" font-size="10.00" fill="#000000"> dispose()</text>
<text text-anchor="start" x="38" y="-454" font-family="Helvetica,sans-Serif" font-size="10.00" fill="#000000"> equals()</text>
<text text-anchor="start" x="38" y="-442" font-family="Helvetica,sans-Serif" font-size="10.00" fill="#000000"> toString()</text>
<text text-anchor="start" x="38" y="-430" font-family="Helvetica,sans-Serif" font-size="10.00" fill="#000000"> toJSON()</text>
<text text-anchor="start" x="38" y="-418" font-family="Helvetica,sans-Serif" font-size="10.00" fill="#000000"> valueOf()</text>
</a>
</g>
</g>
<!-- XmlNode -->
<g id="node2" class="node">
<title>XmlNode</title>
<g id="a_node2"><a xlink:href="XmlNode.md" xlink:title="XmlNode">
<polygon fill="#ffffff" stroke="transparent" points="0,-92 0,-374 122,-374 122,-92 0,-92"/>
<polygon fill="none" stroke="#000000" points="0,-352 0,-374 122,-374 122,-352 0,-352"/>
<text text-anchor="start" x="40.4435" y="-360" font-family="Helvetica,sans-Serif" font-size="10.00" fill="#000000">XmlNode</text>
<polygon fill="none" stroke="#000000" points="0,-222 0,-352 122,-352 122,-222 0,-222"/>
<text text-anchor="start" x="5" y="-338" font-family="Helvetica,sans-Serif" font-size="10.00" fill="#000000"> nodeType</text>
<text text-anchor="start" x="5" y="-326" font-family="Helvetica,sans-Serif" font-size="10.00" fill="#000000"> nodeName</text>
<text text-anchor="start" x="5" y="-314" font-family="Helvetica,sans-Serif" font-size="10.00" fill="#000000"> nodeValue</text>
<text text-anchor="start" x="5" y="-302" font-family="Helvetica,sans-Serif" font-size="10.00" fill="#000000"> ownerDocument</text>
<text text-anchor="start" x="5" y="-290" font-family="Helvetica,sans-Serif" font-size="10.00" fill="#000000"> parentNode</text>
<text text-anchor="start" x="5" y="-278" font-family="Helvetica,sans-Serif" font-size="10.00" fill="#000000"> childNodes</text>
<text text-anchor="start" x="5" y="-266" font-family="Helvetica,sans-Serif" font-size="10.00" fill="#000000"> firstChild</text>
<text text-anchor="start" x="5" y="-254" font-family="Helvetica,sans-Serif" font-size="10.00" fill="#000000"> lastChild</text>
<text text-anchor="start" x="5" y="-242" font-family="Helvetica,sans-Serif" font-size="10.00" fill="#000000"> previousSibling</text>
<text text-anchor="start" x="5" y="-230" font-family="Helvetica,sans-Serif" font-size="10.00" fill="#000000"> nextSibling</text>
<polygon fill="none" stroke="#000000" points="0,-92 0,-222 122,-222 122,-92 0,-92"/>
<text text-anchor="start" x="5" y="-208" font-family="Helvetica,sans-Serif" font-size="10.00" fill="#000000"> hasChildNodes()</text>
<text text-anchor="start" x="5" y="-196" font-family="Helvetica,sans-Serif" font-size="10.00" fill="#000000"> normalize()</text>
<text text-anchor="start" x="5" y="-184" font-family="Helvetica,sans-Serif" font-size="10.00" fill="#000000"> cloneNode()</text>
<text text-anchor="start" x="5" y="-172" font-family="Helvetica,sans-Serif" font-size="10.00" fill="#000000"> lookupPrefix()</text>
<text text-anchor="start" x="5" y="-160" font-family="Helvetica,sans-Serif" font-size="10.00" fill="#000000"> lookupNamespaceURI()</text>
<text text-anchor="start" x="5" y="-148" font-family="Helvetica,sans-Serif" font-size="10.00" fill="#000000"> insertBefore()</text>
<text text-anchor="start" x="5" y="-136" font-family="Helvetica,sans-Serif" font-size="10.00" fill="#000000"> insertAfter()</text>
<text text-anchor="start" x="5" y="-124" font-family="Helvetica,sans-Serif" font-size="10.00" fill="#000000"> appendChild()</text>
<text text-anchor="start" x="5" y="-112" font-family="Helvetica,sans-Serif" font-size="10.00" fill="#000000"> replaceChild()</text>
<text text-anchor="start" x="5" y="-100" font-family="Helvetica,sans-Serif" font-size="10.00" fill="#000000"> removeChild()</text>
</a>
</g>
</g>
<!-- object&#45;&gt;XmlNode -->
<g id="edge1" class="edge">
<title>object&#45;&gt;XmlNode</title>
<path fill="none" stroke="#000000" d="M61,-399.5484C61,-391.5161 61,-382.975 61,-374.1675"/>
<polygon fill="#000000" stroke="#000000" points="57.5001,-399.7942 61,-409.7943 64.5001,-399.7943 57.5001,-399.7942"/>
</g>
<!-- XmlProcessingInstruction -->
<g id="node3" class="node">
<title>XmlProcessingInstruction</title>
<g id="a_node3"><a xlink:title="XmlProcessingInstruction">
<polygon fill="#d3d3d3" stroke="transparent" points="0,0 0,-56 122,-56 122,0 0,0"/>
<polygon fill="none" stroke="#000000" points="0,-34 0,-56 122,-56 122,-34 0,-34"/>
<text text-anchor="start" x="4.6045" y="-42" font-family="Helvetica,sans-Serif" font-size="10.00" fill="#000000">XmlProcessingInstruction</text>
<polygon fill="none" stroke="#000000" points="0,0 0,-34 122,-34 122,0 0,0"/>
<text text-anchor="start" x="5" y="-20" font-family="Helvetica,sans-Serif" font-size="10.00" fill="#000000"> target</text>
<text text-anchor="start" x="5" y="-8" font-family="Helvetica,sans-Serif" font-size="10.00" fill="#000000"> data</text>
</a>
</g>
</g>
<!-- XmlNode&#45;&gt;XmlProcessingInstruction -->
<g id="edge2" class="edge">
<title>XmlNode&#45;&gt;XmlProcessingInstruction</title>
<path fill="none" stroke="#000000" d="M61,-81.4713C61,-72.2408 61,-63.7043 61,-56.2858"/>
<polygon fill="#000000" stroke="#000000" points="57.5001,-81.7395 61,-91.7396 64.5001,-81.7396 57.5001,-81.7395"/>
</g>
</g>
</svg>
