<?xml version="1.0" encoding="UTF-8" standalone="no"?>
<!DOCTYPE svg PUBLIC "-//W3C//DTD SVG 1.1//EN"
 "http://www.w3.org/Graphics/SVG/1.1/DTD/svg11.dtd">
<!-- Generated by graphviz version 2.40.1 (20161225.0304)
 -->
<!-- Title: %0 Pages: 1 -->
<svg width="102pt" height="262pt"
 viewBox="0.00 0.00 102.34 262.00" xmlns="http://www.w3.org/2000/svg" xmlns:xlink="http://www.w3.org/1999/xlink">
<g id="graph0" class="graph" transform="scale(1 1) rotate(0) translate(4 258)">
<title>%0</title>
<polygon fill="#ffffff" stroke="transparent" points="-4,4 -4,-258 98.337,-258 98.337,4 -4,4"/>
<!-- object -->
<g id="node1" class="node">
<title>object</title>
<g id="a_node1"><a xlink:href="object.md" xlink:title="object">
<polygon fill="#ffffff" stroke="#000000" points="18.337,-165.5 18.337,-253.5 76,-253.5 76,-165.5 18.337,-165.5"/>
<text text-anchor="middle" x="47.1685" y="-240.5" font-family="Helvetica,sans-Serif" font-size="10.00" fill="#000000">object</text>
<polyline fill="none" stroke="#000000" points="18.337,-233.5 76,-233.5 "/>
<text text-anchor="start" x="26.337" y="-220.5" font-family="Helvetica,sans-Serif" font-size="10.00" fill="#000000">dispose()</text>
<text text-anchor="start" x="26.337" y="-208.5" font-family="Helvetica,sans-Serif" font-size="10.00" fill="#000000">equals()</text>
<text text-anchor="start" x="26.337" y="-196.5" font-family="Helvetica,sans-Serif" font-size="10.00" fill="#000000">toString()</text>
<text text-anchor="start" x="26.337" y="-184.5" font-family="Helvetica,sans-Serif" font-size="10.00" fill="#000000">toJSON()</text>
<text text-anchor="start" x="26.337" y="-172.5" font-family="Helvetica,sans-Serif" font-size="10.00" fill="#000000">valueOf()</text>
</a>
</g>
</g>
<!-- ZmqSocket -->
<g id="node2" class="node">
<title>ZmqSocket</title>
<g id="a_node2"><a xlink:title="ZmqSocket">
<polygon fill="#d3d3d3" stroke="#000000" points="0,-.5 0,-128.5 94.337,-128.5 94.337,-.5 0,-.5"/>
<text text-anchor="middle" x="47.1685" y="-115.5" font-family="Helvetica,sans-Serif" font-size="10.00" fill="#000000">ZmqSocket</text>
<polyline fill="none" stroke="#000000" points="0,-108.5 94.337,-108.5 "/>
<text text-anchor="start" x="8" y="-95.5" font-family="Helvetica,sans-Serif" font-size="10.00" fill="#000000">new ZmqSocket()</text>
<polyline fill="none" stroke="#000000" points="0,-88.5 94.337,-88.5 "/>
<text text-anchor="start" x="8" y="-75.5" font-family="Helvetica,sans-Serif" font-size="10.00" fill="#000000">type</text>
<polyline fill="none" stroke="#000000" points="0,-68.5 94.337,-68.5 "/>
<text text-anchor="start" x="8" y="-55.5" font-family="Helvetica,sans-Serif" font-size="10.00" fill="#000000">bind()</text>
<text text-anchor="start" x="8" y="-43.5" font-family="Helvetica,sans-Serif" font-size="10.00" fill="#000000">connect()</text>
<text text-anchor="start" x="8" y="-31.5" font-family="Helvetica,sans-Serif" font-size="10.00" fill="#000000">recv()</text>
<text text-anchor="start" x="8" y="-19.5" font-family="Helvetica,sans-Serif" font-size="10.00" fill="#000000">send()</text>
<text text-anchor="start" x="8" y="-7.5" font-family="Helvetica,sans-Serif" font-size="10.00" fill="#000000">close()</text>
</a>
</g>
</g>
<!-- object&#45;&gt;ZmqSocket -->
<g id="edge1" class="edge">
<title>object&#45;&gt;ZmqSocket</title>
<path fill="none" stroke="#000000" d="M47.1685,-155.2025C47.1685,-146.5059 47.1685,-137.4356 47.1685,-128.5377"/>
<polygon fill="#000000" stroke="#000000" points="43.6686,-155.2073 47.1685,-165.2073 50.6686,-155.2074 43.6686,-155.2073"/>
</g>
</g>
</svg>
