<?xml version="1.0" encoding="UTF-8" standalone="no"?>
<!DOCTYPE svg PUBLIC "-//W3C//DTD SVG 1.1//EN"
 "http://www.w3.org/Graphics/SVG/1.1/DTD/svg11.dtd">
<!-- Generated by graphviz version 2.40.1 (20161225.0304)
 -->
<!-- Title: Fiber Pages: 1 -->
<svg width="74pt" height="204pt"
 viewBox="0.00 0.00 74.29 204.00" xmlns="http://www.w3.org/2000/svg" xmlns:xlink="http://www.w3.org/1999/xlink">
<g id="graph0" class="graph" transform="scale(1 1) rotate(0) translate(4 200)">
<title>Fiber</title>
<polygon fill="#ffffff" stroke="transparent" points="-4,4 -4,-200 70.2881,-200 70.2881,4 -4,4"/>
<!-- Node0 -->
<g id="node1" class="node">
<title>Node0</title>
<polygon fill="#bfbfbf" stroke="#000000" points="1.3794,-.5 1.3794,-64.5 64.9087,-64.5 64.9087,-.5 1.3794,-.5"/>
<text text-anchor="middle" x="33.144" y="-52.5" font-family="Helvetica,sans-Serif" font-size="10.00" fill="#000000">Fiber</text>
<polyline fill="none" stroke="#000000" points="1.3794,-46.5 64.9087,-46.5 "/>
<text text-anchor="start" x="9.3794" y="-34.5" font-family="Helvetica,sans-Serif" font-size="10.00" fill="#000000">+ caller</text>
<text text-anchor="start" x="9.3794" y="-24.5" font-family="Helvetica,sans-Serif" font-size="10.00" fill="#000000">+ traceInfo</text>
<polyline fill="none" stroke="#000000" points="1.3794,-18.5 64.9087,-18.5 "/>
<text text-anchor="start" x="9.3794" y="-6.5" font-family="Helvetica,sans-Serif" font-size="10.00" fill="#000000">+ join()</text>
</g>
<!-- Node1 -->
<g id="node2" class="node">
<title>Node1</title>
<g id="a_node2"><a xlink:href="../../db/d38/interfaceobject.html" target="_top" xlink:title="基础对象，所有对象均继承于此 ">
<polygon fill="#ffffff" stroke="#000000" points="0,-101.5 0,-195.5 66.2881,-195.5 66.2881,-101.5 0,-101.5"/>
<text text-anchor="middle" x="33.144" y="-183.5" font-family="Helvetica,sans-Serif" font-size="10.00" fill="#000000">object</text>
<polyline fill="none" stroke="#000000" points="0,-177.5 66.2881,-177.5 "/>
<text text-anchor="middle" x="33.144" y="-165.5" font-family="Helvetica,sans-Serif" font-size="10.00" fill="#000000"> </text>
<polyline fill="none" stroke="#000000" points="0,-159.5 66.2881,-159.5 "/>
<text text-anchor="start" x="8" y="-147.5" font-family="Helvetica,sans-Serif" font-size="10.00" fill="#000000">+ dispose()</text>
<text text-anchor="start" x="8" y="-137.5" font-family="Helvetica,sans-Serif" font-size="10.00" fill="#000000">+ equals()</text>
<text text-anchor="start" x="8" y="-127.5" font-family="Helvetica,sans-Serif" font-size="10.00" fill="#000000">+ toString()</text>
<text text-anchor="start" x="8" y="-117.5" font-family="Helvetica,sans-Serif" font-size="10.00" fill="#000000">+ toJSON()</text>
<text text-anchor="start" x="8" y="-107.5" font-family="Helvetica,sans-Serif" font-size="10.00" fill="#000000">+ valueOf()</text>
</a>
</g>
</g>
<!-- Node1&#45;&gt;Node0 -->
<g id="edge1" class="edge">
<title>Node1&#45;&gt;Node0</title>
<path fill="none" stroke="#191970" d="M33.144,-91.1299C33.144,-82.0561 33.144,-72.9618 33.144,-64.7354"/>
<polygon fill="none" stroke="#191970" points="29.6441,-91.3183 33.144,-101.3184 36.6441,-91.3184 29.6441,-91.3183"/>
</g>
</g>
</svg>
