<?xml version="1.0" encoding="UTF-8" standalone="no"?>
<!DOCTYPE svg PUBLIC "-//W3C//DTD SVG 1.1//EN"
 "http://www.w3.org/Graphics/SVG/1.1/DTD/svg11.dtd">
<!-- Generated by graphviz version 2.38.0 (20140413.2041)
 -->
<!-- Title: HandlerEx Pages: 1 -->
<svg width="252pt" height="416pt"
 viewBox="0.00 0.00 251.62 416.00" xmlns="http://www.w3.org/2000/svg" xmlns:xlink="http://www.w3.org/1999/xlink">
<g id="graph0" class="graph" transform="scale(1 1) rotate(0) translate(4 412)">
<title>HandlerEx</title>
<polygon fill="white" stroke="none" points="-4,4 -4,-412 247.624,-412 247.624,4 -4,4"/>
<!-- Node1 -->
<g id="node1" class="node"><title>Node1</title>
<polygon fill="#bfbfbf" stroke="black" points="87.2388,-121.5 87.2388,-185.5 150.753,-185.5 150.753,-121.5 87.2388,-121.5"/>
<text text-anchor="middle" x="118.996" y="-173.5" font-family="Helvetica,sans-Serif" font-size="10.00">HandlerEx</text>
<polyline fill="none" stroke="black" points="87.2388,-167.5 150.753,-167.5 "/>
<text text-anchor="start" x="95.2388" y="-155.5" font-family="Helvetica,sans-Serif" font-size="10.00">+ handler</text>
<text text-anchor="start" x="95.2388" y="-145.5" font-family="Helvetica,sans-Serif" font-size="10.00">+ stats</text>
<polyline fill="none" stroke="black" points="87.2388,-139.5 150.753,-139.5 "/>
<text text-anchor="start" x="95.2388" y="-127.5" font-family="Helvetica,sans-Serif" font-size="10.00">+ onerror()</text>
</g>
<!-- Node4 -->
<g id="node4" class="node"><title>Node4</title>
<g id="a_node4"><a xlink:href="../../d6/d18/interfaceHttpHandler.html" target="_top" xlink:title="http 协议转换处理器 ">
<polygon fill="white" stroke="black" points="0,-0.5 0,-84.5 107.992,-84.5 107.992,-0.5 0,-0.5"/>
<text text-anchor="middle" x="53.9961" y="-72.5" font-family="Helvetica,sans-Serif" font-size="10.00">HttpHandler</text>
<polyline fill="none" stroke="black" points="0,-66.5 107.992,-66.5 "/>
<text text-anchor="start" x="8" y="-54.5" font-family="Helvetica,sans-Serif" font-size="10.00">+ crossDomain</text>
<text text-anchor="start" x="8" y="-44.5" font-family="Helvetica,sans-Serif" font-size="10.00">+ forceGZIP</text>
<text text-anchor="start" x="8" y="-34.5" font-family="Helvetica,sans-Serif" font-size="10.00">+ maxHeadersCount</text>
<text text-anchor="start" x="8" y="-24.5" font-family="Helvetica,sans-Serif" font-size="10.00">+ maxUploadSize</text>
<polyline fill="none" stroke="black" points="0,-18.5 107.992,-18.5 "/>
<text text-anchor="start" x="8" y="-6.5" font-family="Helvetica,sans-Serif" font-size="10.00">+ HttpHandler()</text>
</a>
</g>
</g>
<!-- Node1&#45;&gt;Node4 -->
<g id="edge3" class="edge"><title>Node1&#45;&gt;Node4</title>
<path fill="none" stroke="midnightblue" d="M95.0851,-112.403C89.6612,-103.308 83.8935,-93.6356 78.4475,-84.5032"/>
<polygon fill="none" stroke="midnightblue" points="92.2418,-114.469 100.37,-121.265 98.254,-110.884 92.2418,-114.469"/>
</g>
<!-- Node5 -->
<g id="node5" class="node"><title>Node5</title>
<g id="a_node5"><a xlink:href="../../da/d20/interfaceWebSocketHandler.html" target="_top" xlink:title="WebSocket 包协议转换处理器 ">
<polygon fill="white" stroke="black" points="126.369,-15.5 126.369,-69.5 243.624,-69.5 243.624,-15.5 126.369,-15.5"/>
<text text-anchor="middle" x="184.996" y="-57.5" font-family="Helvetica,sans-Serif" font-size="10.00">WebSocketHandler</text>
<polyline fill="none" stroke="black" points="126.369,-51.5 243.624,-51.5 "/>
<text text-anchor="start" x="134.369" y="-39.5" font-family="Helvetica,sans-Serif" font-size="10.00">+ maxSize</text>
<polyline fill="none" stroke="black" points="126.369,-33.5 243.624,-33.5 "/>
<text text-anchor="start" x="134.369" y="-21.5" font-family="Helvetica,sans-Serif" font-size="10.00">+ WebSocketHandler()</text>
</a>
</g>
</g>
<!-- Node1&#45;&gt;Node5 -->
<g id="edge4" class="edge"><title>Node1&#45;&gt;Node5</title>
<path fill="none" stroke="midnightblue" d="M143.177,-112.565C151.857,-98.2293 161.416,-82.4421 169.202,-69.5844"/>
<polygon fill="none" stroke="midnightblue" points="140.095,-110.898 137.909,-121.265 146.083,-114.524 140.095,-110.898"/>
</g>
<!-- Node2 -->
<g id="node2" class="node"><title>Node2</title>
<g id="a_node2"><a xlink:href="../../da/d85/interfaceHandler.html" target="_top" xlink:title="消息处理器接口 ">
<polygon fill="white" stroke="black" points="88.9038,-222.5 88.9038,-276.5 149.088,-276.5 149.088,-222.5 88.9038,-222.5"/>
<text text-anchor="middle" x="118.996" y="-264.5" font-family="Helvetica,sans-Serif" font-size="10.00">Handler</text>
<polyline fill="none" stroke="black" points="88.9038,-258.5 149.088,-258.5 "/>
<text text-anchor="middle" x="118.996" y="-246.5" font-family="Helvetica,sans-Serif" font-size="10.00"> </text>
<polyline fill="none" stroke="black" points="88.9038,-240.5 149.088,-240.5 "/>
<text text-anchor="start" x="96.9038" y="-228.5" font-family="Helvetica,sans-Serif" font-size="10.00">+ invoke()</text>
</a>
</g>
</g>
<!-- Node2&#45;&gt;Node1 -->
<g id="edge1" class="edge"><title>Node2&#45;&gt;Node1</title>
<path fill="none" stroke="midnightblue" d="M118.996,-212.284C118.996,-203.46 118.996,-194.1 118.996,-185.542"/>
<polygon fill="none" stroke="midnightblue" points="115.496,-212.316 118.996,-222.316 122.496,-212.316 115.496,-212.316"/>
</g>
<!-- Node3 -->
<g id="node3" class="node"><title>Node3</title>
<g id="a_node3"><a xlink:href="../../db/d38/interfaceobject.html" target="_top" xlink:title="基础对象，所有对象均继承于此 ">
<polygon fill="white" stroke="black" points="85.8521,-313.5 85.8521,-407.5 152.14,-407.5 152.14,-313.5 85.8521,-313.5"/>
<text text-anchor="middle" x="118.996" y="-395.5" font-family="Helvetica,sans-Serif" font-size="10.00">object</text>
<polyline fill="none" stroke="black" points="85.8521,-389.5 152.14,-389.5 "/>
<text text-anchor="middle" x="118.996" y="-377.5" font-family="Helvetica,sans-Serif" font-size="10.00"> </text>
<polyline fill="none" stroke="black" points="85.8521,-371.5 152.14,-371.5 "/>
<text text-anchor="start" x="93.8521" y="-359.5" font-family="Helvetica,sans-Serif" font-size="10.00">+ dispose()</text>
<text text-anchor="start" x="93.8521" y="-349.5" font-family="Helvetica,sans-Serif" font-size="10.00">+ equals()</text>
<text text-anchor="start" x="93.8521" y="-339.5" font-family="Helvetica,sans-Serif" font-size="10.00">+ toString()</text>
<text text-anchor="start" x="93.8521" y="-329.5" font-family="Helvetica,sans-Serif" font-size="10.00">+ toJSON()</text>
<text text-anchor="start" x="93.8521" y="-319.5" font-family="Helvetica,sans-Serif" font-size="10.00">+ valueOf()</text>
</a>
</g>
</g>
<!-- Node3&#45;&gt;Node2 -->
<g id="edge2" class="edge"><title>Node3&#45;&gt;Node2</title>
<path fill="none" stroke="midnightblue" d="M118.996,-303.212C118.996,-293.916 118.996,-284.69 118.996,-276.617"/>
<polygon fill="none" stroke="midnightblue" points="115.496,-303.274 118.996,-313.274 122.496,-303.274 115.496,-303.274"/>
</g>
</g>
</svg>
