<?xml version="1.0" encoding="UTF-8" standalone="no"?>
<!DOCTYPE svg PUBLIC "-//W3C//DTD SVG 1.1//EN"
 "http://www.w3.org/Graphics/SVG/1.1/DTD/svg11.dtd">
<!-- Generated by graphviz version 2.40.1 (20161225.0304)
 -->
<!-- Title: HandlerEx Pages: 1 -->
<svg width="252pt" height="446pt"
 viewBox="0.00 0.00 251.62 446.00" xmlns="http://www.w3.org/2000/svg" xmlns:xlink="http://www.w3.org/1999/xlink">
<g id="graph0" class="graph" transform="scale(1 1) rotate(0) translate(4 442)">
<title>HandlerEx</title>
<polygon fill="#ffffff" stroke="transparent" points="-4,4 -4,-442 247.6235,-442 247.6235,4 -4,4"/>
<!-- Node0 -->
<g id="node1" class="node">
<title>Node0</title>
<polygon fill="#bfbfbf" stroke="#000000" points="87.2388,-121.5 87.2388,-185.5 150.7534,-185.5 150.7534,-121.5 87.2388,-121.5"/>
<text text-anchor="middle" x="118.9961" y="-173.5" font-family="Helvetica,sans-Serif" font-size="10.00" fill="#000000">HandlerEx</text>
<polyline fill="none" stroke="#000000" points="87.2388,-167.5 150.7534,-167.5 "/>
<text text-anchor="start" x="95.2388" y="-155.5" font-family="Helvetica,sans-Serif" font-size="10.00" fill="#000000">+ handler</text>
<text text-anchor="start" x="95.2388" y="-145.5" font-family="Helvetica,sans-Serif" font-size="10.00" fill="#000000">+ stats</text>
<polyline fill="none" stroke="#000000" points="87.2388,-139.5 150.7534,-139.5 "/>
<text text-anchor="start" x="95.2388" y="-127.5" font-family="Helvetica,sans-Serif" font-size="10.00" fill="#000000">+ onerror()</text>
</g>
<!-- Node3 -->
<g id="node4" class="node">
<title>Node3</title>
<g id="a_node4"><a xlink:href="../../d6/d18/interfaceHttpHandler.html" target="_top" xlink:title="http 协议转换处理器 ">
<polygon fill="#ffffff" stroke="#000000" points="0,-.5 0,-84.5 107.9922,-84.5 107.9922,-.5 0,-.5"/>
<text text-anchor="middle" x="53.9961" y="-72.5" font-family="Helvetica,sans-Serif" font-size="10.00" fill="#000000">HttpHandler</text>
<polyline fill="none" stroke="#000000" points="0,-66.5 107.9922,-66.5 "/>
<text text-anchor="start" x="8" y="-54.5" font-family="Helvetica,sans-Serif" font-size="10.00" fill="#000000">+ crossDomain</text>
<text text-anchor="start" x="8" y="-44.5" font-family="Helvetica,sans-Serif" font-size="10.00" fill="#000000">+ forceGZIP</text>
<text text-anchor="start" x="8" y="-34.5" font-family="Helvetica,sans-Serif" font-size="10.00" fill="#000000">+ maxHeadersCount</text>
<text text-anchor="start" x="8" y="-24.5" font-family="Helvetica,sans-Serif" font-size="10.00" fill="#000000">+ maxUploadSize</text>
<polyline fill="none" stroke="#000000" points="0,-18.5 107.9922,-18.5 "/>
<text text-anchor="start" x="8" y="-6.5" font-family="Helvetica,sans-Serif" font-size="10.00" fill="#000000">+ HttpHandler()</text>
</a>
</g>
</g>
<!-- Node0&#45;&gt;Node3 -->
<g id="edge3" class="edge">
<title>Node0&#45;&gt;Node3</title>
<path fill="none" stroke="#191970" d="M95.0359,-112.5834C89.7452,-103.5485 84.1296,-93.9587 78.806,-84.8676"/>
<polygon fill="none" stroke="#191970" points="92.1219,-114.5335 100.1954,-121.3942 98.1624,-110.9962 92.1219,-114.5335"/>
</g>
<!-- Node4 -->
<g id="node5" class="node">
<title>Node4</title>
<g id="a_node5"><a xlink:href="../../da/d20/interfaceWebSocketHandler.html" target="_top" xlink:title="WebSocket 包协议转换处理器 ">
<polygon fill="#ffffff" stroke="#000000" points="126.3687,-15.5 126.3687,-69.5 243.6235,-69.5 243.6235,-15.5 126.3687,-15.5"/>
<text text-anchor="middle" x="184.9961" y="-57.5" font-family="Helvetica,sans-Serif" font-size="10.00" fill="#000000">WebSocketHandler</text>
<polyline fill="none" stroke="#000000" points="126.3687,-51.5 243.6235,-51.5 "/>
<text text-anchor="start" x="134.3687" y="-39.5" font-family="Helvetica,sans-Serif" font-size="10.00" fill="#000000">+ maxSize</text>
<polyline fill="none" stroke="#000000" points="126.3687,-33.5 243.6235,-33.5 "/>
<text text-anchor="start" x="134.3687" y="-21.5" font-family="Helvetica,sans-Serif" font-size="10.00" fill="#000000">+ WebSocketHandler()</text>
</a>
</g>
</g>
<!-- Node0&#45;&gt;Node4 -->
<g id="edge4" class="edge">
<title>Node0&#45;&gt;Node4</title>
<path fill="none" stroke="#191970" d="M143.2646,-112.6849C151.7915,-98.344 161.1566,-82.5937 168.8507,-69.6537"/>
<polygon fill="none" stroke="#191970" points="140.1885,-111.01 138.086,-121.3942 146.2052,-114.5876 140.1885,-111.01"/>
</g>
<!-- Node1 -->
<g id="node2" class="node">
<title>Node1</title>
<g id="a_node2"><a xlink:href="../../da/d85/interfaceHandler.html" target="_top" xlink:title="消息处理器接口 ">
<polygon fill="#ffffff" stroke="#000000" points="85.8472,-222.5 85.8472,-306.5 152.145,-306.5 152.145,-222.5 85.8472,-222.5"/>
<text text-anchor="middle" x="118.9961" y="-294.5" font-family="Helvetica,sans-Serif" font-size="10.00" fill="#000000">Handler</text>
<polyline fill="none" stroke="#000000" points="85.8472,-288.5 152.145,-288.5 "/>
<text text-anchor="middle" x="118.9961" y="-276.5" font-family="Helvetica,sans-Serif" font-size="10.00" fill="#000000"> </text>
<polyline fill="none" stroke="#000000" points="85.8472,-270.5 152.145,-270.5 "/>
<text text-anchor="start" x="93.8472" y="-258.5" font-family="Helvetica,sans-Serif" font-size="10.00" fill="#000000">+ Handler()</text>
<text text-anchor="start" x="93.8472" y="-248.5" font-family="Helvetica,sans-Serif" font-size="10.00" fill="#000000">+ Handler()</text>
<text text-anchor="start" x="93.8472" y="-238.5" font-family="Helvetica,sans-Serif" font-size="10.00" fill="#000000">+ Handler()</text>
<text text-anchor="start" x="93.8472" y="-228.5" font-family="Helvetica,sans-Serif" font-size="10.00" fill="#000000">+ invoke()</text>
</a>
</g>
</g>
<!-- Node1&#45;&gt;Node0 -->
<g id="edge1" class="edge">
<title>Node1&#45;&gt;Node0</title>
<path fill="none" stroke="#191970" d="M118.9961,-212.1185C118.9961,-203.0854 118.9961,-193.9418 118.9961,-185.6489"/>
<polygon fill="none" stroke="#191970" points="115.4962,-212.219 118.9961,-222.219 122.4962,-212.219 115.4962,-212.219"/>
</g>
<!-- Node2 -->
<g id="node3" class="node">
<title>Node2</title>
<g id="a_node3"><a xlink:href="../../db/d38/interfaceobject.html" target="_top" xlink:title="基础对象，所有对象均继承于此 ">
<polygon fill="#ffffff" stroke="#000000" points="85.8521,-343.5 85.8521,-437.5 152.1401,-437.5 152.1401,-343.5 85.8521,-343.5"/>
<text text-anchor="middle" x="118.9961" y="-425.5" font-family="Helvetica,sans-Serif" font-size="10.00" fill="#000000">object</text>
<polyline fill="none" stroke="#000000" points="85.8521,-419.5 152.1401,-419.5 "/>
<text text-anchor="middle" x="118.9961" y="-407.5" font-family="Helvetica,sans-Serif" font-size="10.00" fill="#000000"> </text>
<polyline fill="none" stroke="#000000" points="85.8521,-401.5 152.1401,-401.5 "/>
<text text-anchor="start" x="93.8521" y="-389.5" font-family="Helvetica,sans-Serif" font-size="10.00" fill="#000000">+ dispose()</text>
<text text-anchor="start" x="93.8521" y="-379.5" font-family="Helvetica,sans-Serif" font-size="10.00" fill="#000000">+ equals()</text>
<text text-anchor="start" x="93.8521" y="-369.5" font-family="Helvetica,sans-Serif" font-size="10.00" fill="#000000">+ toString()</text>
<text text-anchor="start" x="93.8521" y="-359.5" font-family="Helvetica,sans-Serif" font-size="10.00" fill="#000000">+ toJSON()</text>
<text text-anchor="start" x="93.8521" y="-349.5" font-family="Helvetica,sans-Serif" font-size="10.00" fill="#000000">+ valueOf()</text>
</a>
</g>
</g>
<!-- Node2&#45;&gt;Node1 -->
<g id="edge2" class="edge">
<title>Node2&#45;&gt;Node1</title>
<path fill="none" stroke="#191970" d="M118.9961,-332.9387C118.9961,-324.0848 118.9961,-315.0866 118.9961,-306.6505"/>
<polygon fill="none" stroke="#191970" points="115.4962,-333.2237 118.9961,-343.2238 122.4962,-333.2238 115.4962,-333.2237"/>
</g>
</g>
</svg>
