<?xml version="1.0" encoding="UTF-8" standalone="no"?>
<!DOCTYPE svg PUBLIC "-//W3C//DTD SVG 1.1//EN"
 "http://www.w3.org/Graphics/SVG/1.1/DTD/svg11.dtd">
<!-- Generated by graphviz version 2.40.1 (20161225.0304)
 -->
<!-- Title: MemoryStream Pages: 1 -->
<svg width="108pt" height="516pt"
 viewBox="0.00 0.00 107.62 516.00" xmlns="http://www.w3.org/2000/svg" xmlns:xlink="http://www.w3.org/1999/xlink">
<g id="graph0" class="graph" transform="scale(1 1) rotate(0) translate(4 512)">
<title>MemoryStream</title>
<polygon fill="#ffffff" stroke="transparent" points="-4,4 -4,-512 103.623,-512 103.623,4 -4,4"/>
<!-- Node0 -->
<g id="node1" class="node">
<title>Node0</title>
<polygon fill="#bfbfbf" stroke="#000000" points="0,-.5 0,-84.5 99.623,-84.5 99.623,-.5 0,-.5"/>
<text text-anchor="middle" x="49.8115" y="-72.5" font-family="Helvetica,sans-Serif" font-size="10.00" fill="#000000">MemoryStream</text>
<polyline fill="none" stroke="#000000" points="0,-66.5 99.623,-66.5 "/>
<text text-anchor="middle" x="49.8115" y="-54.5" font-family="Helvetica,sans-Serif" font-size="10.00" fill="#000000"> </text>
<polyline fill="none" stroke="#000000" points="0,-48.5 99.623,-48.5 "/>
<text text-anchor="start" x="8" y="-36.5" font-family="Helvetica,sans-Serif" font-size="10.00" fill="#000000">+ MemoryStream()</text>
<text text-anchor="start" x="8" y="-26.5" font-family="Helvetica,sans-Serif" font-size="10.00" fill="#000000">+ setTime()</text>
<text text-anchor="start" x="8" y="-16.5" font-family="Helvetica,sans-Serif" font-size="10.00" fill="#000000">+ clone()</text>
<text text-anchor="start" x="8" y="-6.5" font-family="Helvetica,sans-Serif" font-size="10.00" fill="#000000">+ clear()</text>
</g>
<!-- Node1 -->
<g id="node2" class="node">
<title>Node1</title>
<g id="a_node2"><a xlink:href="../../d6/d9c/interfaceSeekableStream.html" target="_top" xlink:title="可移动当前指针的流对象接口 ">
<polygon fill="#ffffff" stroke="#000000" points="4.8462,-121.5 4.8462,-255.5 94.7769,-255.5 94.7769,-121.5 4.8462,-121.5"/>
<text text-anchor="middle" x="49.8115" y="-243.5" font-family="Helvetica,sans-Serif" font-size="10.00" fill="#000000">SeekableStream</text>
<polyline fill="none" stroke="#000000" points="4.8462,-237.5 94.7769,-237.5 "/>
<text text-anchor="middle" x="49.8115" y="-225.5" font-family="Helvetica,sans-Serif" font-size="10.00" fill="#000000"> </text>
<polyline fill="none" stroke="#000000" points="4.8462,-219.5 94.7769,-219.5 "/>
<text text-anchor="start" x="12.8462" y="-207.5" font-family="Helvetica,sans-Serif" font-size="10.00" fill="#000000">+ seek()</text>
<text text-anchor="start" x="12.8462" y="-197.5" font-family="Helvetica,sans-Serif" font-size="10.00" fill="#000000">+ tell()</text>
<text text-anchor="start" x="12.8462" y="-187.5" font-family="Helvetica,sans-Serif" font-size="10.00" fill="#000000">+ rewind()</text>
<text text-anchor="start" x="12.8462" y="-177.5" font-family="Helvetica,sans-Serif" font-size="10.00" fill="#000000">+ size()</text>
<text text-anchor="start" x="12.8462" y="-167.5" font-family="Helvetica,sans-Serif" font-size="10.00" fill="#000000">+ readAll()</text>
<text text-anchor="start" x="12.8462" y="-157.5" font-family="Helvetica,sans-Serif" font-size="10.00" fill="#000000">+ truncate()</text>
<text text-anchor="start" x="12.8462" y="-147.5" font-family="Helvetica,sans-Serif" font-size="10.00" fill="#000000">+ eof()</text>
<text text-anchor="start" x="12.8462" y="-137.5" font-family="Helvetica,sans-Serif" font-size="10.00" fill="#000000">+ flush()</text>
<text text-anchor="start" x="12.8462" y="-127.5" font-family="Helvetica,sans-Serif" font-size="10.00" fill="#000000">+ stat()</text>
</a>
</g>
</g>
<!-- Node1&#45;&gt;Node0 -->
<g id="edge1" class="edge">
<title>Node1&#45;&gt;Node0</title>
<path fill="none" stroke="#191970" d="M49.8115,-111.252C49.8115,-102.1973 49.8115,-93.2301 49.8115,-84.91"/>
<polygon fill="none" stroke="#191970" points="46.3116,-111.4823 49.8115,-121.4823 53.3116,-111.4823 46.3116,-111.4823"/>
</g>
<!-- Node2 -->
<g id="node3" class="node">
<title>Node2</title>
<g id="a_node3"><a xlink:href="../../d4/dc7/interfaceStream.html" target="_top" xlink:title="流操作对象，用于二进制数据流读写 ">
<polygon fill="#ffffff" stroke="#000000" points="18.3301,-292.5 18.3301,-376.5 81.293,-376.5 81.293,-292.5 18.3301,-292.5"/>
<text text-anchor="middle" x="49.8115" y="-364.5" font-family="Helvetica,sans-Serif" font-size="10.00" fill="#000000">Stream</text>
<polyline fill="none" stroke="#000000" points="18.3301,-358.5 81.293,-358.5 "/>
<text text-anchor="middle" x="49.8115" y="-346.5" font-family="Helvetica,sans-Serif" font-size="10.00" fill="#000000"> </text>
<polyline fill="none" stroke="#000000" points="18.3301,-340.5 81.293,-340.5 "/>
<text text-anchor="start" x="26.3301" y="-328.5" font-family="Helvetica,sans-Serif" font-size="10.00" fill="#000000">+ read()</text>
<text text-anchor="start" x="26.3301" y="-318.5" font-family="Helvetica,sans-Serif" font-size="10.00" fill="#000000">+ write()</text>
<text text-anchor="start" x="26.3301" y="-308.5" font-family="Helvetica,sans-Serif" font-size="10.00" fill="#000000">+ close()</text>
<text text-anchor="start" x="26.3301" y="-298.5" font-family="Helvetica,sans-Serif" font-size="10.00" fill="#000000">+ copyTo()</text>
</a>
</g>
</g>
<!-- Node2&#45;&gt;Node1 -->
<g id="edge2" class="edge">
<title>Node2&#45;&gt;Node1</title>
<path fill="none" stroke="#191970" d="M49.8115,-282.0637C49.8115,-273.4995 49.8115,-264.5242 49.8115,-255.6643"/>
<polygon fill="none" stroke="#191970" points="46.3116,-282.2707 49.8115,-292.2708 53.3116,-282.2708 46.3116,-282.2707"/>
</g>
<!-- Node3 -->
<g id="node4" class="node">
<title>Node3</title>
<g id="a_node4"><a xlink:href="../../db/d38/interfaceobject.html" target="_top" xlink:title="基础对象，所有对象均继承于此 ">
<polygon fill="#ffffff" stroke="#000000" points="16.6675,-413.5 16.6675,-507.5 82.9556,-507.5 82.9556,-413.5 16.6675,-413.5"/>
<text text-anchor="middle" x="49.8115" y="-495.5" font-family="Helvetica,sans-Serif" font-size="10.00" fill="#000000">object</text>
<polyline fill="none" stroke="#000000" points="16.6675,-489.5 82.9556,-489.5 "/>
<text text-anchor="middle" x="49.8115" y="-477.5" font-family="Helvetica,sans-Serif" font-size="10.00" fill="#000000"> </text>
<polyline fill="none" stroke="#000000" points="16.6675,-471.5 82.9556,-471.5 "/>
<text text-anchor="start" x="24.6675" y="-459.5" font-family="Helvetica,sans-Serif" font-size="10.00" fill="#000000">+ dispose()</text>
<text text-anchor="start" x="24.6675" y="-449.5" font-family="Helvetica,sans-Serif" font-size="10.00" fill="#000000">+ equals()</text>
<text text-anchor="start" x="24.6675" y="-439.5" font-family="Helvetica,sans-Serif" font-size="10.00" fill="#000000">+ toString()</text>
<text text-anchor="start" x="24.6675" y="-429.5" font-family="Helvetica,sans-Serif" font-size="10.00" fill="#000000">+ toJSON()</text>
<text text-anchor="start" x="24.6675" y="-419.5" font-family="Helvetica,sans-Serif" font-size="10.00" fill="#000000">+ valueOf()</text>
</a>
</g>
</g>
<!-- Node3&#45;&gt;Node2 -->
<g id="edge3" class="edge">
<title>Node3&#45;&gt;Node2</title>
<path fill="none" stroke="#191970" d="M49.8115,-402.9387C49.8115,-394.0848 49.8115,-385.0866 49.8115,-376.6505"/>
<polygon fill="none" stroke="#191970" points="46.3116,-403.2237 49.8115,-413.2238 53.3116,-403.2238 46.3116,-403.2237"/>
</g>
</g>
</svg>
