<?xml version="1.0" encoding="UTF-8" standalone="no"?>
<!DOCTYPE svg PUBLIC "-//W3C//DTD SVG 1.1//EN"
 "http://www.w3.org/Graphics/SVG/1.1/DTD/svg11.dtd">
<!-- Generated by graphviz version 2.40.1 (20161225.0304)
 -->
<!-- Title: MemoryStream Pages: 1 -->
<svg width="108pt" height="486pt"
 viewBox="0.00 0.00 107.62 486.00" xmlns="http://www.w3.org/2000/svg" xmlns:xlink="http://www.w3.org/1999/xlink">
<g id="graph0" class="graph" transform="scale(1 1) rotate(0) translate(4 482)">
<title>MemoryStream</title>
<polygon fill="#ffffff" stroke="transparent" points="-4,4 -4,-482 103.623,-482 103.623,4 -4,4"/>
<!-- Node0 -->
<g id="node1" class="node">
<title>Node0</title>
<polygon fill="#bfbfbf" stroke="#000000" points="0,-.5 0,-84.5 99.623,-84.5 99.623,-.5 0,-.5"/>
<text text-anchor="middle" x="49.8115" y="-72.5" font-family="Helvetica,sans-Serif" font-size="10.00" fill="#000000">MemoryStream</text>
<polyline fill="none" stroke="#000000" points="0,-66.5 99.623,-66.5 "/>
<text text-anchor="middle" x="49.8115" y="-54.5" font-family="Helvetica,sans-Serif" font-size="10.00" fill="#000000"> </text>
<polyline fill="none" stroke="#000000" points="0,-48.5 99.623,-48.5 "/>
<text text-anchor="start" x="8" y="-36.5" font-family="Helvetica,sans-Serif" font-size="10.00" fill="#000000">+ MemoryStream()</text>
<text text-anchor="start" x="8" y="-26.5" font-family="Helvetica,sans-Serif" font-size="10.00" fill="#000000">+ setTime()</text>
<text text-anchor="start" x="8" y="-16.5" font-family="Helvetica,sans-Serif" font-size="10.00" fill="#000000">+ clone()</text>
<text text-anchor="start" x="8" y="-6.5" font-family="Helvetica,sans-Serif" font-size="10.00" fill="#000000">+ clear()</text>
</g>
<!-- Node1 -->
<g id="node2" class="node">
<title>Node1</title>
<g id="a_node2"><a xlink:href="../../d6/d9c/interfaceSeekableStream.html" target="_top" xlink:title="可移动当前指针的流对象接口 ">
<polygon fill="#ffffff" stroke="#000000" points="4.8462,-121.5 4.8462,-225.5 94.7769,-225.5 94.7769,-121.5 4.8462,-121.5"/>
<text text-anchor="middle" x="49.8115" y="-213.5" font-family="Helvetica,sans-Serif" font-size="10.00" fill="#000000">SeekableStream</text>
<polyline fill="none" stroke="#000000" points="4.8462,-207.5 94.7769,-207.5 "/>
<text text-anchor="middle" x="49.8115" y="-195.5" font-family="Helvetica,sans-Serif" font-size="10.00" fill="#000000"> </text>
<polyline fill="none" stroke="#000000" points="4.8462,-189.5 94.7769,-189.5 "/>
<text text-anchor="start" x="12.8462" y="-177.5" font-family="Helvetica,sans-Serif" font-size="10.00" fill="#000000">+ seek()</text>
<text text-anchor="start" x="12.8462" y="-167.5" font-family="Helvetica,sans-Serif" font-size="10.00" fill="#000000">+ tell()</text>
<text text-anchor="start" x="12.8462" y="-157.5" font-family="Helvetica,sans-Serif" font-size="10.00" fill="#000000">+ rewind()</text>
<text text-anchor="start" x="12.8462" y="-147.5" font-family="Helvetica,sans-Serif" font-size="10.00" fill="#000000">+ size()</text>
<text text-anchor="start" x="12.8462" y="-137.5" font-family="Helvetica,sans-Serif" font-size="10.00" fill="#000000">+ readAll()</text>
<text text-anchor="start" x="12.8462" y="-127.5" font-family="Helvetica,sans-Serif" font-size="10.00" fill="#000000">+ stat()</text>
</a>
</g>
</g>
<!-- Node1&#45;&gt;Node0 -->
<g id="edge1" class="edge">
<title>Node1&#45;&gt;Node0</title>
<path fill="none" stroke="#191970" d="M49.8115,-111.2917C49.8115,-102.321 49.8115,-93.2677 49.8115,-84.8072"/>
<polygon fill="none" stroke="#191970" points="46.3116,-111.3489 49.8115,-121.3489 53.3116,-111.349 46.3116,-111.3489"/>
</g>
<!-- Node2 -->
<g id="node3" class="node">
<title>Node2</title>
<g id="a_node3"><a xlink:href="../../d4/dc7/interfaceStream.html" target="_top" xlink:title="流操作对象，用于二进制数据流读写 ">
<polygon fill="#ffffff" stroke="#000000" points="18.3301,-262.5 18.3301,-346.5 81.293,-346.5 81.293,-262.5 18.3301,-262.5"/>
<text text-anchor="middle" x="49.8115" y="-334.5" font-family="Helvetica,sans-Serif" font-size="10.00" fill="#000000">Stream</text>
<polyline fill="none" stroke="#000000" points="18.3301,-328.5 81.293,-328.5 "/>
<text text-anchor="middle" x="49.8115" y="-316.5" font-family="Helvetica,sans-Serif" font-size="10.00" fill="#000000"> </text>
<polyline fill="none" stroke="#000000" points="18.3301,-310.5 81.293,-310.5 "/>
<text text-anchor="start" x="26.3301" y="-298.5" font-family="Helvetica,sans-Serif" font-size="10.00" fill="#000000">+ read()</text>
<text text-anchor="start" x="26.3301" y="-288.5" font-family="Helvetica,sans-Serif" font-size="10.00" fill="#000000">+ write()</text>
<text text-anchor="start" x="26.3301" y="-278.5" font-family="Helvetica,sans-Serif" font-size="10.00" fill="#000000">+ close()</text>
<text text-anchor="start" x="26.3301" y="-268.5" font-family="Helvetica,sans-Serif" font-size="10.00" fill="#000000">+ copyTo()</text>
</a>
</g>
</g>
<!-- Node2&#45;&gt;Node1 -->
<g id="edge2" class="edge">
<title>Node2&#45;&gt;Node1</title>
<path fill="none" stroke="#191970" d="M49.8115,-252.2546C49.8115,-243.5097 49.8115,-234.4358 49.8115,-225.6923"/>
<polygon fill="none" stroke="#191970" points="46.3116,-252.3297 49.8115,-262.3297 53.3116,-252.3297 46.3116,-252.3297"/>
</g>
<!-- Node3 -->
<g id="node4" class="node">
<title>Node3</title>
<g id="a_node4"><a xlink:href="../../db/d38/interfaceobject.html" target="_top" xlink:title="基础对象，所有对象均继承于此 ">
<polygon fill="#ffffff" stroke="#000000" points="16.6675,-383.5 16.6675,-477.5 82.9556,-477.5 82.9556,-383.5 16.6675,-383.5"/>
<text text-anchor="middle" x="49.8115" y="-465.5" font-family="Helvetica,sans-Serif" font-size="10.00" fill="#000000">object</text>
<polyline fill="none" stroke="#000000" points="16.6675,-459.5 82.9556,-459.5 "/>
<text text-anchor="middle" x="49.8115" y="-447.5" font-family="Helvetica,sans-Serif" font-size="10.00" fill="#000000"> </text>
<polyline fill="none" stroke="#000000" points="16.6675,-441.5 82.9556,-441.5 "/>
<text text-anchor="start" x="24.6675" y="-429.5" font-family="Helvetica,sans-Serif" font-size="10.00" fill="#000000">+ dispose()</text>
<text text-anchor="start" x="24.6675" y="-419.5" font-family="Helvetica,sans-Serif" font-size="10.00" fill="#000000">+ equals()</text>
<text text-anchor="start" x="24.6675" y="-409.5" font-family="Helvetica,sans-Serif" font-size="10.00" fill="#000000">+ toString()</text>
<text text-anchor="start" x="24.6675" y="-399.5" font-family="Helvetica,sans-Serif" font-size="10.00" fill="#000000">+ toJSON()</text>
<text text-anchor="start" x="24.6675" y="-389.5" font-family="Helvetica,sans-Serif" font-size="10.00" fill="#000000">+ valueOf()</text>
</a>
</g>
</g>
<!-- Node3&#45;&gt;Node2 -->
<g id="edge3" class="edge">
<title>Node3&#45;&gt;Node2</title>
<path fill="none" stroke="#191970" d="M49.8115,-372.9387C49.8115,-364.0848 49.8115,-355.0866 49.8115,-346.6505"/>
<polygon fill="none" stroke="#191970" points="46.3116,-373.2237 49.8115,-383.2238 53.3116,-373.2238 46.3116,-373.2237"/>
</g>
</g>
</svg>
