<?xml version="1.0" encoding="UTF-8" standalone="no"?>
<!DOCTYPE svg PUBLIC "-//W3C//DTD SVG 1.1//EN"
 "http://www.w3.org/Graphics/SVG/1.1/DTD/svg11.dtd">
<!-- Generated by graphviz version 2.38.0 (20140413.2041)
 -->
<!-- Title: XmlNodeList Pages: 1 -->
<svg width="81pt" height="194pt"
 viewBox="0.00 0.00 80.69 194.00" xmlns="http://www.w3.org/2000/svg" xmlns:xlink="http://www.w3.org/1999/xlink">
<g id="graph0" class="graph" transform="scale(1 1) rotate(0) translate(4 190)">
<title>XmlNodeList</title>
<polygon fill="white" stroke="none" points="-4,4 -4,-190 76.6895,-190 76.6895,4 -4,4"/>
<!-- Node1 -->
<g id="node1" class="node"><title>Node1</title>
<polygon fill="#bfbfbf" stroke="black" points="0,-0.5 0,-64.5 72.6895,-64.5 72.6895,-0.5 0,-0.5"/>
<text text-anchor="middle" x="36.3447" y="-52.5" font-family="Helvetica,sans-Serif" font-size="10.00">XmlNodeList</text>
<polyline fill="none" stroke="black" points="0,-46.5 72.6895,-46.5 "/>
<text text-anchor="start" x="8" y="-34.5" font-family="Helvetica,sans-Serif" font-size="10.00">+ length</text>
<text text-anchor="start" x="8" y="-24.5" font-family="Helvetica,sans-Serif" font-size="10.00">+ operator[]</text>
<polyline fill="none" stroke="black" points="0,-18.5 72.6895,-18.5 "/>
<text text-anchor="start" x="8" y="-6.5" font-family="Helvetica,sans-Serif" font-size="10.00">+ item()</text>
</g>
<!-- Node2 -->
<g id="node2" class="node"><title>Node2</title>
<g id="a_node2"><a xlink:href="../../db/d38/interfaceobject.html" target="_top" xlink:title="All objects inherit from this. ">
<polygon fill="white" stroke="black" points="3.20068,-101.5 3.20068,-185.5 69.4888,-185.5 69.4888,-101.5 3.20068,-101.5"/>
<text text-anchor="middle" x="36.3447" y="-173.5" font-family="Helvetica,sans-Serif" font-size="10.00">object</text>
<polyline fill="none" stroke="black" points="3.20068,-167.5 69.4888,-167.5 "/>
<text text-anchor="middle" x="36.3447" y="-155.5" font-family="Helvetica,sans-Serif" font-size="10.00"> </text>
<polyline fill="none" stroke="black" points="3.20068,-149.5 69.4888,-149.5 "/>
<text text-anchor="start" x="11.2007" y="-137.5" font-family="Helvetica,sans-Serif" font-size="10.00">+ dispose()</text>
<text text-anchor="start" x="11.2007" y="-127.5" font-family="Helvetica,sans-Serif" font-size="10.00">+ toString()</text>
<text text-anchor="start" x="11.2007" y="-117.5" font-family="Helvetica,sans-Serif" font-size="10.00">+ toJSON()</text>
<text text-anchor="start" x="11.2007" y="-107.5" font-family="Helvetica,sans-Serif" font-size="10.00">+ valueOf()</text>
</a>
</g>
</g>
<!-- Node2&#45;&gt;Node1 -->
<g id="edge1" class="edge"><title>Node2&#45;&gt;Node1</title>
<path fill="none" stroke="midnightblue" d="M36.3447,-91.1445C36.3447,-82.0652 36.3447,-72.8691 36.3447,-64.5687"/>
<polygon fill="none" stroke="midnightblue" points="32.8448,-91.2917 36.3447,-101.292 39.8448,-91.2918 32.8448,-91.2917"/>
</g>
</g>
</svg>
