<?xml version="1.0" encoding="UTF-8" standalone="no"?>
<!DOCTYPE svg PUBLIC "-//W3C//DTD SVG 1.1//EN"
 "http://www.w3.org/Graphics/SVG/1.1/DTD/svg11.dtd">
<!-- Generated by graphviz version 2.40.1 (20161225.0304)
 -->
<!-- Title: XmlNodeList Pages: 1 -->
<svg width="81pt" height="194pt"
 viewBox="0.00 0.00 80.69 194.00" xmlns="http://www.w3.org/2000/svg" xmlns:xlink="http://www.w3.org/1999/xlink">
<g id="graph0" class="graph" transform="scale(1 1) rotate(0) translate(4 190)">
<title>XmlNodeList</title>
<polygon fill="#ffffff" stroke="transparent" points="-4,4 -4,-190 76.6895,-190 76.6895,4 -4,4"/>
<!-- Node0 -->
<g id="node1" class="node">
<title>Node0</title>
<polygon fill="#bfbfbf" stroke="#000000" points="0,-.5 0,-64.5 72.6895,-64.5 72.6895,-.5 0,-.5"/>
<text text-anchor="middle" x="36.3447" y="-52.5" font-family="Helvetica,sans-Serif" font-size="10.00" fill="#000000">XmlNodeList</text>
<polyline fill="none" stroke="#000000" points="0,-46.5 72.6895,-46.5 "/>
<text text-anchor="start" x="8" y="-34.5" font-family="Helvetica,sans-Serif" font-size="10.00" fill="#000000">+ length</text>
<text text-anchor="start" x="8" y="-24.5" font-family="Helvetica,sans-Serif" font-size="10.00" fill="#000000">+ operator[]</text>
<polyline fill="none" stroke="#000000" points="0,-18.5 72.6895,-18.5 "/>
<text text-anchor="start" x="8" y="-6.5" font-family="Helvetica,sans-Serif" font-size="10.00" fill="#000000">+ item()</text>
</g>
<!-- Node1 -->
<g id="node2" class="node">
<title>Node1</title>
<g id="a_node2"><a xlink:href="$db/d38/interfaceobject.html" xlink:title="All objects inherit from this. ">
<polygon fill="#ffffff" stroke="#000000" points="3.2007,-101.5 3.2007,-185.5 69.4888,-185.5 69.4888,-101.5 3.2007,-101.5"/>
<text text-anchor="middle" x="36.3447" y="-173.5" font-family="Helvetica,sans-Serif" font-size="10.00" fill="#000000">object</text>
<polyline fill="none" stroke="#000000" points="3.2007,-167.5 69.4888,-167.5 "/>
<text text-anchor="middle" x="36.3447" y="-155.5" font-family="Helvetica,sans-Serif" font-size="10.00" fill="#000000"> </text>
<polyline fill="none" stroke="#000000" points="3.2007,-149.5 69.4888,-149.5 "/>
<text text-anchor="start" x="11.2007" y="-137.5" font-family="Helvetica,sans-Serif" font-size="10.00" fill="#000000">+ dispose()</text>
<text text-anchor="start" x="11.2007" y="-127.5" font-family="Helvetica,sans-Serif" font-size="10.00" fill="#000000">+ toString()</text>
<text text-anchor="start" x="11.2007" y="-117.5" font-family="Helvetica,sans-Serif" font-size="10.00" fill="#000000">+ toJSON()</text>
<text text-anchor="start" x="11.2007" y="-107.5" font-family="Helvetica,sans-Serif" font-size="10.00" fill="#000000">+ valueOf()</text>
</a>
</g>
</g>
<!-- Node1&#45;&gt;Node0 -->
<g id="edge1" class="edge">
<title>Node1&#45;&gt;Node0</title>
<path fill="none" stroke="#191970" d="M36.3447,-91.1185C36.3447,-82.0854 36.3447,-72.9418 36.3447,-64.6489"/>
<polygon fill="none" stroke="#191970" points="32.8448,-91.219 36.3447,-101.219 39.8448,-91.219 32.8448,-91.219"/>
</g>
</g>
</svg>
