<?xml version="1.0" encoding="UTF-8" standalone="no"?>
<!DOCTYPE svg PUBLIC "-//W3C//DTD SVG 1.1//EN"
 "http://www.w3.org/Graphics/SVG/1.1/DTD/svg11.dtd">
<!-- Generated by graphviz version 2.38.0 (20140413.2041)
 -->
<!-- Title: BufferedStream Pages: 1 -->
<svg width="109pt" height="385pt"
 viewBox="0.00 0.00 109.14 385.00" xmlns="http://www.w3.org/2000/svg" xmlns:xlink="http://www.w3.org/1999/xlink">
<g id="graph0" class="graph" transform="scale(1 1) rotate(0) translate(4 381)">
<title>BufferedStream</title>
<polygon fill="white" stroke="none" points="-4,4 -4,-381 105.137,-381 105.137,4 -4,4"/>
<!-- Node1 -->
<g id="node1" class="node"><title>Node1</title>
<polygon fill="#bfbfbf" stroke="black" points="0,-0.5 0,-134.5 101.137,-134.5 101.137,-0.5 0,-0.5"/>
<text text-anchor="middle" x="50.5684" y="-122.5" font-family="Helvetica,sans-Serif" font-size="10.00">BufferedStream</text>
<polyline fill="none" stroke="black" points="0,-116.5 101.137,-116.5 "/>
<text text-anchor="start" x="8" y="-104.5" font-family="Helvetica,sans-Serif" font-size="10.00">+ stream</text>
<text text-anchor="start" x="8" y="-94.5" font-family="Helvetica,sans-Serif" font-size="10.00">+ charset</text>
<text text-anchor="start" x="8" y="-84.5" font-family="Helvetica,sans-Serif" font-size="10.00">+ EOL</text>
<polyline fill="none" stroke="black" points="0,-78.5 101.137,-78.5 "/>
<text text-anchor="start" x="8" y="-66.5" font-family="Helvetica,sans-Serif" font-size="10.00">+ BufferedStream()</text>
<text text-anchor="start" x="8" y="-56.5" font-family="Helvetica,sans-Serif" font-size="10.00">+ readText()</text>
<text text-anchor="start" x="8" y="-46.5" font-family="Helvetica,sans-Serif" font-size="10.00">+ readLine()</text>
<text text-anchor="start" x="8" y="-36.5" font-family="Helvetica,sans-Serif" font-size="10.00">+ readLines()</text>
<text text-anchor="start" x="8" y="-26.5" font-family="Helvetica,sans-Serif" font-size="10.00">+ readUntil()</text>
<text text-anchor="start" x="8" y="-16.5" font-family="Helvetica,sans-Serif" font-size="10.00">+ writeText()</text>
<text text-anchor="start" x="8" y="-6.5" font-family="Helvetica,sans-Serif" font-size="10.00">+ writeLine()</text>
</g>
<!-- Node2 -->
<g id="node2" class="node"><title>Node2</title>
<g id="a_node2"><a xlink:href="../../d4/dc7/interfaceStream.html" target="_top" xlink:title="Stream object for binary data. ">
<polygon fill="white" stroke="black" points="19.0869,-171.5 19.0869,-255.5 82.0498,-255.5 82.0498,-171.5 19.0869,-171.5"/>
<text text-anchor="middle" x="50.5684" y="-243.5" font-family="Helvetica,sans-Serif" font-size="10.00">Stream</text>
<polyline fill="none" stroke="black" points="19.0869,-237.5 82.0498,-237.5 "/>
<text text-anchor="middle" x="50.5684" y="-225.5" font-family="Helvetica,sans-Serif" font-size="10.00"> </text>
<polyline fill="none" stroke="black" points="19.0869,-219.5 82.0498,-219.5 "/>
<text text-anchor="start" x="27.0869" y="-207.5" font-family="Helvetica,sans-Serif" font-size="10.00">+ read()</text>
<text text-anchor="start" x="27.0869" y="-197.5" font-family="Helvetica,sans-Serif" font-size="10.00">+ write()</text>
<text text-anchor="start" x="27.0869" y="-187.5" font-family="Helvetica,sans-Serif" font-size="10.00">+ close()</text>
<text text-anchor="start" x="27.0869" y="-177.5" font-family="Helvetica,sans-Serif" font-size="10.00">+ copyTo()</text>
</a>
</g>
</g>
<!-- Node2&#45;&gt;Node1 -->
<g id="edge1" class="edge"><title>Node2&#45;&gt;Node1</title>
<path fill="none" stroke="midnightblue" d="M50.5684,-161.005C50.5684,-152.416 50.5684,-143.401 50.5684,-134.509"/>
<polygon fill="none" stroke="midnightblue" points="47.0685,-161.235 50.5684,-171.235 54.0685,-161.235 47.0685,-161.235"/>
</g>
<!-- Node3 -->
<g id="node3" class="node"><title>Node3</title>
<g id="a_node3"><a xlink:href="../../db/d38/interfaceobject.html" target="_top" xlink:title="All objects inherit from this. ">
<polygon fill="white" stroke="black" points="17.4243,-292.5 17.4243,-376.5 83.7124,-376.5 83.7124,-292.5 17.4243,-292.5"/>
<text text-anchor="middle" x="50.5684" y="-364.5" font-family="Helvetica,sans-Serif" font-size="10.00">object</text>
<polyline fill="none" stroke="black" points="17.4243,-358.5 83.7124,-358.5 "/>
<text text-anchor="middle" x="50.5684" y="-346.5" font-family="Helvetica,sans-Serif" font-size="10.00"> </text>
<polyline fill="none" stroke="black" points="17.4243,-340.5 83.7124,-340.5 "/>
<text text-anchor="start" x="25.4243" y="-328.5" font-family="Helvetica,sans-Serif" font-size="10.00">+ dispose()</text>
<text text-anchor="start" x="25.4243" y="-318.5" font-family="Helvetica,sans-Serif" font-size="10.00">+ toString()</text>
<text text-anchor="start" x="25.4243" y="-308.5" font-family="Helvetica,sans-Serif" font-size="10.00">+ toJSON()</text>
<text text-anchor="start" x="25.4243" y="-298.5" font-family="Helvetica,sans-Serif" font-size="10.00">+ valueOf()</text>
</a>
</g>
</g>
<!-- Node3&#45;&gt;Node2 -->
<g id="edge2" class="edge"><title>Node3&#45;&gt;Node2</title>
<path fill="none" stroke="midnightblue" d="M50.5684,-282.041C50.5684,-273.241 50.5684,-264.202 50.5684,-255.713"/>
<polygon fill="none" stroke="midnightblue" points="47.0685,-282.214 50.5684,-292.214 54.0685,-282.214 47.0685,-282.214"/>
</g>
</g>
</svg>
