<?xml version="1.0" encoding="UTF-8" standalone="no"?>
<!DOCTYPE svg PUBLIC "-//W3C//DTD SVG 1.1//EN"
 "http://www.w3.org/Graphics/SVG/1.1/DTD/svg11.dtd">
<!-- Generated by graphviz version 2.40.1 (20161225.0304)
 -->
<!-- Title: BufferedStream Pages: 1 -->
<svg width="109pt" height="506pt"
 viewBox="0.00 0.00 109.14 506.00" xmlns="http://www.w3.org/2000/svg" xmlns:xlink="http://www.w3.org/1999/xlink">
<g id="graph0" class="graph" transform="scale(1 1) rotate(0) translate(4 502)">
<title>BufferedStream</title>
<polygon fill="#ffffff" stroke="transparent" points="-4,4 -4,-502 105.1367,-502 105.1367,4 -4,4"/>
<!-- Node0 -->
<g id="node1" class="node">
<title>Node0</title>
<polygon fill="#bfbfbf" stroke="#000000" points="0,-121.5 0,-255.5 101.1367,-255.5 101.1367,-121.5 0,-121.5"/>
<text text-anchor="middle" x="50.5684" y="-243.5" font-family="Helvetica,sans-Serif" font-size="10.00" fill="#000000">BufferedStream</text>
<polyline fill="none" stroke="#000000" points="0,-237.5 101.1367,-237.5 "/>
<text text-anchor="start" x="8" y="-225.5" font-family="Helvetica,sans-Serif" font-size="10.00" fill="#000000">+ stream</text>
<text text-anchor="start" x="8" y="-215.5" font-family="Helvetica,sans-Serif" font-size="10.00" fill="#000000">+ charset</text>
<text text-anchor="start" x="8" y="-205.5" font-family="Helvetica,sans-Serif" font-size="10.00" fill="#000000">+ EOL</text>
<polyline fill="none" stroke="#000000" points="0,-199.5 101.1367,-199.5 "/>
<text text-anchor="start" x="8" y="-187.5" font-family="Helvetica,sans-Serif" font-size="10.00" fill="#000000">+ BufferedStream()</text>
<text text-anchor="start" x="8" y="-177.5" font-family="Helvetica,sans-Serif" font-size="10.00" fill="#000000">+ readText()</text>
<text text-anchor="start" x="8" y="-167.5" font-family="Helvetica,sans-Serif" font-size="10.00" fill="#000000">+ readLine()</text>
<text text-anchor="start" x="8" y="-157.5" font-family="Helvetica,sans-Serif" font-size="10.00" fill="#000000">+ readLines()</text>
<text text-anchor="start" x="8" y="-147.5" font-family="Helvetica,sans-Serif" font-size="10.00" fill="#000000">+ readUntil()</text>
<text text-anchor="start" x="8" y="-137.5" font-family="Helvetica,sans-Serif" font-size="10.00" fill="#000000">+ writeText()</text>
<text text-anchor="start" x="8" y="-127.5" font-family="Helvetica,sans-Serif" font-size="10.00" fill="#000000">+ writeLine()</text>
</g>
<!-- Node3 -->
<g id="node4" class="node">
<title>Node3</title>
<g id="a_node4"><a xlink:href="../../d8/d10/interfaceSubProcess.html" target="_top" xlink:title="Child process object. ">
<polygon fill="#ffffff" stroke="#000000" points="15.6104,-.5 15.6104,-84.5 85.5264,-84.5 85.5264,-.5 15.6104,-.5"/>
<text text-anchor="middle" x="50.5684" y="-72.5" font-family="Helvetica,sans-Serif" font-size="10.00" fill="#000000">SubProcess</text>
<polyline fill="none" stroke="#000000" points="15.6104,-66.5 85.5264,-66.5 "/>
<text text-anchor="start" x="23.6104" y="-54.5" font-family="Helvetica,sans-Serif" font-size="10.00" fill="#000000">+ pid</text>
<text text-anchor="start" x="23.6104" y="-44.5" font-family="Helvetica,sans-Serif" font-size="10.00" fill="#000000">+ stdin</text>
<text text-anchor="start" x="23.6104" y="-34.5" font-family="Helvetica,sans-Serif" font-size="10.00" fill="#000000">+ stdout</text>
<polyline fill="none" stroke="#000000" points="15.6104,-28.5 85.5264,-28.5 "/>
<text text-anchor="start" x="23.6104" y="-16.5" font-family="Helvetica,sans-Serif" font-size="10.00" fill="#000000">+ kill()</text>
<text text-anchor="start" x="23.6104" y="-6.5" font-family="Helvetica,sans-Serif" font-size="10.00" fill="#000000">+ wait()</text>
</a>
</g>
</g>
<!-- Node0&#45;&gt;Node3 -->
<g id="edge3" class="edge">
<title>Node0&#45;&gt;Node3</title>
<path fill="none" stroke="#191970" d="M50.5684,-111.252C50.5684,-102.1973 50.5684,-93.2301 50.5684,-84.91"/>
<polygon fill="none" stroke="#191970" points="47.0685,-111.4823 50.5684,-121.4823 54.0685,-111.4823 47.0685,-111.4823"/>
</g>
<!-- Node1 -->
<g id="node2" class="node">
<title>Node1</title>
<g id="a_node2"><a xlink:href="../../d4/dc7/interfaceStream.html" target="_top" xlink:title="Stream object for binary data. ">
<polygon fill="#ffffff" stroke="#000000" points="19.0869,-292.5 19.0869,-376.5 82.0498,-376.5 82.0498,-292.5 19.0869,-292.5"/>
<text text-anchor="middle" x="50.5684" y="-364.5" font-family="Helvetica,sans-Serif" font-size="10.00" fill="#000000">Stream</text>
<polyline fill="none" stroke="#000000" points="19.0869,-358.5 82.0498,-358.5 "/>
<text text-anchor="middle" x="50.5684" y="-346.5" font-family="Helvetica,sans-Serif" font-size="10.00" fill="#000000"> </text>
<polyline fill="none" stroke="#000000" points="19.0869,-340.5 82.0498,-340.5 "/>
<text text-anchor="start" x="27.0869" y="-328.5" font-family="Helvetica,sans-Serif" font-size="10.00" fill="#000000">+ read()</text>
<text text-anchor="start" x="27.0869" y="-318.5" font-family="Helvetica,sans-Serif" font-size="10.00" fill="#000000">+ write()</text>
<text text-anchor="start" x="27.0869" y="-308.5" font-family="Helvetica,sans-Serif" font-size="10.00" fill="#000000">+ close()</text>
<text text-anchor="start" x="27.0869" y="-298.5" font-family="Helvetica,sans-Serif" font-size="10.00" fill="#000000">+ copyTo()</text>
</a>
</g>
</g>
<!-- Node1&#45;&gt;Node0 -->
<g id="edge1" class="edge">
<title>Node1&#45;&gt;Node0</title>
<path fill="none" stroke="#191970" d="M50.5684,-282.0637C50.5684,-273.4995 50.5684,-264.5242 50.5684,-255.6643"/>
<polygon fill="none" stroke="#191970" points="47.0685,-282.2707 50.5684,-292.2708 54.0685,-282.2708 47.0685,-282.2707"/>
</g>
<!-- Node2 -->
<g id="node3" class="node">
<title>Node2</title>
<g id="a_node3"><a xlink:href="../../db/d38/interfaceobject.html" target="_top" xlink:title="All objects inherit from this. ">
<polygon fill="#ffffff" stroke="#000000" points="17.4243,-413.5 17.4243,-497.5 83.7124,-497.5 83.7124,-413.5 17.4243,-413.5"/>
<text text-anchor="middle" x="50.5684" y="-485.5" font-family="Helvetica,sans-Serif" font-size="10.00" fill="#000000">object</text>
<polyline fill="none" stroke="#000000" points="17.4243,-479.5 83.7124,-479.5 "/>
<text text-anchor="middle" x="50.5684" y="-467.5" font-family="Helvetica,sans-Serif" font-size="10.00" fill="#000000"> </text>
<polyline fill="none" stroke="#000000" points="17.4243,-461.5 83.7124,-461.5 "/>
<text text-anchor="start" x="25.4243" y="-449.5" font-family="Helvetica,sans-Serif" font-size="10.00" fill="#000000">+ dispose()</text>
<text text-anchor="start" x="25.4243" y="-439.5" font-family="Helvetica,sans-Serif" font-size="10.00" fill="#000000">+ toString()</text>
<text text-anchor="start" x="25.4243" y="-429.5" font-family="Helvetica,sans-Serif" font-size="10.00" fill="#000000">+ toJSON()</text>
<text text-anchor="start" x="25.4243" y="-419.5" font-family="Helvetica,sans-Serif" font-size="10.00" fill="#000000">+ valueOf()</text>
</a>
</g>
</g>
<!-- Node2&#45;&gt;Node1 -->
<g id="edge2" class="edge">
<title>Node2&#45;&gt;Node1</title>
<path fill="none" stroke="#191970" d="M50.5684,-402.977C50.5684,-394.1562 50.5684,-385.1052 50.5684,-376.5917"/>
<polygon fill="none" stroke="#191970" points="47.0685,-403.18 50.5684,-413.1801 54.0685,-403.1801 47.0685,-403.18"/>
</g>
</g>
</svg>
