<?xml version="1.0" encoding="UTF-8" standalone="no"?>
<!DOCTYPE svg PUBLIC "-//W3C//DTD SVG 1.1//EN"
 "http://www.w3.org/Graphics/SVG/1.1/DTD/svg11.dtd">
<!-- Generated by graphviz version 2.38.0 (20140413.2041)
 -->
<!-- Title: WebSocketHandler Pages: 1 -->
<svg width="125pt" height="295pt"
 viewBox="0.00 0.00 125.25 295.00" xmlns="http://www.w3.org/2000/svg" xmlns:xlink="http://www.w3.org/1999/xlink">
<g id="graph0" class="graph" transform="scale(1 1) rotate(0) translate(4 291)">
<title>WebSocketHandler</title>
<polygon fill="white" stroke="none" points="-4,4 -4,-291 121.255,-291 121.255,4 -4,4"/>
<!-- Node1 -->
<g id="node1" class="node"><title>Node1</title>
<polygon fill="#bfbfbf" stroke="black" points="0,-0.5 0,-74.5 117.255,-74.5 117.255,-0.5 0,-0.5"/>
<text text-anchor="middle" x="58.6274" y="-62.5" font-family="Helvetica,sans-Serif" font-size="10.00">WebSocketHandler</text>
<polyline fill="none" stroke="black" points="0,-56.5 117.255,-56.5 "/>
<text text-anchor="start" x="8" y="-44.5" font-family="Helvetica,sans-Serif" font-size="10.00">+ maxSize</text>
<text text-anchor="start" x="8" y="-34.5" font-family="Helvetica,sans-Serif" font-size="10.00">+ handler</text>
<text text-anchor="start" x="8" y="-24.5" font-family="Helvetica,sans-Serif" font-size="10.00">+ stats</text>
<polyline fill="none" stroke="black" points="0,-18.5 117.255,-18.5 "/>
<text text-anchor="start" x="8" y="-6.5" font-family="Helvetica,sans-Serif" font-size="10.00">+ WebSocketHandler()</text>
</g>
<!-- Node2 -->
<g id="node2" class="node"><title>Node2</title>
<g id="a_node2"><a xlink:href="../../da/d85/interfaceHandler.html" target="_top" xlink:title="Meassage Handler Interface. ">
<polygon fill="white" stroke="black" points="28.5352,-111.5 28.5352,-165.5 88.7197,-165.5 88.7197,-111.5 28.5352,-111.5"/>
<text text-anchor="middle" x="58.6274" y="-153.5" font-family="Helvetica,sans-Serif" font-size="10.00">Handler</text>
<polyline fill="none" stroke="black" points="28.5352,-147.5 88.7197,-147.5 "/>
<text text-anchor="middle" x="58.6274" y="-135.5" font-family="Helvetica,sans-Serif" font-size="10.00"> </text>
<polyline fill="none" stroke="black" points="28.5352,-129.5 88.7197,-129.5 "/>
<text text-anchor="start" x="36.5352" y="-117.5" font-family="Helvetica,sans-Serif" font-size="10.00">+ invoke()</text>
</a>
</g>
</g>
<!-- Node2&#45;&gt;Node1 -->
<g id="edge1" class="edge"><title>Node2&#45;&gt;Node1</title>
<path fill="none" stroke="midnightblue" d="M58.6274,-101.304C58.6274,-92.6514 58.6274,-83.4132 58.6274,-74.7579"/>
<polygon fill="none" stroke="midnightblue" points="55.1275,-101.489 58.6274,-111.489 62.1275,-101.489 55.1275,-101.489"/>
</g>
<!-- Node3 -->
<g id="node3" class="node"><title>Node3</title>
<g id="a_node3"><a xlink:href="../../db/d38/interfaceobject.html" target="_top" xlink:title="All objects inherit from this. ">
<polygon fill="white" stroke="black" points="25.4834,-202.5 25.4834,-286.5 91.7715,-286.5 91.7715,-202.5 25.4834,-202.5"/>
<text text-anchor="middle" x="58.6274" y="-274.5" font-family="Helvetica,sans-Serif" font-size="10.00">object</text>
<polyline fill="none" stroke="black" points="25.4834,-268.5 91.7715,-268.5 "/>
<text text-anchor="middle" x="58.6274" y="-256.5" font-family="Helvetica,sans-Serif" font-size="10.00"> </text>
<polyline fill="none" stroke="black" points="25.4834,-250.5 91.7715,-250.5 "/>
<text text-anchor="start" x="33.4834" y="-238.5" font-family="Helvetica,sans-Serif" font-size="10.00">+ dispose()</text>
<text text-anchor="start" x="33.4834" y="-228.5" font-family="Helvetica,sans-Serif" font-size="10.00">+ toString()</text>
<text text-anchor="start" x="33.4834" y="-218.5" font-family="Helvetica,sans-Serif" font-size="10.00">+ toJSON()</text>
<text text-anchor="start" x="33.4834" y="-208.5" font-family="Helvetica,sans-Serif" font-size="10.00">+ valueOf()</text>
</a>
</g>
</g>
<!-- Node3&#45;&gt;Node2 -->
<g id="edge2" class="edge"><title>Node3&#45;&gt;Node2</title>
<path fill="none" stroke="midnightblue" d="M58.6274,-192.111C58.6274,-182.937 58.6274,-173.738 58.6274,-165.655"/>
<polygon fill="none" stroke="midnightblue" points="55.1275,-192.396 58.6274,-202.396 62.1275,-192.396 55.1275,-192.396"/>
</g>
</g>
</svg>
