<?xml version="1.0" encoding="UTF-8" standalone="no"?>
<!DOCTYPE svg PUBLIC "-//W3C//DTD SVG 1.1//EN"
 "http://www.w3.org/Graphics/SVG/1.1/DTD/svg11.dtd">
<!-- Generated by graphviz version 2.38.0 (20140413.2041)
 -->
<!-- Title: XmlDocumentFragment Pages: 1 -->
<svg width="130pt" height="425pt"
 viewBox="0.00 0.00 129.59 425.00" xmlns="http://www.w3.org/2000/svg" xmlns:xlink="http://www.w3.org/1999/xlink">
<g id="graph0" class="graph" transform="scale(1 1) rotate(0) translate(4 421)">
<title>XmlDocumentFragment</title>
<polygon fill="white" stroke="none" points="-4,4 -4,-421 125.591,-421 125.591,4 -4,4"/>
<!-- Node1 -->
<g id="node1" class="node"><title>Node1</title>
<polygon fill="#bfbfbf" stroke="black" points="0,-0.5 0,-54.5 121.591,-54.5 121.591,-0.5 0,-0.5"/>
<text text-anchor="middle" x="60.7954" y="-42.5" font-family="Helvetica,sans-Serif" font-size="10.00">XmlDocumentFragment</text>
<polyline fill="none" stroke="black" points="0,-36.5 121.591,-36.5 "/>
<text text-anchor="middle" x="60.7954" y="-24.5" font-family="Helvetica,sans-Serif" font-size="10.00"> </text>
<polyline fill="none" stroke="black" points="0,-18.5 121.591,-18.5 "/>
<text text-anchor="middle" x="60.7954" y="-6.5" font-family="Helvetica,sans-Serif" font-size="10.00"> </text>
</g>
<!-- Node2 -->
<g id="node2" class="node"><title>Node2</title>
<g id="a_node2"><a xlink:href="../../dc/d8f/interfaceXmlNode.html" target="_top" xlink:title="XmlNode 对象是整个 DOM 的基础数据类型 ">
<polygon fill="white" stroke="black" points="11.2476,-91.5 11.2476,-295.5 110.343,-295.5 110.343,-91.5 11.2476,-91.5"/>
<text text-anchor="middle" x="60.7954" y="-283.5" font-family="Helvetica,sans-Serif" font-size="10.00">XmlNode</text>
<polyline fill="none" stroke="black" points="11.2476,-277.5 110.343,-277.5 "/>
<text text-anchor="start" x="19.2476" y="-265.5" font-family="Helvetica,sans-Serif" font-size="10.00">+ nodeName</text>
<text text-anchor="start" x="19.2476" y="-255.5" font-family="Helvetica,sans-Serif" font-size="10.00">+ nodeValue</text>
<text text-anchor="start" x="19.2476" y="-245.5" font-family="Helvetica,sans-Serif" font-size="10.00">+ nodeType</text>
<text text-anchor="start" x="19.2476" y="-235.5" font-family="Helvetica,sans-Serif" font-size="10.00">+ parentNode</text>
<text text-anchor="start" x="19.2476" y="-225.5" font-family="Helvetica,sans-Serif" font-size="10.00">+ childNodes</text>
<text text-anchor="start" x="19.2476" y="-215.5" font-family="Helvetica,sans-Serif" font-size="10.00">+ firstChild</text>
<text text-anchor="start" x="19.2476" y="-205.5" font-family="Helvetica,sans-Serif" font-size="10.00">+ lastChild</text>
<text text-anchor="start" x="19.2476" y="-195.5" font-family="Helvetica,sans-Serif" font-size="10.00">+ previousSibling</text>
<text text-anchor="start" x="19.2476" y="-185.5" font-family="Helvetica,sans-Serif" font-size="10.00">+ nextSibling</text>
<text text-anchor="start" x="19.2476" y="-175.5" font-family="Helvetica,sans-Serif" font-size="10.00">+ ownerDocument</text>
<polyline fill="none" stroke="black" points="11.2476,-169.5 110.343,-169.5 "/>
<text text-anchor="start" x="19.2476" y="-157.5" font-family="Helvetica,sans-Serif" font-size="10.00">+ insertBefore()</text>
<text text-anchor="start" x="19.2476" y="-147.5" font-family="Helvetica,sans-Serif" font-size="10.00">+ replaceChild()</text>
<text text-anchor="start" x="19.2476" y="-137.5" font-family="Helvetica,sans-Serif" font-size="10.00">+ removeChild()</text>
<text text-anchor="start" x="19.2476" y="-127.5" font-family="Helvetica,sans-Serif" font-size="10.00">+ appendChild()</text>
<text text-anchor="start" x="19.2476" y="-117.5" font-family="Helvetica,sans-Serif" font-size="10.00">+ hasChildNodes()</text>
<text text-anchor="start" x="19.2476" y="-107.5" font-family="Helvetica,sans-Serif" font-size="10.00">+ cloneNode()</text>
<text text-anchor="start" x="19.2476" y="-97.5" font-family="Helvetica,sans-Serif" font-size="10.00">+ normalize()</text>
</a>
</g>
</g>
<!-- Node2&#45;&gt;Node1 -->
<g id="edge1" class="edge"><title>Node2&#45;&gt;Node1</title>
<path fill="none" stroke="midnightblue" d="M60.7954,-81.4171C60.7954,-71.585 60.7954,-62.3939 60.7954,-54.5203"/>
<polygon fill="none" stroke="midnightblue" points="57.2955,-81.4376 60.7954,-91.4377 64.2955,-81.4377 57.2955,-81.4376"/>
</g>
<!-- Node3 -->
<g id="node3" class="node"><title>Node3</title>
<g id="a_node3"><a xlink:href="../../db/d38/interfaceobject.html" target="_top" xlink:title="基础对象，所有对象均继承于此 ">
<polygon fill="white" stroke="black" points="27.6514,-332.5 27.6514,-416.5 93.9395,-416.5 93.9395,-332.5 27.6514,-332.5"/>
<text text-anchor="middle" x="60.7954" y="-404.5" font-family="Helvetica,sans-Serif" font-size="10.00">object</text>
<polyline fill="none" stroke="black" points="27.6514,-398.5 93.9395,-398.5 "/>
<text text-anchor="middle" x="60.7954" y="-386.5" font-family="Helvetica,sans-Serif" font-size="10.00"> </text>
<polyline fill="none" stroke="black" points="27.6514,-380.5 93.9395,-380.5 "/>
<text text-anchor="start" x="35.6514" y="-368.5" font-family="Helvetica,sans-Serif" font-size="10.00">+ dispose()</text>
<text text-anchor="start" x="35.6514" y="-358.5" font-family="Helvetica,sans-Serif" font-size="10.00">+ toString()</text>
<text text-anchor="start" x="35.6514" y="-348.5" font-family="Helvetica,sans-Serif" font-size="10.00">+ toJSON()</text>
<text text-anchor="start" x="35.6514" y="-338.5" font-family="Helvetica,sans-Serif" font-size="10.00">+ valueOf()</text>
</a>
</g>
</g>
<!-- Node3&#45;&gt;Node2 -->
<g id="edge2" class="edge"><title>Node3&#45;&gt;Node2</title>
<path fill="none" stroke="midnightblue" d="M60.7954,-322.155C60.7954,-313.787 60.7954,-304.87 60.7954,-295.789"/>
<polygon fill="none" stroke="midnightblue" points="57.2955,-322.434 60.7954,-332.434 64.2955,-322.434 57.2955,-322.434"/>
</g>
</g>
</svg>
