<?xml version="1.0" encoding="UTF-8" standalone="no"?>
<!DOCTYPE svg PUBLIC "-//W3C//DTD SVG 1.1//EN"
 "http://www.w3.org/Graphics/SVG/1.1/DTD/svg11.dtd">
<!-- Generated by graphviz version 2.38.0 (20140413.2041)
 -->
<!-- Title: DBRow Pages: 1 -->
<svg width="102pt" height="204pt"
 viewBox="0.00 0.00 101.54 204.00" xmlns="http://www.w3.org/2000/svg" xmlns:xlink="http://www.w3.org/1999/xlink">
<g id="graph0" class="graph" transform="scale(1 1) rotate(0) translate(4 200)">
<title>DBRow</title>
<polygon fill="white" stroke="none" points="-4,4 -4,-200 97.5439,-200 97.5439,4 -4,4"/>
<!-- Node1 -->
<g id="node1" class="node"><title>Node1</title>
<polygon fill="#bfbfbf" stroke="black" points="0,-0.5 0,-64.5 93.5439,-64.5 93.5439,-0.5 0,-0.5"/>
<text text-anchor="middle" x="46.772" y="-52.5" font-family="Helvetica,sans-Serif" font-size="10.00">DBRow</text>
<polyline fill="none" stroke="black" points="0,-46.5 93.5439,-46.5 "/>
<text text-anchor="start" x="8" y="-34.5" font-family="Helvetica,sans-Serif" font-size="10.00">+ operator[]</text>
<text text-anchor="start" x="8" y="-24.5" font-family="Helvetica,sans-Serif" font-size="10.00">+ operator[String]</text>
<polyline fill="none" stroke="black" points="0,-18.5 93.5439,-18.5 "/>
<text text-anchor="middle" x="46.772" y="-6.5" font-family="Helvetica,sans-Serif" font-size="10.00"> </text>
</g>
<!-- Node2 -->
<g id="node2" class="node"><title>Node2</title>
<g id="a_node2"><a xlink:href="../../db/d38/interfaceobject.html" target="_top" xlink:title="基础对象，所有对象均继承于此 ">
<polygon fill="white" stroke="black" points="13.6279,-101.5 13.6279,-195.5 79.916,-195.5 79.916,-101.5 13.6279,-101.5"/>
<text text-anchor="middle" x="46.772" y="-183.5" font-family="Helvetica,sans-Serif" font-size="10.00">object</text>
<polyline fill="none" stroke="black" points="13.6279,-177.5 79.916,-177.5 "/>
<text text-anchor="middle" x="46.772" y="-165.5" font-family="Helvetica,sans-Serif" font-size="10.00"> </text>
<polyline fill="none" stroke="black" points="13.6279,-159.5 79.916,-159.5 "/>
<text text-anchor="start" x="21.6279" y="-147.5" font-family="Helvetica,sans-Serif" font-size="10.00">+ dispose()</text>
<text text-anchor="start" x="21.6279" y="-137.5" font-family="Helvetica,sans-Serif" font-size="10.00">+ equals()</text>
<text text-anchor="start" x="21.6279" y="-127.5" font-family="Helvetica,sans-Serif" font-size="10.00">+ toString()</text>
<text text-anchor="start" x="21.6279" y="-117.5" font-family="Helvetica,sans-Serif" font-size="10.00">+ toJSON()</text>
<text text-anchor="start" x="21.6279" y="-107.5" font-family="Helvetica,sans-Serif" font-size="10.00">+ valueOf()</text>
</a>
</g>
</g>
<!-- Node2&#45;&gt;Node1 -->
<g id="edge1" class="edge"><title>Node2&#45;&gt;Node1</title>
<path fill="none" stroke="midnightblue" d="M46.772,-91.2119C46.772,-82.0811 46.772,-72.926 46.772,-64.684"/>
<polygon fill="none" stroke="midnightblue" points="43.2721,-91.4604 46.772,-101.46 50.2721,-91.4605 43.2721,-91.4604"/>
</g>
</g>
</svg>
