<?xml version="1.0" encoding="UTF-8" standalone="no"?>
<!DOCTYPE svg PUBLIC "-//W3C//DTD SVG 1.1//EN"
 "http://www.w3.org/Graphics/SVG/1.1/DTD/svg11.dtd">
<!-- Generated by graphviz version 2.40.1 (20161225.0304)
 -->
<!-- Title: XmlNode Pages: 1 -->
<svg width="753pt" height="807pt"
 viewBox="0.00 0.00 752.69 807.00" xmlns="http://www.w3.org/2000/svg" xmlns:xlink="http://www.w3.org/1999/xlink">
<g id="graph0" class="graph" transform="scale(1 1) rotate(0) translate(4 803)">
<title>XmlNode</title>
<polygon fill="#ffffff" stroke="transparent" points="-4,4 -4,-803 748.6943,-803 748.6943,4 -4,4"/>
<!-- Node0 -->
<g id="node1" class="node">
<title>Node0</title>
<polygon fill="#bfbfbf" stroke="#000000" points="308.6196,-443.5 308.6196,-677.5 439.9468,-677.5 439.9468,-443.5 308.6196,-443.5"/>
<text text-anchor="middle" x="374.2832" y="-665.5" font-family="Helvetica,sans-Serif" font-size="10.00" fill="#000000">XmlNode</text>
<polyline fill="none" stroke="#000000" points="308.6196,-659.5 439.9468,-659.5 "/>
<text text-anchor="start" x="316.6196" y="-647.5" font-family="Helvetica,sans-Serif" font-size="10.00" fill="#000000">+ nodeType</text>
<text text-anchor="start" x="316.6196" y="-637.5" font-family="Helvetica,sans-Serif" font-size="10.00" fill="#000000">+ nodeName</text>
<text text-anchor="start" x="316.6196" y="-627.5" font-family="Helvetica,sans-Serif" font-size="10.00" fill="#000000">+ nodeValue</text>
<text text-anchor="start" x="316.6196" y="-617.5" font-family="Helvetica,sans-Serif" font-size="10.00" fill="#000000">+ ownerDocument</text>
<text text-anchor="start" x="316.6196" y="-607.5" font-family="Helvetica,sans-Serif" font-size="10.00" fill="#000000">+ parentNode</text>
<text text-anchor="start" x="316.6196" y="-597.5" font-family="Helvetica,sans-Serif" font-size="10.00" fill="#000000">+ childNodes</text>
<text text-anchor="start" x="316.6196" y="-587.5" font-family="Helvetica,sans-Serif" font-size="10.00" fill="#000000">+ firstChild</text>
<text text-anchor="start" x="316.6196" y="-577.5" font-family="Helvetica,sans-Serif" font-size="10.00" fill="#000000">+ lastChild</text>
<text text-anchor="start" x="316.6196" y="-567.5" font-family="Helvetica,sans-Serif" font-size="10.00" fill="#000000">+ previousSibling</text>
<text text-anchor="start" x="316.6196" y="-557.5" font-family="Helvetica,sans-Serif" font-size="10.00" fill="#000000">+ nextSibling</text>
<polyline fill="none" stroke="#000000" points="308.6196,-551.5 439.9468,-551.5 "/>
<text text-anchor="start" x="316.6196" y="-539.5" font-family="Helvetica,sans-Serif" font-size="10.00" fill="#000000">+ hasChildNodes()</text>
<text text-anchor="start" x="316.6196" y="-529.5" font-family="Helvetica,sans-Serif" font-size="10.00" fill="#000000">+ normalize()</text>
<text text-anchor="start" x="316.6196" y="-519.5" font-family="Helvetica,sans-Serif" font-size="10.00" fill="#000000">+ cloneNode()</text>
<text text-anchor="start" x="316.6196" y="-509.5" font-family="Helvetica,sans-Serif" font-size="10.00" fill="#000000">+ lookupPrefix()</text>
<text text-anchor="start" x="316.6196" y="-499.5" font-family="Helvetica,sans-Serif" font-size="10.00" fill="#000000">+ lookupNamespaceURI()</text>
<text text-anchor="start" x="316.6196" y="-489.5" font-family="Helvetica,sans-Serif" font-size="10.00" fill="#000000">+ insertBefore()</text>
<text text-anchor="start" x="316.6196" y="-479.5" font-family="Helvetica,sans-Serif" font-size="10.00" fill="#000000">+ insertAfter()</text>
<text text-anchor="start" x="316.6196" y="-469.5" font-family="Helvetica,sans-Serif" font-size="10.00" fill="#000000">+ appendChild()</text>
<text text-anchor="start" x="316.6196" y="-459.5" font-family="Helvetica,sans-Serif" font-size="10.00" fill="#000000">+ replaceChild()</text>
<text text-anchor="start" x="316.6196" y="-449.5" font-family="Helvetica,sans-Serif" font-size="10.00" fill="#000000">+ removeChild()</text>
</g>
<!-- Node2 -->
<g id="node3" class="node">
<title>Node2</title>
<g id="a_node3"><a xlink:href="$d7/d50/interfaceXmlCharacterData.html" xlink:title="XmlCharacterData provides common features to XmlText and XmlComment. ">
<polygon fill="#ffffff" stroke="#000000" points="34.1577,-242.5 34.1577,-346.5 132.4087,-346.5 132.4087,-242.5 34.1577,-242.5"/>
<text text-anchor="middle" x="83.2832" y="-334.5" font-family="Helvetica,sans-Serif" font-size="10.00" fill="#000000">XmlCharacterData</text>
<polyline fill="none" stroke="#000000" points="34.1577,-328.5 132.4087,-328.5 "/>
<text text-anchor="start" x="42.1577" y="-316.5" font-family="Helvetica,sans-Serif" font-size="10.00" fill="#000000">+ data</text>
<text text-anchor="start" x="42.1577" y="-306.5" font-family="Helvetica,sans-Serif" font-size="10.00" fill="#000000">+ length</text>
<polyline fill="none" stroke="#000000" points="34.1577,-300.5 132.4087,-300.5 "/>
<text text-anchor="start" x="42.1577" y="-288.5" font-family="Helvetica,sans-Serif" font-size="10.00" fill="#000000">+ substringData()</text>
<text text-anchor="start" x="42.1577" y="-278.5" font-family="Helvetica,sans-Serif" font-size="10.00" fill="#000000">+ appendData()</text>
<text text-anchor="start" x="42.1577" y="-268.5" font-family="Helvetica,sans-Serif" font-size="10.00" fill="#000000">+ insertData()</text>
<text text-anchor="start" x="42.1577" y="-258.5" font-family="Helvetica,sans-Serif" font-size="10.00" fill="#000000">+ deleteData()</text>
<text text-anchor="start" x="42.1577" y="-248.5" font-family="Helvetica,sans-Serif" font-size="10.00" fill="#000000">+ replaceData()</text>
</a>
</g>
</g>
<!-- Node0&#45;&gt;Node2 -->
<g id="edge2" class="edge">
<title>Node0&#45;&gt;Node2</title>
<path fill="none" stroke="#191970" d="M299.2897,-524.0897C249.6687,-497.1117 185.789,-456.5183 141.2832,-407 125.5661,-389.5128 112.8551,-366.9902 103.3829,-346.6966"/>
<polygon fill="none" stroke="#191970" points="297.9147,-527.3239 308.3812,-528.9677 301.2243,-521.1557 297.9147,-527.3239"/>
</g>
<!-- Node6 -->
<g id="node7" class="node">
<title>Node6</title>
<g id="a_node7"><a xlink:href="$d6/d47/interfaceXmlDocument.html" xlink:title="XmlDocument object represents an XML document. ">
<polygon fill="#ffffff" stroke="#000000" points="150.6714,-182.5 150.6714,-406.5 305.895,-406.5 305.895,-182.5 150.6714,-182.5"/>
<text text-anchor="middle" x="228.2832" y="-394.5" font-family="Helvetica,sans-Serif" font-size="10.00" fill="#000000">XmlDocument</text>
<polyline fill="none" stroke="#000000" points="150.6714,-388.5 305.895,-388.5 "/>
<text text-anchor="start" x="158.6714" y="-376.5" font-family="Helvetica,sans-Serif" font-size="10.00" fill="#000000">+ inputEncoding</text>
<text text-anchor="start" x="158.6714" y="-366.5" font-family="Helvetica,sans-Serif" font-size="10.00" fill="#000000">+ xmlStandalone</text>
<text text-anchor="start" x="158.6714" y="-356.5" font-family="Helvetica,sans-Serif" font-size="10.00" fill="#000000">+ xmlVersion</text>
<text text-anchor="start" x="158.6714" y="-346.5" font-family="Helvetica,sans-Serif" font-size="10.00" fill="#000000">+ doctype</text>
<text text-anchor="start" x="158.6714" y="-336.5" font-family="Helvetica,sans-Serif" font-size="10.00" fill="#000000">+ documentElement</text>
<text text-anchor="start" x="158.6714" y="-326.5" font-family="Helvetica,sans-Serif" font-size="10.00" fill="#000000">+ head</text>
<text text-anchor="start" x="158.6714" y="-316.5" font-family="Helvetica,sans-Serif" font-size="10.00" fill="#000000">+ title</text>
<text text-anchor="start" x="158.6714" y="-306.5" font-family="Helvetica,sans-Serif" font-size="10.00" fill="#000000">+ body</text>
<polyline fill="none" stroke="#000000" points="150.6714,-300.5 305.895,-300.5 "/>
<text text-anchor="start" x="158.6714" y="-288.5" font-family="Helvetica,sans-Serif" font-size="10.00" fill="#000000">+ XmlDocument()</text>
<text text-anchor="start" x="158.6714" y="-278.5" font-family="Helvetica,sans-Serif" font-size="10.00" fill="#000000">+ load()</text>
<text text-anchor="start" x="158.6714" y="-268.5" font-family="Helvetica,sans-Serif" font-size="10.00" fill="#000000">+ load()</text>
<text text-anchor="start" x="158.6714" y="-258.5" font-family="Helvetica,sans-Serif" font-size="10.00" fill="#000000">+ getElementsByTagName()</text>
<text text-anchor="start" x="158.6714" y="-248.5" font-family="Helvetica,sans-Serif" font-size="10.00" fill="#000000">+ getElementsByTagNameNS()</text>
<text text-anchor="start" x="158.6714" y="-238.5" font-family="Helvetica,sans-Serif" font-size="10.00" fill="#000000">+ createElement()</text>
<text text-anchor="start" x="158.6714" y="-228.5" font-family="Helvetica,sans-Serif" font-size="10.00" fill="#000000">+ createElementNS()</text>
<text text-anchor="start" x="158.6714" y="-218.5" font-family="Helvetica,sans-Serif" font-size="10.00" fill="#000000">+ createTextNode()</text>
<text text-anchor="start" x="158.6714" y="-208.5" font-family="Helvetica,sans-Serif" font-size="10.00" fill="#000000">+ createComment()</text>
<text text-anchor="start" x="158.6714" y="-198.5" font-family="Helvetica,sans-Serif" font-size="10.00" fill="#000000">+ createCDATASection()</text>
<text text-anchor="start" x="158.6714" y="-188.5" font-family="Helvetica,sans-Serif" font-size="10.00" fill="#000000">+ createProcessingInstruction()</text>
</a>
</g>
</g>
<!-- Node0&#45;&gt;Node6 -->
<g id="edge6" class="edge">
<title>Node0&#45;&gt;Node6</title>
<path fill="none" stroke="#191970" d="M305.1271,-434.5033C299.9987,-425.1597 294.8449,-415.7699 289.7673,-406.5189"/>
<polygon fill="none" stroke="#191970" points="302.1531,-436.3592 310.033,-443.4414 308.2896,-432.991 302.1531,-436.3592"/>
</g>
<!-- Node7 -->
<g id="node8" class="node">
<title>Node7</title>
<g id="a_node8"><a xlink:href="$d4/d35/interfaceXmlDocumentType.html" xlink:title="XmlDocumentType object has access to XML actual body. ">
<polygon fill="#ffffff" stroke="#000000" points="324.042,-257.5 324.042,-331.5 424.5244,-331.5 424.5244,-257.5 324.042,-257.5"/>
<text text-anchor="middle" x="374.2832" y="-319.5" font-family="Helvetica,sans-Serif" font-size="10.00" fill="#000000">XmlDocumentType</text>
<polyline fill="none" stroke="#000000" points="324.042,-313.5 424.5244,-313.5 "/>
<text text-anchor="start" x="332.042" y="-301.5" font-family="Helvetica,sans-Serif" font-size="10.00" fill="#000000">+ name</text>
<text text-anchor="start" x="332.042" y="-291.5" font-family="Helvetica,sans-Serif" font-size="10.00" fill="#000000">+ publicId</text>
<text text-anchor="start" x="332.042" y="-281.5" font-family="Helvetica,sans-Serif" font-size="10.00" fill="#000000">+ systemId</text>
<polyline fill="none" stroke="#000000" points="324.042,-275.5 424.5244,-275.5 "/>
<text text-anchor="middle" x="374.2832" y="-263.5" font-family="Helvetica,sans-Serif" font-size="10.00" fill="#000000"> </text>
</a>
</g>
</g>
<!-- Node0&#45;&gt;Node7 -->
<g id="edge7" class="edge">
<title>Node0&#45;&gt;Node7</title>
<path fill="none" stroke="#191970" d="M374.2832,-433.022C374.2832,-395.9925 374.2832,-358.3913 374.2832,-331.7263"/>
<polygon fill="none" stroke="#191970" points="370.7833,-433.4414 374.2832,-443.4414 377.7833,-433.4415 370.7833,-433.4414"/>
</g>
<!-- Node8 -->
<g id="node9" class="node">
<title>Node8</title>
<g id="a_node9"><a xlink:href="$d7/ddb/interfaceXmlElement.html" xlink:title="XmlElement object represents XML element in document. ">
<polygon fill="#ffffff" stroke="#000000" points="442.6714,-182.5 442.6714,-406.5 597.895,-406.5 597.895,-182.5 442.6714,-182.5"/>
<text text-anchor="middle" x="520.2832" y="-394.5" font-family="Helvetica,sans-Serif" font-size="10.00" fill="#000000">XmlElement</text>
<polyline fill="none" stroke="#000000" points="442.6714,-388.5 597.895,-388.5 "/>
<text text-anchor="start" x="450.6714" y="-376.5" font-family="Helvetica,sans-Serif" font-size="10.00" fill="#000000">+ namespaceURI</text>
<text text-anchor="start" x="450.6714" y="-366.5" font-family="Helvetica,sans-Serif" font-size="10.00" fill="#000000">+ prefix</text>
<text text-anchor="start" x="450.6714" y="-356.5" font-family="Helvetica,sans-Serif" font-size="10.00" fill="#000000">+ localName</text>
<text text-anchor="start" x="450.6714" y="-346.5" font-family="Helvetica,sans-Serif" font-size="10.00" fill="#000000">+ tagName</text>
<text text-anchor="start" x="450.6714" y="-336.5" font-family="Helvetica,sans-Serif" font-size="10.00" fill="#000000">+ id</text>
<text text-anchor="start" x="450.6714" y="-326.5" font-family="Helvetica,sans-Serif" font-size="10.00" fill="#000000">+ textContent</text>
<text text-anchor="start" x="450.6714" y="-316.5" font-family="Helvetica,sans-Serif" font-size="10.00" fill="#000000">+ innerHTML</text>
<text text-anchor="start" x="450.6714" y="-306.5" font-family="Helvetica,sans-Serif" font-size="10.00" fill="#000000">+ className</text>
<text text-anchor="start" x="450.6714" y="-296.5" font-family="Helvetica,sans-Serif" font-size="10.00" fill="#000000">+ attributes</text>
<polyline fill="none" stroke="#000000" points="442.6714,-290.5 597.895,-290.5 "/>
<text text-anchor="start" x="450.6714" y="-278.5" font-family="Helvetica,sans-Serif" font-size="10.00" fill="#000000">+ getAttribute()</text>
<text text-anchor="start" x="450.6714" y="-268.5" font-family="Helvetica,sans-Serif" font-size="10.00" fill="#000000">+ getAttributeNS()</text>
<text text-anchor="start" x="450.6714" y="-258.5" font-family="Helvetica,sans-Serif" font-size="10.00" fill="#000000">+ setAttribute()</text>
<text text-anchor="start" x="450.6714" y="-248.5" font-family="Helvetica,sans-Serif" font-size="10.00" fill="#000000">+ setAttributeNS()</text>
<text text-anchor="start" x="450.6714" y="-238.5" font-family="Helvetica,sans-Serif" font-size="10.00" fill="#000000">+ removeAttribute()</text>
<text text-anchor="start" x="450.6714" y="-228.5" font-family="Helvetica,sans-Serif" font-size="10.00" fill="#000000">+ removeAttributeNS()</text>
<text text-anchor="start" x="450.6714" y="-218.5" font-family="Helvetica,sans-Serif" font-size="10.00" fill="#000000">+ hasAttribute()</text>
<text text-anchor="start" x="450.6714" y="-208.5" font-family="Helvetica,sans-Serif" font-size="10.00" fill="#000000">+ hasAttributeNS()</text>
<text text-anchor="start" x="450.6714" y="-198.5" font-family="Helvetica,sans-Serif" font-size="10.00" fill="#000000">+ getElementsByTagName()</text>
<text text-anchor="start" x="450.6714" y="-188.5" font-family="Helvetica,sans-Serif" font-size="10.00" fill="#000000">+ getElementsByTagNameNS()</text>
</a>
</g>
</g>
<!-- Node0&#45;&gt;Node8 -->
<g id="edge8" class="edge">
<title>Node0&#45;&gt;Node8</title>
<path fill="none" stroke="#191970" d="M443.4393,-434.5033C448.5677,-425.1597 453.7216,-415.7699 458.7991,-406.5189"/>
<polygon fill="none" stroke="#191970" points="440.2768,-432.991 438.5334,-443.4414 446.4133,-436.3592 440.2768,-432.991"/>
</g>
<!-- Node9 -->
<g id="node10" class="node">
<title>Node9</title>
<g id="a_node10"><a xlink:href="$da/df6/interfaceXmlProcessingInstruction.html" xlink:title="XmlProcessingInstruction object represents an XML processing instruction. ">
<polygon fill="#ffffff" stroke="#000000" points="615.8721,-262.5 615.8721,-326.5 744.6943,-326.5 744.6943,-262.5 615.8721,-262.5"/>
<text text-anchor="middle" x="680.2832" y="-314.5" font-family="Helvetica,sans-Serif" font-size="10.00" fill="#000000">XmlProcessingInstruction</text>
<polyline fill="none" stroke="#000000" points="615.8721,-308.5 744.6943,-308.5 "/>
<text text-anchor="start" x="623.8721" y="-296.5" font-family="Helvetica,sans-Serif" font-size="10.00" fill="#000000">+ target</text>
<text text-anchor="start" x="623.8721" y="-286.5" font-family="Helvetica,sans-Serif" font-size="10.00" fill="#000000">+ data</text>
<polyline fill="none" stroke="#000000" points="615.8721,-280.5 744.6943,-280.5 "/>
<text text-anchor="middle" x="680.2832" y="-268.5" font-family="Helvetica,sans-Serif" font-size="10.00" fill="#000000"> </text>
</a>
</g>
</g>
<!-- Node0&#45;&gt;Node9 -->
<g id="edge9" class="edge">
<title>Node0&#45;&gt;Node9</title>
<path fill="none" stroke="#191970" d="M448.9868,-521.9128C497.7557,-494.3049 560.7698,-453.8374 607.2832,-407 630.9081,-383.2105 651.0527,-350.5885 664.1572,-326.5977"/>
<polygon fill="none" stroke="#191970" points="447.0675,-518.9761 440.0535,-526.9167 450.4885,-525.0832 447.0675,-518.9761"/>
</g>
<!-- Node1 -->
<g id="node2" class="node">
<title>Node1</title>
<g id="a_node2"><a xlink:href="$db/d38/interfaceobject.html" xlink:title="All objects inherit from this. ">
<polygon fill="#ffffff" stroke="#000000" points="341.1392,-714.5 341.1392,-798.5 407.4272,-798.5 407.4272,-714.5 341.1392,-714.5"/>
<text text-anchor="middle" x="374.2832" y="-786.5" font-family="Helvetica,sans-Serif" font-size="10.00" fill="#000000">object</text>
<polyline fill="none" stroke="#000000" points="341.1392,-780.5 407.4272,-780.5 "/>
<text text-anchor="middle" x="374.2832" y="-768.5" font-family="Helvetica,sans-Serif" font-size="10.00" fill="#000000"> </text>
<polyline fill="none" stroke="#000000" points="341.1392,-762.5 407.4272,-762.5 "/>
<text text-anchor="start" x="349.1392" y="-750.5" font-family="Helvetica,sans-Serif" font-size="10.00" fill="#000000">+ dispose()</text>
<text text-anchor="start" x="349.1392" y="-740.5" font-family="Helvetica,sans-Serif" font-size="10.00" fill="#000000">+ toString()</text>
<text text-anchor="start" x="349.1392" y="-730.5" font-family="Helvetica,sans-Serif" font-size="10.00" fill="#000000">+ toJSON()</text>
<text text-anchor="start" x="349.1392" y="-720.5" font-family="Helvetica,sans-Serif" font-size="10.00" fill="#000000">+ valueOf()</text>
</a>
</g>
</g>
<!-- Node1&#45;&gt;Node0 -->
<g id="edge1" class="edge">
<title>Node1&#45;&gt;Node0</title>
<path fill="none" stroke="#191970" d="M374.2832,-704.1775C374.2832,-695.8031 374.2832,-686.8553 374.2832,-677.6739"/>
<polygon fill="none" stroke="#191970" points="370.7833,-704.453 374.2832,-714.4531 377.7833,-704.4531 370.7833,-704.453"/>
</g>
<!-- Node3 -->
<g id="node4" class="node">
<title>Node3</title>
<g id="a_node4"><a xlink:href="$dd/dc1/interfaceXmlComment.html" xlink:title="XmlComment represents comment of node. ">
<polygon fill="#ffffff" stroke="#000000" points="0,-91.5 0,-145.5 76.5664,-145.5 76.5664,-91.5 0,-91.5"/>
<text text-anchor="middle" x="38.2832" y="-133.5" font-family="Helvetica,sans-Serif" font-size="10.00" fill="#000000">XmlComment</text>
<polyline fill="none" stroke="#000000" points="0,-127.5 76.5664,-127.5 "/>
<text text-anchor="middle" x="38.2832" y="-115.5" font-family="Helvetica,sans-Serif" font-size="10.00" fill="#000000"> </text>
<polyline fill="none" stroke="#000000" points="0,-109.5 76.5664,-109.5 "/>
<text text-anchor="middle" x="38.2832" y="-97.5" font-family="Helvetica,sans-Serif" font-size="10.00" fill="#000000"> </text>
</a>
</g>
</g>
<!-- Node2&#45;&gt;Node3 -->
<g id="edge3" class="edge">
<title>Node2&#45;&gt;Node3</title>
<path fill="none" stroke="#191970" d="M67.3878,-232.3312C59.8297,-202.7706 51.1806,-168.9432 45.2882,-145.8973"/>
<polygon fill="none" stroke="#191970" points="64.0354,-233.3494 69.9036,-242.1707 70.8173,-231.6154 64.0354,-233.3494"/>
</g>
<!-- Node4 -->
<g id="node5" class="node">
<title>Node4</title>
<g id="a_node5"><a xlink:href="$d3/d51/interfaceXmlText.html" xlink:title="XmlText object represents element or attribute text content. ">
<polygon fill="#ffffff" stroke="#000000" points="94.5825,-91.5 94.5825,-145.5 161.9839,-145.5 161.9839,-91.5 94.5825,-91.5"/>
<text text-anchor="middle" x="128.2832" y="-133.5" font-family="Helvetica,sans-Serif" font-size="10.00" fill="#000000">XmlText</text>
<polyline fill="none" stroke="#000000" points="94.5825,-127.5 161.9839,-127.5 "/>
<text text-anchor="middle" x="128.2832" y="-115.5" font-family="Helvetica,sans-Serif" font-size="10.00" fill="#000000"> </text>
<polyline fill="none" stroke="#000000" points="94.5825,-109.5 161.9839,-109.5 "/>
<text text-anchor="start" x="102.5825" y="-97.5" font-family="Helvetica,sans-Serif" font-size="10.00" fill="#000000">+ splitText()</text>
</a>
</g>
</g>
<!-- Node2&#45;&gt;Node4 -->
<g id="edge4" class="edge">
<title>Node2&#45;&gt;Node4</title>
<path fill="none" stroke="#191970" d="M99.1786,-232.3312C106.7367,-202.7706 115.3858,-168.9432 121.2782,-145.8973"/>
<polygon fill="none" stroke="#191970" points="95.7491,-231.6154 96.6628,-242.1707 102.531,-233.3494 95.7491,-231.6154"/>
</g>
<!-- Node5 -->
<g id="node6" class="node">
<title>Node5</title>
<g id="a_node6"><a xlink:href="$d4/dd8/interfaceXmlCDATASection.html" xlink:title="CDATA section for XmlCDATASection. ">
<polygon fill="#ffffff" stroke="#000000" points="78.7866,-.5 78.7866,-54.5 177.7798,-54.5 177.7798,-.5 78.7866,-.5"/>
<text text-anchor="middle" x="128.2832" y="-42.5" font-family="Helvetica,sans-Serif" font-size="10.00" fill="#000000">XmlCDATASection</text>
<polyline fill="none" stroke="#000000" points="78.7866,-36.5 177.7798,-36.5 "/>
<text text-anchor="middle" x="128.2832" y="-24.5" font-family="Helvetica,sans-Serif" font-size="10.00" fill="#000000"> </text>
<polyline fill="none" stroke="#000000" points="78.7866,-18.5 177.7798,-18.5 "/>
<text text-anchor="middle" x="128.2832" y="-6.5" font-family="Helvetica,sans-Serif" font-size="10.00" fill="#000000"> </text>
</a>
</g>
</g>
<!-- Node4&#45;&gt;Node5 -->
<g id="edge5" class="edge">
<title>Node4&#45;&gt;Node5</title>
<path fill="none" stroke="#191970" d="M128.2832,-81.12C128.2832,-72.3006 128.2832,-63.0605 128.2832,-54.7837"/>
<polygon fill="none" stroke="#191970" points="124.7833,-81.197 128.2832,-91.197 131.7833,-81.197 124.7833,-81.197"/>
</g>
</g>
</svg>
