<?xml version="1.0" encoding="UTF-8" standalone="no"?>
<!DOCTYPE svg PUBLIC "-//W3C//DTD SVG 1.1//EN"
 "http://www.w3.org/Graphics/SVG/1.1/DTD/svg11.dtd">
<!-- Generated by graphviz version 2.38.0 (20140413.2041)
 -->
<!-- Title: HandlerEx Pages: 1 -->
<svg width="74pt" height="285pt"
 viewBox="0.00 0.00 74.29 285.00" xmlns="http://www.w3.org/2000/svg" xmlns:xlink="http://www.w3.org/1999/xlink">
<g id="graph0" class="graph" transform="scale(1 1) rotate(0) translate(4 281)">
<title>HandlerEx</title>
<polygon fill="white" stroke="none" points="-4,4 -4,-281 70.2881,-281 70.2881,4 -4,4"/>
<!-- Node1 -->
<g id="node1" class="node"><title>Node1</title>
<polygon fill="#bfbfbf" stroke="black" points="1.38672,-0.5 1.38672,-64.5 64.9014,-64.5 64.9014,-0.5 1.38672,-0.5"/>
<text text-anchor="middle" x="33.144" y="-52.5" font-family="Helvetica,sans-Serif" font-size="10.00">HandlerEx</text>
<polyline fill="none" stroke="black" points="1.38672,-46.5 64.9014,-46.5 "/>
<text text-anchor="start" x="9.38672" y="-34.5" font-family="Helvetica,sans-Serif" font-size="10.00">+ handler</text>
<text text-anchor="start" x="9.38672" y="-24.5" font-family="Helvetica,sans-Serif" font-size="10.00">+ stats</text>
<polyline fill="none" stroke="black" points="1.38672,-18.5 64.9014,-18.5 "/>
<text text-anchor="start" x="9.38672" y="-6.5" font-family="Helvetica,sans-Serif" font-size="10.00">+ onerror()</text>
</g>
<!-- Node2 -->
<g id="node2" class="node"><title>Node2</title>
<g id="a_node2"><a xlink:href="../../da/d85/interfaceHandler.html" target="_top" xlink:title="Meassage Handler Interface. ">
<polygon fill="white" stroke="black" points="3.05176,-101.5 3.05176,-155.5 63.2363,-155.5 63.2363,-101.5 3.05176,-101.5"/>
<text text-anchor="middle" x="33.144" y="-143.5" font-family="Helvetica,sans-Serif" font-size="10.00">Handler</text>
<polyline fill="none" stroke="black" points="3.05176,-137.5 63.2363,-137.5 "/>
<text text-anchor="middle" x="33.144" y="-125.5" font-family="Helvetica,sans-Serif" font-size="10.00"> </text>
<polyline fill="none" stroke="black" points="3.05176,-119.5 63.2363,-119.5 "/>
<text text-anchor="start" x="11.0518" y="-107.5" font-family="Helvetica,sans-Serif" font-size="10.00">+ invoke()</text>
</a>
</g>
</g>
<!-- Node2&#45;&gt;Node1 -->
<g id="edge1" class="edge"><title>Node2&#45;&gt;Node1</title>
<path fill="none" stroke="midnightblue" d="M33.144,-91.2838C33.144,-82.4601 33.144,-73.1003 33.144,-64.5417"/>
<polygon fill="none" stroke="midnightblue" points="29.6441,-91.3157 33.144,-101.316 36.6441,-91.3158 29.6441,-91.3157"/>
</g>
<!-- Node3 -->
<g id="node3" class="node"><title>Node3</title>
<g id="a_node3"><a xlink:href="../../db/d38/interfaceobject.html" target="_top" xlink:title="All objects inherit from this. ">
<polygon fill="white" stroke="black" points="0,-192.5 0,-276.5 66.2881,-276.5 66.2881,-192.5 0,-192.5"/>
<text text-anchor="middle" x="33.144" y="-264.5" font-family="Helvetica,sans-Serif" font-size="10.00">object</text>
<polyline fill="none" stroke="black" points="0,-258.5 66.2881,-258.5 "/>
<text text-anchor="middle" x="33.144" y="-246.5" font-family="Helvetica,sans-Serif" font-size="10.00"> </text>
<polyline fill="none" stroke="black" points="0,-240.5 66.2881,-240.5 "/>
<text text-anchor="start" x="8" y="-228.5" font-family="Helvetica,sans-Serif" font-size="10.00">+ dispose()</text>
<text text-anchor="start" x="8" y="-218.5" font-family="Helvetica,sans-Serif" font-size="10.00">+ toString()</text>
<text text-anchor="start" x="8" y="-208.5" font-family="Helvetica,sans-Serif" font-size="10.00">+ toJSON()</text>
<text text-anchor="start" x="8" y="-198.5" font-family="Helvetica,sans-Serif" font-size="10.00">+ valueOf()</text>
</a>
</g>
</g>
<!-- Node3&#45;&gt;Node2 -->
<g id="edge2" class="edge"><title>Node3&#45;&gt;Node2</title>
<path fill="none" stroke="midnightblue" d="M33.144,-182.111C33.144,-172.937 33.144,-163.738 33.144,-155.655"/>
<polygon fill="none" stroke="midnightblue" points="29.6441,-182.396 33.144,-192.396 36.6441,-182.396 29.6441,-182.396"/>
</g>
</g>
</svg>
