<?xml version="1.0" encoding="UTF-8" standalone="no"?>
<!DOCTYPE svg PUBLIC "-//W3C//DTD SVG 1.1//EN"
 "http://www.w3.org/Graphics/SVG/1.1/DTD/svg11.dtd">
<!-- Generated by graphviz version 2.40.1 (20161225.0304)
 -->
<!-- Title: HandlerEx Pages: 1 -->
<svg width="74pt" height="285pt"
 viewBox="0.00 0.00 74.29 285.00" xmlns="http://www.w3.org/2000/svg" xmlns:xlink="http://www.w3.org/1999/xlink">
<g id="graph0" class="graph" transform="scale(1 1) rotate(0) translate(4 281)">
<title>HandlerEx</title>
<polygon fill="#ffffff" stroke="transparent" points="-4,4 -4,-281 70.2881,-281 70.2881,4 -4,4"/>
<!-- Node0 -->
<g id="node1" class="node">
<title>Node0</title>
<polygon fill="#bfbfbf" stroke="#000000" points="1.3867,-.5 1.3867,-64.5 64.9014,-64.5 64.9014,-.5 1.3867,-.5"/>
<text text-anchor="middle" x="33.144" y="-52.5" font-family="Helvetica,sans-Serif" font-size="10.00" fill="#000000">HandlerEx</text>
<polyline fill="none" stroke="#000000" points="1.3867,-46.5 64.9014,-46.5 "/>
<text text-anchor="start" x="9.3867" y="-34.5" font-family="Helvetica,sans-Serif" font-size="10.00" fill="#000000">+ handler</text>
<text text-anchor="start" x="9.3867" y="-24.5" font-family="Helvetica,sans-Serif" font-size="10.00" fill="#000000">+ stats</text>
<polyline fill="none" stroke="#000000" points="1.3867,-18.5 64.9014,-18.5 "/>
<text text-anchor="start" x="9.3867" y="-6.5" font-family="Helvetica,sans-Serif" font-size="10.00" fill="#000000">+ onerror()</text>
</g>
<!-- Node1 -->
<g id="node2" class="node">
<title>Node1</title>
<g id="a_node2"><a xlink:href="../../da/d85/interfaceHandler.html" target="_top" xlink:title="Meassage Handler Interface. ">
<polygon fill="#ffffff" stroke="#000000" points="3.0518,-101.5 3.0518,-155.5 63.2363,-155.5 63.2363,-101.5 3.0518,-101.5"/>
<text text-anchor="middle" x="33.144" y="-143.5" font-family="Helvetica,sans-Serif" font-size="10.00" fill="#000000">Handler</text>
<polyline fill="none" stroke="#000000" points="3.0518,-137.5 63.2363,-137.5 "/>
<text text-anchor="middle" x="33.144" y="-125.5" font-family="Helvetica,sans-Serif" font-size="10.00" fill="#000000"> </text>
<polyline fill="none" stroke="#000000" points="3.0518,-119.5 63.2363,-119.5 "/>
<text text-anchor="start" x="11.0518" y="-107.5" font-family="Helvetica,sans-Serif" font-size="10.00" fill="#000000">+ invoke()</text>
</a>
</g>
</g>
<!-- Node1&#45;&gt;Node0 -->
<g id="edge1" class="edge">
<title>Node1&#45;&gt;Node0</title>
<path fill="none" stroke="#191970" d="M33.144,-91.2276C33.144,-82.4295 33.144,-73.1248 33.144,-64.5792"/>
<polygon fill="none" stroke="#191970" points="29.6441,-91.247 33.144,-101.247 36.6441,-91.2471 29.6441,-91.247"/>
</g>
<!-- Node2 -->
<g id="node3" class="node">
<title>Node2</title>
<g id="a_node3"><a xlink:href="../../db/d38/interfaceobject.html" target="_top" xlink:title="All objects inherit from this. ">
<polygon fill="#ffffff" stroke="#000000" points="0,-192.5 0,-276.5 66.2881,-276.5 66.2881,-192.5 0,-192.5"/>
<text text-anchor="middle" x="33.144" y="-264.5" font-family="Helvetica,sans-Serif" font-size="10.00" fill="#000000">object</text>
<polyline fill="none" stroke="#000000" points="0,-258.5 66.2881,-258.5 "/>
<text text-anchor="middle" x="33.144" y="-246.5" font-family="Helvetica,sans-Serif" font-size="10.00" fill="#000000"> </text>
<polyline fill="none" stroke="#000000" points="0,-240.5 66.2881,-240.5 "/>
<text text-anchor="start" x="8" y="-228.5" font-family="Helvetica,sans-Serif" font-size="10.00" fill="#000000">+ dispose()</text>
<text text-anchor="start" x="8" y="-218.5" font-family="Helvetica,sans-Serif" font-size="10.00" fill="#000000">+ toString()</text>
<text text-anchor="start" x="8" y="-208.5" font-family="Helvetica,sans-Serif" font-size="10.00" fill="#000000">+ toJSON()</text>
<text text-anchor="start" x="8" y="-198.5" font-family="Helvetica,sans-Serif" font-size="10.00" fill="#000000">+ valueOf()</text>
</a>
</g>
</g>
<!-- Node2&#45;&gt;Node1 -->
<g id="edge2" class="edge">
<title>Node2&#45;&gt;Node1</title>
<path fill="none" stroke="#191970" d="M33.144,-182.041C33.144,-172.8936 33.144,-163.7248 33.144,-155.6245"/>
<polygon fill="none" stroke="#191970" points="29.6441,-182.3014 33.144,-192.3014 36.6441,-182.3015 29.6441,-182.3014"/>
</g>
</g>
</svg>
