<?xml version="1.0" encoding="UTF-8" standalone="no"?>
<!DOCTYPE svg PUBLIC "-//W3C//DTD SVG 1.1//EN"
 "http://www.w3.org/Graphics/SVG/1.1/DTD/svg11.dtd">
<!-- Generated by graphviz version 2.40.1 (20161225.0304)
 -->
<!-- Title: HttpUploadData Pages: 1 -->
<svg width="144pt" height="224pt"
 viewBox="0.00 0.00 143.99 224.00" xmlns="http://www.w3.org/2000/svg" xmlns:xlink="http://www.w3.org/1999/xlink">
<g id="graph0" class="graph" transform="scale(1 1) rotate(0) translate(4 220)">
<title>HttpUploadData</title>
<polygon fill="#ffffff" stroke="transparent" points="-4,4 -4,-220 139.9854,-220 139.9854,4 -4,4"/>
<!-- Node0 -->
<g id="node1" class="node">
<title>Node0</title>
<polygon fill="#bfbfbf" stroke="#000000" points="0,-.5 0,-84.5 135.9854,-84.5 135.9854,-.5 0,-.5"/>
<text text-anchor="middle" x="67.9927" y="-72.5" font-family="Helvetica,sans-Serif" font-size="10.00" fill="#000000">HttpUploadData</text>
<polyline fill="none" stroke="#000000" points="0,-66.5 135.9854,-66.5 "/>
<text text-anchor="start" x="8" y="-54.5" font-family="Helvetica,sans-Serif" font-size="10.00" fill="#000000">+ fileName</text>
<text text-anchor="start" x="8" y="-44.5" font-family="Helvetica,sans-Serif" font-size="10.00" fill="#000000">+ contentType</text>
<text text-anchor="start" x="8" y="-34.5" font-family="Helvetica,sans-Serif" font-size="10.00" fill="#000000">+ contentTransferEncoding</text>
<text text-anchor="start" x="8" y="-24.5" font-family="Helvetica,sans-Serif" font-size="10.00" fill="#000000">+ body</text>
<polyline fill="none" stroke="#000000" points="0,-18.5 135.9854,-18.5 "/>
<text text-anchor="middle" x="67.9927" y="-6.5" font-family="Helvetica,sans-Serif" font-size="10.00" fill="#000000"> </text>
</g>
<!-- Node1 -->
<g id="node2" class="node">
<title>Node1</title>
<g id="a_node2"><a xlink:href="../../db/d38/interfaceobject.html" target="_top" xlink:title="基础对象，所有对象均继承于此 ">
<polygon fill="#ffffff" stroke="#000000" points="34.8486,-121.5 34.8486,-215.5 101.1367,-215.5 101.1367,-121.5 34.8486,-121.5"/>
<text text-anchor="middle" x="67.9927" y="-203.5" font-family="Helvetica,sans-Serif" font-size="10.00" fill="#000000">object</text>
<polyline fill="none" stroke="#000000" points="34.8486,-197.5 101.1367,-197.5 "/>
<text text-anchor="middle" x="67.9927" y="-185.5" font-family="Helvetica,sans-Serif" font-size="10.00" fill="#000000"> </text>
<polyline fill="none" stroke="#000000" points="34.8486,-179.5 101.1367,-179.5 "/>
<text text-anchor="start" x="42.8486" y="-167.5" font-family="Helvetica,sans-Serif" font-size="10.00" fill="#000000">+ dispose()</text>
<text text-anchor="start" x="42.8486" y="-157.5" font-family="Helvetica,sans-Serif" font-size="10.00" fill="#000000">+ equals()</text>
<text text-anchor="start" x="42.8486" y="-147.5" font-family="Helvetica,sans-Serif" font-size="10.00" fill="#000000">+ toString()</text>
<text text-anchor="start" x="42.8486" y="-137.5" font-family="Helvetica,sans-Serif" font-size="10.00" fill="#000000">+ toJSON()</text>
<text text-anchor="start" x="42.8486" y="-127.5" font-family="Helvetica,sans-Serif" font-size="10.00" fill="#000000">+ valueOf()</text>
</a>
</g>
</g>
<!-- Node1&#45;&gt;Node0 -->
<g id="edge1" class="edge">
<title>Node1&#45;&gt;Node0</title>
<path fill="none" stroke="#191970" d="M67.9927,-110.9387C67.9927,-102.0848 67.9927,-93.0866 67.9927,-84.6505"/>
<polygon fill="none" stroke="#191970" points="64.4928,-111.2237 67.9927,-121.2238 71.4928,-111.2238 64.4928,-111.2237"/>
</g>
</g>
</svg>
