<?xml version="1.0" encoding="UTF-8" standalone="no"?>
<!DOCTYPE svg PUBLIC "-//W3C//DTD SVG 1.1//EN"
 "http://www.w3.org/Graphics/SVG/1.1/DTD/svg11.dtd">
<!-- Generated by graphviz version 2.40.1 (20161225.0304)
 -->
<!-- Title: ZipInfo Pages: 1 -->
<svg width="100pt" height="254pt"
 viewBox="0.00 0.00 100.43 254.00" xmlns="http://www.w3.org/2000/svg" xmlns:xlink="http://www.w3.org/1999/xlink">
<g id="graph0" class="graph" transform="scale(1 1) rotate(0) translate(4 250)">
<title>ZipInfo</title>
<polygon fill="#ffffff" stroke="transparent" points="-4,4 -4,-250 96.4258,-250 96.4258,4 -4,4"/>
<!-- Node0 -->
<g id="node1" class="node">
<title>Node0</title>
<polygon fill="#bfbfbf" stroke="#000000" points="0,-.5 0,-114.5 92.4258,-114.5 92.4258,-.5 0,-.5"/>
<text text-anchor="middle" x="46.2129" y="-102.5" font-family="Helvetica,sans-Serif" font-size="10.00" fill="#000000">ZipInfo</text>
<polyline fill="none" stroke="#000000" points="0,-96.5 92.4258,-96.5 "/>
<text text-anchor="start" x="8" y="-84.5" font-family="Helvetica,sans-Serif" font-size="10.00" fill="#000000">+ filename</text>
<text text-anchor="start" x="8" y="-74.5" font-family="Helvetica,sans-Serif" font-size="10.00" fill="#000000">+ date</text>
<text text-anchor="start" x="8" y="-64.5" font-family="Helvetica,sans-Serif" font-size="10.00" fill="#000000">+ compress_type</text>
<text text-anchor="start" x="8" y="-54.5" font-family="Helvetica,sans-Serif" font-size="10.00" fill="#000000">+ compress_size</text>
<text text-anchor="start" x="8" y="-44.5" font-family="Helvetica,sans-Serif" font-size="10.00" fill="#000000">+ file_size</text>
<text text-anchor="start" x="8" y="-34.5" font-family="Helvetica,sans-Serif" font-size="10.00" fill="#000000">+ password</text>
<text text-anchor="start" x="8" y="-24.5" font-family="Helvetica,sans-Serif" font-size="10.00" fill="#000000">+ data</text>
<polyline fill="none" stroke="#000000" points="0,-18.5 92.4258,-18.5 "/>
<text text-anchor="middle" x="46.2129" y="-6.5" font-family="Helvetica,sans-Serif" font-size="10.00" fill="#000000"> </text>
</g>
<!-- Node1 -->
<g id="node2" class="node">
<title>Node1</title>
<g id="a_node2"><a xlink:href="../../db/d38/interfaceobject.html" target="_top" xlink:title="基础对象，所有对象均继承于此 ">
<polygon fill="#ffffff" stroke="#000000" points="13.0688,-151.5 13.0688,-245.5 79.3569,-245.5 79.3569,-151.5 13.0688,-151.5"/>
<text text-anchor="middle" x="46.2129" y="-233.5" font-family="Helvetica,sans-Serif" font-size="10.00" fill="#000000">object</text>
<polyline fill="none" stroke="#000000" points="13.0688,-227.5 79.3569,-227.5 "/>
<text text-anchor="middle" x="46.2129" y="-215.5" font-family="Helvetica,sans-Serif" font-size="10.00" fill="#000000"> </text>
<polyline fill="none" stroke="#000000" points="13.0688,-209.5 79.3569,-209.5 "/>
<text text-anchor="start" x="21.0688" y="-197.5" font-family="Helvetica,sans-Serif" font-size="10.00" fill="#000000">+ dispose()</text>
<text text-anchor="start" x="21.0688" y="-187.5" font-family="Helvetica,sans-Serif" font-size="10.00" fill="#000000">+ equals()</text>
<text text-anchor="start" x="21.0688" y="-177.5" font-family="Helvetica,sans-Serif" font-size="10.00" fill="#000000">+ toString()</text>
<text text-anchor="start" x="21.0688" y="-167.5" font-family="Helvetica,sans-Serif" font-size="10.00" fill="#000000">+ toJSON()</text>
<text text-anchor="start" x="21.0688" y="-157.5" font-family="Helvetica,sans-Serif" font-size="10.00" fill="#000000">+ valueOf()</text>
</a>
</g>
</g>
<!-- Node1&#45;&gt;Node0 -->
<g id="edge1" class="edge">
<title>Node1&#45;&gt;Node0</title>
<path fill="none" stroke="#191970" d="M46.2129,-141.1082C46.2129,-132.412 46.2129,-123.44 46.2129,-114.7469"/>
<polygon fill="none" stroke="#191970" points="42.713,-141.1568 46.2129,-151.1568 49.713,-141.1568 42.713,-141.1568"/>
</g>
</g>
</svg>
