<?xml version="1.0" encoding="UTF-8" standalone="no"?>
<!DOCTYPE svg PUBLIC "-//W3C//DTD SVG 1.1//EN"
 "http://www.w3.org/Graphics/SVG/1.1/DTD/svg11.dtd">
<!-- Generated by graphviz version 2.40.1 (20161225.0304)
 -->
<!-- Title: Handler Pages: 1 -->
<svg width="679pt" height="325pt"
 viewBox="0.00 0.00 679.06 325.00" xmlns="http://www.w3.org/2000/svg" xmlns:xlink="http://www.w3.org/1999/xlink">
<g id="graph0" class="graph" transform="scale(1 1) rotate(0) translate(4 321)">
<title>Handler</title>
<polygon fill="#ffffff" stroke="transparent" points="-4,4 -4,-321 675.0601,-321 675.0601,4 -4,4"/>
<!-- Node0 -->
<g id="node1" class="node">
<title>Node0</title>
<polygon fill="#bfbfbf" stroke="#000000" points="269.3403,-141.5 269.3403,-195.5 329.5249,-195.5 329.5249,-141.5 269.3403,-141.5"/>
<text text-anchor="middle" x="299.4326" y="-183.5" font-family="Helvetica,sans-Serif" font-size="10.00" fill="#000000">Handler</text>
<polyline fill="none" stroke="#000000" points="269.3403,-177.5 329.5249,-177.5 "/>
<text text-anchor="middle" x="299.4326" y="-165.5" font-family="Helvetica,sans-Serif" font-size="10.00" fill="#000000"> </text>
<polyline fill="none" stroke="#000000" points="269.3403,-159.5 329.5249,-159.5 "/>
<text text-anchor="start" x="277.3403" y="-147.5" font-family="Helvetica,sans-Serif" font-size="10.00" fill="#000000">+ invoke()</text>
</g>
<!-- Node2 -->
<g id="node3" class="node">
<title>Node2</title>
<g id="a_node3"><a xlink:href="../../d2/d88/interfaceAsyncWait.html" target="_top" xlink:title="Message Handler object for asynchronous waiting. ">
<polygon fill="#ffffff" stroke="#000000" points="0,-25.5 0,-79.5 62.8652,-79.5 62.8652,-25.5 0,-25.5"/>
<text text-anchor="middle" x="31.4326" y="-67.5" font-family="Helvetica,sans-Serif" font-size="10.00" fill="#000000">AsyncWait</text>
<polyline fill="none" stroke="#000000" points="0,-61.5 62.8652,-61.5 "/>
<text text-anchor="middle" x="31.4326" y="-49.5" font-family="Helvetica,sans-Serif" font-size="10.00" fill="#000000"> </text>
<polyline fill="none" stroke="#000000" points="0,-43.5 62.8652,-43.5 "/>
<text text-anchor="start" x="8" y="-31.5" font-family="Helvetica,sans-Serif" font-size="10.00" fill="#000000">+ end()</text>
</a>
</g>
</g>
<!-- Node0&#45;&gt;Node2 -->
<g id="edge2" class="edge">
<title>Node0&#45;&gt;Node2</title>
<path fill="none" stroke="#191970" d="M258.9843,-164.8793C210.9459,-158.9381 130.0793,-143.6203 72.4326,-105 62.6326,-98.4345 54.1331,-88.7664 47.4536,-79.5103"/>
<polygon fill="none" stroke="#191970" points="258.6699,-168.3662 269.0065,-166.0412 259.4761,-161.4128 258.6699,-168.3662"/>
</g>
<!-- Node3 -->
<g id="node4" class="node">
<title>Node3</title>
<g id="a_node4"><a xlink:href="../../d3/d78/interfaceChain.html" target="_top" xlink:title="The handler of the message handler chain object. ">
<polygon fill="#ffffff" stroke="#000000" points="81.1089,-15.5 81.1089,-89.5 145.7563,-89.5 145.7563,-15.5 81.1089,-15.5"/>
<text text-anchor="middle" x="113.4326" y="-77.5" font-family="Helvetica,sans-Serif" font-size="10.00" fill="#000000">Chain</text>
<polyline fill="none" stroke="#000000" points="81.1089,-71.5 145.7563,-71.5 "/>
<text text-anchor="middle" x="113.4326" y="-59.5" font-family="Helvetica,sans-Serif" font-size="10.00" fill="#000000"> </text>
<polyline fill="none" stroke="#000000" points="81.1089,-53.5 145.7563,-53.5 "/>
<text text-anchor="start" x="89.1089" y="-41.5" font-family="Helvetica,sans-Serif" font-size="10.00" fill="#000000">+ Chain()</text>
<text text-anchor="start" x="89.1089" y="-31.5" font-family="Helvetica,sans-Serif" font-size="10.00" fill="#000000">+ append()</text>
<text text-anchor="start" x="89.1089" y="-21.5" font-family="Helvetica,sans-Serif" font-size="10.00" fill="#000000">+ append()</text>
</a>
</g>
</g>
<!-- Node0&#45;&gt;Node3 -->
<g id="edge3" class="edge">
<title>Node0&#45;&gt;Node3</title>
<path fill="none" stroke="#191970" d="M259.5057,-156.9768C228.6699,-146.7382 186.064,-129.5633 154.4326,-105 148.7695,-100.6023 143.4446,-95.2554 138.6263,-89.677"/>
<polygon fill="none" stroke="#191970" points="258.4834,-160.3245 269.0749,-160.0578 260.6288,-153.6614 258.4834,-160.3245"/>
</g>
<!-- Node4 -->
<g id="node5" class="node">
<title>Node4</title>
<g id="a_node5"><a xlink:href="../../dc/de5/interfaceHandlerEx.html" target="_top" xlink:title="Expand Meassage Handler Interface. ">
<polygon fill="#ffffff" stroke="#000000" points="163.6753,-20.5 163.6753,-84.5 227.1899,-84.5 227.1899,-20.5 163.6753,-20.5"/>
<text text-anchor="middle" x="195.4326" y="-72.5" font-family="Helvetica,sans-Serif" font-size="10.00" fill="#000000">HandlerEx</text>
<polyline fill="none" stroke="#000000" points="163.6753,-66.5 227.1899,-66.5 "/>
<text text-anchor="start" x="171.6753" y="-54.5" font-family="Helvetica,sans-Serif" font-size="10.00" fill="#000000">+ handler</text>
<text text-anchor="start" x="171.6753" y="-44.5" font-family="Helvetica,sans-Serif" font-size="10.00" fill="#000000">+ stats</text>
<polyline fill="none" stroke="#000000" points="163.6753,-38.5 227.1899,-38.5 "/>
<text text-anchor="start" x="171.6753" y="-26.5" font-family="Helvetica,sans-Serif" font-size="10.00" fill="#000000">+ onerror()</text>
</a>
</g>
</g>
<!-- Node0&#45;&gt;Node4 -->
<g id="edge4" class="edge">
<title>Node0&#45;&gt;Node4</title>
<path fill="none" stroke="#191970" d="M263.8902,-134.1597C254.7199,-124.902 245.0191,-114.746 236.4326,-105 230.7753,-98.5787 224.9628,-91.483 219.5575,-84.6393"/>
<polygon fill="none" stroke="#191970" points="261.5527,-136.772 271.0995,-141.3666 266.5017,-131.8214 261.5527,-136.772"/>
</g>
<!-- Node5 -->
<g id="node6" class="node">
<title>Node5</title>
<g id="a_node6"><a xlink:href="../../d6/d18/interfaceHttpHandler.html" target="_top" xlink:title="http Protocol Conversion Processor ">
<polygon fill="#ffffff" stroke="#000000" points="245.4365,-.5 245.4365,-104.5 353.4287,-104.5 353.4287,-.5 245.4365,-.5"/>
<text text-anchor="middle" x="299.4326" y="-92.5" font-family="Helvetica,sans-Serif" font-size="10.00" fill="#000000">HttpHandler</text>
<polyline fill="none" stroke="#000000" points="245.4365,-86.5 353.4287,-86.5 "/>
<text text-anchor="start" x="253.4365" y="-74.5" font-family="Helvetica,sans-Serif" font-size="10.00" fill="#000000">+ crossDomain</text>
<text text-anchor="start" x="253.4365" y="-64.5" font-family="Helvetica,sans-Serif" font-size="10.00" fill="#000000">+ forceGZIP</text>
<text text-anchor="start" x="253.4365" y="-54.5" font-family="Helvetica,sans-Serif" font-size="10.00" fill="#000000">+ maxHeadersCount</text>
<text text-anchor="start" x="253.4365" y="-44.5" font-family="Helvetica,sans-Serif" font-size="10.00" fill="#000000">+ maxUploadSize</text>
<text text-anchor="start" x="253.4365" y="-34.5" font-family="Helvetica,sans-Serif" font-size="10.00" fill="#000000">+ handler</text>
<text text-anchor="start" x="253.4365" y="-24.5" font-family="Helvetica,sans-Serif" font-size="10.00" fill="#000000">+ stats</text>
<polyline fill="none" stroke="#000000" points="245.4365,-18.5 353.4287,-18.5 "/>
<text text-anchor="start" x="253.4365" y="-6.5" font-family="Helvetica,sans-Serif" font-size="10.00" fill="#000000">+ HttpHandler()</text>
</a>
</g>
</g>
<!-- Node0&#45;&gt;Node5 -->
<g id="edge5" class="edge">
<title>Node0&#45;&gt;Node5</title>
<path fill="none" stroke="#191970" d="M299.4326,-131.0375C299.4326,-122.6013 299.4326,-113.4994 299.4326,-104.5858"/>
<polygon fill="none" stroke="#191970" points="295.9327,-131.3031 299.4326,-141.3032 302.9327,-131.3032 295.9327,-131.3031"/>
</g>
<!-- Node6 -->
<g id="node7" class="node">
<title>Node6</title>
<g id="a_node7"><a xlink:href="../../df/dcb/interfaceRouting.html" target="_top" xlink:title="Message handler router. ">
<polygon fill="#ffffff" stroke="#000000" points="371.5596,-15.5 371.5596,-89.5 437.3057,-89.5 437.3057,-15.5 371.5596,-15.5"/>
<text text-anchor="middle" x="404.4326" y="-77.5" font-family="Helvetica,sans-Serif" font-size="10.00" fill="#000000">Routing</text>
<polyline fill="none" stroke="#000000" points="371.5596,-71.5 437.3057,-71.5 "/>
<text text-anchor="middle" x="404.4326" y="-59.5" font-family="Helvetica,sans-Serif" font-size="10.00" fill="#000000"> </text>
<polyline fill="none" stroke="#000000" points="371.5596,-53.5 437.3057,-53.5 "/>
<text text-anchor="start" x="379.5596" y="-41.5" font-family="Helvetica,sans-Serif" font-size="10.00" fill="#000000">+ Routing()</text>
<text text-anchor="start" x="379.5596" y="-31.5" font-family="Helvetica,sans-Serif" font-size="10.00" fill="#000000">+ append()</text>
<text text-anchor="start" x="379.5596" y="-21.5" font-family="Helvetica,sans-Serif" font-size="10.00" fill="#000000">+ append()</text>
</a>
</g>
</g>
<!-- Node0&#45;&gt;Node6 -->
<g id="edge6" class="edge">
<title>Node0&#45;&gt;Node6</title>
<path fill="none" stroke="#191970" d="M334.8976,-134.091C344.0687,-124.834 353.7892,-114.6955 362.4326,-105 366.7823,-100.1208 371.2388,-94.8641 375.5472,-89.6285"/>
<polygon fill="none" stroke="#191970" points="332.2853,-131.7536 327.6914,-141.3007 337.2362,-136.7022 332.2853,-131.7536"/>
</g>
<!-- Node7 -->
<g id="node8" class="node">
<title>Node7</title>
<g id="a_node8"><a xlink:href="../../df/dd8/interfaceSslHandler.html" target="_top" xlink:title="ssl protocol converter ">
<polygon fill="#ffffff" stroke="#000000" points="455.3379,-10.5 455.3379,-94.5 535.5273,-94.5 535.5273,-10.5 455.3379,-10.5"/>
<text text-anchor="middle" x="495.4326" y="-82.5" font-family="Helvetica,sans-Serif" font-size="10.00" fill="#000000">SslHandler</text>
<polyline fill="none" stroke="#000000" points="455.3379,-76.5 535.5273,-76.5 "/>
<text text-anchor="start" x="463.3379" y="-64.5" font-family="Helvetica,sans-Serif" font-size="10.00" fill="#000000">+ verification</text>
<text text-anchor="start" x="463.3379" y="-54.5" font-family="Helvetica,sans-Serif" font-size="10.00" fill="#000000">+ ca</text>
<text text-anchor="start" x="463.3379" y="-44.5" font-family="Helvetica,sans-Serif" font-size="10.00" fill="#000000">+ handler</text>
<polyline fill="none" stroke="#000000" points="455.3379,-38.5 535.5273,-38.5 "/>
<text text-anchor="start" x="463.3379" y="-26.5" font-family="Helvetica,sans-Serif" font-size="10.00" fill="#000000">+ SslHandler()</text>
<text text-anchor="start" x="463.3379" y="-16.5" font-family="Helvetica,sans-Serif" font-size="10.00" fill="#000000">+ SslHandler()</text>
</a>
</g>
</g>
<!-- Node0&#45;&gt;Node7 -->
<g id="edge7" class="edge">
<title>Node0&#45;&gt;Node7</title>
<path fill="none" stroke="#191970" d="M339.326,-156.293C370.2671,-145.68 413.3152,-128.3349 446.4326,-105 450.8151,-101.9121 455.1078,-98.3803 459.2172,-94.6408"/>
<polygon fill="none" stroke="#191970" points="338.107,-153.0101 329.7335,-159.5013 340.3274,-159.6486 338.107,-153.0101"/>
</g>
<!-- Node8 -->
<g id="node9" class="node">
<title>Node8</title>
<g id="a_node9"><a xlink:href="../../da/d20/interfaceWebSocketHandler.html" target="_top" xlink:title="WebSocket packet protocol conversion processor. ">
<polygon fill="#ffffff" stroke="#000000" points="553.8052,-15.5 553.8052,-89.5 671.0601,-89.5 671.0601,-15.5 553.8052,-15.5"/>
<text text-anchor="middle" x="612.4326" y="-77.5" font-family="Helvetica,sans-Serif" font-size="10.00" fill="#000000">WebSocketHandler</text>
<polyline fill="none" stroke="#000000" points="553.8052,-71.5 671.0601,-71.5 "/>
<text text-anchor="start" x="561.8052" y="-59.5" font-family="Helvetica,sans-Serif" font-size="10.00" fill="#000000">+ maxSize</text>
<text text-anchor="start" x="561.8052" y="-49.5" font-family="Helvetica,sans-Serif" font-size="10.00" fill="#000000">+ handler</text>
<text text-anchor="start" x="561.8052" y="-39.5" font-family="Helvetica,sans-Serif" font-size="10.00" fill="#000000">+ stats</text>
<polyline fill="none" stroke="#000000" points="553.8052,-33.5 671.0601,-33.5 "/>
<text text-anchor="start" x="561.8052" y="-21.5" font-family="Helvetica,sans-Serif" font-size="10.00" fill="#000000">+ WebSocketHandler()</text>
</a>
</g>
</g>
<!-- Node0&#45;&gt;Node8 -->
<g id="edge8" class="edge">
<title>Node0&#45;&gt;Node8</title>
<path fill="none" stroke="#191970" d="M339.9337,-163.123C389.9913,-155.3474 476.833,-138.1172 544.4326,-105 553.0046,-100.8006 561.5406,-95.4196 569.5228,-89.7103"/>
<polygon fill="none" stroke="#191970" points="339.1994,-159.6939 329.8305,-164.641 340.2395,-166.6162 339.1994,-159.6939"/>
</g>
<!-- Node1 -->
<g id="node2" class="node">
<title>Node1</title>
<g id="a_node2"><a xlink:href="../../db/d38/interfaceobject.html" target="_top" xlink:title="All objects inherit from this. ">
<polygon fill="#ffffff" stroke="#000000" points="266.2886,-232.5 266.2886,-316.5 332.5767,-316.5 332.5767,-232.5 266.2886,-232.5"/>
<text text-anchor="middle" x="299.4326" y="-304.5" font-family="Helvetica,sans-Serif" font-size="10.00" fill="#000000">object</text>
<polyline fill="none" stroke="#000000" points="266.2886,-298.5 332.5767,-298.5 "/>
<text text-anchor="middle" x="299.4326" y="-286.5" font-family="Helvetica,sans-Serif" font-size="10.00" fill="#000000"> </text>
<polyline fill="none" stroke="#000000" points="266.2886,-280.5 332.5767,-280.5 "/>
<text text-anchor="start" x="274.2886" y="-268.5" font-family="Helvetica,sans-Serif" font-size="10.00" fill="#000000">+ dispose()</text>
<text text-anchor="start" x="274.2886" y="-258.5" font-family="Helvetica,sans-Serif" font-size="10.00" fill="#000000">+ toString()</text>
<text text-anchor="start" x="274.2886" y="-248.5" font-family="Helvetica,sans-Serif" font-size="10.00" fill="#000000">+ toJSON()</text>
<text text-anchor="start" x="274.2886" y="-238.5" font-family="Helvetica,sans-Serif" font-size="10.00" fill="#000000">+ valueOf()</text>
</a>
</g>
</g>
<!-- Node1&#45;&gt;Node0 -->
<g id="edge1" class="edge">
<title>Node1&#45;&gt;Node0</title>
<path fill="none" stroke="#191970" d="M299.4326,-222.041C299.4326,-212.8936 299.4326,-203.7248 299.4326,-195.6245"/>
<polygon fill="none" stroke="#191970" points="295.9327,-222.3014 299.4326,-232.3014 302.9327,-222.3015 295.9327,-222.3014"/>
</g>
</g>
</svg>
