<?xml version="1.0" encoding="UTF-8" standalone="no"?>
<!DOCTYPE svg PUBLIC "-//W3C//DTD SVG 1.1//EN"
 "http://www.w3.org/Graphics/SVG/1.1/DTD/svg11.dtd">
<!-- Generated by graphviz version 2.38.0 (20140413.2041)
 -->
<!-- Title: Handler Pages: 1 -->
<svg width="679pt" height="325pt"
 viewBox="0.00 0.00 679.06 325.00" xmlns="http://www.w3.org/2000/svg" xmlns:xlink="http://www.w3.org/1999/xlink">
<g id="graph0" class="graph" transform="scale(1 1) rotate(0) translate(4 321)">
<title>Handler</title>
<polygon fill="white" stroke="none" points="-4,4 -4,-321 675.06,-321 675.06,4 -4,4"/>
<!-- Node1 -->
<g id="node1" class="node"><title>Node1</title>
<polygon fill="#bfbfbf" stroke="black" points="269.34,-141.5 269.34,-195.5 329.525,-195.5 329.525,-141.5 269.34,-141.5"/>
<text text-anchor="middle" x="299.433" y="-183.5" font-family="Helvetica,sans-Serif" font-size="10.00">Handler</text>
<polyline fill="none" stroke="black" points="269.34,-177.5 329.525,-177.5 "/>
<text text-anchor="middle" x="299.433" y="-165.5" font-family="Helvetica,sans-Serif" font-size="10.00"> </text>
<polyline fill="none" stroke="black" points="269.34,-159.5 329.525,-159.5 "/>
<text text-anchor="start" x="277.34" y="-147.5" font-family="Helvetica,sans-Serif" font-size="10.00">+ invoke()</text>
</g>
<!-- Node3 -->
<g id="node3" class="node"><title>Node3</title>
<g id="a_node3"><a xlink:href="../../d2/d88/interfaceAsyncWait.html" target="_top" xlink:title="Message Handler object for asynchronous waiting. ">
<polygon fill="white" stroke="black" points="0,-25.5 0,-79.5 62.8652,-79.5 62.8652,-25.5 0,-25.5"/>
<text text-anchor="middle" x="31.4326" y="-67.5" font-family="Helvetica,sans-Serif" font-size="10.00">AsyncWait</text>
<polyline fill="none" stroke="black" points="0,-61.5 62.8652,-61.5 "/>
<text text-anchor="middle" x="31.4326" y="-49.5" font-family="Helvetica,sans-Serif" font-size="10.00"> </text>
<polyline fill="none" stroke="black" points="0,-43.5 62.8652,-43.5 "/>
<text text-anchor="start" x="8" y="-31.5" font-family="Helvetica,sans-Serif" font-size="10.00">+ end()</text>
</a>
</g>
</g>
<!-- Node1&#45;&gt;Node3 -->
<g id="edge2" class="edge"><title>Node1&#45;&gt;Node3</title>
<path fill="none" stroke="midnightblue" d="M259.05,-163.997C211.076,-158.208 130.272,-143.189 72.4326,-105 62.6094,-98.5142 54.0537,-88.9106 47.3357,-79.7479"/>
<polygon fill="none" stroke="midnightblue" points="258.729,-167.483 269.058,-165.127 259.514,-160.527 258.729,-167.483"/>
</g>
<!-- Node4 -->
<g id="node4" class="node"><title>Node4</title>
<g id="a_node4"><a xlink:href="../../d3/d78/interfaceChain.html" target="_top" xlink:title="The handler of the message handler chain object. ">
<polygon fill="white" stroke="black" points="81.1089,-15.5 81.1089,-89.5 145.756,-89.5 145.756,-15.5 81.1089,-15.5"/>
<text text-anchor="middle" x="113.433" y="-77.5" font-family="Helvetica,sans-Serif" font-size="10.00">Chain</text>
<polyline fill="none" stroke="black" points="81.1089,-71.5 145.756,-71.5 "/>
<text text-anchor="middle" x="113.433" y="-59.5" font-family="Helvetica,sans-Serif" font-size="10.00"> </text>
<polyline fill="none" stroke="black" points="81.1089,-53.5 145.756,-53.5 "/>
<text text-anchor="start" x="89.1089" y="-41.5" font-family="Helvetica,sans-Serif" font-size="10.00">+ Chain()</text>
<text text-anchor="start" x="89.1089" y="-31.5" font-family="Helvetica,sans-Serif" font-size="10.00">+ append()</text>
<text text-anchor="start" x="89.1089" y="-21.5" font-family="Helvetica,sans-Serif" font-size="10.00">+ append()</text>
</a>
</g>
</g>
<!-- Node1&#45;&gt;Node4 -->
<g id="edge3" class="edge"><title>Node1&#45;&gt;Node4</title>
<path fill="none" stroke="midnightblue" d="M259.564,-156.206C228.76,-146.154 186.169,-129.262 154.433,-105 148.713,-100.627 143.325,-95.2878 138.452,-89.7222"/>
<polygon fill="none" stroke="midnightblue" points="258.532,-159.55 269.122,-159.229 260.644,-152.876 258.532,-159.55"/>
</g>
<!-- Node5 -->
<g id="node5" class="node"><title>Node5</title>
<g id="a_node5"><a xlink:href="../../dc/de5/interfaceHandlerEx.html" target="_top" xlink:title="Expand Meassage Handler Interface. ">
<polygon fill="white" stroke="black" points="163.675,-20.5 163.675,-84.5 227.19,-84.5 227.19,-20.5 163.675,-20.5"/>
<text text-anchor="middle" x="195.433" y="-72.5" font-family="Helvetica,sans-Serif" font-size="10.00">HandlerEx</text>
<polyline fill="none" stroke="black" points="163.675,-66.5 227.19,-66.5 "/>
<text text-anchor="start" x="171.675" y="-54.5" font-family="Helvetica,sans-Serif" font-size="10.00">+ handler</text>
<text text-anchor="start" x="171.675" y="-44.5" font-family="Helvetica,sans-Serif" font-size="10.00">+ stats</text>
<polyline fill="none" stroke="black" points="163.675,-38.5 227.19,-38.5 "/>
<text text-anchor="start" x="171.675" y="-26.5" font-family="Helvetica,sans-Serif" font-size="10.00">+ onerror()</text>
</a>
</g>
</g>
<!-- Node1&#45;&gt;Node5 -->
<g id="edge4" class="edge"><title>Node1&#45;&gt;Node5</title>
<path fill="none" stroke="midnightblue" d="M264.43,-134.219C255.107,-124.969 245.197,-114.776 236.433,-105 230.711,-98.6179 224.823,-91.555 219.357,-84.7581"/>
<polygon fill="none" stroke="midnightblue" points="262.161,-136.896 271.747,-141.408 267.067,-131.903 262.161,-136.896"/>
</g>
<!-- Node6 -->
<g id="node6" class="node"><title>Node6</title>
<g id="a_node6"><a xlink:href="../../d6/d18/interfaceHttpHandler.html" target="_top" xlink:title="http Protocol Conversion Processor ">
<polygon fill="white" stroke="black" points="245.437,-0.5 245.437,-104.5 353.429,-104.5 353.429,-0.5 245.437,-0.5"/>
<text text-anchor="middle" x="299.433" y="-92.5" font-family="Helvetica,sans-Serif" font-size="10.00">HttpHandler</text>
<polyline fill="none" stroke="black" points="245.437,-86.5 353.429,-86.5 "/>
<text text-anchor="start" x="253.437" y="-74.5" font-family="Helvetica,sans-Serif" font-size="10.00">+ crossDomain</text>
<text text-anchor="start" x="253.437" y="-64.5" font-family="Helvetica,sans-Serif" font-size="10.00">+ forceGZIP</text>
<text text-anchor="start" x="253.437" y="-54.5" font-family="Helvetica,sans-Serif" font-size="10.00">+ maxHeadersCount</text>
<text text-anchor="start" x="253.437" y="-44.5" font-family="Helvetica,sans-Serif" font-size="10.00">+ maxUploadSize</text>
<text text-anchor="start" x="253.437" y="-34.5" font-family="Helvetica,sans-Serif" font-size="10.00">+ handler</text>
<text text-anchor="start" x="253.437" y="-24.5" font-family="Helvetica,sans-Serif" font-size="10.00">+ stats</text>
<polyline fill="none" stroke="black" points="245.437,-18.5 353.429,-18.5 "/>
<text text-anchor="start" x="253.437" y="-6.5" font-family="Helvetica,sans-Serif" font-size="10.00">+ HttpHandler()</text>
</a>
</g>
</g>
<!-- Node1&#45;&gt;Node6 -->
<g id="edge5" class="edge"><title>Node1&#45;&gt;Node6</title>
<path fill="none" stroke="midnightblue" d="M299.433,-131.123C299.433,-122.708 299.433,-113.598 299.433,-104.681"/>
<polygon fill="none" stroke="midnightblue" points="295.933,-131.346 299.433,-141.346 302.933,-131.346 295.933,-131.346"/>
</g>
<!-- Node7 -->
<g id="node7" class="node"><title>Node7</title>
<g id="a_node7"><a xlink:href="../../df/dcb/interfaceRouting.html" target="_top" xlink:title="Message handler router. ">
<polygon fill="white" stroke="black" points="371.56,-15.5 371.56,-89.5 437.306,-89.5 437.306,-15.5 371.56,-15.5"/>
<text text-anchor="middle" x="404.433" y="-77.5" font-family="Helvetica,sans-Serif" font-size="10.00">Routing</text>
<polyline fill="none" stroke="black" points="371.56,-71.5 437.306,-71.5 "/>
<text text-anchor="middle" x="404.433" y="-59.5" font-family="Helvetica,sans-Serif" font-size="10.00"> </text>
<polyline fill="none" stroke="black" points="371.56,-53.5 437.306,-53.5 "/>
<text text-anchor="start" x="379.56" y="-41.5" font-family="Helvetica,sans-Serif" font-size="10.00">+ Routing()</text>
<text text-anchor="start" x="379.56" y="-31.5" font-family="Helvetica,sans-Serif" font-size="10.00">+ append()</text>
<text text-anchor="start" x="379.56" y="-21.5" font-family="Helvetica,sans-Serif" font-size="10.00">+ append()</text>
</a>
</g>
</g>
<!-- Node1&#45;&gt;Node7 -->
<g id="edge6" class="edge"><title>Node1&#45;&gt;Node7</title>
<path fill="none" stroke="midnightblue" d="M334.359,-134.15C343.681,-124.9 353.611,-114.724 362.433,-105 366.851,-100.129 371.384,-94.8744 375.762,-89.6479"/>
<polygon fill="none" stroke="midnightblue" points="331.721,-131.835 327.046,-141.342 336.629,-136.826 331.721,-131.835"/>
</g>
<!-- Node8 -->
<g id="node8" class="node"><title>Node8</title>
<g id="a_node8"><a xlink:href="../../df/dd8/interfaceSslHandler.html" target="_top" xlink:title="ssl protocol converter ">
<polygon fill="white" stroke="black" points="455.338,-10.5 455.338,-94.5 535.527,-94.5 535.527,-10.5 455.338,-10.5"/>
<text text-anchor="middle" x="495.433" y="-82.5" font-family="Helvetica,sans-Serif" font-size="10.00">SslHandler</text>
<polyline fill="none" stroke="black" points="455.338,-76.5 535.527,-76.5 "/>
<text text-anchor="start" x="463.338" y="-64.5" font-family="Helvetica,sans-Serif" font-size="10.00">+ verification</text>
<text text-anchor="start" x="463.338" y="-54.5" font-family="Helvetica,sans-Serif" font-size="10.00">+ ca</text>
<text text-anchor="start" x="463.338" y="-44.5" font-family="Helvetica,sans-Serif" font-size="10.00">+ handler</text>
<polyline fill="none" stroke="black" points="455.338,-38.5 535.527,-38.5 "/>
<text text-anchor="start" x="463.338" y="-26.5" font-family="Helvetica,sans-Serif" font-size="10.00">+ SslHandler()</text>
<text text-anchor="start" x="463.338" y="-16.5" font-family="Helvetica,sans-Serif" font-size="10.00">+ SslHandler()</text>
</a>
</g>
</g>
<!-- Node1&#45;&gt;Node8 -->
<g id="edge7" class="edge"><title>Node1&#45;&gt;Node8</title>
<path fill="none" stroke="midnightblue" d="M339.272,-155.516C370.184,-145.088 413.219,-128.023 446.433,-105 450.895,-101.906 455.272,-98.3549 459.459,-94.5942"/>
<polygon fill="none" stroke="midnightblue" points="338.096,-152.219 329.69,-158.668 340.283,-158.868 338.096,-152.219"/>
</g>
<!-- Node9 -->
<g id="node9" class="node"><title>Node9</title>
<g id="a_node9"><a xlink:href="../../da/d20/interfaceWebSocketHandler.html" target="_top" xlink:title="WebSocket packet protocol conversion processor. ">
<polygon fill="white" stroke="black" points="553.805,-15.5 553.805,-89.5 671.06,-89.5 671.06,-15.5 553.805,-15.5"/>
<text text-anchor="middle" x="612.433" y="-77.5" font-family="Helvetica,sans-Serif" font-size="10.00">WebSocketHandler</text>
<polyline fill="none" stroke="black" points="553.805,-71.5 671.06,-71.5 "/>
<text text-anchor="start" x="561.805" y="-59.5" font-family="Helvetica,sans-Serif" font-size="10.00">+ maxSize</text>
<text text-anchor="start" x="561.805" y="-49.5" font-family="Helvetica,sans-Serif" font-size="10.00">+ handler</text>
<text text-anchor="start" x="561.805" y="-39.5" font-family="Helvetica,sans-Serif" font-size="10.00">+ stats</text>
<polyline fill="none" stroke="black" points="553.805,-33.5 671.06,-33.5 "/>
<text text-anchor="start" x="561.805" y="-21.5" font-family="Helvetica,sans-Serif" font-size="10.00">+ WebSocketHandler()</text>
</a>
</g>
</g>
<!-- Node1&#45;&gt;Node9 -->
<g id="edge8" class="edge"><title>Node1&#45;&gt;Node9</title>
<path fill="none" stroke="midnightblue" d="M339.885,-162.223C389.893,-154.585 476.684,-137.641 544.433,-105 553.105,-100.822 561.757,-95.4453 569.84,-89.7483"/>
<polygon fill="none" stroke="midnightblue" points="339.173,-158.79 329.792,-163.714 340.196,-165.715 339.173,-158.79"/>
</g>
<!-- Node2 -->
<g id="node2" class="node"><title>Node2</title>
<g id="a_node2"><a xlink:href="../../db/d38/interfaceobject.html" target="_top" xlink:title="All objects inherit from this. ">
<polygon fill="white" stroke="black" points="266.289,-232.5 266.289,-316.5 332.577,-316.5 332.577,-232.5 266.289,-232.5"/>
<text text-anchor="middle" x="299.433" y="-304.5" font-family="Helvetica,sans-Serif" font-size="10.00">object</text>
<polyline fill="none" stroke="black" points="266.289,-298.5 332.577,-298.5 "/>
<text text-anchor="middle" x="299.433" y="-286.5" font-family="Helvetica,sans-Serif" font-size="10.00"> </text>
<polyline fill="none" stroke="black" points="266.289,-280.5 332.577,-280.5 "/>
<text text-anchor="start" x="274.289" y="-268.5" font-family="Helvetica,sans-Serif" font-size="10.00">+ dispose()</text>
<text text-anchor="start" x="274.289" y="-258.5" font-family="Helvetica,sans-Serif" font-size="10.00">+ toString()</text>
<text text-anchor="start" x="274.289" y="-248.5" font-family="Helvetica,sans-Serif" font-size="10.00">+ toJSON()</text>
<text text-anchor="start" x="274.289" y="-238.5" font-family="Helvetica,sans-Serif" font-size="10.00">+ valueOf()</text>
</a>
</g>
</g>
<!-- Node2&#45;&gt;Node1 -->
<g id="edge1" class="edge"><title>Node2&#45;&gt;Node1</title>
<path fill="none" stroke="midnightblue" d="M299.433,-222.111C299.433,-212.937 299.433,-203.738 299.433,-195.655"/>
<polygon fill="none" stroke="midnightblue" points="295.933,-222.396 299.433,-232.396 302.933,-222.396 295.933,-222.396"/>
</g>
</g>
</svg>
