<?xml version="1.0" encoding="UTF-8" standalone="no"?>
<!DOCTYPE svg PUBLIC "-//W3C//DTD SVG 1.1//EN"
 "http://www.w3.org/Graphics/SVG/1.1/DTD/svg11.dtd">
<!-- Generated by graphviz version 2.38.0 (20140413.2041)
 -->
<!-- Title: BufferedStream Pages: 1 -->
<svg width="109pt" height="526pt"
 viewBox="0.00 0.00 109.14 526.00" xmlns="http://www.w3.org/2000/svg" xmlns:xlink="http://www.w3.org/1999/xlink">
<g id="graph0" class="graph" transform="scale(1 1) rotate(0) translate(4 522)">
<title>BufferedStream</title>
<polygon fill="white" stroke="none" points="-4,4 -4,-522 105.137,-522 105.137,4 -4,4"/>
<!-- Node1 -->
<g id="node1" class="node"><title>Node1</title>
<polygon fill="#bfbfbf" stroke="black" points="0,-131.5 0,-265.5 101.137,-265.5 101.137,-131.5 0,-131.5"/>
<text text-anchor="middle" x="50.5684" y="-253.5" font-family="Helvetica,sans-Serif" font-size="10.00">BufferedStream</text>
<polyline fill="none" stroke="black" points="0,-247.5 101.137,-247.5 "/>
<text text-anchor="start" x="8" y="-235.5" font-family="Helvetica,sans-Serif" font-size="10.00">+ stream</text>
<text text-anchor="start" x="8" y="-225.5" font-family="Helvetica,sans-Serif" font-size="10.00">+ charset</text>
<text text-anchor="start" x="8" y="-215.5" font-family="Helvetica,sans-Serif" font-size="10.00">+ EOL</text>
<polyline fill="none" stroke="black" points="0,-209.5 101.137,-209.5 "/>
<text text-anchor="start" x="8" y="-197.5" font-family="Helvetica,sans-Serif" font-size="10.00">+ BufferedStream()</text>
<text text-anchor="start" x="8" y="-187.5" font-family="Helvetica,sans-Serif" font-size="10.00">+ readText()</text>
<text text-anchor="start" x="8" y="-177.5" font-family="Helvetica,sans-Serif" font-size="10.00">+ readLine()</text>
<text text-anchor="start" x="8" y="-167.5" font-family="Helvetica,sans-Serif" font-size="10.00">+ readLines()</text>
<text text-anchor="start" x="8" y="-157.5" font-family="Helvetica,sans-Serif" font-size="10.00">+ readUntil()</text>
<text text-anchor="start" x="8" y="-147.5" font-family="Helvetica,sans-Serif" font-size="10.00">+ writeText()</text>
<text text-anchor="start" x="8" y="-137.5" font-family="Helvetica,sans-Serif" font-size="10.00">+ writeLine()</text>
</g>
<!-- Node4 -->
<g id="node4" class="node"><title>Node4</title>
<g id="a_node4"><a xlink:href="../../d8/d10/interfaceSubProcess.html" target="_top" xlink:title="子进程对象 ">
<polygon fill="white" stroke="black" points="9.08447,-0.5 9.08447,-94.5 92.0522,-94.5 92.0522,-0.5 9.08447,-0.5"/>
<text text-anchor="middle" x="50.5684" y="-82.5" font-family="Helvetica,sans-Serif" font-size="10.00">SubProcess</text>
<polyline fill="none" stroke="black" points="9.08447,-76.5 92.0522,-76.5 "/>
<text text-anchor="start" x="17.0845" y="-64.5" font-family="Helvetica,sans-Serif" font-size="10.00">+ pid</text>
<text text-anchor="start" x="17.0845" y="-54.5" font-family="Helvetica,sans-Serif" font-size="10.00">+ stdin</text>
<text text-anchor="start" x="17.0845" y="-44.5" font-family="Helvetica,sans-Serif" font-size="10.00">+ stdout</text>
<polyline fill="none" stroke="black" points="9.08447,-38.5 92.0522,-38.5 "/>
<text text-anchor="start" x="17.0845" y="-26.5" font-family="Helvetica,sans-Serif" font-size="10.00">+ kill()</text>
<text text-anchor="start" x="17.0845" y="-16.5" font-family="Helvetica,sans-Serif" font-size="10.00">+ wait()</text>
<text text-anchor="start" x="17.0845" y="-6.5" font-family="Helvetica,sans-Serif" font-size="10.00">+ findWindow()</text>
</a>
</g>
</g>
<!-- Node1&#45;&gt;Node4 -->
<g id="edge3" class="edge"><title>Node1&#45;&gt;Node4</title>
<path fill="none" stroke="midnightblue" d="M50.5684,-121.165C50.5684,-112.195 50.5684,-103.261 50.5684,-94.8835"/>
<polygon fill="none" stroke="midnightblue" points="47.0685,-121.279 50.5684,-131.279 54.0685,-121.279 47.0685,-121.279"/>
</g>
<!-- Node2 -->
<g id="node2" class="node"><title>Node2</title>
<g id="a_node2"><a xlink:href="../../d4/dc7/interfaceStream.html" target="_top" xlink:title="流操作对象，用于二进制数据流读写 ">
<polygon fill="white" stroke="black" points="19.0869,-302.5 19.0869,-386.5 82.0498,-386.5 82.0498,-302.5 19.0869,-302.5"/>
<text text-anchor="middle" x="50.5684" y="-374.5" font-family="Helvetica,sans-Serif" font-size="10.00">Stream</text>
<polyline fill="none" stroke="black" points="19.0869,-368.5 82.0498,-368.5 "/>
<text text-anchor="middle" x="50.5684" y="-356.5" font-family="Helvetica,sans-Serif" font-size="10.00"> </text>
<polyline fill="none" stroke="black" points="19.0869,-350.5 82.0498,-350.5 "/>
<text text-anchor="start" x="27.0869" y="-338.5" font-family="Helvetica,sans-Serif" font-size="10.00">+ read()</text>
<text text-anchor="start" x="27.0869" y="-328.5" font-family="Helvetica,sans-Serif" font-size="10.00">+ write()</text>
<text text-anchor="start" x="27.0869" y="-318.5" font-family="Helvetica,sans-Serif" font-size="10.00">+ close()</text>
<text text-anchor="start" x="27.0869" y="-308.5" font-family="Helvetica,sans-Serif" font-size="10.00">+ copyTo()</text>
</a>
</g>
</g>
<!-- Node2&#45;&gt;Node1 -->
<g id="edge1" class="edge"><title>Node2&#45;&gt;Node1</title>
<path fill="none" stroke="midnightblue" d="M50.5684,-292.005C50.5684,-283.416 50.5684,-274.401 50.5684,-265.509"/>
<polygon fill="none" stroke="midnightblue" points="47.0685,-292.235 50.5684,-302.235 54.0685,-292.235 47.0685,-292.235"/>
</g>
<!-- Node3 -->
<g id="node3" class="node"><title>Node3</title>
<g id="a_node3"><a xlink:href="../../db/d38/interfaceobject.html" target="_top" xlink:title="基础对象，所有对象均继承于此 ">
<polygon fill="white" stroke="black" points="17.4243,-423.5 17.4243,-517.5 83.7124,-517.5 83.7124,-423.5 17.4243,-423.5"/>
<text text-anchor="middle" x="50.5684" y="-505.5" font-family="Helvetica,sans-Serif" font-size="10.00">object</text>
<polyline fill="none" stroke="black" points="17.4243,-499.5 83.7124,-499.5 "/>
<text text-anchor="middle" x="50.5684" y="-487.5" font-family="Helvetica,sans-Serif" font-size="10.00"> </text>
<polyline fill="none" stroke="black" points="17.4243,-481.5 83.7124,-481.5 "/>
<text text-anchor="start" x="25.4243" y="-469.5" font-family="Helvetica,sans-Serif" font-size="10.00">+ dispose()</text>
<text text-anchor="start" x="25.4243" y="-459.5" font-family="Helvetica,sans-Serif" font-size="10.00">+ equals()</text>
<text text-anchor="start" x="25.4243" y="-449.5" font-family="Helvetica,sans-Serif" font-size="10.00">+ toString()</text>
<text text-anchor="start" x="25.4243" y="-439.5" font-family="Helvetica,sans-Serif" font-size="10.00">+ toJSON()</text>
<text text-anchor="start" x="25.4243" y="-429.5" font-family="Helvetica,sans-Serif" font-size="10.00">+ valueOf()</text>
</a>
</g>
</g>
<!-- Node3&#45;&gt;Node2 -->
<g id="edge2" class="edge"><title>Node3&#45;&gt;Node2</title>
<path fill="none" stroke="midnightblue" d="M50.5684,-413.061C50.5684,-404.219 50.5684,-395.225 50.5684,-386.806"/>
<polygon fill="none" stroke="midnightblue" points="47.0685,-413.327 50.5684,-423.327 54.0685,-413.327 47.0685,-413.327"/>
</g>
</g>
</svg>
