<?xml version="1.0" encoding="UTF-8" standalone="no"?>
<!DOCTYPE svg PUBLIC "-//W3C//DTD SVG 1.1//EN"
 "http://www.w3.org/Graphics/SVG/1.1/DTD/svg11.dtd">
<!-- Generated by graphviz version 2.40.1 (20161225.0304)
 -->
<!-- Title: BufferedStream Pages: 1 -->
<svg width="109pt" height="526pt"
 viewBox="0.00 0.00 109.14 526.00" xmlns="http://www.w3.org/2000/svg" xmlns:xlink="http://www.w3.org/1999/xlink">
<g id="graph0" class="graph" transform="scale(1 1) rotate(0) translate(4 522)">
<title>BufferedStream</title>
<polygon fill="#ffffff" stroke="transparent" points="-4,4 -4,-522 105.1367,-522 105.1367,4 -4,4"/>
<!-- Node0 -->
<g id="node1" class="node">
<title>Node0</title>
<polygon fill="#bfbfbf" stroke="#000000" points="0,-131.5 0,-265.5 101.1367,-265.5 101.1367,-131.5 0,-131.5"/>
<text text-anchor="middle" x="50.5684" y="-253.5" font-family="Helvetica,sans-Serif" font-size="10.00" fill="#000000">BufferedStream</text>
<polyline fill="none" stroke="#000000" points="0,-247.5 101.1367,-247.5 "/>
<text text-anchor="start" x="8" y="-235.5" font-family="Helvetica,sans-Serif" font-size="10.00" fill="#000000">+ stream</text>
<text text-anchor="start" x="8" y="-225.5" font-family="Helvetica,sans-Serif" font-size="10.00" fill="#000000">+ charset</text>
<text text-anchor="start" x="8" y="-215.5" font-family="Helvetica,sans-Serif" font-size="10.00" fill="#000000">+ EOL</text>
<polyline fill="none" stroke="#000000" points="0,-209.5 101.1367,-209.5 "/>
<text text-anchor="start" x="8" y="-197.5" font-family="Helvetica,sans-Serif" font-size="10.00" fill="#000000">+ BufferedStream()</text>
<text text-anchor="start" x="8" y="-187.5" font-family="Helvetica,sans-Serif" font-size="10.00" fill="#000000">+ readText()</text>
<text text-anchor="start" x="8" y="-177.5" font-family="Helvetica,sans-Serif" font-size="10.00" fill="#000000">+ readLine()</text>
<text text-anchor="start" x="8" y="-167.5" font-family="Helvetica,sans-Serif" font-size="10.00" fill="#000000">+ readLines()</text>
<text text-anchor="start" x="8" y="-157.5" font-family="Helvetica,sans-Serif" font-size="10.00" fill="#000000">+ readUntil()</text>
<text text-anchor="start" x="8" y="-147.5" font-family="Helvetica,sans-Serif" font-size="10.00" fill="#000000">+ writeText()</text>
<text text-anchor="start" x="8" y="-137.5" font-family="Helvetica,sans-Serif" font-size="10.00" fill="#000000">+ writeLine()</text>
</g>
<!-- Node3 -->
<g id="node4" class="node">
<title>Node3</title>
<g id="a_node4"><a xlink:href="../../d8/d10/interfaceSubProcess.html" target="_top" xlink:title="子进程对象 ">
<polygon fill="#ffffff" stroke="#000000" points="9.0845,-.5 9.0845,-94.5 92.0522,-94.5 92.0522,-.5 9.0845,-.5"/>
<text text-anchor="middle" x="50.5684" y="-82.5" font-family="Helvetica,sans-Serif" font-size="10.00" fill="#000000">SubProcess</text>
<polyline fill="none" stroke="#000000" points="9.0845,-76.5 92.0522,-76.5 "/>
<text text-anchor="start" x="17.0845" y="-64.5" font-family="Helvetica,sans-Serif" font-size="10.00" fill="#000000">+ pid</text>
<text text-anchor="start" x="17.0845" y="-54.5" font-family="Helvetica,sans-Serif" font-size="10.00" fill="#000000">+ stdin</text>
<text text-anchor="start" x="17.0845" y="-44.5" font-family="Helvetica,sans-Serif" font-size="10.00" fill="#000000">+ stdout</text>
<polyline fill="none" stroke="#000000" points="9.0845,-38.5 92.0522,-38.5 "/>
<text text-anchor="start" x="17.0845" y="-26.5" font-family="Helvetica,sans-Serif" font-size="10.00" fill="#000000">+ kill()</text>
<text text-anchor="start" x="17.0845" y="-16.5" font-family="Helvetica,sans-Serif" font-size="10.00" fill="#000000">+ wait()</text>
<text text-anchor="start" x="17.0845" y="-6.5" font-family="Helvetica,sans-Serif" font-size="10.00" fill="#000000">+ findWindow()</text>
</a>
</g>
</g>
<!-- Node0&#45;&gt;Node3 -->
<g id="edge3" class="edge">
<title>Node0&#45;&gt;Node3</title>
<path fill="none" stroke="#191970" d="M50.5684,-121.14C50.5684,-112.0503 50.5684,-102.9965 50.5684,-94.5061"/>
<polygon fill="none" stroke="#191970" points="47.0685,-121.3898 50.5684,-131.3898 54.0685,-121.3899 47.0685,-121.3898"/>
</g>
<!-- Node1 -->
<g id="node2" class="node">
<title>Node1</title>
<g id="a_node2"><a xlink:href="../../d4/dc7/interfaceStream.html" target="_top" xlink:title="流操作对象，用于二进制数据流读写 ">
<polygon fill="#ffffff" stroke="#000000" points="19.0869,-302.5 19.0869,-386.5 82.0498,-386.5 82.0498,-302.5 19.0869,-302.5"/>
<text text-anchor="middle" x="50.5684" y="-374.5" font-family="Helvetica,sans-Serif" font-size="10.00" fill="#000000">Stream</text>
<polyline fill="none" stroke="#000000" points="19.0869,-368.5 82.0498,-368.5 "/>
<text text-anchor="middle" x="50.5684" y="-356.5" font-family="Helvetica,sans-Serif" font-size="10.00" fill="#000000"> </text>
<polyline fill="none" stroke="#000000" points="19.0869,-350.5 82.0498,-350.5 "/>
<text text-anchor="start" x="27.0869" y="-338.5" font-family="Helvetica,sans-Serif" font-size="10.00" fill="#000000">+ read()</text>
<text text-anchor="start" x="27.0869" y="-328.5" font-family="Helvetica,sans-Serif" font-size="10.00" fill="#000000">+ write()</text>
<text text-anchor="start" x="27.0869" y="-318.5" font-family="Helvetica,sans-Serif" font-size="10.00" fill="#000000">+ close()</text>
<text text-anchor="start" x="27.0869" y="-308.5" font-family="Helvetica,sans-Serif" font-size="10.00" fill="#000000">+ copyTo()</text>
</a>
</g>
</g>
<!-- Node1&#45;&gt;Node0 -->
<g id="edge1" class="edge">
<title>Node1&#45;&gt;Node0</title>
<path fill="none" stroke="#191970" d="M50.5684,-292.0637C50.5684,-283.4995 50.5684,-274.5242 50.5684,-265.6643"/>
<polygon fill="none" stroke="#191970" points="47.0685,-292.2707 50.5684,-302.2708 54.0685,-292.2708 47.0685,-292.2707"/>
</g>
<!-- Node2 -->
<g id="node3" class="node">
<title>Node2</title>
<g id="a_node3"><a xlink:href="../../db/d38/interfaceobject.html" target="_top" xlink:title="基础对象，所有对象均继承于此 ">
<polygon fill="#ffffff" stroke="#000000" points="17.4243,-423.5 17.4243,-517.5 83.7124,-517.5 83.7124,-423.5 17.4243,-423.5"/>
<text text-anchor="middle" x="50.5684" y="-505.5" font-family="Helvetica,sans-Serif" font-size="10.00" fill="#000000">object</text>
<polyline fill="none" stroke="#000000" points="17.4243,-499.5 83.7124,-499.5 "/>
<text text-anchor="middle" x="50.5684" y="-487.5" font-family="Helvetica,sans-Serif" font-size="10.00" fill="#000000"> </text>
<polyline fill="none" stroke="#000000" points="17.4243,-481.5 83.7124,-481.5 "/>
<text text-anchor="start" x="25.4243" y="-469.5" font-family="Helvetica,sans-Serif" font-size="10.00" fill="#000000">+ dispose()</text>
<text text-anchor="start" x="25.4243" y="-459.5" font-family="Helvetica,sans-Serif" font-size="10.00" fill="#000000">+ equals()</text>
<text text-anchor="start" x="25.4243" y="-449.5" font-family="Helvetica,sans-Serif" font-size="10.00" fill="#000000">+ toString()</text>
<text text-anchor="start" x="25.4243" y="-439.5" font-family="Helvetica,sans-Serif" font-size="10.00" fill="#000000">+ toJSON()</text>
<text text-anchor="start" x="25.4243" y="-429.5" font-family="Helvetica,sans-Serif" font-size="10.00" fill="#000000">+ valueOf()</text>
</a>
</g>
</g>
<!-- Node2&#45;&gt;Node1 -->
<g id="edge2" class="edge">
<title>Node2&#45;&gt;Node1</title>
<path fill="none" stroke="#191970" d="M50.5684,-412.9387C50.5684,-404.0848 50.5684,-395.0866 50.5684,-386.6505"/>
<polygon fill="none" stroke="#191970" points="47.0685,-413.2237 50.5684,-423.2238 54.0685,-413.2238 47.0685,-413.2237"/>
</g>
</g>
</svg>
