<?xml version="1.0" encoding="UTF-8" standalone="no"?>
<!DOCTYPE svg PUBLIC "-//W3C//DTD SVG 1.1//EN"
 "http://www.w3.org/Graphics/SVG/1.1/DTD/svg11.dtd">
<!-- Generated by graphviz version 2.40.1 (20161225.0304)
 -->
<!-- Title: DbConnection Pages: 1 -->
<svg width="168pt" height="345pt"
 viewBox="0.00 0.00 168.49 345.00" xmlns="http://www.w3.org/2000/svg" xmlns:xlink="http://www.w3.org/1999/xlink">
<g id="graph0" class="graph" transform="scale(1 1) rotate(0) translate(4 341)">
<title>DbConnection</title>
<polygon fill="#ffffff" stroke="transparent" points="-4,4 -4,-341 164.4907,-341 164.4907,4 -4,4"/>
<!-- Node0 -->
<g id="node1" class="node">
<title>Node0</title>
<polygon fill="#bfbfbf" stroke="#000000" points="43.7656,-101.5 43.7656,-215.5 123.1396,-215.5 123.1396,-101.5 43.7656,-101.5"/>
<text text-anchor="middle" x="83.4526" y="-203.5" font-family="Helvetica,sans-Serif" font-size="10.00" fill="#000000">DbConnection</text>
<polyline fill="none" stroke="#000000" points="43.7656,-197.5 123.1396,-197.5 "/>
<text text-anchor="middle" x="83.4526" y="-185.5" font-family="Helvetica,sans-Serif" font-size="10.00" fill="#000000"> </text>
<polyline fill="none" stroke="#000000" points="43.7656,-179.5 123.1396,-179.5 "/>
<text text-anchor="start" x="51.7656" y="-167.5" font-family="Helvetica,sans-Serif" font-size="10.00" fill="#000000">+ close()</text>
<text text-anchor="start" x="51.7656" y="-157.5" font-family="Helvetica,sans-Serif" font-size="10.00" fill="#000000">+ begin()</text>
<text text-anchor="start" x="51.7656" y="-147.5" font-family="Helvetica,sans-Serif" font-size="10.00" fill="#000000">+ commit()</text>
<text text-anchor="start" x="51.7656" y="-137.5" font-family="Helvetica,sans-Serif" font-size="10.00" fill="#000000">+ rollback()</text>
<text text-anchor="start" x="51.7656" y="-127.5" font-family="Helvetica,sans-Serif" font-size="10.00" fill="#000000">+ execute()</text>
<text text-anchor="start" x="51.7656" y="-117.5" font-family="Helvetica,sans-Serif" font-size="10.00" fill="#000000">+ execute()</text>
<text text-anchor="start" x="51.7656" y="-107.5" font-family="Helvetica,sans-Serif" font-size="10.00" fill="#000000">+ format()</text>
</g>
<!-- Node2 -->
<g id="node3" class="node">
<title>Node2</title>
<g id="a_node3"><a xlink:href="../../d2/d68/interfaceMySQL.html" target="_top" xlink:title="mysql database connection object ">
<polygon fill="#ffffff" stroke="#000000" points="0,-.5 0,-64.5 78.9053,-64.5 78.9053,-.5 0,-.5"/>
<text text-anchor="middle" x="39.4526" y="-52.5" font-family="Helvetica,sans-Serif" font-size="10.00" fill="#000000">MySQL</text>
<polyline fill="none" stroke="#000000" points="0,-46.5 78.9053,-46.5 "/>
<text text-anchor="start" x="8" y="-34.5" font-family="Helvetica,sans-Serif" font-size="10.00" fill="#000000">+ rxBufferSize</text>
<text text-anchor="start" x="8" y="-24.5" font-family="Helvetica,sans-Serif" font-size="10.00" fill="#000000">+ txBufferSize</text>
<polyline fill="none" stroke="#000000" points="0,-18.5 78.9053,-18.5 "/>
<text text-anchor="start" x="8" y="-6.5" font-family="Helvetica,sans-Serif" font-size="10.00" fill="#000000">+ use()</text>
</a>
</g>
</g>
<!-- Node0&#45;&gt;Node2 -->
<g id="edge2" class="edge">
<title>Node0&#45;&gt;Node2</title>
<path fill="none" stroke="#191970" d="M60.1944,-91.8969C56.8779,-82.3996 53.5996,-73.0118 50.6624,-64.6007"/>
<polygon fill="none" stroke="#191970" points="56.9112,-93.1115 63.5125,-101.3986 63.5199,-90.8037 56.9112,-93.1115"/>
</g>
<!-- Node3 -->
<g id="node4" class="node">
<title>Node3</title>
<g id="a_node4"><a xlink:href="../../d7/df5/interfaceSQLite.html" target="_top" xlink:title="sqlite database connection object ">
<polygon fill="#ffffff" stroke="#000000" points="96.4146,-.5 96.4146,-64.5 160.4907,-64.5 160.4907,-.5 96.4146,-.5"/>
<text text-anchor="middle" x="128.4526" y="-52.5" font-family="Helvetica,sans-Serif" font-size="10.00" fill="#000000">SQLite</text>
<polyline fill="none" stroke="#000000" points="96.4146,-46.5 160.4907,-46.5 "/>
<text text-anchor="start" x="104.4146" y="-34.5" font-family="Helvetica,sans-Serif" font-size="10.00" fill="#000000">+ fileName</text>
<text text-anchor="start" x="104.4146" y="-24.5" font-family="Helvetica,sans-Serif" font-size="10.00" fill="#000000">+ timeout</text>
<polyline fill="none" stroke="#000000" points="96.4146,-18.5 160.4907,-18.5 "/>
<text text-anchor="start" x="104.4146" y="-6.5" font-family="Helvetica,sans-Serif" font-size="10.00" fill="#000000">+ backup()</text>
</a>
</g>
</g>
<!-- Node0&#45;&gt;Node3 -->
<g id="edge3" class="edge">
<title>Node0&#45;&gt;Node3</title>
<path fill="none" stroke="#191970" d="M107.2395,-91.8969C110.6314,-82.3996 113.9841,-73.0118 116.9881,-64.6007"/>
<polygon fill="none" stroke="#191970" points="103.9133,-90.8039 103.846,-101.3986 110.5055,-93.1583 103.9133,-90.8039"/>
</g>
<!-- Node1 -->
<g id="node2" class="node">
<title>Node1</title>
<g id="a_node2"><a xlink:href="../../db/d38/interfaceobject.html" target="_top" xlink:title="All objects inherit from this. ">
<polygon fill="#ffffff" stroke="#000000" points="50.3086,-252.5 50.3086,-336.5 116.5967,-336.5 116.5967,-252.5 50.3086,-252.5"/>
<text text-anchor="middle" x="83.4526" y="-324.5" font-family="Helvetica,sans-Serif" font-size="10.00" fill="#000000">object</text>
<polyline fill="none" stroke="#000000" points="50.3086,-318.5 116.5967,-318.5 "/>
<text text-anchor="middle" x="83.4526" y="-306.5" font-family="Helvetica,sans-Serif" font-size="10.00" fill="#000000"> </text>
<polyline fill="none" stroke="#000000" points="50.3086,-300.5 116.5967,-300.5 "/>
<text text-anchor="start" x="58.3086" y="-288.5" font-family="Helvetica,sans-Serif" font-size="10.00" fill="#000000">+ dispose()</text>
<text text-anchor="start" x="58.3086" y="-278.5" font-family="Helvetica,sans-Serif" font-size="10.00" fill="#000000">+ toString()</text>
<text text-anchor="start" x="58.3086" y="-268.5" font-family="Helvetica,sans-Serif" font-size="10.00" fill="#000000">+ toJSON()</text>
<text text-anchor="start" x="58.3086" y="-258.5" font-family="Helvetica,sans-Serif" font-size="10.00" fill="#000000">+ valueOf()</text>
</a>
</g>
</g>
<!-- Node1&#45;&gt;Node0 -->
<g id="edge1" class="edge">
<title>Node1&#45;&gt;Node0</title>
<path fill="none" stroke="#191970" d="M83.4526,-241.9557C83.4526,-233.3721 83.4526,-224.4415 83.4526,-215.7513"/>
<polygon fill="none" stroke="#191970" points="79.9527,-242.2142 83.4526,-252.2142 86.9527,-242.2143 79.9527,-242.2142"/>
</g>
</g>
</svg>
