<?xml version="1.0" encoding="UTF-8" standalone="no"?>
<!DOCTYPE svg PUBLIC "-//W3C//DTD SVG 1.1//EN"
 "http://www.w3.org/Graphics/SVG/1.1/DTD/svg11.dtd">
<!-- Generated by graphviz version 2.38.0 (20140413.2041)
 -->
<!-- Title: SslServer Pages: 1 -->
<svg width="84pt" height="375pt"
 viewBox="0.00 0.00 84.12 375.00" xmlns="http://www.w3.org/2000/svg" xmlns:xlink="http://www.w3.org/1999/xlink">
<g id="graph0" class="graph" transform="scale(1 1) rotate(0) translate(4 371)">
<title>SslServer</title>
<polygon fill="white" stroke="none" points="-4,4 -4,-371 80.1172,-371 80.1172,4 -4,4"/>
<!-- Node1 -->
<g id="node1" class="node"><title>Node1</title>
<polygon fill="#bfbfbf" stroke="black" points="0.74707,-0.5 0.74707,-94.5 75.3701,-94.5 75.3701,-0.5 0.74707,-0.5"/>
<text text-anchor="middle" x="38.0586" y="-82.5" font-family="Helvetica,sans-Serif" font-size="10.00">SslServer</text>
<polyline fill="none" stroke="black" points="0.74707,-76.5 75.3701,-76.5 "/>
<text text-anchor="start" x="8.74707" y="-64.5" font-family="Helvetica,sans-Serif" font-size="10.00">+ verification</text>
<text text-anchor="start" x="8.74707" y="-54.5" font-family="Helvetica,sans-Serif" font-size="10.00">+ ca</text>
<polyline fill="none" stroke="black" points="0.74707,-48.5 75.3701,-48.5 "/>
<text text-anchor="start" x="8.74707" y="-36.5" font-family="Helvetica,sans-Serif" font-size="10.00">+ SslServer()</text>
<text text-anchor="start" x="8.74707" y="-26.5" font-family="Helvetica,sans-Serif" font-size="10.00">+ SslServer()</text>
<text text-anchor="start" x="8.74707" y="-16.5" font-family="Helvetica,sans-Serif" font-size="10.00">+ SslServer()</text>
<text text-anchor="start" x="8.74707" y="-6.5" font-family="Helvetica,sans-Serif" font-size="10.00">+ SslServer()</text>
</g>
<!-- Node2 -->
<g id="node2" class="node"><title>Node2</title>
<g id="a_node2"><a xlink:href="../../d7/d48/interfaceTcpServer.html" target="_top" xlink:title="tcp 服务器对象，可方便创建一个标准多纤程 tcp 服务器 ">
<polygon fill="white" stroke="black" points="0,-131.5 0,-245.5 76.1172,-245.5 76.1172,-131.5 0,-131.5"/>
<text text-anchor="middle" x="38.0586" y="-233.5" font-family="Helvetica,sans-Serif" font-size="10.00">TcpServer</text>
<polyline fill="none" stroke="black" points="0,-227.5 76.1172,-227.5 "/>
<text text-anchor="start" x="8" y="-215.5" font-family="Helvetica,sans-Serif" font-size="10.00">+ socket</text>
<text text-anchor="start" x="8" y="-205.5" font-family="Helvetica,sans-Serif" font-size="10.00">+ handler</text>
<text text-anchor="start" x="8" y="-195.5" font-family="Helvetica,sans-Serif" font-size="10.00">+ stats</text>
<polyline fill="none" stroke="black" points="0,-189.5 76.1172,-189.5 "/>
<text text-anchor="start" x="8" y="-177.5" font-family="Helvetica,sans-Serif" font-size="10.00">+ TcpServer()</text>
<text text-anchor="start" x="8" y="-167.5" font-family="Helvetica,sans-Serif" font-size="10.00">+ TcpServer()</text>
<text text-anchor="start" x="8" y="-157.5" font-family="Helvetica,sans-Serif" font-size="10.00">+ run()</text>
<text text-anchor="start" x="8" y="-147.5" font-family="Helvetica,sans-Serif" font-size="10.00">+ asyncRun()</text>
<text text-anchor="start" x="8" y="-137.5" font-family="Helvetica,sans-Serif" font-size="10.00">+ stop()</text>
</a>
</g>
</g>
<!-- Node2&#45;&gt;Node1 -->
<g id="edge1" class="edge"><title>Node2&#45;&gt;Node1</title>
<path fill="none" stroke="midnightblue" d="M38.0586,-121.255C38.0586,-112.246 38.0586,-103.163 38.0586,-94.6145"/>
<polygon fill="none" stroke="midnightblue" points="34.5587,-121.364 38.0586,-131.364 41.5587,-121.364 34.5587,-121.364"/>
</g>
<!-- Node3 -->
<g id="node3" class="node"><title>Node3</title>
<g id="a_node3"><a xlink:href="../../db/d38/interfaceobject.html" target="_top" xlink:title="基础对象，所有对象均继承于此 ">
<polygon fill="white" stroke="black" points="4.91455,-282.5 4.91455,-366.5 71.2026,-366.5 71.2026,-282.5 4.91455,-282.5"/>
<text text-anchor="middle" x="38.0586" y="-354.5" font-family="Helvetica,sans-Serif" font-size="10.00">object</text>
<polyline fill="none" stroke="black" points="4.91455,-348.5 71.2026,-348.5 "/>
<text text-anchor="middle" x="38.0586" y="-336.5" font-family="Helvetica,sans-Serif" font-size="10.00"> </text>
<polyline fill="none" stroke="black" points="4.91455,-330.5 71.2026,-330.5 "/>
<text text-anchor="start" x="12.9146" y="-318.5" font-family="Helvetica,sans-Serif" font-size="10.00">+ dispose()</text>
<text text-anchor="start" x="12.9146" y="-308.5" font-family="Helvetica,sans-Serif" font-size="10.00">+ toString()</text>
<text text-anchor="start" x="12.9146" y="-298.5" font-family="Helvetica,sans-Serif" font-size="10.00">+ toJSON()</text>
<text text-anchor="start" x="12.9146" y="-288.5" font-family="Helvetica,sans-Serif" font-size="10.00">+ valueOf()</text>
</a>
</g>
</g>
<!-- Node3&#45;&gt;Node2 -->
<g id="edge2" class="edge"><title>Node3&#45;&gt;Node2</title>
<path fill="none" stroke="midnightblue" d="M38.0586,-271.94C38.0586,-263.347 38.0586,-254.397 38.0586,-245.696"/>
<polygon fill="none" stroke="midnightblue" points="34.5587,-272.202 38.0586,-282.202 41.5587,-272.202 34.5587,-272.202"/>
</g>
</g>
</svg>
