<?xml version="1.0" encoding="UTF-8" standalone="no"?>
<!DOCTYPE svg PUBLIC "-//W3C//DTD SVG 1.1//EN"
 "http://www.w3.org/Graphics/SVG/1.1/DTD/svg11.dtd">
<!-- Generated by graphviz version 2.38.0 (20140413.2041)
 -->
<!-- Title: HeapSnapshot Pages: 1 -->
<svg width="97pt" height="234pt"
 viewBox="0.00 0.00 97.10 234.00" xmlns="http://www.w3.org/2000/svg" xmlns:xlink="http://www.w3.org/1999/xlink">
<g id="graph0" class="graph" transform="scale(1 1) rotate(0) translate(4 230)">
<title>HeapSnapshot</title>
<polygon fill="white" stroke="none" points="-4,4 -4,-230 93.0957,-230 93.0957,4 -4,4"/>
<!-- Node1 -->
<g id="node1" class="node"><title>Node1</title>
<polygon fill="#bfbfbf" stroke="black" points="0,-0.5 0,-104.5 89.0957,-104.5 89.0957,-0.5 0,-0.5"/>
<text text-anchor="middle" x="44.5479" y="-92.5" font-family="Helvetica,sans-Serif" font-size="10.00">HeapSnapshot</text>
<polyline fill="none" stroke="black" points="0,-86.5 89.0957,-86.5 "/>
<text text-anchor="start" x="8" y="-74.5" font-family="Helvetica,sans-Serif" font-size="10.00">+ time</text>
<text text-anchor="start" x="8" y="-64.5" font-family="Helvetica,sans-Serif" font-size="10.00">+ root</text>
<text text-anchor="start" x="8" y="-54.5" font-family="Helvetica,sans-Serif" font-size="10.00">+ nodesCount</text>
<text text-anchor="start" x="8" y="-44.5" font-family="Helvetica,sans-Serif" font-size="10.00">+ nodes</text>
<polyline fill="none" stroke="black" points="0,-38.5 89.0957,-38.5 "/>
<text text-anchor="start" x="8" y="-26.5" font-family="Helvetica,sans-Serif" font-size="10.00">+ diff()</text>
<text text-anchor="start" x="8" y="-16.5" font-family="Helvetica,sans-Serif" font-size="10.00">+ getNodeById()</text>
<text text-anchor="start" x="8" y="-6.5" font-family="Helvetica,sans-Serif" font-size="10.00">+ serialize()</text>
</g>
<!-- Node2 -->
<g id="node2" class="node"><title>Node2</title>
<g id="a_node2"><a xlink:href="../../db/d38/interfaceobject.html" target="_top" xlink:title="All objects inherit from this. ">
<polygon fill="white" stroke="black" points="11.4038,-141.5 11.4038,-225.5 77.6919,-225.5 77.6919,-141.5 11.4038,-141.5"/>
<text text-anchor="middle" x="44.5479" y="-213.5" font-family="Helvetica,sans-Serif" font-size="10.00">object</text>
<polyline fill="none" stroke="black" points="11.4038,-207.5 77.6919,-207.5 "/>
<text text-anchor="middle" x="44.5479" y="-195.5" font-family="Helvetica,sans-Serif" font-size="10.00"> </text>
<polyline fill="none" stroke="black" points="11.4038,-189.5 77.6919,-189.5 "/>
<text text-anchor="start" x="19.4038" y="-177.5" font-family="Helvetica,sans-Serif" font-size="10.00">+ dispose()</text>
<text text-anchor="start" x="19.4038" y="-167.5" font-family="Helvetica,sans-Serif" font-size="10.00">+ toString()</text>
<text text-anchor="start" x="19.4038" y="-157.5" font-family="Helvetica,sans-Serif" font-size="10.00">+ toJSON()</text>
<text text-anchor="start" x="19.4038" y="-147.5" font-family="Helvetica,sans-Serif" font-size="10.00">+ valueOf()</text>
</a>
</g>
</g>
<!-- Node2&#45;&gt;Node1 -->
<g id="edge1" class="edge"><title>Node2&#45;&gt;Node1</title>
<path fill="none" stroke="midnightblue" d="M44.5479,-131.261C44.5479,-122.517 44.5479,-113.434 44.5479,-104.691"/>
<polygon fill="none" stroke="midnightblue" points="41.048,-131.329 44.5479,-141.329 48.048,-131.329 41.048,-131.329"/>
</g>
</g>
</svg>
