<?xml version="1.0" encoding="UTF-8" standalone="no"?>
<!DOCTYPE svg PUBLIC "-//W3C//DTD SVG 1.1//EN"
 "http://www.w3.org/Graphics/SVG/1.1/DTD/svg11.dtd">
<!-- Generated by graphviz version 2.38.0 (20140413.2041)
 -->
<!-- Title: HeapSnapshot Pages: 1 -->
<svg width="97pt" height="224pt"
 viewBox="0.00 0.00 97.10 224.00" xmlns="http://www.w3.org/2000/svg" xmlns:xlink="http://www.w3.org/1999/xlink">
<g id="graph0" class="graph" transform="scale(1 1) rotate(0) translate(4 220)">
<title>HeapSnapshot</title>
<polygon fill="white" stroke="none" points="-4,4 -4,-220 93.0957,-220 93.0957,4 -4,4"/>
<!-- Node1 -->
<g id="node1" class="node"><title>Node1</title>
<polygon fill="#bfbfbf" stroke="black" points="0,-0.5 0,-94.5 89.0957,-94.5 89.0957,-0.5 0,-0.5"/>
<text text-anchor="middle" x="44.5479" y="-82.5" font-family="Helvetica,sans-Serif" font-size="10.00">HeapSnapshot</text>
<polyline fill="none" stroke="black" points="0,-76.5 89.0957,-76.5 "/>
<text text-anchor="start" x="8" y="-64.5" font-family="Helvetica,sans-Serif" font-size="10.00">+ time</text>
<text text-anchor="start" x="8" y="-54.5" font-family="Helvetica,sans-Serif" font-size="10.00">+ root</text>
<text text-anchor="start" x="8" y="-44.5" font-family="Helvetica,sans-Serif" font-size="10.00">+ nodes</text>
<polyline fill="none" stroke="black" points="0,-38.5 89.0957,-38.5 "/>
<text text-anchor="start" x="8" y="-26.5" font-family="Helvetica,sans-Serif" font-size="10.00">+ diff()</text>
<text text-anchor="start" x="8" y="-16.5" font-family="Helvetica,sans-Serif" font-size="10.00">+ getNodeById()</text>
<text text-anchor="start" x="8" y="-6.5" font-family="Helvetica,sans-Serif" font-size="10.00">+ save()</text>
</g>
<!-- Node2 -->
<g id="node2" class="node"><title>Node2</title>
<g id="a_node2"><a xlink:href="../../db/d38/interfaceobject.html" target="_top" xlink:title="All objects inherit from this. ">
<polygon fill="white" stroke="black" points="11.4038,-131.5 11.4038,-215.5 77.6919,-215.5 77.6919,-131.5 11.4038,-131.5"/>
<text text-anchor="middle" x="44.5479" y="-203.5" font-family="Helvetica,sans-Serif" font-size="10.00">object</text>
<polyline fill="none" stroke="black" points="11.4038,-197.5 77.6919,-197.5 "/>
<text text-anchor="middle" x="44.5479" y="-185.5" font-family="Helvetica,sans-Serif" font-size="10.00"> </text>
<polyline fill="none" stroke="black" points="11.4038,-179.5 77.6919,-179.5 "/>
<text text-anchor="start" x="19.4038" y="-167.5" font-family="Helvetica,sans-Serif" font-size="10.00">+ dispose()</text>
<text text-anchor="start" x="19.4038" y="-157.5" font-family="Helvetica,sans-Serif" font-size="10.00">+ toString()</text>
<text text-anchor="start" x="19.4038" y="-147.5" font-family="Helvetica,sans-Serif" font-size="10.00">+ toJSON()</text>
<text text-anchor="start" x="19.4038" y="-137.5" font-family="Helvetica,sans-Serif" font-size="10.00">+ valueOf()</text>
</a>
</g>
</g>
<!-- Node2&#45;&gt;Node1 -->
<g id="edge1" class="edge"><title>Node2&#45;&gt;Node1</title>
<path fill="none" stroke="midnightblue" d="M44.5479,-121.122C44.5479,-112.378 44.5479,-103.343 44.5479,-94.7419"/>
<polygon fill="none" stroke="midnightblue" points="41.048,-121.21 44.5479,-131.21 48.048,-121.21 41.048,-121.21"/>
</g>
</g>
</svg>
