<?xml version="1.0" encoding="UTF-8" standalone="no"?>
<!DOCTYPE svg PUBLIC "-//W3C//DTD SVG 1.1//EN"
 "http://www.w3.org/Graphics/SVG/1.1/DTD/svg11.dtd">
<!-- Generated by graphviz version 2.38.0 (20140413.2041)
 -->
<!-- Title: HeapSnapshot Pages: 1 -->
<svg width="97pt" height="214pt"
 viewBox="0.00 0.00 97.10 214.00" xmlns="http://www.w3.org/2000/svg" xmlns:xlink="http://www.w3.org/1999/xlink">
<g id="graph0" class="graph" transform="scale(1 1) rotate(0) translate(4 210)">
<title>HeapSnapshot</title>
<polygon fill="white" stroke="none" points="-4,4 -4,-210 93.0957,-210 93.0957,4 -4,4"/>
<!-- Node1 -->
<g id="node1" class="node"><title>Node1</title>
<polygon fill="#bfbfbf" stroke="black" points="0,-0.5 0,-84.5 89.0957,-84.5 89.0957,-0.5 0,-0.5"/>
<text text-anchor="middle" x="44.5479" y="-72.5" font-family="Helvetica,sans-Serif" font-size="10.00">HeapSnapshot</text>
<polyline fill="none" stroke="black" points="0,-66.5 89.0957,-66.5 "/>
<text text-anchor="start" x="8" y="-54.5" font-family="Helvetica,sans-Serif" font-size="10.00">+ time</text>
<text text-anchor="start" x="8" y="-44.5" font-family="Helvetica,sans-Serif" font-size="10.00">+ root</text>
<text text-anchor="start" x="8" y="-34.5" font-family="Helvetica,sans-Serif" font-size="10.00">+ nodes</text>
<polyline fill="none" stroke="black" points="0,-28.5 89.0957,-28.5 "/>
<text text-anchor="start" x="8" y="-16.5" font-family="Helvetica,sans-Serif" font-size="10.00">+ diff()</text>
<text text-anchor="start" x="8" y="-6.5" font-family="Helvetica,sans-Serif" font-size="10.00">+ getNodeById()</text>
</g>
<!-- Node2 -->
<g id="node2" class="node"><title>Node2</title>
<g id="a_node2"><a xlink:href="../../db/d38/interfaceobject.html" target="_top" xlink:title="All objects inherit from this. ">
<polygon fill="white" stroke="black" points="11.4038,-121.5 11.4038,-205.5 77.6919,-205.5 77.6919,-121.5 11.4038,-121.5"/>
<text text-anchor="middle" x="44.5479" y="-193.5" font-family="Helvetica,sans-Serif" font-size="10.00">object</text>
<polyline fill="none" stroke="black" points="11.4038,-187.5 77.6919,-187.5 "/>
<text text-anchor="middle" x="44.5479" y="-175.5" font-family="Helvetica,sans-Serif" font-size="10.00"> </text>
<polyline fill="none" stroke="black" points="11.4038,-169.5 77.6919,-169.5 "/>
<text text-anchor="start" x="19.4038" y="-157.5" font-family="Helvetica,sans-Serif" font-size="10.00">+ dispose()</text>
<text text-anchor="start" x="19.4038" y="-147.5" font-family="Helvetica,sans-Serif" font-size="10.00">+ toString()</text>
<text text-anchor="start" x="19.4038" y="-137.5" font-family="Helvetica,sans-Serif" font-size="10.00">+ toJSON()</text>
<text text-anchor="start" x="19.4038" y="-127.5" font-family="Helvetica,sans-Serif" font-size="10.00">+ valueOf()</text>
</a>
</g>
</g>
<!-- Node2&#45;&gt;Node1 -->
<g id="edge1" class="edge"><title>Node2&#45;&gt;Node1</title>
<path fill="none" stroke="midnightblue" d="M44.5479,-111.041C44.5479,-102.241 44.5479,-93.2021 44.5479,-84.7135"/>
<polygon fill="none" stroke="midnightblue" points="41.0479,-111.214 44.5479,-121.214 48.0479,-111.214 41.0479,-111.214"/>
</g>
</g>
</svg>
