<?xml version="1.0" encoding="UTF-8" standalone="no"?>
<!DOCTYPE svg PUBLIC "-//W3C//DTD SVG 1.1//EN"
 "http://www.w3.org/Graphics/SVG/1.1/DTD/svg11.dtd">
<!-- Generated by graphviz version 2.38.0 (20140413.2041)
 -->
<!-- Title: PacketMessage Pages: 1 -->
<svg width="110pt" height="395pt"
 viewBox="0.00 0.00 110.43 395.00" xmlns="http://www.w3.org/2000/svg" xmlns:xlink="http://www.w3.org/1999/xlink">
<g id="graph0" class="graph" transform="scale(1 1) rotate(0) translate(4 391)">
<title>PacketMessage</title>
<polygon fill="white" stroke="none" points="-4,4 -4,-391 106.426,-391 106.426,4 -4,4"/>
<!-- Node1 -->
<g id="node1" class="node"><title>Node1</title>
<polygon fill="#bfbfbf" stroke="black" points="0,-0.5 0,-54.5 102.426,-54.5 102.426,-0.5 0,-0.5"/>
<text text-anchor="middle" x="51.2129" y="-42.5" font-family="Helvetica,sans-Serif" font-size="10.00">PacketMessage</text>
<polyline fill="none" stroke="black" points="0,-36.5 102.426,-36.5 "/>
<text text-anchor="start" x="8" y="-24.5" font-family="Helvetica,sans-Serif" font-size="10.00">+ maxSize</text>
<polyline fill="none" stroke="black" points="0,-18.5 102.426,-18.5 "/>
<text text-anchor="start" x="8" y="-6.5" font-family="Helvetica,sans-Serif" font-size="10.00">+ PacketMessage()</text>
</g>
<!-- Node2 -->
<g id="node2" class="node"><title>Node2</title>
<g id="a_node2"><a xlink:href="../../d6/db7/interfaceMessage.html" target="_top" xlink:title="Basic message object. ">
<polygon fill="white" stroke="black" points="13.9014,-91.5 13.9014,-265.5 88.5244,-265.5 88.5244,-91.5 13.9014,-91.5"/>
<text text-anchor="middle" x="51.2129" y="-253.5" font-family="Helvetica,sans-Serif" font-size="10.00">Message</text>
<polyline fill="none" stroke="black" points="13.9014,-247.5 88.5244,-247.5 "/>
<text text-anchor="start" x="21.9014" y="-235.5" font-family="Helvetica,sans-Serif" font-size="10.00">+ value</text>
<text text-anchor="start" x="21.9014" y="-225.5" font-family="Helvetica,sans-Serif" font-size="10.00">+ params</text>
<text text-anchor="start" x="21.9014" y="-215.5" font-family="Helvetica,sans-Serif" font-size="10.00">+ result</text>
<text text-anchor="start" x="21.9014" y="-205.5" font-family="Helvetica,sans-Serif" font-size="10.00">+ body</text>
<text text-anchor="start" x="21.9014" y="-195.5" font-family="Helvetica,sans-Serif" font-size="10.00">+ length</text>
<text text-anchor="start" x="21.9014" y="-185.5" font-family="Helvetica,sans-Serif" font-size="10.00">+ stream</text>
<text text-anchor="start" x="21.9014" y="-175.5" font-family="Helvetica,sans-Serif" font-size="10.00">+ response</text>
<polyline fill="none" stroke="black" points="13.9014,-169.5 88.5244,-169.5 "/>
<text text-anchor="start" x="21.9014" y="-157.5" font-family="Helvetica,sans-Serif" font-size="10.00">+ Message()</text>
<text text-anchor="start" x="21.9014" y="-147.5" font-family="Helvetica,sans-Serif" font-size="10.00">+ read()</text>
<text text-anchor="start" x="21.9014" y="-137.5" font-family="Helvetica,sans-Serif" font-size="10.00">+ readAll()</text>
<text text-anchor="start" x="21.9014" y="-127.5" font-family="Helvetica,sans-Serif" font-size="10.00">+ write()</text>
<text text-anchor="start" x="21.9014" y="-117.5" font-family="Helvetica,sans-Serif" font-size="10.00">+ clear()</text>
<text text-anchor="start" x="21.9014" y="-107.5" font-family="Helvetica,sans-Serif" font-size="10.00">+ sendTo()</text>
<text text-anchor="start" x="21.9014" y="-97.5" font-family="Helvetica,sans-Serif" font-size="10.00">+ readFrom()</text>
</a>
</g>
</g>
<!-- Node2&#45;&gt;Node1 -->
<g id="edge1" class="edge"><title>Node2&#45;&gt;Node1</title>
<path fill="none" stroke="midnightblue" d="M51.2129,-81.135C51.2129,-71.5759 51.2129,-62.5437 51.2129,-54.7485"/>
<polygon fill="none" stroke="midnightblue" points="47.713,-81.2575 51.2129,-91.2576 54.713,-81.2576 47.713,-81.2575"/>
</g>
<!-- Node3 -->
<g id="node3" class="node"><title>Node3</title>
<g id="a_node3"><a xlink:href="../../db/d38/interfaceobject.html" target="_top" xlink:title="All objects inherit from this. ">
<polygon fill="white" stroke="black" points="18.0688,-302.5 18.0688,-386.5 84.3569,-386.5 84.3569,-302.5 18.0688,-302.5"/>
<text text-anchor="middle" x="51.2129" y="-374.5" font-family="Helvetica,sans-Serif" font-size="10.00">object</text>
<polyline fill="none" stroke="black" points="18.0688,-368.5 84.3569,-368.5 "/>
<text text-anchor="middle" x="51.2129" y="-356.5" font-family="Helvetica,sans-Serif" font-size="10.00"> </text>
<polyline fill="none" stroke="black" points="18.0688,-350.5 84.3569,-350.5 "/>
<text text-anchor="start" x="26.0688" y="-338.5" font-family="Helvetica,sans-Serif" font-size="10.00">+ dispose()</text>
<text text-anchor="start" x="26.0688" y="-328.5" font-family="Helvetica,sans-Serif" font-size="10.00">+ toString()</text>
<text text-anchor="start" x="26.0688" y="-318.5" font-family="Helvetica,sans-Serif" font-size="10.00">+ toJSON()</text>
<text text-anchor="start" x="26.0688" y="-308.5" font-family="Helvetica,sans-Serif" font-size="10.00">+ valueOf()</text>
</a>
</g>
</g>
<!-- Node3&#45;&gt;Node2 -->
<g id="edge2" class="edge"><title>Node3&#45;&gt;Node2</title>
<path fill="none" stroke="midnightblue" d="M51.2129,-292.097C51.2129,-283.653 51.2129,-274.704 51.2129,-265.687"/>
<polygon fill="none" stroke="midnightblue" points="47.713,-292.116 51.2129,-302.116 54.713,-292.116 47.713,-292.116"/>
</g>
</g>
</svg>
