<?xml version="1.0" encoding="UTF-8" standalone="no"?>
<!DOCTYPE svg PUBLIC "-//W3C//DTD SVG 1.1//EN"
 "http://www.w3.org/Graphics/SVG/1.1/DTD/svg11.dtd">
<!-- Generated by graphviz version 2.40.1 (20161225.0304)
 -->
<!-- Title: Message Pages: 1 -->
<svg width="300pt" height="656pt"
 viewBox="0.00 0.00 299.84 656.00" xmlns="http://www.w3.org/2000/svg" xmlns:xlink="http://www.w3.org/1999/xlink">
<g id="graph0" class="graph" transform="scale(1 1) rotate(0) translate(4 652)">
<title>Message</title>
<polygon fill="#ffffff" stroke="transparent" points="-4,4 -4,-652 295.8379,-652 295.8379,4 -4,4"/>
<!-- Node0 -->
<g id="node1" class="node">
<title>Node0</title>
<polygon fill="#bfbfbf" stroke="#000000" points="126.1206,-352.5 126.1206,-526.5 200.7437,-526.5 200.7437,-352.5 126.1206,-352.5"/>
<text text-anchor="middle" x="163.4321" y="-514.5" font-family="Helvetica,sans-Serif" font-size="10.00" fill="#000000">Message</text>
<polyline fill="none" stroke="#000000" points="126.1206,-508.5 200.7437,-508.5 "/>
<text text-anchor="start" x="134.1206" y="-496.5" font-family="Helvetica,sans-Serif" font-size="10.00" fill="#000000">+ value</text>
<text text-anchor="start" x="134.1206" y="-486.5" font-family="Helvetica,sans-Serif" font-size="10.00" fill="#000000">+ params</text>
<text text-anchor="start" x="134.1206" y="-476.5" font-family="Helvetica,sans-Serif" font-size="10.00" fill="#000000">+ result</text>
<text text-anchor="start" x="134.1206" y="-466.5" font-family="Helvetica,sans-Serif" font-size="10.00" fill="#000000">+ body</text>
<text text-anchor="start" x="134.1206" y="-456.5" font-family="Helvetica,sans-Serif" font-size="10.00" fill="#000000">+ length</text>
<text text-anchor="start" x="134.1206" y="-446.5" font-family="Helvetica,sans-Serif" font-size="10.00" fill="#000000">+ stream</text>
<text text-anchor="start" x="134.1206" y="-436.5" font-family="Helvetica,sans-Serif" font-size="10.00" fill="#000000">+ response</text>
<polyline fill="none" stroke="#000000" points="126.1206,-430.5 200.7437,-430.5 "/>
<text text-anchor="start" x="134.1206" y="-418.5" font-family="Helvetica,sans-Serif" font-size="10.00" fill="#000000">+ Message()</text>
<text text-anchor="start" x="134.1206" y="-408.5" font-family="Helvetica,sans-Serif" font-size="10.00" fill="#000000">+ read()</text>
<text text-anchor="start" x="134.1206" y="-398.5" font-family="Helvetica,sans-Serif" font-size="10.00" fill="#000000">+ readAll()</text>
<text text-anchor="start" x="134.1206" y="-388.5" font-family="Helvetica,sans-Serif" font-size="10.00" fill="#000000">+ write()</text>
<text text-anchor="start" x="134.1206" y="-378.5" font-family="Helvetica,sans-Serif" font-size="10.00" fill="#000000">+ clear()</text>
<text text-anchor="start" x="134.1206" y="-368.5" font-family="Helvetica,sans-Serif" font-size="10.00" fill="#000000">+ sendTo()</text>
<text text-anchor="start" x="134.1206" y="-358.5" font-family="Helvetica,sans-Serif" font-size="10.00" fill="#000000">+ readFrom()</text>
</g>
<!-- Node2 -->
<g id="node3" class="node">
<title>Node2</title>
<g id="a_node3"><a xlink:href="../../da/d38/interfaceHttpMessage.html" target="_top" xlink:title="http basic message objec ">
<polygon fill="#ffffff" stroke="#000000" points="43.436,-141.5 43.436,-315.5 151.4282,-315.5 151.4282,-141.5 43.436,-141.5"/>
<text text-anchor="middle" x="97.4321" y="-303.5" font-family="Helvetica,sans-Serif" font-size="10.00" fill="#000000">HttpMessage</text>
<polyline fill="none" stroke="#000000" points="43.436,-297.5 151.4282,-297.5 "/>
<text text-anchor="start" x="51.436" y="-285.5" font-family="Helvetica,sans-Serif" font-size="10.00" fill="#000000">+ protocol</text>
<text text-anchor="start" x="51.436" y="-275.5" font-family="Helvetica,sans-Serif" font-size="10.00" fill="#000000">+ headers</text>
<text text-anchor="start" x="51.436" y="-265.5" font-family="Helvetica,sans-Serif" font-size="10.00" fill="#000000">+ keepAlive</text>
<text text-anchor="start" x="51.436" y="-255.5" font-family="Helvetica,sans-Serif" font-size="10.00" fill="#000000">+ upgrade</text>
<text text-anchor="start" x="51.436" y="-245.5" font-family="Helvetica,sans-Serif" font-size="10.00" fill="#000000">+ maxHeadersCount</text>
<text text-anchor="start" x="51.436" y="-235.5" font-family="Helvetica,sans-Serif" font-size="10.00" fill="#000000">+ maxUploadSize</text>
<polyline fill="none" stroke="#000000" points="43.436,-229.5 151.4282,-229.5 "/>
<text text-anchor="start" x="51.436" y="-217.5" font-family="Helvetica,sans-Serif" font-size="10.00" fill="#000000">+ hasHeader()</text>
<text text-anchor="start" x="51.436" y="-207.5" font-family="Helvetica,sans-Serif" font-size="10.00" fill="#000000">+ firstHeader()</text>
<text text-anchor="start" x="51.436" y="-197.5" font-family="Helvetica,sans-Serif" font-size="10.00" fill="#000000">+ allHeader()</text>
<text text-anchor="start" x="51.436" y="-187.5" font-family="Helvetica,sans-Serif" font-size="10.00" fill="#000000">+ addHeader()</text>
<text text-anchor="start" x="51.436" y="-177.5" font-family="Helvetica,sans-Serif" font-size="10.00" fill="#000000">+ addHeader()</text>
<text text-anchor="start" x="51.436" y="-167.5" font-family="Helvetica,sans-Serif" font-size="10.00" fill="#000000">+ setHeader()</text>
<text text-anchor="start" x="51.436" y="-157.5" font-family="Helvetica,sans-Serif" font-size="10.00" fill="#000000">+ setHeader()</text>
<text text-anchor="start" x="51.436" y="-147.5" font-family="Helvetica,sans-Serif" font-size="10.00" fill="#000000">+ removeHeader()</text>
</a>
</g>
</g>
<!-- Node0&#45;&gt;Node2 -->
<g id="edge2" class="edge">
<title>Node0&#45;&gt;Node2</title>
<path fill="none" stroke="#191970" d="M133.1603,-342.7219C130.3399,-333.705 127.4927,-324.6026 124.7019,-315.6805"/>
<polygon fill="none" stroke="#191970" points="129.8806,-343.9609 136.2064,-352.46 136.5614,-341.8711 129.8806,-343.9609"/>
</g>
<!-- Node5 -->
<g id="node6" class="node">
<title>Node5</title>
<g id="a_node6"><a xlink:href="../../db/d5d/interfaceWebSocketMessage.html" target="_top" xlink:title="websocket message object ">
<polygon fill="#ffffff" stroke="#000000" points="169.0264,-191.5 169.0264,-265.5 291.8379,-265.5 291.8379,-191.5 169.0264,-191.5"/>
<text text-anchor="middle" x="230.4321" y="-253.5" font-family="Helvetica,sans-Serif" font-size="10.00" fill="#000000">WebSocketMessage</text>
<polyline fill="none" stroke="#000000" points="169.0264,-247.5 291.8379,-247.5 "/>
<text text-anchor="start" x="177.0264" y="-235.5" font-family="Helvetica,sans-Serif" font-size="10.00" fill="#000000">+ type</text>
<text text-anchor="start" x="177.0264" y="-225.5" font-family="Helvetica,sans-Serif" font-size="10.00" fill="#000000">+ masked</text>
<text text-anchor="start" x="177.0264" y="-215.5" font-family="Helvetica,sans-Serif" font-size="10.00" fill="#000000">+ maxSize</text>
<polyline fill="none" stroke="#000000" points="169.0264,-209.5 291.8379,-209.5 "/>
<text text-anchor="start" x="177.0264" y="-197.5" font-family="Helvetica,sans-Serif" font-size="10.00" fill="#000000">+ WebSocketMessage()</text>
</a>
</g>
</g>
<!-- Node0&#45;&gt;Node5 -->
<g id="edge5" class="edge">
<title>Node0&#45;&gt;Node5</title>
<path fill="none" stroke="#191970" d="M194.134,-342.812C202.8361,-315.4068 211.7919,-287.2029 218.6303,-265.6668"/>
<polygon fill="none" stroke="#191970" points="190.7611,-341.8697 191.0704,-352.46 197.4328,-343.9883 190.7611,-341.8697"/>
</g>
<!-- Node1 -->
<g id="node2" class="node">
<title>Node1</title>
<g id="a_node2"><a xlink:href="../../db/d38/interfaceobject.html" target="_top" xlink:title="All objects inherit from this. ">
<polygon fill="#ffffff" stroke="#000000" points="130.2881,-563.5 130.2881,-647.5 196.5762,-647.5 196.5762,-563.5 130.2881,-563.5"/>
<text text-anchor="middle" x="163.4321" y="-635.5" font-family="Helvetica,sans-Serif" font-size="10.00" fill="#000000">object</text>
<polyline fill="none" stroke="#000000" points="130.2881,-629.5 196.5762,-629.5 "/>
<text text-anchor="middle" x="163.4321" y="-617.5" font-family="Helvetica,sans-Serif" font-size="10.00" fill="#000000"> </text>
<polyline fill="none" stroke="#000000" points="130.2881,-611.5 196.5762,-611.5 "/>
<text text-anchor="start" x="138.2881" y="-599.5" font-family="Helvetica,sans-Serif" font-size="10.00" fill="#000000">+ dispose()</text>
<text text-anchor="start" x="138.2881" y="-589.5" font-family="Helvetica,sans-Serif" font-size="10.00" fill="#000000">+ toString()</text>
<text text-anchor="start" x="138.2881" y="-579.5" font-family="Helvetica,sans-Serif" font-size="10.00" fill="#000000">+ toJSON()</text>
<text text-anchor="start" x="138.2881" y="-569.5" font-family="Helvetica,sans-Serif" font-size="10.00" fill="#000000">+ valueOf()</text>
</a>
</g>
</g>
<!-- Node1&#45;&gt;Node0 -->
<g id="edge1" class="edge">
<title>Node1&#45;&gt;Node0</title>
<path fill="none" stroke="#191970" d="M163.4321,-553.1329C163.4321,-544.6702 163.4321,-535.7133 163.4321,-526.6901"/>
<polygon fill="none" stroke="#191970" points="159.9322,-553.1816 163.4321,-563.1817 166.9322,-553.1817 159.9322,-553.1816"/>
</g>
<!-- Node3 -->
<g id="node4" class="node">
<title>Node3</title>
<g id="a_node4"><a xlink:href="../../d4/dfa/interfaceHttpRequest.html" target="_top" xlink:title="http request message object ">
<polygon fill="#ffffff" stroke="#000000" points="0,-.5 0,-104.5 86.8643,-104.5 86.8643,-.5 0,-.5"/>
<text text-anchor="middle" x="43.4321" y="-92.5" font-family="Helvetica,sans-Serif" font-size="10.00" fill="#000000">HttpRequest</text>
<polyline fill="none" stroke="#000000" points="0,-86.5 86.8643,-86.5 "/>
<text text-anchor="start" x="8" y="-74.5" font-family="Helvetica,sans-Serif" font-size="10.00" fill="#000000">+ method</text>
<text text-anchor="start" x="8" y="-64.5" font-family="Helvetica,sans-Serif" font-size="10.00" fill="#000000">+ address</text>
<text text-anchor="start" x="8" y="-54.5" font-family="Helvetica,sans-Serif" font-size="10.00" fill="#000000">+ queryString</text>
<text text-anchor="start" x="8" y="-44.5" font-family="Helvetica,sans-Serif" font-size="10.00" fill="#000000">+ cookies</text>
<text text-anchor="start" x="8" y="-34.5" font-family="Helvetica,sans-Serif" font-size="10.00" fill="#000000">+ form</text>
<text text-anchor="start" x="8" y="-24.5" font-family="Helvetica,sans-Serif" font-size="10.00" fill="#000000">+ query</text>
<polyline fill="none" stroke="#000000" points="0,-18.5 86.8643,-18.5 "/>
<text text-anchor="start" x="8" y="-6.5" font-family="Helvetica,sans-Serif" font-size="10.00" fill="#000000">+ HttpRequest()</text>
</a>
</g>
</g>
<!-- Node2&#45;&gt;Node3 -->
<g id="edge3" class="edge">
<title>Node2&#45;&gt;Node3</title>
<path fill="none" stroke="#191970" d="M67.7197,-131.6593C64.8979,-122.4625 62.1161,-113.3958 59.4991,-104.8665"/>
<polygon fill="none" stroke="#191970" points="64.3901,-132.7399 70.6694,-141.2734 71.0822,-130.6866 64.3901,-132.7399"/>
</g>
<!-- Node4 -->
<g id="node5" class="node">
<title>Node4</title>
<g id="a_node5"><a xlink:href="../../d9/d71/interfaceHttpResponse.html" target="_top" xlink:title="http response message object ">
<polygon fill="#ffffff" stroke="#000000" points="105.1084,-10.5 105.1084,-94.5 199.7559,-94.5 199.7559,-10.5 105.1084,-10.5"/>
<text text-anchor="middle" x="152.4321" y="-82.5" font-family="Helvetica,sans-Serif" font-size="10.00" fill="#000000">HttpResponse</text>
<polyline fill="none" stroke="#000000" points="105.1084,-76.5 199.7559,-76.5 "/>
<text text-anchor="start" x="113.1084" y="-64.5" font-family="Helvetica,sans-Serif" font-size="10.00" fill="#000000">+ status</text>
<text text-anchor="start" x="113.1084" y="-54.5" font-family="Helvetica,sans-Serif" font-size="10.00" fill="#000000">+ cookies</text>
<polyline fill="none" stroke="#000000" points="105.1084,-48.5 199.7559,-48.5 "/>
<text text-anchor="start" x="113.1084" y="-36.5" font-family="Helvetica,sans-Serif" font-size="10.00" fill="#000000">+ HttpResponse()</text>
<text text-anchor="start" x="113.1084" y="-26.5" font-family="Helvetica,sans-Serif" font-size="10.00" fill="#000000">+ addCookie()</text>
<text text-anchor="start" x="113.1084" y="-16.5" font-family="Helvetica,sans-Serif" font-size="10.00" fill="#000000">+ redirect()</text>
</a>
</g>
</g>
<!-- Node2&#45;&gt;Node4 -->
<g id="edge4" class="edge">
<title>Node2&#45;&gt;Node4</title>
<path fill="none" stroke="#191970" d="M127.7805,-131.3851C131.808,-118.4971 135.7532,-105.8727 139.2654,-94.6337"/>
<polygon fill="none" stroke="#191970" points="124.3326,-130.6846 124.6904,-141.2734 131.0139,-132.7726 124.3326,-130.6846"/>
</g>
</g>
</svg>
