<?xml version="1.0" encoding="UTF-8" standalone="no"?>
<!DOCTYPE svg PUBLIC "-//W3C//DTD SVG 1.1//EN"
 "http://www.w3.org/Graphics/SVG/1.1/DTD/svg11.dtd">
<!-- Generated by graphviz version 2.40.1 (20161225.0304)
 -->
<!-- Title: Lock Pages: 1 -->
<svg width="257pt" height="365pt"
 viewBox="0.00 0.00 257.25 365.00" xmlns="http://www.w3.org/2000/svg" xmlns:xlink="http://www.w3.org/1999/xlink">
<g id="graph0" class="graph" transform="scale(1 1) rotate(0) translate(4 361)">
<title>Lock</title>
<polygon fill="#ffffff" stroke="transparent" points="-4,4 -4,-361 253.2534,-361 253.2534,4 -4,4"/>
<!-- Node0 -->
<g id="node1" class="node">
<title>Node0</title>
<polygon fill="#bfbfbf" stroke="#000000" points="87.7266,-141.5 87.7266,-225.5 151.8027,-225.5 151.8027,-141.5 87.7266,-141.5"/>
<text text-anchor="middle" x="119.7646" y="-213.5" font-family="Helvetica,sans-Serif" font-size="10.00" fill="#000000">Lock</text>
<polyline fill="none" stroke="#000000" points="87.7266,-207.5 151.8027,-207.5 "/>
<text text-anchor="middle" x="119.7646" y="-195.5" font-family="Helvetica,sans-Serif" font-size="10.00" fill="#000000"> </text>
<polyline fill="none" stroke="#000000" points="87.7266,-189.5 151.8027,-189.5 "/>
<text text-anchor="start" x="95.7266" y="-177.5" font-family="Helvetica,sans-Serif" font-size="10.00" fill="#000000">+ Lock()</text>
<text text-anchor="start" x="95.7266" y="-167.5" font-family="Helvetica,sans-Serif" font-size="10.00" fill="#000000">+ acquire()</text>
<text text-anchor="start" x="95.7266" y="-157.5" font-family="Helvetica,sans-Serif" font-size="10.00" fill="#000000">+ release()</text>
<text text-anchor="start" x="95.7266" y="-147.5" font-family="Helvetica,sans-Serif" font-size="10.00" fill="#000000">+ count()</text>
</g>
<!-- Node2 -->
<g id="node3" class="node">
<title>Node2</title>
<g id="a_node3"><a xlink:href="../../d5/d45/interfaceCondition.html" target="_top" xlink:title="条件变量对象 ">
<polygon fill="#ffffff" stroke="#000000" points="0,-5.5 0,-99.5 73.5293,-99.5 73.5293,-5.5 0,-5.5"/>
<text text-anchor="middle" x="36.7646" y="-87.5" font-family="Helvetica,sans-Serif" font-size="10.00" fill="#000000">Condition</text>
<polyline fill="none" stroke="#000000" points="0,-81.5 73.5293,-81.5 "/>
<text text-anchor="middle" x="36.7646" y="-69.5" font-family="Helvetica,sans-Serif" font-size="10.00" fill="#000000"> </text>
<polyline fill="none" stroke="#000000" points="0,-63.5 73.5293,-63.5 "/>
<text text-anchor="start" x="8" y="-51.5" font-family="Helvetica,sans-Serif" font-size="10.00" fill="#000000">+ Condition()</text>
<text text-anchor="start" x="8" y="-41.5" font-family="Helvetica,sans-Serif" font-size="10.00" fill="#000000">+ Condition()</text>
<text text-anchor="start" x="8" y="-31.5" font-family="Helvetica,sans-Serif" font-size="10.00" fill="#000000">+ wait()</text>
<text text-anchor="start" x="8" y="-21.5" font-family="Helvetica,sans-Serif" font-size="10.00" fill="#000000">+ notify()</text>
<text text-anchor="start" x="8" y="-11.5" font-family="Helvetica,sans-Serif" font-size="10.00" fill="#000000">+ notifyAll()</text>
</a>
</g>
</g>
<!-- Node0&#45;&gt;Node2 -->
<g id="edge2" class="edge">
<title>Node0&#45;&gt;Node2</title>
<path fill="none" stroke="#191970" d="M87.5986,-132.7319C80.6893,-121.8268 73.4159,-110.3471 66.5995,-99.5887"/>
<polygon fill="none" stroke="#191970" points="84.7374,-134.7557 93.0461,-141.3297 90.6505,-131.0092 84.7374,-134.7557"/>
</g>
<!-- Node3 -->
<g id="node4" class="node">
<title>Node3</title>
<g id="a_node4"><a xlink:href="../../d7/ddf/interfaceEvent.html" target="_top" xlink:title="事件对象 ">
<polygon fill="#ffffff" stroke="#000000" points="91.3398,-.5 91.3398,-104.5 148.1895,-104.5 148.1895,-.5 91.3398,-.5"/>
<text text-anchor="middle" x="119.7646" y="-92.5" font-family="Helvetica,sans-Serif" font-size="10.00" fill="#000000">Event</text>
<polyline fill="none" stroke="#000000" points="91.3398,-86.5 148.1895,-86.5 "/>
<text text-anchor="middle" x="119.7646" y="-74.5" font-family="Helvetica,sans-Serif" font-size="10.00" fill="#000000"> </text>
<polyline fill="none" stroke="#000000" points="91.3398,-68.5 148.1895,-68.5 "/>
<text text-anchor="start" x="99.3398" y="-56.5" font-family="Helvetica,sans-Serif" font-size="10.00" fill="#000000">+ Event()</text>
<text text-anchor="start" x="99.3398" y="-46.5" font-family="Helvetica,sans-Serif" font-size="10.00" fill="#000000">+ isSet()</text>
<text text-anchor="start" x="99.3398" y="-36.5" font-family="Helvetica,sans-Serif" font-size="10.00" fill="#000000">+ set()</text>
<text text-anchor="start" x="99.3398" y="-26.5" font-family="Helvetica,sans-Serif" font-size="10.00" fill="#000000">+ pulse()</text>
<text text-anchor="start" x="99.3398" y="-16.5" font-family="Helvetica,sans-Serif" font-size="10.00" fill="#000000">+ clear()</text>
<text text-anchor="start" x="99.3398" y="-6.5" font-family="Helvetica,sans-Serif" font-size="10.00" fill="#000000">+ wait()</text>
</a>
</g>
</g>
<!-- Node0&#45;&gt;Node3 -->
<g id="edge3" class="edge">
<title>Node0&#45;&gt;Node3</title>
<path fill="none" stroke="#191970" d="M119.7646,-131.2546C119.7646,-122.5097 119.7646,-113.4358 119.7646,-104.6923"/>
<polygon fill="none" stroke="#191970" points="116.2647,-131.3297 119.7646,-141.3297 123.2647,-131.3297 116.2647,-131.3297"/>
</g>
<!-- Node4 -->
<g id="node5" class="node">
<title>Node4</title>
<g id="a_node5"><a xlink:href="../../dc/d90/interfaceSemaphore.html" target="_top" xlink:title="纤程信号量对象 ">
<polygon fill="#ffffff" stroke="#000000" points="166.2759,-10.5 166.2759,-94.5 249.2534,-94.5 249.2534,-10.5 166.2759,-10.5"/>
<text text-anchor="middle" x="207.7646" y="-82.5" font-family="Helvetica,sans-Serif" font-size="10.00" fill="#000000">Semaphore</text>
<polyline fill="none" stroke="#000000" points="166.2759,-76.5 249.2534,-76.5 "/>
<text text-anchor="middle" x="207.7646" y="-64.5" font-family="Helvetica,sans-Serif" font-size="10.00" fill="#000000"> </text>
<polyline fill="none" stroke="#000000" points="166.2759,-58.5 249.2534,-58.5 "/>
<text text-anchor="start" x="174.2759" y="-46.5" font-family="Helvetica,sans-Serif" font-size="10.00" fill="#000000">+ Semaphore()</text>
<text text-anchor="start" x="174.2759" y="-36.5" font-family="Helvetica,sans-Serif" font-size="10.00" fill="#000000">+ wait()</text>
<text text-anchor="start" x="174.2759" y="-26.5" font-family="Helvetica,sans-Serif" font-size="10.00" fill="#000000">+ post()</text>
<text text-anchor="start" x="174.2759" y="-16.5" font-family="Helvetica,sans-Serif" font-size="10.00" fill="#000000">+ trywait()</text>
</a>
</g>
</g>
<!-- Node0&#45;&gt;Node4 -->
<g id="edge4" class="edge">
<title>Node0&#45;&gt;Node4</title>
<path fill="none" stroke="#191970" d="M153.861,-132.7429C162.3362,-120.1264 171.3284,-106.7403 179.4896,-94.5913"/>
<polygon fill="none" stroke="#191970" points="150.7637,-131.077 148.0928,-141.3297 156.5744,-134.9804 150.7637,-131.077"/>
</g>
<!-- Node1 -->
<g id="node2" class="node">
<title>Node1</title>
<g id="a_node2"><a xlink:href="../../db/d38/interfaceobject.html" target="_top" xlink:title="基础对象，所有对象均继承于此 ">
<polygon fill="#ffffff" stroke="#000000" points="86.6206,-262.5 86.6206,-356.5 152.9087,-356.5 152.9087,-262.5 86.6206,-262.5"/>
<text text-anchor="middle" x="119.7646" y="-344.5" font-family="Helvetica,sans-Serif" font-size="10.00" fill="#000000">object</text>
<polyline fill="none" stroke="#000000" points="86.6206,-338.5 152.9087,-338.5 "/>
<text text-anchor="middle" x="119.7646" y="-326.5" font-family="Helvetica,sans-Serif" font-size="10.00" fill="#000000"> </text>
<polyline fill="none" stroke="#000000" points="86.6206,-320.5 152.9087,-320.5 "/>
<text text-anchor="start" x="94.6206" y="-308.5" font-family="Helvetica,sans-Serif" font-size="10.00" fill="#000000">+ dispose()</text>
<text text-anchor="start" x="94.6206" y="-298.5" font-family="Helvetica,sans-Serif" font-size="10.00" fill="#000000">+ equals()</text>
<text text-anchor="start" x="94.6206" y="-288.5" font-family="Helvetica,sans-Serif" font-size="10.00" fill="#000000">+ toString()</text>
<text text-anchor="start" x="94.6206" y="-278.5" font-family="Helvetica,sans-Serif" font-size="10.00" fill="#000000">+ toJSON()</text>
<text text-anchor="start" x="94.6206" y="-268.5" font-family="Helvetica,sans-Serif" font-size="10.00" fill="#000000">+ valueOf()</text>
</a>
</g>
</g>
<!-- Node1&#45;&gt;Node0 -->
<g id="edge1" class="edge">
<title>Node1&#45;&gt;Node0</title>
<path fill="none" stroke="#191970" d="M119.7646,-251.9387C119.7646,-243.0848 119.7646,-234.0866 119.7646,-225.6505"/>
<polygon fill="none" stroke="#191970" points="116.2647,-252.2237 119.7646,-262.2238 123.2647,-252.2238 116.2647,-252.2237"/>
</g>
</g>
</svg>
