<?xml version="1.0" encoding="UTF-8" standalone="no"?>
<!DOCTYPE svg PUBLIC "-//W3C//DTD SVG 1.1//EN"
 "http://www.w3.org/Graphics/SVG/1.1/DTD/svg11.dtd">
<!-- Generated by graphviz version 2.38.0 (20140413.2041)
 -->
<!-- Title: Handler Pages: 1 -->
<svg width="597pt" height="325pt"
 viewBox="0.00 0.00 597.06 325.00" xmlns="http://www.w3.org/2000/svg" xmlns:xlink="http://www.w3.org/1999/xlink">
<g id="graph0" class="graph" transform="scale(1 1) rotate(0) translate(4 321)">
<title>Handler</title>
<polygon fill="white" stroke="none" points="-4,4 -4,-321 593.06,-321 593.06,4 -4,4"/>
<!-- Node1 -->
<g id="node1" class="node"><title>Node1</title>
<polygon fill="#bfbfbf" stroke="black" points="239.34,-141.5 239.34,-195.5 299.525,-195.5 299.525,-141.5 239.34,-141.5"/>
<text text-anchor="middle" x="269.433" y="-183.5" font-family="Helvetica,sans-Serif" font-size="10.00">Handler</text>
<polyline fill="none" stroke="black" points="239.34,-177.5 299.525,-177.5 "/>
<text text-anchor="middle" x="269.433" y="-165.5" font-family="Helvetica,sans-Serif" font-size="10.00"> </text>
<polyline fill="none" stroke="black" points="239.34,-159.5 299.525,-159.5 "/>
<text text-anchor="start" x="247.34" y="-147.5" font-family="Helvetica,sans-Serif" font-size="10.00">+ invoke()</text>
</g>
<!-- Node3 -->
<g id="node3" class="node"><title>Node3</title>
<g id="a_node3"><a xlink:href="../../d2/d88/interfaceAsyncWait.html" target="_top" xlink:title="消息处理器异步等待对象 ">
<polygon fill="white" stroke="black" points="0,-25.5 0,-79.5 62.8652,-79.5 62.8652,-25.5 0,-25.5"/>
<text text-anchor="middle" x="31.4326" y="-67.5" font-family="Helvetica,sans-Serif" font-size="10.00">AsyncWait</text>
<polyline fill="none" stroke="black" points="0,-61.5 62.8652,-61.5 "/>
<text text-anchor="middle" x="31.4326" y="-49.5" font-family="Helvetica,sans-Serif" font-size="10.00"> </text>
<polyline fill="none" stroke="black" points="0,-43.5 62.8652,-43.5 "/>
<text text-anchor="start" x="8" y="-31.5" font-family="Helvetica,sans-Serif" font-size="10.00">+ end()</text>
</a>
</g>
</g>
<!-- Node1&#45;&gt;Node3 -->
<g id="edge2" class="edge"><title>Node1&#45;&gt;Node3</title>
<path fill="none" stroke="midnightblue" d="M229.444,-161.884C187.348,-154.442 120.627,-138.171 72.4326,-105 62.7362,-98.3261 54.2053,-88.6857 47.4716,-79.5464"/>
<polygon fill="none" stroke="midnightblue" points="228.887,-165.34 239.33,-163.55 230.05,-158.437 228.887,-165.34"/>
</g>
<!-- Node4 -->
<g id="node4" class="node"><title>Node4</title>
<g id="a_node4"><a xlink:href="../../d3/d78/interfaceChain.html" target="_top" xlink:title="消息处理器链处理对象 ">
<polygon fill="white" stroke="black" points="81.1089,-15.5 81.1089,-89.5 145.756,-89.5 145.756,-15.5 81.1089,-15.5"/>
<text text-anchor="middle" x="113.433" y="-77.5" font-family="Helvetica,sans-Serif" font-size="10.00">Chain</text>
<polyline fill="none" stroke="black" points="81.1089,-71.5 145.756,-71.5 "/>
<text text-anchor="middle" x="113.433" y="-59.5" font-family="Helvetica,sans-Serif" font-size="10.00"> </text>
<polyline fill="none" stroke="black" points="81.1089,-53.5 145.756,-53.5 "/>
<text text-anchor="start" x="89.1089" y="-41.5" font-family="Helvetica,sans-Serif" font-size="10.00">+ Chain()</text>
<text text-anchor="start" x="89.1089" y="-31.5" font-family="Helvetica,sans-Serif" font-size="10.00">+ append()</text>
<text text-anchor="start" x="89.1089" y="-21.5" font-family="Helvetica,sans-Serif" font-size="10.00">+ append()</text>
</a>
</g>
</g>
<!-- Node1&#45;&gt;Node4 -->
<g id="edge3" class="edge"><title>Node1&#45;&gt;Node4</title>
<path fill="none" stroke="midnightblue" d="M229.768,-150.802C206.399,-139.827 177.076,-123.999 154.433,-105 149.005,-100.446 143.801,-95.0764 139.032,-89.5543"/>
<polygon fill="none" stroke="midnightblue" points="228.506,-154.073 239.055,-155.057 231.422,-147.709 228.506,-154.073"/>
</g>
<!-- Node5 -->
<g id="node5" class="node"><title>Node5</title>
<g id="a_node5"><a xlink:href="../../d6/d18/interfaceHttpHandler.html" target="_top" xlink:title="http 协议转换处理器 ">
<polygon fill="white" stroke="black" points="163.437,-0.5 163.437,-104.5 271.429,-104.5 271.429,-0.5 163.437,-0.5"/>
<text text-anchor="middle" x="217.433" y="-92.5" font-family="Helvetica,sans-Serif" font-size="10.00">HttpHandler</text>
<polyline fill="none" stroke="black" points="163.437,-86.5 271.429,-86.5 "/>
<text text-anchor="start" x="171.437" y="-74.5" font-family="Helvetica,sans-Serif" font-size="10.00">+ crossDomain</text>
<text text-anchor="start" x="171.437" y="-64.5" font-family="Helvetica,sans-Serif" font-size="10.00">+ forceGZIP</text>
<text text-anchor="start" x="171.437" y="-54.5" font-family="Helvetica,sans-Serif" font-size="10.00">+ maxHeadersCount</text>
<text text-anchor="start" x="171.437" y="-44.5" font-family="Helvetica,sans-Serif" font-size="10.00">+ maxUploadSize</text>
<text text-anchor="start" x="171.437" y="-34.5" font-family="Helvetica,sans-Serif" font-size="10.00">+ handler</text>
<text text-anchor="start" x="171.437" y="-24.5" font-family="Helvetica,sans-Serif" font-size="10.00">+ stats</text>
<polyline fill="none" stroke="black" points="163.437,-18.5 271.429,-18.5 "/>
<text text-anchor="start" x="171.437" y="-6.5" font-family="Helvetica,sans-Serif" font-size="10.00">+ HttpHandler()</text>
</a>
</g>
</g>
<!-- Node1&#45;&gt;Node5 -->
<g id="edge4" class="edge"><title>Node1&#45;&gt;Node5</title>
<path fill="none" stroke="midnightblue" d="M253.35,-132.241C249.37,-123.518 245.027,-113.995 240.778,-104.681"/>
<polygon fill="none" stroke="midnightblue" points="250.168,-133.7 257.503,-141.346 256.537,-130.795 250.168,-133.7"/>
</g>
<!-- Node6 -->
<g id="node6" class="node"><title>Node6</title>
<g id="a_node6"><a xlink:href="../../df/dcb/interfaceRouting.html" target="_top" xlink:title="消息处理器路由对象 ">
<polygon fill="white" stroke="black" points="289.56,-15.5 289.56,-89.5 355.306,-89.5 355.306,-15.5 289.56,-15.5"/>
<text text-anchor="middle" x="322.433" y="-77.5" font-family="Helvetica,sans-Serif" font-size="10.00">Routing</text>
<polyline fill="none" stroke="black" points="289.56,-71.5 355.306,-71.5 "/>
<text text-anchor="middle" x="322.433" y="-59.5" font-family="Helvetica,sans-Serif" font-size="10.00"> </text>
<polyline fill="none" stroke="black" points="289.56,-53.5 355.306,-53.5 "/>
<text text-anchor="start" x="297.56" y="-41.5" font-family="Helvetica,sans-Serif" font-size="10.00">+ Routing()</text>
<text text-anchor="start" x="297.56" y="-31.5" font-family="Helvetica,sans-Serif" font-size="10.00">+ append()</text>
<text text-anchor="start" x="297.56" y="-21.5" font-family="Helvetica,sans-Serif" font-size="10.00">+ append()</text>
</a>
</g>
</g>
<!-- Node1&#45;&gt;Node6 -->
<g id="edge5" class="edge"><title>Node1&#45;&gt;Node6</title>
<path fill="none" stroke="midnightblue" d="M285.947,-131.979C292.169,-118.596 299.252,-103.361 305.511,-89.8985"/>
<polygon fill="none" stroke="midnightblue" points="282.634,-130.803 281.592,-141.346 288.982,-133.754 282.634,-130.803"/>
</g>
<!-- Node7 -->
<g id="node7" class="node"><title>Node7</title>
<g id="a_node7"><a xlink:href="../../df/dd8/interfaceSslHandler.html" target="_top" xlink:title="ssl 协议转换处理器 ">
<polygon fill="white" stroke="black" points="373.338,-10.5 373.338,-94.5 453.527,-94.5 453.527,-10.5 373.338,-10.5"/>
<text text-anchor="middle" x="413.433" y="-82.5" font-family="Helvetica,sans-Serif" font-size="10.00">SslHandler</text>
<polyline fill="none" stroke="black" points="373.338,-76.5 453.527,-76.5 "/>
<text text-anchor="start" x="381.338" y="-64.5" font-family="Helvetica,sans-Serif" font-size="10.00">+ verification</text>
<text text-anchor="start" x="381.338" y="-54.5" font-family="Helvetica,sans-Serif" font-size="10.00">+ ca</text>
<text text-anchor="start" x="381.338" y="-44.5" font-family="Helvetica,sans-Serif" font-size="10.00">+ handler</text>
<polyline fill="none" stroke="black" points="373.338,-38.5 453.527,-38.5 "/>
<text text-anchor="start" x="381.338" y="-26.5" font-family="Helvetica,sans-Serif" font-size="10.00">+ SslHandler()</text>
<text text-anchor="start" x="381.338" y="-16.5" font-family="Helvetica,sans-Serif" font-size="10.00">+ SslHandler()</text>
</a>
</g>
</g>
<!-- Node1&#45;&gt;Node7 -->
<g id="edge6" class="edge"><title>Node1&#45;&gt;Node7</title>
<path fill="none" stroke="midnightblue" d="M308.703,-144.496C326.395,-133.431 347.146,-119.445 364.433,-105 368.315,-101.755 372.211,-98.2292 376.017,-94.5947"/>
<polygon fill="none" stroke="midnightblue" points="306.442,-141.778 299.764,-150.003 310.114,-147.738 306.442,-141.778"/>
</g>
<!-- Node8 -->
<g id="node8" class="node"><title>Node8</title>
<g id="a_node8"><a xlink:href="../../da/d20/interfaceWebSocketHandler.html" target="_top" xlink:title="WebSocket 包协议转换处理器 ">
<polygon fill="white" stroke="black" points="471.805,-15.5 471.805,-89.5 589.06,-89.5 589.06,-15.5 471.805,-15.5"/>
<text text-anchor="middle" x="530.433" y="-77.5" font-family="Helvetica,sans-Serif" font-size="10.00">WebSocketHandler</text>
<polyline fill="none" stroke="black" points="471.805,-71.5 589.06,-71.5 "/>
<text text-anchor="start" x="479.805" y="-59.5" font-family="Helvetica,sans-Serif" font-size="10.00">+ maxSize</text>
<text text-anchor="start" x="479.805" y="-49.5" font-family="Helvetica,sans-Serif" font-size="10.00">+ handler</text>
<text text-anchor="start" x="479.805" y="-39.5" font-family="Helvetica,sans-Serif" font-size="10.00">+ stats</text>
<polyline fill="none" stroke="black" points="471.805,-33.5 589.06,-33.5 "/>
<text text-anchor="start" x="479.805" y="-21.5" font-family="Helvetica,sans-Serif" font-size="10.00">+ WebSocketHandler()</text>
</a>
</g>
</g>
<!-- Node1&#45;&gt;Node8 -->
<g id="edge7" class="edge"><title>Node1&#45;&gt;Node8</title>
<path fill="none" stroke="midnightblue" d="M309.716,-158.645C349.877,-148.868 412.589,-130.992 462.433,-105 470.836,-100.618 479.288,-95.2076 487.239,-89.5578"/>
<polygon fill="none" stroke="midnightblue" points="308.682,-155.293 299.764,-161.014 310.303,-162.103 308.682,-155.293"/>
</g>
<!-- Node2 -->
<g id="node2" class="node"><title>Node2</title>
<g id="a_node2"><a xlink:href="../../db/d38/interfaceobject.html" target="_top" xlink:title="基础对象，所有对象均继承于此 ">
<polygon fill="white" stroke="black" points="236.289,-232.5 236.289,-316.5 302.577,-316.5 302.577,-232.5 236.289,-232.5"/>
<text text-anchor="middle" x="269.433" y="-304.5" font-family="Helvetica,sans-Serif" font-size="10.00">object</text>
<polyline fill="none" stroke="black" points="236.289,-298.5 302.577,-298.5 "/>
<text text-anchor="middle" x="269.433" y="-286.5" font-family="Helvetica,sans-Serif" font-size="10.00"> </text>
<polyline fill="none" stroke="black" points="236.289,-280.5 302.577,-280.5 "/>
<text text-anchor="start" x="244.289" y="-268.5" font-family="Helvetica,sans-Serif" font-size="10.00">+ dispose()</text>
<text text-anchor="start" x="244.289" y="-258.5" font-family="Helvetica,sans-Serif" font-size="10.00">+ toString()</text>
<text text-anchor="start" x="244.289" y="-248.5" font-family="Helvetica,sans-Serif" font-size="10.00">+ toJSON()</text>
<text text-anchor="start" x="244.289" y="-238.5" font-family="Helvetica,sans-Serif" font-size="10.00">+ valueOf()</text>
</a>
</g>
</g>
<!-- Node2&#45;&gt;Node1 -->
<g id="edge1" class="edge"><title>Node2&#45;&gt;Node1</title>
<path fill="none" stroke="midnightblue" d="M269.433,-222.111C269.433,-212.937 269.433,-203.738 269.433,-195.655"/>
<polygon fill="none" stroke="midnightblue" points="265.933,-222.396 269.433,-232.396 272.933,-222.396 265.933,-222.396"/>
</g>
</g>
</svg>
