<?xml version="1.0" encoding="UTF-8" standalone="no"?>
<!DOCTYPE svg PUBLIC "-//W3C//DTD SVG 1.1//EN"
 "http://www.w3.org/Graphics/SVG/1.1/DTD/svg11.dtd">
<!-- Generated by graphviz version 2.38.0 (20140413.2041)
 -->
<!-- Title: Handler Pages: 1 -->
<svg width="711pt" height="325pt"
 viewBox="0.00 0.00 711.06 325.00" xmlns="http://www.w3.org/2000/svg" xmlns:xlink="http://www.w3.org/1999/xlink">
<g id="graph0" class="graph" transform="scale(1 1) rotate(0) translate(4 321)">
<title>Handler</title>
<polygon fill="white" stroke="none" points="-4,4 -4,-321 707.06,-321 707.06,4 -4,4"/>
<!-- Node1 -->
<g id="node1" class="node"><title>Node1</title>
<polygon fill="#bfbfbf" stroke="black" points="307.34,-141.5 307.34,-195.5 367.525,-195.5 367.525,-141.5 307.34,-141.5"/>
<text text-anchor="middle" x="337.433" y="-183.5" font-family="Helvetica,sans-Serif" font-size="10.00">Handler</text>
<polyline fill="none" stroke="black" points="307.34,-177.5 367.525,-177.5 "/>
<text text-anchor="middle" x="337.433" y="-165.5" font-family="Helvetica,sans-Serif" font-size="10.00"> </text>
<polyline fill="none" stroke="black" points="307.34,-159.5 367.525,-159.5 "/>
<text text-anchor="start" x="315.34" y="-147.5" font-family="Helvetica,sans-Serif" font-size="10.00">+ invoke()</text>
</g>
<!-- Node3 -->
<g id="node3" class="node"><title>Node3</title>
<g id="a_node3"><a xlink:href="../../d2/d88/interfaceAsyncWait.html" target="_top" xlink:title="消息处理器异步等待对象 ">
<polygon fill="white" stroke="black" points="0,-25.5 0,-79.5 62.8652,-79.5 62.8652,-25.5 0,-25.5"/>
<text text-anchor="middle" x="31.4326" y="-67.5" font-family="Helvetica,sans-Serif" font-size="10.00">AsyncWait</text>
<polyline fill="none" stroke="black" points="0,-61.5 62.8652,-61.5 "/>
<text text-anchor="middle" x="31.4326" y="-49.5" font-family="Helvetica,sans-Serif" font-size="10.00"> </text>
<polyline fill="none" stroke="black" points="0,-43.5 62.8652,-43.5 "/>
<text text-anchor="start" x="8" y="-31.5" font-family="Helvetica,sans-Serif" font-size="10.00">+ end()</text>
</a>
</g>
</g>
<!-- Node1&#45;&gt;Node3 -->
<g id="edge2" class="edge"><title>Node1&#45;&gt;Node3</title>
<path fill="none" stroke="midnightblue" d="M297.132,-166.093C242.295,-162.471 142.943,-149.701 72.4326,-105 62.3944,-98.6361 53.7456,-88.9433 47.0141,-79.6767"/>
<polygon fill="none" stroke="midnightblue" points="296.971,-169.589 307.16,-166.685 297.384,-162.601 296.971,-169.589"/>
</g>
<!-- Node4 -->
<g id="node4" class="node"><title>Node4</title>
<g id="a_node4"><a xlink:href="../../d3/d78/interfaceChain.html" target="_top" xlink:title="消息处理器链处理对象 ">
<polygon fill="white" stroke="black" points="81.1089,-15.5 81.1089,-89.5 145.756,-89.5 145.756,-15.5 81.1089,-15.5"/>
<text text-anchor="middle" x="113.433" y="-77.5" font-family="Helvetica,sans-Serif" font-size="10.00">Chain</text>
<polyline fill="none" stroke="black" points="81.1089,-71.5 145.756,-71.5 "/>
<text text-anchor="middle" x="113.433" y="-59.5" font-family="Helvetica,sans-Serif" font-size="10.00"> </text>
<polyline fill="none" stroke="black" points="81.1089,-53.5 145.756,-53.5 "/>
<text text-anchor="start" x="89.1089" y="-41.5" font-family="Helvetica,sans-Serif" font-size="10.00">+ Chain()</text>
<text text-anchor="start" x="89.1089" y="-31.5" font-family="Helvetica,sans-Serif" font-size="10.00">+ append()</text>
<text text-anchor="start" x="89.1089" y="-21.5" font-family="Helvetica,sans-Serif" font-size="10.00">+ append()</text>
</a>
</g>
</g>
<!-- Node1&#45;&gt;Node4 -->
<g id="edge3" class="edge"><title>Node1&#45;&gt;Node4</title>
<path fill="none" stroke="midnightblue" d="M297.176,-160.593C257.951,-152.368 198.018,-135.708 154.433,-105 148.36,-100.722 142.728,-95.2957 137.704,-89.5808"/>
<polygon fill="none" stroke="midnightblue" points="296.676,-164.062 307.17,-162.6 298.054,-157.199 296.676,-164.062"/>
</g>
<!-- Node5 -->
<g id="node5" class="node"><title>Node5</title>
<g id="a_node5"><a xlink:href="../../d6/d18/interfaceHttpHandler.html" target="_top" xlink:title="http 协议转换处理器 ">
<polygon fill="white" stroke="black" points="163.437,-0.5 163.437,-104.5 271.429,-104.5 271.429,-0.5 163.437,-0.5"/>
<text text-anchor="middle" x="217.433" y="-92.5" font-family="Helvetica,sans-Serif" font-size="10.00">HttpHandler</text>
<polyline fill="none" stroke="black" points="163.437,-86.5 271.429,-86.5 "/>
<text text-anchor="start" x="171.437" y="-74.5" font-family="Helvetica,sans-Serif" font-size="10.00">+ crossDomain</text>
<text text-anchor="start" x="171.437" y="-64.5" font-family="Helvetica,sans-Serif" font-size="10.00">+ forceGZIP</text>
<text text-anchor="start" x="171.437" y="-54.5" font-family="Helvetica,sans-Serif" font-size="10.00">+ maxHeadersCount</text>
<text text-anchor="start" x="171.437" y="-44.5" font-family="Helvetica,sans-Serif" font-size="10.00">+ maxUploadSize</text>
<text text-anchor="start" x="171.437" y="-34.5" font-family="Helvetica,sans-Serif" font-size="10.00">+ handler</text>
<text text-anchor="start" x="171.437" y="-24.5" font-family="Helvetica,sans-Serif" font-size="10.00">+ stats</text>
<polyline fill="none" stroke="black" points="163.437,-18.5 271.429,-18.5 "/>
<text text-anchor="start" x="171.437" y="-6.5" font-family="Helvetica,sans-Serif" font-size="10.00">+ HttpHandler()</text>
</a>
</g>
</g>
<!-- Node1&#45;&gt;Node5 -->
<g id="edge4" class="edge"><title>Node1&#45;&gt;Node5</title>
<path fill="none" stroke="midnightblue" d="M302.644,-134.451C292.843,-125.14 281.946,-114.787 271.308,-104.681"/>
<polygon fill="none" stroke="midnightblue" points="300.242,-136.996 309.902,-141.346 305.063,-131.921 300.242,-136.996"/>
</g>
<!-- Node6 -->
<g id="node6" class="node"><title>Node6</title>
<g id="a_node6"><a xlink:href="../../de/dba/interfacePacketHandler.html" target="_top" xlink:title="Packet 包协议转换处理器 ">
<polygon fill="white" stroke="black" points="288.998,-15.5 288.998,-89.5 385.867,-89.5 385.867,-15.5 288.998,-15.5"/>
<text text-anchor="middle" x="337.433" y="-77.5" font-family="Helvetica,sans-Serif" font-size="10.00">PacketHandler</text>
<polyline fill="none" stroke="black" points="288.998,-71.5 385.867,-71.5 "/>
<text text-anchor="start" x="296.998" y="-59.5" font-family="Helvetica,sans-Serif" font-size="10.00">+ maxSize</text>
<text text-anchor="start" x="296.998" y="-49.5" font-family="Helvetica,sans-Serif" font-size="10.00">+ handler</text>
<text text-anchor="start" x="296.998" y="-39.5" font-family="Helvetica,sans-Serif" font-size="10.00">+ stats</text>
<polyline fill="none" stroke="black" points="288.998,-33.5 385.867,-33.5 "/>
<text text-anchor="start" x="296.998" y="-21.5" font-family="Helvetica,sans-Serif" font-size="10.00">+ PacketHandler()</text>
</a>
</g>
</g>
<!-- Node1&#45;&gt;Node6 -->
<g id="edge5" class="edge"><title>Node1&#45;&gt;Node6</title>
<path fill="none" stroke="midnightblue" d="M337.433,-131.198C337.433,-118.005 337.433,-103.1 337.433,-89.8985"/>
<polygon fill="none" stroke="midnightblue" points="333.933,-131.346 337.433,-141.346 340.933,-131.346 333.933,-131.346"/>
</g>
<!-- Node7 -->
<g id="node7" class="node"><title>Node7</title>
<g id="a_node7"><a xlink:href="../../df/dcb/interfaceRouting.html" target="_top" xlink:title="消息处理器路由对象 ">
<polygon fill="white" stroke="black" points="403.56,-15.5 403.56,-89.5 469.306,-89.5 469.306,-15.5 403.56,-15.5"/>
<text text-anchor="middle" x="436.433" y="-77.5" font-family="Helvetica,sans-Serif" font-size="10.00">Routing</text>
<polyline fill="none" stroke="black" points="403.56,-71.5 469.306,-71.5 "/>
<text text-anchor="middle" x="436.433" y="-59.5" font-family="Helvetica,sans-Serif" font-size="10.00"> </text>
<polyline fill="none" stroke="black" points="403.56,-53.5 469.306,-53.5 "/>
<text text-anchor="start" x="411.56" y="-41.5" font-family="Helvetica,sans-Serif" font-size="10.00">+ Routing()</text>
<text text-anchor="start" x="411.56" y="-31.5" font-family="Helvetica,sans-Serif" font-size="10.00">+ append()</text>
<text text-anchor="start" x="411.56" y="-21.5" font-family="Helvetica,sans-Serif" font-size="10.00">+ append()</text>
</a>
</g>
</g>
<!-- Node1&#45;&gt;Node7 -->
<g id="edge6" class="edge"><title>Node1&#45;&gt;Node7</title>
<path fill="none" stroke="midnightblue" d="M368.794,-133.798C377.223,-124.555 386.264,-114.469 394.433,-105 398.653,-100.108 403.036,-94.8916 407.31,-89.7272"/>
<polygon fill="none" stroke="midnightblue" points="366.065,-131.595 361.889,-141.333 371.226,-136.325 366.065,-131.595"/>
</g>
<!-- Node8 -->
<g id="node8" class="node"><title>Node8</title>
<g id="a_node8"><a xlink:href="../../df/dd8/interfaceSslHandler.html" target="_top" xlink:title="ssl 协议转换处理器 ">
<polygon fill="white" stroke="black" points="487.338,-10.5 487.338,-94.5 567.527,-94.5 567.527,-10.5 487.338,-10.5"/>
<text text-anchor="middle" x="527.433" y="-82.5" font-family="Helvetica,sans-Serif" font-size="10.00">SslHandler</text>
<polyline fill="none" stroke="black" points="487.338,-76.5 567.527,-76.5 "/>
<text text-anchor="start" x="495.338" y="-64.5" font-family="Helvetica,sans-Serif" font-size="10.00">+ verification</text>
<text text-anchor="start" x="495.338" y="-54.5" font-family="Helvetica,sans-Serif" font-size="10.00">+ ca</text>
<text text-anchor="start" x="495.338" y="-44.5" font-family="Helvetica,sans-Serif" font-size="10.00">+ handler</text>
<polyline fill="none" stroke="black" points="487.338,-38.5 567.527,-38.5 "/>
<text text-anchor="start" x="495.338" y="-26.5" font-family="Helvetica,sans-Serif" font-size="10.00">+ SslHandler()</text>
<text text-anchor="start" x="495.338" y="-16.5" font-family="Helvetica,sans-Serif" font-size="10.00">+ SslHandler()</text>
</a>
</g>
</g>
<!-- Node1&#45;&gt;Node8 -->
<g id="edge7" class="edge"><title>Node1&#45;&gt;Node8</title>
<path fill="none" stroke="midnightblue" d="M377.114,-154.675C406.633,-144.041 447.065,-127.099 478.433,-105 482.872,-101.873 487.232,-98.2988 491.411,-94.5245"/>
<polygon fill="none" stroke="midnightblue" points="375.823,-151.419 367.551,-158.038 378.145,-158.023 375.823,-151.419"/>
</g>
<!-- Node9 -->
<g id="node9" class="node"><title>Node9</title>
<g id="a_node9"><a xlink:href="../../da/d20/interfaceWebSocketHandler.html" target="_top" xlink:title="WebSocket 包协议转换处理器 ">
<polygon fill="white" stroke="black" points="585.805,-15.5 585.805,-89.5 703.06,-89.5 703.06,-15.5 585.805,-15.5"/>
<text text-anchor="middle" x="644.433" y="-77.5" font-family="Helvetica,sans-Serif" font-size="10.00">WebSocketHandler</text>
<polyline fill="none" stroke="black" points="585.805,-71.5 703.06,-71.5 "/>
<text text-anchor="start" x="593.805" y="-59.5" font-family="Helvetica,sans-Serif" font-size="10.00">+ maxSize</text>
<text text-anchor="start" x="593.805" y="-49.5" font-family="Helvetica,sans-Serif" font-size="10.00">+ handler</text>
<text text-anchor="start" x="593.805" y="-39.5" font-family="Helvetica,sans-Serif" font-size="10.00">+ stats</text>
<polyline fill="none" stroke="black" points="585.805,-33.5 703.06,-33.5 "/>
<text text-anchor="start" x="593.805" y="-21.5" font-family="Helvetica,sans-Serif" font-size="10.00">+ WebSocketHandler()</text>
</a>
</g>
</g>
<!-- Node1&#45;&gt;Node9 -->
<g id="edge8" class="edge"><title>Node1&#45;&gt;Node9</title>
<path fill="none" stroke="midnightblue" d="M377.693,-161.913C426.595,-154.033 510.697,-136.915 576.433,-105 585.092,-100.796 593.738,-95.4065 601.819,-89.7048"/>
<polygon fill="none" stroke="midnightblue" points="377.151,-158.455 367.811,-163.456 378.231,-165.371 377.151,-158.455"/>
</g>
<!-- Node2 -->
<g id="node2" class="node"><title>Node2</title>
<g id="a_node2"><a xlink:href="../../db/d38/interfaceobject.html" target="_top" xlink:title="基础对象，所有对象均继承于此 ">
<polygon fill="white" stroke="black" points="304.289,-232.5 304.289,-316.5 370.577,-316.5 370.577,-232.5 304.289,-232.5"/>
<text text-anchor="middle" x="337.433" y="-304.5" font-family="Helvetica,sans-Serif" font-size="10.00">object</text>
<polyline fill="none" stroke="black" points="304.289,-298.5 370.577,-298.5 "/>
<text text-anchor="middle" x="337.433" y="-286.5" font-family="Helvetica,sans-Serif" font-size="10.00"> </text>
<polyline fill="none" stroke="black" points="304.289,-280.5 370.577,-280.5 "/>
<text text-anchor="start" x="312.289" y="-268.5" font-family="Helvetica,sans-Serif" font-size="10.00">+ dispose()</text>
<text text-anchor="start" x="312.289" y="-258.5" font-family="Helvetica,sans-Serif" font-size="10.00">+ toString()</text>
<text text-anchor="start" x="312.289" y="-248.5" font-family="Helvetica,sans-Serif" font-size="10.00">+ toJSON()</text>
<text text-anchor="start" x="312.289" y="-238.5" font-family="Helvetica,sans-Serif" font-size="10.00">+ valueOf()</text>
</a>
</g>
</g>
<!-- Node2&#45;&gt;Node1 -->
<g id="edge1" class="edge"><title>Node2&#45;&gt;Node1</title>
<path fill="none" stroke="midnightblue" d="M337.433,-222.111C337.433,-212.937 337.433,-203.738 337.433,-195.655"/>
<polygon fill="none" stroke="midnightblue" points="333.933,-222.396 337.433,-232.396 340.933,-222.396 333.933,-222.396"/>
</g>
</g>
</svg>
