<?xml version="1.0" encoding="UTF-8" standalone="no"?>
<!DOCTYPE svg PUBLIC "-//W3C//DTD SVG 1.1//EN"
 "http://www.w3.org/Graphics/SVG/1.1/DTD/svg11.dtd">
<!-- Generated by graphviz version 2.38.0 (20140413.2041)
 -->
<!-- Title: Handler Pages: 1 -->
<svg width="418pt" height="436pt"
 viewBox="0.00 0.00 417.53 436.00" xmlns="http://www.w3.org/2000/svg" xmlns:xlink="http://www.w3.org/1999/xlink">
<g id="graph0" class="graph" transform="scale(1 1) rotate(0) translate(4 432)">
<title>Handler</title>
<polygon fill="white" stroke="none" points="-4,4 -4,-432 413.527,-432 413.527,4 -4,4"/>
<!-- Node1 -->
<g id="node1" class="node"><title>Node1</title>
<polygon fill="#bfbfbf" stroke="black" points="165.34,-242.5 165.34,-296.5 225.525,-296.5 225.525,-242.5 165.34,-242.5"/>
<text text-anchor="middle" x="195.433" y="-284.5" font-family="Helvetica,sans-Serif" font-size="10.00">Handler</text>
<polyline fill="none" stroke="black" points="165.34,-278.5 225.525,-278.5 "/>
<text text-anchor="middle" x="195.433" y="-266.5" font-family="Helvetica,sans-Serif" font-size="10.00"> </text>
<polyline fill="none" stroke="black" points="165.34,-260.5 225.525,-260.5 "/>
<text text-anchor="start" x="173.34" y="-248.5" font-family="Helvetica,sans-Serif" font-size="10.00">+ invoke()</text>
</g>
<!-- Node3 -->
<g id="node3" class="node"><title>Node3</title>
<g id="a_node3"><a xlink:href="../../d2/d88/interfaceAsyncWait.html" target="_top" xlink:title="消息处理器异步等待对象 ">
<polygon fill="white" stroke="black" points="0,-136.5 0,-190.5 62.8652,-190.5 62.8652,-136.5 0,-136.5"/>
<text text-anchor="middle" x="31.4326" y="-178.5" font-family="Helvetica,sans-Serif" font-size="10.00">AsyncWait</text>
<polyline fill="none" stroke="black" points="0,-172.5 62.8652,-172.5 "/>
<text text-anchor="middle" x="31.4326" y="-160.5" font-family="Helvetica,sans-Serif" font-size="10.00"> </text>
<polyline fill="none" stroke="black" points="0,-154.5 62.8652,-154.5 "/>
<text text-anchor="start" x="8" y="-142.5" font-family="Helvetica,sans-Serif" font-size="10.00">+ end()</text>
</a>
</g>
</g>
<!-- Node1&#45;&gt;Node3 -->
<g id="edge2" class="edge"><title>Node1&#45;&gt;Node3</title>
<path fill="none" stroke="midnightblue" d="M156.103,-252.428C131.002,-241.249 98.418,-224.978 72.4326,-206 66.3802,-201.58 60.401,-196.247 54.9584,-190.899"/>
<polygon fill="none" stroke="midnightblue" points="154.763,-255.662 165.328,-256.458 157.566,-249.247 154.763,-255.662"/>
</g>
<!-- Node4 -->
<g id="node4" class="node"><title>Node4</title>
<g id="a_node4"><a xlink:href="../../d3/d78/interfaceChain.html" target="_top" xlink:title="消息处理器链处理对象 ">
<polygon fill="white" stroke="black" points="81.1089,-126.5 81.1089,-200.5 145.756,-200.5 145.756,-126.5 81.1089,-126.5"/>
<text text-anchor="middle" x="113.433" y="-188.5" font-family="Helvetica,sans-Serif" font-size="10.00">Chain</text>
<polyline fill="none" stroke="black" points="81.1089,-182.5 145.756,-182.5 "/>
<text text-anchor="middle" x="113.433" y="-170.5" font-family="Helvetica,sans-Serif" font-size="10.00"> </text>
<polyline fill="none" stroke="black" points="81.1089,-164.5 145.756,-164.5 "/>
<text text-anchor="start" x="89.1089" y="-152.5" font-family="Helvetica,sans-Serif" font-size="10.00">+ Chain()</text>
<text text-anchor="start" x="89.1089" y="-142.5" font-family="Helvetica,sans-Serif" font-size="10.00">+ append()</text>
<text text-anchor="start" x="89.1089" y="-132.5" font-family="Helvetica,sans-Serif" font-size="10.00">+ append()</text>
</a>
</g>
</g>
<!-- Node1&#45;&gt;Node4 -->
<g id="edge3" class="edge"><title>Node1&#45;&gt;Node4</title>
<path fill="none" stroke="midnightblue" d="M168.433,-234.256C159.913,-223.451 150.477,-211.483 141.861,-200.555"/>
<polygon fill="none" stroke="midnightblue" points="165.801,-236.571 174.741,-242.256 171.297,-232.237 165.801,-236.571"/>
</g>
<!-- Node5 -->
<g id="node5" class="node"><title>Node5</title>
<g id="a_node5"><a xlink:href="../../dc/de5/interfaceHandlerEx.html" target="_top" xlink:title="扩展消息处理器接口 ">
<polygon fill="white" stroke="black" points="163.675,-131.5 163.675,-195.5 227.19,-195.5 227.19,-131.5 163.675,-131.5"/>
<text text-anchor="middle" x="195.433" y="-183.5" font-family="Helvetica,sans-Serif" font-size="10.00">HandlerEx</text>
<polyline fill="none" stroke="black" points="163.675,-177.5 227.19,-177.5 "/>
<text text-anchor="start" x="171.675" y="-165.5" font-family="Helvetica,sans-Serif" font-size="10.00">+ handler</text>
<text text-anchor="start" x="171.675" y="-155.5" font-family="Helvetica,sans-Serif" font-size="10.00">+ stats</text>
<polyline fill="none" stroke="black" points="163.675,-149.5 227.19,-149.5 "/>
<text text-anchor="start" x="171.675" y="-137.5" font-family="Helvetica,sans-Serif" font-size="10.00">+ onerror()</text>
</a>
</g>
</g>
<!-- Node1&#45;&gt;Node5 -->
<g id="edge4" class="edge"><title>Node1&#45;&gt;Node5</title>
<path fill="none" stroke="midnightblue" d="M195.433,-232.148C195.433,-220.208 195.433,-207.054 195.433,-195.545"/>
<polygon fill="none" stroke="midnightblue" points="191.933,-232.256 195.433,-242.256 198.933,-232.256 191.933,-232.256"/>
</g>
<!-- Node8 -->
<g id="node8" class="node"><title>Node8</title>
<g id="a_node8"><a xlink:href="../../df/dcb/interfaceRouting.html" target="_top" xlink:title="消息处理器路由对象 ">
<polygon fill="white" stroke="black" points="245.56,-126.5 245.56,-200.5 311.306,-200.5 311.306,-126.5 245.56,-126.5"/>
<text text-anchor="middle" x="278.433" y="-188.5" font-family="Helvetica,sans-Serif" font-size="10.00">Routing</text>
<polyline fill="none" stroke="black" points="245.56,-182.5 311.306,-182.5 "/>
<text text-anchor="middle" x="278.433" y="-170.5" font-family="Helvetica,sans-Serif" font-size="10.00"> </text>
<polyline fill="none" stroke="black" points="245.56,-164.5 311.306,-164.5 "/>
<text text-anchor="start" x="253.56" y="-152.5" font-family="Helvetica,sans-Serif" font-size="10.00">+ Routing()</text>
<text text-anchor="start" x="253.56" y="-142.5" font-family="Helvetica,sans-Serif" font-size="10.00">+ append()</text>
<text text-anchor="start" x="253.56" y="-132.5" font-family="Helvetica,sans-Serif" font-size="10.00">+ append()</text>
</a>
</g>
</g>
<!-- Node1&#45;&gt;Node8 -->
<g id="edge7" class="edge"><title>Node1&#45;&gt;Node8</title>
<path fill="none" stroke="midnightblue" d="M222.762,-234.256C231.385,-223.451 240.937,-211.483 249.658,-200.555"/>
<polygon fill="none" stroke="midnightblue" points="219.879,-232.257 216.377,-242.256 225.35,-236.624 219.879,-232.257"/>
</g>
<!-- Node9 -->
<g id="node9" class="node"><title>Node9</title>
<g id="a_node9"><a xlink:href="../../df/dd8/interfaceSslHandler.html" target="_top" xlink:title="ssl 协议转换处理器 ">
<polygon fill="white" stroke="black" points="329.338,-121.5 329.338,-205.5 409.527,-205.5 409.527,-121.5 329.338,-121.5"/>
<text text-anchor="middle" x="369.433" y="-193.5" font-family="Helvetica,sans-Serif" font-size="10.00">SslHandler</text>
<polyline fill="none" stroke="black" points="329.338,-187.5 409.527,-187.5 "/>
<text text-anchor="start" x="337.338" y="-175.5" font-family="Helvetica,sans-Serif" font-size="10.00">+ verification</text>
<text text-anchor="start" x="337.338" y="-165.5" font-family="Helvetica,sans-Serif" font-size="10.00">+ ca</text>
<text text-anchor="start" x="337.338" y="-155.5" font-family="Helvetica,sans-Serif" font-size="10.00">+ handler</text>
<polyline fill="none" stroke="black" points="329.338,-149.5 409.527,-149.5 "/>
<text text-anchor="start" x="337.338" y="-137.5" font-family="Helvetica,sans-Serif" font-size="10.00">+ SslHandler()</text>
<text text-anchor="start" x="337.338" y="-127.5" font-family="Helvetica,sans-Serif" font-size="10.00">+ SslHandler()</text>
</a>
</g>
</g>
<!-- Node1&#45;&gt;Node9 -->
<g id="edge8" class="edge"><title>Node1&#45;&gt;Node9</title>
<path fill="none" stroke="midnightblue" d="M234.86,-251.731C260.152,-240.271 293.226,-223.949 320.433,-206 323.317,-204.097 326.222,-202.046 329.099,-199.911"/>
<polygon fill="none" stroke="midnightblue" points="233.279,-248.604 225.576,-255.878 236.134,-254.995 233.279,-248.604"/>
</g>
<!-- Node2 -->
<g id="node2" class="node"><title>Node2</title>
<g id="a_node2"><a xlink:href="../../db/d38/interfaceobject.html" target="_top" xlink:title="基础对象，所有对象均继承于此 ">
<polygon fill="white" stroke="black" points="162.289,-333.5 162.289,-427.5 228.577,-427.5 228.577,-333.5 162.289,-333.5"/>
<text text-anchor="middle" x="195.433" y="-415.5" font-family="Helvetica,sans-Serif" font-size="10.00">object</text>
<polyline fill="none" stroke="black" points="162.289,-409.5 228.577,-409.5 "/>
<text text-anchor="middle" x="195.433" y="-397.5" font-family="Helvetica,sans-Serif" font-size="10.00"> </text>
<polyline fill="none" stroke="black" points="162.289,-391.5 228.577,-391.5 "/>
<text text-anchor="start" x="170.289" y="-379.5" font-family="Helvetica,sans-Serif" font-size="10.00">+ dispose()</text>
<text text-anchor="start" x="170.289" y="-369.5" font-family="Helvetica,sans-Serif" font-size="10.00">+ equals()</text>
<text text-anchor="start" x="170.289" y="-359.5" font-family="Helvetica,sans-Serif" font-size="10.00">+ toString()</text>
<text text-anchor="start" x="170.289" y="-349.5" font-family="Helvetica,sans-Serif" font-size="10.00">+ toJSON()</text>
<text text-anchor="start" x="170.289" y="-339.5" font-family="Helvetica,sans-Serif" font-size="10.00">+ valueOf()</text>
</a>
</g>
</g>
<!-- Node2&#45;&gt;Node1 -->
<g id="edge1" class="edge"><title>Node2&#45;&gt;Node1</title>
<path fill="none" stroke="midnightblue" d="M195.433,-323.212C195.433,-313.916 195.433,-304.69 195.433,-296.617"/>
<polygon fill="none" stroke="midnightblue" points="191.933,-323.274 195.433,-333.274 198.933,-323.274 191.933,-323.274"/>
</g>
<!-- Node6 -->
<g id="node6" class="node"><title>Node6</title>
<g id="a_node6"><a xlink:href="../../d6/d18/interfaceHttpHandler.html" target="_top" xlink:title="http 协议转换处理器 ">
<polygon fill="white" stroke="black" points="76.4365,-0.5 76.4365,-84.5 184.429,-84.5 184.429,-0.5 76.4365,-0.5"/>
<text text-anchor="middle" x="130.433" y="-72.5" font-family="Helvetica,sans-Serif" font-size="10.00">HttpHandler</text>
<polyline fill="none" stroke="black" points="76.4365,-66.5 184.429,-66.5 "/>
<text text-anchor="start" x="84.4365" y="-54.5" font-family="Helvetica,sans-Serif" font-size="10.00">+ crossDomain</text>
<text text-anchor="start" x="84.4365" y="-44.5" font-family="Helvetica,sans-Serif" font-size="10.00">+ forceGZIP</text>
<text text-anchor="start" x="84.4365" y="-34.5" font-family="Helvetica,sans-Serif" font-size="10.00">+ maxHeadersCount</text>
<text text-anchor="start" x="84.4365" y="-24.5" font-family="Helvetica,sans-Serif" font-size="10.00">+ maxUploadSize</text>
<polyline fill="none" stroke="black" points="76.4365,-18.5 184.429,-18.5 "/>
<text text-anchor="start" x="84.4365" y="-6.5" font-family="Helvetica,sans-Serif" font-size="10.00">+ HttpHandler()</text>
</a>
</g>
</g>
<!-- Node5&#45;&gt;Node6 -->
<g id="edge5" class="edge"><title>Node5&#45;&gt;Node6</title>
<path fill="none" stroke="midnightblue" d="M173.465,-122.283C166.879,-110.225 159.646,-96.9836 153.021,-84.8542"/>
<polygon fill="none" stroke="midnightblue" points="170.489,-124.136 178.355,-131.234 176.633,-120.78 170.489,-124.136"/>
</g>
<!-- Node7 -->
<g id="node7" class="node"><title>Node7</title>
<g id="a_node7"><a xlink:href="../../da/d20/interfaceWebSocketHandler.html" target="_top" xlink:title="WebSocket 包协议转换处理器 ">
<polygon fill="white" stroke="black" points="202.805,-15.5 202.805,-69.5 320.06,-69.5 320.06,-15.5 202.805,-15.5"/>
<text text-anchor="middle" x="261.433" y="-57.5" font-family="Helvetica,sans-Serif" font-size="10.00">WebSocketHandler</text>
<polyline fill="none" stroke="black" points="202.805,-51.5 320.06,-51.5 "/>
<text text-anchor="start" x="210.805" y="-39.5" font-family="Helvetica,sans-Serif" font-size="10.00">+ maxSize</text>
<polyline fill="none" stroke="black" points="202.805,-33.5 320.06,-33.5 "/>
<text text-anchor="start" x="210.805" y="-21.5" font-family="Helvetica,sans-Serif" font-size="10.00">+ WebSocketHandler()</text>
</a>
</g>
</g>
<!-- Node5&#45;&gt;Node7 -->
<g id="edge6" class="edge"><title>Node5&#45;&gt;Node7</title>
<path fill="none" stroke="midnightblue" d="M217.667,-122.41C227.305,-105.034 238.317,-85.1775 246.885,-69.7301"/>
<polygon fill="none" stroke="midnightblue" points="214.563,-120.792 212.773,-131.234 220.684,-124.187 214.563,-120.792"/>
</g>
</g>
</svg>
