<?xml version="1.0" encoding="UTF-8" standalone="no"?>
<!DOCTYPE svg PUBLIC "-//W3C//DTD SVG 1.1//EN"
 "http://www.w3.org/Graphics/SVG/1.1/DTD/svg11.dtd">
<!-- Generated by graphviz version 2.40.1 (20161225.0304)
 -->
<!-- Title: Handler Pages: 1 -->
<svg width="418pt" height="586pt"
 viewBox="0.00 0.00 417.53 586.00" xmlns="http://www.w3.org/2000/svg" xmlns:xlink="http://www.w3.org/1999/xlink">
<g id="graph0" class="graph" transform="scale(1 1) rotate(0) translate(4 582)">
<title>Handler</title>
<polygon fill="#ffffff" stroke="transparent" points="-4,4 -4,-582 413.5273,-582 413.5273,4 -4,4"/>
<!-- Node0 -->
<g id="node1" class="node">
<title>Node0</title>
<polygon fill="#bfbfbf" stroke="#000000" points="165.3403,-392.5 165.3403,-446.5 225.5249,-446.5 225.5249,-392.5 165.3403,-392.5"/>
<text text-anchor="middle" x="195.4326" y="-434.5" font-family="Helvetica,sans-Serif" font-size="10.00" fill="#000000">Handler</text>
<polyline fill="none" stroke="#000000" points="165.3403,-428.5 225.5249,-428.5 "/>
<text text-anchor="middle" x="195.4326" y="-416.5" font-family="Helvetica,sans-Serif" font-size="10.00" fill="#000000"> </text>
<polyline fill="none" stroke="#000000" points="165.3403,-410.5 225.5249,-410.5 "/>
<text text-anchor="start" x="173.3403" y="-398.5" font-family="Helvetica,sans-Serif" font-size="10.00" fill="#000000">+ invoke()</text>
</g>
<!-- Node2 -->
<g id="node3" class="node">
<title>Node2</title>
<g id="a_node3"><a xlink:href="../../d2/d88/interfaceAsyncWait.html" target="_top" xlink:title="消息处理器异步等待对象 ">
<polygon fill="#ffffff" stroke="#000000" points="0,-211.5 0,-265.5 62.8652,-265.5 62.8652,-211.5 0,-211.5"/>
<text text-anchor="middle" x="31.4326" y="-253.5" font-family="Helvetica,sans-Serif" font-size="10.00" fill="#000000">AsyncWait</text>
<polyline fill="none" stroke="#000000" points="0,-247.5 62.8652,-247.5 "/>
<text text-anchor="middle" x="31.4326" y="-235.5" font-family="Helvetica,sans-Serif" font-size="10.00" fill="#000000"> </text>
<polyline fill="none" stroke="#000000" points="0,-229.5 62.8652,-229.5 "/>
<text text-anchor="start" x="8" y="-217.5" font-family="Helvetica,sans-Serif" font-size="10.00" fill="#000000">+ end()</text>
</a>
</g>
</g>
<!-- Node0&#45;&gt;Node2 -->
<g id="edge2" class="edge">
<title>Node0&#45;&gt;Node2</title>
<path fill="none" stroke="#191970" d="M155.7857,-407.7202C128.9022,-397.8682 94.3929,-381.2935 72.4326,-356 50.0526,-330.2231 39.6802,-291.5064 35.0185,-265.6414"/>
<polygon fill="none" stroke="#191970" points="154.7129,-411.0528 165.3078,-411.0494 157.0233,-404.4451 154.7129,-411.0528"/>
</g>
<!-- Node3 -->
<g id="node4" class="node">
<title>Node3</title>
<g id="a_node4"><a xlink:href="../../d3/d78/interfaceChain.html" target="_top" xlink:title="消息处理器链处理对象 ">
<polygon fill="#ffffff" stroke="#000000" points="81.1089,-201.5 81.1089,-275.5 145.7563,-275.5 145.7563,-201.5 81.1089,-201.5"/>
<text text-anchor="middle" x="113.4326" y="-263.5" font-family="Helvetica,sans-Serif" font-size="10.00" fill="#000000">Chain</text>
<polyline fill="none" stroke="#000000" points="81.1089,-257.5 145.7563,-257.5 "/>
<text text-anchor="middle" x="113.4326" y="-245.5" font-family="Helvetica,sans-Serif" font-size="10.00" fill="#000000"> </text>
<polyline fill="none" stroke="#000000" points="81.1089,-239.5 145.7563,-239.5 "/>
<text text-anchor="start" x="89.1089" y="-227.5" font-family="Helvetica,sans-Serif" font-size="10.00" fill="#000000">+ Chain()</text>
<text text-anchor="start" x="89.1089" y="-217.5" font-family="Helvetica,sans-Serif" font-size="10.00" fill="#000000">+ append()</text>
<text text-anchor="start" x="89.1089" y="-207.5" font-family="Helvetica,sans-Serif" font-size="10.00" fill="#000000">+ append()</text>
</a>
</g>
</g>
<!-- Node0&#45;&gt;Node3 -->
<g id="edge3" class="edge">
<title>Node0&#45;&gt;Node3</title>
<path fill="none" stroke="#191970" d="M170.21,-383.6831C164.5951,-374.8662 158.9696,-365.2848 154.4326,-356 141.7693,-330.0851 131.1637,-299.245 123.9133,-275.664"/>
<polygon fill="none" stroke="#191970" points="167.3797,-385.7502 175.7807,-392.2058 173.2391,-381.9203 167.3797,-385.7502"/>
</g>
<!-- Node4 -->
<g id="node5" class="node">
<title>Node4</title>
<g id="a_node5"><a xlink:href="../../dc/de5/interfaceHandlerEx.html" target="_top" xlink:title="扩展消息处理器接口 ">
<polygon fill="#ffffff" stroke="#000000" points="163.6753,-206.5 163.6753,-270.5 227.1899,-270.5 227.1899,-206.5 163.6753,-206.5"/>
<text text-anchor="middle" x="195.4326" y="-258.5" font-family="Helvetica,sans-Serif" font-size="10.00" fill="#000000">HandlerEx</text>
<polyline fill="none" stroke="#000000" points="163.6753,-252.5 227.1899,-252.5 "/>
<text text-anchor="start" x="171.6753" y="-240.5" font-family="Helvetica,sans-Serif" font-size="10.00" fill="#000000">+ handler</text>
<text text-anchor="start" x="171.6753" y="-230.5" font-family="Helvetica,sans-Serif" font-size="10.00" fill="#000000">+ stats</text>
<polyline fill="none" stroke="#000000" points="163.6753,-224.5 227.1899,-224.5 "/>
<text text-anchor="start" x="171.6753" y="-212.5" font-family="Helvetica,sans-Serif" font-size="10.00" fill="#000000">+ onerror()</text>
</a>
</g>
</g>
<!-- Node0&#45;&gt;Node4 -->
<g id="edge4" class="edge">
<title>Node0&#45;&gt;Node4</title>
<path fill="none" stroke="#191970" d="M195.4326,-382.2781C195.4326,-349.3979 195.4326,-301.9472 195.4326,-270.6783"/>
<polygon fill="none" stroke="#191970" points="191.9327,-382.4024 195.4326,-392.4025 198.9327,-382.4025 191.9327,-382.4024"/>
</g>
<!-- Node7 -->
<g id="node8" class="node">
<title>Node7</title>
<g id="a_node8"><a xlink:href="../../df/dcb/interfaceRouting.html" target="_top" xlink:title="消息处理器路由对象 ">
<polygon fill="#ffffff" stroke="#000000" points="245.5596,-121.5 245.5596,-355.5 311.3057,-355.5 311.3057,-121.5 245.5596,-121.5"/>
<text text-anchor="middle" x="278.4326" y="-343.5" font-family="Helvetica,sans-Serif" font-size="10.00" fill="#000000">Routing</text>
<polyline fill="none" stroke="#000000" points="245.5596,-337.5 311.3057,-337.5 "/>
<text text-anchor="middle" x="278.4326" y="-325.5" font-family="Helvetica,sans-Serif" font-size="10.00" fill="#000000"> </text>
<polyline fill="none" stroke="#000000" points="245.5596,-319.5 311.3057,-319.5 "/>
<text text-anchor="start" x="253.5596" y="-307.5" font-family="Helvetica,sans-Serif" font-size="10.00" fill="#000000">+ Routing()</text>
<text text-anchor="start" x="253.5596" y="-297.5" font-family="Helvetica,sans-Serif" font-size="10.00" fill="#000000">+ Routing()</text>
<text text-anchor="start" x="253.5596" y="-287.5" font-family="Helvetica,sans-Serif" font-size="10.00" fill="#000000">+ append()</text>
<text text-anchor="start" x="253.5596" y="-277.5" font-family="Helvetica,sans-Serif" font-size="10.00" fill="#000000">+ append()</text>
<text text-anchor="start" x="253.5596" y="-267.5" font-family="Helvetica,sans-Serif" font-size="10.00" fill="#000000">+ append()</text>
<text text-anchor="start" x="253.5596" y="-257.5" font-family="Helvetica,sans-Serif" font-size="10.00" fill="#000000">+ append()</text>
<text text-anchor="start" x="253.5596" y="-247.5" font-family="Helvetica,sans-Serif" font-size="10.00" fill="#000000">+ append()</text>
<text text-anchor="start" x="253.5596" y="-237.5" font-family="Helvetica,sans-Serif" font-size="10.00" fill="#000000">+ all()</text>
<text text-anchor="start" x="253.5596" y="-227.5" font-family="Helvetica,sans-Serif" font-size="10.00" fill="#000000">+ all()</text>
<text text-anchor="start" x="253.5596" y="-217.5" font-family="Helvetica,sans-Serif" font-size="10.00" fill="#000000">+ get()</text>
<text text-anchor="start" x="253.5596" y="-207.5" font-family="Helvetica,sans-Serif" font-size="10.00" fill="#000000">+ get()</text>
<text text-anchor="start" x="253.5596" y="-197.5" font-family="Helvetica,sans-Serif" font-size="10.00" fill="#000000">+ post()</text>
<text text-anchor="start" x="253.5596" y="-187.5" font-family="Helvetica,sans-Serif" font-size="10.00" fill="#000000">+ post()</text>
<text text-anchor="start" x="253.5596" y="-177.5" font-family="Helvetica,sans-Serif" font-size="10.00" fill="#000000">+ del()</text>
<text text-anchor="start" x="253.5596" y="-167.5" font-family="Helvetica,sans-Serif" font-size="10.00" fill="#000000">+ del()</text>
<text text-anchor="start" x="253.5596" y="-157.5" font-family="Helvetica,sans-Serif" font-size="10.00" fill="#000000">+ put()</text>
<text text-anchor="start" x="253.5596" y="-147.5" font-family="Helvetica,sans-Serif" font-size="10.00" fill="#000000">+ put()</text>
<text text-anchor="start" x="253.5596" y="-137.5" font-family="Helvetica,sans-Serif" font-size="10.00" fill="#000000">+ patch()</text>
<text text-anchor="start" x="253.5596" y="-127.5" font-family="Helvetica,sans-Serif" font-size="10.00" fill="#000000">+ patch()</text>
</a>
</g>
</g>
<!-- Node0&#45;&gt;Node7 -->
<g id="edge7" class="edge">
<title>Node0&#45;&gt;Node7</title>
<path fill="none" stroke="#191970" d="M220.4443,-383.91C226.1141,-375.0247 231.817,-365.3558 236.4326,-356 239.5955,-349.5889 242.6409,-342.8781 245.5465,-336.0515"/>
<polygon fill="none" stroke="#191970" points="217.3744,-382.2093 214.8271,-392.4933 223.2317,-386.0424 217.3744,-382.2093"/>
</g>
<!-- Node8 -->
<g id="node9" class="node">
<title>Node8</title>
<g id="a_node9"><a xlink:href="../../df/dd8/interfaceSslHandler.html" target="_top" xlink:title="ssl 协议转换处理器 ">
<polygon fill="#ffffff" stroke="#000000" points="329.3379,-196.5 329.3379,-280.5 409.5273,-280.5 409.5273,-196.5 329.3379,-196.5"/>
<text text-anchor="middle" x="369.4326" y="-268.5" font-family="Helvetica,sans-Serif" font-size="10.00" fill="#000000">SslHandler</text>
<polyline fill="none" stroke="#000000" points="329.3379,-262.5 409.5273,-262.5 "/>
<text text-anchor="start" x="337.3379" y="-250.5" font-family="Helvetica,sans-Serif" font-size="10.00" fill="#000000">+ verification</text>
<text text-anchor="start" x="337.3379" y="-240.5" font-family="Helvetica,sans-Serif" font-size="10.00" fill="#000000">+ ca</text>
<text text-anchor="start" x="337.3379" y="-230.5" font-family="Helvetica,sans-Serif" font-size="10.00" fill="#000000">+ handler</text>
<polyline fill="none" stroke="#000000" points="329.3379,-224.5 409.5273,-224.5 "/>
<text text-anchor="start" x="337.3379" y="-212.5" font-family="Helvetica,sans-Serif" font-size="10.00" fill="#000000">+ SslHandler()</text>
<text text-anchor="start" x="337.3379" y="-202.5" font-family="Helvetica,sans-Serif" font-size="10.00" fill="#000000">+ SslHandler()</text>
</a>
</g>
</g>
<!-- Node0&#45;&gt;Node8 -->
<g id="edge8" class="edge">
<title>Node0&#45;&gt;Node8</title>
<path fill="none" stroke="#191970" d="M235.2527,-407.4578C262.3548,-397.4841 297.3579,-380.8719 320.4326,-356 339.9744,-334.9362 352.3048,-304.9652 359.7087,-280.5651"/>
<polygon fill="none" stroke="#191970" points="233.9317,-404.2122 225.6619,-410.8349 236.2567,-410.8148 233.9317,-404.2122"/>
</g>
<!-- Node1 -->
<g id="node2" class="node">
<title>Node1</title>
<g id="a_node2"><a xlink:href="../../db/d38/interfaceobject.html" target="_top" xlink:title="基础对象，所有对象均继承于此 ">
<polygon fill="#ffffff" stroke="#000000" points="162.2886,-483.5 162.2886,-577.5 228.5767,-577.5 228.5767,-483.5 162.2886,-483.5"/>
<text text-anchor="middle" x="195.4326" y="-565.5" font-family="Helvetica,sans-Serif" font-size="10.00" fill="#000000">object</text>
<polyline fill="none" stroke="#000000" points="162.2886,-559.5 228.5767,-559.5 "/>
<text text-anchor="middle" x="195.4326" y="-547.5" font-family="Helvetica,sans-Serif" font-size="10.00" fill="#000000"> </text>
<polyline fill="none" stroke="#000000" points="162.2886,-541.5 228.5767,-541.5 "/>
<text text-anchor="start" x="170.2886" y="-529.5" font-family="Helvetica,sans-Serif" font-size="10.00" fill="#000000">+ dispose()</text>
<text text-anchor="start" x="170.2886" y="-519.5" font-family="Helvetica,sans-Serif" font-size="10.00" fill="#000000">+ equals()</text>
<text text-anchor="start" x="170.2886" y="-509.5" font-family="Helvetica,sans-Serif" font-size="10.00" fill="#000000">+ toString()</text>
<text text-anchor="start" x="170.2886" y="-499.5" font-family="Helvetica,sans-Serif" font-size="10.00" fill="#000000">+ toJSON()</text>
<text text-anchor="start" x="170.2886" y="-489.5" font-family="Helvetica,sans-Serif" font-size="10.00" fill="#000000">+ valueOf()</text>
</a>
</g>
</g>
<!-- Node1&#45;&gt;Node0 -->
<g id="edge1" class="edge">
<title>Node1&#45;&gt;Node0</title>
<path fill="none" stroke="#191970" d="M195.4326,-473.3691C195.4326,-464.0775 195.4326,-454.8469 195.4326,-446.7203"/>
<polygon fill="none" stroke="#191970" points="191.9327,-473.426 195.4326,-483.426 198.9327,-473.426 191.9327,-473.426"/>
</g>
<!-- Node5 -->
<g id="node6" class="node">
<title>Node5</title>
<g id="a_node6"><a xlink:href="../../d6/d18/interfaceHttpHandler.html" target="_top" xlink:title="http 协议转换处理器 ">
<polygon fill="#ffffff" stroke="#000000" points="76.4365,-.5 76.4365,-84.5 184.4287,-84.5 184.4287,-.5 76.4365,-.5"/>
<text text-anchor="middle" x="130.4326" y="-72.5" font-family="Helvetica,sans-Serif" font-size="10.00" fill="#000000">HttpHandler</text>
<polyline fill="none" stroke="#000000" points="76.4365,-66.5 184.4287,-66.5 "/>
<text text-anchor="start" x="84.4365" y="-54.5" font-family="Helvetica,sans-Serif" font-size="10.00" fill="#000000">+ crossDomain</text>
<text text-anchor="start" x="84.4365" y="-44.5" font-family="Helvetica,sans-Serif" font-size="10.00" fill="#000000">+ forceGZIP</text>
<text text-anchor="start" x="84.4365" y="-34.5" font-family="Helvetica,sans-Serif" font-size="10.00" fill="#000000">+ maxHeadersCount</text>
<text text-anchor="start" x="84.4365" y="-24.5" font-family="Helvetica,sans-Serif" font-size="10.00" fill="#000000">+ maxUploadSize</text>
<polyline fill="none" stroke="#000000" points="76.4365,-18.5 184.4287,-18.5 "/>
<text text-anchor="start" x="84.4365" y="-6.5" font-family="Helvetica,sans-Serif" font-size="10.00" fill="#000000">+ HttpHandler()</text>
</a>
</g>
</g>
<!-- Node4&#45;&gt;Node5 -->
<g id="edge5" class="edge">
<title>Node4&#45;&gt;Node5</title>
<path fill="none" stroke="#191970" d="M181.4531,-196.3462C170.5301,-163.4092 155.4176,-117.8394 144.4779,-84.8518"/>
<polygon fill="none" stroke="#191970" points="178.2293,-197.7447 184.6992,-206.1346 184.8735,-195.5412 178.2293,-197.7447"/>
</g>
<!-- Node6 -->
<g id="node7" class="node">
<title>Node6</title>
<g id="a_node7"><a xlink:href="../../da/d20/interfaceWebSocketHandler.html" target="_top" xlink:title="WebSocket 包协议转换处理器 ">
<polygon fill="#ffffff" stroke="#000000" points="202.8052,-15.5 202.8052,-69.5 320.0601,-69.5 320.0601,-15.5 202.8052,-15.5"/>
<text text-anchor="middle" x="261.4326" y="-57.5" font-family="Helvetica,sans-Serif" font-size="10.00" fill="#000000">WebSocketHandler</text>
<polyline fill="none" stroke="#000000" points="202.8052,-51.5 320.0601,-51.5 "/>
<text text-anchor="start" x="210.8052" y="-39.5" font-family="Helvetica,sans-Serif" font-size="10.00" fill="#000000">+ maxSize</text>
<polyline fill="none" stroke="#000000" points="202.8052,-33.5 320.0601,-33.5 "/>
<text text-anchor="start" x="210.8052" y="-21.5" font-family="Helvetica,sans-Serif" font-size="10.00" fill="#000000">+ WebSocketHandler()</text>
</a>
</g>
</g>
<!-- Node4&#45;&gt;Node6 -->
<g id="edge6" class="edge">
<title>Node4&#45;&gt;Node6</title>
<path fill="none" stroke="#191970" d="M209.6512,-196.275C222.5872,-157.8591 241.2953,-102.3016 252.326,-69.544"/>
<polygon fill="none" stroke="#191970" points="206.2055,-195.5405 206.3312,-206.1346 212.8395,-197.7744 206.2055,-195.5405"/>
</g>
</g>
</svg>
