<?xml version="1.0" encoding="UTF-8" standalone="no"?>
<!DOCTYPE svg PUBLIC "-//W3C//DTD SVG 1.1//EN"
 "http://www.w3.org/Graphics/SVG/1.1/DTD/svg11.dtd">
<!-- Generated by graphviz version 2.38.0 (20140413.2041)
 -->
<!-- Title: Handler Pages: 1 -->
<svg width="597pt" height="335pt"
 viewBox="0.00 0.00 597.06 335.00" xmlns="http://www.w3.org/2000/svg" xmlns:xlink="http://www.w3.org/1999/xlink">
<g id="graph0" class="graph" transform="scale(1 1) rotate(0) translate(4 331)">
<title>Handler</title>
<polygon fill="white" stroke="none" points="-4,4 -4,-331 593.06,-331 593.06,4 -4,4"/>
<!-- Node1 -->
<g id="node1" class="node"><title>Node1</title>
<polygon fill="#bfbfbf" stroke="black" points="239.34,-151.5 239.34,-205.5 299.525,-205.5 299.525,-151.5 239.34,-151.5"/>
<text text-anchor="middle" x="269.433" y="-193.5" font-family="Helvetica,sans-Serif" font-size="10.00">Handler</text>
<polyline fill="none" stroke="black" points="239.34,-187.5 299.525,-187.5 "/>
<text text-anchor="middle" x="269.433" y="-175.5" font-family="Helvetica,sans-Serif" font-size="10.00"> </text>
<polyline fill="none" stroke="black" points="239.34,-169.5 299.525,-169.5 "/>
<text text-anchor="start" x="247.34" y="-157.5" font-family="Helvetica,sans-Serif" font-size="10.00">+ invoke()</text>
</g>
<!-- Node3 -->
<g id="node3" class="node"><title>Node3</title>
<g id="a_node3"><a xlink:href="../../d2/d88/interfaceAsyncWait.html" target="_top" xlink:title="消息处理器异步等待对象 ">
<polygon fill="white" stroke="black" points="0,-30.5 0,-84.5 62.8652,-84.5 62.8652,-30.5 0,-30.5"/>
<text text-anchor="middle" x="31.4326" y="-72.5" font-family="Helvetica,sans-Serif" font-size="10.00">AsyncWait</text>
<polyline fill="none" stroke="black" points="0,-66.5 62.8652,-66.5 "/>
<text text-anchor="middle" x="31.4326" y="-54.5" font-family="Helvetica,sans-Serif" font-size="10.00"> </text>
<polyline fill="none" stroke="black" points="0,-48.5 62.8652,-48.5 "/>
<text text-anchor="start" x="8" y="-36.5" font-family="Helvetica,sans-Serif" font-size="10.00">+ end()</text>
</a>
</g>
</g>
<!-- Node1&#45;&gt;Node3 -->
<g id="edge2" class="edge"><title>Node1&#45;&gt;Node3</title>
<path fill="none" stroke="midnightblue" d="M229.146,-172.306C186.802,-165.217 119.875,-149.238 72.4326,-115 61.524,-107.127 52.3671,-95.4596 45.4936,-84.7679"/>
<polygon fill="none" stroke="midnightblue" points="228.67,-175.774 239.094,-173.884 229.766,-168.861 228.67,-175.774"/>
</g>
<!-- Node4 -->
<g id="node4" class="node"><title>Node4</title>
<g id="a_node4"><a xlink:href="../../d3/d78/interfaceChain.html" target="_top" xlink:title="消息处理器链处理对象 ">
<polygon fill="white" stroke="black" points="81.1089,-20.5 81.1089,-94.5 145.756,-94.5 145.756,-20.5 81.1089,-20.5"/>
<text text-anchor="middle" x="113.433" y="-82.5" font-family="Helvetica,sans-Serif" font-size="10.00">Chain</text>
<polyline fill="none" stroke="black" points="81.1089,-76.5 145.756,-76.5 "/>
<text text-anchor="middle" x="113.433" y="-64.5" font-family="Helvetica,sans-Serif" font-size="10.00"> </text>
<polyline fill="none" stroke="black" points="81.1089,-58.5 145.756,-58.5 "/>
<text text-anchor="start" x="89.1089" y="-46.5" font-family="Helvetica,sans-Serif" font-size="10.00">+ Chain()</text>
<text text-anchor="start" x="89.1089" y="-36.5" font-family="Helvetica,sans-Serif" font-size="10.00">+ append()</text>
<text text-anchor="start" x="89.1089" y="-26.5" font-family="Helvetica,sans-Serif" font-size="10.00">+ append()</text>
</a>
</g>
</g>
<!-- Node1&#45;&gt;Node4 -->
<g id="edge3" class="edge"><title>Node1&#45;&gt;Node4</title>
<path fill="none" stroke="midnightblue" d="M229.931,-161.384C206.373,-150.533 176.796,-134.632 154.433,-115 147.693,-109.083 141.423,-101.866 135.916,-94.595"/>
<polygon fill="none" stroke="midnightblue" points="228.734,-164.683 239.291,-165.578 231.597,-158.295 228.734,-164.683"/>
</g>
<!-- Node5 -->
<g id="node5" class="node"><title>Node5</title>
<g id="a_node5"><a xlink:href="../../d6/d18/interfaceHttpHandler.html" target="_top" xlink:title="http 协议转换处理器 ">
<polygon fill="white" stroke="black" points="163.437,-0.5 163.437,-114.5 271.429,-114.5 271.429,-0.5 163.437,-0.5"/>
<text text-anchor="middle" x="217.433" y="-102.5" font-family="Helvetica,sans-Serif" font-size="10.00">HttpHandler</text>
<polyline fill="none" stroke="black" points="163.437,-96.5 271.429,-96.5 "/>
<text text-anchor="start" x="171.437" y="-84.5" font-family="Helvetica,sans-Serif" font-size="10.00">+ crossDomain</text>
<text text-anchor="start" x="171.437" y="-74.5" font-family="Helvetica,sans-Serif" font-size="10.00">+ forceGZIP</text>
<text text-anchor="start" x="171.437" y="-64.5" font-family="Helvetica,sans-Serif" font-size="10.00">+ maxHeadersCount</text>
<text text-anchor="start" x="171.437" y="-54.5" font-family="Helvetica,sans-Serif" font-size="10.00">+ maxUploadSize</text>
<text text-anchor="start" x="171.437" y="-44.5" font-family="Helvetica,sans-Serif" font-size="10.00">+ handler</text>
<text text-anchor="start" x="171.437" y="-34.5" font-family="Helvetica,sans-Serif" font-size="10.00">+ stats</text>
<polyline fill="none" stroke="black" points="163.437,-28.5 271.429,-28.5 "/>
<text text-anchor="start" x="171.437" y="-16.5" font-family="Helvetica,sans-Serif" font-size="10.00">+ HttpHandler()</text>
<text text-anchor="start" x="171.437" y="-6.5" font-family="Helvetica,sans-Serif" font-size="10.00">+ onerror()</text>
</a>
</g>
</g>
<!-- Node1&#45;&gt;Node5 -->
<g id="edge4" class="edge"><title>Node1&#45;&gt;Node5</title>
<path fill="none" stroke="midnightblue" d="M253.954,-142.078C250.201,-133.489 246.096,-124.095 242.037,-114.805"/>
<polygon fill="none" stroke="midnightblue" points="250.81,-143.623 258.021,-151.385 257.224,-140.82 250.81,-143.623"/>
</g>
<!-- Node6 -->
<g id="node6" class="node"><title>Node6</title>
<g id="a_node6"><a xlink:href="../../df/dcb/interfaceRouting.html" target="_top" xlink:title="消息处理器路由对象 ">
<polygon fill="white" stroke="black" points="289.56,-20.5 289.56,-94.5 355.306,-94.5 355.306,-20.5 289.56,-20.5"/>
<text text-anchor="middle" x="322.433" y="-82.5" font-family="Helvetica,sans-Serif" font-size="10.00">Routing</text>
<polyline fill="none" stroke="black" points="289.56,-76.5 355.306,-76.5 "/>
<text text-anchor="middle" x="322.433" y="-64.5" font-family="Helvetica,sans-Serif" font-size="10.00"> </text>
<polyline fill="none" stroke="black" points="289.56,-58.5 355.306,-58.5 "/>
<text text-anchor="start" x="297.56" y="-46.5" font-family="Helvetica,sans-Serif" font-size="10.00">+ Routing()</text>
<text text-anchor="start" x="297.56" y="-36.5" font-family="Helvetica,sans-Serif" font-size="10.00">+ append()</text>
<text text-anchor="start" x="297.56" y="-26.5" font-family="Helvetica,sans-Serif" font-size="10.00">+ append()</text>
</a>
</g>
</g>
<!-- Node1&#45;&gt;Node6 -->
<g id="edge5" class="edge"><title>Node1&#45;&gt;Node6</title>
<path fill="none" stroke="midnightblue" d="M285.237,-142.015C291.855,-127.156 299.542,-109.895 306.205,-94.9354"/>
<polygon fill="none" stroke="midnightblue" points="281.935,-140.826 281.064,-151.385 288.329,-143.674 281.935,-140.826"/>
</g>
<!-- Node7 -->
<g id="node7" class="node"><title>Node7</title>
<g id="a_node7"><a xlink:href="../../df/dd8/interfaceSslHandler.html" target="_top" xlink:title="ssl 协议转换处理器 ">
<polygon fill="white" stroke="black" points="373.338,-15.5 373.338,-99.5 453.527,-99.5 453.527,-15.5 373.338,-15.5"/>
<text text-anchor="middle" x="413.433" y="-87.5" font-family="Helvetica,sans-Serif" font-size="10.00">SslHandler</text>
<polyline fill="none" stroke="black" points="373.338,-81.5 453.527,-81.5 "/>
<text text-anchor="start" x="381.338" y="-69.5" font-family="Helvetica,sans-Serif" font-size="10.00">+ verification</text>
<text text-anchor="start" x="381.338" y="-59.5" font-family="Helvetica,sans-Serif" font-size="10.00">+ ca</text>
<text text-anchor="start" x="381.338" y="-49.5" font-family="Helvetica,sans-Serif" font-size="10.00">+ handler</text>
<polyline fill="none" stroke="black" points="373.338,-43.5 453.527,-43.5 "/>
<text text-anchor="start" x="381.338" y="-31.5" font-family="Helvetica,sans-Serif" font-size="10.00">+ SslHandler()</text>
<text text-anchor="start" x="381.338" y="-21.5" font-family="Helvetica,sans-Serif" font-size="10.00">+ SslHandler()</text>
</a>
</g>
</g>
<!-- Node1&#45;&gt;Node7 -->
<g id="edge6" class="edge"><title>Node1&#45;&gt;Node7</title>
<path fill="none" stroke="midnightblue" d="M308.617,-155.105C326.46,-144.077 347.357,-129.951 364.433,-115 369.805,-110.296 375.131,-105.005 380.183,-99.5969"/>
<polygon fill="none" stroke="midnightblue" points="306.333,-152.397 299.601,-160.578 309.965,-158.381 306.333,-152.397"/>
</g>
<!-- Node8 -->
<g id="node8" class="node"><title>Node8</title>
<g id="a_node8"><a xlink:href="../../da/d20/interfaceWebSocketHandler.html" target="_top" xlink:title="WebSocket 包协议转换处理器 ">
<polygon fill="white" stroke="black" points="471.805,-20.5 471.805,-94.5 589.06,-94.5 589.06,-20.5 471.805,-20.5"/>
<text text-anchor="middle" x="530.433" y="-82.5" font-family="Helvetica,sans-Serif" font-size="10.00">WebSocketHandler</text>
<polyline fill="none" stroke="black" points="471.805,-76.5 589.06,-76.5 "/>
<text text-anchor="start" x="479.805" y="-64.5" font-family="Helvetica,sans-Serif" font-size="10.00">+ maxSize</text>
<text text-anchor="start" x="479.805" y="-54.5" font-family="Helvetica,sans-Serif" font-size="10.00">+ handler</text>
<text text-anchor="start" x="479.805" y="-44.5" font-family="Helvetica,sans-Serif" font-size="10.00">+ stats</text>
<polyline fill="none" stroke="black" points="471.805,-38.5 589.06,-38.5 "/>
<text text-anchor="start" x="479.805" y="-26.5" font-family="Helvetica,sans-Serif" font-size="10.00">+ WebSocketHandler()</text>
</a>
</g>
</g>
<!-- Node1&#45;&gt;Node8 -->
<g id="edge7" class="edge"><title>Node1&#45;&gt;Node8</title>
<path fill="none" stroke="midnightblue" d="M309.623,-169.201C349.965,-159.811 413.046,-142.188 462.433,-115 472.652,-109.374 482.796,-102.109 492.01,-94.6741"/>
<polygon fill="none" stroke="midnightblue" points="308.607,-165.843 299.628,-171.467 310.155,-172.669 308.607,-165.843"/>
</g>
<!-- Node2 -->
<g id="node2" class="node"><title>Node2</title>
<g id="a_node2"><a xlink:href="../../db/d38/interfaceobject.html" target="_top" xlink:title="基础对象，所有对象均继承于此 ">
<polygon fill="white" stroke="black" points="236.289,-242.5 236.289,-326.5 302.577,-326.5 302.577,-242.5 236.289,-242.5"/>
<text text-anchor="middle" x="269.433" y="-314.5" font-family="Helvetica,sans-Serif" font-size="10.00">object</text>
<polyline fill="none" stroke="black" points="236.289,-308.5 302.577,-308.5 "/>
<text text-anchor="middle" x="269.433" y="-296.5" font-family="Helvetica,sans-Serif" font-size="10.00"> </text>
<polyline fill="none" stroke="black" points="236.289,-290.5 302.577,-290.5 "/>
<text text-anchor="start" x="244.289" y="-278.5" font-family="Helvetica,sans-Serif" font-size="10.00">+ dispose()</text>
<text text-anchor="start" x="244.289" y="-268.5" font-family="Helvetica,sans-Serif" font-size="10.00">+ toString()</text>
<text text-anchor="start" x="244.289" y="-258.5" font-family="Helvetica,sans-Serif" font-size="10.00">+ toJSON()</text>
<text text-anchor="start" x="244.289" y="-248.5" font-family="Helvetica,sans-Serif" font-size="10.00">+ valueOf()</text>
</a>
</g>
</g>
<!-- Node2&#45;&gt;Node1 -->
<g id="edge1" class="edge"><title>Node2&#45;&gt;Node1</title>
<path fill="none" stroke="midnightblue" d="M269.433,-232.111C269.433,-222.937 269.433,-213.738 269.433,-205.655"/>
<polygon fill="none" stroke="midnightblue" points="265.933,-232.396 269.433,-242.396 272.933,-232.396 265.933,-232.396"/>
</g>
</g>
</svg>
