<?xml version="1.0" encoding="UTF-8" standalone="no"?>
<!DOCTYPE svg PUBLIC "-//W3C//DTD SVG 1.1//EN"
 "http://www.w3.org/Graphics/SVG/1.1/DTD/svg11.dtd">
<!-- Generated by graphviz version 2.38.0 (20140413.2041)
 -->
<!-- Title: Handler Pages: 1 -->
<svg width="418pt" height="546pt"
 viewBox="0.00 0.00 417.53 546.00" xmlns="http://www.w3.org/2000/svg" xmlns:xlink="http://www.w3.org/1999/xlink">
<g id="graph0" class="graph" transform="scale(1 1) rotate(0) translate(4 542)">
<title>Handler</title>
<polygon fill="white" stroke="none" points="-4,4 -4,-542 413.527,-542 413.527,4 -4,4"/>
<!-- Node1 -->
<g id="node1" class="node"><title>Node1</title>
<polygon fill="#bfbfbf" stroke="black" points="165.34,-352.5 165.34,-406.5 225.525,-406.5 225.525,-352.5 165.34,-352.5"/>
<text text-anchor="middle" x="195.433" y="-394.5" font-family="Helvetica,sans-Serif" font-size="10.00">Handler</text>
<polyline fill="none" stroke="black" points="165.34,-388.5 225.525,-388.5 "/>
<text text-anchor="middle" x="195.433" y="-376.5" font-family="Helvetica,sans-Serif" font-size="10.00"> </text>
<polyline fill="none" stroke="black" points="165.34,-370.5 225.525,-370.5 "/>
<text text-anchor="start" x="173.34" y="-358.5" font-family="Helvetica,sans-Serif" font-size="10.00">+ invoke()</text>
</g>
<!-- Node3 -->
<g id="node3" class="node"><title>Node3</title>
<g id="a_node3"><a xlink:href="../../d2/d88/interfaceAsyncWait.html" target="_top" xlink:title="消息处理器异步等待对象 ">
<polygon fill="white" stroke="black" points="0,-191.5 0,-245.5 62.8652,-245.5 62.8652,-191.5 0,-191.5"/>
<text text-anchor="middle" x="31.4326" y="-233.5" font-family="Helvetica,sans-Serif" font-size="10.00">AsyncWait</text>
<polyline fill="none" stroke="black" points="0,-227.5 62.8652,-227.5 "/>
<text text-anchor="middle" x="31.4326" y="-215.5" font-family="Helvetica,sans-Serif" font-size="10.00"> </text>
<polyline fill="none" stroke="black" points="0,-209.5 62.8652,-209.5 "/>
<text text-anchor="start" x="8" y="-197.5" font-family="Helvetica,sans-Serif" font-size="10.00">+ end()</text>
</a>
</g>
</g>
<!-- Node1&#45;&gt;Node3 -->
<g id="edge2" class="edge"><title>Node1&#45;&gt;Node3</title>
<path fill="none" stroke="midnightblue" d="M155.439,-366.278C128.917,-356.406 94.9746,-340.138 72.4326,-316 53.9209,-296.177 43.0688,-266.739 37.2311,-245.594"/>
<polygon fill="none" stroke="midnightblue" points="154.606,-369.697 165.201,-369.752 156.953,-363.102 154.606,-369.697"/>
</g>
<!-- Node4 -->
<g id="node4" class="node"><title>Node4</title>
<g id="a_node4"><a xlink:href="../../d3/d78/interfaceChain.html" target="_top" xlink:title="消息处理器链处理对象 ">
<polygon fill="white" stroke="black" points="81.1089,-181.5 81.1089,-255.5 145.756,-255.5 145.756,-181.5 81.1089,-181.5"/>
<text text-anchor="middle" x="113.433" y="-243.5" font-family="Helvetica,sans-Serif" font-size="10.00">Chain</text>
<polyline fill="none" stroke="black" points="81.1089,-237.5 145.756,-237.5 "/>
<text text-anchor="middle" x="113.433" y="-225.5" font-family="Helvetica,sans-Serif" font-size="10.00"> </text>
<polyline fill="none" stroke="black" points="81.1089,-219.5 145.756,-219.5 "/>
<text text-anchor="start" x="89.1089" y="-207.5" font-family="Helvetica,sans-Serif" font-size="10.00">+ Chain()</text>
<text text-anchor="start" x="89.1089" y="-197.5" font-family="Helvetica,sans-Serif" font-size="10.00">+ append()</text>
<text text-anchor="start" x="89.1089" y="-187.5" font-family="Helvetica,sans-Serif" font-size="10.00">+ append()</text>
</a>
</g>
</g>
<!-- Node1&#45;&gt;Node4 -->
<g id="edge3" class="edge"><title>Node1&#45;&gt;Node4</title>
<path fill="none" stroke="midnightblue" d="M171.099,-343.806C165.316,-334.929 159.39,-325.269 154.433,-316 144.044,-296.578 134.316,-273.958 126.946,-255.501"/>
<polygon fill="none" stroke="midnightblue" points="168.346,-345.985 176.795,-352.377 174.176,-342.111 168.346,-345.985"/>
</g>
<!-- Node5 -->
<g id="node5" class="node"><title>Node5</title>
<g id="a_node5"><a xlink:href="../../dc/de5/interfaceHandlerEx.html" target="_top" xlink:title="扩展消息处理器接口 ">
<polygon fill="white" stroke="black" points="163.675,-186.5 163.675,-250.5 227.19,-250.5 227.19,-186.5 163.675,-186.5"/>
<text text-anchor="middle" x="195.433" y="-238.5" font-family="Helvetica,sans-Serif" font-size="10.00">HandlerEx</text>
<polyline fill="none" stroke="black" points="163.675,-232.5 227.19,-232.5 "/>
<text text-anchor="start" x="171.675" y="-220.5" font-family="Helvetica,sans-Serif" font-size="10.00">+ handler</text>
<text text-anchor="start" x="171.675" y="-210.5" font-family="Helvetica,sans-Serif" font-size="10.00">+ stats</text>
<polyline fill="none" stroke="black" points="163.675,-204.5 227.19,-204.5 "/>
<text text-anchor="start" x="171.675" y="-192.5" font-family="Helvetica,sans-Serif" font-size="10.00">+ onerror()</text>
</a>
</g>
</g>
<!-- Node1&#45;&gt;Node5 -->
<g id="edge4" class="edge"><title>Node1&#45;&gt;Node5</title>
<path fill="none" stroke="midnightblue" d="M195.433,-342.194C195.433,-314.581 195.433,-276.983 195.433,-250.712"/>
<polygon fill="none" stroke="midnightblue" points="191.933,-342.244 195.433,-352.244 198.933,-342.244 191.933,-342.244"/>
</g>
<!-- Node8 -->
<g id="node8" class="node"><title>Node8</title>
<g id="a_node8"><a xlink:href="../../df/dcb/interfaceRouting.html" target="_top" xlink:title="消息处理器路由对象 ">
<polygon fill="white" stroke="black" points="245.56,-121.5 245.56,-315.5 311.306,-315.5 311.306,-121.5 245.56,-121.5"/>
<text text-anchor="middle" x="278.433" y="-303.5" font-family="Helvetica,sans-Serif" font-size="10.00">Routing</text>
<polyline fill="none" stroke="black" points="245.56,-297.5 311.306,-297.5 "/>
<text text-anchor="middle" x="278.433" y="-285.5" font-family="Helvetica,sans-Serif" font-size="10.00"> </text>
<polyline fill="none" stroke="black" points="245.56,-279.5 311.306,-279.5 "/>
<text text-anchor="start" x="253.56" y="-267.5" font-family="Helvetica,sans-Serif" font-size="10.00">+ Routing()</text>
<text text-anchor="start" x="253.56" y="-257.5" font-family="Helvetica,sans-Serif" font-size="10.00">+ Routing()</text>
<text text-anchor="start" x="253.56" y="-247.5" font-family="Helvetica,sans-Serif" font-size="10.00">+ append()</text>
<text text-anchor="start" x="253.56" y="-237.5" font-family="Helvetica,sans-Serif" font-size="10.00">+ append()</text>
<text text-anchor="start" x="253.56" y="-227.5" font-family="Helvetica,sans-Serif" font-size="10.00">+ append()</text>
<text text-anchor="start" x="253.56" y="-217.5" font-family="Helvetica,sans-Serif" font-size="10.00">+ append()</text>
<text text-anchor="start" x="253.56" y="-207.5" font-family="Helvetica,sans-Serif" font-size="10.00">+ append()</text>
<text text-anchor="start" x="253.56" y="-197.5" font-family="Helvetica,sans-Serif" font-size="10.00">+ all()</text>
<text text-anchor="start" x="253.56" y="-187.5" font-family="Helvetica,sans-Serif" font-size="10.00">+ all()</text>
<text text-anchor="start" x="253.56" y="-177.5" font-family="Helvetica,sans-Serif" font-size="10.00">+ get()</text>
<text text-anchor="start" x="253.56" y="-167.5" font-family="Helvetica,sans-Serif" font-size="10.00">+ get()</text>
<text text-anchor="start" x="253.56" y="-157.5" font-family="Helvetica,sans-Serif" font-size="10.00">+ post()</text>
<text text-anchor="start" x="253.56" y="-147.5" font-family="Helvetica,sans-Serif" font-size="10.00">+ post()</text>
<text text-anchor="start" x="253.56" y="-137.5" font-family="Helvetica,sans-Serif" font-size="10.00">+ put()</text>
<text text-anchor="start" x="253.56" y="-127.5" font-family="Helvetica,sans-Serif" font-size="10.00">+ put()</text>
</a>
</g>
</g>
<!-- Node1&#45;&gt;Node8 -->
<g id="edge7" class="edge"><title>Node1&#45;&gt;Node8</title>
<path fill="none" stroke="midnightblue" d="M219.709,-343.775C225.494,-334.899 231.434,-325.247 236.433,-316 239.517,-310.294 242.554,-304.315 245.496,-298.248"/>
<polygon fill="none" stroke="midnightblue" points="216.632,-342.081 214.016,-352.348 222.464,-345.954 216.632,-342.081"/>
</g>
<!-- Node9 -->
<g id="node9" class="node"><title>Node9</title>
<g id="a_node9"><a xlink:href="../../df/dd8/interfaceSslHandler.html" target="_top" xlink:title="ssl 协议转换处理器 ">
<polygon fill="white" stroke="black" points="329.338,-176.5 329.338,-260.5 409.527,-260.5 409.527,-176.5 329.338,-176.5"/>
<text text-anchor="middle" x="369.433" y="-248.5" font-family="Helvetica,sans-Serif" font-size="10.00">SslHandler</text>
<polyline fill="none" stroke="black" points="329.338,-242.5 409.527,-242.5 "/>
<text text-anchor="start" x="337.338" y="-230.5" font-family="Helvetica,sans-Serif" font-size="10.00">+ verification</text>
<text text-anchor="start" x="337.338" y="-220.5" font-family="Helvetica,sans-Serif" font-size="10.00">+ ca</text>
<text text-anchor="start" x="337.338" y="-210.5" font-family="Helvetica,sans-Serif" font-size="10.00">+ handler</text>
<polyline fill="none" stroke="black" points="329.338,-204.5 409.527,-204.5 "/>
<text text-anchor="start" x="337.338" y="-192.5" font-family="Helvetica,sans-Serif" font-size="10.00">+ SslHandler()</text>
<text text-anchor="start" x="337.338" y="-182.5" font-family="Helvetica,sans-Serif" font-size="10.00">+ SslHandler()</text>
</a>
</g>
</g>
<!-- Node1&#45;&gt;Node9 -->
<g id="edge8" class="edge"><title>Node1&#45;&gt;Node9</title>
<path fill="none" stroke="midnightblue" d="M235.2,-366.056C261.969,-356.037 296.599,-339.687 320.433,-316 335.892,-300.636 347.402,-279.382 355.368,-260.73"/>
<polygon fill="none" stroke="midnightblue" points="233.953,-362.785 225.728,-369.462 236.322,-369.371 233.953,-362.785"/>
</g>
<!-- Node2 -->
<g id="node2" class="node"><title>Node2</title>
<g id="a_node2"><a xlink:href="../../db/d38/interfaceobject.html" target="_top" xlink:title="基础对象，所有对象均继承于此 ">
<polygon fill="white" stroke="black" points="162.289,-443.5 162.289,-537.5 228.577,-537.5 228.577,-443.5 162.289,-443.5"/>
<text text-anchor="middle" x="195.433" y="-525.5" font-family="Helvetica,sans-Serif" font-size="10.00">object</text>
<polyline fill="none" stroke="black" points="162.289,-519.5 228.577,-519.5 "/>
<text text-anchor="middle" x="195.433" y="-507.5" font-family="Helvetica,sans-Serif" font-size="10.00"> </text>
<polyline fill="none" stroke="black" points="162.289,-501.5 228.577,-501.5 "/>
<text text-anchor="start" x="170.289" y="-489.5" font-family="Helvetica,sans-Serif" font-size="10.00">+ dispose()</text>
<text text-anchor="start" x="170.289" y="-479.5" font-family="Helvetica,sans-Serif" font-size="10.00">+ equals()</text>
<text text-anchor="start" x="170.289" y="-469.5" font-family="Helvetica,sans-Serif" font-size="10.00">+ toString()</text>
<text text-anchor="start" x="170.289" y="-459.5" font-family="Helvetica,sans-Serif" font-size="10.00">+ toJSON()</text>
<text text-anchor="start" x="170.289" y="-449.5" font-family="Helvetica,sans-Serif" font-size="10.00">+ valueOf()</text>
</a>
</g>
</g>
<!-- Node2&#45;&gt;Node1 -->
<g id="edge1" class="edge"><title>Node2&#45;&gt;Node1</title>
<path fill="none" stroke="midnightblue" d="M195.433,-433.212C195.433,-423.916 195.433,-414.69 195.433,-406.617"/>
<polygon fill="none" stroke="midnightblue" points="191.933,-433.274 195.433,-443.274 198.933,-433.274 191.933,-433.274"/>
</g>
<!-- Node6 -->
<g id="node6" class="node"><title>Node6</title>
<g id="a_node6"><a xlink:href="../../d6/d18/interfaceHttpHandler.html" target="_top" xlink:title="http 协议转换处理器 ">
<polygon fill="white" stroke="black" points="76.4365,-0.5 76.4365,-84.5 184.429,-84.5 184.429,-0.5 76.4365,-0.5"/>
<text text-anchor="middle" x="130.433" y="-72.5" font-family="Helvetica,sans-Serif" font-size="10.00">HttpHandler</text>
<polyline fill="none" stroke="black" points="76.4365,-66.5 184.429,-66.5 "/>
<text text-anchor="start" x="84.4365" y="-54.5" font-family="Helvetica,sans-Serif" font-size="10.00">+ crossDomain</text>
<text text-anchor="start" x="84.4365" y="-44.5" font-family="Helvetica,sans-Serif" font-size="10.00">+ forceGZIP</text>
<text text-anchor="start" x="84.4365" y="-34.5" font-family="Helvetica,sans-Serif" font-size="10.00">+ maxHeadersCount</text>
<text text-anchor="start" x="84.4365" y="-24.5" font-family="Helvetica,sans-Serif" font-size="10.00">+ maxUploadSize</text>
<polyline fill="none" stroke="black" points="76.4365,-18.5 184.429,-18.5 "/>
<text text-anchor="start" x="84.4365" y="-6.5" font-family="Helvetica,sans-Serif" font-size="10.00">+ HttpHandler()</text>
</a>
</g>
</g>
<!-- Node5&#45;&gt;Node6 -->
<g id="edge5" class="edge"><title>Node5&#45;&gt;Node6</title>
<path fill="none" stroke="midnightblue" d="M180.301,-176.994C169.952,-149.29 156.276,-112.681 145.864,-84.8079"/>
<polygon fill="none" stroke="midnightblue" points="177.034,-178.249 183.812,-186.392 183.591,-175.8 177.034,-178.249"/>
</g>
<!-- Node7 -->
<g id="node7" class="node"><title>Node7</title>
<g id="a_node7"><a xlink:href="../../da/d20/interfaceWebSocketHandler.html" target="_top" xlink:title="WebSocket 包协议转换处理器 ">
<polygon fill="white" stroke="black" points="202.805,-15.5 202.805,-69.5 320.06,-69.5 320.06,-15.5 202.805,-15.5"/>
<text text-anchor="middle" x="261.433" y="-57.5" font-family="Helvetica,sans-Serif" font-size="10.00">WebSocketHandler</text>
<polyline fill="none" stroke="black" points="202.805,-51.5 320.06,-51.5 "/>
<text text-anchor="start" x="210.805" y="-39.5" font-family="Helvetica,sans-Serif" font-size="10.00">+ maxSize</text>
<polyline fill="none" stroke="black" points="202.805,-33.5 320.06,-33.5 "/>
<text text-anchor="start" x="210.805" y="-21.5" font-family="Helvetica,sans-Serif" font-size="10.00">+ WebSocketHandler()</text>
</a>
</g>
</g>
<!-- Node5&#45;&gt;Node7 -->
<g id="edge6" class="edge"><title>Node5&#45;&gt;Node7</title>
<path fill="none" stroke="midnightblue" d="M210.803,-176.977C223.377,-143.829 240.784,-97.9375 251.565,-69.5158"/>
<polygon fill="none" stroke="midnightblue" points="207.506,-175.801 207.232,-186.392 214.051,-178.284 207.506,-175.801"/>
</g>
</g>
</svg>
