<?xml version="1.0" encoding="UTF-8" standalone="no"?>
<!DOCTYPE svg PUBLIC "-//W3C//DTD SVG 1.1//EN"
 "http://www.w3.org/Graphics/SVG/1.1/DTD/svg11.dtd">
<!-- Generated by graphviz version 2.38.0 (20140413.2041)
 -->
<!-- Title: Handler Pages: 1 -->
<svg width="418pt" height="516pt"
 viewBox="0.00 0.00 417.53 516.00" xmlns="http://www.w3.org/2000/svg" xmlns:xlink="http://www.w3.org/1999/xlink">
<g id="graph0" class="graph" transform="scale(1 1) rotate(0) translate(4 512)">
<title>Handler</title>
<polygon fill="white" stroke="none" points="-4,4 -4,-512 413.527,-512 413.527,4 -4,4"/>
<!-- Node1 -->
<g id="node1" class="node"><title>Node1</title>
<polygon fill="#bfbfbf" stroke="black" points="165.34,-322.5 165.34,-376.5 225.525,-376.5 225.525,-322.5 165.34,-322.5"/>
<text text-anchor="middle" x="195.433" y="-364.5" font-family="Helvetica,sans-Serif" font-size="10.00">Handler</text>
<polyline fill="none" stroke="black" points="165.34,-358.5 225.525,-358.5 "/>
<text text-anchor="middle" x="195.433" y="-346.5" font-family="Helvetica,sans-Serif" font-size="10.00"> </text>
<polyline fill="none" stroke="black" points="165.34,-340.5 225.525,-340.5 "/>
<text text-anchor="start" x="173.34" y="-328.5" font-family="Helvetica,sans-Serif" font-size="10.00">+ invoke()</text>
</g>
<!-- Node3 -->
<g id="node3" class="node"><title>Node3</title>
<g id="a_node3"><a xlink:href="../../d2/d88/interfaceAsyncWait.html" target="_top" xlink:title="消息处理器异步等待对象 ">
<polygon fill="white" stroke="black" points="0,-176.5 0,-230.5 62.8652,-230.5 62.8652,-176.5 0,-176.5"/>
<text text-anchor="middle" x="31.4326" y="-218.5" font-family="Helvetica,sans-Serif" font-size="10.00">AsyncWait</text>
<polyline fill="none" stroke="black" points="0,-212.5 62.8652,-212.5 "/>
<text text-anchor="middle" x="31.4326" y="-200.5" font-family="Helvetica,sans-Serif" font-size="10.00"> </text>
<polyline fill="none" stroke="black" points="0,-194.5 62.8652,-194.5 "/>
<text text-anchor="start" x="8" y="-182.5" font-family="Helvetica,sans-Serif" font-size="10.00">+ end()</text>
</a>
</g>
</g>
<!-- Node1&#45;&gt;Node3 -->
<g id="edge2" class="edge"><title>Node1&#45;&gt;Node3</title>
<path fill="none" stroke="midnightblue" d="M155.673,-335.71C129.404,-325.62 95.6644,-309.326 72.4326,-286 57.0081,-270.513 46.299,-248.04 39.7037,-230.613"/>
<polygon fill="none" stroke="midnightblue" points="154.744,-339.098 165.337,-339.275 157.167,-332.53 154.744,-339.098"/>
</g>
<!-- Node4 -->
<g id="node4" class="node"><title>Node4</title>
<g id="a_node4"><a xlink:href="../../d3/d78/interfaceChain.html" target="_top" xlink:title="消息处理器链处理对象 ">
<polygon fill="white" stroke="black" points="81.1089,-166.5 81.1089,-240.5 145.756,-240.5 145.756,-166.5 81.1089,-166.5"/>
<text text-anchor="middle" x="113.433" y="-228.5" font-family="Helvetica,sans-Serif" font-size="10.00">Chain</text>
<polyline fill="none" stroke="black" points="81.1089,-222.5 145.756,-222.5 "/>
<text text-anchor="middle" x="113.433" y="-210.5" font-family="Helvetica,sans-Serif" font-size="10.00"> </text>
<polyline fill="none" stroke="black" points="81.1089,-204.5 145.756,-204.5 "/>
<text text-anchor="start" x="89.1089" y="-192.5" font-family="Helvetica,sans-Serif" font-size="10.00">+ Chain()</text>
<text text-anchor="start" x="89.1089" y="-182.5" font-family="Helvetica,sans-Serif" font-size="10.00">+ append()</text>
<text text-anchor="start" x="89.1089" y="-172.5" font-family="Helvetica,sans-Serif" font-size="10.00">+ append()</text>
</a>
</g>
</g>
<!-- Node1&#45;&gt;Node4 -->
<g id="edge3" class="edge"><title>Node1&#45;&gt;Node4</title>
<path fill="none" stroke="midnightblue" d="M171.857,-314.101C165.958,-305.084 159.79,-295.285 154.433,-286 146.042,-271.458 137.57,-254.986 130.523,-240.675"/>
<polygon fill="none" stroke="midnightblue" points="168.955,-316.057 177.395,-322.462 174.791,-312.192 168.955,-316.057"/>
</g>
<!-- Node5 -->
<g id="node5" class="node"><title>Node5</title>
<g id="a_node5"><a xlink:href="../../dc/de5/interfaceHandlerEx.html" target="_top" xlink:title="扩展消息处理器接口 ">
<polygon fill="white" stroke="black" points="163.675,-171.5 163.675,-235.5 227.19,-235.5 227.19,-171.5 163.675,-171.5"/>
<text text-anchor="middle" x="195.433" y="-223.5" font-family="Helvetica,sans-Serif" font-size="10.00">HandlerEx</text>
<polyline fill="none" stroke="black" points="163.675,-217.5 227.19,-217.5 "/>
<text text-anchor="start" x="171.675" y="-205.5" font-family="Helvetica,sans-Serif" font-size="10.00">+ handler</text>
<text text-anchor="start" x="171.675" y="-195.5" font-family="Helvetica,sans-Serif" font-size="10.00">+ stats</text>
<polyline fill="none" stroke="black" points="163.675,-189.5 227.19,-189.5 "/>
<text text-anchor="start" x="171.675" y="-177.5" font-family="Helvetica,sans-Serif" font-size="10.00">+ onerror()</text>
</a>
</g>
</g>
<!-- Node1&#45;&gt;Node5 -->
<g id="edge4" class="edge"><title>Node1&#45;&gt;Node5</title>
<path fill="none" stroke="midnightblue" d="M195.433,-312.117C195.433,-288.527 195.433,-258.118 195.433,-235.645"/>
<polygon fill="none" stroke="midnightblue" points="191.933,-312.423 195.433,-322.423 198.933,-312.423 191.933,-312.423"/>
</g>
<!-- Node8 -->
<g id="node8" class="node"><title>Node8</title>
<g id="a_node8"><a xlink:href="../../df/dcb/interfaceRouting.html" target="_top" xlink:title="消息处理器路由对象 ">
<polygon fill="white" stroke="black" points="245.56,-121.5 245.56,-285.5 311.306,-285.5 311.306,-121.5 245.56,-121.5"/>
<text text-anchor="middle" x="278.433" y="-273.5" font-family="Helvetica,sans-Serif" font-size="10.00">Routing</text>
<polyline fill="none" stroke="black" points="245.56,-267.5 311.306,-267.5 "/>
<text text-anchor="middle" x="278.433" y="-255.5" font-family="Helvetica,sans-Serif" font-size="10.00"> </text>
<polyline fill="none" stroke="black" points="245.56,-249.5 311.306,-249.5 "/>
<text text-anchor="start" x="253.56" y="-237.5" font-family="Helvetica,sans-Serif" font-size="10.00">+ Routing()</text>
<text text-anchor="start" x="253.56" y="-227.5" font-family="Helvetica,sans-Serif" font-size="10.00">+ Routing()</text>
<text text-anchor="start" x="253.56" y="-217.5" font-family="Helvetica,sans-Serif" font-size="10.00">+ append()</text>
<text text-anchor="start" x="253.56" y="-207.5" font-family="Helvetica,sans-Serif" font-size="10.00">+ append()</text>
<text text-anchor="start" x="253.56" y="-197.5" font-family="Helvetica,sans-Serif" font-size="10.00">+ append()</text>
<text text-anchor="start" x="253.56" y="-187.5" font-family="Helvetica,sans-Serif" font-size="10.00">+ append()</text>
<text text-anchor="start" x="253.56" y="-177.5" font-family="Helvetica,sans-Serif" font-size="10.00">+ all()</text>
<text text-anchor="start" x="253.56" y="-167.5" font-family="Helvetica,sans-Serif" font-size="10.00">+ all()</text>
<text text-anchor="start" x="253.56" y="-157.5" font-family="Helvetica,sans-Serif" font-size="10.00">+ get()</text>
<text text-anchor="start" x="253.56" y="-147.5" font-family="Helvetica,sans-Serif" font-size="10.00">+ get()</text>
<text text-anchor="start" x="253.56" y="-137.5" font-family="Helvetica,sans-Serif" font-size="10.00">+ post()</text>
<text text-anchor="start" x="253.56" y="-127.5" font-family="Helvetica,sans-Serif" font-size="10.00">+ post()</text>
</a>
</g>
</g>
<!-- Node1&#45;&gt;Node8 -->
<g id="edge7" class="edge"><title>Node1&#45;&gt;Node8</title>
<path fill="none" stroke="midnightblue" d="M218.946,-314.065C224.846,-305.049 231.03,-295.258 236.433,-286 239.401,-280.913 242.388,-275.594 245.328,-270.217"/>
<polygon fill="none" stroke="midnightblue" points="216.011,-312.157 213.412,-322.428 221.849,-316.02 216.011,-312.157"/>
</g>
<!-- Node9 -->
<g id="node9" class="node"><title>Node9</title>
<g id="a_node9"><a xlink:href="../../df/dd8/interfaceSslHandler.html" target="_top" xlink:title="ssl 协议转换处理器 ">
<polygon fill="white" stroke="black" points="329.338,-161.5 329.338,-245.5 409.527,-245.5 409.527,-161.5 329.338,-161.5"/>
<text text-anchor="middle" x="369.433" y="-233.5" font-family="Helvetica,sans-Serif" font-size="10.00">SslHandler</text>
<polyline fill="none" stroke="black" points="329.338,-227.5 409.527,-227.5 "/>
<text text-anchor="start" x="337.338" y="-215.5" font-family="Helvetica,sans-Serif" font-size="10.00">+ verification</text>
<text text-anchor="start" x="337.338" y="-205.5" font-family="Helvetica,sans-Serif" font-size="10.00">+ ca</text>
<text text-anchor="start" x="337.338" y="-195.5" font-family="Helvetica,sans-Serif" font-size="10.00">+ handler</text>
<polyline fill="none" stroke="black" points="329.338,-189.5 409.527,-189.5 "/>
<text text-anchor="start" x="337.338" y="-177.5" font-family="Helvetica,sans-Serif" font-size="10.00">+ SslHandler()</text>
<text text-anchor="start" x="337.338" y="-167.5" font-family="Helvetica,sans-Serif" font-size="10.00">+ SslHandler()</text>
</a>
</g>
</g>
<!-- Node1&#45;&gt;Node9 -->
<g id="edge8" class="edge"><title>Node1&#45;&gt;Node9</title>
<path fill="none" stroke="midnightblue" d="M234.931,-335.409C261.428,-325.135 295.847,-308.747 320.433,-286 332.551,-274.788 342.679,-259.899 350.522,-245.917"/>
<polygon fill="none" stroke="midnightblue" points="233.698,-332.133 225.56,-338.917 236.152,-338.689 233.698,-332.133"/>
</g>
<!-- Node2 -->
<g id="node2" class="node"><title>Node2</title>
<g id="a_node2"><a xlink:href="../../db/d38/interfaceobject.html" target="_top" xlink:title="基础对象，所有对象均继承于此 ">
<polygon fill="white" stroke="black" points="162.289,-413.5 162.289,-507.5 228.577,-507.5 228.577,-413.5 162.289,-413.5"/>
<text text-anchor="middle" x="195.433" y="-495.5" font-family="Helvetica,sans-Serif" font-size="10.00">object</text>
<polyline fill="none" stroke="black" points="162.289,-489.5 228.577,-489.5 "/>
<text text-anchor="middle" x="195.433" y="-477.5" font-family="Helvetica,sans-Serif" font-size="10.00"> </text>
<polyline fill="none" stroke="black" points="162.289,-471.5 228.577,-471.5 "/>
<text text-anchor="start" x="170.289" y="-459.5" font-family="Helvetica,sans-Serif" font-size="10.00">+ dispose()</text>
<text text-anchor="start" x="170.289" y="-449.5" font-family="Helvetica,sans-Serif" font-size="10.00">+ equals()</text>
<text text-anchor="start" x="170.289" y="-439.5" font-family="Helvetica,sans-Serif" font-size="10.00">+ toString()</text>
<text text-anchor="start" x="170.289" y="-429.5" font-family="Helvetica,sans-Serif" font-size="10.00">+ toJSON()</text>
<text text-anchor="start" x="170.289" y="-419.5" font-family="Helvetica,sans-Serif" font-size="10.00">+ valueOf()</text>
</a>
</g>
</g>
<!-- Node2&#45;&gt;Node1 -->
<g id="edge1" class="edge"><title>Node2&#45;&gt;Node1</title>
<path fill="none" stroke="midnightblue" d="M195.433,-403.212C195.433,-393.916 195.433,-384.69 195.433,-376.617"/>
<polygon fill="none" stroke="midnightblue" points="191.933,-403.274 195.433,-413.274 198.933,-403.274 191.933,-403.274"/>
</g>
<!-- Node6 -->
<g id="node6" class="node"><title>Node6</title>
<g id="a_node6"><a xlink:href="../../d6/d18/interfaceHttpHandler.html" target="_top" xlink:title="http 协议转换处理器 ">
<polygon fill="white" stroke="black" points="76.4365,-0.5 76.4365,-84.5 184.429,-84.5 184.429,-0.5 76.4365,-0.5"/>
<text text-anchor="middle" x="130.433" y="-72.5" font-family="Helvetica,sans-Serif" font-size="10.00">HttpHandler</text>
<polyline fill="none" stroke="black" points="76.4365,-66.5 184.429,-66.5 "/>
<text text-anchor="start" x="84.4365" y="-54.5" font-family="Helvetica,sans-Serif" font-size="10.00">+ crossDomain</text>
<text text-anchor="start" x="84.4365" y="-44.5" font-family="Helvetica,sans-Serif" font-size="10.00">+ forceGZIP</text>
<text text-anchor="start" x="84.4365" y="-34.5" font-family="Helvetica,sans-Serif" font-size="10.00">+ maxHeadersCount</text>
<text text-anchor="start" x="84.4365" y="-24.5" font-family="Helvetica,sans-Serif" font-size="10.00">+ maxUploadSize</text>
<polyline fill="none" stroke="black" points="76.4365,-18.5 184.429,-18.5 "/>
<text text-anchor="start" x="84.4365" y="-6.5" font-family="Helvetica,sans-Serif" font-size="10.00">+ HttpHandler()</text>
</a>
</g>
</g>
<!-- Node5&#45;&gt;Node6 -->
<g id="edge5" class="edge"><title>Node5&#45;&gt;Node6</title>
<path fill="none" stroke="midnightblue" d="M178.899,-162.056C169.213,-138.363 157.011,-108.514 147.273,-84.6937"/>
<polygon fill="none" stroke="midnightblue" points="175.722,-163.534 182.746,-171.466 182.201,-160.885 175.722,-163.534"/>
</g>
<!-- Node7 -->
<g id="node7" class="node"><title>Node7</title>
<g id="a_node7"><a xlink:href="../../da/d20/interfaceWebSocketHandler.html" target="_top" xlink:title="WebSocket 包协议转换处理器 ">
<polygon fill="white" stroke="black" points="202.805,-15.5 202.805,-69.5 320.06,-69.5 320.06,-15.5 202.805,-15.5"/>
<text text-anchor="middle" x="261.433" y="-57.5" font-family="Helvetica,sans-Serif" font-size="10.00">WebSocketHandler</text>
<polyline fill="none" stroke="black" points="202.805,-51.5 320.06,-51.5 "/>
<text text-anchor="start" x="210.805" y="-39.5" font-family="Helvetica,sans-Serif" font-size="10.00">+ maxSize</text>
<polyline fill="none" stroke="black" points="202.805,-33.5 320.06,-33.5 "/>
<text text-anchor="start" x="210.805" y="-21.5" font-family="Helvetica,sans-Serif" font-size="10.00">+ WebSocketHandler()</text>
</a>
</g>
</g>
<!-- Node5&#45;&gt;Node7 -->
<g id="edge6" class="edge"><title>Node5&#45;&gt;Node7</title>
<path fill="none" stroke="midnightblue" d="M212.237,-162.016C224.275,-133.016 240.136,-94.8065 250.55,-69.7166"/>
<polygon fill="none" stroke="midnightblue" points="208.916,-160.888 208.315,-171.466 215.381,-163.572 208.916,-160.888"/>
</g>
</g>
</svg>
