<?xml version="1.0" encoding="UTF-8" standalone="no"?>
<!DOCTYPE svg PUBLIC "-//W3C//DTD SVG 1.1//EN"
 "http://www.w3.org/Graphics/SVG/1.1/DTD/svg11.dtd">
<!-- Generated by graphviz version 2.38.0 (20140413.2041)
 -->
<!-- Title: SubProcess Pages: 1 -->
<svg width="109pt" height="506pt"
 viewBox="0.00 0.00 109.14 506.00" xmlns="http://www.w3.org/2000/svg" xmlns:xlink="http://www.w3.org/1999/xlink">
<g id="graph0" class="graph" transform="scale(1 1) rotate(0) translate(4 502)">
<title>SubProcess</title>
<polygon fill="white" stroke="none" points="-4,4 -4,-502 105.137,-502 105.137,4 -4,4"/>
<!-- Node1 -->
<g id="node1" class="node"><title>Node1</title>
<polygon fill="#bfbfbf" stroke="black" points="15.6104,-0.5 15.6104,-84.5 85.5264,-84.5 85.5264,-0.5 15.6104,-0.5"/>
<text text-anchor="middle" x="50.5684" y="-72.5" font-family="Helvetica,sans-Serif" font-size="10.00">SubProcess</text>
<polyline fill="none" stroke="black" points="15.6104,-66.5 85.5264,-66.5 "/>
<text text-anchor="start" x="23.6104" y="-54.5" font-family="Helvetica,sans-Serif" font-size="10.00">+ pid</text>
<text text-anchor="start" x="23.6104" y="-44.5" font-family="Helvetica,sans-Serif" font-size="10.00">+ stdin</text>
<text text-anchor="start" x="23.6104" y="-34.5" font-family="Helvetica,sans-Serif" font-size="10.00">+ stdout</text>
<polyline fill="none" stroke="black" points="15.6104,-28.5 85.5264,-28.5 "/>
<text text-anchor="start" x="23.6104" y="-16.5" font-family="Helvetica,sans-Serif" font-size="10.00">+ kill()</text>
<text text-anchor="start" x="23.6104" y="-6.5" font-family="Helvetica,sans-Serif" font-size="10.00">+ wait()</text>
</g>
<!-- Node2 -->
<g id="node2" class="node"><title>Node2</title>
<g id="a_node2"><a xlink:href="../../d0/d37/interfaceBufferedStream.html" target="_top" xlink:title="Buffer reader object. ">
<polygon fill="white" stroke="black" points="0,-121.5 0,-255.5 101.137,-255.5 101.137,-121.5 0,-121.5"/>
<text text-anchor="middle" x="50.5684" y="-243.5" font-family="Helvetica,sans-Serif" font-size="10.00">BufferedStream</text>
<polyline fill="none" stroke="black" points="0,-237.5 101.137,-237.5 "/>
<text text-anchor="start" x="8" y="-225.5" font-family="Helvetica,sans-Serif" font-size="10.00">+ stream</text>
<text text-anchor="start" x="8" y="-215.5" font-family="Helvetica,sans-Serif" font-size="10.00">+ charset</text>
<text text-anchor="start" x="8" y="-205.5" font-family="Helvetica,sans-Serif" font-size="10.00">+ EOL</text>
<polyline fill="none" stroke="black" points="0,-199.5 101.137,-199.5 "/>
<text text-anchor="start" x="8" y="-187.5" font-family="Helvetica,sans-Serif" font-size="10.00">+ BufferedStream()</text>
<text text-anchor="start" x="8" y="-177.5" font-family="Helvetica,sans-Serif" font-size="10.00">+ readText()</text>
<text text-anchor="start" x="8" y="-167.5" font-family="Helvetica,sans-Serif" font-size="10.00">+ readLine()</text>
<text text-anchor="start" x="8" y="-157.5" font-family="Helvetica,sans-Serif" font-size="10.00">+ readLines()</text>
<text text-anchor="start" x="8" y="-147.5" font-family="Helvetica,sans-Serif" font-size="10.00">+ readUntil()</text>
<text text-anchor="start" x="8" y="-137.5" font-family="Helvetica,sans-Serif" font-size="10.00">+ writeText()</text>
<text text-anchor="start" x="8" y="-127.5" font-family="Helvetica,sans-Serif" font-size="10.00">+ writeLine()</text>
</a>
</g>
</g>
<!-- Node2&#45;&gt;Node1 -->
<g id="edge1" class="edge"><title>Node2&#45;&gt;Node1</title>
<path fill="none" stroke="midnightblue" d="M50.5684,-111.362C50.5684,-102.118 50.5684,-92.9644 50.5684,-84.5147"/>
<polygon fill="none" stroke="midnightblue" points="47.0685,-111.4 50.5684,-121.4 54.0685,-111.4 47.0685,-111.4"/>
</g>
<!-- Node3 -->
<g id="node3" class="node"><title>Node3</title>
<g id="a_node3"><a xlink:href="../../d4/dc7/interfaceStream.html" target="_top" xlink:title="Stream object for binary data. ">
<polygon fill="white" stroke="black" points="19.0869,-292.5 19.0869,-376.5 82.0498,-376.5 82.0498,-292.5 19.0869,-292.5"/>
<text text-anchor="middle" x="50.5684" y="-364.5" font-family="Helvetica,sans-Serif" font-size="10.00">Stream</text>
<polyline fill="none" stroke="black" points="19.0869,-358.5 82.0498,-358.5 "/>
<text text-anchor="middle" x="50.5684" y="-346.5" font-family="Helvetica,sans-Serif" font-size="10.00"> </text>
<polyline fill="none" stroke="black" points="19.0869,-340.5 82.0498,-340.5 "/>
<text text-anchor="start" x="27.0869" y="-328.5" font-family="Helvetica,sans-Serif" font-size="10.00">+ read()</text>
<text text-anchor="start" x="27.0869" y="-318.5" font-family="Helvetica,sans-Serif" font-size="10.00">+ write()</text>
<text text-anchor="start" x="27.0869" y="-308.5" font-family="Helvetica,sans-Serif" font-size="10.00">+ close()</text>
<text text-anchor="start" x="27.0869" y="-298.5" font-family="Helvetica,sans-Serif" font-size="10.00">+ copyTo()</text>
</a>
</g>
</g>
<!-- Node3&#45;&gt;Node2 -->
<g id="edge2" class="edge"><title>Node3&#45;&gt;Node2</title>
<path fill="none" stroke="midnightblue" d="M50.5684,-282.005C50.5684,-273.416 50.5684,-264.401 50.5684,-255.509"/>
<polygon fill="none" stroke="midnightblue" points="47.0685,-282.235 50.5684,-292.235 54.0685,-282.235 47.0685,-282.235"/>
</g>
<!-- Node4 -->
<g id="node4" class="node"><title>Node4</title>
<g id="a_node4"><a xlink:href="../../db/d38/interfaceobject.html" target="_top" xlink:title="All objects inherit from this. ">
<polygon fill="white" stroke="black" points="17.4243,-413.5 17.4243,-497.5 83.7124,-497.5 83.7124,-413.5 17.4243,-413.5"/>
<text text-anchor="middle" x="50.5684" y="-485.5" font-family="Helvetica,sans-Serif" font-size="10.00">object</text>
<polyline fill="none" stroke="black" points="17.4243,-479.5 83.7124,-479.5 "/>
<text text-anchor="middle" x="50.5684" y="-467.5" font-family="Helvetica,sans-Serif" font-size="10.00"> </text>
<polyline fill="none" stroke="black" points="17.4243,-461.5 83.7124,-461.5 "/>
<text text-anchor="start" x="25.4243" y="-449.5" font-family="Helvetica,sans-Serif" font-size="10.00">+ dispose()</text>
<text text-anchor="start" x="25.4243" y="-439.5" font-family="Helvetica,sans-Serif" font-size="10.00">+ toString()</text>
<text text-anchor="start" x="25.4243" y="-429.5" font-family="Helvetica,sans-Serif" font-size="10.00">+ toJSON()</text>
<text text-anchor="start" x="25.4243" y="-419.5" font-family="Helvetica,sans-Serif" font-size="10.00">+ valueOf()</text>
</a>
</g>
</g>
<!-- Node4&#45;&gt;Node3 -->
<g id="edge3" class="edge"><title>Node4&#45;&gt;Node3</title>
<path fill="none" stroke="midnightblue" d="M50.5684,-403.041C50.5684,-394.241 50.5684,-385.202 50.5684,-376.713"/>
<polygon fill="none" stroke="midnightblue" points="47.0685,-403.214 50.5684,-413.214 54.0685,-403.214 47.0685,-403.214"/>
</g>
</g>
</svg>
