<?xml version="1.0" encoding="UTF-8" standalone="no"?>
<!DOCTYPE svg PUBLIC "-//W3C//DTD SVG 1.1//EN"
 "http://www.w3.org/Graphics/SVG/1.1/DTD/svg11.dtd">
<!-- Generated by graphviz version 2.38.0 (20140413.2041)
 -->
<!-- Title: 类继承关系图 Pages: 1 -->
<svg width="150pt" height="1026pt"
 viewBox="0.00 0.00 150.49 1026.00" xmlns="http://www.w3.org/2000/svg" xmlns:xlink="http://www.w3.org/1999/xlink">
<g id="graph0" class="graph" transform="scale(1 1) rotate(0) translate(4 1022)">
<title>类继承关系图</title>
<polygon fill="white" stroke="none" points="-4,4 -4,-1022 146.487,-1022 146.487,4 -4,4"/>
<!-- Node1 -->
<g id="node1" class="node"><title>Node1</title>
<g id="a_node1"><a xlink:href="d2/d3e/interfacemodule.html" target="_top" xlink:title="基础模块对象，所有模块对象均继承于此 ">
<polygon fill="white" stroke="black" points="0,-499.5 0,-517.5 48.7979,-517.5 48.7979,-499.5 0,-499.5"/>
<text text-anchor="middle" x="24.3989" y="-505.5" font-family="Helvetica,sans-Serif" font-size="10.00">module</text>
</a>
</g>
</g>
<!-- Node2 -->
<g id="node2" class="node"><title>Node2</title>
<g id="a_node2"><a xlink:href="d0/d1a/interfaceassert.html" target="_top" xlink:title="断言测试模块，如果测试值为假，则报错，报错行为可设定继续运行或者错误抛出 ">
<polygon fill="white" stroke="black" points="92.0269,-999.5 92.0269,-1017.5 135.258,-1017.5 135.258,-999.5 92.0269,-999.5"/>
<text text-anchor="middle" x="113.643" y="-1005.5" font-family="Helvetica,sans-Serif" font-size="10.00">assert</text>
</a>
</g>
</g>
<!-- Node1&#45;&gt;Node2 -->
<g id="edge1" class="edge"><title>Node1&#45;&gt;Node2</title>
<path fill="none" stroke="midnightblue" d="M25.6412,-527.981C26.9584,-608.055 35.1925,-911.338 84.7979,-990.5 86.9986,-994.012 90.1639,-996.972 93.5773,-999.413"/>
<polygon fill="midnightblue" stroke="midnightblue" points="29.1388,-527.787 25.4929,-517.84 22.1396,-527.89 29.1388,-527.787"/>
</g>
<!-- Node3 -->
<g id="node3" class="node"><title>Node3</title>
<g id="a_node3"><a xlink:href="d1/dfa/interfacecollection.html" target="_top" xlink:title="基础容器模块 ">
<polygon fill="white" stroke="black" points="84.7979,-962.5 84.7979,-980.5 142.487,-980.5 142.487,-962.5 84.7979,-962.5"/>
<text text-anchor="middle" x="113.643" y="-968.5" font-family="Helvetica,sans-Serif" font-size="10.00">collection</text>
</a>
</g>
</g>
<!-- Node1&#45;&gt;Node3 -->
<g id="edge2" class="edge"><title>Node1&#45;&gt;Node3</title>
<path fill="none" stroke="midnightblue" d="M25.8642,-527.925C28.004,-603.994 38.866,-881.015 84.7979,-953.5 87.0162,-957.001 90.1893,-959.956 93.6046,-962.396"/>
<polygon fill="midnightblue" stroke="midnightblue" points="29.3611,-527.758 25.6,-517.853 22.3635,-527.942 29.3611,-527.758"/>
</g>
<!-- Node4 -->
<g id="node4" class="node"><title>Node4</title>
<g id="a_node4"><a xlink:href="da/ddd/interfaceconsole.html" target="_top" xlink:title="控制台访问对象 ">
<polygon fill="white" stroke="black" points="88.4087,-925.5 88.4087,-943.5 138.876,-943.5 138.876,-925.5 88.4087,-925.5"/>
<text text-anchor="middle" x="113.643" y="-931.5" font-family="Helvetica,sans-Serif" font-size="10.00">console</text>
</a>
</g>
</g>
<!-- Node1&#45;&gt;Node4 -->
<g id="edge3" class="edge"><title>Node1&#45;&gt;Node4</title>
<path fill="none" stroke="midnightblue" d="M26.136,-528.117C29.1678,-600.354 42.5787,-850.741 84.7979,-916.5 87.037,-919.988 90.2192,-922.937 93.6368,-925.376"/>
<polygon fill="midnightblue" stroke="midnightblue" points="29.6192,-527.624 25.7229,-517.772 22.6247,-527.903 29.6192,-527.624"/>
</g>
<!-- Node5 -->
<g id="node5" class="node"><title>Node5</title>
<g id="a_node5"><a xlink:href="d2/d96/interfacecoroutine.html" target="_top" xlink:title="并发控制模块 ">
<polygon fill="white" stroke="black" points="85.0737,-888.5 85.0737,-906.5 142.211,-906.5 142.211,-888.5 85.0737,-888.5"/>
<text text-anchor="middle" x="113.643" y="-894.5" font-family="Helvetica,sans-Serif" font-size="10.00">coroutine</text>
</a>
</g>
</g>
<!-- Node1&#45;&gt;Node5 -->
<g id="edge4" class="edge"><title>Node1&#45;&gt;Node5</title>
<path fill="none" stroke="midnightblue" d="M26.4257,-527.627C30.3472,-594.971 46.1486,-820.23 84.7979,-879.5 87.0617,-882.972 90.2546,-885.914 93.6751,-888.351"/>
<polygon fill="midnightblue" stroke="midnightblue" points="29.9172,-527.376 25.8623,-517.588 22.9282,-527.768 29.9172,-527.376"/>
</g>
<!-- Node6 -->
<g id="node6" class="node"><title>Node6</title>
<g id="a_node6"><a xlink:href="d3/dd5/interfacecrypto.html" target="_top" xlink:title="加密算法模块 ">
<polygon fill="white" stroke="black" points="92.0269,-851.5 92.0269,-869.5 135.258,-869.5 135.258,-851.5 92.0269,-851.5"/>
<text text-anchor="middle" x="113.643" y="-857.5" font-family="Helvetica,sans-Serif" font-size="10.00">crypto</text>
</a>
</g>
</g>
<!-- Node1&#45;&gt;Node6 -->
<g id="edge5" class="edge"><title>Node1&#45;&gt;Node6</title>
<path fill="none" stroke="midnightblue" d="M26.8101,-527.715C31.7387,-590.693 49.8177,-789.854 84.7979,-842.5 87.0915,-845.952 90.2975,-848.886 93.7213,-851.32"/>
<polygon fill="midnightblue" stroke="midnightblue" points="30.2896,-527.312 26.0417,-517.606 23.3098,-527.842 30.2896,-527.312"/>
</g>
<!-- Node7 -->
<g id="node7" class="node"><title>Node7</title>
<g id="a_node7"><a xlink:href="d3/d75/interfacedb.html" target="_top" xlink:title="数据库访问模块 ">
<polygon fill="white" stroke="black" points="99.1426,-814.5 99.1426,-832.5 128.143,-832.5 128.143,-814.5 99.1426,-814.5"/>
<text text-anchor="middle" x="113.643" y="-820.5" font-family="Helvetica,sans-Serif" font-size="10.00">db</text>
</a>
</g>
</g>
<!-- Node1&#45;&gt;Node7 -->
<g id="edge6" class="edge"><title>Node1&#45;&gt;Node7</title>
<path fill="none" stroke="midnightblue" d="M27.2929,-527.823C33.3127,-586.18 53.4747,-759.435 84.7979,-805.5 88.2935,-810.641 93.7955,-814.648 98.9888,-817.562"/>
<polygon fill="midnightblue" stroke="midnightblue" points="30.7635,-527.354 26.2784,-517.756 23.7987,-528.056 30.7635,-527.354"/>
</g>
<!-- Node8 -->
<g id="node8" class="node"><title>Node8</title>
<g id="a_node8"><a xlink:href="dc/d64/interfaceencoding.html" target="_top" xlink:title="编码与解码模块，用于处理不同的数据编码格式与二进制之间的转换 引用方式： ">
<polygon fill="white" stroke="black" points="85.3472,-777.5 85.3472,-795.5 141.938,-795.5 141.938,-777.5 85.3472,-777.5"/>
<text text-anchor="middle" x="113.643" y="-783.5" font-family="Helvetica,sans-Serif" font-size="10.00">encoding</text>
</a>
</g>
</g>
<!-- Node1&#45;&gt;Node8 -->
<g id="edge7" class="edge"><title>Node1&#45;&gt;Node8</title>
<path fill="none" stroke="midnightblue" d="M25.0515,-527.544C25.1388,-573.348 30.9433,-691.571 84.7979,-768.5 87.2407,-771.99 90.5979,-774.966 94.1368,-777.434"/>
<polygon fill="midnightblue" stroke="midnightblue" points="28.5514,-527.554 25.1267,-517.528 21.5516,-527.501 28.5514,-527.554"/>
</g>
<!-- Node9 -->
<g id="node9" class="node"><title>Node9</title>
<g id="a_node9"><a xlink:href="d3/d48/interfacefs.html" target="_top" xlink:title="文件系统处理模块 ">
<polygon fill="white" stroke="black" points="99.1426,-740.5 99.1426,-758.5 128.143,-758.5 128.143,-740.5 99.1426,-740.5"/>
<text text-anchor="middle" x="113.643" y="-746.5" font-family="Helvetica,sans-Serif" font-size="10.00">fs</text>
</a>
</g>
</g>
<!-- Node1&#45;&gt;Node9 -->
<g id="edge8" class="edge"><title>Node1&#45;&gt;Node9</title>
<path fill="none" stroke="midnightblue" d="M25.9695,-527.553C28.0923,-568.676 38.0671,-667.222 84.7979,-731.5 88.3858,-736.435 93.7764,-740.37 98.8617,-743.286"/>
<polygon fill="midnightblue" stroke="midnightblue" points="29.4663,-527.4 25.555,-517.553 22.4723,-527.69 29.4663,-527.4"/>
</g>
<!-- Node10 -->
<g id="node10" class="node"><title>Node10</title>
<g id="a_node10"><a xlink:href="d1/dc0/interfaceFunction.html" target="_top" xlink:title="Function 模块不可直接引用，仅用于实现对 javascript Function 对象的扩展 ">
<polygon fill="white" stroke="black" points="86.4653,-703.5 86.4653,-721.5 140.82,-721.5 140.82,-703.5 86.4653,-703.5"/>
<text text-anchor="middle" x="113.643" y="-709.5" font-family="Helvetica,sans-Serif" font-size="10.00">Function</text>
</a>
</g>
</g>
<!-- Node1&#45;&gt;Node10 -->
<g id="edge9" class="edge"><title>Node1&#45;&gt;Node10</title>
<path fill="none" stroke="midnightblue" d="M27.2519,-527.758C31.5853,-563.865 45.2121,-642.753 84.7979,-694.5 87.4559,-697.975 90.9898,-700.973 94.6453,-703.471"/>
<polygon fill="midnightblue" stroke="midnightblue" points="30.7108,-527.189 26.1503,-517.626 23.7518,-527.946 30.7108,-527.189"/>
</g>
<!-- Node11 -->
<g id="node11" class="node"><title>Node11</title>
<g id="a_node11"><a xlink:href="d4/d10/interfacegd.html" target="_top" xlink:title="图像文件处理模块 ">
<polygon fill="white" stroke="black" points="99.1426,-666.5 99.1426,-684.5 128.143,-684.5 128.143,-666.5 99.1426,-666.5"/>
<text text-anchor="middle" x="113.643" y="-672.5" font-family="Helvetica,sans-Serif" font-size="10.00">gd</text>
</a>
</g>
</g>
<!-- Node1&#45;&gt;Node11 -->
<g id="edge10" class="edge"><title>Node1&#45;&gt;Node11</title>
<path fill="none" stroke="midnightblue" d="M29.0817,-527.62C35.7291,-557.979 52.1781,-617.827 84.7979,-657.5 88.5999,-662.124 93.9082,-665.962 98.8715,-668.889"/>
<polygon fill="midnightblue" stroke="midnightblue" points="32.4489,-526.618 27.0007,-517.532 25.5932,-528.033 32.4489,-526.618"/>
</g>
<!-- Node12 -->
<g id="node12" class="node"><title>Node12</title>
<g id="a_node12"><a xlink:href="d3/d95/interfaceglobal.html" target="_top" xlink:title="全局对象，所有脚本均可以访问的基础对象 ">
<polygon fill="white" stroke="black" points="92.2979,-629.5 92.2979,-647.5 134.987,-647.5 134.987,-629.5 92.2979,-629.5"/>
<text text-anchor="middle" x="113.643" y="-635.5" font-family="Helvetica,sans-Serif" font-size="10.00">global</text>
</a>
</g>
</g>
<!-- Node1&#45;&gt;Node12 -->
<g id="edge11" class="edge"><title>Node1&#45;&gt;Node12</title>
<path fill="none" stroke="midnightblue" d="M31.8968,-527.156C40.8902,-550.948 58.994,-592.369 84.7979,-620.5 87.9107,-623.894 91.7972,-626.924 95.6699,-629.487"/>
<polygon fill="midnightblue" stroke="midnightblue" points="35.1194,-525.777 28.4108,-517.577 28.5414,-528.171 35.1194,-525.777"/>
</g>
<!-- Node13 -->
<g id="node13" class="node"><title>Node13</title>
<g id="a_node13"><a xlink:href="d2/da7/interfacehash.html" target="_top" xlink:title="信息摘要计算模块，可用于计算信息摘要和摘要签名 ">
<polygon fill="white" stroke="black" points="94.8003,-592.5 94.8003,-610.5 132.485,-610.5 132.485,-592.5 94.8003,-592.5"/>
<text text-anchor="middle" x="113.643" y="-598.5" font-family="Helvetica,sans-Serif" font-size="10.00">hash</text>
</a>
</g>
</g>
<!-- Node1&#45;&gt;Node13 -->
<g id="edge12" class="edge"><title>Node1&#45;&gt;Node13</title>
<path fill="none" stroke="midnightblue" d="M36.8385,-526.076C47.8747,-542.197 65.6815,-566.135 84.7979,-583.5 88.377,-586.751 92.6052,-589.807 96.6713,-592.445"/>
<polygon fill="midnightblue" stroke="midnightblue" points="39.6344,-523.961 31.1642,-517.597 33.8167,-527.854 39.6344,-523.961"/>
</g>
<!-- Node14 -->
<g id="node14" class="node"><title>Node14</title>
<g id="a_node14"><a xlink:href="db/d5c/interfacehttp.html" target="_top" xlink:title="超文本传输协议模块，用以支持 http 协议处理 ">
<polygon fill="white" stroke="black" points="97.3027,-555.5 97.3027,-573.5 129.982,-573.5 129.982,-555.5 97.3027,-555.5"/>
<text text-anchor="middle" x="113.643" y="-561.5" font-family="Helvetica,sans-Serif" font-size="10.00">http</text>
</a>
</g>
</g>
<!-- Node1&#45;&gt;Node14 -->
<g id="edge13" class="edge"><title>Node1&#45;&gt;Node14</title>
<path fill="none" stroke="midnightblue" d="M48.5297,-523.347C64.4195,-533.547 85.0033,-546.759 98.5041,-555.425"/>
<polygon fill="midnightblue" stroke="midnightblue" points="50.1116,-520.204 39.8054,-517.747 46.3303,-526.095 50.1116,-520.204"/>
</g>
<!-- Node15 -->
<g id="node15" class="node"><title>Node15</title>
<g id="a_node15"><a xlink:href="d0/d46/interfaceio.html" target="_top" xlink:title="输入输出处理模块 ">
<polygon fill="white" stroke="black" points="99.1426,-518.5 99.1426,-536.5 128.143,-536.5 128.143,-518.5 99.1426,-518.5"/>
<text text-anchor="middle" x="113.643" y="-524.5" font-family="Helvetica,sans-Serif" font-size="10.00">io</text>
</a>
</g>
</g>
<!-- Node1&#45;&gt;Node15 -->
<g id="edge14" class="edge"><title>Node1&#45;&gt;Node15</title>
<path fill="none" stroke="midnightblue" d="M59.0695,-515.833C73.0406,-518.875 88.4504,-522.231 99.1423,-524.56"/>
<polygon fill="midnightblue" stroke="midnightblue" points="59.7544,-512.4 49.2386,-513.692 58.2648,-519.24 59.7544,-512.4"/>
</g>
<!-- Node16 -->
<g id="node16" class="node"><title>Node16</title>
<g id="a_node16"><a xlink:href="d0/de4/interfacemq.html" target="_top" xlink:title="消息队列模块 ">
<polygon fill="white" stroke="black" points="98.6968,-481.5 98.6968,-499.5 128.588,-499.5 128.588,-481.5 98.6968,-481.5"/>
<text text-anchor="middle" x="113.643" y="-487.5" font-family="Helvetica,sans-Serif" font-size="10.00">mq</text>
</a>
</g>
</g>
<!-- Node1&#45;&gt;Node16 -->
<g id="edge15" class="edge"><title>Node1&#45;&gt;Node16</title>
<path fill="none" stroke="midnightblue" d="M59.3435,-501.497C73.0231,-498.674 88.0398,-495.576 98.6375,-493.39"/>
<polygon fill="midnightblue" stroke="midnightblue" points="58.3251,-498.133 49.2386,-503.581 59.7396,-504.989 58.3251,-498.133"/>
</g>
<!-- Node17 -->
<g id="node17" class="node"><title>Node17</title>
<g id="a_node17"><a xlink:href="d7/dc0/interfacenet.html" target="_top" xlink:title="网络访问模块 ">
<polygon fill="white" stroke="black" points="98.6919,-444.5 98.6919,-462.5 128.593,-462.5 128.593,-444.5 98.6919,-444.5"/>
<text text-anchor="middle" x="113.643" y="-450.5" font-family="Helvetica,sans-Serif" font-size="10.00">net</text>
</a>
</g>
</g>
<!-- Node1&#45;&gt;Node17 -->
<g id="edge16" class="edge"><title>Node1&#45;&gt;Node17</title>
<path fill="none" stroke="midnightblue" d="M48.5297,-493.918C64.4195,-483.901 85.0033,-470.924 98.5041,-462.413"/>
<polygon fill="midnightblue" stroke="midnightblue" points="46.3982,-491.124 39.8054,-499.418 50.1313,-497.046 46.3982,-491.124"/>
</g>
<!-- Node18 -->
<g id="node18" class="node"><title>Node18</title>
<g id="a_node18"><a xlink:href="d7/dfa/interfaceos.html" target="_top" xlink:title="操作系统与文件系统处理模块 ">
<polygon fill="white" stroke="black" points="99.1426,-407.5 99.1426,-425.5 128.143,-425.5 128.143,-407.5 99.1426,-407.5"/>
<text text-anchor="middle" x="113.643" y="-413.5" font-family="Helvetica,sans-Serif" font-size="10.00">os</text>
</a>
</g>
</g>
<!-- Node1&#45;&gt;Node18 -->
<g id="edge17" class="edge"><title>Node1&#45;&gt;Node18</title>
<path fill="none" stroke="midnightblue" d="M37.3917,-491.021C48.5832,-475.43 66.2947,-452.507 84.7979,-435.5 89.1067,-431.54 94.298,-427.774 99.0249,-424.656"/>
<polygon fill="midnightblue" stroke="midnightblue" points="34.4914,-489.06 31.599,-499.253 40.2161,-493.089 34.4914,-489.06"/>
</g>
<!-- Node19 -->
<g id="node19" class="node"><title>Node19</title>
<g id="a_node19"><a xlink:href="db/d66/interfacepath.html" target="_top" xlink:title="文件路径处理模块 ">
<polygon fill="white" stroke="black" points="95.9111,-370.5 95.9111,-388.5 131.374,-388.5 131.374,-370.5 95.9111,-370.5"/>
<text text-anchor="middle" x="113.643" y="-376.5" font-family="Helvetica,sans-Serif" font-size="10.00">path</text>
</a>
</g>
</g>
<!-- Node1&#45;&gt;Node19 -->
<g id="edge18" class="edge"><title>Node1&#45;&gt;Node19</title>
<path fill="none" stroke="midnightblue" d="M32.223,-489.93C41.4615,-466.619 59.7215,-426.32 84.7979,-398.5 88.1676,-394.762 92.4157,-391.391 96.5717,-388.562"/>
<polygon fill="midnightblue" stroke="midnightblue" points="28.9275,-488.749 28.6211,-499.34 35.4649,-491.252 28.9275,-488.749"/>
</g>
<!-- Node20 -->
<g id="node20" class="node"><title>Node20</title>
<g id="a_node20"><a xlink:href="d9/d32/interfaceprocess.html" target="_top" xlink:title="进程处理模块，用以管理当前进程的资源 ">
<polygon fill="white" stroke="black" points="88.1353,-333.5 88.1353,-351.5 139.15,-351.5 139.15,-333.5 88.1353,-333.5"/>
<text text-anchor="middle" x="113.643" y="-339.5" font-family="Helvetica,sans-Serif" font-size="10.00">process</text>
</a>
</g>
</g>
<!-- Node1&#45;&gt;Node20 -->
<g id="edge19" class="edge"><title>Node1&#45;&gt;Node20</title>
<path fill="none" stroke="midnightblue" d="M29.3638,-489.298C36.3247,-459.342 53.1072,-400.849 84.7979,-361.5 87.8814,-357.671 91.9393,-354.31 96.0001,-351.521"/>
<polygon fill="midnightblue" stroke="midnightblue" points="25.8977,-488.764 27.1663,-499.282 32.7341,-490.268 25.8977,-488.764"/>
</g>
<!-- Node21 -->
<g id="node21" class="node"><title>Node21</title>
<g id="a_node21"><a xlink:href="df/d04/interfacere.html" target="_top" xlink:title="正则表达式处理模块 ">
<polygon fill="white" stroke="black" points="99.1426,-296.5 99.1426,-314.5 128.143,-314.5 128.143,-296.5 99.1426,-296.5"/>
<text text-anchor="middle" x="113.643" y="-302.5" font-family="Helvetica,sans-Serif" font-size="10.00">re</text>
</a>
</g>
</g>
<!-- Node1&#45;&gt;Node21 -->
<g id="edge20" class="edge"><title>Node1&#45;&gt;Node21</title>
<path fill="none" stroke="midnightblue" d="M27.494,-489.034C32.1899,-453.238 46.3397,-375.924 84.7979,-324.5 88.5132,-319.532 93.9256,-315.421 98.9928,-312.308"/>
<polygon fill="midnightblue" stroke="midnightblue" points="24.0011,-488.766 26.2827,-499.112 30.9511,-489.602 24.0011,-488.766"/>
</g>
<!-- Node22 -->
<g id="node22" class="node"><title>Node22</title>
<g id="a_node22"><a xlink:href="d9/d48/interfacerpc.html" target="_top" xlink:title="远程过程调用消息转换模块 ">
<polygon fill="white" stroke="black" points="98.6968,-259.5 98.6968,-277.5 128.588,-277.5 128.588,-259.5 98.6968,-259.5"/>
<text text-anchor="middle" x="113.643" y="-265.5" font-family="Helvetica,sans-Serif" font-size="10.00">rpc</text>
</a>
</g>
</g>
<!-- Node1&#45;&gt;Node22 -->
<g id="edge21" class="edge"><title>Node1&#45;&gt;Node22</title>
<path fill="none" stroke="midnightblue" d="M26.1739,-489.138C28.6935,-448.219 39.3939,-351.465 84.7979,-287.5 88.3208,-282.537 93.5769,-278.47 98.5764,-275.391"/>
<polygon fill="midnightblue" stroke="midnightblue" points="22.6786,-488.958 25.6581,-499.125 29.6693,-489.319 22.6786,-488.958"/>
</g>
<!-- Node23 -->
<g id="node23" class="node"><title>Node23</title>
<g id="a_node23"><a xlink:href="d6/d6a/interfacessl.html" target="_top" xlink:title="ssl/tls 模块 ">
<polygon fill="white" stroke="black" points="99.1426,-222.5 99.1426,-240.5 128.143,-240.5 128.143,-222.5 99.1426,-222.5"/>
<text text-anchor="middle" x="113.643" y="-228.5" font-family="Helvetica,sans-Serif" font-size="10.00">ssl</text>
</a>
</g>
</g>
<!-- Node1&#45;&gt;Node23 -->
<g id="edge22" class="edge"><title>Node1&#45;&gt;Node23</title>
<path fill="none" stroke="midnightblue" d="M25.2244,-489.065C25.733,-443.357 32.4666,-327.132 84.7979,-250.5 88.3622,-245.28 93.8749,-241.083 99.0577,-237.975"/>
<polygon fill="midnightblue" stroke="midnightblue" points="21.7244,-489.092 25.2053,-499.099 28.7244,-489.106 21.7244,-489.092"/>
</g>
<!-- Node24 -->
<g id="node24" class="node"><title>Node24</title>
<g id="a_node24"><a xlink:href="d6/d9e/interfacetest.html" target="_top" xlink:title="测试套件模块，用以定义管理测试套件 ">
<polygon fill="white" stroke="black" points="97.5835,-185.5 97.5835,-203.5 129.702,-203.5 129.702,-185.5 97.5835,-185.5"/>
<text text-anchor="middle" x="113.643" y="-191.5" font-family="Helvetica,sans-Serif" font-size="10.00">test</text>
</a>
</g>
</g>
<!-- Node1&#45;&gt;Node24 -->
<g id="edge23" class="edge"><title>Node1&#45;&gt;Node24</title>
<path fill="none" stroke="midnightblue" d="M27.3593,-489.34C33.5696,-431.472 54.22,-259.631 84.7979,-213.5 87.9666,-208.72 92.7897,-204.815 97.5363,-201.816"/>
<polygon fill="midnightblue" stroke="midnightblue" points="23.8746,-489.012 26.3111,-499.323 30.8363,-489.743 23.8746,-489.012"/>
</g>
<!-- Node25 -->
<g id="node25" class="node"><title>Node25</title>
<g id="a_node25"><a xlink:href="db/d3d/interfaceutil.html" target="_top" xlink:title="常用工具模块 ">
<polygon fill="white" stroke="black" points="99.1426,-148.5 99.1426,-166.5 128.143,-166.5 128.143,-148.5 99.1426,-148.5"/>
<text text-anchor="middle" x="113.643" y="-154.5" font-family="Helvetica,sans-Serif" font-size="10.00">util</text>
</a>
</g>
</g>
<!-- Node1&#45;&gt;Node25 -->
<g id="edge24" class="edge"><title>Node1&#45;&gt;Node25</title>
<path fill="none" stroke="midnightblue" d="M26.8751,-489.434C32.007,-426.935 50.6481,-229.251 84.7979,-176.5 88.2327,-171.194 93.7251,-166.984 98.9277,-163.888"/>
<polygon fill="midnightblue" stroke="midnightblue" points="23.3813,-489.218 26.0734,-499.465 30.359,-489.775 23.3813,-489.218"/>
</g>
<!-- Node26 -->
<g id="node26" class="node"><title>Node26</title>
<g id="a_node26"><a xlink:href="d5/d9a/interfaceuuid.html" target="_top" xlink:title="uuid 唯一 id 模块 ">
<polygon fill="white" stroke="black" points="96.1895,-111.5 96.1895,-129.5 131.096,-129.5 131.096,-111.5 96.1895,-111.5"/>
<text text-anchor="middle" x="113.643" y="-117.5" font-family="Helvetica,sans-Serif" font-size="10.00">uuid</text>
</a>
</g>
</g>
<!-- Node1&#45;&gt;Node26 -->
<g id="edge25" class="edge"><title>Node1&#45;&gt;Node26</title>
<path fill="none" stroke="midnightblue" d="M26.5154,-489.092C30.6945,-421.714 47.142,-198.794 84.7979,-139.5 87.5588,-135.153 91.7118,-131.549 95.9736,-128.691"/>
<polygon fill="midnightblue" stroke="midnightblue" points="22.9976,-489.286 25.8934,-499.477 29.9851,-489.704 22.9976,-489.286"/>
</g>
<!-- Node27 -->
<g id="node27" class="node"><title>Node27</title>
<g id="a_node27"><a xlink:href="d0/d92/interfacevm.html" target="_top" xlink:title="安全沙箱模块，用于隔离不同安全等级的运行环境 ">
<polygon fill="white" stroke="black" points="98.9775,-74.5 98.9775,-92.5 128.308,-92.5 128.308,-74.5 98.9775,-74.5"/>
<text text-anchor="middle" x="113.643" y="-80.5" font-family="Helvetica,sans-Serif" font-size="10.00">vm</text>
</a>
</g>
</g>
<!-- Node1&#45;&gt;Node27 -->
<g id="edge26" class="edge"><title>Node1&#45;&gt;Node27</title>
<path fill="none" stroke="midnightblue" d="M26.2007,-489.012C29.4614,-417.247 43.5768,-168.448 84.7979,-102.5 88.1479,-97.1403 93.6272,-92.9213 98.8428,-89.8344"/>
<polygon fill="midnightblue" stroke="midnightblue" points="22.6917,-489.147 25.7543,-499.29 29.6851,-489.451 22.6917,-489.147"/>
</g>
<!-- Node28 -->
<g id="node28" class="node"><title>Node28</title>
<g id="a_node28"><a xlink:href="d2/d3b/interfacexml.html" target="_top" xlink:title="xml 处理模块 ">
<polygon fill="white" stroke="black" points="97.8667,-37.5 97.8667,-55.5 129.418,-55.5 129.418,-37.5 97.8667,-37.5"/>
<text text-anchor="middle" x="113.643" y="-43.5" font-family="Helvetica,sans-Serif" font-size="10.00">xml</text>
</a>
</g>
</g>
<!-- Node1&#45;&gt;Node28 -->
<g id="edge27" class="edge"><title>Node1&#45;&gt;Node28</title>
<path fill="none" stroke="midnightblue" d="M25.9278,-489.195C28.3072,-413.591 39.9498,-138.216 84.7979,-65.5 87.87,-60.5189 92.7908,-56.5301 97.6472,-53.5184"/>
<polygon fill="midnightblue" stroke="midnightblue" points="22.429,-489.106 25.6314,-499.205 29.4259,-489.313 22.429,-489.106"/>
</g>
<!-- Node29 -->
<g id="node29" class="node"><title>Node29</title>
<g id="a_node29"><a xlink:href="df/dc6/interfacezlib.html" target="_top" xlink:title="zlib 压缩解压模块 ">
<polygon fill="white" stroke="black" points="98.1401,-0.5 98.1401,-18.5 129.145,-18.5 129.145,-0.5 98.1401,-0.5"/>
<text text-anchor="middle" x="113.643" y="-6.5" font-family="Helvetica,sans-Serif" font-size="10.00">zlib</text>
</a>
</g>
</g>
<!-- Node1&#45;&gt;Node29 -->
<g id="edge28" class="edge"><title>Node1&#45;&gt;Node29</title>
<path fill="none" stroke="midnightblue" d="M25.7045,-489.132C27.2724,-409.52 36.3611,-107.936 84.7979,-28.5 87.9056,-23.4034 92.9573,-19.3518 97.9104,-16.3217"/>
<polygon fill="midnightblue" stroke="midnightblue" points="22.2036,-489.154 25.5239,-499.215 29.2025,-489.279 22.2036,-489.154"/>
</g>
</g>
</svg>
