<?xml version="1.0" encoding="UTF-8" standalone="no"?>
<!DOCTYPE svg PUBLIC "-//W3C//DTD SVG 1.1//EN"
 "http://www.w3.org/Graphics/SVG/1.1/DTD/svg11.dtd">
<!-- Generated by graphviz version 2.40.1 (20161225.0304)
 -->
<!-- Title: ZmqSocket Pages: 1 -->
<svg width="90pt" height="244pt"
 viewBox="0.00 0.00 89.85 244.00" xmlns="http://www.w3.org/2000/svg" xmlns:xlink="http://www.w3.org/1999/xlink">
<g id="graph0" class="graph" transform="scale(1 1) rotate(0) translate(4 240)">
<title>ZmqSocket</title>
<polygon fill="#ffffff" stroke="transparent" points="-4,4 -4,-240 85.8496,-240 85.8496,4 -4,4"/>
<!-- Node0 -->
<g id="node1" class="node">
<title>Node0</title>
<polygon fill="#bfbfbf" stroke="#000000" points="0,-.5 0,-104.5 81.8496,-104.5 81.8496,-.5 0,-.5"/>
<text text-anchor="middle" x="40.9248" y="-92.5" font-family="Helvetica,sans-Serif" font-size="10.00" fill="#000000">ZmqSocket</text>
<polyline fill="none" stroke="#000000" points="0,-86.5 81.8496,-86.5 "/>
<text text-anchor="start" x="8" y="-74.5" font-family="Helvetica,sans-Serif" font-size="10.00" fill="#000000">+ type</text>
<polyline fill="none" stroke="#000000" points="0,-68.5 81.8496,-68.5 "/>
<text text-anchor="start" x="8" y="-56.5" font-family="Helvetica,sans-Serif" font-size="10.00" fill="#000000">+ ZmqSocket()</text>
<text text-anchor="start" x="8" y="-46.5" font-family="Helvetica,sans-Serif" font-size="10.00" fill="#000000">+ bind()</text>
<text text-anchor="start" x="8" y="-36.5" font-family="Helvetica,sans-Serif" font-size="10.00" fill="#000000">+ connect()</text>
<text text-anchor="start" x="8" y="-26.5" font-family="Helvetica,sans-Serif" font-size="10.00" fill="#000000">+ recv()</text>
<text text-anchor="start" x="8" y="-16.5" font-family="Helvetica,sans-Serif" font-size="10.00" fill="#000000">+ send()</text>
<text text-anchor="start" x="8" y="-6.5" font-family="Helvetica,sans-Serif" font-size="10.00" fill="#000000">+ close()</text>
</g>
<!-- Node1 -->
<g id="node2" class="node">
<title>Node1</title>
<g id="a_node2"><a xlink:href="../../db/d38/interfaceobject.html" target="_top" xlink:title="基础对象，所有对象均继承于此 ">
<polygon fill="#ffffff" stroke="#000000" points="7.7808,-141.5 7.7808,-235.5 74.0688,-235.5 74.0688,-141.5 7.7808,-141.5"/>
<text text-anchor="middle" x="40.9248" y="-223.5" font-family="Helvetica,sans-Serif" font-size="10.00" fill="#000000">object</text>
<polyline fill="none" stroke="#000000" points="7.7808,-217.5 74.0688,-217.5 "/>
<text text-anchor="middle" x="40.9248" y="-205.5" font-family="Helvetica,sans-Serif" font-size="10.00" fill="#000000"> </text>
<polyline fill="none" stroke="#000000" points="7.7808,-199.5 74.0688,-199.5 "/>
<text text-anchor="start" x="15.7808" y="-187.5" font-family="Helvetica,sans-Serif" font-size="10.00" fill="#000000">+ dispose()</text>
<text text-anchor="start" x="15.7808" y="-177.5" font-family="Helvetica,sans-Serif" font-size="10.00" fill="#000000">+ equals()</text>
<text text-anchor="start" x="15.7808" y="-167.5" font-family="Helvetica,sans-Serif" font-size="10.00" fill="#000000">+ toString()</text>
<text text-anchor="start" x="15.7808" y="-157.5" font-family="Helvetica,sans-Serif" font-size="10.00" fill="#000000">+ toJSON()</text>
<text text-anchor="start" x="15.7808" y="-147.5" font-family="Helvetica,sans-Serif" font-size="10.00" fill="#000000">+ valueOf()</text>
</a>
</g>
</g>
<!-- Node1&#45;&gt;Node0 -->
<g id="edge1" class="edge">
<title>Node1&#45;&gt;Node0</title>
<path fill="none" stroke="#191970" d="M40.9248,-131.1629C40.9248,-122.3884 40.9248,-113.3711 40.9248,-104.715"/>
<polygon fill="none" stroke="#191970" points="37.4249,-131.3154 40.9248,-141.3155 44.4249,-131.3155 37.4249,-131.3154"/>
</g>
</g>
</svg>
