<?xml version="1.0" encoding="UTF-8" standalone="no"?>
<!DOCTYPE svg PUBLIC "-//W3C//DTD SVG 1.1//EN"
 "http://www.w3.org/Graphics/SVG/1.1/DTD/svg11.dtd">
<!-- Generated by graphviz version 2.40.1 (20161225.0304)
 -->
<!-- Title: Digest Pages: 1 -->
<svg width="74pt" height="204pt"
 viewBox="0.00 0.00 74.29 204.00" xmlns="http://www.w3.org/2000/svg" xmlns:xlink="http://www.w3.org/1999/xlink">
<g id="graph0" class="graph" transform="scale(1 1) rotate(0) translate(4 200)">
<title>Digest</title>
<polygon fill="#ffffff" stroke="transparent" points="-4,4 -4,-200 70.2881,-200 70.2881,4 -4,4"/>
<!-- Node0 -->
<g id="node1" class="node">
<title>Node0</title>
<polygon fill="#bfbfbf" stroke="#000000" points="2.2119,-.5 2.2119,-74.5 64.0762,-74.5 64.0762,-.5 2.2119,-.5"/>
<text text-anchor="middle" x="33.144" y="-62.5" font-family="Helvetica,sans-Serif" font-size="10.00" fill="#000000">Digest</text>
<polyline fill="none" stroke="#000000" points="2.2119,-56.5 64.0762,-56.5 "/>
<text text-anchor="start" x="10.2119" y="-44.5" font-family="Helvetica,sans-Serif" font-size="10.00" fill="#000000">+ size</text>
<polyline fill="none" stroke="#000000" points="2.2119,-38.5 64.0762,-38.5 "/>
<text text-anchor="start" x="10.2119" y="-26.5" font-family="Helvetica,sans-Serif" font-size="10.00" fill="#000000">+ update()</text>
<text text-anchor="start" x="10.2119" y="-16.5" font-family="Helvetica,sans-Serif" font-size="10.00" fill="#000000">+ digest()</text>
<text text-anchor="start" x="10.2119" y="-6.5" font-family="Helvetica,sans-Serif" font-size="10.00" fill="#000000">+ digest()</text>
</g>
<!-- Node1 -->
<g id="node2" class="node">
<title>Node1</title>
<g id="a_node2"><a xlink:href="../../db/d38/interfaceobject.html" target="_top" xlink:title="All objects inherit from this. ">
<polygon fill="#ffffff" stroke="#000000" points="0,-111.5 0,-195.5 66.2881,-195.5 66.2881,-111.5 0,-111.5"/>
<text text-anchor="middle" x="33.144" y="-183.5" font-family="Helvetica,sans-Serif" font-size="10.00" fill="#000000">object</text>
<polyline fill="none" stroke="#000000" points="0,-177.5 66.2881,-177.5 "/>
<text text-anchor="middle" x="33.144" y="-165.5" font-family="Helvetica,sans-Serif" font-size="10.00" fill="#000000"> </text>
<polyline fill="none" stroke="#000000" points="0,-159.5 66.2881,-159.5 "/>
<text text-anchor="start" x="8" y="-147.5" font-family="Helvetica,sans-Serif" font-size="10.00" fill="#000000">+ dispose()</text>
<text text-anchor="start" x="8" y="-137.5" font-family="Helvetica,sans-Serif" font-size="10.00" fill="#000000">+ toString()</text>
<text text-anchor="start" x="8" y="-127.5" font-family="Helvetica,sans-Serif" font-size="10.00" fill="#000000">+ toJSON()</text>
<text text-anchor="start" x="8" y="-117.5" font-family="Helvetica,sans-Serif" font-size="10.00" fill="#000000">+ valueOf()</text>
</a>
</g>
</g>
<!-- Node1&#45;&gt;Node0 -->
<g id="edge1" class="edge">
<title>Node1&#45;&gt;Node0</title>
<path fill="none" stroke="#191970" d="M33.144,-101.0572C33.144,-92.2275 33.144,-83.2244 33.144,-74.8766"/>
<polygon fill="none" stroke="#191970" points="29.6441,-101.2932 33.144,-111.2932 36.6441,-101.2932 29.6441,-101.2932"/>
</g>
</g>
</svg>
