<?xml version="1.0" encoding="UTF-8" standalone="no"?>
<!DOCTYPE svg PUBLIC "-//W3C//DTD SVG 1.1//EN"
 "http://www.w3.org/Graphics/SVG/1.1/DTD/svg11.dtd">
<!-- Generated by graphviz version 2.38.0 (20140413.2041)
 -->
<!-- Title: xml Pages: 1 -->
<svg width="208pt" height="234pt"
 viewBox="0.00 0.00 207.64 234.00" xmlns="http://www.w3.org/2000/svg" xmlns:xlink="http://www.w3.org/1999/xlink">
<g id="graph0" class="graph" transform="scale(1 1) rotate(0) translate(4 230)">
<title>xml</title>
<polygon fill="white" stroke="none" points="-4,4 -4,-230 203.643,-230 203.643,4 -4,4"/>
<!-- Node1 -->
<g id="node1" class="node"><title>Node1</title>
<polygon fill="#bfbfbf" stroke="black" points="0,-0.5 0,-134.5 199.643,-134.5 199.643,-0.5 0,-0.5"/>
<text text-anchor="middle" x="99.8213" y="-122.5" font-family="Helvetica,sans-Serif" font-size="10.00">xml</text>
<polyline fill="none" stroke="black" points="0,-116.5 199.643,-116.5 "/>
<text text-anchor="start" x="8" y="-104.5" font-family="Helvetica,sans-Serif" font-size="10.00">+ ELEMENT_NODE</text>
<text text-anchor="start" x="8" y="-94.5" font-family="Helvetica,sans-Serif" font-size="10.00">+ ATTRIBUTE_NODE</text>
<text text-anchor="start" x="8" y="-84.5" font-family="Helvetica,sans-Serif" font-size="10.00">+ TEXT_NODE</text>
<text text-anchor="start" x="8" y="-74.5" font-family="Helvetica,sans-Serif" font-size="10.00">+ CDATA_SECTION_NODE</text>
<text text-anchor="start" x="8" y="-64.5" font-family="Helvetica,sans-Serif" font-size="10.00">+ PROCESSING_INSTRUCTION_NODE</text>
<text text-anchor="start" x="8" y="-54.5" font-family="Helvetica,sans-Serif" font-size="10.00">+ COMMENT_NODE</text>
<text text-anchor="start" x="8" y="-44.5" font-family="Helvetica,sans-Serif" font-size="10.00">+ DOCUMENT_NODE</text>
<text text-anchor="start" x="8" y="-34.5" font-family="Helvetica,sans-Serif" font-size="10.00">+ DOCUMENT_TYPE_NODE</text>
<polyline fill="none" stroke="black" points="0,-28.5 199.643,-28.5 "/>
<text text-anchor="start" x="8" y="-16.5" font-family="Helvetica,sans-Serif" font-size="10.00">+ Document()</text>
<text text-anchor="start" x="8" y="-6.5" font-family="Helvetica,sans-Serif" font-size="10.00">+ parse()</text>
</g>
<!-- Node2 -->
<g id="node2" class="node"><title>Node2</title>
<g id="a_node2"><a xlink:href="../../d2/d3e/interfacemodule.html" target="_top" xlink:title="基础模块对象，所有模块对象均继承于此 ">
<polygon fill="white" stroke="black" points="75.4224,-171.5 75.4224,-225.5 124.22,-225.5 124.22,-171.5 75.4224,-171.5"/>
<text text-anchor="middle" x="99.8213" y="-213.5" font-family="Helvetica,sans-Serif" font-size="10.00">module</text>
<polyline fill="none" stroke="black" points="75.4224,-207.5 124.22,-207.5 "/>
<text text-anchor="middle" x="99.8213" y="-195.5" font-family="Helvetica,sans-Serif" font-size="10.00"> </text>
<polyline fill="none" stroke="black" points="75.4224,-189.5 124.22,-189.5 "/>
<text text-anchor="middle" x="99.8213" y="-177.5" font-family="Helvetica,sans-Serif" font-size="10.00"> </text>
</a>
</g>
</g>
<!-- Node2&#45;&gt;Node1 -->
<g id="edge1" class="edge"><title>Node2&#45;&gt;Node1</title>
<path fill="none" stroke="midnightblue" d="M99.8213,-161.287C99.8213,-152.928 99.8213,-143.78 99.8213,-134.588"/>
<polygon fill="none" stroke="midnightblue" points="96.3214,-161.395 99.8213,-171.395 103.321,-161.395 96.3214,-161.395"/>
</g>
</g>
</svg>
