<?xml version="1.0" encoding="UTF-8" standalone="no"?>
<!DOCTYPE svg PUBLIC "-//W3C//DTD SVG 1.1//EN"
 "http://www.w3.org/Graphics/SVG/1.1/DTD/svg11.dtd">
<!-- Generated by graphviz version 2.40.1 (20161225.0304)
 -->
<!-- Title: WebSocketMessage Pages: 1 -->
<svg width="131pt" height="435pt"
 viewBox="0.00 0.00 130.81 435.00" xmlns="http://www.w3.org/2000/svg" xmlns:xlink="http://www.w3.org/1999/xlink">
<g id="graph0" class="graph" transform="scale(1 1) rotate(0) translate(4 431)">
<title>WebSocketMessage</title>
<polygon fill="#ffffff" stroke="transparent" points="-4,4 -4,-431 126.8115,-431 126.8115,4 -4,4"/>
<!-- Node0 -->
<g id="node1" class="node">
<title>Node0</title>
<polygon fill="#bfbfbf" stroke="#000000" points="0,-.5 0,-74.5 122.8115,-74.5 122.8115,-.5 0,-.5"/>
<text text-anchor="middle" x="61.4058" y="-62.5" font-family="Helvetica,sans-Serif" font-size="10.00" fill="#000000">WebSocketMessage</text>
<polyline fill="none" stroke="#000000" points="0,-56.5 122.8115,-56.5 "/>
<text text-anchor="start" x="8" y="-44.5" font-family="Helvetica,sans-Serif" font-size="10.00" fill="#000000">+ type</text>
<text text-anchor="start" x="8" y="-34.5" font-family="Helvetica,sans-Serif" font-size="10.00" fill="#000000">+ masked</text>
<text text-anchor="start" x="8" y="-24.5" font-family="Helvetica,sans-Serif" font-size="10.00" fill="#000000">+ maxSize</text>
<polyline fill="none" stroke="#000000" points="0,-18.5 122.8115,-18.5 "/>
<text text-anchor="start" x="8" y="-6.5" font-family="Helvetica,sans-Serif" font-size="10.00" fill="#000000">+ WebSocketMessage()</text>
</g>
<!-- Node1 -->
<g id="node2" class="node">
<title>Node1</title>
<g id="a_node2"><a xlink:href="../../d6/db7/interfaceMessage.html" target="_top" xlink:title="基础消息对象 ">
<polygon fill="#ffffff" stroke="#000000" points="24.0942,-111.5 24.0942,-295.5 98.7173,-295.5 98.7173,-111.5 24.0942,-111.5"/>
<text text-anchor="middle" x="61.4058" y="-283.5" font-family="Helvetica,sans-Serif" font-size="10.00" fill="#000000">Message</text>
<polyline fill="none" stroke="#000000" points="24.0942,-277.5 98.7173,-277.5 "/>
<text text-anchor="start" x="32.0942" y="-265.5" font-family="Helvetica,sans-Serif" font-size="10.00" fill="#000000">+ value</text>
<text text-anchor="start" x="32.0942" y="-255.5" font-family="Helvetica,sans-Serif" font-size="10.00" fill="#000000">+ params</text>
<text text-anchor="start" x="32.0942" y="-245.5" font-family="Helvetica,sans-Serif" font-size="10.00" fill="#000000">+ result</text>
<text text-anchor="start" x="32.0942" y="-235.5" font-family="Helvetica,sans-Serif" font-size="10.00" fill="#000000">+ body</text>
<text text-anchor="start" x="32.0942" y="-225.5" font-family="Helvetica,sans-Serif" font-size="10.00" fill="#000000">+ length</text>
<text text-anchor="start" x="32.0942" y="-215.5" font-family="Helvetica,sans-Serif" font-size="10.00" fill="#000000">+ stream</text>
<text text-anchor="start" x="32.0942" y="-205.5" font-family="Helvetica,sans-Serif" font-size="10.00" fill="#000000">+ response</text>
<text text-anchor="start" x="32.0942" y="-195.5" font-family="Helvetica,sans-Serif" font-size="10.00" fill="#000000">+ lastError</text>
<polyline fill="none" stroke="#000000" points="24.0942,-189.5 98.7173,-189.5 "/>
<text text-anchor="start" x="32.0942" y="-177.5" font-family="Helvetica,sans-Serif" font-size="10.00" fill="#000000">+ Message()</text>
<text text-anchor="start" x="32.0942" y="-167.5" font-family="Helvetica,sans-Serif" font-size="10.00" fill="#000000">+ read()</text>
<text text-anchor="start" x="32.0942" y="-157.5" font-family="Helvetica,sans-Serif" font-size="10.00" fill="#000000">+ readAll()</text>
<text text-anchor="start" x="32.0942" y="-147.5" font-family="Helvetica,sans-Serif" font-size="10.00" fill="#000000">+ write()</text>
<text text-anchor="start" x="32.0942" y="-137.5" font-family="Helvetica,sans-Serif" font-size="10.00" fill="#000000">+ clear()</text>
<text text-anchor="start" x="32.0942" y="-127.5" font-family="Helvetica,sans-Serif" font-size="10.00" fill="#000000">+ sendTo()</text>
<text text-anchor="start" x="32.0942" y="-117.5" font-family="Helvetica,sans-Serif" font-size="10.00" fill="#000000">+ readFrom()</text>
</a>
</g>
</g>
<!-- Node1&#45;&gt;Node0 -->
<g id="edge1" class="edge">
<title>Node1&#45;&gt;Node0</title>
<path fill="none" stroke="#191970" d="M61.4058,-101.0182C61.4058,-91.6684 61.4058,-82.6681 61.4058,-74.5293"/>
<polygon fill="none" stroke="#191970" points="57.9059,-101.2767 61.4058,-111.2767 64.9059,-101.2768 57.9059,-101.2767"/>
</g>
<!-- Node2 -->
<g id="node3" class="node">
<title>Node2</title>
<g id="a_node3"><a xlink:href="../../db/d38/interfaceobject.html" target="_top" xlink:title="基础对象，所有对象均继承于此 ">
<polygon fill="#ffffff" stroke="#000000" points="28.2617,-332.5 28.2617,-426.5 94.5498,-426.5 94.5498,-332.5 28.2617,-332.5"/>
<text text-anchor="middle" x="61.4058" y="-414.5" font-family="Helvetica,sans-Serif" font-size="10.00" fill="#000000">object</text>
<polyline fill="none" stroke="#000000" points="28.2617,-408.5 94.5498,-408.5 "/>
<text text-anchor="middle" x="61.4058" y="-396.5" font-family="Helvetica,sans-Serif" font-size="10.00" fill="#000000"> </text>
<polyline fill="none" stroke="#000000" points="28.2617,-390.5 94.5498,-390.5 "/>
<text text-anchor="start" x="36.2617" y="-378.5" font-family="Helvetica,sans-Serif" font-size="10.00" fill="#000000">+ dispose()</text>
<text text-anchor="start" x="36.2617" y="-368.5" font-family="Helvetica,sans-Serif" font-size="10.00" fill="#000000">+ equals()</text>
<text text-anchor="start" x="36.2617" y="-358.5" font-family="Helvetica,sans-Serif" font-size="10.00" fill="#000000">+ toString()</text>
<text text-anchor="start" x="36.2617" y="-348.5" font-family="Helvetica,sans-Serif" font-size="10.00" fill="#000000">+ toJSON()</text>
<text text-anchor="start" x="36.2617" y="-338.5" font-family="Helvetica,sans-Serif" font-size="10.00" fill="#000000">+ valueOf()</text>
</a>
</g>
</g>
<!-- Node2&#45;&gt;Node1 -->
<g id="edge2" class="edge">
<title>Node2&#45;&gt;Node1</title>
<path fill="none" stroke="#191970" d="M61.4058,-322.1766C61.4058,-313.6487 61.4058,-304.6815 61.4058,-295.6559"/>
<polygon fill="none" stroke="#191970" points="57.9059,-322.3352 61.4058,-332.3352 64.9059,-322.3353 57.9059,-322.3352"/>
</g>
</g>
</svg>
