<?xml version="1.0" encoding="UTF-8" standalone="no"?>
<!DOCTYPE svg PUBLIC "-//W3C//DTD SVG 1.1//EN"
 "http://www.w3.org/Graphics/SVG/1.1/DTD/svg11.dtd">
<!-- Generated by graphviz version 2.38.0 (20140413.2041)
 -->
<!-- Title: WebSocketMessage Pages: 1 -->
<svg width="131pt" height="425pt"
 viewBox="0.00 0.00 130.81 425.00" xmlns="http://www.w3.org/2000/svg" xmlns:xlink="http://www.w3.org/1999/xlink">
<g id="graph0" class="graph" transform="scale(1 1) rotate(0) translate(4 421)">
<title>WebSocketMessage</title>
<polygon fill="white" stroke="none" points="-4,4 -4,-421 126.812,-421 126.812,4 -4,4"/>
<!-- Node1 -->
<g id="node1" class="node"><title>Node1</title>
<polygon fill="#bfbfbf" stroke="black" points="0,-0.5 0,-74.5 122.812,-74.5 122.812,-0.5 0,-0.5"/>
<text text-anchor="middle" x="61.4058" y="-62.5" font-family="Helvetica,sans-Serif" font-size="10.00">WebSocketMessage</text>
<polyline fill="none" stroke="black" points="0,-56.5 122.812,-56.5 "/>
<text text-anchor="start" x="8" y="-44.5" font-family="Helvetica,sans-Serif" font-size="10.00">+ type</text>
<text text-anchor="start" x="8" y="-34.5" font-family="Helvetica,sans-Serif" font-size="10.00">+ masked</text>
<text text-anchor="start" x="8" y="-24.5" font-family="Helvetica,sans-Serif" font-size="10.00">+ maxSize</text>
<polyline fill="none" stroke="black" points="0,-18.5 122.812,-18.5 "/>
<text text-anchor="start" x="8" y="-6.5" font-family="Helvetica,sans-Serif" font-size="10.00">+ WebSocketMessage()</text>
</g>
<!-- Node2 -->
<g id="node2" class="node"><title>Node2</title>
<g id="a_node2"><a xlink:href="../../d6/db7/interfaceMessage.html" target="_top" xlink:title="基础消息对象 ">
<polygon fill="white" stroke="black" points="24.0942,-111.5 24.0942,-295.5 98.7173,-295.5 98.7173,-111.5 24.0942,-111.5"/>
<text text-anchor="middle" x="61.4058" y="-283.5" font-family="Helvetica,sans-Serif" font-size="10.00">Message</text>
<polyline fill="none" stroke="black" points="24.0942,-277.5 98.7173,-277.5 "/>
<text text-anchor="start" x="32.0942" y="-265.5" font-family="Helvetica,sans-Serif" font-size="10.00">+ value</text>
<text text-anchor="start" x="32.0942" y="-255.5" font-family="Helvetica,sans-Serif" font-size="10.00">+ params</text>
<text text-anchor="start" x="32.0942" y="-245.5" font-family="Helvetica,sans-Serif" font-size="10.00">+ result</text>
<text text-anchor="start" x="32.0942" y="-235.5" font-family="Helvetica,sans-Serif" font-size="10.00">+ body</text>
<text text-anchor="start" x="32.0942" y="-225.5" font-family="Helvetica,sans-Serif" font-size="10.00">+ length</text>
<text text-anchor="start" x="32.0942" y="-215.5" font-family="Helvetica,sans-Serif" font-size="10.00">+ stream</text>
<text text-anchor="start" x="32.0942" y="-205.5" font-family="Helvetica,sans-Serif" font-size="10.00">+ response</text>
<text text-anchor="start" x="32.0942" y="-195.5" font-family="Helvetica,sans-Serif" font-size="10.00">+ lastError</text>
<polyline fill="none" stroke="black" points="24.0942,-189.5 98.7173,-189.5 "/>
<text text-anchor="start" x="32.0942" y="-177.5" font-family="Helvetica,sans-Serif" font-size="10.00">+ Message()</text>
<text text-anchor="start" x="32.0942" y="-167.5" font-family="Helvetica,sans-Serif" font-size="10.00">+ read()</text>
<text text-anchor="start" x="32.0942" y="-157.5" font-family="Helvetica,sans-Serif" font-size="10.00">+ readAll()</text>
<text text-anchor="start" x="32.0942" y="-147.5" font-family="Helvetica,sans-Serif" font-size="10.00">+ write()</text>
<text text-anchor="start" x="32.0942" y="-137.5" font-family="Helvetica,sans-Serif" font-size="10.00">+ clear()</text>
<text text-anchor="start" x="32.0942" y="-127.5" font-family="Helvetica,sans-Serif" font-size="10.00">+ sendTo()</text>
<text text-anchor="start" x="32.0942" y="-117.5" font-family="Helvetica,sans-Serif" font-size="10.00">+ readFrom()</text>
</a>
</g>
</g>
<!-- Node2&#45;&gt;Node1 -->
<g id="edge1" class="edge"><title>Node2&#45;&gt;Node1</title>
<path fill="none" stroke="midnightblue" d="M61.4058,-101.138C61.4058,-91.7973 61.4058,-82.8123 61.4058,-74.7062"/>
<polygon fill="none" stroke="midnightblue" points="57.9059,-101.388 61.4058,-111.388 64.9059,-101.388 57.9059,-101.388"/>
</g>
<!-- Node3 -->
<g id="node3" class="node"><title>Node3</title>
<g id="a_node3"><a xlink:href="../../db/d38/interfaceobject.html" target="_top" xlink:title="基础对象，所有对象均继承于此 ">
<polygon fill="white" stroke="black" points="28.2617,-332.5 28.2617,-416.5 94.5498,-416.5 94.5498,-332.5 28.2617,-332.5"/>
<text text-anchor="middle" x="61.4058" y="-404.5" font-family="Helvetica,sans-Serif" font-size="10.00">object</text>
<polyline fill="none" stroke="black" points="28.2617,-398.5 94.5498,-398.5 "/>
<text text-anchor="middle" x="61.4058" y="-386.5" font-family="Helvetica,sans-Serif" font-size="10.00"> </text>
<polyline fill="none" stroke="black" points="28.2617,-380.5 94.5498,-380.5 "/>
<text text-anchor="start" x="36.2617" y="-368.5" font-family="Helvetica,sans-Serif" font-size="10.00">+ dispose()</text>
<text text-anchor="start" x="36.2617" y="-358.5" font-family="Helvetica,sans-Serif" font-size="10.00">+ toString()</text>
<text text-anchor="start" x="36.2617" y="-348.5" font-family="Helvetica,sans-Serif" font-size="10.00">+ toJSON()</text>
<text text-anchor="start" x="36.2617" y="-338.5" font-family="Helvetica,sans-Serif" font-size="10.00">+ valueOf()</text>
</a>
</g>
</g>
<!-- Node3&#45;&gt;Node2 -->
<g id="edge2" class="edge"><title>Node3&#45;&gt;Node2</title>
<path fill="none" stroke="midnightblue" d="M61.4058,-321.905C61.4058,-313.573 61.4058,-304.735 61.4058,-295.796"/>
<polygon fill="none" stroke="midnightblue" points="57.9059,-322.158 61.4058,-332.158 64.9059,-322.158 57.9059,-322.158"/>
</g>
</g>
</svg>
