<?xml version="1.0" encoding="UTF-8" standalone="no"?>
<!DOCTYPE svg PUBLIC "-//W3C//DTD SVG 1.1//EN"
 "http://www.w3.org/Graphics/SVG/1.1/DTD/svg11.dtd">
<!-- Generated by graphviz version 2.38.0 (20140413.2041)
 -->
<!-- Title: Trigger Pages: 1 -->
<svg width="168pt" height="445pt"
 viewBox="0.00 0.00 167.75 445.00" xmlns="http://www.w3.org/2000/svg" xmlns:xlink="http://www.w3.org/1999/xlink">
<g id="graph0" class="graph" transform="scale(1 1) rotate(0) translate(4 441)">
<title>Trigger</title>
<polygon fill="white" stroke="none" points="-4,4 -4,-441 163.749,-441 163.749,4 -4,4"/>
<!-- Node1 -->
<g id="node1" class="node"><title>Node1</title>
<polygon fill="#bfbfbf" stroke="black" points="50.6699,-171.5 50.6699,-305.5 113.081,-305.5 113.081,-171.5 50.6699,-171.5"/>
<text text-anchor="middle" x="81.8755" y="-293.5" font-family="Helvetica,sans-Serif" font-size="10.00">Trigger</text>
<polyline fill="none" stroke="black" points="50.6699,-287.5 113.081,-287.5 "/>
<text text-anchor="middle" x="81.8755" y="-275.5" font-family="Helvetica,sans-Serif" font-size="10.00"> </text>
<polyline fill="none" stroke="black" points="50.6699,-269.5 113.081,-269.5 "/>
<text text-anchor="start" x="58.6699" y="-257.5" font-family="Helvetica,sans-Serif" font-size="10.00">+ Trigger()</text>
<text text-anchor="start" x="58.6699" y="-247.5" font-family="Helvetica,sans-Serif" font-size="10.00">+ on()</text>
<text text-anchor="start" x="58.6699" y="-237.5" font-family="Helvetica,sans-Serif" font-size="10.00">+ on()</text>
<text text-anchor="start" x="58.6699" y="-227.5" font-family="Helvetica,sans-Serif" font-size="10.00">+ once()</text>
<text text-anchor="start" x="58.6699" y="-217.5" font-family="Helvetica,sans-Serif" font-size="10.00">+ once()</text>
<text text-anchor="start" x="58.6699" y="-207.5" font-family="Helvetica,sans-Serif" font-size="10.00">+ off()</text>
<text text-anchor="start" x="58.6699" y="-197.5" font-family="Helvetica,sans-Serif" font-size="10.00">+ off()</text>
<text text-anchor="start" x="58.6699" y="-187.5" font-family="Helvetica,sans-Serif" font-size="10.00">+ off()</text>
<text text-anchor="start" x="58.6699" y="-177.5" font-family="Helvetica,sans-Serif" font-size="10.00">+ trigger()</text>
</g>
<!-- Node3 -->
<g id="node3" class="node"><title>Node3</title>
<g id="a_node3"><a xlink:href="../../d1/db9/interfaceService.html" target="_top" xlink:title="系统服务管理对象 ">
<polygon fill="white" stroke="black" points="0,-0.5 0,-134.5 75.751,-134.5 75.751,-0.5 0,-0.5"/>
<text text-anchor="middle" x="37.8755" y="-122.5" font-family="Helvetica,sans-Serif" font-size="10.00">Service</text>
<polyline fill="none" stroke="black" points="0,-116.5 75.751,-116.5 "/>
<text text-anchor="start" x="8" y="-104.5" font-family="Helvetica,sans-Serif" font-size="10.00">+ name</text>
<polyline fill="none" stroke="black" points="0,-98.5 75.751,-98.5 "/>
<text text-anchor="start" x="8" y="-86.5" font-family="Helvetica,sans-Serif" font-size="10.00">+ Service()</text>
<text text-anchor="start" x="8" y="-76.5" font-family="Helvetica,sans-Serif" font-size="10.00">+ install()</text>
<text text-anchor="start" x="8" y="-66.5" font-family="Helvetica,sans-Serif" font-size="10.00">+ remove()</text>
<text text-anchor="start" x="8" y="-56.5" font-family="Helvetica,sans-Serif" font-size="10.00">+ start()</text>
<text text-anchor="start" x="8" y="-46.5" font-family="Helvetica,sans-Serif" font-size="10.00">+ stop()</text>
<text text-anchor="start" x="8" y="-36.5" font-family="Helvetica,sans-Serif" font-size="10.00">+ restart()</text>
<text text-anchor="start" x="8" y="-26.5" font-family="Helvetica,sans-Serif" font-size="10.00">+ run()</text>
<text text-anchor="start" x="8" y="-16.5" font-family="Helvetica,sans-Serif" font-size="10.00">+ isInstalled()</text>
<text text-anchor="start" x="8" y="-6.5" font-family="Helvetica,sans-Serif" font-size="10.00">+ isRunning()</text>
</a>
</g>
</g>
<!-- Node1&#45;&gt;Node3 -->
<g id="edge2" class="edge"><title>Node1&#45;&gt;Node3</title>
<path fill="none" stroke="midnightblue" d="M62.0197,-161.236C59.707,-152.353 57.3624,-143.347 55.0894,-134.617"/>
<polygon fill="none" stroke="midnightblue" points="58.7051,-162.396 64.6118,-171.192 65.4793,-160.633 58.7051,-162.396"/>
</g>
<!-- Node4 -->
<g id="node4" class="node"><title>Node4</title>
<g id="a_node4"><a xlink:href="../../d8/d79/interfaceWebView.html" target="_top" xlink:title="浏览器窗口对象 ">
<polygon fill="white" stroke="black" points="94.0024,-40.5 94.0024,-94.5 159.749,-94.5 159.749,-40.5 94.0024,-40.5"/>
<text text-anchor="middle" x="126.875" y="-82.5" font-family="Helvetica,sans-Serif" font-size="10.00">WebView</text>
<polyline fill="none" stroke="black" points="94.0024,-76.5 159.749,-76.5 "/>
<text text-anchor="middle" x="126.875" y="-64.5" font-family="Helvetica,sans-Serif" font-size="10.00"> </text>
<polyline fill="none" stroke="black" points="94.0024,-58.5 159.749,-58.5 "/>
<text text-anchor="start" x="102.002" y="-46.5" font-family="Helvetica,sans-Serif" font-size="10.00">+ onclose()</text>
</a>
</g>
</g>
<!-- Node1&#45;&gt;Node4 -->
<g id="edge3" class="edge"><title>Node1&#45;&gt;Node4</title>
<path fill="none" stroke="midnightblue" d="M102.15,-161.357C108.532,-137.389 115.155,-112.516 119.939,-94.5518"/>
<polygon fill="none" stroke="midnightblue" points="98.7225,-160.628 99.5315,-171.192 105.487,-162.429 98.7225,-160.628"/>
</g>
<!-- Node2 -->
<g id="node2" class="node"><title>Node2</title>
<g id="a_node2"><a xlink:href="../../db/d38/interfaceobject.html" target="_top" xlink:title="基础对象，所有对象均继承于此 ">
<polygon fill="white" stroke="black" points="48.7314,-342.5 48.7314,-436.5 115.02,-436.5 115.02,-342.5 48.7314,-342.5"/>
<text text-anchor="middle" x="81.8755" y="-424.5" font-family="Helvetica,sans-Serif" font-size="10.00">object</text>
<polyline fill="none" stroke="black" points="48.7314,-418.5 115.02,-418.5 "/>
<text text-anchor="middle" x="81.8755" y="-406.5" font-family="Helvetica,sans-Serif" font-size="10.00"> </text>
<polyline fill="none" stroke="black" points="48.7314,-400.5 115.02,-400.5 "/>
<text text-anchor="start" x="56.7314" y="-388.5" font-family="Helvetica,sans-Serif" font-size="10.00">+ dispose()</text>
<text text-anchor="start" x="56.7314" y="-378.5" font-family="Helvetica,sans-Serif" font-size="10.00">+ equals()</text>
<text text-anchor="start" x="56.7314" y="-368.5" font-family="Helvetica,sans-Serif" font-size="10.00">+ toString()</text>
<text text-anchor="start" x="56.7314" y="-358.5" font-family="Helvetica,sans-Serif" font-size="10.00">+ toJSON()</text>
<text text-anchor="start" x="56.7314" y="-348.5" font-family="Helvetica,sans-Serif" font-size="10.00">+ valueOf()</text>
</a>
</g>
</g>
<!-- Node2&#45;&gt;Node1 -->
<g id="edge1" class="edge"><title>Node2&#45;&gt;Node1</title>
<path fill="none" stroke="midnightblue" d="M81.8755,-331.939C81.8755,-323.387 81.8755,-314.499 81.8755,-305.764"/>
<polygon fill="none" stroke="midnightblue" points="78.3756,-332.172 81.8755,-342.172 85.3756,-332.172 78.3756,-332.172"/>
</g>
</g>
</svg>
