<?xml version="1.0" encoding="UTF-8" standalone="no"?>
<!DOCTYPE svg PUBLIC "-//W3C//DTD SVG 1.1//EN"
 "http://www.w3.org/Graphics/SVG/1.1/DTD/svg11.dtd">
<!-- Generated by graphviz version 2.38.0 (20140413.2041)
 -->
<!-- Title: Trigger Pages: 1 -->
<svg width="303pt" height="565pt"
 viewBox="0.00 0.00 302.64 565.00" xmlns="http://www.w3.org/2000/svg" xmlns:xlink="http://www.w3.org/1999/xlink">
<g id="graph0" class="graph" transform="scale(1 1) rotate(0) translate(4 561)">
<title>Trigger</title>
<polygon fill="white" stroke="none" points="-4,4 -4,-561 298.638,-561 298.638,4 -4,4"/>
<!-- Node1 -->
<g id="node1" class="node"><title>Node1</title>
<polygon fill="#bfbfbf" stroke="black" points="88.1035,-201.5 88.1035,-425.5 204.416,-425.5 204.416,-201.5 88.1035,-201.5"/>
<text text-anchor="middle" x="146.26" y="-413.5" font-family="Helvetica,sans-Serif" font-size="10.00">Trigger</text>
<polyline fill="none" stroke="black" points="88.1035,-407.5 204.416,-407.5 "/>
<text text-anchor="middle" x="146.26" y="-395.5" font-family="Helvetica,sans-Serif" font-size="10.00"> </text>
<polyline fill="none" stroke="black" points="88.1035,-389.5 204.416,-389.5 "/>
<text text-anchor="start" x="96.1035" y="-377.5" font-family="Helvetica,sans-Serif" font-size="10.00">+ Trigger()</text>
<text text-anchor="start" x="96.1035" y="-367.5" font-family="Helvetica,sans-Serif" font-size="10.00">+ on()</text>
<text text-anchor="start" x="96.1035" y="-357.5" font-family="Helvetica,sans-Serif" font-size="10.00">+ on()</text>
<text text-anchor="start" x="96.1035" y="-347.5" font-family="Helvetica,sans-Serif" font-size="10.00">+ addListener()</text>
<text text-anchor="start" x="96.1035" y="-337.5" font-family="Helvetica,sans-Serif" font-size="10.00">+ addListener()</text>
<text text-anchor="start" x="96.1035" y="-327.5" font-family="Helvetica,sans-Serif" font-size="10.00">+ once()</text>
<text text-anchor="start" x="96.1035" y="-317.5" font-family="Helvetica,sans-Serif" font-size="10.00">+ once()</text>
<text text-anchor="start" x="96.1035" y="-307.5" font-family="Helvetica,sans-Serif" font-size="10.00">+ off()</text>
<text text-anchor="start" x="96.1035" y="-297.5" font-family="Helvetica,sans-Serif" font-size="10.00">+ off()</text>
<text text-anchor="start" x="96.1035" y="-287.5" font-family="Helvetica,sans-Serif" font-size="10.00">+ off()</text>
<text text-anchor="start" x="96.1035" y="-277.5" font-family="Helvetica,sans-Serif" font-size="10.00">+ removeListener()</text>
<text text-anchor="start" x="96.1035" y="-267.5" font-family="Helvetica,sans-Serif" font-size="10.00">+ removeListener()</text>
<text text-anchor="start" x="96.1035" y="-257.5" font-family="Helvetica,sans-Serif" font-size="10.00">+ removeListener()</text>
<text text-anchor="start" x="96.1035" y="-247.5" font-family="Helvetica,sans-Serif" font-size="10.00">+ removeAllListeners()</text>
<text text-anchor="start" x="96.1035" y="-237.5" font-family="Helvetica,sans-Serif" font-size="10.00">+ setMaxListeners()</text>
<text text-anchor="start" x="96.1035" y="-227.5" font-family="Helvetica,sans-Serif" font-size="10.00">+ listeners()</text>
<text text-anchor="start" x="96.1035" y="-217.5" font-family="Helvetica,sans-Serif" font-size="10.00">+ trigger()</text>
<text text-anchor="start" x="96.1035" y="-207.5" font-family="Helvetica,sans-Serif" font-size="10.00">+ emit()</text>
</g>
<!-- Node3 -->
<g id="node3" class="node"><title>Node3</title>
<g id="a_node3"><a xlink:href="../../dd/df3/interfaceEventEmitter.html" target="_top" xlink:title="事件触发对象，可用于建立观察者模式，支持事件触发的对象均继承于此，同一事件的同一函数只会产生一次回调 ...">
<polygon fill="white" stroke="black" points="0,-55.5 0,-109.5 88.5195,-109.5 88.5195,-55.5 0,-55.5"/>
<text text-anchor="middle" x="44.2598" y="-97.5" font-family="Helvetica,sans-Serif" font-size="10.00">EventEmitter</text>
<polyline fill="none" stroke="black" points="0,-91.5 88.5195,-91.5 "/>
<text text-anchor="middle" x="44.2598" y="-79.5" font-family="Helvetica,sans-Serif" font-size="10.00"> </text>
<polyline fill="none" stroke="black" points="0,-73.5 88.5195,-73.5 "/>
<text text-anchor="start" x="8" y="-61.5" font-family="Helvetica,sans-Serif" font-size="10.00">+ EventEmitter()</text>
</a>
</g>
</g>
<!-- Node1&#45;&gt;Node3 -->
<g id="edge2" class="edge"><title>Node1&#45;&gt;Node3</title>
<path fill="none" stroke="midnightblue" d="M92.6491,-192.139C78.8006,-161.048 65.2095,-130.534 55.9745,-109.801"/>
<polygon fill="none" stroke="midnightblue" points="89.4877,-193.643 96.7537,-201.354 95.8821,-190.795 89.4877,-193.643"/>
</g>
<!-- Node4 -->
<g id="node4" class="node"><title>Node4</title>
<g id="a_node4"><a xlink:href="../../d1/db9/interfaceService.html" target="_top" xlink:title="系统服务管理对象 ">
<polygon fill="white" stroke="black" points="106.155,-0.5 106.155,-164.5 186.364,-164.5 186.364,-0.5 106.155,-0.5"/>
<text text-anchor="middle" x="146.26" y="-152.5" font-family="Helvetica,sans-Serif" font-size="10.00">Service</text>
<polyline fill="none" stroke="black" points="106.155,-146.5 186.364,-146.5 "/>
<text text-anchor="start" x="114.155" y="-134.5" font-family="Helvetica,sans-Serif" font-size="10.00">+ name</text>
<polyline fill="none" stroke="black" points="106.155,-128.5 186.364,-128.5 "/>
<text text-anchor="start" x="114.155" y="-116.5" font-family="Helvetica,sans-Serif" font-size="10.00">+ Service()</text>
<text text-anchor="start" x="114.155" y="-106.5" font-family="Helvetica,sans-Serif" font-size="10.00">+ install()</text>
<text text-anchor="start" x="114.155" y="-96.5" font-family="Helvetica,sans-Serif" font-size="10.00">+ remove()</text>
<text text-anchor="start" x="114.155" y="-86.5" font-family="Helvetica,sans-Serif" font-size="10.00">+ start()</text>
<text text-anchor="start" x="114.155" y="-76.5" font-family="Helvetica,sans-Serif" font-size="10.00">+ stop()</text>
<text text-anchor="start" x="114.155" y="-66.5" font-family="Helvetica,sans-Serif" font-size="10.00">+ restart()</text>
<text text-anchor="start" x="114.155" y="-56.5" font-family="Helvetica,sans-Serif" font-size="10.00">+ run()</text>
<text text-anchor="start" x="114.155" y="-46.5" font-family="Helvetica,sans-Serif" font-size="10.00">+ isInstalled()</text>
<text text-anchor="start" x="114.155" y="-36.5" font-family="Helvetica,sans-Serif" font-size="10.00">+ isRunning()</text>
<text text-anchor="start" x="114.155" y="-26.5" font-family="Helvetica,sans-Serif" font-size="10.00">+ onstop()</text>
<text text-anchor="start" x="114.155" y="-16.5" font-family="Helvetica,sans-Serif" font-size="10.00">+ onpause()</text>
<text text-anchor="start" x="114.155" y="-6.5" font-family="Helvetica,sans-Serif" font-size="10.00">+ oncontinue()</text>
</a>
</g>
</g>
<!-- Node1&#45;&gt;Node4 -->
<g id="edge3" class="edge"><title>Node1&#45;&gt;Node4</title>
<path fill="none" stroke="midnightblue" d="M146.26,-191.165C146.26,-182.151 146.26,-173.194 146.26,-164.518"/>
<polygon fill="none" stroke="midnightblue" points="142.76,-191.354 146.26,-201.354 149.76,-191.354 142.76,-191.354"/>
</g>
<!-- Node5 -->
<g id="node5" class="node"><title>Node5</title>
<g id="a_node5"><a xlink:href="../../d8/d79/interfaceWebView.html" target="_top" xlink:title="浏览器窗口对象 ">
<polygon fill="white" stroke="black" points="203.882,-25.5 203.882,-139.5 294.638,-139.5 294.638,-25.5 203.882,-25.5"/>
<text text-anchor="middle" x="249.26" y="-127.5" font-family="Helvetica,sans-Serif" font-size="10.00">WebView</text>
<polyline fill="none" stroke="black" points="203.882,-121.5 294.638,-121.5 "/>
<text text-anchor="middle" x="249.26" y="-109.5" font-family="Helvetica,sans-Serif" font-size="10.00"> </text>
<polyline fill="none" stroke="black" points="203.882,-103.5 294.638,-103.5 "/>
<text text-anchor="start" x="211.882" y="-91.5" font-family="Helvetica,sans-Serif" font-size="10.00">+ close()</text>
<text text-anchor="start" x="211.882" y="-81.5" font-family="Helvetica,sans-Serif" font-size="10.00">+ wait()</text>
<text text-anchor="start" x="211.882" y="-71.5" font-family="Helvetica,sans-Serif" font-size="10.00">+ postMessage()</text>
<text text-anchor="start" x="211.882" y="-61.5" font-family="Helvetica,sans-Serif" font-size="10.00">+ onmove()</text>
<text text-anchor="start" x="211.882" y="-51.5" font-family="Helvetica,sans-Serif" font-size="10.00">+ onsize()</text>
<text text-anchor="start" x="211.882" y="-41.5" font-family="Helvetica,sans-Serif" font-size="10.00">+ onclose()</text>
<text text-anchor="start" x="211.882" y="-31.5" font-family="Helvetica,sans-Serif" font-size="10.00">+ onmessage()</text>
</a>
</g>
</g>
<!-- Node1&#45;&gt;Node5 -->
<g id="edge4" class="edge"><title>Node1&#45;&gt;Node5</title>
<path fill="none" stroke="midnightblue" d="M200.43,-192.064C208.666,-173.752 216.812,-155.642 224.02,-139.616"/>
<polygon fill="none" stroke="midnightblue" points="197.161,-190.798 196.251,-201.354 203.545,-193.67 197.161,-190.798"/>
</g>
<!-- Node2 -->
<g id="node2" class="node"><title>Node2</title>
<g id="a_node2"><a xlink:href="../../db/d38/interfaceobject.html" target="_top" xlink:title="基础对象，所有对象均继承于此 ">
<polygon fill="white" stroke="black" points="113.116,-462.5 113.116,-556.5 179.404,-556.5 179.404,-462.5 113.116,-462.5"/>
<text text-anchor="middle" x="146.26" y="-544.5" font-family="Helvetica,sans-Serif" font-size="10.00">object</text>
<polyline fill="none" stroke="black" points="113.116,-538.5 179.404,-538.5 "/>
<text text-anchor="middle" x="146.26" y="-526.5" font-family="Helvetica,sans-Serif" font-size="10.00"> </text>
<polyline fill="none" stroke="black" points="113.116,-520.5 179.404,-520.5 "/>
<text text-anchor="start" x="121.116" y="-508.5" font-family="Helvetica,sans-Serif" font-size="10.00">+ dispose()</text>
<text text-anchor="start" x="121.116" y="-498.5" font-family="Helvetica,sans-Serif" font-size="10.00">+ equals()</text>
<text text-anchor="start" x="121.116" y="-488.5" font-family="Helvetica,sans-Serif" font-size="10.00">+ toString()</text>
<text text-anchor="start" x="121.116" y="-478.5" font-family="Helvetica,sans-Serif" font-size="10.00">+ toJSON()</text>
<text text-anchor="start" x="121.116" y="-468.5" font-family="Helvetica,sans-Serif" font-size="10.00">+ valueOf()</text>
</a>
</g>
</g>
<!-- Node2&#45;&gt;Node1 -->
<g id="edge1" class="edge"><title>Node2&#45;&gt;Node1</title>
<path fill="none" stroke="midnightblue" d="M146.26,-452.02C146.26,-443.592 146.26,-434.666 146.26,-425.571"/>
<polygon fill="none" stroke="midnightblue" points="142.76,-452.032 146.26,-462.032 149.76,-452.032 142.76,-452.032"/>
</g>
</g>
</svg>
