<?xml version="1.0" encoding="UTF-8" standalone="no"?>
<!DOCTYPE svg PUBLIC "-//W3C//DTD SVG 1.1//EN"
 "http://www.w3.org/Graphics/SVG/1.1/DTD/svg11.dtd">
<!-- Generated by graphviz version 2.38.0 (20140413.2041)
 -->
<!-- Title: Trigger Pages: 1 -->
<svg width="196pt" height="475pt"
 viewBox="0.00 0.00 196.48 475.00" xmlns="http://www.w3.org/2000/svg" xmlns:xlink="http://www.w3.org/1999/xlink">
<g id="graph0" class="graph" transform="scale(1 1) rotate(0) translate(4 471)">
<title>Trigger</title>
<polygon fill="white" stroke="none" points="-4,4 -4,-471 192.482,-471 192.482,4 -4,4"/>
<!-- Node1 -->
<g id="node1" class="node"><title>Node1</title>
<polygon fill="#bfbfbf" stroke="black" points="59.8989,-201.5 59.8989,-335.5 122.31,-335.5 122.31,-201.5 59.8989,-201.5"/>
<text text-anchor="middle" x="91.1045" y="-323.5" font-family="Helvetica,sans-Serif" font-size="10.00">Trigger</text>
<polyline fill="none" stroke="black" points="59.8989,-317.5 122.31,-317.5 "/>
<text text-anchor="middle" x="91.1045" y="-305.5" font-family="Helvetica,sans-Serif" font-size="10.00"> </text>
<polyline fill="none" stroke="black" points="59.8989,-299.5 122.31,-299.5 "/>
<text text-anchor="start" x="67.8989" y="-287.5" font-family="Helvetica,sans-Serif" font-size="10.00">+ Trigger()</text>
<text text-anchor="start" x="67.8989" y="-277.5" font-family="Helvetica,sans-Serif" font-size="10.00">+ on()</text>
<text text-anchor="start" x="67.8989" y="-267.5" font-family="Helvetica,sans-Serif" font-size="10.00">+ on()</text>
<text text-anchor="start" x="67.8989" y="-257.5" font-family="Helvetica,sans-Serif" font-size="10.00">+ once()</text>
<text text-anchor="start" x="67.8989" y="-247.5" font-family="Helvetica,sans-Serif" font-size="10.00">+ once()</text>
<text text-anchor="start" x="67.8989" y="-237.5" font-family="Helvetica,sans-Serif" font-size="10.00">+ off()</text>
<text text-anchor="start" x="67.8989" y="-227.5" font-family="Helvetica,sans-Serif" font-size="10.00">+ off()</text>
<text text-anchor="start" x="67.8989" y="-217.5" font-family="Helvetica,sans-Serif" font-size="10.00">+ off()</text>
<text text-anchor="start" x="67.8989" y="-207.5" font-family="Helvetica,sans-Serif" font-size="10.00">+ trigger()</text>
</g>
<!-- Node3 -->
<g id="node3" class="node"><title>Node3</title>
<g id="a_node3"><a xlink:href="../../d1/db9/interfaceService.html" target="_top" xlink:title="系统服务管理对象 ">
<polygon fill="white" stroke="black" points="0,-0.5 0,-164.5 80.209,-164.5 80.209,-0.5 0,-0.5"/>
<text text-anchor="middle" x="40.1045" y="-152.5" font-family="Helvetica,sans-Serif" font-size="10.00">Service</text>
<polyline fill="none" stroke="black" points="0,-146.5 80.209,-146.5 "/>
<text text-anchor="start" x="8" y="-134.5" font-family="Helvetica,sans-Serif" font-size="10.00">+ name</text>
<polyline fill="none" stroke="black" points="0,-128.5 80.209,-128.5 "/>
<text text-anchor="start" x="8" y="-116.5" font-family="Helvetica,sans-Serif" font-size="10.00">+ Service()</text>
<text text-anchor="start" x="8" y="-106.5" font-family="Helvetica,sans-Serif" font-size="10.00">+ install()</text>
<text text-anchor="start" x="8" y="-96.5" font-family="Helvetica,sans-Serif" font-size="10.00">+ remove()</text>
<text text-anchor="start" x="8" y="-86.5" font-family="Helvetica,sans-Serif" font-size="10.00">+ start()</text>
<text text-anchor="start" x="8" y="-76.5" font-family="Helvetica,sans-Serif" font-size="10.00">+ stop()</text>
<text text-anchor="start" x="8" y="-66.5" font-family="Helvetica,sans-Serif" font-size="10.00">+ restart()</text>
<text text-anchor="start" x="8" y="-56.5" font-family="Helvetica,sans-Serif" font-size="10.00">+ run()</text>
<text text-anchor="start" x="8" y="-46.5" font-family="Helvetica,sans-Serif" font-size="10.00">+ isInstalled()</text>
<text text-anchor="start" x="8" y="-36.5" font-family="Helvetica,sans-Serif" font-size="10.00">+ isRunning()</text>
<text text-anchor="start" x="8" y="-26.5" font-family="Helvetica,sans-Serif" font-size="10.00">+ onstop()</text>
<text text-anchor="start" x="8" y="-16.5" font-family="Helvetica,sans-Serif" font-size="10.00">+ onpause()</text>
<text text-anchor="start" x="8" y="-6.5" font-family="Helvetica,sans-Serif" font-size="10.00">+ oncontinue()</text>
</a>
</g>
</g>
<!-- Node1&#45;&gt;Node3 -->
<g id="edge2" class="edge"><title>Node1&#45;&gt;Node3</title>
<path fill="none" stroke="midnightblue" d="M70.0367,-191.491C67.5953,-182.683 65.0981,-173.673 62.6381,-164.798"/>
<polygon fill="none" stroke="midnightblue" points="66.7204,-192.63 72.7644,-201.332 73.4661,-190.76 66.7204,-192.63"/>
</g>
<!-- Node4 -->
<g id="node4" class="node"><title>Node4</title>
<g id="a_node4"><a xlink:href="../../d8/d79/interfaceWebView.html" target="_top" xlink:title="浏览器窗口对象 ">
<polygon fill="white" stroke="black" points="97.7266,-25.5 97.7266,-139.5 188.482,-139.5 188.482,-25.5 97.7266,-25.5"/>
<text text-anchor="middle" x="143.104" y="-127.5" font-family="Helvetica,sans-Serif" font-size="10.00">WebView</text>
<polyline fill="none" stroke="black" points="97.7266,-121.5 188.482,-121.5 "/>
<text text-anchor="middle" x="143.104" y="-109.5" font-family="Helvetica,sans-Serif" font-size="10.00"> </text>
<polyline fill="none" stroke="black" points="97.7266,-103.5 188.482,-103.5 "/>
<text text-anchor="start" x="105.727" y="-91.5" font-family="Helvetica,sans-Serif" font-size="10.00">+ close()</text>
<text text-anchor="start" x="105.727" y="-81.5" font-family="Helvetica,sans-Serif" font-size="10.00">+ wait()</text>
<text text-anchor="start" x="105.727" y="-71.5" font-family="Helvetica,sans-Serif" font-size="10.00">+ postMessage()</text>
<text text-anchor="start" x="105.727" y="-61.5" font-family="Helvetica,sans-Serif" font-size="10.00">+ onmove()</text>
<text text-anchor="start" x="105.727" y="-51.5" font-family="Helvetica,sans-Serif" font-size="10.00">+ onsize()</text>
<text text-anchor="start" x="105.727" y="-41.5" font-family="Helvetica,sans-Serif" font-size="10.00">+ onclose()</text>
<text text-anchor="start" x="105.727" y="-31.5" font-family="Helvetica,sans-Serif" font-size="10.00">+ onmessage()</text>
</a>
</g>
</g>
<!-- Node1&#45;&gt;Node4 -->
<g id="edge3" class="edge"><title>Node1&#45;&gt;Node4</title>
<path fill="none" stroke="midnightblue" d="M112.649,-191.266C117.532,-173.987 122.631,-155.944 127.23,-139.673"/>
<polygon fill="none" stroke="midnightblue" points="109.156,-190.757 109.804,-201.332 115.892,-192.661 109.156,-190.757"/>
</g>
<!-- Node2 -->
<g id="node2" class="node"><title>Node2</title>
<g id="a_node2"><a xlink:href="../../db/d38/interfaceobject.html" target="_top" xlink:title="基础对象，所有对象均继承于此 ">
<polygon fill="white" stroke="black" points="57.9604,-372.5 57.9604,-466.5 124.249,-466.5 124.249,-372.5 57.9604,-372.5"/>
<text text-anchor="middle" x="91.1045" y="-454.5" font-family="Helvetica,sans-Serif" font-size="10.00">object</text>
<polyline fill="none" stroke="black" points="57.9604,-448.5 124.249,-448.5 "/>
<text text-anchor="middle" x="91.1045" y="-436.5" font-family="Helvetica,sans-Serif" font-size="10.00"> </text>
<polyline fill="none" stroke="black" points="57.9604,-430.5 124.249,-430.5 "/>
<text text-anchor="start" x="65.9604" y="-418.5" font-family="Helvetica,sans-Serif" font-size="10.00">+ dispose()</text>
<text text-anchor="start" x="65.9604" y="-408.5" font-family="Helvetica,sans-Serif" font-size="10.00">+ equals()</text>
<text text-anchor="start" x="65.9604" y="-398.5" font-family="Helvetica,sans-Serif" font-size="10.00">+ toString()</text>
<text text-anchor="start" x="65.9604" y="-388.5" font-family="Helvetica,sans-Serif" font-size="10.00">+ toJSON()</text>
<text text-anchor="start" x="65.9604" y="-378.5" font-family="Helvetica,sans-Serif" font-size="10.00">+ valueOf()</text>
</a>
</g>
</g>
<!-- Node2&#45;&gt;Node1 -->
<g id="edge1" class="edge"><title>Node2&#45;&gt;Node1</title>
<path fill="none" stroke="midnightblue" d="M91.1045,-361.939C91.1045,-353.387 91.1045,-344.499 91.1045,-335.764"/>
<polygon fill="none" stroke="midnightblue" points="87.6046,-362.172 91.1045,-372.172 94.6046,-362.172 87.6046,-362.172"/>
</g>
</g>
</svg>
