<?xml version="1.0" encoding="UTF-8" standalone="no"?>
<!DOCTYPE svg PUBLIC "-//W3C//DTD SVG 1.1//EN"
 "http://www.w3.org/Graphics/SVG/1.1/DTD/svg11.dtd">
<!-- Generated by graphviz version 2.38.0 (20140413.2041)
 -->
<!-- Title: Trigger Pages: 1 -->
<svg width="172pt" height="475pt"
 viewBox="0.00 0.00 171.98 475.00" xmlns="http://www.w3.org/2000/svg" xmlns:xlink="http://www.w3.org/1999/xlink">
<g id="graph0" class="graph" transform="scale(1 1) rotate(0) translate(4 471)">
<title>Trigger</title>
<polygon fill="white" stroke="none" points="-4,4 -4,-471 167.978,-471 167.978,4 -4,4"/>
<!-- Node1 -->
<g id="node1" class="node"><title>Node1</title>
<polygon fill="#bfbfbf" stroke="black" points="53.8989,-201.5 53.8989,-335.5 116.31,-335.5 116.31,-201.5 53.8989,-201.5"/>
<text text-anchor="middle" x="85.1045" y="-323.5" font-family="Helvetica,sans-Serif" font-size="10.00">Trigger</text>
<polyline fill="none" stroke="black" points="53.8989,-317.5 116.31,-317.5 "/>
<text text-anchor="middle" x="85.1045" y="-305.5" font-family="Helvetica,sans-Serif" font-size="10.00"> </text>
<polyline fill="none" stroke="black" points="53.8989,-299.5 116.31,-299.5 "/>
<text text-anchor="start" x="61.8989" y="-287.5" font-family="Helvetica,sans-Serif" font-size="10.00">+ Trigger()</text>
<text text-anchor="start" x="61.8989" y="-277.5" font-family="Helvetica,sans-Serif" font-size="10.00">+ on()</text>
<text text-anchor="start" x="61.8989" y="-267.5" font-family="Helvetica,sans-Serif" font-size="10.00">+ on()</text>
<text text-anchor="start" x="61.8989" y="-257.5" font-family="Helvetica,sans-Serif" font-size="10.00">+ once()</text>
<text text-anchor="start" x="61.8989" y="-247.5" font-family="Helvetica,sans-Serif" font-size="10.00">+ once()</text>
<text text-anchor="start" x="61.8989" y="-237.5" font-family="Helvetica,sans-Serif" font-size="10.00">+ off()</text>
<text text-anchor="start" x="61.8989" y="-227.5" font-family="Helvetica,sans-Serif" font-size="10.00">+ off()</text>
<text text-anchor="start" x="61.8989" y="-217.5" font-family="Helvetica,sans-Serif" font-size="10.00">+ off()</text>
<text text-anchor="start" x="61.8989" y="-207.5" font-family="Helvetica,sans-Serif" font-size="10.00">+ trigger()</text>
</g>
<!-- Node3 -->
<g id="node3" class="node"><title>Node3</title>
<g id="a_node3"><a xlink:href="../../d1/db9/interfaceService.html" target="_top" xlink:title="系统服务管理对象 ">
<polygon fill="white" stroke="black" points="0,-0.5 0,-164.5 80.209,-164.5 80.209,-0.5 0,-0.5"/>
<text text-anchor="middle" x="40.1045" y="-152.5" font-family="Helvetica,sans-Serif" font-size="10.00">Service</text>
<polyline fill="none" stroke="black" points="0,-146.5 80.209,-146.5 "/>
<text text-anchor="start" x="8" y="-134.5" font-family="Helvetica,sans-Serif" font-size="10.00">+ name</text>
<polyline fill="none" stroke="black" points="0,-128.5 80.209,-128.5 "/>
<text text-anchor="start" x="8" y="-116.5" font-family="Helvetica,sans-Serif" font-size="10.00">+ Service()</text>
<text text-anchor="start" x="8" y="-106.5" font-family="Helvetica,sans-Serif" font-size="10.00">+ install()</text>
<text text-anchor="start" x="8" y="-96.5" font-family="Helvetica,sans-Serif" font-size="10.00">+ remove()</text>
<text text-anchor="start" x="8" y="-86.5" font-family="Helvetica,sans-Serif" font-size="10.00">+ start()</text>
<text text-anchor="start" x="8" y="-76.5" font-family="Helvetica,sans-Serif" font-size="10.00">+ stop()</text>
<text text-anchor="start" x="8" y="-66.5" font-family="Helvetica,sans-Serif" font-size="10.00">+ restart()</text>
<text text-anchor="start" x="8" y="-56.5" font-family="Helvetica,sans-Serif" font-size="10.00">+ run()</text>
<text text-anchor="start" x="8" y="-46.5" font-family="Helvetica,sans-Serif" font-size="10.00">+ isInstalled()</text>
<text text-anchor="start" x="8" y="-36.5" font-family="Helvetica,sans-Serif" font-size="10.00">+ isRunning()</text>
<text text-anchor="start" x="8" y="-26.5" font-family="Helvetica,sans-Serif" font-size="10.00">+ onstop()</text>
<text text-anchor="start" x="8" y="-16.5" font-family="Helvetica,sans-Serif" font-size="10.00">+ onpause()</text>
<text text-anchor="start" x="8" y="-6.5" font-family="Helvetica,sans-Serif" font-size="10.00">+ oncontinue()</text>
</a>
</g>
</g>
<!-- Node1&#45;&gt;Node3 -->
<g id="edge2" class="edge"><title>Node1&#45;&gt;Node3</title>
<path fill="none" stroke="midnightblue" d="M66.5153,-191.491C64.3611,-182.683 62.1576,-173.673 59.9871,-164.798"/>
<polygon fill="none" stroke="midnightblue" points="63.1465,-192.45 68.922,-201.332 69.9461,-190.787 63.1465,-192.45"/>
</g>
<!-- Node4 -->
<g id="node4" class="node"><title>Node4</title>
<g id="a_node4"><a xlink:href="../../d8/d79/interfaceWebView.html" target="_top" xlink:title="浏览器窗口对象 ">
<polygon fill="white" stroke="black" points="98.2314,-55.5 98.2314,-109.5 163.978,-109.5 163.978,-55.5 98.2314,-55.5"/>
<text text-anchor="middle" x="131.104" y="-97.5" font-family="Helvetica,sans-Serif" font-size="10.00">WebView</text>
<polyline fill="none" stroke="black" points="98.2314,-91.5 163.978,-91.5 "/>
<text text-anchor="middle" x="131.104" y="-79.5" font-family="Helvetica,sans-Serif" font-size="10.00"> </text>
<polyline fill="none" stroke="black" points="98.2314,-73.5 163.978,-73.5 "/>
<text text-anchor="start" x="106.231" y="-61.5" font-family="Helvetica,sans-Serif" font-size="10.00">+ onclose()</text>
</a>
</g>
</g>
<!-- Node1&#45;&gt;Node4 -->
<g id="edge3" class="edge"><title>Node1&#45;&gt;Node4</title>
<path fill="none" stroke="midnightblue" d="M104.094,-191.543C111.386,-162.374 119.233,-130.986 124.58,-109.599"/>
<polygon fill="none" stroke="midnightblue" points="100.676,-190.781 101.647,-201.332 107.467,-192.479 100.676,-190.781"/>
</g>
<!-- Node2 -->
<g id="node2" class="node"><title>Node2</title>
<g id="a_node2"><a xlink:href="../../db/d38/interfaceobject.html" target="_top" xlink:title="基础对象，所有对象均继承于此 ">
<polygon fill="white" stroke="black" points="51.9604,-372.5 51.9604,-466.5 118.249,-466.5 118.249,-372.5 51.9604,-372.5"/>
<text text-anchor="middle" x="85.1045" y="-454.5" font-family="Helvetica,sans-Serif" font-size="10.00">object</text>
<polyline fill="none" stroke="black" points="51.9604,-448.5 118.249,-448.5 "/>
<text text-anchor="middle" x="85.1045" y="-436.5" font-family="Helvetica,sans-Serif" font-size="10.00"> </text>
<polyline fill="none" stroke="black" points="51.9604,-430.5 118.249,-430.5 "/>
<text text-anchor="start" x="59.9604" y="-418.5" font-family="Helvetica,sans-Serif" font-size="10.00">+ dispose()</text>
<text text-anchor="start" x="59.9604" y="-408.5" font-family="Helvetica,sans-Serif" font-size="10.00">+ equals()</text>
<text text-anchor="start" x="59.9604" y="-398.5" font-family="Helvetica,sans-Serif" font-size="10.00">+ toString()</text>
<text text-anchor="start" x="59.9604" y="-388.5" font-family="Helvetica,sans-Serif" font-size="10.00">+ toJSON()</text>
<text text-anchor="start" x="59.9604" y="-378.5" font-family="Helvetica,sans-Serif" font-size="10.00">+ valueOf()</text>
</a>
</g>
</g>
<!-- Node2&#45;&gt;Node1 -->
<g id="edge1" class="edge"><title>Node2&#45;&gt;Node1</title>
<path fill="none" stroke="midnightblue" d="M85.1045,-361.939C85.1045,-353.387 85.1045,-344.499 85.1045,-335.764"/>
<polygon fill="none" stroke="midnightblue" points="81.6046,-362.172 85.1045,-372.172 88.6046,-362.172 81.6046,-362.172"/>
</g>
</g>
</svg>
