<?xml version="1.0" encoding="UTF-8" standalone="no"?>
<!DOCTYPE svg PUBLIC "-//W3C//DTD SVG 1.1//EN"
 "http://www.w3.org/Graphics/SVG/1.1/DTD/svg11.dtd">
<!-- Generated by graphviz version 2.38.0 (20140413.2041)
 -->
<!-- Title: XmlNode Pages: 1 -->
<svg width="753pt" height="807pt"
 viewBox="0.00 0.00 752.69 807.00" xmlns="http://www.w3.org/2000/svg" xmlns:xlink="http://www.w3.org/1999/xlink">
<g id="graph0" class="graph" transform="scale(1 1) rotate(0) translate(4 803)">
<title>XmlNode</title>
<polygon fill="white" stroke="none" points="-4,4 -4,-803 748.694,-803 748.694,4 -4,4"/>
<!-- Node1 -->
<g id="node1" class="node"><title>Node1</title>
<polygon fill="#bfbfbf" stroke="black" points="308.62,-443.5 308.62,-677.5 439.947,-677.5 439.947,-443.5 308.62,-443.5"/>
<text text-anchor="middle" x="374.283" y="-665.5" font-family="Helvetica,sans-Serif" font-size="10.00">XmlNode</text>
<polyline fill="none" stroke="black" points="308.62,-659.5 439.947,-659.5 "/>
<text text-anchor="start" x="316.62" y="-647.5" font-family="Helvetica,sans-Serif" font-size="10.00">+ nodeType</text>
<text text-anchor="start" x="316.62" y="-637.5" font-family="Helvetica,sans-Serif" font-size="10.00">+ nodeName</text>
<text text-anchor="start" x="316.62" y="-627.5" font-family="Helvetica,sans-Serif" font-size="10.00">+ nodeValue</text>
<text text-anchor="start" x="316.62" y="-617.5" font-family="Helvetica,sans-Serif" font-size="10.00">+ ownerDocument</text>
<text text-anchor="start" x="316.62" y="-607.5" font-family="Helvetica,sans-Serif" font-size="10.00">+ parentNode</text>
<text text-anchor="start" x="316.62" y="-597.5" font-family="Helvetica,sans-Serif" font-size="10.00">+ childNodes</text>
<text text-anchor="start" x="316.62" y="-587.5" font-family="Helvetica,sans-Serif" font-size="10.00">+ firstChild</text>
<text text-anchor="start" x="316.62" y="-577.5" font-family="Helvetica,sans-Serif" font-size="10.00">+ lastChild</text>
<text text-anchor="start" x="316.62" y="-567.5" font-family="Helvetica,sans-Serif" font-size="10.00">+ previousSibling</text>
<text text-anchor="start" x="316.62" y="-557.5" font-family="Helvetica,sans-Serif" font-size="10.00">+ nextSibling</text>
<polyline fill="none" stroke="black" points="308.62,-551.5 439.947,-551.5 "/>
<text text-anchor="start" x="316.62" y="-539.5" font-family="Helvetica,sans-Serif" font-size="10.00">+ hasChildNodes()</text>
<text text-anchor="start" x="316.62" y="-529.5" font-family="Helvetica,sans-Serif" font-size="10.00">+ normalize()</text>
<text text-anchor="start" x="316.62" y="-519.5" font-family="Helvetica,sans-Serif" font-size="10.00">+ cloneNode()</text>
<text text-anchor="start" x="316.62" y="-509.5" font-family="Helvetica,sans-Serif" font-size="10.00">+ lookupPrefix()</text>
<text text-anchor="start" x="316.62" y="-499.5" font-family="Helvetica,sans-Serif" font-size="10.00">+ lookupNamespaceURI()</text>
<text text-anchor="start" x="316.62" y="-489.5" font-family="Helvetica,sans-Serif" font-size="10.00">+ insertBefore()</text>
<text text-anchor="start" x="316.62" y="-479.5" font-family="Helvetica,sans-Serif" font-size="10.00">+ insertAfter()</text>
<text text-anchor="start" x="316.62" y="-469.5" font-family="Helvetica,sans-Serif" font-size="10.00">+ appendChild()</text>
<text text-anchor="start" x="316.62" y="-459.5" font-family="Helvetica,sans-Serif" font-size="10.00">+ replaceChild()</text>
<text text-anchor="start" x="316.62" y="-449.5" font-family="Helvetica,sans-Serif" font-size="10.00">+ removeChild()</text>
</g>
<!-- Node3 -->
<g id="node3" class="node"><title>Node3</title>
<g id="a_node3"><a xlink:href="../../d7/d50/interfaceXmlCharacterData.html" target="_top" xlink:title="XmlCharacterData 接口提供了 XmlText 和 XmlComment 节点的常用功能 ">
<polygon fill="white" stroke="black" points="34.1577,-242.5 34.1577,-346.5 132.409,-346.5 132.409,-242.5 34.1577,-242.5"/>
<text text-anchor="middle" x="83.2832" y="-334.5" font-family="Helvetica,sans-Serif" font-size="10.00">XmlCharacterData</text>
<polyline fill="none" stroke="black" points="34.1577,-328.5 132.409,-328.5 "/>
<text text-anchor="start" x="42.1577" y="-316.5" font-family="Helvetica,sans-Serif" font-size="10.00">+ data</text>
<text text-anchor="start" x="42.1577" y="-306.5" font-family="Helvetica,sans-Serif" font-size="10.00">+ length</text>
<polyline fill="none" stroke="black" points="34.1577,-300.5 132.409,-300.5 "/>
<text text-anchor="start" x="42.1577" y="-288.5" font-family="Helvetica,sans-Serif" font-size="10.00">+ substringData()</text>
<text text-anchor="start" x="42.1577" y="-278.5" font-family="Helvetica,sans-Serif" font-size="10.00">+ appendData()</text>
<text text-anchor="start" x="42.1577" y="-268.5" font-family="Helvetica,sans-Serif" font-size="10.00">+ insertData()</text>
<text text-anchor="start" x="42.1577" y="-258.5" font-family="Helvetica,sans-Serif" font-size="10.00">+ deleteData()</text>
<text text-anchor="start" x="42.1577" y="-248.5" font-family="Helvetica,sans-Serif" font-size="10.00">+ replaceData()</text>
</a>
</g>
</g>
<!-- Node1&#45;&gt;Node3 -->
<g id="edge2" class="edge"><title>Node1&#45;&gt;Node3</title>
<path fill="none" stroke="midnightblue" d="M299.339,-523.377C249.739,-496.596 185.865,-456.273 141.283,-407 125.472,-389.526 112.679,-366.951 103.171,-346.689"/>
<polygon fill="none" stroke="midnightblue" points="297.955,-526.605 308.426,-528.219 301.247,-520.427 297.955,-526.605"/>
</g>
<!-- Node7 -->
<g id="node7" class="node"><title>Node7</title>
<g id="a_node7"><a xlink:href="../../d6/d47/interfaceXmlDocument.html" target="_top" xlink:title="XmlDocument 对象代表整个 XML 文档 ">
<polygon fill="white" stroke="black" points="150.671,-182.5 150.671,-406.5 305.895,-406.5 305.895,-182.5 150.671,-182.5"/>
<text text-anchor="middle" x="228.283" y="-394.5" font-family="Helvetica,sans-Serif" font-size="10.00">XmlDocument</text>
<polyline fill="none" stroke="black" points="150.671,-388.5 305.895,-388.5 "/>
<text text-anchor="start" x="158.671" y="-376.5" font-family="Helvetica,sans-Serif" font-size="10.00">+ inputEncoding</text>
<text text-anchor="start" x="158.671" y="-366.5" font-family="Helvetica,sans-Serif" font-size="10.00">+ xmlStandalone</text>
<text text-anchor="start" x="158.671" y="-356.5" font-family="Helvetica,sans-Serif" font-size="10.00">+ xmlVersion</text>
<text text-anchor="start" x="158.671" y="-346.5" font-family="Helvetica,sans-Serif" font-size="10.00">+ doctype</text>
<text text-anchor="start" x="158.671" y="-336.5" font-family="Helvetica,sans-Serif" font-size="10.00">+ documentElement</text>
<text text-anchor="start" x="158.671" y="-326.5" font-family="Helvetica,sans-Serif" font-size="10.00">+ head</text>
<text text-anchor="start" x="158.671" y="-316.5" font-family="Helvetica,sans-Serif" font-size="10.00">+ title</text>
<text text-anchor="start" x="158.671" y="-306.5" font-family="Helvetica,sans-Serif" font-size="10.00">+ body</text>
<polyline fill="none" stroke="black" points="150.671,-300.5 305.895,-300.5 "/>
<text text-anchor="start" x="158.671" y="-288.5" font-family="Helvetica,sans-Serif" font-size="10.00">+ XmlDocument()</text>
<text text-anchor="start" x="158.671" y="-278.5" font-family="Helvetica,sans-Serif" font-size="10.00">+ load()</text>
<text text-anchor="start" x="158.671" y="-268.5" font-family="Helvetica,sans-Serif" font-size="10.00">+ load()</text>
<text text-anchor="start" x="158.671" y="-258.5" font-family="Helvetica,sans-Serif" font-size="10.00">+ getElementsByTagName()</text>
<text text-anchor="start" x="158.671" y="-248.5" font-family="Helvetica,sans-Serif" font-size="10.00">+ getElementsByTagNameNS()</text>
<text text-anchor="start" x="158.671" y="-238.5" font-family="Helvetica,sans-Serif" font-size="10.00">+ createElement()</text>
<text text-anchor="start" x="158.671" y="-228.5" font-family="Helvetica,sans-Serif" font-size="10.00">+ createElementNS()</text>
<text text-anchor="start" x="158.671" y="-218.5" font-family="Helvetica,sans-Serif" font-size="10.00">+ createTextNode()</text>
<text text-anchor="start" x="158.671" y="-208.5" font-family="Helvetica,sans-Serif" font-size="10.00">+ createComment()</text>
<text text-anchor="start" x="158.671" y="-198.5" font-family="Helvetica,sans-Serif" font-size="10.00">+ createCDATASection()</text>
<text text-anchor="start" x="158.671" y="-188.5" font-family="Helvetica,sans-Serif" font-size="10.00">+ createProcessingInstruction()</text>
</a>
</g>
</g>
<!-- Node1&#45;&gt;Node7 -->
<g id="edge6" class="edge"><title>Node1&#45;&gt;Node7</title>
<path fill="none" stroke="midnightblue" d="M305.127,-434.451C299.999,-425.177 294.845,-415.858 289.767,-406.677"/>
<polygon fill="none" stroke="midnightblue" points="302.131,-436.264 310.033,-443.322 308.256,-432.877 302.131,-436.264"/>
</g>
<!-- Node8 -->
<g id="node8" class="node"><title>Node8</title>
<g id="a_node8"><a xlink:href="../../d4/d35/interfaceXmlDocumentType.html" target="_top" xlink:title="XmlDocumentType 对象用于访问 XML 所定义的实体 ">
<polygon fill="white" stroke="black" points="324.042,-257.5 324.042,-331.5 424.524,-331.5 424.524,-257.5 324.042,-257.5"/>
<text text-anchor="middle" x="374.283" y="-319.5" font-family="Helvetica,sans-Serif" font-size="10.00">XmlDocumentType</text>
<polyline fill="none" stroke="black" points="324.042,-313.5 424.524,-313.5 "/>
<text text-anchor="start" x="332.042" y="-301.5" font-family="Helvetica,sans-Serif" font-size="10.00">+ name</text>
<text text-anchor="start" x="332.042" y="-291.5" font-family="Helvetica,sans-Serif" font-size="10.00">+ publicId</text>
<text text-anchor="start" x="332.042" y="-281.5" font-family="Helvetica,sans-Serif" font-size="10.00">+ systemId</text>
<polyline fill="none" stroke="black" points="324.042,-275.5 424.524,-275.5 "/>
<text text-anchor="middle" x="374.283" y="-263.5" font-family="Helvetica,sans-Serif" font-size="10.00"> </text>
</a>
</g>
</g>
<!-- Node1&#45;&gt;Node8 -->
<g id="edge7" class="edge"><title>Node1&#45;&gt;Node8</title>
<path fill="none" stroke="midnightblue" d="M374.283,-432.873C374.283,-395.739 374.283,-358.038 374.283,-331.549"/>
<polygon fill="none" stroke="midnightblue" points="370.783,-433.322 374.283,-443.322 377.783,-433.322 370.783,-433.322"/>
</g>
<!-- Node9 -->
<g id="node9" class="node"><title>Node9</title>
<g id="a_node9"><a xlink:href="../../d7/ddb/interfaceXmlElement.html" target="_top" xlink:title="XmlElement 对象表示 XML 文档中的元素 ">
<polygon fill="white" stroke="black" points="442.671,-182.5 442.671,-406.5 597.895,-406.5 597.895,-182.5 442.671,-182.5"/>
<text text-anchor="middle" x="520.283" y="-394.5" font-family="Helvetica,sans-Serif" font-size="10.00">XmlElement</text>
<polyline fill="none" stroke="black" points="442.671,-388.5 597.895,-388.5 "/>
<text text-anchor="start" x="450.671" y="-376.5" font-family="Helvetica,sans-Serif" font-size="10.00">+ namespaceURI</text>
<text text-anchor="start" x="450.671" y="-366.5" font-family="Helvetica,sans-Serif" font-size="10.00">+ prefix</text>
<text text-anchor="start" x="450.671" y="-356.5" font-family="Helvetica,sans-Serif" font-size="10.00">+ localName</text>
<text text-anchor="start" x="450.671" y="-346.5" font-family="Helvetica,sans-Serif" font-size="10.00">+ tagName</text>
<text text-anchor="start" x="450.671" y="-336.5" font-family="Helvetica,sans-Serif" font-size="10.00">+ id</text>
<text text-anchor="start" x="450.671" y="-326.5" font-family="Helvetica,sans-Serif" font-size="10.00">+ textContent</text>
<text text-anchor="start" x="450.671" y="-316.5" font-family="Helvetica,sans-Serif" font-size="10.00">+ innerHTML</text>
<text text-anchor="start" x="450.671" y="-306.5" font-family="Helvetica,sans-Serif" font-size="10.00">+ className</text>
<text text-anchor="start" x="450.671" y="-296.5" font-family="Helvetica,sans-Serif" font-size="10.00">+ attributes</text>
<polyline fill="none" stroke="black" points="442.671,-290.5 597.895,-290.5 "/>
<text text-anchor="start" x="450.671" y="-278.5" font-family="Helvetica,sans-Serif" font-size="10.00">+ getAttribute()</text>
<text text-anchor="start" x="450.671" y="-268.5" font-family="Helvetica,sans-Serif" font-size="10.00">+ getAttributeNS()</text>
<text text-anchor="start" x="450.671" y="-258.5" font-family="Helvetica,sans-Serif" font-size="10.00">+ setAttribute()</text>
<text text-anchor="start" x="450.671" y="-248.5" font-family="Helvetica,sans-Serif" font-size="10.00">+ setAttributeNS()</text>
<text text-anchor="start" x="450.671" y="-238.5" font-family="Helvetica,sans-Serif" font-size="10.00">+ removeAttribute()</text>
<text text-anchor="start" x="450.671" y="-228.5" font-family="Helvetica,sans-Serif" font-size="10.00">+ removeAttributeNS()</text>
<text text-anchor="start" x="450.671" y="-218.5" font-family="Helvetica,sans-Serif" font-size="10.00">+ hasAttribute()</text>
<text text-anchor="start" x="450.671" y="-208.5" font-family="Helvetica,sans-Serif" font-size="10.00">+ hasAttributeNS()</text>
<text text-anchor="start" x="450.671" y="-198.5" font-family="Helvetica,sans-Serif" font-size="10.00">+ getElementsByTagName()</text>
<text text-anchor="start" x="450.671" y="-188.5" font-family="Helvetica,sans-Serif" font-size="10.00">+ getElementsByTagNameNS()</text>
</a>
</g>
</g>
<!-- Node1&#45;&gt;Node9 -->
<g id="edge8" class="edge"><title>Node1&#45;&gt;Node9</title>
<path fill="none" stroke="midnightblue" d="M443.439,-434.451C448.568,-425.177 453.722,-415.858 458.799,-406.677"/>
<polygon fill="none" stroke="midnightblue" points="440.31,-432.877 438.533,-443.322 446.436,-436.264 440.31,-432.877"/>
</g>
<!-- Node10 -->
<g id="node10" class="node"><title>Node10</title>
<g id="a_node10"><a xlink:href="../../da/df6/interfaceXmlProcessingInstruction.html" target="_top" xlink:title="XmlProcessingInstruction 对象表示 xml 处理指令 ">
<polygon fill="white" stroke="black" points="615.872,-262.5 615.872,-326.5 744.694,-326.5 744.694,-262.5 615.872,-262.5"/>
<text text-anchor="middle" x="680.283" y="-314.5" font-family="Helvetica,sans-Serif" font-size="10.00">XmlProcessingInstruction</text>
<polyline fill="none" stroke="black" points="615.872,-308.5 744.694,-308.5 "/>
<text text-anchor="start" x="623.872" y="-296.5" font-family="Helvetica,sans-Serif" font-size="10.00">+ target</text>
<text text-anchor="start" x="623.872" y="-286.5" font-family="Helvetica,sans-Serif" font-size="10.00">+ data</text>
<polyline fill="none" stroke="black" points="615.872,-280.5 744.694,-280.5 "/>
<text text-anchor="middle" x="680.283" y="-268.5" font-family="Helvetica,sans-Serif" font-size="10.00"> </text>
</a>
</g>
</g>
<!-- Node1&#45;&gt;Node10 -->
<g id="edge9" class="edge"><title>Node1&#45;&gt;Node10</title>
<path fill="none" stroke="midnightblue" d="M448.938,-521.196C497.687,-493.781 560.696,-453.581 607.283,-407 631.008,-383.279 651.276,-350.658 664.393,-326.83"/>
<polygon fill="none" stroke="midnightblue" points="447.045,-518.244 440.009,-526.165 450.449,-524.36 447.045,-518.244"/>
</g>
<!-- Node2 -->
<g id="node2" class="node"><title>Node2</title>
<g id="a_node2"><a xlink:href="../../db/d38/interfaceobject.html" target="_top" xlink:title="基础对象，所有对象均继承于此 ">
<polygon fill="white" stroke="black" points="341.139,-714.5 341.139,-798.5 407.427,-798.5 407.427,-714.5 341.139,-714.5"/>
<text text-anchor="middle" x="374.283" y="-786.5" font-family="Helvetica,sans-Serif" font-size="10.00">object</text>
<polyline fill="none" stroke="black" points="341.139,-780.5 407.427,-780.5 "/>
<text text-anchor="middle" x="374.283" y="-768.5" font-family="Helvetica,sans-Serif" font-size="10.00"> </text>
<polyline fill="none" stroke="black" points="341.139,-762.5 407.427,-762.5 "/>
<text text-anchor="start" x="349.139" y="-750.5" font-family="Helvetica,sans-Serif" font-size="10.00">+ dispose()</text>
<text text-anchor="start" x="349.139" y="-740.5" font-family="Helvetica,sans-Serif" font-size="10.00">+ toString()</text>
<text text-anchor="start" x="349.139" y="-730.5" font-family="Helvetica,sans-Serif" font-size="10.00">+ toJSON()</text>
<text text-anchor="start" x="349.139" y="-720.5" font-family="Helvetica,sans-Serif" font-size="10.00">+ valueOf()</text>
</a>
</g>
</g>
<!-- Node2&#45;&gt;Node1 -->
<g id="edge1" class="edge"><title>Node2&#45;&gt;Node1</title>
<path fill="none" stroke="midnightblue" d="M374.283,-704.085C374.283,-695.706 374.283,-686.74 374.283,-677.536"/>
<polygon fill="none" stroke="midnightblue" points="370.783,-704.358 374.283,-714.358 377.783,-704.358 370.783,-704.358"/>
</g>
<!-- Node4 -->
<g id="node4" class="node"><title>Node4</title>
<g id="a_node4"><a xlink:href="../../dd/dc1/interfaceXmlComment.html" target="_top" xlink:title="XmlComment 对象表示文档中注释节点的内容 ">
<polygon fill="white" stroke="black" points="0,-91.5 0,-145.5 76.5664,-145.5 76.5664,-91.5 0,-91.5"/>
<text text-anchor="middle" x="38.2832" y="-133.5" font-family="Helvetica,sans-Serif" font-size="10.00">XmlComment</text>
<polyline fill="none" stroke="black" points="0,-127.5 76.5664,-127.5 "/>
<text text-anchor="middle" x="38.2832" y="-115.5" font-family="Helvetica,sans-Serif" font-size="10.00"> </text>
<polyline fill="none" stroke="black" points="0,-109.5 76.5664,-109.5 "/>
<text text-anchor="middle" x="38.2832" y="-97.5" font-family="Helvetica,sans-Serif" font-size="10.00"> </text>
</a>
</g>
</g>
<!-- Node3&#45;&gt;Node4 -->
<g id="edge3" class="edge"><title>Node3&#45;&gt;Node4</title>
<path fill="none" stroke="midnightblue" d="M67.4736,-232.369C59.8036,-202.712 50.9926,-168.643 45.075,-145.762"/>
<polygon fill="none" stroke="midnightblue" points="64.1327,-233.43 70.0251,-242.235 70.9097,-231.678 64.1327,-233.43"/>
</g>
<!-- Node5 -->
<g id="node5" class="node"><title>Node5</title>
<g id="a_node5"><a xlink:href="../../d3/d51/interfaceXmlText.html" target="_top" xlink:title="XmlText 对象表示元素或属性的文本内容 ">
<polygon fill="white" stroke="black" points="94.5825,-91.5 94.5825,-145.5 161.984,-145.5 161.984,-91.5 94.5825,-91.5"/>
<text text-anchor="middle" x="128.283" y="-133.5" font-family="Helvetica,sans-Serif" font-size="10.00">XmlText</text>
<polyline fill="none" stroke="black" points="94.5825,-127.5 161.984,-127.5 "/>
<text text-anchor="middle" x="128.283" y="-115.5" font-family="Helvetica,sans-Serif" font-size="10.00"> </text>
<polyline fill="none" stroke="black" points="94.5825,-109.5 161.984,-109.5 "/>
<text text-anchor="start" x="102.583" y="-97.5" font-family="Helvetica,sans-Serif" font-size="10.00">+ splitText()</text>
</a>
</g>
</g>
<!-- Node3&#45;&gt;Node5 -->
<g id="edge4" class="edge"><title>Node3&#45;&gt;Node5</title>
<path fill="none" stroke="midnightblue" d="M99.0928,-232.369C106.763,-202.712 115.574,-168.643 121.491,-145.762"/>
<polygon fill="none" stroke="midnightblue" points="95.6567,-231.678 96.5413,-242.235 102.434,-233.43 95.6567,-231.678"/>
</g>
<!-- Node6 -->
<g id="node6" class="node"><title>Node6</title>
<g id="a_node6"><a xlink:href="../../d4/dd8/interfaceXmlCDATASection.html" target="_top" xlink:title="XmlCDATASection 对象表示文档中的 CDATA 区段 ">
<polygon fill="white" stroke="black" points="78.7866,-0.5 78.7866,-54.5 177.78,-54.5 177.78,-0.5 78.7866,-0.5"/>
<text text-anchor="middle" x="128.283" y="-42.5" font-family="Helvetica,sans-Serif" font-size="10.00">XmlCDATASection</text>
<polyline fill="none" stroke="black" points="78.7866,-36.5 177.78,-36.5 "/>
<text text-anchor="middle" x="128.283" y="-24.5" font-family="Helvetica,sans-Serif" font-size="10.00"> </text>
<polyline fill="none" stroke="black" points="78.7866,-18.5 177.78,-18.5 "/>
<text text-anchor="middle" x="128.283" y="-6.5" font-family="Helvetica,sans-Serif" font-size="10.00"> </text>
</a>
</g>
</g>
<!-- Node5&#45;&gt;Node6 -->
<g id="edge5" class="edge"><title>Node5&#45;&gt;Node6</title>
<path fill="none" stroke="midnightblue" d="M128.283,-81.1155C128.283,-72.2061 128.283,-62.8475 128.283,-54.5341"/>
<polygon fill="none" stroke="midnightblue" points="124.783,-81.2784 128.283,-91.2784 131.783,-81.2785 124.783,-81.2784"/>
</g>
</g>
</svg>
