<?xml version="1.0" encoding="UTF-8" standalone="no"?>
<!DOCTYPE svg PUBLIC "-//W3C//DTD SVG 1.1//EN"
 "http://www.w3.org/Graphics/SVG/1.1/DTD/svg11.dtd">
<!-- Generated by graphviz version 2.38.0 (20140413.2041)
 -->
<!-- Title: XmlNode Pages: 1 -->
<svg width="785pt" height="747pt"
 viewBox="0.00 0.00 785.45 747.00" xmlns="http://www.w3.org/2000/svg" xmlns:xlink="http://www.w3.org/1999/xlink">
<g id="graph0" class="graph" transform="scale(1 1) rotate(0) translate(4 743)">
<title>XmlNode</title>
<polygon fill="white" stroke="none" points="-4,4 -4,-743 781.454,-743 781.454,4 -4,4"/>
<!-- Node1 -->
<g id="node1" class="node"><title>Node1</title>
<polygon fill="#bfbfbf" stroke="black" points="298.495,-413.5 298.495,-617.5 397.591,-617.5 397.591,-413.5 298.495,-413.5"/>
<text text-anchor="middle" x="348.043" y="-605.5" font-family="Helvetica,sans-Serif" font-size="10.00">XmlNode</text>
<polyline fill="none" stroke="black" points="298.495,-599.5 397.591,-599.5 "/>
<text text-anchor="start" x="306.495" y="-587.5" font-family="Helvetica,sans-Serif" font-size="10.00">+ nodeName</text>
<text text-anchor="start" x="306.495" y="-577.5" font-family="Helvetica,sans-Serif" font-size="10.00">+ nodeValue</text>
<text text-anchor="start" x="306.495" y="-567.5" font-family="Helvetica,sans-Serif" font-size="10.00">+ nodeType</text>
<text text-anchor="start" x="306.495" y="-557.5" font-family="Helvetica,sans-Serif" font-size="10.00">+ parentNode</text>
<text text-anchor="start" x="306.495" y="-547.5" font-family="Helvetica,sans-Serif" font-size="10.00">+ childNodes</text>
<text text-anchor="start" x="306.495" y="-537.5" font-family="Helvetica,sans-Serif" font-size="10.00">+ firstChild</text>
<text text-anchor="start" x="306.495" y="-527.5" font-family="Helvetica,sans-Serif" font-size="10.00">+ lastChild</text>
<text text-anchor="start" x="306.495" y="-517.5" font-family="Helvetica,sans-Serif" font-size="10.00">+ previousSibling</text>
<text text-anchor="start" x="306.495" y="-507.5" font-family="Helvetica,sans-Serif" font-size="10.00">+ nextSibling</text>
<text text-anchor="start" x="306.495" y="-497.5" font-family="Helvetica,sans-Serif" font-size="10.00">+ ownerDocument</text>
<polyline fill="none" stroke="black" points="298.495,-491.5 397.591,-491.5 "/>
<text text-anchor="start" x="306.495" y="-479.5" font-family="Helvetica,sans-Serif" font-size="10.00">+ insertBefore()</text>
<text text-anchor="start" x="306.495" y="-469.5" font-family="Helvetica,sans-Serif" font-size="10.00">+ replaceChild()</text>
<text text-anchor="start" x="306.495" y="-459.5" font-family="Helvetica,sans-Serif" font-size="10.00">+ removeChild()</text>
<text text-anchor="start" x="306.495" y="-449.5" font-family="Helvetica,sans-Serif" font-size="10.00">+ appendChild()</text>
<text text-anchor="start" x="306.495" y="-439.5" font-family="Helvetica,sans-Serif" font-size="10.00">+ hasChildNodes()</text>
<text text-anchor="start" x="306.495" y="-429.5" font-family="Helvetica,sans-Serif" font-size="10.00">+ cloneNode()</text>
<text text-anchor="start" x="306.495" y="-419.5" font-family="Helvetica,sans-Serif" font-size="10.00">+ normalize()</text>
</g>
<!-- Node3 -->
<g id="node3" class="node"><title>Node3</title>
<g id="a_node3"><a xlink:href="../../d7/dce/interfaceXmlAttr.html" target="_top" xlink:title="XmlAttr 对象表示 XmlElement 对象的属性 ">
<polygon fill="white" stroke="black" points="0,-242.5 0,-316.5 64.0859,-316.5 64.0859,-242.5 0,-242.5"/>
<text text-anchor="middle" x="32.043" y="-304.5" font-family="Helvetica,sans-Serif" font-size="10.00">XmlAttr</text>
<polyline fill="none" stroke="black" points="0,-298.5 64.0859,-298.5 "/>
<text text-anchor="start" x="8" y="-286.5" font-family="Helvetica,sans-Serif" font-size="10.00">+ name</text>
<text text-anchor="start" x="8" y="-276.5" font-family="Helvetica,sans-Serif" font-size="10.00">+ specified</text>
<text text-anchor="start" x="8" y="-266.5" font-family="Helvetica,sans-Serif" font-size="10.00">+ value</text>
<polyline fill="none" stroke="black" points="0,-260.5 64.0859,-260.5 "/>
<text text-anchor="middle" x="32.043" y="-248.5" font-family="Helvetica,sans-Serif" font-size="10.00"> </text>
</a>
</g>
</g>
<!-- Node1&#45;&gt;Node3 -->
<g id="edge2" class="edge"><title>Node1&#45;&gt;Node3</title>
<path fill="none" stroke="midnightblue" d="M288.512,-498.149C227.192,-478.549 132.434,-440.185 73.043,-377 57.3345,-360.288 47.1569,-336.65 40.871,-316.952"/>
<polygon fill="none" stroke="midnightblue" points="287.842,-501.607 298.43,-501.249 289.93,-494.925 287.842,-501.607"/>
</g>
<!-- Node4 -->
<g id="node4" class="node"><title>Node4</title>
<g id="a_node4"><a xlink:href="../../d7/d50/interfaceXmlCharacterData.html" target="_top" xlink:title="XmlCharacterData 接口提供了 XmlText 和 XmlComment 节点的常用功能 ">
<polygon fill="white" stroke="black" points="81.9175,-227.5 81.9175,-331.5 180.168,-331.5 180.168,-227.5 81.9175,-227.5"/>
<text text-anchor="middle" x="131.043" y="-319.5" font-family="Helvetica,sans-Serif" font-size="10.00">XmlCharacterData</text>
<polyline fill="none" stroke="black" points="81.9175,-313.5 180.168,-313.5 "/>
<text text-anchor="start" x="89.9175" y="-301.5" font-family="Helvetica,sans-Serif" font-size="10.00">+ data</text>
<text text-anchor="start" x="89.9175" y="-291.5" font-family="Helvetica,sans-Serif" font-size="10.00">+ length</text>
<polyline fill="none" stroke="black" points="81.9175,-285.5 180.168,-285.5 "/>
<text text-anchor="start" x="89.9175" y="-273.5" font-family="Helvetica,sans-Serif" font-size="10.00">+ substringData()</text>
<text text-anchor="start" x="89.9175" y="-263.5" font-family="Helvetica,sans-Serif" font-size="10.00">+ appendData()</text>
<text text-anchor="start" x="89.9175" y="-253.5" font-family="Helvetica,sans-Serif" font-size="10.00">+ insertData()</text>
<text text-anchor="start" x="89.9175" y="-243.5" font-family="Helvetica,sans-Serif" font-size="10.00">+ deleteData()</text>
<text text-anchor="start" x="89.9175" y="-233.5" font-family="Helvetica,sans-Serif" font-size="10.00">+ replaceData()</text>
</a>
</g>
</g>
<!-- Node1&#45;&gt;Node4 -->
<g id="edge3" class="edge"><title>Node1&#45;&gt;Node4</title>
<path fill="none" stroke="midnightblue" d="M290.159,-471.814C258.097,-446.451 218.826,-412.397 189.043,-377 177.465,-363.24 166.718,-346.907 157.7,-331.627"/>
<polygon fill="none" stroke="midnightblue" points="288.114,-474.659 298.144,-478.071 292.431,-469.149 288.114,-474.659"/>
</g>
<!-- Node8 -->
<g id="node8" class="node"><title>Node8</title>
<g id="a_node8"><a xlink:href="../../d6/d47/interfaceXmlDocument.html" target="_top" xlink:title="XmlDocument 对象代表整个 XML 文档 ">
<polygon fill="white" stroke="black" points="197.707,-182.5 197.707,-376.5 352.379,-376.5 352.379,-182.5 197.707,-182.5"/>
<text text-anchor="middle" x="275.043" y="-364.5" font-family="Helvetica,sans-Serif" font-size="10.00">XmlDocument</text>
<polyline fill="none" stroke="black" points="197.707,-358.5 352.379,-358.5 "/>
<text text-anchor="start" x="205.707" y="-346.5" font-family="Helvetica,sans-Serif" font-size="10.00">+ doctype</text>
<text text-anchor="start" x="205.707" y="-336.5" font-family="Helvetica,sans-Serif" font-size="10.00">+ documentElement</text>
<text text-anchor="start" x="205.707" y="-326.5" font-family="Helvetica,sans-Serif" font-size="10.00">+ inputEncoding</text>
<text text-anchor="start" x="205.707" y="-316.5" font-family="Helvetica,sans-Serif" font-size="10.00">+ xmlStandalone</text>
<text text-anchor="start" x="205.707" y="-306.5" font-family="Helvetica,sans-Serif" font-size="10.00">+ xmlVersion</text>
<polyline fill="none" stroke="black" points="197.707,-300.5 352.379,-300.5 "/>
<text text-anchor="start" x="205.707" y="-288.5" font-family="Helvetica,sans-Serif" font-size="10.00">+ XmlDocument()</text>
<text text-anchor="start" x="205.707" y="-278.5" font-family="Helvetica,sans-Serif" font-size="10.00">+ loadXML()</text>
<text text-anchor="start" x="205.707" y="-268.5" font-family="Helvetica,sans-Serif" font-size="10.00">+ saveHTML()</text>
<text text-anchor="start" x="205.707" y="-258.5" font-family="Helvetica,sans-Serif" font-size="10.00">+ createElement()</text>
<text text-anchor="start" x="205.707" y="-248.5" font-family="Helvetica,sans-Serif" font-size="10.00">+ createTextNode()</text>
<text text-anchor="start" x="205.707" y="-238.5" font-family="Helvetica,sans-Serif" font-size="10.00">+ createComment()</text>
<text text-anchor="start" x="205.707" y="-228.5" font-family="Helvetica,sans-Serif" font-size="10.00">+ createCDATASection()</text>
<text text-anchor="start" x="205.707" y="-218.5" font-family="Helvetica,sans-Serif" font-size="10.00">+ createProcessingInstruction()</text>
<text text-anchor="start" x="205.707" y="-208.5" font-family="Helvetica,sans-Serif" font-size="10.00">+ createAttribute()</text>
<text text-anchor="start" x="205.707" y="-198.5" font-family="Helvetica,sans-Serif" font-size="10.00">+ getElementsByTagName()</text>
<text text-anchor="start" x="205.707" y="-188.5" font-family="Helvetica,sans-Serif" font-size="10.00">+ getElementById()</text>
</a>
</g>
</g>
<!-- Node1&#45;&gt;Node8 -->
<g id="edge7" class="edge"><title>Node1&#45;&gt;Node8</title>
<path fill="none" stroke="midnightblue" d="M313.427,-403.541C310.635,-394.59 307.828,-385.591 305.071,-376.756"/>
<polygon fill="none" stroke="midnightblue" points="310.129,-404.721 316.449,-413.225 316.812,-402.637 310.129,-404.721"/>
</g>
<!-- Node9 -->
<g id="node9" class="node"><title>Node9</title>
<g id="a_node9"><a xlink:href="../../d4/d35/interfaceXmlDocumentType.html" target="_top" xlink:title="XmlDocumentType 对象用于访问 XML 所定义的实体 ">
<polygon fill="white" stroke="black" points="370.802,-242.5 370.802,-316.5 471.284,-316.5 471.284,-242.5 370.802,-242.5"/>
<text text-anchor="middle" x="421.043" y="-304.5" font-family="Helvetica,sans-Serif" font-size="10.00">XmlDocumentType</text>
<polyline fill="none" stroke="black" points="370.802,-298.5 471.284,-298.5 "/>
<text text-anchor="start" x="378.802" y="-286.5" font-family="Helvetica,sans-Serif" font-size="10.00">+ name</text>
<text text-anchor="start" x="378.802" y="-276.5" font-family="Helvetica,sans-Serif" font-size="10.00">+ publicId</text>
<text text-anchor="start" x="378.802" y="-266.5" font-family="Helvetica,sans-Serif" font-size="10.00">+ systemId</text>
<polyline fill="none" stroke="black" points="370.802,-260.5 471.284,-260.5 "/>
<text text-anchor="middle" x="421.043" y="-248.5" font-family="Helvetica,sans-Serif" font-size="10.00"> </text>
</a>
</g>
</g>
<!-- Node1&#45;&gt;Node9 -->
<g id="edge8" class="edge"><title>Node1&#45;&gt;Node9</title>
<path fill="none" stroke="midnightblue" d="M382.673,-403.494C392.484,-372.046 402.475,-340.019 409.802,-316.533"/>
<polygon fill="none" stroke="midnightblue" points="379.274,-402.637 379.637,-413.225 385.957,-404.721 379.274,-402.637"/>
</g>
<!-- Node10 -->
<g id="node10" class="node"><title>Node10</title>
<g id="a_node10"><a xlink:href="../../d7/ddb/interfaceXmlElement.html" target="_top" xlink:title="XmlElement 对象表示 XML 文档中的元素 ">
<polygon fill="white" stroke="black" points="489.377,-212.5 489.377,-346.5 630.709,-346.5 630.709,-212.5 489.377,-212.5"/>
<text text-anchor="middle" x="560.043" y="-334.5" font-family="Helvetica,sans-Serif" font-size="10.00">XmlElement</text>
<polyline fill="none" stroke="black" points="489.377,-328.5 630.709,-328.5 "/>
<text text-anchor="start" x="497.377" y="-316.5" font-family="Helvetica,sans-Serif" font-size="10.00">+ tagName</text>
<text text-anchor="start" x="497.377" y="-306.5" font-family="Helvetica,sans-Serif" font-size="10.00">+ attributes</text>
<polyline fill="none" stroke="black" points="489.377,-300.5 630.709,-300.5 "/>
<text text-anchor="start" x="497.377" y="-288.5" font-family="Helvetica,sans-Serif" font-size="10.00">+ getAttribute()</text>
<text text-anchor="start" x="497.377" y="-278.5" font-family="Helvetica,sans-Serif" font-size="10.00">+ setAttribute()</text>
<text text-anchor="start" x="497.377" y="-268.5" font-family="Helvetica,sans-Serif" font-size="10.00">+ removeAttribute()</text>
<text text-anchor="start" x="497.377" y="-258.5" font-family="Helvetica,sans-Serif" font-size="10.00">+ getAttributeNode()</text>
<text text-anchor="start" x="497.377" y="-248.5" font-family="Helvetica,sans-Serif" font-size="10.00">+ setAttributeNode()</text>
<text text-anchor="start" x="497.377" y="-238.5" font-family="Helvetica,sans-Serif" font-size="10.00">+ removeAttributeNode()</text>
<text text-anchor="start" x="497.377" y="-228.5" font-family="Helvetica,sans-Serif" font-size="10.00">+ getElementsByTagName()</text>
<text text-anchor="start" x="497.377" y="-218.5" font-family="Helvetica,sans-Serif" font-size="10.00">+ hasAttribute()</text>
</a>
</g>
</g>
<!-- Node1&#45;&gt;Node10 -->
<g id="edge9" class="edge"><title>Node1&#45;&gt;Node10</title>
<path fill="none" stroke="midnightblue" d="M405.037,-457.008C428.658,-432.701 456.082,-403.85 480.043,-377 488.664,-367.339 497.599,-356.956 506.237,-346.708"/>
<polygon fill="none" stroke="midnightblue" points="402.309,-454.793 397.837,-464.398 407.322,-459.678 402.309,-454.793"/>
</g>
<!-- Node11 -->
<g id="node11" class="node"><title>Node11</title>
<g id="a_node11"><a xlink:href="../../da/df6/interfaceXmlProcessingInstruction.html" target="_top" xlink:title="XmlProcessingInstruction 对象表示 xml 处理指令 ">
<polygon fill="white" stroke="black" points="648.632,-247.5 648.632,-311.5 777.454,-311.5 777.454,-247.5 648.632,-247.5"/>
<text text-anchor="middle" x="713.043" y="-299.5" font-family="Helvetica,sans-Serif" font-size="10.00">XmlProcessingInstruction</text>
<polyline fill="none" stroke="black" points="648.632,-293.5 777.454,-293.5 "/>
<text text-anchor="start" x="656.632" y="-281.5" font-family="Helvetica,sans-Serif" font-size="10.00">+ target</text>
<text text-anchor="start" x="656.632" y="-271.5" font-family="Helvetica,sans-Serif" font-size="10.00">+ data</text>
<polyline fill="none" stroke="black" points="648.632,-265.5 777.454,-265.5 "/>
<text text-anchor="middle" x="713.043" y="-253.5" font-family="Helvetica,sans-Serif" font-size="10.00"> </text>
</a>
</g>
</g>
<!-- Node1&#45;&gt;Node11 -->
<g id="edge10" class="edge"><title>Node1&#45;&gt;Node11</title>
<path fill="none" stroke="midnightblue" d="M407.539,-496.04C470.096,-474.569 569.105,-434.556 640.043,-377 662.392,-358.867 681.727,-332.505 694.874,-311.915"/>
<polygon fill="none" stroke="midnightblue" points="406.173,-492.807 397.822,-499.327 408.416,-499.438 406.173,-492.807"/>
</g>
<!-- Node2 -->
<g id="node2" class="node"><title>Node2</title>
<g id="a_node2"><a xlink:href="../../db/d38/interfaceobject.html" target="_top" xlink:title="基础对象，所有对象均继承于此 ">
<polygon fill="white" stroke="black" points="314.899,-654.5 314.899,-738.5 381.187,-738.5 381.187,-654.5 314.899,-654.5"/>
<text text-anchor="middle" x="348.043" y="-726.5" font-family="Helvetica,sans-Serif" font-size="10.00">object</text>
<polyline fill="none" stroke="black" points="314.899,-720.5 381.187,-720.5 "/>
<text text-anchor="middle" x="348.043" y="-708.5" font-family="Helvetica,sans-Serif" font-size="10.00"> </text>
<polyline fill="none" stroke="black" points="314.899,-702.5 381.187,-702.5 "/>
<text text-anchor="start" x="322.899" y="-690.5" font-family="Helvetica,sans-Serif" font-size="10.00">+ dispose()</text>
<text text-anchor="start" x="322.899" y="-680.5" font-family="Helvetica,sans-Serif" font-size="10.00">+ toString()</text>
<text text-anchor="start" x="322.899" y="-670.5" font-family="Helvetica,sans-Serif" font-size="10.00">+ toJSON()</text>
<text text-anchor="start" x="322.899" y="-660.5" font-family="Helvetica,sans-Serif" font-size="10.00">+ valueOf()</text>
</a>
</g>
</g>
<!-- Node2&#45;&gt;Node1 -->
<g id="edge1" class="edge"><title>Node2&#45;&gt;Node1</title>
<path fill="none" stroke="midnightblue" d="M348.043,-644.155C348.043,-635.787 348.043,-626.87 348.043,-617.789"/>
<polygon fill="none" stroke="midnightblue" points="344.543,-644.434 348.043,-654.434 351.543,-644.434 344.543,-644.434"/>
</g>
<!-- Node5 -->
<g id="node5" class="node"><title>Node5</title>
<g id="a_node5"><a xlink:href="../../dd/dc1/interfaceXmlComment.html" target="_top" xlink:title="XmlComment 对象表示文档中注释节点的内容 ">
<polygon fill="white" stroke="black" points="47.7598,-91.5 47.7598,-145.5 124.326,-145.5 124.326,-91.5 47.7598,-91.5"/>
<text text-anchor="middle" x="86.043" y="-133.5" font-family="Helvetica,sans-Serif" font-size="10.00">XmlComment</text>
<polyline fill="none" stroke="black" points="47.7598,-127.5 124.326,-127.5 "/>
<text text-anchor="middle" x="86.043" y="-115.5" font-family="Helvetica,sans-Serif" font-size="10.00"> </text>
<polyline fill="none" stroke="black" points="47.7598,-109.5 124.326,-109.5 "/>
<text text-anchor="middle" x="86.043" y="-97.5" font-family="Helvetica,sans-Serif" font-size="10.00"> </text>
</a>
</g>
</g>
<!-- Node4&#45;&gt;Node5 -->
<g id="edge4" class="edge"><title>Node4&#45;&gt;Node5</title>
<path fill="none" stroke="midnightblue" d="M113.795,-217.556C106.744,-192.643 98.9644,-165.156 93.4407,-145.639"/>
<polygon fill="none" stroke="midnightblue" points="110.466,-218.647 116.557,-227.316 117.201,-216.741 110.466,-218.647"/>
</g>
<!-- Node6 -->
<g id="node6" class="node"><title>Node6</title>
<g id="a_node6"><a xlink:href="../../d3/d51/interfaceXmlText.html" target="_top" xlink:title="XmlText 对象表示元素或属性的文本内容 ">
<polygon fill="white" stroke="black" points="142.342,-91.5 142.342,-145.5 209.744,-145.5 209.744,-91.5 142.342,-91.5"/>
<text text-anchor="middle" x="176.043" y="-133.5" font-family="Helvetica,sans-Serif" font-size="10.00">XmlText</text>
<polyline fill="none" stroke="black" points="142.342,-127.5 209.744,-127.5 "/>
<text text-anchor="middle" x="176.043" y="-115.5" font-family="Helvetica,sans-Serif" font-size="10.00"> </text>
<polyline fill="none" stroke="black" points="142.342,-109.5 209.744,-109.5 "/>
<text text-anchor="start" x="150.342" y="-97.5" font-family="Helvetica,sans-Serif" font-size="10.00">+ splitText()</text>
</a>
</g>
</g>
<!-- Node4&#45;&gt;Node6 -->
<g id="edge5" class="edge"><title>Node4&#45;&gt;Node6</title>
<path fill="none" stroke="midnightblue" d="M148.291,-217.556C155.342,-192.643 163.122,-165.156 168.645,-145.639"/>
<polygon fill="none" stroke="midnightblue" points="144.885,-216.741 145.529,-227.316 151.62,-218.647 144.885,-216.741"/>
</g>
<!-- Node7 -->
<g id="node7" class="node"><title>Node7</title>
<g id="a_node7"><a xlink:href="../../d4/dd8/interfaceXmlCDATASection.html" target="_top" xlink:title="XmlCDATASection 对象表示文档中的 CDATA 区段 ">
<polygon fill="white" stroke="black" points="126.546,-0.5 126.546,-54.5 225.54,-54.5 225.54,-0.5 126.546,-0.5"/>
<text text-anchor="middle" x="176.043" y="-42.5" font-family="Helvetica,sans-Serif" font-size="10.00">XmlCDATASection</text>
<polyline fill="none" stroke="black" points="126.546,-36.5 225.54,-36.5 "/>
<text text-anchor="middle" x="176.043" y="-24.5" font-family="Helvetica,sans-Serif" font-size="10.00"> </text>
<polyline fill="none" stroke="black" points="126.546,-18.5 225.54,-18.5 "/>
<text text-anchor="middle" x="176.043" y="-6.5" font-family="Helvetica,sans-Serif" font-size="10.00"> </text>
</a>
</g>
</g>
<!-- Node6&#45;&gt;Node7 -->
<g id="edge6" class="edge"><title>Node6&#45;&gt;Node7</title>
<path fill="none" stroke="midnightblue" d="M176.043,-81.1155C176.043,-72.2061 176.043,-62.8475 176.043,-54.5341"/>
<polygon fill="none" stroke="midnightblue" points="172.543,-81.2784 176.043,-91.2784 179.543,-81.2785 172.543,-81.2784"/>
</g>
</g>
</svg>
