<?xml version="1.0" encoding="UTF-8" standalone="no"?>
<!DOCTYPE svg PUBLIC "-//W3C//DTD SVG 1.1//EN"
 "http://www.w3.org/Graphics/SVG/1.1/DTD/svg11.dtd">
<!-- Generated by graphviz version 2.38.0 (20140413.2041)
 -->
<!-- Title: XmlNode Pages: 1 -->
<svg width="753pt" height="777pt"
 viewBox="0.00 0.00 752.69 777.00" xmlns="http://www.w3.org/2000/svg" xmlns:xlink="http://www.w3.org/1999/xlink">
<g id="graph0" class="graph" transform="scale(1 1) rotate(0) translate(4 773)">
<title>XmlNode</title>
<polygon fill="white" stroke="none" points="-4,4 -4,-773 748.694,-773 748.694,4 -4,4"/>
<!-- Node1 -->
<g id="node1" class="node"><title>Node1</title>
<polygon fill="#bfbfbf" stroke="black" points="308.62,-413.5 308.62,-647.5 439.947,-647.5 439.947,-413.5 308.62,-413.5"/>
<text text-anchor="middle" x="374.283" y="-635.5" font-family="Helvetica,sans-Serif" font-size="10.00">XmlNode</text>
<polyline fill="none" stroke="black" points="308.62,-629.5 439.947,-629.5 "/>
<text text-anchor="start" x="316.62" y="-617.5" font-family="Helvetica,sans-Serif" font-size="10.00">+ nodeType</text>
<text text-anchor="start" x="316.62" y="-607.5" font-family="Helvetica,sans-Serif" font-size="10.00">+ nodeName</text>
<text text-anchor="start" x="316.62" y="-597.5" font-family="Helvetica,sans-Serif" font-size="10.00">+ nodeValue</text>
<text text-anchor="start" x="316.62" y="-587.5" font-family="Helvetica,sans-Serif" font-size="10.00">+ ownerDocument</text>
<text text-anchor="start" x="316.62" y="-577.5" font-family="Helvetica,sans-Serif" font-size="10.00">+ parentNode</text>
<text text-anchor="start" x="316.62" y="-567.5" font-family="Helvetica,sans-Serif" font-size="10.00">+ childNodes</text>
<text text-anchor="start" x="316.62" y="-557.5" font-family="Helvetica,sans-Serif" font-size="10.00">+ firstChild</text>
<text text-anchor="start" x="316.62" y="-547.5" font-family="Helvetica,sans-Serif" font-size="10.00">+ lastChild</text>
<text text-anchor="start" x="316.62" y="-537.5" font-family="Helvetica,sans-Serif" font-size="10.00">+ previousSibling</text>
<text text-anchor="start" x="316.62" y="-527.5" font-family="Helvetica,sans-Serif" font-size="10.00">+ nextSibling</text>
<polyline fill="none" stroke="black" points="308.62,-521.5 439.947,-521.5 "/>
<text text-anchor="start" x="316.62" y="-509.5" font-family="Helvetica,sans-Serif" font-size="10.00">+ hasChildNodes()</text>
<text text-anchor="start" x="316.62" y="-499.5" font-family="Helvetica,sans-Serif" font-size="10.00">+ normalize()</text>
<text text-anchor="start" x="316.62" y="-489.5" font-family="Helvetica,sans-Serif" font-size="10.00">+ cloneNode()</text>
<text text-anchor="start" x="316.62" y="-479.5" font-family="Helvetica,sans-Serif" font-size="10.00">+ lookupPrefix()</text>
<text text-anchor="start" x="316.62" y="-469.5" font-family="Helvetica,sans-Serif" font-size="10.00">+ lookupNamespaceURI()</text>
<text text-anchor="start" x="316.62" y="-459.5" font-family="Helvetica,sans-Serif" font-size="10.00">+ insertBefore()</text>
<text text-anchor="start" x="316.62" y="-449.5" font-family="Helvetica,sans-Serif" font-size="10.00">+ insertAfter()</text>
<text text-anchor="start" x="316.62" y="-439.5" font-family="Helvetica,sans-Serif" font-size="10.00">+ appendChild()</text>
<text text-anchor="start" x="316.62" y="-429.5" font-family="Helvetica,sans-Serif" font-size="10.00">+ replaceChild()</text>
<text text-anchor="start" x="316.62" y="-419.5" font-family="Helvetica,sans-Serif" font-size="10.00">+ removeChild()</text>
</g>
<!-- Node3 -->
<g id="node3" class="node"><title>Node3</title>
<g id="a_node3"><a xlink:href="../../d7/d50/interfaceXmlCharacterData.html" target="_top" xlink:title="XmlCharacterData 接口提供了 XmlText 和 XmlComment 节点的常用功能 ">
<polygon fill="white" stroke="black" points="34.1577,-227.5 34.1577,-331.5 132.409,-331.5 132.409,-227.5 34.1577,-227.5"/>
<text text-anchor="middle" x="83.2832" y="-319.5" font-family="Helvetica,sans-Serif" font-size="10.00">XmlCharacterData</text>
<polyline fill="none" stroke="black" points="34.1577,-313.5 132.409,-313.5 "/>
<text text-anchor="start" x="42.1577" y="-301.5" font-family="Helvetica,sans-Serif" font-size="10.00">+ data</text>
<text text-anchor="start" x="42.1577" y="-291.5" font-family="Helvetica,sans-Serif" font-size="10.00">+ length</text>
<polyline fill="none" stroke="black" points="34.1577,-285.5 132.409,-285.5 "/>
<text text-anchor="start" x="42.1577" y="-273.5" font-family="Helvetica,sans-Serif" font-size="10.00">+ substringData()</text>
<text text-anchor="start" x="42.1577" y="-263.5" font-family="Helvetica,sans-Serif" font-size="10.00">+ appendData()</text>
<text text-anchor="start" x="42.1577" y="-253.5" font-family="Helvetica,sans-Serif" font-size="10.00">+ insertData()</text>
<text text-anchor="start" x="42.1577" y="-243.5" font-family="Helvetica,sans-Serif" font-size="10.00">+ deleteData()</text>
<text text-anchor="start" x="42.1577" y="-233.5" font-family="Helvetica,sans-Serif" font-size="10.00">+ replaceData()</text>
</a>
</g>
</g>
<!-- Node1&#45;&gt;Node3 -->
<g id="edge2" class="edge"><title>Node1&#45;&gt;Node3</title>
<path fill="none" stroke="midnightblue" d="M299.541,-492.06C250.469,-464.889 187.123,-424.633 141.283,-377 128.542,-363.761 117.338,-347.234 108.26,-331.618"/>
<polygon fill="none" stroke="midnightblue" points="298.078,-495.249 308.531,-496.98 301.439,-489.108 298.078,-495.249"/>
</g>
<!-- Node7 -->
<g id="node7" class="node"><title>Node7</title>
<g id="a_node7"><a xlink:href="../../d6/d47/interfaceXmlDocument.html" target="_top" xlink:title="XmlDocument 对象代表整个 XML 文档 ">
<polygon fill="white" stroke="black" points="150.671,-182.5 150.671,-376.5 305.895,-376.5 305.895,-182.5 150.671,-182.5"/>
<text text-anchor="middle" x="228.283" y="-364.5" font-family="Helvetica,sans-Serif" font-size="10.00">XmlDocument</text>
<polyline fill="none" stroke="black" points="150.671,-358.5 305.895,-358.5 "/>
<text text-anchor="start" x="158.671" y="-346.5" font-family="Helvetica,sans-Serif" font-size="10.00">+ inputEncoding</text>
<text text-anchor="start" x="158.671" y="-336.5" font-family="Helvetica,sans-Serif" font-size="10.00">+ xmlStandalone</text>
<text text-anchor="start" x="158.671" y="-326.5" font-family="Helvetica,sans-Serif" font-size="10.00">+ xmlVersion</text>
<text text-anchor="start" x="158.671" y="-316.5" font-family="Helvetica,sans-Serif" font-size="10.00">+ doctype</text>
<text text-anchor="start" x="158.671" y="-306.5" font-family="Helvetica,sans-Serif" font-size="10.00">+ documentElement</text>
<polyline fill="none" stroke="black" points="150.671,-300.5 305.895,-300.5 "/>
<text text-anchor="start" x="158.671" y="-288.5" font-family="Helvetica,sans-Serif" font-size="10.00">+ XmlDocument()</text>
<text text-anchor="start" x="158.671" y="-278.5" font-family="Helvetica,sans-Serif" font-size="10.00">+ loadXML()</text>
<text text-anchor="start" x="158.671" y="-268.5" font-family="Helvetica,sans-Serif" font-size="10.00">+ loadHTML()</text>
<text text-anchor="start" x="158.671" y="-258.5" font-family="Helvetica,sans-Serif" font-size="10.00">+ getElementsByTagName()</text>
<text text-anchor="start" x="158.671" y="-248.5" font-family="Helvetica,sans-Serif" font-size="10.00">+ getElementsByTagNameNS()</text>
<text text-anchor="start" x="158.671" y="-238.5" font-family="Helvetica,sans-Serif" font-size="10.00">+ createElement()</text>
<text text-anchor="start" x="158.671" y="-228.5" font-family="Helvetica,sans-Serif" font-size="10.00">+ createElementNS()</text>
<text text-anchor="start" x="158.671" y="-218.5" font-family="Helvetica,sans-Serif" font-size="10.00">+ createTextNode()</text>
<text text-anchor="start" x="158.671" y="-208.5" font-family="Helvetica,sans-Serif" font-size="10.00">+ createComment()</text>
<text text-anchor="start" x="158.671" y="-198.5" font-family="Helvetica,sans-Serif" font-size="10.00">+ createCDATASection()</text>
<text text-anchor="start" x="158.671" y="-188.5" font-family="Helvetica,sans-Serif" font-size="10.00">+ createProcessingInstruction()</text>
</a>
</g>
</g>
<!-- Node1&#45;&gt;Node7 -->
<g id="edge6" class="edge"><title>Node1&#45;&gt;Node7</title>
<path fill="none" stroke="midnightblue" d="M303.316,-408.467C297.082,-397.835 290.828,-387.169 284.736,-376.78"/>
<polygon fill="none" stroke="midnightblue" points="300.467,-410.527 308.544,-417.383 306.505,-406.986 300.467,-410.527"/>
</g>
<!-- Node8 -->
<g id="node8" class="node"><title>Node8</title>
<g id="a_node8"><a xlink:href="../../d4/d35/interfaceXmlDocumentType.html" target="_top" xlink:title="XmlDocumentType 对象用于访问 XML 所定义的实体 ">
<polygon fill="white" stroke="black" points="324.042,-242.5 324.042,-316.5 424.524,-316.5 424.524,-242.5 324.042,-242.5"/>
<text text-anchor="middle" x="374.283" y="-304.5" font-family="Helvetica,sans-Serif" font-size="10.00">XmlDocumentType</text>
<polyline fill="none" stroke="black" points="324.042,-298.5 424.524,-298.5 "/>
<text text-anchor="start" x="332.042" y="-286.5" font-family="Helvetica,sans-Serif" font-size="10.00">+ name</text>
<text text-anchor="start" x="332.042" y="-276.5" font-family="Helvetica,sans-Serif" font-size="10.00">+ publicId</text>
<text text-anchor="start" x="332.042" y="-266.5" font-family="Helvetica,sans-Serif" font-size="10.00">+ systemId</text>
<polyline fill="none" stroke="black" points="324.042,-260.5 424.524,-260.5 "/>
<text text-anchor="middle" x="374.283" y="-248.5" font-family="Helvetica,sans-Serif" font-size="10.00"> </text>
</a>
</g>
</g>
<!-- Node1&#45;&gt;Node8 -->
<g id="edge7" class="edge"><title>Node1&#45;&gt;Node8</title>
<path fill="none" stroke="midnightblue" d="M374.283,-403.079C374.283,-371.328 374.283,-339.744 374.283,-316.589"/>
<polygon fill="none" stroke="midnightblue" points="370.783,-403.383 374.283,-413.384 377.783,-403.384 370.783,-403.383"/>
</g>
<!-- Node9 -->
<g id="node9" class="node"><title>Node9</title>
<g id="a_node9"><a xlink:href="../../d7/ddb/interfaceXmlElement.html" target="_top" xlink:title="XmlElement 对象表示 XML 文档中的元素 ">
<polygon fill="white" stroke="black" points="442.671,-187.5 442.671,-371.5 597.895,-371.5 597.895,-187.5 442.671,-187.5"/>
<text text-anchor="middle" x="520.283" y="-359.5" font-family="Helvetica,sans-Serif" font-size="10.00">XmlElement</text>
<polyline fill="none" stroke="black" points="442.671,-353.5 597.895,-353.5 "/>
<text text-anchor="start" x="450.671" y="-341.5" font-family="Helvetica,sans-Serif" font-size="10.00">+ namespaceURI</text>
<text text-anchor="start" x="450.671" y="-331.5" font-family="Helvetica,sans-Serif" font-size="10.00">+ prefix</text>
<text text-anchor="start" x="450.671" y="-321.5" font-family="Helvetica,sans-Serif" font-size="10.00">+ localName</text>
<text text-anchor="start" x="450.671" y="-311.5" font-family="Helvetica,sans-Serif" font-size="10.00">+ tagName</text>
<text text-anchor="start" x="450.671" y="-301.5" font-family="Helvetica,sans-Serif" font-size="10.00">+ attributes</text>
<polyline fill="none" stroke="black" points="442.671,-295.5 597.895,-295.5 "/>
<text text-anchor="start" x="450.671" y="-283.5" font-family="Helvetica,sans-Serif" font-size="10.00">+ getAttribute()</text>
<text text-anchor="start" x="450.671" y="-273.5" font-family="Helvetica,sans-Serif" font-size="10.00">+ getAttributeNS()</text>
<text text-anchor="start" x="450.671" y="-263.5" font-family="Helvetica,sans-Serif" font-size="10.00">+ setAttribute()</text>
<text text-anchor="start" x="450.671" y="-253.5" font-family="Helvetica,sans-Serif" font-size="10.00">+ setAttributeNS()</text>
<text text-anchor="start" x="450.671" y="-243.5" font-family="Helvetica,sans-Serif" font-size="10.00">+ removeAttribute()</text>
<text text-anchor="start" x="450.671" y="-233.5" font-family="Helvetica,sans-Serif" font-size="10.00">+ removeAttributeNS()</text>
<text text-anchor="start" x="450.671" y="-223.5" font-family="Helvetica,sans-Serif" font-size="10.00">+ hasAttribute()</text>
<text text-anchor="start" x="450.671" y="-213.5" font-family="Helvetica,sans-Serif" font-size="10.00">+ hasAttributeNS()</text>
<text text-anchor="start" x="450.671" y="-203.5" font-family="Helvetica,sans-Serif" font-size="10.00">+ getElementsByTagName()</text>
<text text-anchor="start" x="450.671" y="-193.5" font-family="Helvetica,sans-Serif" font-size="10.00">+ getElementsByTagNameNS()</text>
</a>
</g>
</g>
<!-- Node1&#45;&gt;Node9 -->
<g id="edge8" class="edge"><title>Node1&#45;&gt;Node9</title>
<path fill="none" stroke="midnightblue" d="M445.268,-408.436C452.484,-396.129 459.727,-383.778 466.713,-371.862"/>
<polygon fill="none" stroke="midnightblue" points="442.061,-406.986 440.022,-417.383 448.1,-410.527 442.061,-406.986"/>
</g>
<!-- Node10 -->
<g id="node10" class="node"><title>Node10</title>
<g id="a_node10"><a xlink:href="../../da/df6/interfaceXmlProcessingInstruction.html" target="_top" xlink:title="XmlProcessingInstruction 对象表示 xml 处理指令 ">
<polygon fill="white" stroke="black" points="615.872,-247.5 615.872,-311.5 744.694,-311.5 744.694,-247.5 615.872,-247.5"/>
<text text-anchor="middle" x="680.283" y="-299.5" font-family="Helvetica,sans-Serif" font-size="10.00">XmlProcessingInstruction</text>
<polyline fill="none" stroke="black" points="615.872,-293.5 744.694,-293.5 "/>
<text text-anchor="start" x="623.872" y="-281.5" font-family="Helvetica,sans-Serif" font-size="10.00">+ target</text>
<text text-anchor="start" x="623.872" y="-271.5" font-family="Helvetica,sans-Serif" font-size="10.00">+ data</text>
<polyline fill="none" stroke="black" points="615.872,-265.5 744.694,-265.5 "/>
<text text-anchor="middle" x="680.283" y="-253.5" font-family="Helvetica,sans-Serif" font-size="10.00"> </text>
</a>
</g>
</g>
<!-- Node1&#45;&gt;Node10 -->
<g id="edge9" class="edge"><title>Node1&#45;&gt;Node10</title>
<path fill="none" stroke="midnightblue" d="M448.921,-489.56C497.1,-461.719 559.473,-421.66 607.283,-377 628.008,-357.641 647.175,-331.864 660.664,-311.821"/>
<polygon fill="none" stroke="midnightblue" points="447.034,-486.608 440.097,-494.615 450.514,-492.682 447.034,-486.608"/>
</g>
<!-- Node2 -->
<g id="node2" class="node"><title>Node2</title>
<g id="a_node2"><a xlink:href="../../db/d38/interfaceobject.html" target="_top" xlink:title="基础对象，所有对象均继承于此 ">
<polygon fill="white" stroke="black" points="341.139,-684.5 341.139,-768.5 407.427,-768.5 407.427,-684.5 341.139,-684.5"/>
<text text-anchor="middle" x="374.283" y="-756.5" font-family="Helvetica,sans-Serif" font-size="10.00">object</text>
<polyline fill="none" stroke="black" points="341.139,-750.5 407.427,-750.5 "/>
<text text-anchor="middle" x="374.283" y="-738.5" font-family="Helvetica,sans-Serif" font-size="10.00"> </text>
<polyline fill="none" stroke="black" points="341.139,-732.5 407.427,-732.5 "/>
<text text-anchor="start" x="349.139" y="-720.5" font-family="Helvetica,sans-Serif" font-size="10.00">+ dispose()</text>
<text text-anchor="start" x="349.139" y="-710.5" font-family="Helvetica,sans-Serif" font-size="10.00">+ toString()</text>
<text text-anchor="start" x="349.139" y="-700.5" font-family="Helvetica,sans-Serif" font-size="10.00">+ toJSON()</text>
<text text-anchor="start" x="349.139" y="-690.5" font-family="Helvetica,sans-Serif" font-size="10.00">+ valueOf()</text>
</a>
</g>
</g>
<!-- Node2&#45;&gt;Node1 -->
<g id="edge1" class="edge"><title>Node2&#45;&gt;Node1</title>
<path fill="none" stroke="midnightblue" d="M374.283,-674.085C374.283,-665.706 374.283,-656.74 374.283,-647.536"/>
<polygon fill="none" stroke="midnightblue" points="370.783,-674.358 374.283,-684.358 377.783,-674.358 370.783,-674.358"/>
</g>
<!-- Node4 -->
<g id="node4" class="node"><title>Node4</title>
<g id="a_node4"><a xlink:href="../../dd/dc1/interfaceXmlComment.html" target="_top" xlink:title="XmlComment 对象表示文档中注释节点的内容 ">
<polygon fill="white" stroke="black" points="0,-91.5 0,-145.5 76.5664,-145.5 76.5664,-91.5 0,-91.5"/>
<text text-anchor="middle" x="38.2832" y="-133.5" font-family="Helvetica,sans-Serif" font-size="10.00">XmlComment</text>
<polyline fill="none" stroke="black" points="0,-127.5 76.5664,-127.5 "/>
<text text-anchor="middle" x="38.2832" y="-115.5" font-family="Helvetica,sans-Serif" font-size="10.00"> </text>
<polyline fill="none" stroke="black" points="0,-109.5 76.5664,-109.5 "/>
<text text-anchor="middle" x="38.2832" y="-97.5" font-family="Helvetica,sans-Serif" font-size="10.00"> </text>
</a>
</g>
</g>
<!-- Node3&#45;&gt;Node4 -->
<g id="edge3" class="edge"><title>Node3&#45;&gt;Node4</title>
<path fill="none" stroke="midnightblue" d="M66.0349,-217.556C58.9842,-192.643 51.2047,-165.156 45.681,-145.639"/>
<polygon fill="none" stroke="midnightblue" points="62.7062,-218.647 68.7972,-227.316 69.4416,-216.741 62.7062,-218.647"/>
</g>
<!-- Node5 -->
<g id="node5" class="node"><title>Node5</title>
<g id="a_node5"><a xlink:href="../../d3/d51/interfaceXmlText.html" target="_top" xlink:title="XmlText 对象表示元素或属性的文本内容 ">
<polygon fill="white" stroke="black" points="94.5825,-91.5 94.5825,-145.5 161.984,-145.5 161.984,-91.5 94.5825,-91.5"/>
<text text-anchor="middle" x="128.283" y="-133.5" font-family="Helvetica,sans-Serif" font-size="10.00">XmlText</text>
<polyline fill="none" stroke="black" points="94.5825,-127.5 161.984,-127.5 "/>
<text text-anchor="middle" x="128.283" y="-115.5" font-family="Helvetica,sans-Serif" font-size="10.00"> </text>
<polyline fill="none" stroke="black" points="94.5825,-109.5 161.984,-109.5 "/>
<text text-anchor="start" x="102.583" y="-97.5" font-family="Helvetica,sans-Serif" font-size="10.00">+ splitText()</text>
</a>
</g>
</g>
<!-- Node3&#45;&gt;Node5 -->
<g id="edge4" class="edge"><title>Node3&#45;&gt;Node5</title>
<path fill="none" stroke="midnightblue" d="M100.532,-217.556C107.582,-192.643 115.362,-165.156 120.885,-145.639"/>
<polygon fill="none" stroke="midnightblue" points="97.1248,-216.741 97.7692,-227.316 103.86,-218.647 97.1248,-216.741"/>
</g>
<!-- Node6 -->
<g id="node6" class="node"><title>Node6</title>
<g id="a_node6"><a xlink:href="../../d4/dd8/interfaceXmlCDATASection.html" target="_top" xlink:title="XmlCDATASection 对象表示文档中的 CDATA 区段 ">
<polygon fill="white" stroke="black" points="78.7866,-0.5 78.7866,-54.5 177.78,-54.5 177.78,-0.5 78.7866,-0.5"/>
<text text-anchor="middle" x="128.283" y="-42.5" font-family="Helvetica,sans-Serif" font-size="10.00">XmlCDATASection</text>
<polyline fill="none" stroke="black" points="78.7866,-36.5 177.78,-36.5 "/>
<text text-anchor="middle" x="128.283" y="-24.5" font-family="Helvetica,sans-Serif" font-size="10.00"> </text>
<polyline fill="none" stroke="black" points="78.7866,-18.5 177.78,-18.5 "/>
<text text-anchor="middle" x="128.283" y="-6.5" font-family="Helvetica,sans-Serif" font-size="10.00"> </text>
</a>
</g>
</g>
<!-- Node5&#45;&gt;Node6 -->
<g id="edge5" class="edge"><title>Node5&#45;&gt;Node6</title>
<path fill="none" stroke="midnightblue" d="M128.283,-81.1155C128.283,-72.2061 128.283,-62.8475 128.283,-54.5341"/>
<polygon fill="none" stroke="midnightblue" points="124.783,-81.2784 128.283,-91.2784 131.783,-81.2785 124.783,-81.2784"/>
</g>
</g>
</svg>
