<?xml version="1.0" encoding="UTF-8" standalone="no"?>
<!DOCTYPE svg PUBLIC "-//W3C//DTD SVG 1.1//EN"
 "http://www.w3.org/Graphics/SVG/1.1/DTD/svg11.dtd">
<!-- Generated by graphviz version 2.38.0 (20140413.2041)
 -->
<!-- Title: XmlNode Pages: 1 -->
<svg width="785pt" height="707pt"
 viewBox="0.00 0.00 785.45 707.00" xmlns="http://www.w3.org/2000/svg" xmlns:xlink="http://www.w3.org/1999/xlink">
<g id="graph0" class="graph" transform="scale(1 1) rotate(0) translate(4 703)">
<title>XmlNode</title>
<polygon fill="white" stroke="none" points="-4,4 -4,-703 781.454,-703 781.454,4 -4,4"/>
<!-- Node1 -->
<g id="node1" class="node"><title>Node1</title>
<polygon fill="#bfbfbf" stroke="black" points="298.495,-373.5 298.495,-577.5 397.591,-577.5 397.591,-373.5 298.495,-373.5"/>
<text text-anchor="middle" x="348.043" y="-565.5" font-family="Helvetica,sans-Serif" font-size="10.00">XmlNode</text>
<polyline fill="none" stroke="black" points="298.495,-559.5 397.591,-559.5 "/>
<text text-anchor="start" x="306.495" y="-547.5" font-family="Helvetica,sans-Serif" font-size="10.00">+ nodeName</text>
<text text-anchor="start" x="306.495" y="-537.5" font-family="Helvetica,sans-Serif" font-size="10.00">+ nodeValue</text>
<text text-anchor="start" x="306.495" y="-527.5" font-family="Helvetica,sans-Serif" font-size="10.00">+ nodeType</text>
<text text-anchor="start" x="306.495" y="-517.5" font-family="Helvetica,sans-Serif" font-size="10.00">+ parentNode</text>
<text text-anchor="start" x="306.495" y="-507.5" font-family="Helvetica,sans-Serif" font-size="10.00">+ childNodes</text>
<text text-anchor="start" x="306.495" y="-497.5" font-family="Helvetica,sans-Serif" font-size="10.00">+ firstChild</text>
<text text-anchor="start" x="306.495" y="-487.5" font-family="Helvetica,sans-Serif" font-size="10.00">+ lastChild</text>
<text text-anchor="start" x="306.495" y="-477.5" font-family="Helvetica,sans-Serif" font-size="10.00">+ previousSibling</text>
<text text-anchor="start" x="306.495" y="-467.5" font-family="Helvetica,sans-Serif" font-size="10.00">+ nextSibling</text>
<text text-anchor="start" x="306.495" y="-457.5" font-family="Helvetica,sans-Serif" font-size="10.00">+ ownerDocument</text>
<polyline fill="none" stroke="black" points="298.495,-451.5 397.591,-451.5 "/>
<text text-anchor="start" x="306.495" y="-439.5" font-family="Helvetica,sans-Serif" font-size="10.00">+ insertBefore()</text>
<text text-anchor="start" x="306.495" y="-429.5" font-family="Helvetica,sans-Serif" font-size="10.00">+ replaceChild()</text>
<text text-anchor="start" x="306.495" y="-419.5" font-family="Helvetica,sans-Serif" font-size="10.00">+ removeChild()</text>
<text text-anchor="start" x="306.495" y="-409.5" font-family="Helvetica,sans-Serif" font-size="10.00">+ appendChild()</text>
<text text-anchor="start" x="306.495" y="-399.5" font-family="Helvetica,sans-Serif" font-size="10.00">+ hasChildNodes()</text>
<text text-anchor="start" x="306.495" y="-389.5" font-family="Helvetica,sans-Serif" font-size="10.00">+ cloneNode()</text>
<text text-anchor="start" x="306.495" y="-379.5" font-family="Helvetica,sans-Serif" font-size="10.00">+ normalize()</text>
</g>
<!-- Node3 -->
<g id="node3" class="node"><title>Node3</title>
<g id="a_node3"><a xlink:href="../../d7/dce/interfaceXmlAttr.html" target="_top" xlink:title="XmlAttr 对象表示 XmlElement 对象的属性 ">
<polygon fill="white" stroke="black" points="0,-222.5 0,-296.5 64.0859,-296.5 64.0859,-222.5 0,-222.5"/>
<text text-anchor="middle" x="32.043" y="-284.5" font-family="Helvetica,sans-Serif" font-size="10.00">XmlAttr</text>
<polyline fill="none" stroke="black" points="0,-278.5 64.0859,-278.5 "/>
<text text-anchor="start" x="8" y="-266.5" font-family="Helvetica,sans-Serif" font-size="10.00">+ name</text>
<text text-anchor="start" x="8" y="-256.5" font-family="Helvetica,sans-Serif" font-size="10.00">+ specified</text>
<text text-anchor="start" x="8" y="-246.5" font-family="Helvetica,sans-Serif" font-size="10.00">+ value</text>
<polyline fill="none" stroke="black" points="0,-240.5 64.0859,-240.5 "/>
<text text-anchor="middle" x="32.043" y="-228.5" font-family="Helvetica,sans-Serif" font-size="10.00"> </text>
</a>
</g>
</g>
<!-- Node1&#45;&gt;Node3 -->
<g id="edge2" class="edge"><title>Node1&#45;&gt;Node3</title>
<path fill="none" stroke="midnightblue" d="M288.569,-456.69C228.135,-436.088 134.861,-397.09 73.043,-337 61.4817,-325.762 52.4223,-310.554 45.7931,-296.658"/>
<polygon fill="none" stroke="midnightblue" points="287.752,-460.107 298.346,-459.96 289.973,-453.469 287.752,-460.107"/>
</g>
<!-- Node4 -->
<g id="node4" class="node"><title>Node4</title>
<g id="a_node4"><a xlink:href="../../d7/d50/interfaceXmlCharacterData.html" target="_top" xlink:title="XmlCharacterData 接口提供了 XmlText 和 XmlComment 节点的常用功能 ">
<polygon fill="white" stroke="black" points="81.9175,-207.5 81.9175,-311.5 180.168,-311.5 180.168,-207.5 81.9175,-207.5"/>
<text text-anchor="middle" x="131.043" y="-299.5" font-family="Helvetica,sans-Serif" font-size="10.00">XmlCharacterData</text>
<polyline fill="none" stroke="black" points="81.9175,-293.5 180.168,-293.5 "/>
<text text-anchor="start" x="89.9175" y="-281.5" font-family="Helvetica,sans-Serif" font-size="10.00">+ data</text>
<text text-anchor="start" x="89.9175" y="-271.5" font-family="Helvetica,sans-Serif" font-size="10.00">+ length</text>
<polyline fill="none" stroke="black" points="81.9175,-265.5 180.168,-265.5 "/>
<text text-anchor="start" x="89.9175" y="-253.5" font-family="Helvetica,sans-Serif" font-size="10.00">+ substringData()</text>
<text text-anchor="start" x="89.9175" y="-243.5" font-family="Helvetica,sans-Serif" font-size="10.00">+ appendData()</text>
<text text-anchor="start" x="89.9175" y="-233.5" font-family="Helvetica,sans-Serif" font-size="10.00">+ insertData()</text>
<text text-anchor="start" x="89.9175" y="-223.5" font-family="Helvetica,sans-Serif" font-size="10.00">+ deleteData()</text>
<text text-anchor="start" x="89.9175" y="-213.5" font-family="Helvetica,sans-Serif" font-size="10.00">+ replaceData()</text>
</a>
</g>
</g>
<!-- Node1&#45;&gt;Node4 -->
<g id="edge3" class="edge"><title>Node1&#45;&gt;Node4</title>
<path fill="none" stroke="midnightblue" d="M290.543,-429.705C259.118,-404.041 220.34,-370.377 189.043,-337 181.633,-329.097 174.246,-320.276 167.349,-311.512"/>
<polygon fill="none" stroke="midnightblue" points="288.394,-432.469 298.365,-436.053 292.805,-427.034 288.394,-432.469"/>
</g>
<!-- Node8 -->
<g id="node8" class="node"><title>Node8</title>
<g id="a_node8"><a xlink:href="../../d6/d47/interfaceXmlDocument.html" target="_top" xlink:title="XmlDocument 对象代表整个 XML 文档 ">
<polygon fill="white" stroke="black" points="197.707,-182.5 197.707,-336.5 352.379,-336.5 352.379,-182.5 197.707,-182.5"/>
<text text-anchor="middle" x="275.043" y="-324.5" font-family="Helvetica,sans-Serif" font-size="10.00">XmlDocument</text>
<polyline fill="none" stroke="black" points="197.707,-318.5 352.379,-318.5 "/>
<text text-anchor="start" x="205.707" y="-306.5" font-family="Helvetica,sans-Serif" font-size="10.00">+ doctype</text>
<text text-anchor="start" x="205.707" y="-296.5" font-family="Helvetica,sans-Serif" font-size="10.00">+ documentElement</text>
<polyline fill="none" stroke="black" points="197.707,-290.5 352.379,-290.5 "/>
<text text-anchor="start" x="205.707" y="-278.5" font-family="Helvetica,sans-Serif" font-size="10.00">+ XmlDocument()</text>
<text text-anchor="start" x="205.707" y="-268.5" font-family="Helvetica,sans-Serif" font-size="10.00">+ loadXML()</text>
<text text-anchor="start" x="205.707" y="-258.5" font-family="Helvetica,sans-Serif" font-size="10.00">+ createElement()</text>
<text text-anchor="start" x="205.707" y="-248.5" font-family="Helvetica,sans-Serif" font-size="10.00">+ createTextNode()</text>
<text text-anchor="start" x="205.707" y="-238.5" font-family="Helvetica,sans-Serif" font-size="10.00">+ createComment()</text>
<text text-anchor="start" x="205.707" y="-228.5" font-family="Helvetica,sans-Serif" font-size="10.00">+ createCDATASection()</text>
<text text-anchor="start" x="205.707" y="-218.5" font-family="Helvetica,sans-Serif" font-size="10.00">+ createProcessingInstruction()</text>
<text text-anchor="start" x="205.707" y="-208.5" font-family="Helvetica,sans-Serif" font-size="10.00">+ createAttribute()</text>
<text text-anchor="start" x="205.707" y="-198.5" font-family="Helvetica,sans-Serif" font-size="10.00">+ getElementsByTagName()</text>
<text text-anchor="start" x="205.707" y="-188.5" font-family="Helvetica,sans-Serif" font-size="10.00">+ getElementById()</text>
</a>
</g>
</g>
<!-- Node1&#45;&gt;Node8 -->
<g id="edge7" class="edge"><title>Node1&#45;&gt;Node8</title>
<path fill="none" stroke="midnightblue" d="M310.315,-363.901C307.189,-354.737 304.075,-345.608 301.065,-336.783"/>
<polygon fill="none" stroke="midnightblue" points="307.033,-365.119 313.574,-373.453 313.658,-362.859 307.033,-365.119"/>
</g>
<!-- Node9 -->
<g id="node9" class="node"><title>Node9</title>
<g id="a_node9"><a xlink:href="../../d4/d35/interfaceXmlDocumentType.html" target="_top" xlink:title="XmlDocumentType 对象用于访问 XML 所定义的实体 ">
<polygon fill="white" stroke="black" points="370.802,-227.5 370.802,-291.5 471.284,-291.5 471.284,-227.5 370.802,-227.5"/>
<text text-anchor="middle" x="421.043" y="-279.5" font-family="Helvetica,sans-Serif" font-size="10.00">XmlDocumentType</text>
<polyline fill="none" stroke="black" points="370.802,-273.5 471.284,-273.5 "/>
<text text-anchor="start" x="378.802" y="-261.5" font-family="Helvetica,sans-Serif" font-size="10.00">+ name</text>
<text text-anchor="start" x="378.802" y="-251.5" font-family="Helvetica,sans-Serif" font-size="10.00">+ systemId</text>
<polyline fill="none" stroke="black" points="370.802,-245.5 471.284,-245.5 "/>
<text text-anchor="middle" x="421.043" y="-233.5" font-family="Helvetica,sans-Serif" font-size="10.00"> </text>
</a>
</g>
</g>
<!-- Node1&#45;&gt;Node9 -->
<g id="edge8" class="edge"><title>Node1&#45;&gt;Node9</title>
<path fill="none" stroke="midnightblue" d="M385.835,-363.714C394.851,-337.283 403.762,-311.16 410.363,-291.808"/>
<polygon fill="none" stroke="midnightblue" points="382.428,-362.859 382.512,-373.453 389.053,-365.119 382.428,-362.859"/>
</g>
<!-- Node10 -->
<g id="node10" class="node"><title>Node10</title>
<g id="a_node10"><a xlink:href="../../d7/ddb/interfaceXmlElement.html" target="_top" xlink:title="XmlElement 对象表示 XML 文档中的元素 ">
<polygon fill="white" stroke="black" points="489.377,-192.5 489.377,-326.5 630.709,-326.5 630.709,-192.5 489.377,-192.5"/>
<text text-anchor="middle" x="560.043" y="-314.5" font-family="Helvetica,sans-Serif" font-size="10.00">XmlElement</text>
<polyline fill="none" stroke="black" points="489.377,-308.5 630.709,-308.5 "/>
<text text-anchor="start" x="497.377" y="-296.5" font-family="Helvetica,sans-Serif" font-size="10.00">+ tagName</text>
<text text-anchor="start" x="497.377" y="-286.5" font-family="Helvetica,sans-Serif" font-size="10.00">+ attributes</text>
<polyline fill="none" stroke="black" points="489.377,-280.5 630.709,-280.5 "/>
<text text-anchor="start" x="497.377" y="-268.5" font-family="Helvetica,sans-Serif" font-size="10.00">+ getAttribute()</text>
<text text-anchor="start" x="497.377" y="-258.5" font-family="Helvetica,sans-Serif" font-size="10.00">+ setAttribute()</text>
<text text-anchor="start" x="497.377" y="-248.5" font-family="Helvetica,sans-Serif" font-size="10.00">+ removeAttribute()</text>
<text text-anchor="start" x="497.377" y="-238.5" font-family="Helvetica,sans-Serif" font-size="10.00">+ getAttributeNode()</text>
<text text-anchor="start" x="497.377" y="-228.5" font-family="Helvetica,sans-Serif" font-size="10.00">+ setAttributeNode()</text>
<text text-anchor="start" x="497.377" y="-218.5" font-family="Helvetica,sans-Serif" font-size="10.00">+ removeAttributeNode()</text>
<text text-anchor="start" x="497.377" y="-208.5" font-family="Helvetica,sans-Serif" font-size="10.00">+ getElementsByTagName()</text>
<text text-anchor="start" x="497.377" y="-198.5" font-family="Helvetica,sans-Serif" font-size="10.00">+ hasAttribute()</text>
</a>
</g>
</g>
<!-- Node1&#45;&gt;Node10 -->
<g id="edge9" class="edge"><title>Node1&#45;&gt;Node10</title>
<path fill="none" stroke="midnightblue" d="M405.007,-416.999C432.62,-389.125 465.929,-355.502 494.584,-326.576"/>
<polygon fill="none" stroke="midnightblue" points="402.299,-414.759 397.748,-424.327 407.272,-419.686 402.299,-414.759"/>
</g>
<!-- Node11 -->
<g id="node11" class="node"><title>Node11</title>
<g id="a_node11"><a xlink:href="../../da/df6/interfaceXmlProcessingInstruction.html" target="_top" xlink:title="XmlProcessingInstruction 对象表示 xml 处理指令 ">
<polygon fill="white" stroke="black" points="648.632,-227.5 648.632,-291.5 777.454,-291.5 777.454,-227.5 648.632,-227.5"/>
<text text-anchor="middle" x="713.043" y="-279.5" font-family="Helvetica,sans-Serif" font-size="10.00">XmlProcessingInstruction</text>
<polyline fill="none" stroke="black" points="648.632,-273.5 777.454,-273.5 "/>
<text text-anchor="start" x="656.632" y="-261.5" font-family="Helvetica,sans-Serif" font-size="10.00">+ target</text>
<text text-anchor="start" x="656.632" y="-251.5" font-family="Helvetica,sans-Serif" font-size="10.00">+ data</text>
<polyline fill="none" stroke="black" points="648.632,-245.5 777.454,-245.5 "/>
<text text-anchor="middle" x="713.043" y="-233.5" font-family="Helvetica,sans-Serif" font-size="10.00"> </text>
</a>
</g>
</g>
<!-- Node1&#45;&gt;Node11 -->
<g id="edge10" class="edge"><title>Node1&#45;&gt;Node11</title>
<path fill="none" stroke="midnightblue" d="M407.361,-453.998C468.934,-431.076 566.363,-390.097 640.043,-337 657.766,-324.228 674.786,-306.8 687.927,-291.804"/>
<polygon fill="none" stroke="midnightblue" points="405.971,-450.781 397.797,-457.521 408.39,-457.349 405.971,-450.781"/>
</g>
<!-- Node2 -->
<g id="node2" class="node"><title>Node2</title>
<g id="a_node2"><a xlink:href="../../db/d38/interfaceobject.html" target="_top" xlink:title="基础对象，所有对象均继承于此 ">
<polygon fill="white" stroke="black" points="314.899,-614.5 314.899,-698.5 381.187,-698.5 381.187,-614.5 314.899,-614.5"/>
<text text-anchor="middle" x="348.043" y="-686.5" font-family="Helvetica,sans-Serif" font-size="10.00">object</text>
<polyline fill="none" stroke="black" points="314.899,-680.5 381.187,-680.5 "/>
<text text-anchor="middle" x="348.043" y="-668.5" font-family="Helvetica,sans-Serif" font-size="10.00"> </text>
<polyline fill="none" stroke="black" points="314.899,-662.5 381.187,-662.5 "/>
<text text-anchor="start" x="322.899" y="-650.5" font-family="Helvetica,sans-Serif" font-size="10.00">+ dispose()</text>
<text text-anchor="start" x="322.899" y="-640.5" font-family="Helvetica,sans-Serif" font-size="10.00">+ toString()</text>
<text text-anchor="start" x="322.899" y="-630.5" font-family="Helvetica,sans-Serif" font-size="10.00">+ toJSON()</text>
<text text-anchor="start" x="322.899" y="-620.5" font-family="Helvetica,sans-Serif" font-size="10.00">+ valueOf()</text>
</a>
</g>
</g>
<!-- Node2&#45;&gt;Node1 -->
<g id="edge1" class="edge"><title>Node2&#45;&gt;Node1</title>
<path fill="none" stroke="midnightblue" d="M348.043,-604.155C348.043,-595.787 348.043,-586.87 348.043,-577.789"/>
<polygon fill="none" stroke="midnightblue" points="344.543,-604.434 348.043,-614.434 351.543,-604.434 344.543,-604.434"/>
</g>
<!-- Node5 -->
<g id="node5" class="node"><title>Node5</title>
<g id="a_node5"><a xlink:href="../../dd/dc1/interfaceXmlComment.html" target="_top" xlink:title="XmlComment 对象表示文档中注释节点的内容 ">
<polygon fill="white" stroke="black" points="47.7598,-91.5 47.7598,-145.5 124.326,-145.5 124.326,-91.5 47.7598,-91.5"/>
<text text-anchor="middle" x="86.043" y="-133.5" font-family="Helvetica,sans-Serif" font-size="10.00">XmlComment</text>
<polyline fill="none" stroke="black" points="47.7598,-127.5 124.326,-127.5 "/>
<text text-anchor="middle" x="86.043" y="-115.5" font-family="Helvetica,sans-Serif" font-size="10.00"> </text>
<polyline fill="none" stroke="black" points="47.7598,-109.5 124.326,-109.5 "/>
<text text-anchor="middle" x="86.043" y="-97.5" font-family="Helvetica,sans-Serif" font-size="10.00"> </text>
</a>
</g>
</g>
<!-- Node4&#45;&gt;Node5 -->
<g id="edge4" class="edge"><title>Node4&#45;&gt;Node5</title>
<path fill="none" stroke="midnightblue" d="M111.282,-197.459C105.408,-179.316 99.2814,-160.392 94.5356,-145.733"/>
<polygon fill="none" stroke="midnightblue" points="108.005,-198.701 114.414,-207.136 114.664,-196.545 108.005,-198.701"/>
</g>
<!-- Node6 -->
<g id="node6" class="node"><title>Node6</title>
<g id="a_node6"><a xlink:href="../../d3/d51/interfaceXmlText.html" target="_top" xlink:title="XmlText 对象表示元素或属性的文本内容 ">
<polygon fill="white" stroke="black" points="142.342,-91.5 142.342,-145.5 209.744,-145.5 209.744,-91.5 142.342,-91.5"/>
<text text-anchor="middle" x="176.043" y="-133.5" font-family="Helvetica,sans-Serif" font-size="10.00">XmlText</text>
<polyline fill="none" stroke="black" points="142.342,-127.5 209.744,-127.5 "/>
<text text-anchor="middle" x="176.043" y="-115.5" font-family="Helvetica,sans-Serif" font-size="10.00"> </text>
<polyline fill="none" stroke="black" points="142.342,-109.5 209.744,-109.5 "/>
<text text-anchor="start" x="150.342" y="-97.5" font-family="Helvetica,sans-Serif" font-size="10.00">+ splitText()</text>
</a>
</g>
</g>
<!-- Node4&#45;&gt;Node6 -->
<g id="edge5" class="edge"><title>Node4&#45;&gt;Node6</title>
<path fill="none" stroke="midnightblue" d="M150.804,-197.459C156.678,-179.316 162.805,-160.392 167.55,-145.733"/>
<polygon fill="none" stroke="midnightblue" points="147.422,-196.545 147.671,-207.136 154.081,-198.701 147.422,-196.545"/>
</g>
<!-- Node7 -->
<g id="node7" class="node"><title>Node7</title>
<g id="a_node7"><a xlink:href="../../d4/dd8/interfaceXmlCDATASection.html" target="_top" xlink:title="XmlCDATASection 对象表示文档中的 CDATA 区段 ">
<polygon fill="white" stroke="black" points="126.546,-0.5 126.546,-54.5 225.54,-54.5 225.54,-0.5 126.546,-0.5"/>
<text text-anchor="middle" x="176.043" y="-42.5" font-family="Helvetica,sans-Serif" font-size="10.00">XmlCDATASection</text>
<polyline fill="none" stroke="black" points="126.546,-36.5 225.54,-36.5 "/>
<text text-anchor="middle" x="176.043" y="-24.5" font-family="Helvetica,sans-Serif" font-size="10.00"> </text>
<polyline fill="none" stroke="black" points="126.546,-18.5 225.54,-18.5 "/>
<text text-anchor="middle" x="176.043" y="-6.5" font-family="Helvetica,sans-Serif" font-size="10.00"> </text>
</a>
</g>
</g>
<!-- Node6&#45;&gt;Node7 -->
<g id="edge6" class="edge"><title>Node6&#45;&gt;Node7</title>
<path fill="none" stroke="midnightblue" d="M176.043,-81.1155C176.043,-72.2061 176.043,-62.8475 176.043,-54.5341"/>
<polygon fill="none" stroke="midnightblue" points="172.543,-81.2784 176.043,-91.2784 179.543,-81.2785 172.543,-81.2784"/>
</g>
</g>
</svg>
