<?xml version="1.0" encoding="UTF-8" standalone="no"?>
<!DOCTYPE svg PUBLIC "-//W3C//DTD SVG 1.1//EN"
 "http://www.w3.org/Graphics/SVG/1.1/DTD/svg11.dtd">
<!-- Generated by graphviz version 2.38.0 (20140413.2041)
 -->
<!-- Title: XmlNode Pages: 1 -->
<svg width="753pt" height="767pt"
 viewBox="0.00 0.00 752.69 767.00" xmlns="http://www.w3.org/2000/svg" xmlns:xlink="http://www.w3.org/1999/xlink">
<g id="graph0" class="graph" transform="scale(1 1) rotate(0) translate(4 763)">
<title>XmlNode</title>
<polygon fill="white" stroke="none" points="-4,4 -4,-763 748.694,-763 748.694,4 -4,4"/>
<!-- Node1 -->
<g id="node1" class="node"><title>Node1</title>
<polygon fill="#bfbfbf" stroke="black" points="308.62,-403.5 308.62,-637.5 439.947,-637.5 439.947,-403.5 308.62,-403.5"/>
<text text-anchor="middle" x="374.283" y="-625.5" font-family="Helvetica,sans-Serif" font-size="10.00">XmlNode</text>
<polyline fill="none" stroke="black" points="308.62,-619.5 439.947,-619.5 "/>
<text text-anchor="start" x="316.62" y="-607.5" font-family="Helvetica,sans-Serif" font-size="10.00">+ nodeType</text>
<text text-anchor="start" x="316.62" y="-597.5" font-family="Helvetica,sans-Serif" font-size="10.00">+ nodeName</text>
<text text-anchor="start" x="316.62" y="-587.5" font-family="Helvetica,sans-Serif" font-size="10.00">+ nodeValue</text>
<text text-anchor="start" x="316.62" y="-577.5" font-family="Helvetica,sans-Serif" font-size="10.00">+ ownerDocument</text>
<text text-anchor="start" x="316.62" y="-567.5" font-family="Helvetica,sans-Serif" font-size="10.00">+ parentNode</text>
<text text-anchor="start" x="316.62" y="-557.5" font-family="Helvetica,sans-Serif" font-size="10.00">+ childNodes</text>
<text text-anchor="start" x="316.62" y="-547.5" font-family="Helvetica,sans-Serif" font-size="10.00">+ firstChild</text>
<text text-anchor="start" x="316.62" y="-537.5" font-family="Helvetica,sans-Serif" font-size="10.00">+ lastChild</text>
<text text-anchor="start" x="316.62" y="-527.5" font-family="Helvetica,sans-Serif" font-size="10.00">+ previousSibling</text>
<text text-anchor="start" x="316.62" y="-517.5" font-family="Helvetica,sans-Serif" font-size="10.00">+ nextSibling</text>
<polyline fill="none" stroke="black" points="308.62,-511.5 439.947,-511.5 "/>
<text text-anchor="start" x="316.62" y="-499.5" font-family="Helvetica,sans-Serif" font-size="10.00">+ hasChildNodes()</text>
<text text-anchor="start" x="316.62" y="-489.5" font-family="Helvetica,sans-Serif" font-size="10.00">+ normalize()</text>
<text text-anchor="start" x="316.62" y="-479.5" font-family="Helvetica,sans-Serif" font-size="10.00">+ cloneNode()</text>
<text text-anchor="start" x="316.62" y="-469.5" font-family="Helvetica,sans-Serif" font-size="10.00">+ lookupPrefix()</text>
<text text-anchor="start" x="316.62" y="-459.5" font-family="Helvetica,sans-Serif" font-size="10.00">+ lookupNamespaceURI()</text>
<text text-anchor="start" x="316.62" y="-449.5" font-family="Helvetica,sans-Serif" font-size="10.00">+ insertBefore()</text>
<text text-anchor="start" x="316.62" y="-439.5" font-family="Helvetica,sans-Serif" font-size="10.00">+ insertAfter()</text>
<text text-anchor="start" x="316.62" y="-429.5" font-family="Helvetica,sans-Serif" font-size="10.00">+ appendChild()</text>
<text text-anchor="start" x="316.62" y="-419.5" font-family="Helvetica,sans-Serif" font-size="10.00">+ replaceChild()</text>
<text text-anchor="start" x="316.62" y="-409.5" font-family="Helvetica,sans-Serif" font-size="10.00">+ removeChild()</text>
</g>
<!-- Node3 -->
<g id="node3" class="node"><title>Node3</title>
<g id="a_node3"><a xlink:href="../../d7/d50/interfaceXmlCharacterData.html" target="_top" xlink:title="XmlCharacterData 接口提供了 XmlText 和 XmlComment 节点的常用功能 ">
<polygon fill="white" stroke="black" points="34.1577,-222.5 34.1577,-326.5 132.409,-326.5 132.409,-222.5 34.1577,-222.5"/>
<text text-anchor="middle" x="83.2832" y="-314.5" font-family="Helvetica,sans-Serif" font-size="10.00">XmlCharacterData</text>
<polyline fill="none" stroke="black" points="34.1577,-308.5 132.409,-308.5 "/>
<text text-anchor="start" x="42.1577" y="-296.5" font-family="Helvetica,sans-Serif" font-size="10.00">+ data</text>
<text text-anchor="start" x="42.1577" y="-286.5" font-family="Helvetica,sans-Serif" font-size="10.00">+ length</text>
<polyline fill="none" stroke="black" points="34.1577,-280.5 132.409,-280.5 "/>
<text text-anchor="start" x="42.1577" y="-268.5" font-family="Helvetica,sans-Serif" font-size="10.00">+ substringData()</text>
<text text-anchor="start" x="42.1577" y="-258.5" font-family="Helvetica,sans-Serif" font-size="10.00">+ appendData()</text>
<text text-anchor="start" x="42.1577" y="-248.5" font-family="Helvetica,sans-Serif" font-size="10.00">+ insertData()</text>
<text text-anchor="start" x="42.1577" y="-238.5" font-family="Helvetica,sans-Serif" font-size="10.00">+ deleteData()</text>
<text text-anchor="start" x="42.1577" y="-228.5" font-family="Helvetica,sans-Serif" font-size="10.00">+ replaceData()</text>
</a>
</g>
</g>
<!-- Node1&#45;&gt;Node3 -->
<g id="edge2" class="edge"><title>Node1&#45;&gt;Node3</title>
<path fill="none" stroke="midnightblue" d="M299.655,-481.561C250.776,-454.24 187.606,-414.003 141.283,-367 129.665,-355.212 119.181,-340.716 110.424,-326.767"/>
<polygon fill="none" stroke="midnightblue" points="298.164,-484.736 308.609,-486.511 301.55,-478.61 298.164,-484.736"/>
</g>
<!-- Node7 -->
<g id="node7" class="node"><title>Node7</title>
<g id="a_node7"><a xlink:href="../../d6/d47/interfaceXmlDocument.html" target="_top" xlink:title="XmlDocument 对象代表整个 XML 文档 ">
<polygon fill="white" stroke="black" points="150.671,-182.5 150.671,-366.5 305.895,-366.5 305.895,-182.5 150.671,-182.5"/>
<text text-anchor="middle" x="228.283" y="-354.5" font-family="Helvetica,sans-Serif" font-size="10.00">XmlDocument</text>
<polyline fill="none" stroke="black" points="150.671,-348.5 305.895,-348.5 "/>
<text text-anchor="start" x="158.671" y="-336.5" font-family="Helvetica,sans-Serif" font-size="10.00">+ inputEncoding</text>
<text text-anchor="start" x="158.671" y="-326.5" font-family="Helvetica,sans-Serif" font-size="10.00">+ xmlStandalone</text>
<text text-anchor="start" x="158.671" y="-316.5" font-family="Helvetica,sans-Serif" font-size="10.00">+ xmlVersion</text>
<text text-anchor="start" x="158.671" y="-306.5" font-family="Helvetica,sans-Serif" font-size="10.00">+ doctype</text>
<text text-anchor="start" x="158.671" y="-296.5" font-family="Helvetica,sans-Serif" font-size="10.00">+ documentElement</text>
<polyline fill="none" stroke="black" points="150.671,-290.5 305.895,-290.5 "/>
<text text-anchor="start" x="158.671" y="-278.5" font-family="Helvetica,sans-Serif" font-size="10.00">+ XmlDocument()</text>
<text text-anchor="start" x="158.671" y="-268.5" font-family="Helvetica,sans-Serif" font-size="10.00">+ loadXML()</text>
<text text-anchor="start" x="158.671" y="-258.5" font-family="Helvetica,sans-Serif" font-size="10.00">+ getElementsByTagName()</text>
<text text-anchor="start" x="158.671" y="-248.5" font-family="Helvetica,sans-Serif" font-size="10.00">+ getElementsByTagNameNS()</text>
<text text-anchor="start" x="158.671" y="-238.5" font-family="Helvetica,sans-Serif" font-size="10.00">+ createElement()</text>
<text text-anchor="start" x="158.671" y="-228.5" font-family="Helvetica,sans-Serif" font-size="10.00">+ createElementNS()</text>
<text text-anchor="start" x="158.671" y="-218.5" font-family="Helvetica,sans-Serif" font-size="10.00">+ createTextNode()</text>
<text text-anchor="start" x="158.671" y="-208.5" font-family="Helvetica,sans-Serif" font-size="10.00">+ createComment()</text>
<text text-anchor="start" x="158.671" y="-198.5" font-family="Helvetica,sans-Serif" font-size="10.00">+ createCDATASection()</text>
<text text-anchor="start" x="158.671" y="-188.5" font-family="Helvetica,sans-Serif" font-size="10.00">+ createProcessingInstruction()</text>
</a>
</g>
</g>
<!-- Node1&#45;&gt;Node7 -->
<g id="edge6" class="edge"><title>Node1&#45;&gt;Node7</title>
<path fill="none" stroke="midnightblue" d="M303.273,-400.826C296.369,-389.288 289.442,-377.71 282.737,-366.506"/>
<polygon fill="none" stroke="midnightblue" points="300.406,-402.85 308.544,-409.634 306.413,-399.256 300.406,-402.85"/>
</g>
<!-- Node8 -->
<g id="node8" class="node"><title>Node8</title>
<g id="a_node8"><a xlink:href="../../d4/d35/interfaceXmlDocumentType.html" target="_top" xlink:title="XmlDocumentType 对象用于访问 XML 所定义的实体 ">
<polygon fill="white" stroke="black" points="324.042,-237.5 324.042,-311.5 424.524,-311.5 424.524,-237.5 324.042,-237.5"/>
<text text-anchor="middle" x="374.283" y="-299.5" font-family="Helvetica,sans-Serif" font-size="10.00">XmlDocumentType</text>
<polyline fill="none" stroke="black" points="324.042,-293.5 424.524,-293.5 "/>
<text text-anchor="start" x="332.042" y="-281.5" font-family="Helvetica,sans-Serif" font-size="10.00">+ name</text>
<text text-anchor="start" x="332.042" y="-271.5" font-family="Helvetica,sans-Serif" font-size="10.00">+ publicId</text>
<text text-anchor="start" x="332.042" y="-261.5" font-family="Helvetica,sans-Serif" font-size="10.00">+ systemId</text>
<polyline fill="none" stroke="black" points="324.042,-255.5 424.524,-255.5 "/>
<text text-anchor="middle" x="374.283" y="-243.5" font-family="Helvetica,sans-Serif" font-size="10.00"> </text>
</a>
</g>
</g>
<!-- Node1&#45;&gt;Node8 -->
<g id="edge7" class="edge"><title>Node1&#45;&gt;Node8</title>
<path fill="none" stroke="midnightblue" d="M374.283,-393.075C374.283,-363.178 374.283,-333.636 374.283,-311.643"/>
<polygon fill="none" stroke="midnightblue" points="370.783,-393.217 374.283,-403.217 377.783,-393.217 370.783,-393.217"/>
</g>
<!-- Node9 -->
<g id="node9" class="node"><title>Node9</title>
<g id="a_node9"><a xlink:href="../../d7/ddb/interfaceXmlElement.html" target="_top" xlink:title="XmlElement 对象表示 XML 文档中的元素 ">
<polygon fill="white" stroke="black" points="442.671,-182.5 442.671,-366.5 597.895,-366.5 597.895,-182.5 442.671,-182.5"/>
<text text-anchor="middle" x="520.283" y="-354.5" font-family="Helvetica,sans-Serif" font-size="10.00">XmlElement</text>
<polyline fill="none" stroke="black" points="442.671,-348.5 597.895,-348.5 "/>
<text text-anchor="start" x="450.671" y="-336.5" font-family="Helvetica,sans-Serif" font-size="10.00">+ namespaceURI</text>
<text text-anchor="start" x="450.671" y="-326.5" font-family="Helvetica,sans-Serif" font-size="10.00">+ prefix</text>
<text text-anchor="start" x="450.671" y="-316.5" font-family="Helvetica,sans-Serif" font-size="10.00">+ localName</text>
<text text-anchor="start" x="450.671" y="-306.5" font-family="Helvetica,sans-Serif" font-size="10.00">+ tagName</text>
<text text-anchor="start" x="450.671" y="-296.5" font-family="Helvetica,sans-Serif" font-size="10.00">+ attributes</text>
<polyline fill="none" stroke="black" points="442.671,-290.5 597.895,-290.5 "/>
<text text-anchor="start" x="450.671" y="-278.5" font-family="Helvetica,sans-Serif" font-size="10.00">+ getAttribute()</text>
<text text-anchor="start" x="450.671" y="-268.5" font-family="Helvetica,sans-Serif" font-size="10.00">+ getAttributeNS()</text>
<text text-anchor="start" x="450.671" y="-258.5" font-family="Helvetica,sans-Serif" font-size="10.00">+ setAttribute()</text>
<text text-anchor="start" x="450.671" y="-248.5" font-family="Helvetica,sans-Serif" font-size="10.00">+ setAttributeNS()</text>
<text text-anchor="start" x="450.671" y="-238.5" font-family="Helvetica,sans-Serif" font-size="10.00">+ removeAttribute()</text>
<text text-anchor="start" x="450.671" y="-228.5" font-family="Helvetica,sans-Serif" font-size="10.00">+ removeAttributeNS()</text>
<text text-anchor="start" x="450.671" y="-218.5" font-family="Helvetica,sans-Serif" font-size="10.00">+ hasAttribute()</text>
<text text-anchor="start" x="450.671" y="-208.5" font-family="Helvetica,sans-Serif" font-size="10.00">+ hasAttributeNS()</text>
<text text-anchor="start" x="450.671" y="-198.5" font-family="Helvetica,sans-Serif" font-size="10.00">+ getElementsByTagName()</text>
<text text-anchor="start" x="450.671" y="-188.5" font-family="Helvetica,sans-Serif" font-size="10.00">+ getElementsByTagNameNS()</text>
</a>
</g>
</g>
<!-- Node1&#45;&gt;Node9 -->
<g id="edge8" class="edge"><title>Node1&#45;&gt;Node9</title>
<path fill="none" stroke="midnightblue" d="M445.293,-400.826C452.197,-389.288 459.125,-377.71 465.829,-366.506"/>
<polygon fill="none" stroke="midnightblue" points="442.154,-399.256 440.022,-409.634 448.16,-402.85 442.154,-399.256"/>
</g>
<!-- Node10 -->
<g id="node10" class="node"><title>Node10</title>
<g id="a_node10"><a xlink:href="../../da/df6/interfaceXmlProcessingInstruction.html" target="_top" xlink:title="XmlProcessingInstruction 对象表示 xml 处理指令 ">
<polygon fill="white" stroke="black" points="615.872,-242.5 615.872,-306.5 744.694,-306.5 744.694,-242.5 615.872,-242.5"/>
<text text-anchor="middle" x="680.283" y="-294.5" font-family="Helvetica,sans-Serif" font-size="10.00">XmlProcessingInstruction</text>
<polyline fill="none" stroke="black" points="615.872,-288.5 744.694,-288.5 "/>
<text text-anchor="start" x="623.872" y="-276.5" font-family="Helvetica,sans-Serif" font-size="10.00">+ target</text>
<text text-anchor="start" x="623.872" y="-266.5" font-family="Helvetica,sans-Serif" font-size="10.00">+ data</text>
<polyline fill="none" stroke="black" points="615.872,-260.5 744.694,-260.5 "/>
<text text-anchor="middle" x="680.283" y="-248.5" font-family="Helvetica,sans-Serif" font-size="10.00"> </text>
</a>
</g>
</g>
<!-- Node1&#45;&gt;Node10 -->
<g id="edge9" class="edge"><title>Node1&#45;&gt;Node10</title>
<path fill="none" stroke="midnightblue" d="M448.791,-479.001C496.778,-450.995 558.986,-410.964 607.283,-367 626.97,-349.08 645.624,-325.54 659.147,-306.824"/>
<polygon fill="none" stroke="midnightblue" points="446.903,-476.049 440.002,-484.089 450.41,-482.107 446.903,-476.049"/>
</g>
<!-- Node2 -->
<g id="node2" class="node"><title>Node2</title>
<g id="a_node2"><a xlink:href="../../db/d38/interfaceobject.html" target="_top" xlink:title="基础对象，所有对象均继承于此 ">
<polygon fill="white" stroke="black" points="341.139,-674.5 341.139,-758.5 407.427,-758.5 407.427,-674.5 341.139,-674.5"/>
<text text-anchor="middle" x="374.283" y="-746.5" font-family="Helvetica,sans-Serif" font-size="10.00">object</text>
<polyline fill="none" stroke="black" points="341.139,-740.5 407.427,-740.5 "/>
<text text-anchor="middle" x="374.283" y="-728.5" font-family="Helvetica,sans-Serif" font-size="10.00"> </text>
<polyline fill="none" stroke="black" points="341.139,-722.5 407.427,-722.5 "/>
<text text-anchor="start" x="349.139" y="-710.5" font-family="Helvetica,sans-Serif" font-size="10.00">+ dispose()</text>
<text text-anchor="start" x="349.139" y="-700.5" font-family="Helvetica,sans-Serif" font-size="10.00">+ toString()</text>
<text text-anchor="start" x="349.139" y="-690.5" font-family="Helvetica,sans-Serif" font-size="10.00">+ toJSON()</text>
<text text-anchor="start" x="349.139" y="-680.5" font-family="Helvetica,sans-Serif" font-size="10.00">+ valueOf()</text>
</a>
</g>
</g>
<!-- Node2&#45;&gt;Node1 -->
<g id="edge1" class="edge"><title>Node2&#45;&gt;Node1</title>
<path fill="none" stroke="midnightblue" d="M374.283,-664.085C374.283,-655.706 374.283,-646.74 374.283,-637.536"/>
<polygon fill="none" stroke="midnightblue" points="370.783,-664.358 374.283,-674.358 377.783,-664.358 370.783,-664.358"/>
</g>
<!-- Node4 -->
<g id="node4" class="node"><title>Node4</title>
<g id="a_node4"><a xlink:href="../../dd/dc1/interfaceXmlComment.html" target="_top" xlink:title="XmlComment 对象表示文档中注释节点的内容 ">
<polygon fill="white" stroke="black" points="0,-91.5 0,-145.5 76.5664,-145.5 76.5664,-91.5 0,-91.5"/>
<text text-anchor="middle" x="38.2832" y="-133.5" font-family="Helvetica,sans-Serif" font-size="10.00">XmlComment</text>
<polyline fill="none" stroke="black" points="0,-127.5 76.5664,-127.5 "/>
<text text-anchor="middle" x="38.2832" y="-115.5" font-family="Helvetica,sans-Serif" font-size="10.00"> </text>
<polyline fill="none" stroke="black" points="0,-109.5 76.5664,-109.5 "/>
<text text-anchor="middle" x="38.2832" y="-97.5" font-family="Helvetica,sans-Serif" font-size="10.00"> </text>
</a>
</g>
</g>
<!-- Node3&#45;&gt;Node4 -->
<g id="edge3" class="edge"><title>Node3&#45;&gt;Node4</title>
<path fill="none" stroke="midnightblue" d="M65.4285,-212.397C58.6284,-189.126 51.2365,-163.829 45.8858,-145.518"/>
<polygon fill="none" stroke="midnightblue" points="62.1345,-213.603 68.2989,-222.22 68.8535,-211.64 62.1345,-213.603"/>
</g>
<!-- Node5 -->
<g id="node5" class="node"><title>Node5</title>
<g id="a_node5"><a xlink:href="../../d3/d51/interfaceXmlText.html" target="_top" xlink:title="XmlText 对象表示元素或属性的文本内容 ">
<polygon fill="white" stroke="black" points="94.5825,-91.5 94.5825,-145.5 161.984,-145.5 161.984,-91.5 94.5825,-91.5"/>
<text text-anchor="middle" x="128.283" y="-133.5" font-family="Helvetica,sans-Serif" font-size="10.00">XmlText</text>
<polyline fill="none" stroke="black" points="94.5825,-127.5 161.984,-127.5 "/>
<text text-anchor="middle" x="128.283" y="-115.5" font-family="Helvetica,sans-Serif" font-size="10.00"> </text>
<polyline fill="none" stroke="black" points="94.5825,-109.5 161.984,-109.5 "/>
<text text-anchor="start" x="102.583" y="-97.5" font-family="Helvetica,sans-Serif" font-size="10.00">+ splitText()</text>
</a>
</g>
</g>
<!-- Node3&#45;&gt;Node5 -->
<g id="edge4" class="edge"><title>Node3&#45;&gt;Node5</title>
<path fill="none" stroke="midnightblue" d="M101.138,-212.397C107.938,-189.126 115.33,-163.829 120.681,-145.518"/>
<polygon fill="none" stroke="midnightblue" points="97.7129,-211.64 98.2676,-222.22 104.432,-213.603 97.7129,-211.64"/>
</g>
<!-- Node6 -->
<g id="node6" class="node"><title>Node6</title>
<g id="a_node6"><a xlink:href="../../d4/dd8/interfaceXmlCDATASection.html" target="_top" xlink:title="XmlCDATASection 对象表示文档中的 CDATA 区段 ">
<polygon fill="white" stroke="black" points="78.7866,-0.5 78.7866,-54.5 177.78,-54.5 177.78,-0.5 78.7866,-0.5"/>
<text text-anchor="middle" x="128.283" y="-42.5" font-family="Helvetica,sans-Serif" font-size="10.00">XmlCDATASection</text>
<polyline fill="none" stroke="black" points="78.7866,-36.5 177.78,-36.5 "/>
<text text-anchor="middle" x="128.283" y="-24.5" font-family="Helvetica,sans-Serif" font-size="10.00"> </text>
<polyline fill="none" stroke="black" points="78.7866,-18.5 177.78,-18.5 "/>
<text text-anchor="middle" x="128.283" y="-6.5" font-family="Helvetica,sans-Serif" font-size="10.00"> </text>
</a>
</g>
</g>
<!-- Node5&#45;&gt;Node6 -->
<g id="edge5" class="edge"><title>Node5&#45;&gt;Node6</title>
<path fill="none" stroke="midnightblue" d="M128.283,-81.1155C128.283,-72.2061 128.283,-62.8475 128.283,-54.5341"/>
<polygon fill="none" stroke="midnightblue" points="124.783,-81.2784 128.283,-91.2784 131.783,-81.2785 124.783,-81.2784"/>
</g>
</g>
</svg>
