<?xml version="1.0" encoding="UTF-8" standalone="no"?>
<!DOCTYPE svg PUBLIC "-//W3C//DTD SVG 1.1//EN"
 "http://www.w3.org/Graphics/SVG/1.1/DTD/svg11.dtd">
<!-- Generated by graphviz version 2.38.0 (20140413.2041)
 -->
<!-- Title: XmlNode Pages: 1 -->
<svg width="785pt" height="737pt"
 viewBox="0.00 0.00 785.45 737.00" xmlns="http://www.w3.org/2000/svg" xmlns:xlink="http://www.w3.org/1999/xlink">
<g id="graph0" class="graph" transform="scale(1 1) rotate(0) translate(4 733)">
<title>XmlNode</title>
<polygon fill="white" stroke="none" points="-4,4 -4,-733 781.454,-733 781.454,4 -4,4"/>
<!-- Node1 -->
<g id="node1" class="node"><title>Node1</title>
<polygon fill="#bfbfbf" stroke="black" points="298.495,-403.5 298.495,-607.5 397.591,-607.5 397.591,-403.5 298.495,-403.5"/>
<text text-anchor="middle" x="348.043" y="-595.5" font-family="Helvetica,sans-Serif" font-size="10.00">XmlNode</text>
<polyline fill="none" stroke="black" points="298.495,-589.5 397.591,-589.5 "/>
<text text-anchor="start" x="306.495" y="-577.5" font-family="Helvetica,sans-Serif" font-size="10.00">+ nodeName</text>
<text text-anchor="start" x="306.495" y="-567.5" font-family="Helvetica,sans-Serif" font-size="10.00">+ nodeValue</text>
<text text-anchor="start" x="306.495" y="-557.5" font-family="Helvetica,sans-Serif" font-size="10.00">+ nodeType</text>
<text text-anchor="start" x="306.495" y="-547.5" font-family="Helvetica,sans-Serif" font-size="10.00">+ parentNode</text>
<text text-anchor="start" x="306.495" y="-537.5" font-family="Helvetica,sans-Serif" font-size="10.00">+ childNodes</text>
<text text-anchor="start" x="306.495" y="-527.5" font-family="Helvetica,sans-Serif" font-size="10.00">+ firstChild</text>
<text text-anchor="start" x="306.495" y="-517.5" font-family="Helvetica,sans-Serif" font-size="10.00">+ lastChild</text>
<text text-anchor="start" x="306.495" y="-507.5" font-family="Helvetica,sans-Serif" font-size="10.00">+ previousSibling</text>
<text text-anchor="start" x="306.495" y="-497.5" font-family="Helvetica,sans-Serif" font-size="10.00">+ nextSibling</text>
<text text-anchor="start" x="306.495" y="-487.5" font-family="Helvetica,sans-Serif" font-size="10.00">+ ownerDocument</text>
<polyline fill="none" stroke="black" points="298.495,-481.5 397.591,-481.5 "/>
<text text-anchor="start" x="306.495" y="-469.5" font-family="Helvetica,sans-Serif" font-size="10.00">+ insertBefore()</text>
<text text-anchor="start" x="306.495" y="-459.5" font-family="Helvetica,sans-Serif" font-size="10.00">+ replaceChild()</text>
<text text-anchor="start" x="306.495" y="-449.5" font-family="Helvetica,sans-Serif" font-size="10.00">+ removeChild()</text>
<text text-anchor="start" x="306.495" y="-439.5" font-family="Helvetica,sans-Serif" font-size="10.00">+ appendChild()</text>
<text text-anchor="start" x="306.495" y="-429.5" font-family="Helvetica,sans-Serif" font-size="10.00">+ hasChildNodes()</text>
<text text-anchor="start" x="306.495" y="-419.5" font-family="Helvetica,sans-Serif" font-size="10.00">+ cloneNode()</text>
<text text-anchor="start" x="306.495" y="-409.5" font-family="Helvetica,sans-Serif" font-size="10.00">+ normalize()</text>
</g>
<!-- Node3 -->
<g id="node3" class="node"><title>Node3</title>
<g id="a_node3"><a xlink:href="../../d7/dce/interfaceXmlAttr.html" target="_top" xlink:title="XmlAttr 对象表示 XmlElement 对象的属性 ">
<polygon fill="white" stroke="black" points="0,-237.5 0,-311.5 64.0859,-311.5 64.0859,-237.5 0,-237.5"/>
<text text-anchor="middle" x="32.043" y="-299.5" font-family="Helvetica,sans-Serif" font-size="10.00">XmlAttr</text>
<polyline fill="none" stroke="black" points="0,-293.5 64.0859,-293.5 "/>
<text text-anchor="start" x="8" y="-281.5" font-family="Helvetica,sans-Serif" font-size="10.00">+ name</text>
<text text-anchor="start" x="8" y="-271.5" font-family="Helvetica,sans-Serif" font-size="10.00">+ specified</text>
<text text-anchor="start" x="8" y="-261.5" font-family="Helvetica,sans-Serif" font-size="10.00">+ value</text>
<polyline fill="none" stroke="black" points="0,-255.5 64.0859,-255.5 "/>
<text text-anchor="middle" x="32.043" y="-243.5" font-family="Helvetica,sans-Serif" font-size="10.00"> </text>
</a>
</g>
</g>
<!-- Node1&#45;&gt;Node3 -->
<g id="edge2" class="edge"><title>Node1&#45;&gt;Node3</title>
<path fill="none" stroke="midnightblue" d="M288.49,-487.83C227.364,-468.011 132.96,-429.512 73.043,-367 58.3478,-351.668 48.3474,-330.169 41.9045,-311.862"/>
<polygon fill="none" stroke="midnightblue" points="287.787,-491.278 298.378,-490.967 289.904,-484.606 287.787,-491.278"/>
</g>
<!-- Node4 -->
<g id="node4" class="node"><title>Node4</title>
<g id="a_node4"><a xlink:href="../../d7/d50/interfaceXmlCharacterData.html" target="_top" xlink:title="XmlCharacterData 接口提供了 XmlText 和 XmlComment 节点的常用功能 ">
<polygon fill="white" stroke="black" points="81.9175,-222.5 81.9175,-326.5 180.168,-326.5 180.168,-222.5 81.9175,-222.5"/>
<text text-anchor="middle" x="131.043" y="-314.5" font-family="Helvetica,sans-Serif" font-size="10.00">XmlCharacterData</text>
<polyline fill="none" stroke="black" points="81.9175,-308.5 180.168,-308.5 "/>
<text text-anchor="start" x="89.9175" y="-296.5" font-family="Helvetica,sans-Serif" font-size="10.00">+ data</text>
<text text-anchor="start" x="89.9175" y="-286.5" font-family="Helvetica,sans-Serif" font-size="10.00">+ length</text>
<polyline fill="none" stroke="black" points="81.9175,-280.5 180.168,-280.5 "/>
<text text-anchor="start" x="89.9175" y="-268.5" font-family="Helvetica,sans-Serif" font-size="10.00">+ substringData()</text>
<text text-anchor="start" x="89.9175" y="-258.5" font-family="Helvetica,sans-Serif" font-size="10.00">+ appendData()</text>
<text text-anchor="start" x="89.9175" y="-248.5" font-family="Helvetica,sans-Serif" font-size="10.00">+ insertData()</text>
<text text-anchor="start" x="89.9175" y="-238.5" font-family="Helvetica,sans-Serif" font-size="10.00">+ deleteData()</text>
<text text-anchor="start" x="89.9175" y="-228.5" font-family="Helvetica,sans-Serif" font-size="10.00">+ replaceData()</text>
</a>
</g>
</g>
<!-- Node1&#45;&gt;Node4 -->
<g id="edge3" class="edge"><title>Node1&#45;&gt;Node4</title>
<path fill="none" stroke="midnightblue" d="M290.479,-461.542C258.52,-436.091 219.245,-402.04 189.043,-367 178.483,-354.748 168.472,-340.402 159.834,-326.751"/>
<polygon fill="none" stroke="midnightblue" points="288.418,-464.374 298.436,-467.822 292.755,-458.88 288.418,-464.374"/>
</g>
<!-- Node8 -->
<g id="node8" class="node"><title>Node8</title>
<g id="a_node8"><a xlink:href="../../d6/d47/interfaceXmlDocument.html" target="_top" xlink:title="XmlDocument 对象代表整个 XML 文档 ">
<polygon fill="white" stroke="black" points="197.707,-182.5 197.707,-366.5 352.379,-366.5 352.379,-182.5 197.707,-182.5"/>
<text text-anchor="middle" x="275.043" y="-354.5" font-family="Helvetica,sans-Serif" font-size="10.00">XmlDocument</text>
<polyline fill="none" stroke="black" points="197.707,-348.5 352.379,-348.5 "/>
<text text-anchor="start" x="205.707" y="-336.5" font-family="Helvetica,sans-Serif" font-size="10.00">+ doctype</text>
<text text-anchor="start" x="205.707" y="-326.5" font-family="Helvetica,sans-Serif" font-size="10.00">+ documentElement</text>
<text text-anchor="start" x="205.707" y="-316.5" font-family="Helvetica,sans-Serif" font-size="10.00">+ inputEncoding</text>
<text text-anchor="start" x="205.707" y="-306.5" font-family="Helvetica,sans-Serif" font-size="10.00">+ xmlStandalone</text>
<text text-anchor="start" x="205.707" y="-296.5" font-family="Helvetica,sans-Serif" font-size="10.00">+ xmlVersion</text>
<polyline fill="none" stroke="black" points="197.707,-290.5 352.379,-290.5 "/>
<text text-anchor="start" x="205.707" y="-278.5" font-family="Helvetica,sans-Serif" font-size="10.00">+ XmlDocument()</text>
<text text-anchor="start" x="205.707" y="-268.5" font-family="Helvetica,sans-Serif" font-size="10.00">+ loadXML()</text>
<text text-anchor="start" x="205.707" y="-258.5" font-family="Helvetica,sans-Serif" font-size="10.00">+ createElement()</text>
<text text-anchor="start" x="205.707" y="-248.5" font-family="Helvetica,sans-Serif" font-size="10.00">+ createTextNode()</text>
<text text-anchor="start" x="205.707" y="-238.5" font-family="Helvetica,sans-Serif" font-size="10.00">+ createComment()</text>
<text text-anchor="start" x="205.707" y="-228.5" font-family="Helvetica,sans-Serif" font-size="10.00">+ createCDATASection()</text>
<text text-anchor="start" x="205.707" y="-218.5" font-family="Helvetica,sans-Serif" font-size="10.00">+ createProcessingInstruction()</text>
<text text-anchor="start" x="205.707" y="-208.5" font-family="Helvetica,sans-Serif" font-size="10.00">+ createAttribute()</text>
<text text-anchor="start" x="205.707" y="-198.5" font-family="Helvetica,sans-Serif" font-size="10.00">+ getElementsByTagName()</text>
<text text-anchor="start" x="205.707" y="-188.5" font-family="Helvetica,sans-Serif" font-size="10.00">+ getElementById()</text>
</a>
</g>
</g>
<!-- Node1&#45;&gt;Node8 -->
<g id="edge7" class="edge"><title>Node1&#45;&gt;Node8</title>
<path fill="none" stroke="midnightblue" d="M312.697,-393.619C309.819,-384.593 306.932,-375.537 304.108,-366.675"/>
<polygon fill="none" stroke="midnightblue" points="309.44,-394.926 315.812,-403.391 316.109,-392.8 309.44,-394.926"/>
</g>
<!-- Node9 -->
<g id="node9" class="node"><title>Node9</title>
<g id="a_node9"><a xlink:href="../../d4/d35/interfaceXmlDocumentType.html" target="_top" xlink:title="XmlDocumentType 对象用于访问 XML 所定义的实体 ">
<polygon fill="white" stroke="black" points="370.802,-237.5 370.802,-311.5 471.284,-311.5 471.284,-237.5 370.802,-237.5"/>
<text text-anchor="middle" x="421.043" y="-299.5" font-family="Helvetica,sans-Serif" font-size="10.00">XmlDocumentType</text>
<polyline fill="none" stroke="black" points="370.802,-293.5 471.284,-293.5 "/>
<text text-anchor="start" x="378.802" y="-281.5" font-family="Helvetica,sans-Serif" font-size="10.00">+ name</text>
<text text-anchor="start" x="378.802" y="-271.5" font-family="Helvetica,sans-Serif" font-size="10.00">+ publicId</text>
<text text-anchor="start" x="378.802" y="-261.5" font-family="Helvetica,sans-Serif" font-size="10.00">+ systemId</text>
<polyline fill="none" stroke="black" points="370.802,-255.5 471.284,-255.5 "/>
<text text-anchor="middle" x="421.043" y="-243.5" font-family="Helvetica,sans-Serif" font-size="10.00"> </text>
</a>
</g>
</g>
<!-- Node1&#45;&gt;Node9 -->
<g id="edge8" class="edge"><title>Node1&#45;&gt;Node9</title>
<path fill="none" stroke="midnightblue" d="M383.339,-393.776C392.801,-364.093 402.372,-334.072 409.502,-311.703"/>
<polygon fill="none" stroke="midnightblue" points="379.977,-392.8 380.274,-403.391 386.646,-394.926 379.977,-392.8"/>
</g>
<!-- Node10 -->
<g id="node10" class="node"><title>Node10</title>
<g id="a_node10"><a xlink:href="../../d7/ddb/interfaceXmlElement.html" target="_top" xlink:title="XmlElement 对象表示 XML 文档中的元素 ">
<polygon fill="white" stroke="black" points="489.377,-207.5 489.377,-341.5 630.709,-341.5 630.709,-207.5 489.377,-207.5"/>
<text text-anchor="middle" x="560.043" y="-329.5" font-family="Helvetica,sans-Serif" font-size="10.00">XmlElement</text>
<polyline fill="none" stroke="black" points="489.377,-323.5 630.709,-323.5 "/>
<text text-anchor="start" x="497.377" y="-311.5" font-family="Helvetica,sans-Serif" font-size="10.00">+ tagName</text>
<text text-anchor="start" x="497.377" y="-301.5" font-family="Helvetica,sans-Serif" font-size="10.00">+ attributes</text>
<polyline fill="none" stroke="black" points="489.377,-295.5 630.709,-295.5 "/>
<text text-anchor="start" x="497.377" y="-283.5" font-family="Helvetica,sans-Serif" font-size="10.00">+ getAttribute()</text>
<text text-anchor="start" x="497.377" y="-273.5" font-family="Helvetica,sans-Serif" font-size="10.00">+ setAttribute()</text>
<text text-anchor="start" x="497.377" y="-263.5" font-family="Helvetica,sans-Serif" font-size="10.00">+ removeAttribute()</text>
<text text-anchor="start" x="497.377" y="-253.5" font-family="Helvetica,sans-Serif" font-size="10.00">+ getAttributeNode()</text>
<text text-anchor="start" x="497.377" y="-243.5" font-family="Helvetica,sans-Serif" font-size="10.00">+ setAttributeNode()</text>
<text text-anchor="start" x="497.377" y="-233.5" font-family="Helvetica,sans-Serif" font-size="10.00">+ removeAttributeNode()</text>
<text text-anchor="start" x="497.377" y="-223.5" font-family="Helvetica,sans-Serif" font-size="10.00">+ getElementsByTagName()</text>
<text text-anchor="start" x="497.377" y="-213.5" font-family="Helvetica,sans-Serif" font-size="10.00">+ hasAttribute()</text>
</a>
</g>
</g>
<!-- Node1&#45;&gt;Node10 -->
<g id="edge9" class="edge"><title>Node1&#45;&gt;Node10</title>
<path fill="none" stroke="midnightblue" d="M404.984,-446.389C428.484,-422.097 455.833,-393.423 480.043,-367 487.455,-358.91 495.157,-350.331 502.725,-341.796"/>
<polygon fill="none" stroke="midnightblue" points="402.268,-444.162 397.823,-453.78 407.295,-449.034 402.268,-444.162"/>
</g>
<!-- Node11 -->
<g id="node11" class="node"><title>Node11</title>
<g id="a_node11"><a xlink:href="../../da/df6/interfaceXmlProcessingInstruction.html" target="_top" xlink:title="XmlProcessingInstruction 对象表示 xml 处理指令 ">
<polygon fill="white" stroke="black" points="648.632,-242.5 648.632,-306.5 777.454,-306.5 777.454,-242.5 648.632,-242.5"/>
<text text-anchor="middle" x="713.043" y="-294.5" font-family="Helvetica,sans-Serif" font-size="10.00">XmlProcessingInstruction</text>
<polyline fill="none" stroke="black" points="648.632,-288.5 777.454,-288.5 "/>
<text text-anchor="start" x="656.632" y="-276.5" font-family="Helvetica,sans-Serif" font-size="10.00">+ target</text>
<text text-anchor="start" x="656.632" y="-266.5" font-family="Helvetica,sans-Serif" font-size="10.00">+ data</text>
<polyline fill="none" stroke="black" points="648.632,-260.5 777.454,-260.5 "/>
<text text-anchor="middle" x="713.043" y="-248.5" font-family="Helvetica,sans-Serif" font-size="10.00"> </text>
</a>
</g>
</g>
<!-- Node1&#45;&gt;Node11 -->
<g id="edge10" class="edge"><title>Node1&#45;&gt;Node11</title>
<path fill="none" stroke="midnightblue" d="M407.52,-485.582C469.85,-463.784 568.473,-423.555 640.043,-367 661.408,-350.117 680.408,-325.838 693.665,-306.532"/>
<polygon fill="none" stroke="midnightblue" points="406.15,-482.352 397.838,-488.921 408.433,-488.969 406.15,-482.352"/>
</g>
<!-- Node2 -->
<g id="node2" class="node"><title>Node2</title>
<g id="a_node2"><a xlink:href="../../db/d38/interfaceobject.html" target="_top" xlink:title="基础对象，所有对象均继承于此 ">
<polygon fill="white" stroke="black" points="314.899,-644.5 314.899,-728.5 381.187,-728.5 381.187,-644.5 314.899,-644.5"/>
<text text-anchor="middle" x="348.043" y="-716.5" font-family="Helvetica,sans-Serif" font-size="10.00">object</text>
<polyline fill="none" stroke="black" points="314.899,-710.5 381.187,-710.5 "/>
<text text-anchor="middle" x="348.043" y="-698.5" font-family="Helvetica,sans-Serif" font-size="10.00"> </text>
<polyline fill="none" stroke="black" points="314.899,-692.5 381.187,-692.5 "/>
<text text-anchor="start" x="322.899" y="-680.5" font-family="Helvetica,sans-Serif" font-size="10.00">+ dispose()</text>
<text text-anchor="start" x="322.899" y="-670.5" font-family="Helvetica,sans-Serif" font-size="10.00">+ toString()</text>
<text text-anchor="start" x="322.899" y="-660.5" font-family="Helvetica,sans-Serif" font-size="10.00">+ toJSON()</text>
<text text-anchor="start" x="322.899" y="-650.5" font-family="Helvetica,sans-Serif" font-size="10.00">+ valueOf()</text>
</a>
</g>
</g>
<!-- Node2&#45;&gt;Node1 -->
<g id="edge1" class="edge"><title>Node2&#45;&gt;Node1</title>
<path fill="none" stroke="midnightblue" d="M348.043,-634.155C348.043,-625.787 348.043,-616.87 348.043,-607.789"/>
<polygon fill="none" stroke="midnightblue" points="344.543,-634.434 348.043,-644.434 351.543,-634.434 344.543,-634.434"/>
</g>
<!-- Node5 -->
<g id="node5" class="node"><title>Node5</title>
<g id="a_node5"><a xlink:href="../../dd/dc1/interfaceXmlComment.html" target="_top" xlink:title="XmlComment 对象表示文档中注释节点的内容 ">
<polygon fill="white" stroke="black" points="47.7598,-91.5 47.7598,-145.5 124.326,-145.5 124.326,-91.5 47.7598,-91.5"/>
<text text-anchor="middle" x="86.043" y="-133.5" font-family="Helvetica,sans-Serif" font-size="10.00">XmlComment</text>
<polyline fill="none" stroke="black" points="47.7598,-127.5 124.326,-127.5 "/>
<text text-anchor="middle" x="86.043" y="-115.5" font-family="Helvetica,sans-Serif" font-size="10.00"> </text>
<polyline fill="none" stroke="black" points="47.7598,-109.5 124.326,-109.5 "/>
<text text-anchor="middle" x="86.043" y="-97.5" font-family="Helvetica,sans-Serif" font-size="10.00"> </text>
</a>
</g>
</g>
<!-- Node4&#45;&gt;Node5 -->
<g id="edge4" class="edge"><title>Node4&#45;&gt;Node5</title>
<path fill="none" stroke="midnightblue" d="M113.188,-212.397C106.388,-189.126 98.9962,-163.829 93.6456,-145.518"/>
<polygon fill="none" stroke="midnightblue" points="109.894,-213.603 116.059,-222.22 116.613,-211.64 109.894,-213.603"/>
</g>
<!-- Node6 -->
<g id="node6" class="node"><title>Node6</title>
<g id="a_node6"><a xlink:href="../../d3/d51/interfaceXmlText.html" target="_top" xlink:title="XmlText 对象表示元素或属性的文本内容 ">
<polygon fill="white" stroke="black" points="142.342,-91.5 142.342,-145.5 209.744,-145.5 209.744,-91.5 142.342,-91.5"/>
<text text-anchor="middle" x="176.043" y="-133.5" font-family="Helvetica,sans-Serif" font-size="10.00">XmlText</text>
<polyline fill="none" stroke="black" points="142.342,-127.5 209.744,-127.5 "/>
<text text-anchor="middle" x="176.043" y="-115.5" font-family="Helvetica,sans-Serif" font-size="10.00"> </text>
<polyline fill="none" stroke="black" points="142.342,-109.5 209.744,-109.5 "/>
<text text-anchor="start" x="150.342" y="-97.5" font-family="Helvetica,sans-Serif" font-size="10.00">+ splitText()</text>
</a>
</g>
</g>
<!-- Node4&#45;&gt;Node6 -->
<g id="edge5" class="edge"><title>Node4&#45;&gt;Node6</title>
<path fill="none" stroke="midnightblue" d="M148.898,-212.397C155.698,-189.126 163.09,-163.829 168.44,-145.518"/>
<polygon fill="none" stroke="midnightblue" points="145.473,-211.64 146.027,-222.22 152.192,-213.603 145.473,-211.64"/>
</g>
<!-- Node7 -->
<g id="node7" class="node"><title>Node7</title>
<g id="a_node7"><a xlink:href="../../d4/dd8/interfaceXmlCDATASection.html" target="_top" xlink:title="XmlCDATASection 对象表示文档中的 CDATA 区段 ">
<polygon fill="white" stroke="black" points="126.546,-0.5 126.546,-54.5 225.54,-54.5 225.54,-0.5 126.546,-0.5"/>
<text text-anchor="middle" x="176.043" y="-42.5" font-family="Helvetica,sans-Serif" font-size="10.00">XmlCDATASection</text>
<polyline fill="none" stroke="black" points="126.546,-36.5 225.54,-36.5 "/>
<text text-anchor="middle" x="176.043" y="-24.5" font-family="Helvetica,sans-Serif" font-size="10.00"> </text>
<polyline fill="none" stroke="black" points="126.546,-18.5 225.54,-18.5 "/>
<text text-anchor="middle" x="176.043" y="-6.5" font-family="Helvetica,sans-Serif" font-size="10.00"> </text>
</a>
</g>
</g>
<!-- Node6&#45;&gt;Node7 -->
<g id="edge6" class="edge"><title>Node6&#45;&gt;Node7</title>
<path fill="none" stroke="midnightblue" d="M176.043,-81.1155C176.043,-72.2061 176.043,-62.8475 176.043,-54.5341"/>
<polygon fill="none" stroke="midnightblue" points="172.543,-81.2784 176.043,-91.2784 179.543,-81.2785 172.543,-81.2784"/>
</g>
</g>
</svg>
