<?xml version="1.0" encoding="UTF-8" standalone="no"?>
<!DOCTYPE svg PUBLIC "-//W3C//DTD SVG 1.1//EN"
 "http://www.w3.org/Graphics/SVG/1.1/DTD/svg11.dtd">
<!-- Generated by graphviz version 2.38.0 (20140413.2041)
 -->
<!-- Title: XmlNode Pages: 1 -->
<svg width="785pt" height="737pt"
 viewBox="0.00 0.00 785.45 737.00" xmlns="http://www.w3.org/2000/svg" xmlns:xlink="http://www.w3.org/1999/xlink">
<g id="graph0" class="graph" transform="scale(1 1) rotate(0) translate(4 733)">
<title>XmlNode</title>
<polygon fill="white" stroke="none" points="-4,4 -4,-733 781.454,-733 781.454,4 -4,4"/>
<!-- Node1 -->
<g id="node1" class="node"><title>Node1</title>
<polygon fill="#bfbfbf" stroke="black" points="298.495,-393.5 298.495,-607.5 397.591,-607.5 397.591,-393.5 298.495,-393.5"/>
<text text-anchor="middle" x="348.043" y="-595.5" font-family="Helvetica,sans-Serif" font-size="10.00">XmlNode</text>
<polyline fill="none" stroke="black" points="298.495,-589.5 397.591,-589.5 "/>
<text text-anchor="start" x="306.495" y="-577.5" font-family="Helvetica,sans-Serif" font-size="10.00">+ nodeName</text>
<text text-anchor="start" x="306.495" y="-567.5" font-family="Helvetica,sans-Serif" font-size="10.00">+ nodeValue</text>
<text text-anchor="start" x="306.495" y="-557.5" font-family="Helvetica,sans-Serif" font-size="10.00">+ nodeType</text>
<text text-anchor="start" x="306.495" y="-547.5" font-family="Helvetica,sans-Serif" font-size="10.00">+ parentNode</text>
<text text-anchor="start" x="306.495" y="-537.5" font-family="Helvetica,sans-Serif" font-size="10.00">+ childNodes</text>
<text text-anchor="start" x="306.495" y="-527.5" font-family="Helvetica,sans-Serif" font-size="10.00">+ firstChild</text>
<text text-anchor="start" x="306.495" y="-517.5" font-family="Helvetica,sans-Serif" font-size="10.00">+ lastChild</text>
<text text-anchor="start" x="306.495" y="-507.5" font-family="Helvetica,sans-Serif" font-size="10.00">+ previousSibling</text>
<text text-anchor="start" x="306.495" y="-497.5" font-family="Helvetica,sans-Serif" font-size="10.00">+ nextSibling</text>
<text text-anchor="start" x="306.495" y="-487.5" font-family="Helvetica,sans-Serif" font-size="10.00">+ ownerDocument</text>
<polyline fill="none" stroke="black" points="298.495,-481.5 397.591,-481.5 "/>
<text text-anchor="start" x="306.495" y="-469.5" font-family="Helvetica,sans-Serif" font-size="10.00">+ insertBefore()</text>
<text text-anchor="start" x="306.495" y="-459.5" font-family="Helvetica,sans-Serif" font-size="10.00">+ insertAfter()</text>
<text text-anchor="start" x="306.495" y="-449.5" font-family="Helvetica,sans-Serif" font-size="10.00">+ replaceChild()</text>
<text text-anchor="start" x="306.495" y="-439.5" font-family="Helvetica,sans-Serif" font-size="10.00">+ removeChild()</text>
<text text-anchor="start" x="306.495" y="-429.5" font-family="Helvetica,sans-Serif" font-size="10.00">+ appendChild()</text>
<text text-anchor="start" x="306.495" y="-419.5" font-family="Helvetica,sans-Serif" font-size="10.00">+ hasChildNodes()</text>
<text text-anchor="start" x="306.495" y="-409.5" font-family="Helvetica,sans-Serif" font-size="10.00">+ cloneNode()</text>
<text text-anchor="start" x="306.495" y="-399.5" font-family="Helvetica,sans-Serif" font-size="10.00">+ normalize()</text>
</g>
<!-- Node3 -->
<g id="node3" class="node"><title>Node3</title>
<g id="a_node3"><a xlink:href="../../d7/dce/interfaceXmlAttr.html" target="_top" xlink:title="XmlAttr 对象表示 XmlElement 对象的属性 ">
<polygon fill="white" stroke="black" points="0,-232.5 0,-306.5 64.0859,-306.5 64.0859,-232.5 0,-232.5"/>
<text text-anchor="middle" x="32.043" y="-294.5" font-family="Helvetica,sans-Serif" font-size="10.00">XmlAttr</text>
<polyline fill="none" stroke="black" points="0,-288.5 64.0859,-288.5 "/>
<text text-anchor="start" x="8" y="-276.5" font-family="Helvetica,sans-Serif" font-size="10.00">+ name</text>
<text text-anchor="start" x="8" y="-266.5" font-family="Helvetica,sans-Serif" font-size="10.00">+ specified</text>
<text text-anchor="start" x="8" y="-256.5" font-family="Helvetica,sans-Serif" font-size="10.00">+ value</text>
<polyline fill="none" stroke="black" points="0,-250.5 64.0859,-250.5 "/>
<text text-anchor="middle" x="32.043" y="-238.5" font-family="Helvetica,sans-Serif" font-size="10.00"> </text>
</a>
</g>
</g>
<!-- Node1&#45;&gt;Node3 -->
<g id="edge2" class="edge"><title>Node1&#45;&gt;Node3</title>
<path fill="none" stroke="midnightblue" d="M288.865,-481.448C227.961,-460.252 133.656,-419.802 73.043,-357 59.4244,-342.89 49.6495,-323.409 43.0683,-306.507"/>
<polygon fill="none" stroke="midnightblue" points="287.748,-484.765 298.343,-484.685 290.011,-478.14 287.748,-484.765"/>
</g>
<!-- Node4 -->
<g id="node4" class="node"><title>Node4</title>
<g id="a_node4"><a xlink:href="../../d7/d50/interfaceXmlCharacterData.html" target="_top" xlink:title="XmlCharacterData 接口提供了 XmlText 和 XmlComment 节点的常用功能 ">
<polygon fill="white" stroke="black" points="81.9175,-217.5 81.9175,-321.5 180.168,-321.5 180.168,-217.5 81.9175,-217.5"/>
<text text-anchor="middle" x="131.043" y="-309.5" font-family="Helvetica,sans-Serif" font-size="10.00">XmlCharacterData</text>
<polyline fill="none" stroke="black" points="81.9175,-303.5 180.168,-303.5 "/>
<text text-anchor="start" x="89.9175" y="-291.5" font-family="Helvetica,sans-Serif" font-size="10.00">+ data</text>
<text text-anchor="start" x="89.9175" y="-281.5" font-family="Helvetica,sans-Serif" font-size="10.00">+ length</text>
<polyline fill="none" stroke="black" points="81.9175,-275.5 180.168,-275.5 "/>
<text text-anchor="start" x="89.9175" y="-263.5" font-family="Helvetica,sans-Serif" font-size="10.00">+ substringData()</text>
<text text-anchor="start" x="89.9175" y="-253.5" font-family="Helvetica,sans-Serif" font-size="10.00">+ appendData()</text>
<text text-anchor="start" x="89.9175" y="-243.5" font-family="Helvetica,sans-Serif" font-size="10.00">+ insertData()</text>
<text text-anchor="start" x="89.9175" y="-233.5" font-family="Helvetica,sans-Serif" font-size="10.00">+ deleteData()</text>
<text text-anchor="start" x="89.9175" y="-223.5" font-family="Helvetica,sans-Serif" font-size="10.00">+ replaceData()</text>
</a>
</g>
</g>
<!-- Node1&#45;&gt;Node4 -->
<g id="edge3" class="edge"><title>Node1&#45;&gt;Node4</title>
<path fill="none" stroke="midnightblue" d="M290.255,-453.751C258.572,-427.236 219.637,-392.21 189.043,-357 179.674,-346.218 170.564,-333.853 162.446,-321.909"/>
<polygon fill="none" stroke="midnightblue" points="288.216,-456.607 298.144,-460.304 292.688,-451.222 288.216,-456.607"/>
</g>
<!-- Node8 -->
<g id="node8" class="node"><title>Node8</title>
<g id="a_node8"><a xlink:href="../../d6/d47/interfaceXmlDocument.html" target="_top" xlink:title="XmlDocument 对象代表整个 XML 文档 ">
<polygon fill="white" stroke="black" points="197.707,-182.5 197.707,-356.5 352.379,-356.5 352.379,-182.5 197.707,-182.5"/>
<text text-anchor="middle" x="275.043" y="-344.5" font-family="Helvetica,sans-Serif" font-size="10.00">XmlDocument</text>
<polyline fill="none" stroke="black" points="197.707,-338.5 352.379,-338.5 "/>
<text text-anchor="start" x="205.707" y="-326.5" font-family="Helvetica,sans-Serif" font-size="10.00">+ doctype</text>
<text text-anchor="start" x="205.707" y="-316.5" font-family="Helvetica,sans-Serif" font-size="10.00">+ documentElement</text>
<text text-anchor="start" x="205.707" y="-306.5" font-family="Helvetica,sans-Serif" font-size="10.00">+ inputEncoding</text>
<text text-anchor="start" x="205.707" y="-296.5" font-family="Helvetica,sans-Serif" font-size="10.00">+ xmlStandalone</text>
<text text-anchor="start" x="205.707" y="-286.5" font-family="Helvetica,sans-Serif" font-size="10.00">+ xmlVersion</text>
<polyline fill="none" stroke="black" points="197.707,-280.5 352.379,-280.5 "/>
<text text-anchor="start" x="205.707" y="-268.5" font-family="Helvetica,sans-Serif" font-size="10.00">+ XmlDocument()</text>
<text text-anchor="start" x="205.707" y="-258.5" font-family="Helvetica,sans-Serif" font-size="10.00">+ loadXML()</text>
<text text-anchor="start" x="205.707" y="-248.5" font-family="Helvetica,sans-Serif" font-size="10.00">+ createElement()</text>
<text text-anchor="start" x="205.707" y="-238.5" font-family="Helvetica,sans-Serif" font-size="10.00">+ createTextNode()</text>
<text text-anchor="start" x="205.707" y="-228.5" font-family="Helvetica,sans-Serif" font-size="10.00">+ createComment()</text>
<text text-anchor="start" x="205.707" y="-218.5" font-family="Helvetica,sans-Serif" font-size="10.00">+ createCDATASection()</text>
<text text-anchor="start" x="205.707" y="-208.5" font-family="Helvetica,sans-Serif" font-size="10.00">+ createProcessingInstruction()</text>
<text text-anchor="start" x="205.707" y="-198.5" font-family="Helvetica,sans-Serif" font-size="10.00">+ createAttribute()</text>
<text text-anchor="start" x="205.707" y="-188.5" font-family="Helvetica,sans-Serif" font-size="10.00">+ getElementsByTagName()</text>
</a>
</g>
</g>
<!-- Node1&#45;&gt;Node8 -->
<g id="edge7" class="edge"><title>Node1&#45;&gt;Node8</title>
<path fill="none" stroke="midnightblue" d="M311.088,-383.574C308.206,-374.531 305.327,-365.5 302.524,-356.707"/>
<polygon fill="none" stroke="midnightblue" points="307.842,-384.915 314.214,-393.38 314.512,-382.789 307.842,-384.915"/>
</g>
<!-- Node9 -->
<g id="node9" class="node"><title>Node9</title>
<g id="a_node9"><a xlink:href="../../d4/d35/interfaceXmlDocumentType.html" target="_top" xlink:title="XmlDocumentType 对象用于访问 XML 所定义的实体 ">
<polygon fill="white" stroke="black" points="370.802,-232.5 370.802,-306.5 471.284,-306.5 471.284,-232.5 370.802,-232.5"/>
<text text-anchor="middle" x="421.043" y="-294.5" font-family="Helvetica,sans-Serif" font-size="10.00">XmlDocumentType</text>
<polyline fill="none" stroke="black" points="370.802,-288.5 471.284,-288.5 "/>
<text text-anchor="start" x="378.802" y="-276.5" font-family="Helvetica,sans-Serif" font-size="10.00">+ name</text>
<text text-anchor="start" x="378.802" y="-266.5" font-family="Helvetica,sans-Serif" font-size="10.00">+ publicId</text>
<text text-anchor="start" x="378.802" y="-256.5" font-family="Helvetica,sans-Serif" font-size="10.00">+ systemId</text>
<polyline fill="none" stroke="black" points="370.802,-250.5 471.284,-250.5 "/>
<text text-anchor="middle" x="421.043" y="-238.5" font-family="Helvetica,sans-Serif" font-size="10.00"> </text>
</a>
</g>
</g>
<!-- Node1&#45;&gt;Node9 -->
<g id="edge8" class="edge"><title>Node1&#45;&gt;Node9</title>
<path fill="none" stroke="midnightblue" d="M384.911,-383.846C393.879,-355.714 402.817,-327.676 409.559,-306.524"/>
<polygon fill="none" stroke="midnightblue" points="381.574,-382.789 381.872,-393.38 388.244,-384.915 381.574,-382.789"/>
</g>
<!-- Node10 -->
<g id="node10" class="node"><title>Node10</title>
<g id="a_node10"><a xlink:href="../../d7/ddb/interfaceXmlElement.html" target="_top" xlink:title="XmlElement 对象表示 XML 文档中的元素 ">
<polygon fill="white" stroke="black" points="489.377,-202.5 489.377,-336.5 630.709,-336.5 630.709,-202.5 489.377,-202.5"/>
<text text-anchor="middle" x="560.043" y="-324.5" font-family="Helvetica,sans-Serif" font-size="10.00">XmlElement</text>
<polyline fill="none" stroke="black" points="489.377,-318.5 630.709,-318.5 "/>
<text text-anchor="start" x="497.377" y="-306.5" font-family="Helvetica,sans-Serif" font-size="10.00">+ tagName</text>
<text text-anchor="start" x="497.377" y="-296.5" font-family="Helvetica,sans-Serif" font-size="10.00">+ attributes</text>
<polyline fill="none" stroke="black" points="489.377,-290.5 630.709,-290.5 "/>
<text text-anchor="start" x="497.377" y="-278.5" font-family="Helvetica,sans-Serif" font-size="10.00">+ getAttribute()</text>
<text text-anchor="start" x="497.377" y="-268.5" font-family="Helvetica,sans-Serif" font-size="10.00">+ setAttribute()</text>
<text text-anchor="start" x="497.377" y="-258.5" font-family="Helvetica,sans-Serif" font-size="10.00">+ removeAttribute()</text>
<text text-anchor="start" x="497.377" y="-248.5" font-family="Helvetica,sans-Serif" font-size="10.00">+ getAttributeNode()</text>
<text text-anchor="start" x="497.377" y="-238.5" font-family="Helvetica,sans-Serif" font-size="10.00">+ setAttributeNode()</text>
<text text-anchor="start" x="497.377" y="-228.5" font-family="Helvetica,sans-Serif" font-size="10.00">+ removeAttributeNode()</text>
<text text-anchor="start" x="497.377" y="-218.5" font-family="Helvetica,sans-Serif" font-size="10.00">+ getElementsByTagName()</text>
<text text-anchor="start" x="497.377" y="-208.5" font-family="Helvetica,sans-Serif" font-size="10.00">+ hasAttribute()</text>
</a>
</g>
</g>
<!-- Node1&#45;&gt;Node10 -->
<g id="edge9" class="edge"><title>Node1&#45;&gt;Node10</title>
<path fill="none" stroke="midnightblue" d="M404.976,-438.06C428.253,-412.934 455.443,-383.578 480.043,-357 486.157,-350.395 492.532,-343.505 498.899,-336.623"/>
<polygon fill="none" stroke="midnightblue" points="402.113,-435.999 397.884,-445.714 407.248,-440.757 402.113,-435.999"/>
</g>
<!-- Node11 -->
<g id="node11" class="node"><title>Node11</title>
<g id="a_node11"><a xlink:href="../../da/df6/interfaceXmlProcessingInstruction.html" target="_top" xlink:title="XmlProcessingInstruction 对象表示 xml 处理指令 ">
<polygon fill="white" stroke="black" points="648.632,-237.5 648.632,-301.5 777.454,-301.5 777.454,-237.5 648.632,-237.5"/>
<text text-anchor="middle" x="713.043" y="-289.5" font-family="Helvetica,sans-Serif" font-size="10.00">XmlProcessingInstruction</text>
<polyline fill="none" stroke="black" points="648.632,-283.5 777.454,-283.5 "/>
<text text-anchor="start" x="656.632" y="-271.5" font-family="Helvetica,sans-Serif" font-size="10.00">+ target</text>
<text text-anchor="start" x="656.632" y="-261.5" font-family="Helvetica,sans-Serif" font-size="10.00">+ data</text>
<polyline fill="none" stroke="black" points="648.632,-255.5 777.454,-255.5 "/>
<text text-anchor="middle" x="713.043" y="-243.5" font-family="Helvetica,sans-Serif" font-size="10.00"> </text>
</a>
</g>
</g>
<!-- Node1&#45;&gt;Node11 -->
<g id="edge10" class="edge"><title>Node1&#45;&gt;Node11</title>
<path fill="none" stroke="midnightblue" d="M407.447,-478.928C469.506,-455.6 567.713,-413.359 640.043,-357 660.039,-341.42 678.419,-319.577 691.734,-301.74"/>
<polygon fill="none" stroke="midnightblue" points="405.963,-475.746 397.807,-482.509 408.4,-482.308 405.963,-475.746"/>
</g>
<!-- Node2 -->
<g id="node2" class="node"><title>Node2</title>
<g id="a_node2"><a xlink:href="../../db/d38/interfaceobject.html" target="_top" xlink:title="基础对象，所有对象均继承于此 ">
<polygon fill="white" stroke="black" points="314.899,-644.5 314.899,-728.5 381.187,-728.5 381.187,-644.5 314.899,-644.5"/>
<text text-anchor="middle" x="348.043" y="-716.5" font-family="Helvetica,sans-Serif" font-size="10.00">object</text>
<polyline fill="none" stroke="black" points="314.899,-710.5 381.187,-710.5 "/>
<text text-anchor="middle" x="348.043" y="-698.5" font-family="Helvetica,sans-Serif" font-size="10.00"> </text>
<polyline fill="none" stroke="black" points="314.899,-692.5 381.187,-692.5 "/>
<text text-anchor="start" x="322.899" y="-680.5" font-family="Helvetica,sans-Serif" font-size="10.00">+ dispose()</text>
<text text-anchor="start" x="322.899" y="-670.5" font-family="Helvetica,sans-Serif" font-size="10.00">+ toString()</text>
<text text-anchor="start" x="322.899" y="-660.5" font-family="Helvetica,sans-Serif" font-size="10.00">+ toJSON()</text>
<text text-anchor="start" x="322.899" y="-650.5" font-family="Helvetica,sans-Serif" font-size="10.00">+ valueOf()</text>
</a>
</g>
</g>
<!-- Node2&#45;&gt;Node1 -->
<g id="edge1" class="edge"><title>Node2&#45;&gt;Node1</title>
<path fill="none" stroke="midnightblue" d="M348.043,-633.946C348.043,-625.588 348.043,-616.674 348.043,-607.573"/>
<polygon fill="none" stroke="midnightblue" points="344.543,-634.207 348.043,-644.207 351.543,-634.207 344.543,-634.207"/>
</g>
<!-- Node5 -->
<g id="node5" class="node"><title>Node5</title>
<g id="a_node5"><a xlink:href="../../dd/dc1/interfaceXmlComment.html" target="_top" xlink:title="XmlComment 对象表示文档中注释节点的内容 ">
<polygon fill="white" stroke="black" points="47.7598,-91.5 47.7598,-145.5 124.326,-145.5 124.326,-91.5 47.7598,-91.5"/>
<text text-anchor="middle" x="86.043" y="-133.5" font-family="Helvetica,sans-Serif" font-size="10.00">XmlComment</text>
<polyline fill="none" stroke="black" points="47.7598,-127.5 124.326,-127.5 "/>
<text text-anchor="middle" x="86.043" y="-115.5" font-family="Helvetica,sans-Serif" font-size="10.00"> </text>
<polyline fill="none" stroke="black" points="47.7598,-109.5 124.326,-109.5 "/>
<text text-anchor="middle" x="86.043" y="-97.5" font-family="Helvetica,sans-Serif" font-size="10.00"> </text>
</a>
</g>
</g>
<!-- Node4&#45;&gt;Node5 -->
<g id="edge4" class="edge"><title>Node4&#45;&gt;Node5</title>
<path fill="none" stroke="midnightblue" d="M112.61,-207.467C106.108,-185.937 99.1367,-162.855 93.9675,-145.739"/>
<polygon fill="none" stroke="midnightblue" points="109.315,-208.662 115.557,-217.223 116.016,-206.638 109.315,-208.662"/>
</g>
<!-- Node6 -->
<g id="node6" class="node"><title>Node6</title>
<g id="a_node6"><a xlink:href="../../d3/d51/interfaceXmlText.html" target="_top" xlink:title="XmlText 对象表示元素或属性的文本内容 ">
<polygon fill="white" stroke="black" points="142.342,-91.5 142.342,-145.5 209.744,-145.5 209.744,-91.5 142.342,-91.5"/>
<text text-anchor="middle" x="176.043" y="-133.5" font-family="Helvetica,sans-Serif" font-size="10.00">XmlText</text>
<polyline fill="none" stroke="black" points="142.342,-127.5 209.744,-127.5 "/>
<text text-anchor="middle" x="176.043" y="-115.5" font-family="Helvetica,sans-Serif" font-size="10.00"> </text>
<polyline fill="none" stroke="black" points="142.342,-109.5 209.744,-109.5 "/>
<text text-anchor="start" x="150.342" y="-97.5" font-family="Helvetica,sans-Serif" font-size="10.00">+ splitText()</text>
</a>
</g>
</g>
<!-- Node4&#45;&gt;Node6 -->
<g id="edge5" class="edge"><title>Node4&#45;&gt;Node6</title>
<path fill="none" stroke="midnightblue" d="M149.476,-207.467C155.978,-185.937 162.949,-162.855 168.118,-145.739"/>
<polygon fill="none" stroke="midnightblue" points="146.07,-206.638 146.529,-217.223 152.771,-208.662 146.07,-206.638"/>
</g>
<!-- Node7 -->
<g id="node7" class="node"><title>Node7</title>
<g id="a_node7"><a xlink:href="../../d4/dd8/interfaceXmlCDATASection.html" target="_top" xlink:title="XmlCDATASection 对象表示文档中的 CDATA 区段 ">
<polygon fill="white" stroke="black" points="126.546,-0.5 126.546,-54.5 225.54,-54.5 225.54,-0.5 126.546,-0.5"/>
<text text-anchor="middle" x="176.043" y="-42.5" font-family="Helvetica,sans-Serif" font-size="10.00">XmlCDATASection</text>
<polyline fill="none" stroke="black" points="126.546,-36.5 225.54,-36.5 "/>
<text text-anchor="middle" x="176.043" y="-24.5" font-family="Helvetica,sans-Serif" font-size="10.00"> </text>
<polyline fill="none" stroke="black" points="126.546,-18.5 225.54,-18.5 "/>
<text text-anchor="middle" x="176.043" y="-6.5" font-family="Helvetica,sans-Serif" font-size="10.00"> </text>
</a>
</g>
</g>
<!-- Node6&#45;&gt;Node7 -->
<g id="edge6" class="edge"><title>Node6&#45;&gt;Node7</title>
<path fill="none" stroke="midnightblue" d="M176.043,-81.1155C176.043,-72.2061 176.043,-62.8475 176.043,-54.5341"/>
<polygon fill="none" stroke="midnightblue" points="172.543,-81.2784 176.043,-91.2784 179.543,-81.2785 172.543,-81.2784"/>
</g>
</g>
</svg>
