<?xml version="1.0" encoding="UTF-8" standalone="no"?>
<!DOCTYPE svg PUBLIC "-//W3C//DTD SVG 1.1//EN"
 "http://www.w3.org/Graphics/SVG/1.1/DTD/svg11.dtd">
<!-- Generated by graphviz version 2.38.0 (20140413.2041)
 -->
<!-- Title: XmlAttr Pages: 1 -->
<svg width="107pt" height="445pt"
 viewBox="0.00 0.00 107.10 445.00" xmlns="http://www.w3.org/2000/svg" xmlns:xlink="http://www.w3.org/1999/xlink">
<g id="graph0" class="graph" transform="scale(1 1) rotate(0) translate(4 441)">
<title>XmlAttr</title>
<polygon fill="white" stroke="none" points="-4,4 -4,-441 103.096,-441 103.096,4 -4,4"/>
<!-- Node1 -->
<g id="node1" class="node"><title>Node1</title>
<polygon fill="#bfbfbf" stroke="black" points="17.5049,-0.5 17.5049,-74.5 81.5908,-74.5 81.5908,-0.5 17.5049,-0.5"/>
<text text-anchor="middle" x="49.5479" y="-62.5" font-family="Helvetica,sans-Serif" font-size="10.00">XmlAttr</text>
<polyline fill="none" stroke="black" points="17.5049,-56.5 81.5908,-56.5 "/>
<text text-anchor="start" x="25.5049" y="-44.5" font-family="Helvetica,sans-Serif" font-size="10.00">+ name</text>
<text text-anchor="start" x="25.5049" y="-34.5" font-family="Helvetica,sans-Serif" font-size="10.00">+ specified</text>
<text text-anchor="start" x="25.5049" y="-24.5" font-family="Helvetica,sans-Serif" font-size="10.00">+ value</text>
<polyline fill="none" stroke="black" points="17.5049,-18.5 81.5908,-18.5 "/>
<text text-anchor="middle" x="49.5479" y="-6.5" font-family="Helvetica,sans-Serif" font-size="10.00"> </text>
</g>
<!-- Node2 -->
<g id="node2" class="node"><title>Node2</title>
<g id="a_node2"><a xlink:href="../../dc/d8f/interfaceXmlNode.html" target="_top" xlink:title="XmlNode 对象是整个 DOM 的基础数据类型 ">
<polygon fill="white" stroke="black" points="0,-111.5 0,-315.5 99.0957,-315.5 99.0957,-111.5 0,-111.5"/>
<text text-anchor="middle" x="49.5479" y="-303.5" font-family="Helvetica,sans-Serif" font-size="10.00">XmlNode</text>
<polyline fill="none" stroke="black" points="0,-297.5 99.0957,-297.5 "/>
<text text-anchor="start" x="8" y="-285.5" font-family="Helvetica,sans-Serif" font-size="10.00">+ nodeName</text>
<text text-anchor="start" x="8" y="-275.5" font-family="Helvetica,sans-Serif" font-size="10.00">+ nodeValue</text>
<text text-anchor="start" x="8" y="-265.5" font-family="Helvetica,sans-Serif" font-size="10.00">+ nodeType</text>
<text text-anchor="start" x="8" y="-255.5" font-family="Helvetica,sans-Serif" font-size="10.00">+ parentNode</text>
<text text-anchor="start" x="8" y="-245.5" font-family="Helvetica,sans-Serif" font-size="10.00">+ childNodes</text>
<text text-anchor="start" x="8" y="-235.5" font-family="Helvetica,sans-Serif" font-size="10.00">+ firstChild</text>
<text text-anchor="start" x="8" y="-225.5" font-family="Helvetica,sans-Serif" font-size="10.00">+ lastChild</text>
<text text-anchor="start" x="8" y="-215.5" font-family="Helvetica,sans-Serif" font-size="10.00">+ previousSibling</text>
<text text-anchor="start" x="8" y="-205.5" font-family="Helvetica,sans-Serif" font-size="10.00">+ nextSibling</text>
<text text-anchor="start" x="8" y="-195.5" font-family="Helvetica,sans-Serif" font-size="10.00">+ ownerDocument</text>
<polyline fill="none" stroke="black" points="0,-189.5 99.0957,-189.5 "/>
<text text-anchor="start" x="8" y="-177.5" font-family="Helvetica,sans-Serif" font-size="10.00">+ insertBefore()</text>
<text text-anchor="start" x="8" y="-167.5" font-family="Helvetica,sans-Serif" font-size="10.00">+ replaceChild()</text>
<text text-anchor="start" x="8" y="-157.5" font-family="Helvetica,sans-Serif" font-size="10.00">+ removeChild()</text>
<text text-anchor="start" x="8" y="-147.5" font-family="Helvetica,sans-Serif" font-size="10.00">+ appendChild()</text>
<text text-anchor="start" x="8" y="-137.5" font-family="Helvetica,sans-Serif" font-size="10.00">+ hasChildNodes()</text>
<text text-anchor="start" x="8" y="-127.5" font-family="Helvetica,sans-Serif" font-size="10.00">+ cloneNode()</text>
<text text-anchor="start" x="8" y="-117.5" font-family="Helvetica,sans-Serif" font-size="10.00">+ normalize()</text>
</a>
</g>
</g>
<!-- Node2&#45;&gt;Node1 -->
<g id="edge1" class="edge"><title>Node2&#45;&gt;Node1</title>
<path fill="none" stroke="midnightblue" d="M49.5479,-101.032C49.5479,-91.7112 49.5479,-82.7983 49.5479,-74.7709"/>
<polygon fill="none" stroke="midnightblue" points="46.0479,-101.283 49.5479,-111.283 53.0479,-101.284 46.0479,-101.283"/>
</g>
<!-- Node3 -->
<g id="node3" class="node"><title>Node3</title>
<g id="a_node3"><a xlink:href="../../db/d38/interfaceobject.html" target="_top" xlink:title="基础对象，所有对象均继承于此 ">
<polygon fill="white" stroke="black" points="16.4038,-352.5 16.4038,-436.5 82.6919,-436.5 82.6919,-352.5 16.4038,-352.5"/>
<text text-anchor="middle" x="49.5479" y="-424.5" font-family="Helvetica,sans-Serif" font-size="10.00">object</text>
<polyline fill="none" stroke="black" points="16.4038,-418.5 82.6919,-418.5 "/>
<text text-anchor="middle" x="49.5479" y="-406.5" font-family="Helvetica,sans-Serif" font-size="10.00"> </text>
<polyline fill="none" stroke="black" points="16.4038,-400.5 82.6919,-400.5 "/>
<text text-anchor="start" x="24.4038" y="-388.5" font-family="Helvetica,sans-Serif" font-size="10.00">+ dispose()</text>
<text text-anchor="start" x="24.4038" y="-378.5" font-family="Helvetica,sans-Serif" font-size="10.00">+ toString()</text>
<text text-anchor="start" x="24.4038" y="-368.5" font-family="Helvetica,sans-Serif" font-size="10.00">+ toJSON()</text>
<text text-anchor="start" x="24.4038" y="-358.5" font-family="Helvetica,sans-Serif" font-size="10.00">+ valueOf()</text>
</a>
</g>
</g>
<!-- Node3&#45;&gt;Node2 -->
<g id="edge2" class="edge"><title>Node3&#45;&gt;Node2</title>
<path fill="none" stroke="midnightblue" d="M49.5479,-342.155C49.5479,-333.787 49.5479,-324.87 49.5479,-315.789"/>
<polygon fill="none" stroke="midnightblue" points="46.0479,-342.434 49.5479,-352.434 53.0479,-342.434 46.0479,-342.434"/>
</g>
</g>
</svg>
