<?xml version="1.0" encoding="UTF-8" standalone="no"?>
<!DOCTYPE svg PUBLIC "-//W3C//DTD SVG 1.1//EN"
 "http://www.w3.org/Graphics/SVG/1.1/DTD/svg11.dtd">
<!-- Generated by graphviz version 2.40.1 (20161225.0304)
 -->
<!-- Title: Map Pages: 1 -->
<svg width="102pt" height="304pt"
 viewBox="0.00 0.00 101.54 304.00" xmlns="http://www.w3.org/2000/svg" xmlns:xlink="http://www.w3.org/1999/xlink">
<g id="graph0" class="graph" transform="scale(1 1) rotate(0) translate(4 300)">
<title>Map</title>
<polygon fill="#ffffff" stroke="transparent" points="-4,4 -4,-300 97.5439,-300 97.5439,4 -4,4"/>
<!-- Node0 -->
<g id="node1" class="node">
<title>Node0</title>
<polygon fill="#bfbfbf" stroke="#000000" points="0,-.5 0,-164.5 93.5439,-164.5 93.5439,-.5 0,-.5"/>
<text text-anchor="middle" x="46.772" y="-152.5" font-family="Helvetica,sans-Serif" font-size="10.00" fill="#000000">Map</text>
<polyline fill="none" stroke="#000000" points="0,-146.5 93.5439,-146.5 "/>
<text text-anchor="start" x="8" y="-134.5" font-family="Helvetica,sans-Serif" font-size="10.00" fill="#000000">+ size</text>
<text text-anchor="start" x="8" y="-124.5" font-family="Helvetica,sans-Serif" font-size="10.00" fill="#000000">+ operator[String]</text>
<polyline fill="none" stroke="#000000" points="0,-118.5 93.5439,-118.5 "/>
<text text-anchor="start" x="8" y="-106.5" font-family="Helvetica,sans-Serif" font-size="10.00" fill="#000000">+ Map()</text>
<text text-anchor="start" x="8" y="-96.5" font-family="Helvetica,sans-Serif" font-size="10.00" fill="#000000">+ Map()</text>
<text text-anchor="start" x="8" y="-86.5" font-family="Helvetica,sans-Serif" font-size="10.00" fill="#000000">+ clear()</text>
<text text-anchor="start" x="8" y="-76.5" font-family="Helvetica,sans-Serif" font-size="10.00" fill="#000000">+ has()</text>
<text text-anchor="start" x="8" y="-66.5" font-family="Helvetica,sans-Serif" font-size="10.00" fill="#000000">+ get()</text>
<text text-anchor="start" x="8" y="-56.5" font-family="Helvetica,sans-Serif" font-size="10.00" fill="#000000">+ put()</text>
<text text-anchor="start" x="8" y="-46.5" font-family="Helvetica,sans-Serif" font-size="10.00" fill="#000000">+ put()</text>
<text text-anchor="start" x="8" y="-36.5" font-family="Helvetica,sans-Serif" font-size="10.00" fill="#000000">+ set()</text>
<text text-anchor="start" x="8" y="-26.5" font-family="Helvetica,sans-Serif" font-size="10.00" fill="#000000">+ set()</text>
<text text-anchor="start" x="8" y="-16.5" font-family="Helvetica,sans-Serif" font-size="10.00" fill="#000000">+ remove()</text>
<text text-anchor="start" x="8" y="-6.5" font-family="Helvetica,sans-Serif" font-size="10.00" fill="#000000">+ isEmpty()</text>
</g>
<!-- Node1 -->
<g id="node2" class="node">
<title>Node1</title>
<g id="a_node2"><a xlink:href="../../db/d38/interfaceobject.html" target="_top" xlink:title="基础对象，所有对象均继承于此 ">
<polygon fill="#ffffff" stroke="#000000" points="13.6279,-201.5 13.6279,-295.5 79.916,-295.5 79.916,-201.5 13.6279,-201.5"/>
<text text-anchor="middle" x="46.772" y="-283.5" font-family="Helvetica,sans-Serif" font-size="10.00" fill="#000000">object</text>
<polyline fill="none" stroke="#000000" points="13.6279,-277.5 79.916,-277.5 "/>
<text text-anchor="middle" x="46.772" y="-265.5" font-family="Helvetica,sans-Serif" font-size="10.00" fill="#000000"> </text>
<polyline fill="none" stroke="#000000" points="13.6279,-259.5 79.916,-259.5 "/>
<text text-anchor="start" x="21.6279" y="-247.5" font-family="Helvetica,sans-Serif" font-size="10.00" fill="#000000">+ dispose()</text>
<text text-anchor="start" x="21.6279" y="-237.5" font-family="Helvetica,sans-Serif" font-size="10.00" fill="#000000">+ equals()</text>
<text text-anchor="start" x="21.6279" y="-227.5" font-family="Helvetica,sans-Serif" font-size="10.00" fill="#000000">+ toString()</text>
<text text-anchor="start" x="21.6279" y="-217.5" font-family="Helvetica,sans-Serif" font-size="10.00" fill="#000000">+ toJSON()</text>
<text text-anchor="start" x="21.6279" y="-207.5" font-family="Helvetica,sans-Serif" font-size="10.00" fill="#000000">+ valueOf()</text>
</a>
</g>
</g>
<!-- Node1&#45;&gt;Node0 -->
<g id="edge1" class="edge">
<title>Node1&#45;&gt;Node0</title>
<path fill="none" stroke="#191970" d="M46.772,-191.1432C46.772,-182.5671 46.772,-173.586 46.772,-164.6185"/>
<polygon fill="none" stroke="#191970" points="43.2721,-191.3751 46.772,-201.3751 50.2721,-191.3751 43.2721,-191.3751"/>
</g>
</g>
</svg>
