<?xml version="1.0" encoding="UTF-8" standalone="no"?>
<!DOCTYPE svg PUBLIC "-//W3C//DTD SVG 1.1//EN"
 "http://www.w3.org/Graphics/SVG/1.1/DTD/svg11.dtd">
<!-- Generated by graphviz version 2.40.1 (20161225.0304)
 -->
<!-- Title: Semaphore Pages: 1 -->
<svg width="91pt" height="345pt"
 viewBox="0.00 0.00 90.98 345.00" xmlns="http://www.w3.org/2000/svg" xmlns:xlink="http://www.w3.org/1999/xlink">
<g id="graph0" class="graph" transform="scale(1 1) rotate(0) translate(4 341)">
<title>Semaphore</title>
<polygon fill="#ffffff" stroke="transparent" points="-4,4 -4,-341 86.9775,-341 86.9775,4 -4,4"/>
<!-- Node0 -->
<g id="node1" class="node">
<title>Node0</title>
<polygon fill="#bfbfbf" stroke="#000000" points="0,-.5 0,-84.5 82.9775,-84.5 82.9775,-.5 0,-.5"/>
<text text-anchor="middle" x="41.4888" y="-72.5" font-family="Helvetica,sans-Serif" font-size="10.00" fill="#000000">Semaphore</text>
<polyline fill="none" stroke="#000000" points="0,-66.5 82.9775,-66.5 "/>
<text text-anchor="middle" x="41.4888" y="-54.5" font-family="Helvetica,sans-Serif" font-size="10.00" fill="#000000"> </text>
<polyline fill="none" stroke="#000000" points="0,-48.5 82.9775,-48.5 "/>
<text text-anchor="start" x="8" y="-36.5" font-family="Helvetica,sans-Serif" font-size="10.00" fill="#000000">+ Semaphore()</text>
<text text-anchor="start" x="8" y="-26.5" font-family="Helvetica,sans-Serif" font-size="10.00" fill="#000000">+ wait()</text>
<text text-anchor="start" x="8" y="-16.5" font-family="Helvetica,sans-Serif" font-size="10.00" fill="#000000">+ post()</text>
<text text-anchor="start" x="8" y="-6.5" font-family="Helvetica,sans-Serif" font-size="10.00" fill="#000000">+ trywait()</text>
</g>
<!-- Node1 -->
<g id="node2" class="node">
<title>Node1</title>
<g id="a_node2"><a xlink:href="../../de/da6/interfaceLock.html" target="_top" xlink:title="纤程锁对象 ">
<polygon fill="#ffffff" stroke="#000000" points="9.4507,-121.5 9.4507,-205.5 73.5269,-205.5 73.5269,-121.5 9.4507,-121.5"/>
<text text-anchor="middle" x="41.4888" y="-193.5" font-family="Helvetica,sans-Serif" font-size="10.00" fill="#000000">Lock</text>
<polyline fill="none" stroke="#000000" points="9.4507,-187.5 73.5269,-187.5 "/>
<text text-anchor="middle" x="41.4888" y="-175.5" font-family="Helvetica,sans-Serif" font-size="10.00" fill="#000000"> </text>
<polyline fill="none" stroke="#000000" points="9.4507,-169.5 73.5269,-169.5 "/>
<text text-anchor="start" x="17.4507" y="-157.5" font-family="Helvetica,sans-Serif" font-size="10.00" fill="#000000">+ Lock()</text>
<text text-anchor="start" x="17.4507" y="-147.5" font-family="Helvetica,sans-Serif" font-size="10.00" fill="#000000">+ acquire()</text>
<text text-anchor="start" x="17.4507" y="-137.5" font-family="Helvetica,sans-Serif" font-size="10.00" fill="#000000">+ release()</text>
<text text-anchor="start" x="17.4507" y="-127.5" font-family="Helvetica,sans-Serif" font-size="10.00" fill="#000000">+ count()</text>
</a>
</g>
</g>
<!-- Node1&#45;&gt;Node0 -->
<g id="edge1" class="edge">
<title>Node1&#45;&gt;Node0</title>
<path fill="none" stroke="#191970" d="M41.4888,-110.977C41.4888,-102.1562 41.4888,-93.1052 41.4888,-84.5917"/>
<polygon fill="none" stroke="#191970" points="37.9889,-111.18 41.4888,-121.1801 44.9889,-111.1801 37.9889,-111.18"/>
</g>
<!-- Node2 -->
<g id="node3" class="node">
<title>Node2</title>
<g id="a_node3"><a xlink:href="../../db/d38/interfaceobject.html" target="_top" xlink:title="基础对象，所有对象均继承于此 ">
<polygon fill="#ffffff" stroke="#000000" points="8.3447,-242.5 8.3447,-336.5 74.6328,-336.5 74.6328,-242.5 8.3447,-242.5"/>
<text text-anchor="middle" x="41.4888" y="-324.5" font-family="Helvetica,sans-Serif" font-size="10.00" fill="#000000">object</text>
<polyline fill="none" stroke="#000000" points="8.3447,-318.5 74.6328,-318.5 "/>
<text text-anchor="middle" x="41.4888" y="-306.5" font-family="Helvetica,sans-Serif" font-size="10.00" fill="#000000"> </text>
<polyline fill="none" stroke="#000000" points="8.3447,-300.5 74.6328,-300.5 "/>
<text text-anchor="start" x="16.3447" y="-288.5" font-family="Helvetica,sans-Serif" font-size="10.00" fill="#000000">+ dispose()</text>
<text text-anchor="start" x="16.3447" y="-278.5" font-family="Helvetica,sans-Serif" font-size="10.00" fill="#000000">+ equals()</text>
<text text-anchor="start" x="16.3447" y="-268.5" font-family="Helvetica,sans-Serif" font-size="10.00" fill="#000000">+ toString()</text>
<text text-anchor="start" x="16.3447" y="-258.5" font-family="Helvetica,sans-Serif" font-size="10.00" fill="#000000">+ toJSON()</text>
<text text-anchor="start" x="16.3447" y="-248.5" font-family="Helvetica,sans-Serif" font-size="10.00" fill="#000000">+ valueOf()</text>
</a>
</g>
</g>
<!-- Node2&#45;&gt;Node1 -->
<g id="edge2" class="edge">
<title>Node2&#45;&gt;Node1</title>
<path fill="none" stroke="#191970" d="M41.4888,-231.9387C41.4888,-223.0848 41.4888,-214.0866 41.4888,-205.6505"/>
<polygon fill="none" stroke="#191970" points="37.9889,-232.2237 41.4888,-242.2238 44.9889,-232.2238 37.9889,-232.2237"/>
</g>
</g>
</svg>
