<?xml version="1.0" encoding="UTF-8" standalone="no"?>
<!DOCTYPE svg PUBLIC "-//W3C//DTD SVG 1.1//EN"
 "http://www.w3.org/Graphics/SVG/1.1/DTD/svg11.dtd">
<!-- Generated by graphviz version 2.38.0 (20140413.2041)
 -->
<!-- Title: HeapGraphEdge Pages: 1 -->
<svg width="100pt" height="224pt"
 viewBox="0.00 0.00 100.42 224.00" xmlns="http://www.w3.org/2000/svg" xmlns:xlink="http://www.w3.org/1999/xlink">
<g id="graph0" class="graph" transform="scale(1 1) rotate(0) translate(4 220)">
<title>HeapGraphEdge</title>
<polygon fill="white" stroke="none" points="-4,4 -4,-220 96.416,-220 96.416,4 -4,4"/>
<!-- Node1 -->
<g id="node1" class="node"><title>Node1</title>
<polygon fill="#bfbfbf" stroke="black" points="0,-0.5 0,-84.5 92.416,-84.5 92.416,-0.5 0,-0.5"/>
<text text-anchor="middle" x="46.208" y="-72.5" font-family="Helvetica,sans-Serif" font-size="10.00">HeapGraphEdge</text>
<polyline fill="none" stroke="black" points="0,-66.5 92.416,-66.5 "/>
<text text-anchor="start" x="8" y="-54.5" font-family="Helvetica,sans-Serif" font-size="10.00">+ type</text>
<text text-anchor="start" x="8" y="-44.5" font-family="Helvetica,sans-Serif" font-size="10.00">+ name</text>
<text text-anchor="start" x="8" y="-34.5" font-family="Helvetica,sans-Serif" font-size="10.00">+ description</text>
<polyline fill="none" stroke="black" points="0,-28.5 92.416,-28.5 "/>
<text text-anchor="start" x="8" y="-16.5" font-family="Helvetica,sans-Serif" font-size="10.00">+ getFromNode()</text>
<text text-anchor="start" x="8" y="-6.5" font-family="Helvetica,sans-Serif" font-size="10.00">+ getToNode()</text>
</g>
<!-- Node2 -->
<g id="node2" class="node"><title>Node2</title>
<g id="a_node2"><a xlink:href="../../db/d38/interfaceobject.html" target="_top" xlink:title="基础对象，所有对象均继承于此 ">
<polygon fill="white" stroke="black" points="13.064,-121.5 13.064,-215.5 79.3521,-215.5 79.3521,-121.5 13.064,-121.5"/>
<text text-anchor="middle" x="46.208" y="-203.5" font-family="Helvetica,sans-Serif" font-size="10.00">object</text>
<polyline fill="none" stroke="black" points="13.064,-197.5 79.3521,-197.5 "/>
<text text-anchor="middle" x="46.208" y="-185.5" font-family="Helvetica,sans-Serif" font-size="10.00"> </text>
<polyline fill="none" stroke="black" points="13.064,-179.5 79.3521,-179.5 "/>
<text text-anchor="start" x="21.064" y="-167.5" font-family="Helvetica,sans-Serif" font-size="10.00">+ dispose()</text>
<text text-anchor="start" x="21.064" y="-157.5" font-family="Helvetica,sans-Serif" font-size="10.00">+ equals()</text>
<text text-anchor="start" x="21.064" y="-147.5" font-family="Helvetica,sans-Serif" font-size="10.00">+ toString()</text>
<text text-anchor="start" x="21.064" y="-137.5" font-family="Helvetica,sans-Serif" font-size="10.00">+ toJSON()</text>
<text text-anchor="start" x="21.064" y="-127.5" font-family="Helvetica,sans-Serif" font-size="10.00">+ valueOf()</text>
</a>
</g>
</g>
<!-- Node2&#45;&gt;Node1 -->
<g id="edge1" class="edge"><title>Node2&#45;&gt;Node1</title>
<path fill="none" stroke="midnightblue" d="M46.208,-111.061C46.208,-102.219 46.208,-93.2252 46.208,-84.8064"/>
<polygon fill="none" stroke="midnightblue" points="42.7081,-111.327 46.208,-121.327 49.7081,-111.327 42.7081,-111.327"/>
</g>
</g>
</svg>
