<?xml version="1.0" encoding="UTF-8" standalone="no"?>
<!DOCTYPE svg PUBLIC "-//W3C//DTD SVG 1.1//EN"
 "http://www.w3.org/Graphics/SVG/1.1/DTD/svg11.dtd">
<!-- Generated by graphviz version 2.38.0 (20140413.2041)
 -->
<!-- Title: XmlCharacterData Pages: 1 -->
<svg width="186pt" height="657pt"
 viewBox="0.00 0.00 185.78 657.00" xmlns="http://www.w3.org/2000/svg" xmlns:xlink="http://www.w3.org/1999/xlink">
<g id="graph0" class="graph" transform="scale(1 1) rotate(0) translate(4 653)">
<title>XmlCharacterData</title>
<polygon fill="white" stroke="none" points="-4,4 -4,-653 181.78,-653 181.78,4 -4,4"/>
<!-- Node1 -->
<g id="node1" class="node"><title>Node1</title>
<polygon fill="#bfbfbf" stroke="black" points="34.1577,-182.5 34.1577,-286.5 132.409,-286.5 132.409,-182.5 34.1577,-182.5"/>
<text text-anchor="middle" x="83.2832" y="-274.5" font-family="Helvetica,sans-Serif" font-size="10.00">XmlCharacterData</text>
<polyline fill="none" stroke="black" points="34.1577,-268.5 132.409,-268.5 "/>
<text text-anchor="start" x="42.1577" y="-256.5" font-family="Helvetica,sans-Serif" font-size="10.00">+ data</text>
<text text-anchor="start" x="42.1577" y="-246.5" font-family="Helvetica,sans-Serif" font-size="10.00">+ length</text>
<polyline fill="none" stroke="black" points="34.1577,-240.5 132.409,-240.5 "/>
<text text-anchor="start" x="42.1577" y="-228.5" font-family="Helvetica,sans-Serif" font-size="10.00">+ substringData()</text>
<text text-anchor="start" x="42.1577" y="-218.5" font-family="Helvetica,sans-Serif" font-size="10.00">+ appendData()</text>
<text text-anchor="start" x="42.1577" y="-208.5" font-family="Helvetica,sans-Serif" font-size="10.00">+ insertData()</text>
<text text-anchor="start" x="42.1577" y="-198.5" font-family="Helvetica,sans-Serif" font-size="10.00">+ deleteData()</text>
<text text-anchor="start" x="42.1577" y="-188.5" font-family="Helvetica,sans-Serif" font-size="10.00">+ replaceData()</text>
</g>
<!-- Node4 -->
<g id="node4" class="node"><title>Node4</title>
<g id="a_node4"><a xlink:href="../../dd/dc1/interfaceXmlComment.html" target="_top" xlink:title="XmlComment 对象表示文档中注释节点的内容 ">
<polygon fill="white" stroke="black" points="0,-91.5 0,-145.5 76.5664,-145.5 76.5664,-91.5 0,-91.5"/>
<text text-anchor="middle" x="38.2832" y="-133.5" font-family="Helvetica,sans-Serif" font-size="10.00">XmlComment</text>
<polyline fill="none" stroke="black" points="0,-127.5 76.5664,-127.5 "/>
<text text-anchor="middle" x="38.2832" y="-115.5" font-family="Helvetica,sans-Serif" font-size="10.00"> </text>
<polyline fill="none" stroke="black" points="0,-109.5 76.5664,-109.5 "/>
<text text-anchor="middle" x="38.2832" y="-97.5" font-family="Helvetica,sans-Serif" font-size="10.00"> </text>
</a>
</g>
</g>
<!-- Node1&#45;&gt;Node4 -->
<g id="edge3" class="edge"><title>Node1&#45;&gt;Node4</title>
<path fill="none" stroke="midnightblue" d="M59.2646,-172.653C55.5115,-163.145 51.8149,-153.78 48.5952,-145.624"/>
<polygon fill="none" stroke="midnightblue" points="56.0938,-174.153 63.0211,-182.169 62.6049,-171.583 56.0938,-174.153"/>
</g>
<!-- Node5 -->
<g id="node5" class="node"><title>Node5</title>
<g id="a_node5"><a xlink:href="../../d3/d51/interfaceXmlText.html" target="_top" xlink:title="XmlText 对象表示元素或属性的文本内容 ">
<polygon fill="white" stroke="black" points="94.5825,-91.5 94.5825,-145.5 161.984,-145.5 161.984,-91.5 94.5825,-91.5"/>
<text text-anchor="middle" x="128.283" y="-133.5" font-family="Helvetica,sans-Serif" font-size="10.00">XmlText</text>
<polyline fill="none" stroke="black" points="94.5825,-127.5 161.984,-127.5 "/>
<text text-anchor="middle" x="128.283" y="-115.5" font-family="Helvetica,sans-Serif" font-size="10.00"> </text>
<polyline fill="none" stroke="black" points="94.5825,-109.5 161.984,-109.5 "/>
<text text-anchor="start" x="102.583" y="-97.5" font-family="Helvetica,sans-Serif" font-size="10.00">+ splitText()</text>
</a>
</g>
</g>
<!-- Node1&#45;&gt;Node5 -->
<g id="edge4" class="edge"><title>Node1&#45;&gt;Node5</title>
<path fill="none" stroke="midnightblue" d="M107.302,-172.653C111.055,-163.145 114.752,-153.78 117.971,-145.624"/>
<polygon fill="none" stroke="midnightblue" points="103.961,-171.583 103.545,-182.169 110.473,-174.153 103.961,-171.583"/>
</g>
<!-- Node2 -->
<g id="node2" class="node"><title>Node2</title>
<g id="a_node2"><a xlink:href="../../dc/d8f/interfaceXmlNode.html" target="_top" xlink:title="XmlNode 对象是整个 DOM 的基础数据类型 ">
<polygon fill="white" stroke="black" points="33.7354,-323.5 33.7354,-527.5 132.831,-527.5 132.831,-323.5 33.7354,-323.5"/>
<text text-anchor="middle" x="83.2832" y="-515.5" font-family="Helvetica,sans-Serif" font-size="10.00">XmlNode</text>
<polyline fill="none" stroke="black" points="33.7354,-509.5 132.831,-509.5 "/>
<text text-anchor="start" x="41.7354" y="-497.5" font-family="Helvetica,sans-Serif" font-size="10.00">+ nodeName</text>
<text text-anchor="start" x="41.7354" y="-487.5" font-family="Helvetica,sans-Serif" font-size="10.00">+ nodeValue</text>
<text text-anchor="start" x="41.7354" y="-477.5" font-family="Helvetica,sans-Serif" font-size="10.00">+ nodeType</text>
<text text-anchor="start" x="41.7354" y="-467.5" font-family="Helvetica,sans-Serif" font-size="10.00">+ parentNode</text>
<text text-anchor="start" x="41.7354" y="-457.5" font-family="Helvetica,sans-Serif" font-size="10.00">+ childNodes</text>
<text text-anchor="start" x="41.7354" y="-447.5" font-family="Helvetica,sans-Serif" font-size="10.00">+ firstChild</text>
<text text-anchor="start" x="41.7354" y="-437.5" font-family="Helvetica,sans-Serif" font-size="10.00">+ lastChild</text>
<text text-anchor="start" x="41.7354" y="-427.5" font-family="Helvetica,sans-Serif" font-size="10.00">+ previousSibling</text>
<text text-anchor="start" x="41.7354" y="-417.5" font-family="Helvetica,sans-Serif" font-size="10.00">+ nextSibling</text>
<text text-anchor="start" x="41.7354" y="-407.5" font-family="Helvetica,sans-Serif" font-size="10.00">+ ownerDocument</text>
<polyline fill="none" stroke="black" points="33.7354,-401.5 132.831,-401.5 "/>
<text text-anchor="start" x="41.7354" y="-389.5" font-family="Helvetica,sans-Serif" font-size="10.00">+ insertBefore()</text>
<text text-anchor="start" x="41.7354" y="-379.5" font-family="Helvetica,sans-Serif" font-size="10.00">+ replaceChild()</text>
<text text-anchor="start" x="41.7354" y="-369.5" font-family="Helvetica,sans-Serif" font-size="10.00">+ removeChild()</text>
<text text-anchor="start" x="41.7354" y="-359.5" font-family="Helvetica,sans-Serif" font-size="10.00">+ appendChild()</text>
<text text-anchor="start" x="41.7354" y="-349.5" font-family="Helvetica,sans-Serif" font-size="10.00">+ hasChildNodes()</text>
<text text-anchor="start" x="41.7354" y="-339.5" font-family="Helvetica,sans-Serif" font-size="10.00">+ cloneNode()</text>
<text text-anchor="start" x="41.7354" y="-329.5" font-family="Helvetica,sans-Serif" font-size="10.00">+ normalize()</text>
</a>
</g>
</g>
<!-- Node2&#45;&gt;Node1 -->
<g id="edge1" class="edge"><title>Node2&#45;&gt;Node1</title>
<path fill="none" stroke="midnightblue" d="M83.2832,-313.34C83.2832,-304.168 83.2832,-295.212 83.2832,-286.833"/>
<polygon fill="none" stroke="midnightblue" points="79.7833,-313.36 83.2832,-323.36 86.7833,-313.36 79.7833,-313.36"/>
</g>
<!-- Node3 -->
<g id="node3" class="node"><title>Node3</title>
<g id="a_node3"><a xlink:href="../../db/d38/interfaceobject.html" target="_top" xlink:title="基础对象，所有对象均继承于此 ">
<polygon fill="white" stroke="black" points="50.1392,-564.5 50.1392,-648.5 116.427,-648.5 116.427,-564.5 50.1392,-564.5"/>
<text text-anchor="middle" x="83.2832" y="-636.5" font-family="Helvetica,sans-Serif" font-size="10.00">object</text>
<polyline fill="none" stroke="black" points="50.1392,-630.5 116.427,-630.5 "/>
<text text-anchor="middle" x="83.2832" y="-618.5" font-family="Helvetica,sans-Serif" font-size="10.00"> </text>
<polyline fill="none" stroke="black" points="50.1392,-612.5 116.427,-612.5 "/>
<text text-anchor="start" x="58.1392" y="-600.5" font-family="Helvetica,sans-Serif" font-size="10.00">+ dispose()</text>
<text text-anchor="start" x="58.1392" y="-590.5" font-family="Helvetica,sans-Serif" font-size="10.00">+ toString()</text>
<text text-anchor="start" x="58.1392" y="-580.5" font-family="Helvetica,sans-Serif" font-size="10.00">+ toJSON()</text>
<text text-anchor="start" x="58.1392" y="-570.5" font-family="Helvetica,sans-Serif" font-size="10.00">+ valueOf()</text>
</a>
</g>
</g>
<!-- Node3&#45;&gt;Node2 -->
<g id="edge2" class="edge"><title>Node3&#45;&gt;Node2</title>
<path fill="none" stroke="midnightblue" d="M83.2832,-554.155C83.2832,-545.787 83.2832,-536.87 83.2832,-527.789"/>
<polygon fill="none" stroke="midnightblue" points="79.7833,-554.434 83.2832,-564.434 86.7833,-554.434 79.7833,-554.434"/>
</g>
<!-- Node6 -->
<g id="node6" class="node"><title>Node6</title>
<g id="a_node6"><a xlink:href="../../d4/dd8/interfaceXmlCDATASection.html" target="_top" xlink:title="XmlCDATASection 对象表示文档中的 CDATA 区段 ">
<polygon fill="white" stroke="black" points="78.7866,-0.5 78.7866,-54.5 177.78,-54.5 177.78,-0.5 78.7866,-0.5"/>
<text text-anchor="middle" x="128.283" y="-42.5" font-family="Helvetica,sans-Serif" font-size="10.00">XmlCDATASection</text>
<polyline fill="none" stroke="black" points="78.7866,-36.5 177.78,-36.5 "/>
<text text-anchor="middle" x="128.283" y="-24.5" font-family="Helvetica,sans-Serif" font-size="10.00"> </text>
<polyline fill="none" stroke="black" points="78.7866,-18.5 177.78,-18.5 "/>
<text text-anchor="middle" x="128.283" y="-6.5" font-family="Helvetica,sans-Serif" font-size="10.00"> </text>
</a>
</g>
</g>
<!-- Node5&#45;&gt;Node6 -->
<g id="edge5" class="edge"><title>Node5&#45;&gt;Node6</title>
<path fill="none" stroke="midnightblue" d="M128.283,-81.1155C128.283,-72.2061 128.283,-62.8475 128.283,-54.5341"/>
<polygon fill="none" stroke="midnightblue" points="124.783,-81.2784 128.283,-91.2784 131.783,-81.2785 124.783,-81.2784"/>
</g>
</g>
</svg>
