<?xml version="1.0" encoding="UTF-8" standalone="no"?>
<!DOCTYPE svg PUBLIC "-//W3C//DTD SVG 1.1//EN"
 "http://www.w3.org/Graphics/SVG/1.1/DTD/svg11.dtd">
<!-- Generated by graphviz version 2.40.1 (20161225.0304)
 -->
<!-- Title: Stream Pages: 1 -->
<svg width="421pt" height="566pt"
 viewBox="0.00 0.00 421.44 566.00" xmlns="http://www.w3.org/2000/svg" xmlns:xlink="http://www.w3.org/1999/xlink">
<g id="graph0" class="graph" transform="scale(1 1) rotate(0) translate(4 562)">
<title>Stream</title>
<polygon fill="#ffffff" stroke="transparent" points="-4,4 -4,-562 417.439,-562 417.439,4 -4,4"/>
<!-- Node0 -->
<g id="node1" class="node">
<title>Node0</title>
<polygon fill="#bfbfbf" stroke="#000000" points="187.0869,-352.5 187.0869,-436.5 250.0498,-436.5 250.0498,-352.5 187.0869,-352.5"/>
<text text-anchor="middle" x="218.5684" y="-424.5" font-family="Helvetica,sans-Serif" font-size="10.00" fill="#000000">Stream</text>
<polyline fill="none" stroke="#000000" points="187.0869,-418.5 250.0498,-418.5 "/>
<text text-anchor="middle" x="218.5684" y="-406.5" font-family="Helvetica,sans-Serif" font-size="10.00" fill="#000000"> </text>
<polyline fill="none" stroke="#000000" points="187.0869,-400.5 250.0498,-400.5 "/>
<text text-anchor="start" x="195.0869" y="-388.5" font-family="Helvetica,sans-Serif" font-size="10.00" fill="#000000">+ read()</text>
<text text-anchor="start" x="195.0869" y="-378.5" font-family="Helvetica,sans-Serif" font-size="10.00" fill="#000000">+ write()</text>
<text text-anchor="start" x="195.0869" y="-368.5" font-family="Helvetica,sans-Serif" font-size="10.00" fill="#000000">+ close()</text>
<text text-anchor="start" x="195.0869" y="-358.5" font-family="Helvetica,sans-Serif" font-size="10.00" fill="#000000">+ copyTo()</text>
</g>
<!-- Node2 -->
<g id="node3" class="node">
<title>Node2</title>
<g id="a_node3"><a xlink:href="../../d0/d37/interfaceBufferedStream.html" target="_top" xlink:title="Buffer reader object. ">
<polygon fill="#ffffff" stroke="#000000" points="0,-151.5 0,-285.5 101.1367,-285.5 101.1367,-151.5 0,-151.5"/>
<text text-anchor="middle" x="50.5684" y="-273.5" font-family="Helvetica,sans-Serif" font-size="10.00" fill="#000000">BufferedStream</text>
<polyline fill="none" stroke="#000000" points="0,-267.5 101.1367,-267.5 "/>
<text text-anchor="start" x="8" y="-255.5" font-family="Helvetica,sans-Serif" font-size="10.00" fill="#000000">+ stream</text>
<text text-anchor="start" x="8" y="-245.5" font-family="Helvetica,sans-Serif" font-size="10.00" fill="#000000">+ charset</text>
<text text-anchor="start" x="8" y="-235.5" font-family="Helvetica,sans-Serif" font-size="10.00" fill="#000000">+ EOL</text>
<polyline fill="none" stroke="#000000" points="0,-229.5 101.1367,-229.5 "/>
<text text-anchor="start" x="8" y="-217.5" font-family="Helvetica,sans-Serif" font-size="10.00" fill="#000000">+ BufferedStream()</text>
<text text-anchor="start" x="8" y="-207.5" font-family="Helvetica,sans-Serif" font-size="10.00" fill="#000000">+ readText()</text>
<text text-anchor="start" x="8" y="-197.5" font-family="Helvetica,sans-Serif" font-size="10.00" fill="#000000">+ readLine()</text>
<text text-anchor="start" x="8" y="-187.5" font-family="Helvetica,sans-Serif" font-size="10.00" fill="#000000">+ readLines()</text>
<text text-anchor="start" x="8" y="-177.5" font-family="Helvetica,sans-Serif" font-size="10.00" fill="#000000">+ readUntil()</text>
<text text-anchor="start" x="8" y="-167.5" font-family="Helvetica,sans-Serif" font-size="10.00" fill="#000000">+ writeText()</text>
<text text-anchor="start" x="8" y="-157.5" font-family="Helvetica,sans-Serif" font-size="10.00" fill="#000000">+ writeLine()</text>
</a>
</g>
</g>
<!-- Node0&#45;&gt;Node2 -->
<g id="edge2" class="edge">
<title>Node0&#45;&gt;Node2</title>
<path fill="none" stroke="#191970" d="M178.0332,-370.5056C156.3828,-356.4143 130.2234,-337.227 110.5684,-316 102.061,-306.8123 94.1072,-296.2418 86.9496,-285.5256"/>
<polygon fill="none" stroke="#191970" points="176.3833,-373.6046 186.6964,-376.0318 180.1479,-367.7031 176.3833,-373.6046"/>
</g>
<!-- Node4 -->
<g id="node5" class="node">
<title>Node4</title>
<g id="a_node5"><a xlink:href="../../d6/d9c/interfaceSeekableStream.html" target="_top" xlink:title="Seekable stream interface. ">
<polygon fill="#ffffff" stroke="#000000" points="119.603,-166.5 119.603,-270.5 209.5337,-270.5 209.5337,-166.5 119.603,-166.5"/>
<text text-anchor="middle" x="164.5684" y="-258.5" font-family="Helvetica,sans-Serif" font-size="10.00" fill="#000000">SeekableStream</text>
<polyline fill="none" stroke="#000000" points="119.603,-252.5 209.5337,-252.5 "/>
<text text-anchor="middle" x="164.5684" y="-240.5" font-family="Helvetica,sans-Serif" font-size="10.00" fill="#000000"> </text>
<polyline fill="none" stroke="#000000" points="119.603,-234.5 209.5337,-234.5 "/>
<text text-anchor="start" x="127.603" y="-222.5" font-family="Helvetica,sans-Serif" font-size="10.00" fill="#000000">+ seek()</text>
<text text-anchor="start" x="127.603" y="-212.5" font-family="Helvetica,sans-Serif" font-size="10.00" fill="#000000">+ tell()</text>
<text text-anchor="start" x="127.603" y="-202.5" font-family="Helvetica,sans-Serif" font-size="10.00" fill="#000000">+ rewind()</text>
<text text-anchor="start" x="127.603" y="-192.5" font-family="Helvetica,sans-Serif" font-size="10.00" fill="#000000">+ size()</text>
<text text-anchor="start" x="127.603" y="-182.5" font-family="Helvetica,sans-Serif" font-size="10.00" fill="#000000">+ readAll()</text>
<text text-anchor="start" x="127.603" y="-172.5" font-family="Helvetica,sans-Serif" font-size="10.00" fill="#000000">+ stat()</text>
</a>
</g>
</g>
<!-- Node0&#45;&gt;Node4 -->
<g id="edge4" class="edge">
<title>Node0&#45;&gt;Node4</title>
<path fill="none" stroke="#191970" d="M202.633,-342.5625C195.6807,-319.9033 187.545,-293.3869 180.5837,-270.6983"/>
<polygon fill="none" stroke="#191970" points="199.3547,-343.8101 205.634,-352.3436 206.0468,-341.7568 199.3547,-343.8101"/>
</g>
<!-- Node7 -->
<g id="node8" class="node">
<title>Node7</title>
<g id="a_node8"><a xlink:href="../../dd/d94/interfaceSocket.html" target="_top" xlink:title="Network socket interface. ">
<polygon fill="#ffffff" stroke="#000000" points="227.3555,-121.5 227.3555,-315.5 319.7813,-315.5 319.7813,-121.5 227.3555,-121.5"/>
<text text-anchor="middle" x="273.5684" y="-303.5" font-family="Helvetica,sans-Serif" font-size="10.00" fill="#000000">Socket</text>
<polyline fill="none" stroke="#000000" points="227.3555,-297.5 319.7813,-297.5 "/>
<text text-anchor="start" x="235.3555" y="-285.5" font-family="Helvetica,sans-Serif" font-size="10.00" fill="#000000">+ family</text>
<text text-anchor="start" x="235.3555" y="-275.5" font-family="Helvetica,sans-Serif" font-size="10.00" fill="#000000">+ type</text>
<text text-anchor="start" x="235.3555" y="-265.5" font-family="Helvetica,sans-Serif" font-size="10.00" fill="#000000">+ remoteAddress</text>
<text text-anchor="start" x="235.3555" y="-255.5" font-family="Helvetica,sans-Serif" font-size="10.00" fill="#000000">+ remotePort</text>
<text text-anchor="start" x="235.3555" y="-245.5" font-family="Helvetica,sans-Serif" font-size="10.00" fill="#000000">+ localAddress</text>
<text text-anchor="start" x="235.3555" y="-235.5" font-family="Helvetica,sans-Serif" font-size="10.00" fill="#000000">+ localPort</text>
<polyline fill="none" stroke="#000000" points="227.3555,-229.5 319.7813,-229.5 "/>
<text text-anchor="start" x="235.3555" y="-217.5" font-family="Helvetica,sans-Serif" font-size="10.00" fill="#000000">+ Socket()</text>
<text text-anchor="start" x="235.3555" y="-207.5" font-family="Helvetica,sans-Serif" font-size="10.00" fill="#000000">+ connect()</text>
<text text-anchor="start" x="235.3555" y="-197.5" font-family="Helvetica,sans-Serif" font-size="10.00" fill="#000000">+ bind()</text>
<text text-anchor="start" x="235.3555" y="-187.5" font-family="Helvetica,sans-Serif" font-size="10.00" fill="#000000">+ bind()</text>
<text text-anchor="start" x="235.3555" y="-177.5" font-family="Helvetica,sans-Serif" font-size="10.00" fill="#000000">+ listen()</text>
<text text-anchor="start" x="235.3555" y="-167.5" font-family="Helvetica,sans-Serif" font-size="10.00" fill="#000000">+ accept()</text>
<text text-anchor="start" x="235.3555" y="-157.5" font-family="Helvetica,sans-Serif" font-size="10.00" fill="#000000">+ recv()</text>
<text text-anchor="start" x="235.3555" y="-147.5" font-family="Helvetica,sans-Serif" font-size="10.00" fill="#000000">+ recvFrom()</text>
<text text-anchor="start" x="235.3555" y="-137.5" font-family="Helvetica,sans-Serif" font-size="10.00" fill="#000000">+ send()</text>
<text text-anchor="start" x="235.3555" y="-127.5" font-family="Helvetica,sans-Serif" font-size="10.00" fill="#000000">+ sendto()</text>
</a>
</g>
</g>
<!-- Node0&#45;&gt;Node7 -->
<g id="edge7" class="edge">
<title>Node0&#45;&gt;Node7</title>
<path fill="none" stroke="#191970" d="M234.7858,-342.6042C237.452,-334.0724 240.2894,-324.9928 243.1696,-315.776"/>
<polygon fill="none" stroke="#191970" points="231.3844,-341.7548 231.7422,-352.3436 238.0657,-343.8428 231.3844,-341.7548"/>
</g>
<!-- Node8 -->
<g id="node9" class="node">
<title>Node8</title>
<g id="a_node9"><a xlink:href="../../d0/d97/interfaceSslSocket.html" target="_top" xlink:title="ssl netwrok socket interface ">
<polygon fill="#ffffff" stroke="#000000" points="337.6978,-166.5 337.6978,-270.5 413.439,-270.5 413.439,-166.5 337.6978,-166.5"/>
<text text-anchor="middle" x="375.5684" y="-258.5" font-family="Helvetica,sans-Serif" font-size="10.00" fill="#000000">SslSocket</text>
<polyline fill="none" stroke="#000000" points="337.6978,-252.5 413.439,-252.5 "/>
<text text-anchor="start" x="345.6978" y="-240.5" font-family="Helvetica,sans-Serif" font-size="10.00" fill="#000000">+ verification</text>
<text text-anchor="start" x="345.6978" y="-230.5" font-family="Helvetica,sans-Serif" font-size="10.00" fill="#000000">+ ca</text>
<text text-anchor="start" x="345.6978" y="-220.5" font-family="Helvetica,sans-Serif" font-size="10.00" fill="#000000">+ peerCert</text>
<polyline fill="none" stroke="#000000" points="337.6978,-214.5 413.439,-214.5 "/>
<text text-anchor="start" x="345.6978" y="-202.5" font-family="Helvetica,sans-Serif" font-size="10.00" fill="#000000">+ SslSocket()</text>
<text text-anchor="start" x="345.6978" y="-192.5" font-family="Helvetica,sans-Serif" font-size="10.00" fill="#000000">+ SslSocket()</text>
<text text-anchor="start" x="345.6978" y="-182.5" font-family="Helvetica,sans-Serif" font-size="10.00" fill="#000000">+ connect()</text>
<text text-anchor="start" x="345.6978" y="-172.5" font-family="Helvetica,sans-Serif" font-size="10.00" fill="#000000">+ accept()</text>
</a>
</g>
</g>
<!-- Node0&#45;&gt;Node8 -->
<g id="edge8" class="edge">
<title>Node0&#45;&gt;Node8</title>
<path fill="none" stroke="#191970" d="M259.0531,-372.4779C281.7169,-358.5945 309.219,-338.9685 328.5684,-316 339.7671,-302.7066 349.0092,-286.2903 356.2466,-270.7435"/>
<polygon fill="none" stroke="#191970" points="257.1045,-369.5649 250.3139,-377.6975 260.6939,-375.5746 257.1045,-369.5649"/>
</g>
<!-- Node1 -->
<g id="node2" class="node">
<title>Node1</title>
<g id="a_node2"><a xlink:href="../../db/d38/interfaceobject.html" target="_top" xlink:title="All objects inherit from this. ">
<polygon fill="#ffffff" stroke="#000000" points="185.4243,-473.5 185.4243,-557.5 251.7124,-557.5 251.7124,-473.5 185.4243,-473.5"/>
<text text-anchor="middle" x="218.5684" y="-545.5" font-family="Helvetica,sans-Serif" font-size="10.00" fill="#000000">object</text>
<polyline fill="none" stroke="#000000" points="185.4243,-539.5 251.7124,-539.5 "/>
<text text-anchor="middle" x="218.5684" y="-527.5" font-family="Helvetica,sans-Serif" font-size="10.00" fill="#000000"> </text>
<polyline fill="none" stroke="#000000" points="185.4243,-521.5 251.7124,-521.5 "/>
<text text-anchor="start" x="193.4243" y="-509.5" font-family="Helvetica,sans-Serif" font-size="10.00" fill="#000000">+ dispose()</text>
<text text-anchor="start" x="193.4243" y="-499.5" font-family="Helvetica,sans-Serif" font-size="10.00" fill="#000000">+ toString()</text>
<text text-anchor="start" x="193.4243" y="-489.5" font-family="Helvetica,sans-Serif" font-size="10.00" fill="#000000">+ toJSON()</text>
<text text-anchor="start" x="193.4243" y="-479.5" font-family="Helvetica,sans-Serif" font-size="10.00" fill="#000000">+ valueOf()</text>
</a>
</g>
</g>
<!-- Node1&#45;&gt;Node0 -->
<g id="edge1" class="edge">
<title>Node1&#45;&gt;Node0</title>
<path fill="none" stroke="#191970" d="M218.5684,-462.977C218.5684,-454.1562 218.5684,-445.1052 218.5684,-436.5917"/>
<polygon fill="none" stroke="#191970" points="215.0685,-463.18 218.5684,-473.1801 222.0685,-463.1801 215.0685,-463.18"/>
</g>
<!-- Node3 -->
<g id="node4" class="node">
<title>Node3</title>
<g id="a_node4"><a xlink:href="../../d8/d10/interfaceSubProcess.html" target="_top" xlink:title="Child process object. ">
<polygon fill="#ffffff" stroke="#000000" points="15.6104,-.5 15.6104,-84.5 85.5264,-84.5 85.5264,-.5 15.6104,-.5"/>
<text text-anchor="middle" x="50.5684" y="-72.5" font-family="Helvetica,sans-Serif" font-size="10.00" fill="#000000">SubProcess</text>
<polyline fill="none" stroke="#000000" points="15.6104,-66.5 85.5264,-66.5 "/>
<text text-anchor="start" x="23.6104" y="-54.5" font-family="Helvetica,sans-Serif" font-size="10.00" fill="#000000">+ pid</text>
<text text-anchor="start" x="23.6104" y="-44.5" font-family="Helvetica,sans-Serif" font-size="10.00" fill="#000000">+ stdin</text>
<text text-anchor="start" x="23.6104" y="-34.5" font-family="Helvetica,sans-Serif" font-size="10.00" fill="#000000">+ stdout</text>
<polyline fill="none" stroke="#000000" points="15.6104,-28.5 85.5264,-28.5 "/>
<text text-anchor="start" x="23.6104" y="-16.5" font-family="Helvetica,sans-Serif" font-size="10.00" fill="#000000">+ kill()</text>
<text text-anchor="start" x="23.6104" y="-6.5" font-family="Helvetica,sans-Serif" font-size="10.00" fill="#000000">+ wait()</text>
</a>
</g>
</g>
<!-- Node2&#45;&gt;Node3 -->
<g id="edge3" class="edge">
<title>Node2&#45;&gt;Node3</title>
<path fill="none" stroke="#191970" d="M50.5684,-141.36C50.5684,-121.8811 50.5684,-101.6813 50.5684,-84.6573"/>
<polygon fill="none" stroke="#191970" points="47.0685,-141.4598 50.5684,-151.4599 54.0685,-141.4599 47.0685,-141.4598"/>
</g>
<!-- Node5 -->
<g id="node6" class="node">
<title>Node5</title>
<g id="a_node6"><a xlink:href="../../d3/d3a/interfaceFile.html" target="_top" xlink:title="file operands, used to operate the reading and writing of binary files. ">
<polygon fill="#ffffff" stroke="#000000" points="116.8628,-.5 116.8628,-84.5 184.2739,-84.5 184.2739,-.5 116.8628,-.5"/>
<text text-anchor="middle" x="150.5684" y="-72.5" font-family="Helvetica,sans-Serif" font-size="10.00" fill="#000000">File</text>
<polyline fill="none" stroke="#000000" points="116.8628,-66.5 184.2739,-66.5 "/>
<text text-anchor="start" x="124.8628" y="-54.5" font-family="Helvetica,sans-Serif" font-size="10.00" fill="#000000">+ name</text>
<polyline fill="none" stroke="#000000" points="116.8628,-48.5 184.2739,-48.5 "/>
<text text-anchor="start" x="124.8628" y="-36.5" font-family="Helvetica,sans-Serif" font-size="10.00" fill="#000000">+ truncate()</text>
<text text-anchor="start" x="124.8628" y="-26.5" font-family="Helvetica,sans-Serif" font-size="10.00" fill="#000000">+ eof()</text>
<text text-anchor="start" x="124.8628" y="-16.5" font-family="Helvetica,sans-Serif" font-size="10.00" fill="#000000">+ flush()</text>
<text text-anchor="start" x="124.8628" y="-6.5" font-family="Helvetica,sans-Serif" font-size="10.00" fill="#000000">+ chmod()</text>
</a>
</g>
</g>
<!-- Node4&#45;&gt;Node5 -->
<g id="edge5" class="edge">
<title>Node4&#45;&gt;Node5</title>
<path fill="none" stroke="#191970" d="M159.6121,-156.1927C157.7249,-132.4677 155.6204,-106.0118 153.9168,-84.5943"/>
<polygon fill="none" stroke="#191970" points="156.1238,-156.4798 160.4058,-166.1707 163.1017,-155.9246 156.1238,-156.4798"/>
</g>
<!-- Node6 -->
<g id="node7" class="node">
<title>Node6</title>
<g id="a_node7"><a xlink:href="../../d2/d93/interfaceMemoryStream.html" target="_top" xlink:title="Memory stream object. ">
<polygon fill="#ffffff" stroke="#000000" points="202.7568,-.5 202.7568,-84.5 302.3799,-84.5 302.3799,-.5 202.7568,-.5"/>
<text text-anchor="middle" x="252.5684" y="-72.5" font-family="Helvetica,sans-Serif" font-size="10.00" fill="#000000">MemoryStream</text>
<polyline fill="none" stroke="#000000" points="202.7568,-66.5 302.3799,-66.5 "/>
<text text-anchor="middle" x="252.5684" y="-54.5" font-family="Helvetica,sans-Serif" font-size="10.00" fill="#000000"> </text>
<polyline fill="none" stroke="#000000" points="202.7568,-48.5 302.3799,-48.5 "/>
<text text-anchor="start" x="210.7568" y="-36.5" font-family="Helvetica,sans-Serif" font-size="10.00" fill="#000000">+ MemoryStream()</text>
<text text-anchor="start" x="210.7568" y="-26.5" font-family="Helvetica,sans-Serif" font-size="10.00" fill="#000000">+ setTime()</text>
<text text-anchor="start" x="210.7568" y="-16.5" font-family="Helvetica,sans-Serif" font-size="10.00" fill="#000000">+ clone()</text>
<text text-anchor="start" x="210.7568" y="-6.5" font-family="Helvetica,sans-Serif" font-size="10.00" fill="#000000">+ clear()</text>
</a>
</g>
</g>
<!-- Node4&#45;&gt;Node6 -->
<g id="edge6" class="edge">
<title>Node4&#45;&gt;Node6</title>
<path fill="none" stroke="#191970" d="M195.2461,-157.1445C207.2297,-133.1773 220.669,-106.2986 231.5212,-84.5943"/>
<polygon fill="none" stroke="#191970" points="192.0747,-155.6612 190.733,-166.1707 198.3357,-158.7917 192.0747,-155.6612"/>
</g>
</g>
</svg>
