<?xml version="1.0" encoding="UTF-8" standalone="no"?>
<!DOCTYPE svg PUBLIC "-//W3C//DTD SVG 1.1//EN"
 "http://www.w3.org/Graphics/SVG/1.1/DTD/svg11.dtd">
<!-- Generated by graphviz version 2.38.0 (20140413.2041)
 -->
<!-- Title: HttpResponse Pages: 1 -->
<svg width="116pt" height="646pt"
 viewBox="0.00 0.00 115.99 646.00" xmlns="http://www.w3.org/2000/svg" xmlns:xlink="http://www.w3.org/1999/xlink">
<g id="graph0" class="graph" transform="scale(1 1) rotate(0) translate(4 642)">
<title>HttpResponse</title>
<polygon fill="white" stroke="none" points="-4,4 -4,-642 111.992,-642 111.992,4 -4,4"/>
<!-- Node1 -->
<g id="node1" class="node"><title>Node1</title>
<polygon fill="#bfbfbf" stroke="black" points="6.67236,-0.5 6.67236,-94.5 101.32,-94.5 101.32,-0.5 6.67236,-0.5"/>
<text text-anchor="middle" x="53.9961" y="-82.5" font-family="Helvetica,sans-Serif" font-size="10.00">HttpResponse</text>
<polyline fill="none" stroke="black" points="6.67236,-76.5 101.32,-76.5 "/>
<text text-anchor="start" x="14.6724" y="-64.5" font-family="Helvetica,sans-Serif" font-size="10.00">+ status</text>
<text text-anchor="start" x="14.6724" y="-54.5" font-family="Helvetica,sans-Serif" font-size="10.00">+ cookies</text>
<polyline fill="none" stroke="black" points="6.67236,-48.5 101.32,-48.5 "/>
<text text-anchor="start" x="14.6724" y="-36.5" font-family="Helvetica,sans-Serif" font-size="10.00">+ HttpResponse()</text>
<text text-anchor="start" x="14.6724" y="-26.5" font-family="Helvetica,sans-Serif" font-size="10.00">+ addCookie()</text>
<text text-anchor="start" x="14.6724" y="-16.5" font-family="Helvetica,sans-Serif" font-size="10.00">+ redirect()</text>
<text text-anchor="start" x="14.6724" y="-6.5" font-family="Helvetica,sans-Serif" font-size="10.00">+ sendHeader()</text>
</g>
<!-- Node2 -->
<g id="node2" class="node"><title>Node2</title>
<g id="a_node2"><a xlink:href="../../da/d38/interfaceHttpMessage.html" target="_top" xlink:title="http 基础消息对象 ">
<polygon fill="white" stroke="black" points="0,-131.5 0,-305.5 107.992,-305.5 107.992,-131.5 0,-131.5"/>
<text text-anchor="middle" x="53.9961" y="-293.5" font-family="Helvetica,sans-Serif" font-size="10.00">HttpMessage</text>
<polyline fill="none" stroke="black" points="0,-287.5 107.992,-287.5 "/>
<text text-anchor="start" x="8" y="-275.5" font-family="Helvetica,sans-Serif" font-size="10.00">+ protocol</text>
<text text-anchor="start" x="8" y="-265.5" font-family="Helvetica,sans-Serif" font-size="10.00">+ headers</text>
<text text-anchor="start" x="8" y="-255.5" font-family="Helvetica,sans-Serif" font-size="10.00">+ keepAlive</text>
<text text-anchor="start" x="8" y="-245.5" font-family="Helvetica,sans-Serif" font-size="10.00">+ upgrade</text>
<text text-anchor="start" x="8" y="-235.5" font-family="Helvetica,sans-Serif" font-size="10.00">+ maxHeadersCount</text>
<text text-anchor="start" x="8" y="-225.5" font-family="Helvetica,sans-Serif" font-size="10.00">+ maxUploadSize</text>
<polyline fill="none" stroke="black" points="0,-219.5 107.992,-219.5 "/>
<text text-anchor="start" x="8" y="-207.5" font-family="Helvetica,sans-Serif" font-size="10.00">+ hasHeader()</text>
<text text-anchor="start" x="8" y="-197.5" font-family="Helvetica,sans-Serif" font-size="10.00">+ firstHeader()</text>
<text text-anchor="start" x="8" y="-187.5" font-family="Helvetica,sans-Serif" font-size="10.00">+ allHeader()</text>
<text text-anchor="start" x="8" y="-177.5" font-family="Helvetica,sans-Serif" font-size="10.00">+ addHeader()</text>
<text text-anchor="start" x="8" y="-167.5" font-family="Helvetica,sans-Serif" font-size="10.00">+ addHeader()</text>
<text text-anchor="start" x="8" y="-157.5" font-family="Helvetica,sans-Serif" font-size="10.00">+ setHeader()</text>
<text text-anchor="start" x="8" y="-147.5" font-family="Helvetica,sans-Serif" font-size="10.00">+ setHeader()</text>
<text text-anchor="start" x="8" y="-137.5" font-family="Helvetica,sans-Serif" font-size="10.00">+ removeHeader()</text>
</a>
</g>
</g>
<!-- Node2&#45;&gt;Node1 -->
<g id="edge1" class="edge"><title>Node2&#45;&gt;Node1</title>
<path fill="none" stroke="midnightblue" d="M53.9961,-120.796C53.9961,-111.792 53.9961,-102.977 53.9961,-94.7708"/>
<polygon fill="none" stroke="midnightblue" points="50.4962,-121.02 53.9961,-131.02 57.4962,-121.02 50.4962,-121.02"/>
</g>
<!-- Node3 -->
<g id="node3" class="node"><title>Node3</title>
<g id="a_node3"><a xlink:href="../../d6/db7/interfaceMessage.html" target="_top" xlink:title="基础消息对象 ">
<polygon fill="white" stroke="black" points="16.6846,-342.5 16.6846,-516.5 91.3076,-516.5 91.3076,-342.5 16.6846,-342.5"/>
<text text-anchor="middle" x="53.9961" y="-504.5" font-family="Helvetica,sans-Serif" font-size="10.00">Message</text>
<polyline fill="none" stroke="black" points="16.6846,-498.5 91.3076,-498.5 "/>
<text text-anchor="start" x="24.6846" y="-486.5" font-family="Helvetica,sans-Serif" font-size="10.00">+ value</text>
<text text-anchor="start" x="24.6846" y="-476.5" font-family="Helvetica,sans-Serif" font-size="10.00">+ params</text>
<text text-anchor="start" x="24.6846" y="-466.5" font-family="Helvetica,sans-Serif" font-size="10.00">+ result</text>
<text text-anchor="start" x="24.6846" y="-456.5" font-family="Helvetica,sans-Serif" font-size="10.00">+ body</text>
<text text-anchor="start" x="24.6846" y="-446.5" font-family="Helvetica,sans-Serif" font-size="10.00">+ length</text>
<text text-anchor="start" x="24.6846" y="-436.5" font-family="Helvetica,sans-Serif" font-size="10.00">+ stream</text>
<text text-anchor="start" x="24.6846" y="-426.5" font-family="Helvetica,sans-Serif" font-size="10.00">+ response</text>
<polyline fill="none" stroke="black" points="16.6846,-420.5 91.3076,-420.5 "/>
<text text-anchor="start" x="24.6846" y="-408.5" font-family="Helvetica,sans-Serif" font-size="10.00">+ Message()</text>
<text text-anchor="start" x="24.6846" y="-398.5" font-family="Helvetica,sans-Serif" font-size="10.00">+ read()</text>
<text text-anchor="start" x="24.6846" y="-388.5" font-family="Helvetica,sans-Serif" font-size="10.00">+ readAll()</text>
<text text-anchor="start" x="24.6846" y="-378.5" font-family="Helvetica,sans-Serif" font-size="10.00">+ write()</text>
<text text-anchor="start" x="24.6846" y="-368.5" font-family="Helvetica,sans-Serif" font-size="10.00">+ clear()</text>
<text text-anchor="start" x="24.6846" y="-358.5" font-family="Helvetica,sans-Serif" font-size="10.00">+ sendTo()</text>
<text text-anchor="start" x="24.6846" y="-348.5" font-family="Helvetica,sans-Serif" font-size="10.00">+ readFrom()</text>
</a>
</g>
</g>
<!-- Node3&#45;&gt;Node2 -->
<g id="edge2" class="edge"><title>Node3&#45;&gt;Node2</title>
<path fill="none" stroke="midnightblue" d="M53.9961,-332.261C53.9961,-323.34 53.9961,-314.337 53.9961,-305.517"/>
<polygon fill="none" stroke="midnightblue" points="50.4962,-332.285 53.9961,-342.285 57.4962,-332.285 50.4962,-332.285"/>
</g>
<!-- Node4 -->
<g id="node4" class="node"><title>Node4</title>
<g id="a_node4"><a xlink:href="../../db/d38/interfaceobject.html" target="_top" xlink:title="基础对象，所有对象均继承于此 ">
<polygon fill="white" stroke="black" points="20.8521,-553.5 20.8521,-637.5 87.1401,-637.5 87.1401,-553.5 20.8521,-553.5"/>
<text text-anchor="middle" x="53.9961" y="-625.5" font-family="Helvetica,sans-Serif" font-size="10.00">object</text>
<polyline fill="none" stroke="black" points="20.8521,-619.5 87.1401,-619.5 "/>
<text text-anchor="middle" x="53.9961" y="-607.5" font-family="Helvetica,sans-Serif" font-size="10.00"> </text>
<polyline fill="none" stroke="black" points="20.8521,-601.5 87.1401,-601.5 "/>
<text text-anchor="start" x="28.8521" y="-589.5" font-family="Helvetica,sans-Serif" font-size="10.00">+ dispose()</text>
<text text-anchor="start" x="28.8521" y="-579.5" font-family="Helvetica,sans-Serif" font-size="10.00">+ toString()</text>
<text text-anchor="start" x="28.8521" y="-569.5" font-family="Helvetica,sans-Serif" font-size="10.00">+ toJSON()</text>
<text text-anchor="start" x="28.8521" y="-559.5" font-family="Helvetica,sans-Serif" font-size="10.00">+ valueOf()</text>
</a>
</g>
</g>
<!-- Node4&#45;&gt;Node3 -->
<g id="edge3" class="edge"><title>Node4&#45;&gt;Node3</title>
<path fill="none" stroke="midnightblue" d="M53.9961,-543.097C53.9961,-534.653 53.9961,-525.704 53.9961,-516.687"/>
<polygon fill="none" stroke="midnightblue" points="50.4962,-543.116 53.9961,-553.116 57.4962,-543.116 50.4962,-543.116"/>
</g>
</g>
</svg>
