<?xml version="1.0" encoding="UTF-8" standalone="no"?>
<!DOCTYPE svg PUBLIC "-//W3C//DTD SVG 1.1//EN"
 "http://www.w3.org/Graphics/SVG/1.1/DTD/svg11.dtd">
<!-- Generated by graphviz version 2.40.1 (20161225.0304)
 -->
<!-- Title: SeekableStream Pages: 1 -->
<svg width="186pt" height="516pt"
 viewBox="0.00 0.00 186.46 516.00" xmlns="http://www.w3.org/2000/svg" xmlns:xlink="http://www.w3.org/1999/xlink">
<g id="graph0" class="graph" transform="scale(1 1) rotate(0) translate(4 512)">
<title>SeekableStream</title>
<polygon fill="#ffffff" stroke="transparent" points="-4,4 -4,-512 182.458,-512 182.458,4 -4,4"/>
<!-- Node0 -->
<g id="node1" class="node">
<title>Node0</title>
<polygon fill="#bfbfbf" stroke="#000000" points="34.6812,-121.5 34.6812,-255.5 124.6118,-255.5 124.6118,-121.5 34.6812,-121.5"/>
<text text-anchor="middle" x="79.6465" y="-243.5" font-family="Helvetica,sans-Serif" font-size="10.00" fill="#000000">SeekableStream</text>
<polyline fill="none" stroke="#000000" points="34.6812,-237.5 124.6118,-237.5 "/>
<text text-anchor="middle" x="79.6465" y="-225.5" font-family="Helvetica,sans-Serif" font-size="10.00" fill="#000000"> </text>
<polyline fill="none" stroke="#000000" points="34.6812,-219.5 124.6118,-219.5 "/>
<text text-anchor="start" x="42.6812" y="-207.5" font-family="Helvetica,sans-Serif" font-size="10.00" fill="#000000">+ seek()</text>
<text text-anchor="start" x="42.6812" y="-197.5" font-family="Helvetica,sans-Serif" font-size="10.00" fill="#000000">+ tell()</text>
<text text-anchor="start" x="42.6812" y="-187.5" font-family="Helvetica,sans-Serif" font-size="10.00" fill="#000000">+ rewind()</text>
<text text-anchor="start" x="42.6812" y="-177.5" font-family="Helvetica,sans-Serif" font-size="10.00" fill="#000000">+ size()</text>
<text text-anchor="start" x="42.6812" y="-167.5" font-family="Helvetica,sans-Serif" font-size="10.00" fill="#000000">+ readAll()</text>
<text text-anchor="start" x="42.6812" y="-157.5" font-family="Helvetica,sans-Serif" font-size="10.00" fill="#000000">+ truncate()</text>
<text text-anchor="start" x="42.6812" y="-147.5" font-family="Helvetica,sans-Serif" font-size="10.00" fill="#000000">+ eof()</text>
<text text-anchor="start" x="42.6812" y="-137.5" font-family="Helvetica,sans-Serif" font-size="10.00" fill="#000000">+ flush()</text>
<text text-anchor="start" x="42.6812" y="-127.5" font-family="Helvetica,sans-Serif" font-size="10.00" fill="#000000">+ stat()</text>
</g>
<!-- Node3 -->
<g id="node4" class="node">
<title>Node3</title>
<g id="a_node4"><a xlink:href="../../d3/d3a/interfaceFile.html" target="_top" xlink:title="文件操作对象，用于二进制文件读写 ">
<polygon fill="#ffffff" stroke="#000000" points="0,-15.5 0,-69.5 61.293,-69.5 61.293,-15.5 0,-15.5"/>
<text text-anchor="middle" x="30.6465" y="-57.5" font-family="Helvetica,sans-Serif" font-size="10.00" fill="#000000">File</text>
<polyline fill="none" stroke="#000000" points="0,-51.5 61.293,-51.5 "/>
<text text-anchor="start" x="8" y="-39.5" font-family="Helvetica,sans-Serif" font-size="10.00" fill="#000000">+ name</text>
<polyline fill="none" stroke="#000000" points="0,-33.5 61.293,-33.5 "/>
<text text-anchor="start" x="8" y="-21.5" font-family="Helvetica,sans-Serif" font-size="10.00" fill="#000000">+ chmod()</text>
</a>
</g>
</g>
<!-- Node0&#45;&gt;Node3 -->
<g id="edge3" class="edge">
<title>Node0&#45;&gt;Node3</title>
<path fill="none" stroke="#191970" d="M53.8377,-111.6004C48.7933,-96.5702 43.8232,-81.7611 39.7858,-69.7314"/>
<polygon fill="none" stroke="#191970" points="50.6543,-113.1156 57.1542,-121.4823 57.2905,-110.8884 50.6543,-113.1156"/>
</g>
<!-- Node4 -->
<g id="node5" class="node">
<title>Node4</title>
<g id="a_node5"><a xlink:href="../../d2/d93/interfaceMemoryStream.html" target="_top" xlink:title="内存流对象 ">
<polygon fill="#ffffff" stroke="#000000" points="78.835,-.5 78.835,-84.5 178.458,-84.5 178.458,-.5 78.835,-.5"/>
<text text-anchor="middle" x="128.6465" y="-72.5" font-family="Helvetica,sans-Serif" font-size="10.00" fill="#000000">MemoryStream</text>
<polyline fill="none" stroke="#000000" points="78.835,-66.5 178.458,-66.5 "/>
<text text-anchor="middle" x="128.6465" y="-54.5" font-family="Helvetica,sans-Serif" font-size="10.00" fill="#000000"> </text>
<polyline fill="none" stroke="#000000" points="78.835,-48.5 178.458,-48.5 "/>
<text text-anchor="start" x="86.835" y="-36.5" font-family="Helvetica,sans-Serif" font-size="10.00" fill="#000000">+ MemoryStream()</text>
<text text-anchor="start" x="86.835" y="-26.5" font-family="Helvetica,sans-Serif" font-size="10.00" fill="#000000">+ setTime()</text>
<text text-anchor="start" x="86.835" y="-16.5" font-family="Helvetica,sans-Serif" font-size="10.00" fill="#000000">+ clone()</text>
<text text-anchor="start" x="86.835" y="-6.5" font-family="Helvetica,sans-Serif" font-size="10.00" fill="#000000">+ clear()</text>
</a>
</g>
</g>
<!-- Node0&#45;&gt;Node4 -->
<g id="edge4" class="edge">
<title>Node0&#45;&gt;Node4</title>
<path fill="none" stroke="#191970" d="M105.3761,-111.8363C108.4815,-102.5833 111.5606,-93.409 114.413,-84.91"/>
<polygon fill="none" stroke="#191970" points="102.0024,-110.8884 102.1387,-121.4823 108.6387,-113.1156 102.0024,-110.8884"/>
</g>
<!-- Node1 -->
<g id="node2" class="node">
<title>Node1</title>
<g id="a_node2"><a xlink:href="../../d4/dc7/interfaceStream.html" target="_top" xlink:title="流操作对象，用于二进制数据流读写 ">
<polygon fill="#ffffff" stroke="#000000" points="48.165,-292.5 48.165,-376.5 111.1279,-376.5 111.1279,-292.5 48.165,-292.5"/>
<text text-anchor="middle" x="79.6465" y="-364.5" font-family="Helvetica,sans-Serif" font-size="10.00" fill="#000000">Stream</text>
<polyline fill="none" stroke="#000000" points="48.165,-358.5 111.1279,-358.5 "/>
<text text-anchor="middle" x="79.6465" y="-346.5" font-family="Helvetica,sans-Serif" font-size="10.00" fill="#000000"> </text>
<polyline fill="none" stroke="#000000" points="48.165,-340.5 111.1279,-340.5 "/>
<text text-anchor="start" x="56.165" y="-328.5" font-family="Helvetica,sans-Serif" font-size="10.00" fill="#000000">+ read()</text>
<text text-anchor="start" x="56.165" y="-318.5" font-family="Helvetica,sans-Serif" font-size="10.00" fill="#000000">+ write()</text>
<text text-anchor="start" x="56.165" y="-308.5" font-family="Helvetica,sans-Serif" font-size="10.00" fill="#000000">+ close()</text>
<text text-anchor="start" x="56.165" y="-298.5" font-family="Helvetica,sans-Serif" font-size="10.00" fill="#000000">+ copyTo()</text>
</a>
</g>
</g>
<!-- Node1&#45;&gt;Node0 -->
<g id="edge1" class="edge">
<title>Node1&#45;&gt;Node0</title>
<path fill="none" stroke="#191970" d="M79.6465,-282.0637C79.6465,-273.4995 79.6465,-264.5242 79.6465,-255.6643"/>
<polygon fill="none" stroke="#191970" points="76.1466,-282.2707 79.6465,-292.2708 83.1466,-282.2708 76.1466,-282.2707"/>
</g>
<!-- Node2 -->
<g id="node3" class="node">
<title>Node2</title>
<g id="a_node3"><a xlink:href="../../db/d38/interfaceobject.html" target="_top" xlink:title="基础对象，所有对象均继承于此 ">
<polygon fill="#ffffff" stroke="#000000" points="46.5024,-413.5 46.5024,-507.5 112.7905,-507.5 112.7905,-413.5 46.5024,-413.5"/>
<text text-anchor="middle" x="79.6465" y="-495.5" font-family="Helvetica,sans-Serif" font-size="10.00" fill="#000000">object</text>
<polyline fill="none" stroke="#000000" points="46.5024,-489.5 112.7905,-489.5 "/>
<text text-anchor="middle" x="79.6465" y="-477.5" font-family="Helvetica,sans-Serif" font-size="10.00" fill="#000000"> </text>
<polyline fill="none" stroke="#000000" points="46.5024,-471.5 112.7905,-471.5 "/>
<text text-anchor="start" x="54.5024" y="-459.5" font-family="Helvetica,sans-Serif" font-size="10.00" fill="#000000">+ dispose()</text>
<text text-anchor="start" x="54.5024" y="-449.5" font-family="Helvetica,sans-Serif" font-size="10.00" fill="#000000">+ equals()</text>
<text text-anchor="start" x="54.5024" y="-439.5" font-family="Helvetica,sans-Serif" font-size="10.00" fill="#000000">+ toString()</text>
<text text-anchor="start" x="54.5024" y="-429.5" font-family="Helvetica,sans-Serif" font-size="10.00" fill="#000000">+ toJSON()</text>
<text text-anchor="start" x="54.5024" y="-419.5" font-family="Helvetica,sans-Serif" font-size="10.00" fill="#000000">+ valueOf()</text>
</a>
</g>
</g>
<!-- Node2&#45;&gt;Node1 -->
<g id="edge2" class="edge">
<title>Node2&#45;&gt;Node1</title>
<path fill="none" stroke="#191970" d="M79.6465,-402.9387C79.6465,-394.0848 79.6465,-385.0866 79.6465,-376.6505"/>
<polygon fill="none" stroke="#191970" points="76.1466,-403.2237 79.6465,-413.2238 83.1466,-403.2238 76.1466,-403.2237"/>
</g>
</g>
</svg>
