<?xml version="1.0" encoding="UTF-8" standalone="no"?>
<!DOCTYPE svg PUBLIC "-//W3C//DTD SVG 1.1//EN"
 "http://www.w3.org/Graphics/SVG/1.1/DTD/svg11.dtd">
<!-- Generated by graphviz version 2.40.1 (20161225.0304)
 -->
<!-- Title: SeekableStream Pages: 1 -->
<svg width="194pt" height="486pt"
 viewBox="0.00 0.00 193.52 486.00" xmlns="http://www.w3.org/2000/svg" xmlns:xlink="http://www.w3.org/1999/xlink">
<g id="graph0" class="graph" transform="scale(1 1) rotate(0) translate(4 482)">
<title>SeekableStream</title>
<polygon fill="#ffffff" stroke="transparent" points="-4,4 -4,-482 189.5171,-482 189.5171,4 -4,4"/>
<!-- Node0 -->
<g id="node1" class="node">
<title>Node0</title>
<polygon fill="#bfbfbf" stroke="#000000" points="39.7402,-121.5 39.7402,-225.5 129.6709,-225.5 129.6709,-121.5 39.7402,-121.5"/>
<text text-anchor="middle" x="84.7056" y="-213.5" font-family="Helvetica,sans-Serif" font-size="10.00" fill="#000000">SeekableStream</text>
<polyline fill="none" stroke="#000000" points="39.7402,-207.5 129.6709,-207.5 "/>
<text text-anchor="middle" x="84.7056" y="-195.5" font-family="Helvetica,sans-Serif" font-size="10.00" fill="#000000"> </text>
<polyline fill="none" stroke="#000000" points="39.7402,-189.5 129.6709,-189.5 "/>
<text text-anchor="start" x="47.7402" y="-177.5" font-family="Helvetica,sans-Serif" font-size="10.00" fill="#000000">+ seek()</text>
<text text-anchor="start" x="47.7402" y="-167.5" font-family="Helvetica,sans-Serif" font-size="10.00" fill="#000000">+ tell()</text>
<text text-anchor="start" x="47.7402" y="-157.5" font-family="Helvetica,sans-Serif" font-size="10.00" fill="#000000">+ rewind()</text>
<text text-anchor="start" x="47.7402" y="-147.5" font-family="Helvetica,sans-Serif" font-size="10.00" fill="#000000">+ size()</text>
<text text-anchor="start" x="47.7402" y="-137.5" font-family="Helvetica,sans-Serif" font-size="10.00" fill="#000000">+ readAll()</text>
<text text-anchor="start" x="47.7402" y="-127.5" font-family="Helvetica,sans-Serif" font-size="10.00" fill="#000000">+ stat()</text>
</g>
<!-- Node3 -->
<g id="node4" class="node">
<title>Node3</title>
<g id="a_node4"><a xlink:href="../../d3/d3a/interfaceFile.html" target="_top" xlink:title="文件操作对象，用于二进制文件读写 ">
<polygon fill="#ffffff" stroke="#000000" points="0,-.5 0,-84.5 67.4111,-84.5 67.4111,-.5 0,-.5"/>
<text text-anchor="middle" x="33.7056" y="-72.5" font-family="Helvetica,sans-Serif" font-size="10.00" fill="#000000">File</text>
<polyline fill="none" stroke="#000000" points="0,-66.5 67.4111,-66.5 "/>
<text text-anchor="start" x="8" y="-54.5" font-family="Helvetica,sans-Serif" font-size="10.00" fill="#000000">+ name</text>
<polyline fill="none" stroke="#000000" points="0,-48.5 67.4111,-48.5 "/>
<text text-anchor="start" x="8" y="-36.5" font-family="Helvetica,sans-Serif" font-size="10.00" fill="#000000">+ truncate()</text>
<text text-anchor="start" x="8" y="-26.5" font-family="Helvetica,sans-Serif" font-size="10.00" fill="#000000">+ eof()</text>
<text text-anchor="start" x="8" y="-16.5" font-family="Helvetica,sans-Serif" font-size="10.00" fill="#000000">+ flush()</text>
<text text-anchor="start" x="8" y="-6.5" font-family="Helvetica,sans-Serif" font-size="10.00" fill="#000000">+ chmod()</text>
</a>
</g>
</g>
<!-- Node0&#45;&gt;Node3 -->
<g id="edge3" class="edge">
<title>Node0&#45;&gt;Node3</title>
<path fill="none" stroke="#191970" d="M60.7124,-111.8704C57.1464,-102.7107 53.5409,-93.4497 50.1763,-84.8072"/>
<polygon fill="none" stroke="#191970" points="57.513,-113.3 64.4025,-121.3489 64.0361,-110.7604 57.513,-113.3"/>
</g>
<!-- Node4 -->
<g id="node5" class="node">
<title>Node4</title>
<g id="a_node5"><a xlink:href="../../d2/d93/interfaceMemoryStream.html" target="_top" xlink:title="内存流对象 ">
<polygon fill="#ffffff" stroke="#000000" points="85.894,-.5 85.894,-84.5 185.5171,-84.5 185.5171,-.5 85.894,-.5"/>
<text text-anchor="middle" x="135.7056" y="-72.5" font-family="Helvetica,sans-Serif" font-size="10.00" fill="#000000">MemoryStream</text>
<polyline fill="none" stroke="#000000" points="85.894,-66.5 185.5171,-66.5 "/>
<text text-anchor="middle" x="135.7056" y="-54.5" font-family="Helvetica,sans-Serif" font-size="10.00" fill="#000000"> </text>
<polyline fill="none" stroke="#000000" points="85.894,-48.5 185.5171,-48.5 "/>
<text text-anchor="start" x="93.894" y="-36.5" font-family="Helvetica,sans-Serif" font-size="10.00" fill="#000000">+ MemoryStream()</text>
<text text-anchor="start" x="93.894" y="-26.5" font-family="Helvetica,sans-Serif" font-size="10.00" fill="#000000">+ setTime()</text>
<text text-anchor="start" x="93.894" y="-16.5" font-family="Helvetica,sans-Serif" font-size="10.00" fill="#000000">+ clone()</text>
<text text-anchor="start" x="93.894" y="-6.5" font-family="Helvetica,sans-Serif" font-size="10.00" fill="#000000">+ clear()</text>
</a>
</g>
</g>
<!-- Node0&#45;&gt;Node4 -->
<g id="edge4" class="edge">
<title>Node0&#45;&gt;Node4</title>
<path fill="none" stroke="#191970" d="M108.6988,-111.8704C112.2648,-102.7107 115.8702,-93.4497 119.2348,-84.8072"/>
<polygon fill="none" stroke="#191970" points="105.3751,-110.7604 105.0087,-121.3489 111.8982,-113.3 105.3751,-110.7604"/>
</g>
<!-- Node1 -->
<g id="node2" class="node">
<title>Node1</title>
<g id="a_node2"><a xlink:href="../../d4/dc7/interfaceStream.html" target="_top" xlink:title="流操作对象，用于二进制数据流读写 ">
<polygon fill="#ffffff" stroke="#000000" points="53.2241,-262.5 53.2241,-346.5 116.187,-346.5 116.187,-262.5 53.2241,-262.5"/>
<text text-anchor="middle" x="84.7056" y="-334.5" font-family="Helvetica,sans-Serif" font-size="10.00" fill="#000000">Stream</text>
<polyline fill="none" stroke="#000000" points="53.2241,-328.5 116.187,-328.5 "/>
<text text-anchor="middle" x="84.7056" y="-316.5" font-family="Helvetica,sans-Serif" font-size="10.00" fill="#000000"> </text>
<polyline fill="none" stroke="#000000" points="53.2241,-310.5 116.187,-310.5 "/>
<text text-anchor="start" x="61.2241" y="-298.5" font-family="Helvetica,sans-Serif" font-size="10.00" fill="#000000">+ read()</text>
<text text-anchor="start" x="61.2241" y="-288.5" font-family="Helvetica,sans-Serif" font-size="10.00" fill="#000000">+ write()</text>
<text text-anchor="start" x="61.2241" y="-278.5" font-family="Helvetica,sans-Serif" font-size="10.00" fill="#000000">+ close()</text>
<text text-anchor="start" x="61.2241" y="-268.5" font-family="Helvetica,sans-Serif" font-size="10.00" fill="#000000">+ copyTo()</text>
</a>
</g>
</g>
<!-- Node1&#45;&gt;Node0 -->
<g id="edge1" class="edge">
<title>Node1&#45;&gt;Node0</title>
<path fill="none" stroke="#191970" d="M84.7056,-252.2546C84.7056,-243.5097 84.7056,-234.4358 84.7056,-225.6923"/>
<polygon fill="none" stroke="#191970" points="81.2057,-252.3297 84.7056,-262.3297 88.2057,-252.3297 81.2057,-252.3297"/>
</g>
<!-- Node2 -->
<g id="node3" class="node">
<title>Node2</title>
<g id="a_node3"><a xlink:href="../../db/d38/interfaceobject.html" target="_top" xlink:title="基础对象，所有对象均继承于此 ">
<polygon fill="#ffffff" stroke="#000000" points="51.5615,-383.5 51.5615,-477.5 117.8496,-477.5 117.8496,-383.5 51.5615,-383.5"/>
<text text-anchor="middle" x="84.7056" y="-465.5" font-family="Helvetica,sans-Serif" font-size="10.00" fill="#000000">object</text>
<polyline fill="none" stroke="#000000" points="51.5615,-459.5 117.8496,-459.5 "/>
<text text-anchor="middle" x="84.7056" y="-447.5" font-family="Helvetica,sans-Serif" font-size="10.00" fill="#000000"> </text>
<polyline fill="none" stroke="#000000" points="51.5615,-441.5 117.8496,-441.5 "/>
<text text-anchor="start" x="59.5615" y="-429.5" font-family="Helvetica,sans-Serif" font-size="10.00" fill="#000000">+ dispose()</text>
<text text-anchor="start" x="59.5615" y="-419.5" font-family="Helvetica,sans-Serif" font-size="10.00" fill="#000000">+ equals()</text>
<text text-anchor="start" x="59.5615" y="-409.5" font-family="Helvetica,sans-Serif" font-size="10.00" fill="#000000">+ toString()</text>
<text text-anchor="start" x="59.5615" y="-399.5" font-family="Helvetica,sans-Serif" font-size="10.00" fill="#000000">+ toJSON()</text>
<text text-anchor="start" x="59.5615" y="-389.5" font-family="Helvetica,sans-Serif" font-size="10.00" fill="#000000">+ valueOf()</text>
</a>
</g>
</g>
<!-- Node2&#45;&gt;Node1 -->
<g id="edge2" class="edge">
<title>Node2&#45;&gt;Node1</title>
<path fill="none" stroke="#191970" d="M84.7056,-372.9387C84.7056,-364.0848 84.7056,-355.0866 84.7056,-346.6505"/>
<polygon fill="none" stroke="#191970" points="81.2057,-373.2237 84.7056,-383.2238 88.2057,-373.2238 81.2057,-373.2237"/>
</g>
</g>
</svg>
