<?xml version="1.0" encoding="UTF-8" standalone="no"?>
<!DOCTYPE svg PUBLIC "-//W3C//DTD SVG 1.1//EN"
 "http://www.w3.org/Graphics/SVG/1.1/DTD/svg11.dtd">
<!-- Generated by graphviz version 2.40.1 (20161225.0304)
 -->
<!-- Title: MSSQL Pages: 1 -->
<svg width="87pt" height="345pt"
 viewBox="0.00 0.00 87.37 345.00" xmlns="http://www.w3.org/2000/svg" xmlns:xlink="http://www.w3.org/1999/xlink">
<g id="graph0" class="graph" transform="scale(1 1) rotate(0) translate(4 341)">
<title>MSSQL</title>
<polygon fill="#ffffff" stroke="transparent" points="-4,4 -4,-341 83.374,-341 83.374,4 -4,4"/>
<!-- Node0 -->
<g id="node1" class="node">
<title>Node0</title>
<polygon fill="#bfbfbf" stroke="#000000" points="14.1821,-.5 14.1821,-54.5 65.1919,-54.5 65.1919,-.5 14.1821,-.5"/>
<text text-anchor="middle" x="39.687" y="-42.5" font-family="Helvetica,sans-Serif" font-size="10.00" fill="#000000">MSSQL</text>
<polyline fill="none" stroke="#000000" points="14.1821,-36.5 65.1919,-36.5 "/>
<text text-anchor="middle" x="39.687" y="-24.5" font-family="Helvetica,sans-Serif" font-size="10.00" fill="#000000"> </text>
<polyline fill="none" stroke="#000000" points="14.1821,-18.5 65.1919,-18.5 "/>
<text text-anchor="start" x="22.1821" y="-6.5" font-family="Helvetica,sans-Serif" font-size="10.00" fill="#000000">+ use()</text>
</g>
<!-- Node1 -->
<g id="node2" class="node">
<title>Node1</title>
<g id="a_node2"><a xlink:href="../../d8/d2c/interfaceDbConnection.html" target="_top" xlink:title="数据库连接对象，用于建立和维护一个数据库连接会话。 ">
<polygon fill="#ffffff" stroke="#000000" points="0,-91.5 0,-205.5 79.374,-205.5 79.374,-91.5 0,-91.5"/>
<text text-anchor="middle" x="39.687" y="-193.5" font-family="Helvetica,sans-Serif" font-size="10.00" fill="#000000">DbConnection</text>
<polyline fill="none" stroke="#000000" points="0,-187.5 79.374,-187.5 "/>
<text text-anchor="start" x="8" y="-175.5" font-family="Helvetica,sans-Serif" font-size="10.00" fill="#000000">+ type</text>
<polyline fill="none" stroke="#000000" points="0,-169.5 79.374,-169.5 "/>
<text text-anchor="start" x="8" y="-157.5" font-family="Helvetica,sans-Serif" font-size="10.00" fill="#000000">+ close()</text>
<text text-anchor="start" x="8" y="-147.5" font-family="Helvetica,sans-Serif" font-size="10.00" fill="#000000">+ begin()</text>
<text text-anchor="start" x="8" y="-137.5" font-family="Helvetica,sans-Serif" font-size="10.00" fill="#000000">+ commit()</text>
<text text-anchor="start" x="8" y="-127.5" font-family="Helvetica,sans-Serif" font-size="10.00" fill="#000000">+ rollback()</text>
<text text-anchor="start" x="8" y="-117.5" font-family="Helvetica,sans-Serif" font-size="10.00" fill="#000000">+ execute()</text>
<text text-anchor="start" x="8" y="-107.5" font-family="Helvetica,sans-Serif" font-size="10.00" fill="#000000">+ execute()</text>
<text text-anchor="start" x="8" y="-97.5" font-family="Helvetica,sans-Serif" font-size="10.00" fill="#000000">+ format()</text>
</a>
</g>
</g>
<!-- Node1&#45;&gt;Node0 -->
<g id="edge1" class="edge">
<title>Node1&#45;&gt;Node0</title>
<path fill="none" stroke="#191970" d="M39.687,-81.0669C39.687,-71.7796 39.687,-62.7131 39.687,-54.7585"/>
<polygon fill="none" stroke="#191970" points="36.1871,-81.1891 39.687,-91.1891 43.1871,-81.1891 36.1871,-81.1891"/>
</g>
<!-- Node2 -->
<g id="node3" class="node">
<title>Node2</title>
<g id="a_node3"><a xlink:href="../../db/d38/interfaceobject.html" target="_top" xlink:title="基础对象，所有对象均继承于此 ">
<polygon fill="#ffffff" stroke="#000000" points="6.543,-242.5 6.543,-336.5 72.8311,-336.5 72.8311,-242.5 6.543,-242.5"/>
<text text-anchor="middle" x="39.687" y="-324.5" font-family="Helvetica,sans-Serif" font-size="10.00" fill="#000000">object</text>
<polyline fill="none" stroke="#000000" points="6.543,-318.5 72.8311,-318.5 "/>
<text text-anchor="middle" x="39.687" y="-306.5" font-family="Helvetica,sans-Serif" font-size="10.00" fill="#000000"> </text>
<polyline fill="none" stroke="#000000" points="6.543,-300.5 72.8311,-300.5 "/>
<text text-anchor="start" x="14.543" y="-288.5" font-family="Helvetica,sans-Serif" font-size="10.00" fill="#000000">+ dispose()</text>
<text text-anchor="start" x="14.543" y="-278.5" font-family="Helvetica,sans-Serif" font-size="10.00" fill="#000000">+ equals()</text>
<text text-anchor="start" x="14.543" y="-268.5" font-family="Helvetica,sans-Serif" font-size="10.00" fill="#000000">+ toString()</text>
<text text-anchor="start" x="14.543" y="-258.5" font-family="Helvetica,sans-Serif" font-size="10.00" fill="#000000">+ toJSON()</text>
<text text-anchor="start" x="14.543" y="-248.5" font-family="Helvetica,sans-Serif" font-size="10.00" fill="#000000">+ valueOf()</text>
</a>
</g>
</g>
<!-- Node2&#45;&gt;Node1 -->
<g id="edge2" class="edge">
<title>Node2&#45;&gt;Node1</title>
<path fill="none" stroke="#191970" d="M39.687,-232.1082C39.687,-223.412 39.687,-214.44 39.687,-205.7469"/>
<polygon fill="none" stroke="#191970" points="36.1871,-232.1568 39.687,-242.1568 43.1871,-232.1568 36.1871,-232.1568"/>
</g>
</g>
</svg>
