<?xml version="1.0" encoding="UTF-8" standalone="no"?>
<!DOCTYPE svg PUBLIC "-//W3C//DTD SVG 1.1//EN"
 "http://www.w3.org/Graphics/SVG/1.1/DTD/svg11.dtd">
<!-- Generated by graphviz version 2.38.0 (20140413.2041)
 -->
<!-- Title: MSSQL Pages: 1 -->
<svg width="87pt" height="345pt"
 viewBox="0.00 0.00 87.37 345.00" xmlns="http://www.w3.org/2000/svg" xmlns:xlink="http://www.w3.org/1999/xlink">
<g id="graph0" class="graph" transform="scale(1 1) rotate(0) translate(4 341)">
<title>MSSQL</title>
<polygon fill="white" stroke="none" points="-4,4 -4,-341 83.374,-341 83.374,4 -4,4"/>
<!-- Node1 -->
<g id="node1" class="node"><title>Node1</title>
<polygon fill="#bfbfbf" stroke="black" points="14.1821,-0.5 14.1821,-54.5 65.1919,-54.5 65.1919,-0.5 14.1821,-0.5"/>
<text text-anchor="middle" x="39.687" y="-42.5" font-family="Helvetica,sans-Serif" font-size="10.00">MSSQL</text>
<polyline fill="none" stroke="black" points="14.1821,-36.5 65.1919,-36.5 "/>
<text text-anchor="middle" x="39.687" y="-24.5" font-family="Helvetica,sans-Serif" font-size="10.00"> </text>
<polyline fill="none" stroke="black" points="14.1821,-18.5 65.1919,-18.5 "/>
<text text-anchor="start" x="22.1821" y="-6.5" font-family="Helvetica,sans-Serif" font-size="10.00">+ use()</text>
</g>
<!-- Node2 -->
<g id="node2" class="node"><title>Node2</title>
<g id="a_node2"><a xlink:href="../../d8/d2c/interfaceDbConnection.html" target="_top" xlink:title="数据库连接对象，用于建立和维护一个数据库连接会话。 ">
<polygon fill="white" stroke="black" points="0,-91.5 0,-205.5 79.374,-205.5 79.374,-91.5 0,-91.5"/>
<text text-anchor="middle" x="39.687" y="-193.5" font-family="Helvetica,sans-Serif" font-size="10.00">DbConnection</text>
<polyline fill="none" stroke="black" points="0,-187.5 79.374,-187.5 "/>
<text text-anchor="middle" x="39.687" y="-175.5" font-family="Helvetica,sans-Serif" font-size="10.00"> </text>
<polyline fill="none" stroke="black" points="0,-169.5 79.374,-169.5 "/>
<text text-anchor="start" x="8" y="-157.5" font-family="Helvetica,sans-Serif" font-size="10.00">+ close()</text>
<text text-anchor="start" x="8" y="-147.5" font-family="Helvetica,sans-Serif" font-size="10.00">+ begin()</text>
<text text-anchor="start" x="8" y="-137.5" font-family="Helvetica,sans-Serif" font-size="10.00">+ commit()</text>
<text text-anchor="start" x="8" y="-127.5" font-family="Helvetica,sans-Serif" font-size="10.00">+ rollback()</text>
<text text-anchor="start" x="8" y="-117.5" font-family="Helvetica,sans-Serif" font-size="10.00">+ execute()</text>
<text text-anchor="start" x="8" y="-107.5" font-family="Helvetica,sans-Serif" font-size="10.00">+ execute()</text>
<text text-anchor="start" x="8" y="-97.5" font-family="Helvetica,sans-Serif" font-size="10.00">+ format()</text>
</a>
</g>
</g>
<!-- Node2&#45;&gt;Node1 -->
<g id="edge1" class="edge"><title>Node2&#45;&gt;Node1</title>
<path fill="none" stroke="midnightblue" d="M39.687,-81.2037C39.687,-71.7706 39.687,-62.5684 39.687,-54.5622"/>
<polygon fill="none" stroke="midnightblue" points="36.1871,-81.4845 39.687,-91.4846 43.1871,-81.4846 36.1871,-81.4845"/>
</g>
<!-- Node3 -->
<g id="node3" class="node"><title>Node3</title>
<g id="a_node3"><a xlink:href="../../db/d38/interfaceobject.html" target="_top" xlink:title="基础对象，所有对象均继承于此 ">
<polygon fill="white" stroke="black" points="6.54297,-242.5 6.54297,-336.5 72.8311,-336.5 72.8311,-242.5 6.54297,-242.5"/>
<text text-anchor="middle" x="39.687" y="-324.5" font-family="Helvetica,sans-Serif" font-size="10.00">object</text>
<polyline fill="none" stroke="black" points="6.54297,-318.5 72.8311,-318.5 "/>
<text text-anchor="middle" x="39.687" y="-306.5" font-family="Helvetica,sans-Serif" font-size="10.00"> </text>
<polyline fill="none" stroke="black" points="6.54297,-300.5 72.8311,-300.5 "/>
<text text-anchor="start" x="14.543" y="-288.5" font-family="Helvetica,sans-Serif" font-size="10.00">+ dispose()</text>
<text text-anchor="start" x="14.543" y="-278.5" font-family="Helvetica,sans-Serif" font-size="10.00">+ equals()</text>
<text text-anchor="start" x="14.543" y="-268.5" font-family="Helvetica,sans-Serif" font-size="10.00">+ toString()</text>
<text text-anchor="start" x="14.543" y="-258.5" font-family="Helvetica,sans-Serif" font-size="10.00">+ toJSON()</text>
<text text-anchor="start" x="14.543" y="-248.5" font-family="Helvetica,sans-Serif" font-size="10.00">+ valueOf()</text>
</a>
</g>
</g>
<!-- Node3&#45;&gt;Node2 -->
<g id="edge2" class="edge"><title>Node3&#45;&gt;Node2</title>
<path fill="none" stroke="midnightblue" d="M39.687,-232.153C39.687,-223.44 39.687,-214.44 39.687,-205.73"/>
<polygon fill="none" stroke="midnightblue" points="36.1871,-232.215 39.687,-242.215 43.1871,-232.215 36.1871,-232.215"/>
</g>
</g>
</svg>
