<?xml version="1.0" encoding="UTF-8" standalone="no"?>
<!DOCTYPE svg PUBLIC "-//W3C//DTD SVG 1.1//EN"
 "http://www.w3.org/Graphics/SVG/1.1/DTD/svg11.dtd">
<!-- Generated by graphviz version 2.38.0 (20140413.2041)
 -->
<!-- Title: WebView Pages: 1 -->
<svg width="74pt" height="375pt"
 viewBox="0.00 0.00 74.29 375.00" xmlns="http://www.w3.org/2000/svg" xmlns:xlink="http://www.w3.org/1999/xlink">
<g id="graph0" class="graph" transform="scale(1 1) rotate(0) translate(4 371)">
<title>WebView</title>
<polygon fill="white" stroke="none" points="-4,4 -4,-371 70.2881,-371 70.2881,4 -4,4"/>
<!-- Node1 -->
<g id="node1" class="node"><title>Node1</title>
<polygon fill="#bfbfbf" stroke="black" points="0.270996,-0.5 0.270996,-64.5 66.0171,-64.5 66.0171,-0.5 0.270996,-0.5"/>
<text text-anchor="middle" x="33.144" y="-52.5" font-family="Helvetica,sans-Serif" font-size="10.00">WebView</text>
<polyline fill="none" stroke="black" points="0.270996,-46.5 66.0171,-46.5 "/>
<text text-anchor="middle" x="33.144" y="-34.5" font-family="Helvetica,sans-Serif" font-size="10.00"> </text>
<polyline fill="none" stroke="black" points="0.270996,-28.5 66.0171,-28.5 "/>
<text text-anchor="start" x="8.271" y="-16.5" font-family="Helvetica,sans-Serif" font-size="10.00">+ close()</text>
<text text-anchor="start" x="8.271" y="-6.5" font-family="Helvetica,sans-Serif" font-size="10.00">+ onclose()</text>
</g>
<!-- Node2 -->
<g id="node2" class="node"><title>Node2</title>
<g id="a_node2"><a xlink:href="../../d6/df7/interfaceTrigger.html" target="_top" xlink:title="事件触发对象，可用于建立观察者模式，支持事件触发的对象均继承于此，同一事件的同一函数只会产生一次回调 ...">
<polygon fill="white" stroke="black" points="1.93848,-101.5 1.93848,-235.5 64.3496,-235.5 64.3496,-101.5 1.93848,-101.5"/>
<text text-anchor="middle" x="33.144" y="-223.5" font-family="Helvetica,sans-Serif" font-size="10.00">Trigger</text>
<polyline fill="none" stroke="black" points="1.93848,-217.5 64.3496,-217.5 "/>
<text text-anchor="middle" x="33.144" y="-205.5" font-family="Helvetica,sans-Serif" font-size="10.00"> </text>
<polyline fill="none" stroke="black" points="1.93848,-199.5 64.3496,-199.5 "/>
<text text-anchor="start" x="9.93848" y="-187.5" font-family="Helvetica,sans-Serif" font-size="10.00">+ Trigger()</text>
<text text-anchor="start" x="9.93848" y="-177.5" font-family="Helvetica,sans-Serif" font-size="10.00">+ on()</text>
<text text-anchor="start" x="9.93848" y="-167.5" font-family="Helvetica,sans-Serif" font-size="10.00">+ on()</text>
<text text-anchor="start" x="9.93848" y="-157.5" font-family="Helvetica,sans-Serif" font-size="10.00">+ once()</text>
<text text-anchor="start" x="9.93848" y="-147.5" font-family="Helvetica,sans-Serif" font-size="10.00">+ once()</text>
<text text-anchor="start" x="9.93848" y="-137.5" font-family="Helvetica,sans-Serif" font-size="10.00">+ off()</text>
<text text-anchor="start" x="9.93848" y="-127.5" font-family="Helvetica,sans-Serif" font-size="10.00">+ off()</text>
<text text-anchor="start" x="9.93848" y="-117.5" font-family="Helvetica,sans-Serif" font-size="10.00">+ off()</text>
<text text-anchor="start" x="9.93848" y="-107.5" font-family="Helvetica,sans-Serif" font-size="10.00">+ trigger()</text>
</a>
</g>
</g>
<!-- Node2&#45;&gt;Node1 -->
<g id="edge1" class="edge"><title>Node2&#45;&gt;Node1</title>
<path fill="none" stroke="midnightblue" d="M33.144,-91.1186C33.144,-81.8064 33.144,-72.7409 33.144,-64.6608"/>
<polygon fill="none" stroke="midnightblue" points="29.6441,-91.2851 33.144,-101.285 36.6441,-91.2852 29.6441,-91.2851"/>
</g>
<!-- Node3 -->
<g id="node3" class="node"><title>Node3</title>
<g id="a_node3"><a xlink:href="../../db/d38/interfaceobject.html" target="_top" xlink:title="基础对象，所有对象均继承于此 ">
<polygon fill="white" stroke="black" points="0,-272.5 0,-366.5 66.2881,-366.5 66.2881,-272.5 0,-272.5"/>
<text text-anchor="middle" x="33.144" y="-354.5" font-family="Helvetica,sans-Serif" font-size="10.00">object</text>
<polyline fill="none" stroke="black" points="0,-348.5 66.2881,-348.5 "/>
<text text-anchor="middle" x="33.144" y="-336.5" font-family="Helvetica,sans-Serif" font-size="10.00"> </text>
<polyline fill="none" stroke="black" points="0,-330.5 66.2881,-330.5 "/>
<text text-anchor="start" x="8" y="-318.5" font-family="Helvetica,sans-Serif" font-size="10.00">+ dispose()</text>
<text text-anchor="start" x="8" y="-308.5" font-family="Helvetica,sans-Serif" font-size="10.00">+ equals()</text>
<text text-anchor="start" x="8" y="-298.5" font-family="Helvetica,sans-Serif" font-size="10.00">+ toString()</text>
<text text-anchor="start" x="8" y="-288.5" font-family="Helvetica,sans-Serif" font-size="10.00">+ toJSON()</text>
<text text-anchor="start" x="8" y="-278.5" font-family="Helvetica,sans-Serif" font-size="10.00">+ valueOf()</text>
</a>
</g>
</g>
<!-- Node3&#45;&gt;Node2 -->
<g id="edge2" class="edge"><title>Node3&#45;&gt;Node2</title>
<path fill="none" stroke="midnightblue" d="M33.144,-261.939C33.144,-253.387 33.144,-244.499 33.144,-235.764"/>
<polygon fill="none" stroke="midnightblue" points="29.6441,-262.172 33.144,-272.172 36.6441,-262.172 29.6441,-262.172"/>
</g>
</g>
</svg>
