<?xml version="1.0" encoding="UTF-8" standalone="no"?>
<!DOCTYPE svg PUBLIC "-//W3C//DTD SVG 1.1//EN"
 "http://www.w3.org/Graphics/SVG/1.1/DTD/svg11.dtd">
<!-- Generated by graphviz version 2.38.0 (20140413.2041)
 -->
<!-- Title: WebView Pages: 1 -->
<svg width="99pt" height="405pt"
 viewBox="0.00 0.00 98.76 405.00" xmlns="http://www.w3.org/2000/svg" xmlns:xlink="http://www.w3.org/1999/xlink">
<g id="graph0" class="graph" transform="scale(1 1) rotate(0) translate(4 401)">
<title>WebView</title>
<polygon fill="white" stroke="none" points="-4,4 -4,-401 94.7559,-401 94.7559,4 -4,4"/>
<!-- Node1 -->
<g id="node1" class="node"><title>Node1</title>
<polygon fill="#bfbfbf" stroke="black" points="0,-0.5 0,-94.5 90.7559,-94.5 90.7559,-0.5 0,-0.5"/>
<text text-anchor="middle" x="45.3779" y="-82.5" font-family="Helvetica,sans-Serif" font-size="10.00">WebView</text>
<polyline fill="none" stroke="black" points="0,-76.5 90.7559,-76.5 "/>
<text text-anchor="middle" x="45.3779" y="-64.5" font-family="Helvetica,sans-Serif" font-size="10.00"> </text>
<polyline fill="none" stroke="black" points="0,-58.5 90.7559,-58.5 "/>
<text text-anchor="start" x="8" y="-46.5" font-family="Helvetica,sans-Serif" font-size="10.00">+ close()</text>
<text text-anchor="start" x="8" y="-36.5" font-family="Helvetica,sans-Serif" font-size="10.00">+ wait()</text>
<text text-anchor="start" x="8" y="-26.5" font-family="Helvetica,sans-Serif" font-size="10.00">+ postMessage()</text>
<text text-anchor="start" x="8" y="-16.5" font-family="Helvetica,sans-Serif" font-size="10.00">+ onclose()</text>
<text text-anchor="start" x="8" y="-6.5" font-family="Helvetica,sans-Serif" font-size="10.00">+ onmessage()</text>
</g>
<!-- Node2 -->
<g id="node2" class="node"><title>Node2</title>
<g id="a_node2"><a xlink:href="../../d6/df7/interfaceTrigger.html" target="_top" xlink:title="事件触发对象，可用于建立观察者模式，支持事件触发的对象均继承于此，同一事件的同一函数只会产生一次回调 ...">
<polygon fill="white" stroke="black" points="14.1724,-131.5 14.1724,-265.5 76.5835,-265.5 76.5835,-131.5 14.1724,-131.5"/>
<text text-anchor="middle" x="45.3779" y="-253.5" font-family="Helvetica,sans-Serif" font-size="10.00">Trigger</text>
<polyline fill="none" stroke="black" points="14.1724,-247.5 76.5835,-247.5 "/>
<text text-anchor="middle" x="45.3779" y="-235.5" font-family="Helvetica,sans-Serif" font-size="10.00"> </text>
<polyline fill="none" stroke="black" points="14.1724,-229.5 76.5835,-229.5 "/>
<text text-anchor="start" x="22.1724" y="-217.5" font-family="Helvetica,sans-Serif" font-size="10.00">+ Trigger()</text>
<text text-anchor="start" x="22.1724" y="-207.5" font-family="Helvetica,sans-Serif" font-size="10.00">+ on()</text>
<text text-anchor="start" x="22.1724" y="-197.5" font-family="Helvetica,sans-Serif" font-size="10.00">+ on()</text>
<text text-anchor="start" x="22.1724" y="-187.5" font-family="Helvetica,sans-Serif" font-size="10.00">+ once()</text>
<text text-anchor="start" x="22.1724" y="-177.5" font-family="Helvetica,sans-Serif" font-size="10.00">+ once()</text>
<text text-anchor="start" x="22.1724" y="-167.5" font-family="Helvetica,sans-Serif" font-size="10.00">+ off()</text>
<text text-anchor="start" x="22.1724" y="-157.5" font-family="Helvetica,sans-Serif" font-size="10.00">+ off()</text>
<text text-anchor="start" x="22.1724" y="-147.5" font-family="Helvetica,sans-Serif" font-size="10.00">+ off()</text>
<text text-anchor="start" x="22.1724" y="-137.5" font-family="Helvetica,sans-Serif" font-size="10.00">+ trigger()</text>
</a>
</g>
</g>
<!-- Node2&#45;&gt;Node1 -->
<g id="edge1" class="edge"><title>Node2&#45;&gt;Node1</title>
<path fill="none" stroke="midnightblue" d="M45.3779,-121.165C45.3779,-112.195 45.3779,-103.261 45.3779,-94.8835"/>
<polygon fill="none" stroke="midnightblue" points="41.878,-121.279 45.3779,-131.279 48.878,-121.279 41.878,-121.279"/>
</g>
<!-- Node3 -->
<g id="node3" class="node"><title>Node3</title>
<g id="a_node3"><a xlink:href="../../db/d38/interfaceobject.html" target="_top" xlink:title="基础对象，所有对象均继承于此 ">
<polygon fill="white" stroke="black" points="12.2339,-302.5 12.2339,-396.5 78.522,-396.5 78.522,-302.5 12.2339,-302.5"/>
<text text-anchor="middle" x="45.3779" y="-384.5" font-family="Helvetica,sans-Serif" font-size="10.00">object</text>
<polyline fill="none" stroke="black" points="12.2339,-378.5 78.522,-378.5 "/>
<text text-anchor="middle" x="45.3779" y="-366.5" font-family="Helvetica,sans-Serif" font-size="10.00"> </text>
<polyline fill="none" stroke="black" points="12.2339,-360.5 78.522,-360.5 "/>
<text text-anchor="start" x="20.2339" y="-348.5" font-family="Helvetica,sans-Serif" font-size="10.00">+ dispose()</text>
<text text-anchor="start" x="20.2339" y="-338.5" font-family="Helvetica,sans-Serif" font-size="10.00">+ equals()</text>
<text text-anchor="start" x="20.2339" y="-328.5" font-family="Helvetica,sans-Serif" font-size="10.00">+ toString()</text>
<text text-anchor="start" x="20.2339" y="-318.5" font-family="Helvetica,sans-Serif" font-size="10.00">+ toJSON()</text>
<text text-anchor="start" x="20.2339" y="-308.5" font-family="Helvetica,sans-Serif" font-size="10.00">+ valueOf()</text>
</a>
</g>
</g>
<!-- Node3&#45;&gt;Node2 -->
<g id="edge2" class="edge"><title>Node3&#45;&gt;Node2</title>
<path fill="none" stroke="midnightblue" d="M45.3779,-291.939C45.3779,-283.387 45.3779,-274.499 45.3779,-265.764"/>
<polygon fill="none" stroke="midnightblue" points="41.878,-292.172 45.3779,-302.172 48.878,-292.172 41.878,-292.172"/>
</g>
</g>
</svg>
