<?xml version="1.0" encoding="UTF-8" standalone="no"?>
<!DOCTYPE svg PUBLIC "-//W3C//DTD SVG 1.1//EN"
 "http://www.w3.org/Graphics/SVG/1.1/DTD/svg11.dtd">
<!-- Generated by graphviz version 2.38.0 (20140413.2041)
 -->
<!-- Title: WebView Pages: 1 -->
<svg width="124pt" height="515pt"
 viewBox="0.00 0.00 124.31 515.00" xmlns="http://www.w3.org/2000/svg" xmlns:xlink="http://www.w3.org/1999/xlink">
<g id="graph0" class="graph" transform="scale(1 1) rotate(0) translate(4 511)">
<title>WebView</title>
<polygon fill="white" stroke="none" points="-4,4 -4,-511 120.312,-511 120.312,4 -4,4"/>
<!-- Node1 -->
<g id="node1" class="node"><title>Node1</title>
<polygon fill="#bfbfbf" stroke="black" points="12.7783,-0.5 12.7783,-114.5 103.534,-114.5 103.534,-0.5 12.7783,-0.5"/>
<text text-anchor="middle" x="58.1562" y="-102.5" font-family="Helvetica,sans-Serif" font-size="10.00">WebView</text>
<polyline fill="none" stroke="black" points="12.7783,-96.5 103.534,-96.5 "/>
<text text-anchor="middle" x="58.1562" y="-84.5" font-family="Helvetica,sans-Serif" font-size="10.00"> </text>
<polyline fill="none" stroke="black" points="12.7783,-78.5 103.534,-78.5 "/>
<text text-anchor="start" x="20.7783" y="-66.5" font-family="Helvetica,sans-Serif" font-size="10.00">+ close()</text>
<text text-anchor="start" x="20.7783" y="-56.5" font-family="Helvetica,sans-Serif" font-size="10.00">+ wait()</text>
<text text-anchor="start" x="20.7783" y="-46.5" font-family="Helvetica,sans-Serif" font-size="10.00">+ postMessage()</text>
<text text-anchor="start" x="20.7783" y="-36.5" font-family="Helvetica,sans-Serif" font-size="10.00">+ onmove()</text>
<text text-anchor="start" x="20.7783" y="-26.5" font-family="Helvetica,sans-Serif" font-size="10.00">+ onsize()</text>
<text text-anchor="start" x="20.7783" y="-16.5" font-family="Helvetica,sans-Serif" font-size="10.00">+ onclose()</text>
<text text-anchor="start" x="20.7783" y="-6.5" font-family="Helvetica,sans-Serif" font-size="10.00">+ onmessage()</text>
</g>
<!-- Node2 -->
<g id="node2" class="node"><title>Node2</title>
<g id="a_node2"><a xlink:href="../../d6/df7/interfaceTrigger.html" target="_top" xlink:title="事件触发对象，可用于建立观察者模式，支持事件触发的对象均继承于此，同一事件的同一函数只会产生一次回调 ...">
<polygon fill="white" stroke="black" points="0,-151.5 0,-375.5 116.312,-375.5 116.312,-151.5 0,-151.5"/>
<text text-anchor="middle" x="58.1562" y="-363.5" font-family="Helvetica,sans-Serif" font-size="10.00">Trigger</text>
<polyline fill="none" stroke="black" points="0,-357.5 116.312,-357.5 "/>
<text text-anchor="middle" x="58.1562" y="-345.5" font-family="Helvetica,sans-Serif" font-size="10.00"> </text>
<polyline fill="none" stroke="black" points="0,-339.5 116.312,-339.5 "/>
<text text-anchor="start" x="8" y="-327.5" font-family="Helvetica,sans-Serif" font-size="10.00">+ Trigger()</text>
<text text-anchor="start" x="8" y="-317.5" font-family="Helvetica,sans-Serif" font-size="10.00">+ on()</text>
<text text-anchor="start" x="8" y="-307.5" font-family="Helvetica,sans-Serif" font-size="10.00">+ on()</text>
<text text-anchor="start" x="8" y="-297.5" font-family="Helvetica,sans-Serif" font-size="10.00">+ addListener()</text>
<text text-anchor="start" x="8" y="-287.5" font-family="Helvetica,sans-Serif" font-size="10.00">+ addListener()</text>
<text text-anchor="start" x="8" y="-277.5" font-family="Helvetica,sans-Serif" font-size="10.00">+ once()</text>
<text text-anchor="start" x="8" y="-267.5" font-family="Helvetica,sans-Serif" font-size="10.00">+ once()</text>
<text text-anchor="start" x="8" y="-257.5" font-family="Helvetica,sans-Serif" font-size="10.00">+ off()</text>
<text text-anchor="start" x="8" y="-247.5" font-family="Helvetica,sans-Serif" font-size="10.00">+ off()</text>
<text text-anchor="start" x="8" y="-237.5" font-family="Helvetica,sans-Serif" font-size="10.00">+ off()</text>
<text text-anchor="start" x="8" y="-227.5" font-family="Helvetica,sans-Serif" font-size="10.00">+ removeListener()</text>
<text text-anchor="start" x="8" y="-217.5" font-family="Helvetica,sans-Serif" font-size="10.00">+ removeListener()</text>
<text text-anchor="start" x="8" y="-207.5" font-family="Helvetica,sans-Serif" font-size="10.00">+ removeListener()</text>
<text text-anchor="start" x="8" y="-197.5" font-family="Helvetica,sans-Serif" font-size="10.00">+ removeAllListeners()</text>
<text text-anchor="start" x="8" y="-187.5" font-family="Helvetica,sans-Serif" font-size="10.00">+ setMaxListeners()</text>
<text text-anchor="start" x="8" y="-177.5" font-family="Helvetica,sans-Serif" font-size="10.00">+ listeners()</text>
<text text-anchor="start" x="8" y="-167.5" font-family="Helvetica,sans-Serif" font-size="10.00">+ trigger()</text>
<text text-anchor="start" x="8" y="-157.5" font-family="Helvetica,sans-Serif" font-size="10.00">+ emit()</text>
</a>
</g>
</g>
<!-- Node2&#45;&gt;Node1 -->
<g id="edge1" class="edge"><title>Node2&#45;&gt;Node1</title>
<path fill="none" stroke="midnightblue" d="M58.1562,-141.199C58.1562,-132.003 58.1562,-123.024 58.1562,-114.577"/>
<polygon fill="none" stroke="midnightblue" points="54.6563,-141.248 58.1562,-151.248 61.6563,-141.248 54.6563,-141.248"/>
</g>
<!-- Node3 -->
<g id="node3" class="node"><title>Node3</title>
<g id="a_node3"><a xlink:href="../../db/d38/interfaceobject.html" target="_top" xlink:title="基础对象，所有对象均继承于此 ">
<polygon fill="white" stroke="black" points="25.0122,-412.5 25.0122,-506.5 91.3003,-506.5 91.3003,-412.5 25.0122,-412.5"/>
<text text-anchor="middle" x="58.1562" y="-494.5" font-family="Helvetica,sans-Serif" font-size="10.00">object</text>
<polyline fill="none" stroke="black" points="25.0122,-488.5 91.3003,-488.5 "/>
<text text-anchor="middle" x="58.1562" y="-476.5" font-family="Helvetica,sans-Serif" font-size="10.00"> </text>
<polyline fill="none" stroke="black" points="25.0122,-470.5 91.3003,-470.5 "/>
<text text-anchor="start" x="33.0122" y="-458.5" font-family="Helvetica,sans-Serif" font-size="10.00">+ dispose()</text>
<text text-anchor="start" x="33.0122" y="-448.5" font-family="Helvetica,sans-Serif" font-size="10.00">+ equals()</text>
<text text-anchor="start" x="33.0122" y="-438.5" font-family="Helvetica,sans-Serif" font-size="10.00">+ toString()</text>
<text text-anchor="start" x="33.0122" y="-428.5" font-family="Helvetica,sans-Serif" font-size="10.00">+ toJSON()</text>
<text text-anchor="start" x="33.0122" y="-418.5" font-family="Helvetica,sans-Serif" font-size="10.00">+ valueOf()</text>
</a>
</g>
</g>
<!-- Node3&#45;&gt;Node2 -->
<g id="edge2" class="edge"><title>Node3&#45;&gt;Node2</title>
<path fill="none" stroke="midnightblue" d="M58.1562,-402.02C58.1562,-393.592 58.1562,-384.666 58.1562,-375.571"/>
<polygon fill="none" stroke="midnightblue" points="54.6563,-402.032 58.1562,-412.032 61.6563,-402.032 54.6563,-402.032"/>
</g>
</g>
</svg>
