<?xml version="1.0" encoding="UTF-8" standalone="no"?>
<!DOCTYPE svg PUBLIC "-//W3C//DTD SVG 1.1//EN"
 "http://www.w3.org/Graphics/SVG/1.1/DTD/svg11.dtd">
<!-- Generated by graphviz version 2.38.0 (20140413.2041)
 -->
<!-- Title: WebView Pages: 1 -->
<svg width="74pt" height="365pt"
 viewBox="0.00 0.00 74.29 365.00" xmlns="http://www.w3.org/2000/svg" xmlns:xlink="http://www.w3.org/1999/xlink">
<g id="graph0" class="graph" transform="scale(1 1) rotate(0) translate(4 361)">
<title>WebView</title>
<polygon fill="white" stroke="none" points="-4,4 -4,-361 70.2881,-361 70.2881,4 -4,4"/>
<!-- Node1 -->
<g id="node1" class="node"><title>Node1</title>
<polygon fill="#bfbfbf" stroke="black" points="0.270996,-0.5 0.270996,-54.5 66.0171,-54.5 66.0171,-0.5 0.270996,-0.5"/>
<text text-anchor="middle" x="33.144" y="-42.5" font-family="Helvetica,sans-Serif" font-size="10.00">WebView</text>
<polyline fill="none" stroke="black" points="0.270996,-36.5 66.0171,-36.5 "/>
<text text-anchor="middle" x="33.144" y="-24.5" font-family="Helvetica,sans-Serif" font-size="10.00"> </text>
<polyline fill="none" stroke="black" points="0.270996,-18.5 66.0171,-18.5 "/>
<text text-anchor="start" x="8.271" y="-6.5" font-family="Helvetica,sans-Serif" font-size="10.00">+ onclose()</text>
</g>
<!-- Node2 -->
<g id="node2" class="node"><title>Node2</title>
<g id="a_node2"><a xlink:href="../../d6/df7/interfaceTrigger.html" target="_top" xlink:title="事件触发对象，可用于建立观察者模式，支持事件触发的对象均继承于此，同一事件的同一函数只会产生一次回调 ...">
<polygon fill="white" stroke="black" points="1.93848,-91.5 1.93848,-225.5 64.3496,-225.5 64.3496,-91.5 1.93848,-91.5"/>
<text text-anchor="middle" x="33.144" y="-213.5" font-family="Helvetica,sans-Serif" font-size="10.00">Trigger</text>
<polyline fill="none" stroke="black" points="1.93848,-207.5 64.3496,-207.5 "/>
<text text-anchor="middle" x="33.144" y="-195.5" font-family="Helvetica,sans-Serif" font-size="10.00"> </text>
<polyline fill="none" stroke="black" points="1.93848,-189.5 64.3496,-189.5 "/>
<text text-anchor="start" x="9.93848" y="-177.5" font-family="Helvetica,sans-Serif" font-size="10.00">+ Trigger()</text>
<text text-anchor="start" x="9.93848" y="-167.5" font-family="Helvetica,sans-Serif" font-size="10.00">+ on()</text>
<text text-anchor="start" x="9.93848" y="-157.5" font-family="Helvetica,sans-Serif" font-size="10.00">+ on()</text>
<text text-anchor="start" x="9.93848" y="-147.5" font-family="Helvetica,sans-Serif" font-size="10.00">+ once()</text>
<text text-anchor="start" x="9.93848" y="-137.5" font-family="Helvetica,sans-Serif" font-size="10.00">+ once()</text>
<text text-anchor="start" x="9.93848" y="-127.5" font-family="Helvetica,sans-Serif" font-size="10.00">+ off()</text>
<text text-anchor="start" x="9.93848" y="-117.5" font-family="Helvetica,sans-Serif" font-size="10.00">+ off()</text>
<text text-anchor="start" x="9.93848" y="-107.5" font-family="Helvetica,sans-Serif" font-size="10.00">+ off()</text>
<text text-anchor="start" x="9.93848" y="-97.5" font-family="Helvetica,sans-Serif" font-size="10.00">+ trigger()</text>
</a>
</g>
</g>
<!-- Node2&#45;&gt;Node1 -->
<g id="edge1" class="edge"><title>Node2&#45;&gt;Node1</title>
<path fill="none" stroke="midnightblue" d="M33.144,-81.4728C33.144,-71.9474 33.144,-62.7686 33.144,-54.8044"/>
<polygon fill="none" stroke="midnightblue" points="29.6441,-81.4884 33.144,-91.4884 36.6441,-81.4884 29.6441,-81.4884"/>
</g>
<!-- Node3 -->
<g id="node3" class="node"><title>Node3</title>
<g id="a_node3"><a xlink:href="../../db/d38/interfaceobject.html" target="_top" xlink:title="基础对象，所有对象均继承于此 ">
<polygon fill="white" stroke="black" points="0,-262.5 0,-356.5 66.2881,-356.5 66.2881,-262.5 0,-262.5"/>
<text text-anchor="middle" x="33.144" y="-344.5" font-family="Helvetica,sans-Serif" font-size="10.00">object</text>
<polyline fill="none" stroke="black" points="0,-338.5 66.2881,-338.5 "/>
<text text-anchor="middle" x="33.144" y="-326.5" font-family="Helvetica,sans-Serif" font-size="10.00"> </text>
<polyline fill="none" stroke="black" points="0,-320.5 66.2881,-320.5 "/>
<text text-anchor="start" x="8" y="-308.5" font-family="Helvetica,sans-Serif" font-size="10.00">+ dispose()</text>
<text text-anchor="start" x="8" y="-298.5" font-family="Helvetica,sans-Serif" font-size="10.00">+ equals()</text>
<text text-anchor="start" x="8" y="-288.5" font-family="Helvetica,sans-Serif" font-size="10.00">+ toString()</text>
<text text-anchor="start" x="8" y="-278.5" font-family="Helvetica,sans-Serif" font-size="10.00">+ toJSON()</text>
<text text-anchor="start" x="8" y="-268.5" font-family="Helvetica,sans-Serif" font-size="10.00">+ valueOf()</text>
</a>
</g>
</g>
<!-- Node3&#45;&gt;Node2 -->
<g id="edge2" class="edge"><title>Node3&#45;&gt;Node2</title>
<path fill="none" stroke="midnightblue" d="M33.144,-251.939C33.144,-243.387 33.144,-234.499 33.144,-225.764"/>
<polygon fill="none" stroke="midnightblue" points="29.6441,-252.172 33.144,-262.172 36.6441,-252.172 29.6441,-252.172"/>
</g>
</g>
</svg>
