<?xml version="1.0" encoding="UTF-8" standalone="no"?>
<!DOCTYPE svg PUBLIC "-//W3C//DTD SVG 1.1//EN"
 "http://www.w3.org/Graphics/SVG/1.1/DTD/svg11.dtd">
<!-- Generated by graphviz version 2.38.0 (20140413.2041)
 -->
<!-- Title: List Pages: 1 -->
<svg width="75pt" height="425pt"
 viewBox="0.00 0.00 75.42 425.00" xmlns="http://www.w3.org/2000/svg" xmlns:xlink="http://www.w3.org/1999/xlink">
<g id="graph0" class="graph" transform="scale(1 1) rotate(0) translate(4 421)">
<title>List</title>
<polygon fill="white" stroke="none" points="-4,4 -4,-421 71.4209,-421 71.4209,4 -4,4"/>
<!-- Node1 -->
<g id="node1" class="node"><title>Node1</title>
<polygon fill="#bfbfbf" stroke="black" points="0,-111.5 0,-295.5 67.4209,-295.5 67.4209,-111.5 0,-111.5"/>
<text text-anchor="middle" x="33.7104" y="-283.5" font-family="Helvetica,sans-Serif" font-size="10.00">List</text>
<polyline fill="none" stroke="black" points="0,-277.5 67.4209,-277.5 "/>
<text text-anchor="start" x="8" y="-265.5" font-family="Helvetica,sans-Serif" font-size="10.00">+ operator[]</text>
<text text-anchor="start" x="8" y="-255.5" font-family="Helvetica,sans-Serif" font-size="10.00">+ length</text>
<polyline fill="none" stroke="black" points="0,-249.5 67.4209,-249.5 "/>
<text text-anchor="start" x="8" y="-237.5" font-family="Helvetica,sans-Serif" font-size="10.00">+ List()</text>
<text text-anchor="start" x="8" y="-227.5" font-family="Helvetica,sans-Serif" font-size="10.00">+ resize()</text>
<text text-anchor="start" x="8" y="-217.5" font-family="Helvetica,sans-Serif" font-size="10.00">+ push()</text>
<text text-anchor="start" x="8" y="-207.5" font-family="Helvetica,sans-Serif" font-size="10.00">+ push()</text>
<text text-anchor="start" x="8" y="-197.5" font-family="Helvetica,sans-Serif" font-size="10.00">+ pop()</text>
<text text-anchor="start" x="8" y="-187.5" font-family="Helvetica,sans-Serif" font-size="10.00">+ slice()</text>
<text text-anchor="start" x="8" y="-177.5" font-family="Helvetica,sans-Serif" font-size="10.00">+ concat()</text>
<text text-anchor="start" x="8" y="-167.5" font-family="Helvetica,sans-Serif" font-size="10.00">+ every()</text>
<text text-anchor="start" x="8" y="-157.5" font-family="Helvetica,sans-Serif" font-size="10.00">+ some()</text>
<text text-anchor="start" x="8" y="-147.5" font-family="Helvetica,sans-Serif" font-size="10.00">+ filter()</text>
<text text-anchor="start" x="8" y="-137.5" font-family="Helvetica,sans-Serif" font-size="10.00">+ forEach()</text>
<text text-anchor="start" x="8" y="-127.5" font-family="Helvetica,sans-Serif" font-size="10.00">+ map()</text>
<text text-anchor="start" x="8" y="-117.5" font-family="Helvetica,sans-Serif" font-size="10.00">+ toArray()</text>
</g>
<!-- Node3 -->
<g id="node3" class="node"><title>Node3</title>
<g id="a_node3"><a xlink:href="../../d9/db4/interfaceDBResult.html" target="_top" xlink:title="数据库结果集合对象 ">
<polygon fill="white" stroke="black" points="3.69873,-0.5 3.69873,-74.5 63.7222,-74.5 63.7222,-0.5 3.69873,-0.5"/>
<text text-anchor="middle" x="33.7104" y="-62.5" font-family="Helvetica,sans-Serif" font-size="10.00">DBResult</text>
<polyline fill="none" stroke="black" points="3.69873,-56.5 63.7222,-56.5 "/>
<text text-anchor="start" x="11.6987" y="-44.5" font-family="Helvetica,sans-Serif" font-size="10.00">+ insertId</text>
<text text-anchor="start" x="11.6987" y="-34.5" font-family="Helvetica,sans-Serif" font-size="10.00">+ affected</text>
<text text-anchor="start" x="11.6987" y="-24.5" font-family="Helvetica,sans-Serif" font-size="10.00">+ fields</text>
<polyline fill="none" stroke="black" points="3.69873,-18.5 63.7222,-18.5 "/>
<text text-anchor="middle" x="33.7104" y="-6.5" font-family="Helvetica,sans-Serif" font-size="10.00"> </text>
</a>
</g>
</g>
<!-- Node1&#45;&gt;Node3 -->
<g id="edge2" class="edge"><title>Node1&#45;&gt;Node3</title>
<path fill="none" stroke="midnightblue" d="M33.7104,-101.138C33.7104,-91.7973 33.7104,-82.8123 33.7104,-74.7062"/>
<polygon fill="none" stroke="midnightblue" points="30.2105,-101.388 33.7104,-111.388 37.2105,-101.388 30.2105,-101.388"/>
</g>
<!-- Node2 -->
<g id="node2" class="node"><title>Node2</title>
<g id="a_node2"><a xlink:href="../../db/d38/interfaceobject.html" target="_top" xlink:title="基础对象，所有对象均继承于此 ">
<polygon fill="white" stroke="black" points="0.566406,-332.5 0.566406,-416.5 66.8545,-416.5 66.8545,-332.5 0.566406,-332.5"/>
<text text-anchor="middle" x="33.7104" y="-404.5" font-family="Helvetica,sans-Serif" font-size="10.00">object</text>
<polyline fill="none" stroke="black" points="0.566406,-398.5 66.8545,-398.5 "/>
<text text-anchor="middle" x="33.7104" y="-386.5" font-family="Helvetica,sans-Serif" font-size="10.00"> </text>
<polyline fill="none" stroke="black" points="0.566406,-380.5 66.8545,-380.5 "/>
<text text-anchor="start" x="8.56641" y="-368.5" font-family="Helvetica,sans-Serif" font-size="10.00">+ dispose()</text>
<text text-anchor="start" x="8.56641" y="-358.5" font-family="Helvetica,sans-Serif" font-size="10.00">+ toString()</text>
<text text-anchor="start" x="8.56641" y="-348.5" font-family="Helvetica,sans-Serif" font-size="10.00">+ toJSON()</text>
<text text-anchor="start" x="8.56641" y="-338.5" font-family="Helvetica,sans-Serif" font-size="10.00">+ valueOf()</text>
</a>
</g>
</g>
<!-- Node2&#45;&gt;Node1 -->
<g id="edge1" class="edge"><title>Node2&#45;&gt;Node1</title>
<path fill="none" stroke="midnightblue" d="M33.7104,-321.905C33.7104,-313.573 33.7104,-304.735 33.7104,-295.796"/>
<polygon fill="none" stroke="midnightblue" points="30.2105,-322.158 33.7104,-332.158 37.2105,-322.158 30.2105,-322.158"/>
</g>
</g>
</svg>
