<?xml version="1.0" encoding="UTF-8" standalone="no"?>
<!DOCTYPE svg PUBLIC "-//W3C//DTD SVG 1.1//EN"
 "http://www.w3.org/Graphics/SVG/1.1/DTD/svg11.dtd">
<!-- Generated by graphviz version 2.38.0 (20140413.2041)
 -->
<!-- Title: List Pages: 1 -->
<svg width="85pt" height="465pt"
 viewBox="0.00 0.00 84.85 465.00" xmlns="http://www.w3.org/2000/svg" xmlns:xlink="http://www.w3.org/1999/xlink">
<g id="graph0" class="graph" transform="scale(1 1) rotate(0) translate(4 461)">
<title>List</title>
<polygon fill="white" stroke="none" points="-4,4 -4,-461 80.8545,-461 80.8545,4 -4,4"/>
<!-- Node1 -->
<g id="node1" class="node"><title>Node1</title>
<polygon fill="#bfbfbf" stroke="black" points="0,-111.5 0,-325.5 76.8545,-325.5 76.8545,-111.5 0,-111.5"/>
<text text-anchor="middle" x="38.4272" y="-313.5" font-family="Helvetica,sans-Serif" font-size="10.00">List</text>
<polyline fill="none" stroke="black" points="0,-307.5 76.8545,-307.5 "/>
<text text-anchor="start" x="8" y="-295.5" font-family="Helvetica,sans-Serif" font-size="10.00">+ operator[]</text>
<text text-anchor="start" x="8" y="-285.5" font-family="Helvetica,sans-Serif" font-size="10.00">+ length</text>
<polyline fill="none" stroke="black" points="0,-279.5 76.8545,-279.5 "/>
<text text-anchor="start" x="8" y="-267.5" font-family="Helvetica,sans-Serif" font-size="10.00">+ List()</text>
<text text-anchor="start" x="8" y="-257.5" font-family="Helvetica,sans-Serif" font-size="10.00">+ List()</text>
<text text-anchor="start" x="8" y="-247.5" font-family="Helvetica,sans-Serif" font-size="10.00">+ freeze()</text>
<text text-anchor="start" x="8" y="-237.5" font-family="Helvetica,sans-Serif" font-size="10.00">+ resize()</text>
<text text-anchor="start" x="8" y="-227.5" font-family="Helvetica,sans-Serif" font-size="10.00">+ push()</text>
<text text-anchor="start" x="8" y="-217.5" font-family="Helvetica,sans-Serif" font-size="10.00">+ push()</text>
<text text-anchor="start" x="8" y="-207.5" font-family="Helvetica,sans-Serif" font-size="10.00">+ pushArray()</text>
<text text-anchor="start" x="8" y="-197.5" font-family="Helvetica,sans-Serif" font-size="10.00">+ pop()</text>
<text text-anchor="start" x="8" y="-187.5" font-family="Helvetica,sans-Serif" font-size="10.00">+ slice()</text>
<text text-anchor="start" x="8" y="-177.5" font-family="Helvetica,sans-Serif" font-size="10.00">+ concat()</text>
<text text-anchor="start" x="8" y="-167.5" font-family="Helvetica,sans-Serif" font-size="10.00">+ every()</text>
<text text-anchor="start" x="8" y="-157.5" font-family="Helvetica,sans-Serif" font-size="10.00">+ some()</text>
<text text-anchor="start" x="8" y="-147.5" font-family="Helvetica,sans-Serif" font-size="10.00">+ filter()</text>
<text text-anchor="start" x="8" y="-137.5" font-family="Helvetica,sans-Serif" font-size="10.00">+ forEach()</text>
<text text-anchor="start" x="8" y="-127.5" font-family="Helvetica,sans-Serif" font-size="10.00">+ map()</text>
<text text-anchor="start" x="8" y="-117.5" font-family="Helvetica,sans-Serif" font-size="10.00">+ toArray()</text>
</g>
<!-- Node3 -->
<g id="node3" class="node"><title>Node3</title>
<g id="a_node3"><a xlink:href="../../d9/db4/interfaceDBResult.html" target="_top" xlink:title="数据库结果集合对象 ">
<polygon fill="white" stroke="black" points="8.41553,-0.5 8.41553,-74.5 68.439,-74.5 68.439,-0.5 8.41553,-0.5"/>
<text text-anchor="middle" x="38.4272" y="-62.5" font-family="Helvetica,sans-Serif" font-size="10.00">DBResult</text>
<polyline fill="none" stroke="black" points="8.41553,-56.5 68.439,-56.5 "/>
<text text-anchor="start" x="16.4155" y="-44.5" font-family="Helvetica,sans-Serif" font-size="10.00">+ insertId</text>
<text text-anchor="start" x="16.4155" y="-34.5" font-family="Helvetica,sans-Serif" font-size="10.00">+ affected</text>
<text text-anchor="start" x="16.4155" y="-24.5" font-family="Helvetica,sans-Serif" font-size="10.00">+ fields</text>
<polyline fill="none" stroke="black" points="8.41553,-18.5 68.439,-18.5 "/>
<text text-anchor="middle" x="38.4272" y="-6.5" font-family="Helvetica,sans-Serif" font-size="10.00"> </text>
</a>
</g>
</g>
<!-- Node1&#45;&gt;Node3 -->
<g id="edge2" class="edge"><title>Node1&#45;&gt;Node3</title>
<path fill="none" stroke="midnightblue" d="M38.4272,-101.294C38.4272,-91.819 38.4272,-82.7839 38.4272,-74.6694"/>
<polygon fill="none" stroke="midnightblue" points="34.9273,-101.306 38.4272,-111.306 41.9273,-101.306 34.9273,-101.306"/>
</g>
<!-- Node2 -->
<g id="node2" class="node"><title>Node2</title>
<g id="a_node2"><a xlink:href="../../db/d38/interfaceobject.html" target="_top" xlink:title="基础对象，所有对象均继承于此 ">
<polygon fill="white" stroke="black" points="5.2832,-362.5 5.2832,-456.5 71.5713,-456.5 71.5713,-362.5 5.2832,-362.5"/>
<text text-anchor="middle" x="38.4272" y="-444.5" font-family="Helvetica,sans-Serif" font-size="10.00">object</text>
<polyline fill="none" stroke="black" points="5.2832,-438.5 71.5713,-438.5 "/>
<text text-anchor="middle" x="38.4272" y="-426.5" font-family="Helvetica,sans-Serif" font-size="10.00"> </text>
<polyline fill="none" stroke="black" points="5.2832,-420.5 71.5713,-420.5 "/>
<text text-anchor="start" x="13.2832" y="-408.5" font-family="Helvetica,sans-Serif" font-size="10.00">+ dispose()</text>
<text text-anchor="start" x="13.2832" y="-398.5" font-family="Helvetica,sans-Serif" font-size="10.00">+ equals()</text>
<text text-anchor="start" x="13.2832" y="-388.5" font-family="Helvetica,sans-Serif" font-size="10.00">+ toString()</text>
<text text-anchor="start" x="13.2832" y="-378.5" font-family="Helvetica,sans-Serif" font-size="10.00">+ toJSON()</text>
<text text-anchor="start" x="13.2832" y="-368.5" font-family="Helvetica,sans-Serif" font-size="10.00">+ valueOf()</text>
</a>
</g>
</g>
<!-- Node2&#45;&gt;Node1 -->
<g id="edge1" class="edge"><title>Node2&#45;&gt;Node1</title>
<path fill="none" stroke="midnightblue" d="M38.4272,-352.214C38.4272,-343.755 38.4272,-334.805 38.4272,-325.708"/>
<polygon fill="none" stroke="midnightblue" points="34.9273,-352.265 38.4272,-362.265 41.9273,-352.265 34.9273,-352.265"/>
</g>
</g>
</svg>
