<?xml version="1.0" encoding="UTF-8" standalone="no"?>
<!DOCTYPE svg PUBLIC "-//W3C//DTD SVG 1.1//EN"
 "http://www.w3.org/Graphics/SVG/1.1/DTD/svg11.dtd">
<!-- Generated by graphviz version 2.38.0 (20140413.2041)
 -->
<!-- Title: XmlNodeList Pages: 1 -->
<svg width="124pt" height="295pt"
 viewBox="0.00 0.00 124.31 295.00" xmlns="http://www.w3.org/2000/svg" xmlns:xlink="http://www.w3.org/1999/xlink">
<g id="graph0" class="graph" transform="scale(1 1) rotate(0) translate(4 291)">
<title>XmlNodeList</title>
<polygon fill="white" stroke="none" points="-4,4 -4,-291 120.308,-291 120.308,4 -4,4"/>
<!-- Node1 -->
<g id="node1" class="node"><title>Node1</title>
<polygon fill="#bfbfbf" stroke="black" points="21.8091,-101.5 21.8091,-165.5 94.4985,-165.5 94.4985,-101.5 21.8091,-101.5"/>
<text text-anchor="middle" x="58.1538" y="-153.5" font-family="Helvetica,sans-Serif" font-size="10.00">XmlNodeList</text>
<polyline fill="none" stroke="black" points="21.8091,-147.5 94.4985,-147.5 "/>
<text text-anchor="start" x="29.8091" y="-135.5" font-family="Helvetica,sans-Serif" font-size="10.00">+ length</text>
<text text-anchor="start" x="29.8091" y="-125.5" font-family="Helvetica,sans-Serif" font-size="10.00">+ operator[]</text>
<polyline fill="none" stroke="black" points="21.8091,-119.5 94.4985,-119.5 "/>
<text text-anchor="start" x="29.8091" y="-107.5" font-family="Helvetica,sans-Serif" font-size="10.00">+ item()</text>
</g>
<!-- Node3 -->
<g id="node3" class="node"><title>Node3</title>
<g id="a_node3"><a xlink:href="../../d2/de1/interfaceXmlNamedNodeMap.html" target="_top" xlink:title="XmlNamedNodeMap 对象表示一个无顺序的节点列表 ">
<polygon fill="white" stroke="black" points="0,-0.5 0,-64.5 116.308,-64.5 116.308,-0.5 0,-0.5"/>
<text text-anchor="middle" x="58.1538" y="-52.5" font-family="Helvetica,sans-Serif" font-size="10.00">XmlNamedNodeMap</text>
<polyline fill="none" stroke="black" points="0,-46.5 116.308,-46.5 "/>
<text text-anchor="middle" x="58.1538" y="-34.5" font-family="Helvetica,sans-Serif" font-size="10.00"> </text>
<polyline fill="none" stroke="black" points="0,-28.5 116.308,-28.5 "/>
<text text-anchor="start" x="8" y="-16.5" font-family="Helvetica,sans-Serif" font-size="10.00">+ getNamedItem()</text>
<text text-anchor="start" x="8" y="-6.5" font-family="Helvetica,sans-Serif" font-size="10.00">+ removeNamedItem()</text>
</a>
</g>
</g>
<!-- Node1&#45;&gt;Node3 -->
<g id="edge2" class="edge"><title>Node1&#45;&gt;Node3</title>
<path fill="none" stroke="midnightblue" d="M58.1538,-91.2823C58.1538,-82.4203 58.1538,-73.1938 58.1538,-64.7828"/>
<polygon fill="none" stroke="midnightblue" points="54.6539,-91.4474 58.1538,-101.447 61.6539,-91.4474 54.6539,-91.4474"/>
</g>
<!-- Node2 -->
<g id="node2" class="node"><title>Node2</title>
<g id="a_node2"><a xlink:href="../../db/d38/interfaceobject.html" target="_top" xlink:title="基础对象，所有对象均继承于此 ">
<polygon fill="white" stroke="black" points="25.0098,-202.5 25.0098,-286.5 91.2979,-286.5 91.2979,-202.5 25.0098,-202.5"/>
<text text-anchor="middle" x="58.1538" y="-274.5" font-family="Helvetica,sans-Serif" font-size="10.00">object</text>
<polyline fill="none" stroke="black" points="25.0098,-268.5 91.2979,-268.5 "/>
<text text-anchor="middle" x="58.1538" y="-256.5" font-family="Helvetica,sans-Serif" font-size="10.00"> </text>
<polyline fill="none" stroke="black" points="25.0098,-250.5 91.2979,-250.5 "/>
<text text-anchor="start" x="33.0098" y="-238.5" font-family="Helvetica,sans-Serif" font-size="10.00">+ dispose()</text>
<text text-anchor="start" x="33.0098" y="-228.5" font-family="Helvetica,sans-Serif" font-size="10.00">+ toString()</text>
<text text-anchor="start" x="33.0098" y="-218.5" font-family="Helvetica,sans-Serif" font-size="10.00">+ toJSON()</text>
<text text-anchor="start" x="33.0098" y="-208.5" font-family="Helvetica,sans-Serif" font-size="10.00">+ valueOf()</text>
</a>
</g>
</g>
<!-- Node2&#45;&gt;Node1 -->
<g id="edge1" class="edge"><title>Node2&#45;&gt;Node1</title>
<path fill="none" stroke="midnightblue" d="M58.1538,-192.145C58.1538,-183.065 58.1538,-173.869 58.1538,-165.569"/>
<polygon fill="none" stroke="midnightblue" points="54.6539,-192.292 58.1538,-202.292 61.6539,-192.292 54.6539,-192.292"/>
</g>
</g>
</svg>
