<?xml version="1.0" encoding="UTF-8" standalone="no"?>
<!DOCTYPE svg PUBLIC "-//W3C//DTD SVG 1.1//EN"
 "http://www.w3.org/Graphics/SVG/1.1/DTD/svg11.dtd">
<!-- Generated by graphviz version 2.40.1 (20161225.0304)
 -->
<!-- Title: EventInfo Pages: 1 -->
<svg width="102pt" height="234pt"
 viewBox="0.00 0.00 101.54 234.00" xmlns="http://www.w3.org/2000/svg" xmlns:xlink="http://www.w3.org/1999/xlink">
<g id="graph0" class="graph" transform="scale(1 1) rotate(0) translate(4 230)">
<title>EventInfo</title>
<polygon fill="#ffffff" stroke="transparent" points="-4,4 -4,-230 97.5439,-230 97.5439,4 -4,4"/>
<!-- Node0 -->
<g id="node1" class="node">
<title>Node0</title>
<polygon fill="#bfbfbf" stroke="#000000" points="0,-.5 0,-94.5 93.5439,-94.5 93.5439,-.5 0,-.5"/>
<text text-anchor="middle" x="46.772" y="-82.5" font-family="Helvetica,sans-Serif" font-size="10.00" fill="#000000">EventInfo</text>
<polyline fill="none" stroke="#000000" points="0,-76.5 93.5439,-76.5 "/>
<text text-anchor="start" x="8" y="-64.5" font-family="Helvetica,sans-Serif" font-size="10.00" fill="#000000">+ code</text>
<text text-anchor="start" x="8" y="-54.5" font-family="Helvetica,sans-Serif" font-size="10.00" fill="#000000">+ reason</text>
<text text-anchor="start" x="8" y="-44.5" font-family="Helvetica,sans-Serif" font-size="10.00" fill="#000000">+ type</text>
<text text-anchor="start" x="8" y="-34.5" font-family="Helvetica,sans-Serif" font-size="10.00" fill="#000000">+ target</text>
<text text-anchor="start" x="8" y="-24.5" font-family="Helvetica,sans-Serif" font-size="10.00" fill="#000000">+ operator[String]</text>
<polyline fill="none" stroke="#000000" points="0,-18.5 93.5439,-18.5 "/>
<text text-anchor="middle" x="46.772" y="-6.5" font-family="Helvetica,sans-Serif" font-size="10.00" fill="#000000"> </text>
</g>
<!-- Node1 -->
<g id="node2" class="node">
<title>Node1</title>
<g id="a_node2"><a xlink:href="../../db/d38/interfaceobject.html" target="_top" xlink:title="基础对象，所有对象均继承于此 ">
<polygon fill="#ffffff" stroke="#000000" points="13.6279,-131.5 13.6279,-225.5 79.916,-225.5 79.916,-131.5 13.6279,-131.5"/>
<text text-anchor="middle" x="46.772" y="-213.5" font-family="Helvetica,sans-Serif" font-size="10.00" fill="#000000">object</text>
<polyline fill="none" stroke="#000000" points="13.6279,-207.5 79.916,-207.5 "/>
<text text-anchor="middle" x="46.772" y="-195.5" font-family="Helvetica,sans-Serif" font-size="10.00" fill="#000000"> </text>
<polyline fill="none" stroke="#000000" points="13.6279,-189.5 79.916,-189.5 "/>
<text text-anchor="start" x="21.6279" y="-177.5" font-family="Helvetica,sans-Serif" font-size="10.00" fill="#000000">+ dispose()</text>
<text text-anchor="start" x="21.6279" y="-167.5" font-family="Helvetica,sans-Serif" font-size="10.00" fill="#000000">+ equals()</text>
<text text-anchor="start" x="21.6279" y="-157.5" font-family="Helvetica,sans-Serif" font-size="10.00" fill="#000000">+ toString()</text>
<text text-anchor="start" x="21.6279" y="-147.5" font-family="Helvetica,sans-Serif" font-size="10.00" fill="#000000">+ toJSON()</text>
<text text-anchor="start" x="21.6279" y="-137.5" font-family="Helvetica,sans-Serif" font-size="10.00" fill="#000000">+ valueOf()</text>
</a>
</g>
</g>
<!-- Node1&#45;&gt;Node0 -->
<g id="edge1" class="edge">
<title>Node1&#45;&gt;Node0</title>
<path fill="none" stroke="#191970" d="M46.772,-121.0214C46.772,-112.2362 46.772,-103.2556 46.772,-94.7246"/>
<polygon fill="none" stroke="#191970" points="43.2721,-121.206 46.772,-131.206 50.2721,-121.206 43.2721,-121.206"/>
</g>
</g>
</svg>
