<?xml version="1.0" encoding="UTF-8" standalone="no"?>
<!DOCTYPE svg PUBLIC "-//W3C//DTD SVG 1.1//EN"
 "http://www.w3.org/Graphics/SVG/1.1/DTD/svg11.dtd">
<!-- Generated by graphviz version 2.38.0 (20140413.2041)
 -->
<!-- Title: PacketHandler Pages: 1 -->
<svg width="105pt" height="295pt"
 viewBox="0.00 0.00 104.87 295.00" xmlns="http://www.w3.org/2000/svg" xmlns:xlink="http://www.w3.org/1999/xlink">
<g id="graph0" class="graph" transform="scale(1 1) rotate(0) translate(4 291)">
<title>PacketHandler</title>
<polygon fill="white" stroke="none" points="-4,4 -4,-291 100.869,-291 100.869,4 -4,4"/>
<!-- Node1 -->
<g id="node1" class="node"><title>Node1</title>
<polygon fill="#bfbfbf" stroke="black" points="0,-0.5 0,-74.5 96.8691,-74.5 96.8691,-0.5 0,-0.5"/>
<text text-anchor="middle" x="48.4346" y="-62.5" font-family="Helvetica,sans-Serif" font-size="10.00">PacketHandler</text>
<polyline fill="none" stroke="black" points="0,-56.5 96.8691,-56.5 "/>
<text text-anchor="start" x="8" y="-44.5" font-family="Helvetica,sans-Serif" font-size="10.00">+ maxSize</text>
<text text-anchor="start" x="8" y="-34.5" font-family="Helvetica,sans-Serif" font-size="10.00">+ handler</text>
<text text-anchor="start" x="8" y="-24.5" font-family="Helvetica,sans-Serif" font-size="10.00">+ stats</text>
<polyline fill="none" stroke="black" points="0,-18.5 96.8691,-18.5 "/>
<text text-anchor="start" x="8" y="-6.5" font-family="Helvetica,sans-Serif" font-size="10.00">+ PacketHandler()</text>
</g>
<!-- Node2 -->
<g id="node2" class="node"><title>Node2</title>
<g id="a_node2"><a xlink:href="../../da/d85/interfaceHandler.html" target="_top" xlink:title="消息处理器接口 ">
<polygon fill="white" stroke="black" points="18.3423,-111.5 18.3423,-165.5 78.5269,-165.5 78.5269,-111.5 18.3423,-111.5"/>
<text text-anchor="middle" x="48.4346" y="-153.5" font-family="Helvetica,sans-Serif" font-size="10.00">Handler</text>
<polyline fill="none" stroke="black" points="18.3423,-147.5 78.5269,-147.5 "/>
<text text-anchor="middle" x="48.4346" y="-135.5" font-family="Helvetica,sans-Serif" font-size="10.00"> </text>
<polyline fill="none" stroke="black" points="18.3423,-129.5 78.5269,-129.5 "/>
<text text-anchor="start" x="26.3423" y="-117.5" font-family="Helvetica,sans-Serif" font-size="10.00">+ invoke()</text>
</a>
</g>
</g>
<!-- Node2&#45;&gt;Node1 -->
<g id="edge1" class="edge"><title>Node2&#45;&gt;Node1</title>
<path fill="none" stroke="midnightblue" d="M48.4346,-101.304C48.4346,-92.6514 48.4346,-83.4132 48.4346,-74.7579"/>
<polygon fill="none" stroke="midnightblue" points="44.9347,-101.489 48.4346,-111.489 51.9347,-101.489 44.9347,-101.489"/>
</g>
<!-- Node3 -->
<g id="node3" class="node"><title>Node3</title>
<g id="a_node3"><a xlink:href="../../db/d38/interfaceobject.html" target="_top" xlink:title="基础对象，所有对象均继承于此 ">
<polygon fill="white" stroke="black" points="15.2905,-202.5 15.2905,-286.5 81.5786,-286.5 81.5786,-202.5 15.2905,-202.5"/>
<text text-anchor="middle" x="48.4346" y="-274.5" font-family="Helvetica,sans-Serif" font-size="10.00">object</text>
<polyline fill="none" stroke="black" points="15.2905,-268.5 81.5786,-268.5 "/>
<text text-anchor="middle" x="48.4346" y="-256.5" font-family="Helvetica,sans-Serif" font-size="10.00"> </text>
<polyline fill="none" stroke="black" points="15.2905,-250.5 81.5786,-250.5 "/>
<text text-anchor="start" x="23.2905" y="-238.5" font-family="Helvetica,sans-Serif" font-size="10.00">+ dispose()</text>
<text text-anchor="start" x="23.2905" y="-228.5" font-family="Helvetica,sans-Serif" font-size="10.00">+ toString()</text>
<text text-anchor="start" x="23.2905" y="-218.5" font-family="Helvetica,sans-Serif" font-size="10.00">+ toJSON()</text>
<text text-anchor="start" x="23.2905" y="-208.5" font-family="Helvetica,sans-Serif" font-size="10.00">+ valueOf()</text>
</a>
</g>
</g>
<!-- Node3&#45;&gt;Node2 -->
<g id="edge2" class="edge"><title>Node3&#45;&gt;Node2</title>
<path fill="none" stroke="midnightblue" d="M48.4346,-192.111C48.4346,-182.937 48.4346,-173.738 48.4346,-165.655"/>
<polygon fill="none" stroke="midnightblue" points="44.9347,-192.396 48.4346,-202.396 51.9347,-192.396 44.9347,-192.396"/>
</g>
</g>
</svg>
