<?xml version="1.0" encoding="UTF-8" standalone="no"?>
<!DOCTYPE svg PUBLIC "-//W3C//DTD SVG 1.1//EN"
 "http://www.w3.org/Graphics/SVG/1.1/DTD/svg11.dtd">
<!-- Generated by graphviz version 2.38.0 (20140413.2041)
 -->
<!-- Title: HeapGraphNode Pages: 1 -->
<svg width="100pt" height="224pt"
 viewBox="0.00 0.00 99.61 224.00" xmlns="http://www.w3.org/2000/svg" xmlns:xlink="http://www.w3.org/1999/xlink">
<g id="graph0" class="graph" transform="scale(1 1) rotate(0) translate(4 220)">
<title>HeapGraphNode</title>
<polygon fill="white" stroke="none" points="-4,4 -4,-220 95.6055,-220 95.6055,4 -4,4"/>
<!-- Node1 -->
<g id="node1" class="node"><title>Node1</title>
<polygon fill="#bfbfbf" stroke="black" points="0,-0.5 0,-94.5 91.6055,-94.5 91.6055,-0.5 0,-0.5"/>
<text text-anchor="middle" x="45.8027" y="-82.5" font-family="Helvetica,sans-Serif" font-size="10.00">HeapGraphNode</text>
<polyline fill="none" stroke="black" points="0,-76.5 91.6055,-76.5 "/>
<text text-anchor="start" x="8" y="-64.5" font-family="Helvetica,sans-Serif" font-size="10.00">+ type</text>
<text text-anchor="start" x="8" y="-54.5" font-family="Helvetica,sans-Serif" font-size="10.00">+ name</text>
<text text-anchor="start" x="8" y="-44.5" font-family="Helvetica,sans-Serif" font-size="10.00">+ id</text>
<text text-anchor="start" x="8" y="-34.5" font-family="Helvetica,sans-Serif" font-size="10.00">+ shallowSize</text>
<text text-anchor="start" x="8" y="-24.5" font-family="Helvetica,sans-Serif" font-size="10.00">+ childs</text>
<polyline fill="none" stroke="black" points="0,-18.5 91.6055,-18.5 "/>
<text text-anchor="middle" x="45.8027" y="-6.5" font-family="Helvetica,sans-Serif" font-size="10.00"> </text>
</g>
<!-- Node2 -->
<g id="node2" class="node"><title>Node2</title>
<g id="a_node2"><a xlink:href="../../db/d38/interfaceobject.html" target="_top" xlink:title="All objects inherit from this. ">
<polygon fill="white" stroke="black" points="12.6587,-131.5 12.6587,-215.5 78.9468,-215.5 78.9468,-131.5 12.6587,-131.5"/>
<text text-anchor="middle" x="45.8027" y="-203.5" font-family="Helvetica,sans-Serif" font-size="10.00">object</text>
<polyline fill="none" stroke="black" points="12.6587,-197.5 78.9468,-197.5 "/>
<text text-anchor="middle" x="45.8027" y="-185.5" font-family="Helvetica,sans-Serif" font-size="10.00"> </text>
<polyline fill="none" stroke="black" points="12.6587,-179.5 78.9468,-179.5 "/>
<text text-anchor="start" x="20.6587" y="-167.5" font-family="Helvetica,sans-Serif" font-size="10.00">+ dispose()</text>
<text text-anchor="start" x="20.6587" y="-157.5" font-family="Helvetica,sans-Serif" font-size="10.00">+ toString()</text>
<text text-anchor="start" x="20.6587" y="-147.5" font-family="Helvetica,sans-Serif" font-size="10.00">+ toJSON()</text>
<text text-anchor="start" x="20.6587" y="-137.5" font-family="Helvetica,sans-Serif" font-size="10.00">+ valueOf()</text>
</a>
</g>
</g>
<!-- Node2&#45;&gt;Node1 -->
<g id="edge1" class="edge"><title>Node2&#45;&gt;Node1</title>
<path fill="none" stroke="midnightblue" d="M45.8027,-121.122C45.8027,-112.378 45.8027,-103.343 45.8027,-94.7419"/>
<polygon fill="none" stroke="midnightblue" points="42.3028,-121.21 45.8027,-131.21 49.3028,-121.21 42.3028,-121.21"/>
</g>
</g>
</svg>
